<svg width="24" height="24" viewBox="0 0 24 24" fill="none" xmlns="http://www.w3.org/2000/svg">
<path d="M21.4286 0H2.57143C1.88944 0 1.23539 0.270918 0.753154 0.753154C0.270918 1.23539 0 1.88944 0 2.57143L0 21.4286C0 22.1106 0.270918 22.7646 0.753154 23.2468C1.23539 23.7291 1.88944 24 2.57143 24H9.92411V15.8405H6.54911V12H9.92411V9.07286C9.92411 5.74339 11.9063 3.90429 14.9421 3.90429C16.3961 3.90429 17.9164 4.16357 17.9164 4.16357V7.43143H16.2413C14.5907 7.43143 14.0759 8.45571 14.0759 9.50625V12H17.7605L17.1713 15.8405H14.0759V24H21.4286C22.1106 24 22.7646 23.7291 23.2468 23.2468C23.7291 22.7646 24 22.1106 24 21.4286V2.57143C24 1.88944 23.7291 1.23539 23.2468 0.753154C22.7646 0.270918 22.1106 0 21.4286 0Z" fill="white"/>
</svg>
