<svg width="402" height="70" viewBox="0 0 402 70" fill="none" xmlns="http://www.w3.org/2000/svg">
<g clip-path="url(#clip0_171_1155)">
<mask id="mask0_171_1155" style="mask-type:luminance" maskUnits="userSpaceOnUse" x="0" y="0" width="402" height="70">
<path d="M402 0.0299988H0V69.97H402V0.0299988Z" fill="white"/>
</mask>
<g mask="url(#mask0_171_1155)">
<mask id="mask1_171_1155" style="mask-type:luminance" maskUnits="userSpaceOnUse" x="0" y="0" width="402" height="70">
<path d="M402 0.0299988H0V69.97H402V0.0299988Z" fill="white"/>
</mask>
<g mask="url(#mask1_171_1155)">
<path d="M118.949 9.94H95.2691C93.6191 9.94 92.2391 10.49 91.4191 11.32C90.3191 12.42 90.0391 13.52 90.0391 15.17V55.65C90.0391 57.3 90.5891 58.4 91.4191 59.23C92.2491 60.06 93.6191 60.33 95.5491 60.33C96.3791 60.33 97.4791 60.33 98.2991 60.05C99.1291 60.05 99.6791 59.77 100.229 59.77V40.22H113.719C114.819 40.22 115.649 39.94 116.469 39.12C117.019 38.29 117.569 37.47 117.569 36.09C117.569 35.26 117.569 34.44 117.289 33.89C117.009 33.34 116.739 32.79 116.459 32.24H100.489V18.2H116.739C117.839 18.2 118.669 17.92 119.489 17.1C120.039 16.27 120.589 15.17 120.589 13.8C120.589 12.97 120.589 12.15 120.309 11.6C119.479 10.77 119.209 10.5 118.929 9.95" fill="white"/>
<path d="M131.06 9.94C130.23 9.94 129.41 9.94 128.58 10.22C127.75 10.5 127.2 10.5 126.65 10.5V55.38C126.65 57.03 127.2 58.13 128.03 58.96C128.86 59.51 130.23 60.06 132.16 60.06C133.26 60.06 134.09 60.06 134.91 59.78C135.74 59.78 136.29 59.5 136.84 59.23V14.62C136.84 12.97 136.29 11.87 135.46 11.04C134.08 10.21 132.71 9.94 131.05 9.94" fill="white"/>
<path d="M175.39 22.61C172.36 20.96 168.78 20.13 164.93 20.13C161.08 20.13 157.5 20.96 154.47 22.61C151.44 24.26 149.24 26.74 147.31 29.77C145.66 32.8 144.83 36.38 144.83 40.51C144.83 44.64 145.66 48.22 147.31 51.25C148.96 54.28 151.16 56.48 154.19 58.13C157.22 59.78 160.8 60.61 164.65 60.61C168.78 60.61 172.36 59.78 175.11 58.13C178.14 56.48 180.34 54 181.99 50.97C183.64 47.94 184.47 44.36 184.47 40.23C184.47 36.1 183.64 32.52 181.99 29.49C180.89 26.74 178.41 24.26 175.38 22.61M172.36 49.59C170.71 51.79 168.23 52.89 165.2 52.89C162.17 52.89 159.69 51.79 158.04 49.59C156.39 47.39 155.29 44.36 155.29 40.23C155.29 36.38 156.12 33.35 158.04 30.87C159.69 28.67 162.17 27.57 165.2 27.57C168.23 27.57 170.71 28.67 172.36 30.87C174.01 33.07 175.11 36.1 175.11 40.23C174.83 44.36 174.01 47.39 172.36 49.59Z" fill="white"/>
<path d="M281.949 9.94H258.269C256.619 9.94 255.239 10.49 254.419 11.32C253.319 12.42 253.039 13.52 253.039 15.17V55.65C253.039 57.3 253.589 58.4 254.419 59.23C255.249 60.06 256.619 60.33 258.549 60.33C259.379 60.33 260.479 60.33 261.299 60.05C262.129 60.05 262.679 59.77 263.229 59.77V40.22H276.719C277.819 40.22 278.649 39.94 279.469 39.12C280.019 38.29 280.569 37.47 280.569 36.09C280.569 35.26 280.569 34.44 280.289 33.89C280.009 33.34 279.739 32.79 279.459 32.24H263.489V18.2H279.739C280.839 18.2 281.669 17.92 282.489 17.1C283.039 16.27 283.589 15.17 283.589 13.8C283.589 12.97 283.589 12.15 283.309 11.6C282.479 10.77 282.209 10.5 281.929 9.95" fill="white"/>
<path d="M243.95 21.51C243.12 20.96 242.02 20.68 240.65 20.68C239 20.68 237.62 20.96 236.24 21.78C235.41 26.74 234.59 31.69 233.49 36.92C232.39 41.88 231.56 46.83 230.46 51.24H230.18C229.9 50.14 229.35 48.21 228.8 45.46C227.97 42.98 227.15 39.95 226.32 36.65C225.22 33.35 224.39 30.04 223.29 26.46C223.01 25.36 222.46 24.81 221.36 24.26C220.53 23.71 219.16 23.71 217.78 23.71C216.68 23.71 215.85 23.71 215.03 23.99C214.21 24.27 213.38 24.54 212.83 25.09C211.73 28.67 210.63 32.25 209.53 35.83C208.43 39.41 207.6 42.44 206.78 45.19C205.96 47.94 205.4 49.87 205.13 51.25H204.85C204.57 50.42 204.3 49.05 204.02 47.4C203.74 45.75 203.19 43.82 202.64 41.62C202.09 39.42 201.54 36.94 201.26 33.91C200.71 31.16 200.16 28.13 199.88 25.1C199.6 23.45 199.05 22.35 198.23 21.8C197.4 21.25 196.3 20.7 194.93 20.7C193.83 20.7 192.73 20.98 191.9 21.25C190.52 21.53 189.97 22.08 189.42 22.63C189.7 24.56 190.25 27.04 190.8 29.79C191.35 32.54 191.9 35.3 192.73 38.05C193.28 40.8 194.11 43.56 194.66 46.31C195.21 49.06 196.04 51.27 196.59 53.19C197.14 55.12 197.69 56.77 198.24 57.87C198.79 58.7 199.34 59.52 200.72 59.8C201.82 60.35 203.2 60.35 204.57 60.35C205.94 60.35 207.05 60.35 207.87 60.07C208.7 59.79 209.52 59.52 210.07 58.97C210.62 57.32 211.45 54.84 212.27 52.36C213.1 49.61 214.2 46.85 215.02 43.82C215.85 40.79 216.95 37.76 217.5 34.73C218.33 37.76 219.15 40.51 219.98 43.54C220.81 46.57 221.63 49.32 222.46 51.8C223.29 54.28 224.11 56.48 224.66 58.13C225.21 59.78 227.14 60.61 230.44 60.61C231.82 60.61 232.92 60.33 233.74 60.06C234.84 59.78 235.67 59.51 235.94 58.96C236.49 57.86 236.77 56.48 237.59 54.55C238.14 52.62 238.69 50.7 239.52 48.22C240.07 46.02 240.9 43.54 241.45 41.06C242 38.58 242.55 36.1 243.1 33.9C243.65 31.7 243.93 29.77 244.48 28.12C244.76 26.47 245.03 25.09 245.03 24.54C245.31 22.89 244.75 22.06 243.93 21.51" fill="white"/>
<path d="M316.92 20.68C316.09 20.68 315.27 20.68 314.44 20.96C313.61 21.24 313.06 21.24 312.51 21.24V50.98C311.96 51.26 310.86 51.81 309.76 52.08C308.66 52.36 307.01 52.63 305.35 52.63C302.6 52.63 300.67 52.08 299.02 50.7C297.64 49.32 296.82 47.4 296.82 44.64V25.37C296.82 23.72 296.27 22.34 295.44 21.79C294.61 21.24 293.24 20.69 291.31 20.69C290.21 20.69 289.38 20.69 288.56 20.97C287.73 21.25 287.18 21.25 286.91 21.25V44.65C286.91 48.23 287.74 51.26 289.11 53.74C290.49 55.94 292.69 57.87 295.44 58.97C298.19 60.07 301.5 60.62 305.08 60.62C308.11 60.62 310.86 60.34 313.34 59.79C315.82 59.24 317.75 58.41 319.12 57.59C320.22 56.76 321.05 56.21 321.6 55.39C322.15 54.56 322.15 53.46 322.15 52.36V25.38C322.15 23.73 321.6 22.35 320.77 21.8C319.94 20.97 318.84 20.7 316.92 20.7" fill="white"/>
<path d="M347.76 36.65L343.63 35.55C341.98 35.27 340.88 34.72 340.05 33.9C339.22 33.35 338.95 32.52 338.95 31.42C338.95 30.04 339.5 29.22 340.88 28.39C341.98 27.84 343.91 27.29 345.84 27.29C347.22 27.29 348.59 27.57 349.97 27.84C351.35 28.12 352.72 28.39 353.82 28.94C354.92 29.49 355.75 29.77 356.57 30.32C357.12 29.77 357.67 29.22 357.95 28.67C358.23 27.84 358.5 27.29 358.5 26.19C358.5 24.81 357.95 23.71 356.85 22.89C355.75 22.06 354.1 21.24 352.17 20.69C350.24 20.14 347.76 19.86 345.29 19.86C340.33 19.86 336.48 20.96 333.73 23.16C330.98 25.36 329.6 28.12 329.6 31.42C329.6 34.45 330.43 36.93 332.35 38.58C334.28 40.51 337.03 41.88 340.89 42.71L345.57 43.81C347.22 44.09 348.6 44.64 349.42 45.46C350.25 46.29 350.52 47.11 350.52 48.49C350.52 51.24 348.32 52.9 343.64 52.9C341.16 52.9 338.96 52.62 336.76 51.8C334.83 50.97 332.91 50.15 331.53 49.05C330.7 49.6 330.15 50.15 329.88 50.98C329.33 51.81 329.33 52.63 329.33 53.46C329.33 55.66 330.71 57.31 333.46 58.69C336.21 60.07 339.79 60.62 344.2 60.62C349.43 60.62 353.56 59.52 356.32 57.32C359.08 55.12 360.45 52.36 360.45 48.51C360.45 45.48 359.35 42.73 357.42 40.8C355.22 39.15 352.19 37.5 347.78 36.67L347.76 36.65Z" fill="white"/>
<path d="M400.899 40.23C401.729 39.4 401.999 38.3 401.999 36.93C401.999 33.63 401.169 30.87 399.799 28.39C398.429 25.91 396.219 23.98 393.469 22.33C390.719 20.95 387.689 20.13 384.109 20.13C381.629 20.13 379.149 20.68 376.679 21.51C374.479 22.34 372.269 23.71 370.619 25.36C368.969 27.01 367.589 29.21 366.489 31.69C365.389 34.17 365.109 37.2 365.109 40.23C365.109 44.64 365.939 48.49 367.859 51.52C369.509 54.55 372.269 57.03 375.289 58.4C378.589 60.05 382.169 60.6 386.299 60.6C389.049 60.6 391.259 60.32 393.459 59.77C395.659 59.22 397.309 58.39 398.419 57.57C399.799 56.47 400.349 55.37 400.349 53.99C400.349 53.16 400.069 52.34 399.799 51.51C399.249 50.68 398.699 50.13 398.149 49.86C397.049 50.69 395.399 51.51 393.469 52.06C391.539 52.61 389.339 53.16 387.139 53.16C383.839 53.16 380.809 52.33 378.599 50.68C376.949 49.3 375.569 47.38 375.019 44.9L397.599 41.6C398.979 41.32 400.079 41.05 400.899 40.22V40.23ZM374.469 38.03C374.749 34.73 375.569 32.25 377.219 30.32C379.149 28.39 381.349 27.29 384.099 27.29C386.849 27.29 388.779 28.12 390.429 29.49C391.809 31.14 392.629 32.79 392.909 35L374.459 38.03H374.469Z" fill="white"/>
<path d="M38.5508 42.16C45.7108 45.19 52.5908 48.77 60.0308 50.42C63.3308 50.97 66.6408 51.25 69.9408 51.25V33.08H67.1908C57.0008 33.08 47.6408 38.31 38.5508 42.17" fill="white"/>
<path d="M17.35 47.94C14.05 47.66 10.74 47.66 7.44 47.66H0V64.46C0 67.49 2.48 69.97 5.51 69.97H64.71C67.74 69.97 70.22 67.49 70.22 64.46V62.26C63.06 62.26 55.63 61.43 49.02 58.68C38.28 55.1 28.64 48.22 17.36 47.94" fill="white"/>
<path d="M64.43 0.0299988H5.51C2.48 0.0299988 0 2.51 0 5.54V36.65C6.61 36.65 13.49 36.93 20.1 36.37C29.19 35.54 37.17 30.59 45.71 27.28C53.42 23.98 61.68 22.05 69.94 22.32V5.54C69.94 2.51 67.46 0.0299988 64.43 0.0299988Z" fill="white"/>
</g>
</g>
</g>
<defs>
<clipPath id="clip0_171_1155">
<rect width="402" height="70" fill="white"/>
</clipPath>
</defs>
</svg>
