<svg enable-background="new 0 0 79.4 79.4" viewBox="0 0 79.4 79.4" xmlns="http://www.w3.org/2000/svg"><path d="m77.8 92.7c-3.5 0-6.3 2.8-6.3 6.3v34.7c7.5 0 15 .2 22.5-.3 10.4-1 19.6-6.6 29.2-10.2 8.7-3.7 18.1-5.9 27.7-5.7v-18.4c0-3.5-2.8-6.3-6.3-6.3zm73 37.1c-1.1 0-2.1 0-3.2.1-11.6 0-22 6-32.5 10.2 8.1 3.3 16 7.5 24.5 9.4 3.7.6 7.4.8 11.1.9zm-71.1 16.6c-2.7 0-5.5 0-8.2 0v19.2c0 3.5 2.8 6.3 6.3 6.3h66.7c3.5 0 6.3-2.8 6.3-6.3v-2.8c-8.2-.1-16.4-1.3-24-4.4-11.8-4.1-22.8-11.4-35.7-11.9-3.8-.1-7.6-.1-11.4-.1z" fill="#ed4e4e" transform="translate(-71.47 -92.65)"/></svg>