<svg enable-background="new 0 0 79.4 79.4" viewBox="0 0 79.4 79.4" xmlns="http://www.w3.org/2000/svg"><path fill-rule="evenodd" clip-rule="evenodd" d="M6.28751 0H73.5639C77.022 0 79.8514 2.83457 79.8514 6.29905V25.5112C70.4201 25.1962 60.9888 27.4009 52.1863 31.1803C49.3488 32.2807 46.5646 33.5413 43.7871 34.7989C37.0251 37.8605 30.3032 40.904 22.9494 41.5737C17.2809 42.047 11.435 41.9869 5.67825 41.9277C3.77251 41.9082 1.87653 41.8887 0 41.8887V6.29905C0 2.83457 2.82938 0 6.28751 0ZM44.0131 48.1865C45.9468 49.0061 47.863 49.861 49.7741 50.7136L49.7742 50.7136C55.9409 53.4649 62.0544 56.1924 68.5343 57.635C72.3069 58.2649 76.0794 58.5799 79.8519 58.5799V37.793H76.7081C67.2021 37.793 58.326 41.7897 49.7365 45.6572L49.7363 45.6573C47.8155 46.5222 45.909 47.3806 44.0131 48.1865ZM19.8057 54.8032C16.0332 54.4883 12.2606 54.4883 8.48814 54.4883H0V73.7004C0 77.1649 2.82938 79.9994 6.28751 79.9994H73.8782C77.3364 79.9994 80.1657 77.1649 80.1657 73.7004V71.1808C71.992 71.1808 63.5038 70.2359 55.9588 67.0864C51.7804 65.691 47.7481 63.8567 43.7373 62.0322L43.7373 62.0322C35.9794 58.5031 28.3023 55.0108 19.8057 54.8032Z" fill="#ED4E4E"/>
<path d="M79.8514 37.7939V25.1958C70.4201 24.8808 60.9888 27.0855 52.1863 30.8649C42.4407 34.6444 33.3238 40.3135 22.9494 41.2584C15.4044 41.8883 7.54501 41.5733 0 41.5733V54.4864H8.48814C12.2606 54.4864 16.0331 54.4864 19.8057 54.8013C32.695 55.1163 43.6982 62.9901 55.6445 67.0845C63.1895 70.234 71.6776 71.1789 79.8514 71.1789V58.5807C76.0789 58.5807 72.3064 58.2658 68.5338 57.6359C60.0457 55.7462 52.1863 51.6518 44.0126 48.1873C54.387 43.778 65.0757 37.7939 76.7076 37.7939H79.8514Z" fill="white"/></svg>