<?xml version="1.0" encoding="utf-8"?>
<!-- Generator: Adobe Illustrator 27.5.0, SVG Export Plug-In . SVG Version: 6.00 Build 0)  -->
<svg version="1.1" id="Layer_1" xmlns="http://www.w3.org/2000/svg" xmlns:xlink="http://www.w3.org/1999/xlink" x="0px" y="0px"
	 viewBox="0 0 79.4 79.4" style="enable-background:new 0 0 79.4 79.4;" xml:space="preserve">
<style type="text/css">
	.st0{fill:#ED4E4E;}
</style>
<g transform="translate(-71.47 -92.65)">
	<path class="st0" d="M77.8,92.7c-3.5,0-6.3,2.8-6.3,6.3c0,11.6,0,23.1,0,34.7c7.5,0,15,0.2,22.5-0.3c10.4-1,19.6-6.6,29.2-10.2
		c8.7-3.7,18.1-5.9,27.7-5.7l0-18.4c0-3.5-2.8-6.3-6.3-6.3L77.8,92.7z M150.8,129.8c-1.1,0-2.1,0-3.2,0.1c-11.6,0-22,6-32.5,10.2
		c8.1,3.3,16,7.5,24.5,9.4c3.7,0.6,7.4,0.8,11.1,0.9L150.8,129.8z M79.7,146.4c-2.7,0-5.5,0-8.2,0c0,6.4,0,12.8,0,19.2
		c0,3.5,2.8,6.3,6.3,6.3h66.7c3.5,0,6.3-2.8,6.3-6.3v-2.8c-8.2-0.1-16.4-1.3-24-4.4c-11.8-4.1-22.8-11.4-35.7-11.9
		C87.3,146.4,83.5,146.4,79.7,146.4L79.7,146.4z"/>
</g>
</svg>
