<svg viewBox="0 0 459 87.54" xmlns="http://www.w3.org/2000/svg"><g transform="translate(-71.47 -92.65)"><path d="m462.6 180.2c-3.428-.2312-7.038-1.153-9.471-2.419-1.251-.6507-2.493-1.812-2.949-2.758-.613-1.272-.5968-2.993.0408-4.299.3956-.8103 1.236-1.634 2.18-2.137l.6204-.3304.6235.4722c1.118.8467 2.881 1.704 4.885 2.377 1.906.6393 3.122.8392 5.551.9134 3.236.0984 5.121-.2131 7.117-1.177 1.883-.909 2.983-2.286 3.578-4.481.1958-.7208.2451-1.312.289-3.464l.0529-2.594-.7253.3278c-4.766 2.153-12.37 1.927-17.4-.5183-3.354-1.628-5.81-4.116-7.529-7.63-1.63-3.33-2.247-6.336-2.247-10.95-.00008-3.705.4578-6.362 1.572-9.129 3.065-7.608 10.23-11.74 19.82-11.44 3.062.0969 5.187.4749 7.862 1.398 4.389 1.515 7.217 3.825 7.748 6.327.0994.4683.1226 5.358.0918 19.28-.0413 18.53-.0431 18.67-.284 19.74-.7086 3.168-1.826 5.336-3.781 7.336-2.58 2.641-6.31 4.274-11.26 4.933-1.347.1789-5.056.3022-6.384.2124zm7.187-26.35c.5477-.0955 1.306-.2781 1.685-.4057.7748-.2611 2.259-1.074 3.08-1.687l.5459-.4074v-20.62l-.841-.3832c-.916-.4174-2.248-.8594-3.325-1.103-.4683-.1061-1.46-.1531-3.138-.1486-2.299.007-2.523.0257-3.564.3128-4.309 1.189-6.643 3.978-7.52 8.98-.1881 1.073-.1905 4.858-.003 6.104.9493 6.354 4.424 9.476 10.59 9.519.8765.007 1.91-.0616 2.493-.1634zm-219.5 10.49c-6.533-.492-11.5-3.14-14.91-7.941-1.424-2.008-2.759-5.126-3.295-7.695-.788-3.777-.7928-8.406-.0133-11.93 1.774-8.011 6.889-13.4 14.45-15.24 3.246-.7871 7.651-.7818 10.78.0132 4.052 1.028 7.52 3.129 9.809 5.941 1.756 2.157 3.073 4.622 3.931 7.345 1.43 4.543 1.45 11 .0472 15.59-2.379 7.792-8.134 12.75-15.96 13.74-1.079.1367-3.967.2401-4.85.1736zm4.565-8.362c4.008-1.064 6.494-3.992 7.472-8.796.5025-2.467.5029-6.555.00045-9.02-.8792-4.314-3.215-7.375-6.503-8.515-2.544-.8848-6.147-.8151-8.388.1621-2.895 1.263-5.034 3.951-5.915 7.441-.4215 1.668-.5288 2.502-.6099 4.744-.1742 4.81.9423 8.726 3.19 11.18 2.05 2.241 4.451 3.158 8.068 3.083 1.351-.028 1.985-.094 2.682-.2791zm133.5 8.362c-5.257-.3941-9.199-2.021-12.55-5.174-3.334-3.14-5.463-7.656-6.117-12.96-.2018-1.638-.1778-5.639.0434-7.248.378-2.744 1.004-4.902 2.08-7.165 2.501-5.262 6.832-8.778 12.61-10.25 1.272-.3227 2.729-.5086 4.565-.5819 11.31-.4525 19.38 6.472 20.96 17.99.2212 1.606.2452 5.608.0436 7.248-.834 6.77-4.033 12.22-8.936 15.22-2.293 1.402-5.121 2.393-7.849 2.748-.9787.1276-4 .2332-4.85.1695zm3.652-8.2c1.837-.3285 3.461-1.046 4.644-2.05 1.897-1.613 3.134-4.02 3.82-7.428.1684-.8366.2067-1.587.207-4.051 0-2.738-.0249-3.142-.2662-4.27-.67-3.133-1.635-5.016-3.455-6.748-1.388-1.32-2.529-1.908-4.534-2.336-1.026-.2188-1.417-.2446-2.967-.1954-1.35.0428-2.008.1178-2.698.3075-4.005 1.101-6.612 4.332-7.555 9.362-.2955 1.579-.2936 6.595.003 7.989.7099 3.335 1.49 4.942 3.271 6.744 1.502 1.519 2.678 2.146 4.907 2.616 1.211.2549 3.382.2843 4.622.0627zm119.4 8.138c-4.972-.4415-9.274-2.101-12.58-4.854-3.612-3.005-5.762-7.108-6.551-12.5-.2848-1.946-.3469-5.845-.1238-7.761.3789-3.26.9809-5.345 2.314-8.011 2.188-4.38 6.02-7.678 10.66-9.177 5.17-1.67 11.15-1.298 15.69.9752 5.937 2.975 9.647 9.177 9.642 16.11-.001.8647-.065 1.674-.1612 2.036-.4094 1.538-1.44 2.509-3.118 2.939-.3608.0923-6.2.9388-12.97 1.881-6.774.9418-12.34 1.739-12.37 1.77-.096.096.67 2.004 1.135 2.828 1.19 2.107 2.815 3.582 5.021 4.556 3.276 1.446 8.213 1.622 11.8.4214 1.507-.5042 3.393-1.455 4.586-2.314.5775-.4151 1.085-.7546 1.129-.7546.0431 0 .5038.2831 1.024.6292 3.193 2.125 3.041 5.81-.3388 8.208-3.255 2.309-9.164 3.517-14.78 3.018zm-.3156-25.72c5.218-.7213 9.682-1.342 9.914-1.379.4041-.0641.4201-.0835.3553-.4289-.1564-.8331-.6573-2.243-1.074-3.023-1.269-2.376-3.096-3.857-5.525-4.477-1.31-.3349-3.57-.4153-4.942-.1758-3.556.6204-6.349 2.948-7.682 6.397-.3511.9103-.8164 2.812-.9436 3.858-.0602.4933-.0447.542.1698.542.1298 0 4.508-.5902 9.725-1.311zm-220.3 25.17c-1.652-.2633-2.92-.9515-3.604-1.955-1.769-2.599-6.424-18.58-9.857-33.83l-.9498-4.223.588-.5569c1.352-1.281 2.455-1.785 4.094-1.869 2.081-.1076 3.371.5692 4.236 2.222.5341 1.02.5757 1.178 1.914 7.222 1.857 8.384 4.81 20.94 4.959 21.09.0292.0292.0771-.0186.1067-.1061.0297-.0875.7783-2.419 1.664-5.178.8857-2.762 2.742-8.436 4.125-12.61 1.993-6.016 2.571-7.638 2.788-7.822.474-.4015 1.882-.877 3.15-1.063 1.417-.2083 2.771-.0963 3.882.321.7511.2822 1.681 1.067 2.089 1.764.4442.7577 4.49 13.04 6.902 20.95 1.123 3.684 1.219 3.965 1.293 3.766.2111-.57 4.19-15.97 4.749-18.37.6424-2.77 1.409-6.485 1.98-9.581l.2616-1.421.6538-.382c1.001-.5845 2.287-.8682 3.614-.7963 1.877.1014 2.965.7187 3.656 2.074.3823.7494.3989.8322.3873 1.936-.0189 1.798-.7147 5.113-2.392 11.39-3.058 11.45-7.485 25.11-8.375 25.86-.3699.308-1.282.7178-2.136.9603-.7165.2031-1.182.2521-2.375.2498-2.715-.005-4.299-.6647-5.012-2.087-.8857-1.763-3.99-11.03-6.792-20.27-.5709-1.883-1.067-3.5-1.103-3.595-.0373-.0988-.1601.1427-.2903.5705-2.097 6.893-2.89 9.348-4.626 14.32-1.289 3.692-3.266 9.046-3.525 9.55-.189.3654-1.472 1.03-2.485 1.288-.8217.2088-2.776.3091-3.566.1832zm-107.7-.1687c-1.504-.3424-2.373-.9638-2.929-2.094l-.376-.7638-.0335-21.17c-.0237-15 .004-21.5.0936-22.31.6117-5.494 3.019-9.015 7.546-11.04 2.808-1.253 6.336-1.787 10.37-1.568 3.002.1634 4.622.5183 6.468 1.419 1.531.7472 2.494 1.572 2.973 2.548.2841.5783.317.7638.3069 1.732-.0173 1.664-.5683 2.821-1.904 3.997l-.5393.4749-1.055-.5161c-2.626-1.285-6.033-1.88-9.02-1.574-3.002.3077-4.415 1.09-5.288 2.928-.6389 1.343-.7424 2.044-.805 5.446l-.0561 3.053h16.09l.4661.8963c.5955 1.144.8143 1.996.8143 3.169 0 2.338-1.041 3.654-3.1 3.922-.4604.0598-3.828.1102-7.485.1122l-6.647.003v30.48l-.5284.2265c-1.573.6739-3.939.9532-5.354.6314zm33.9.007c-1.502-.3189-2.348-.9212-2.865-2.04l-.3308-.7165-.0589-54.02.4289-.1803c2.043-.8585 5.021-1.018 6.489-.347 1.313.6012 2.01 1.601 2.214 3.176.0644.4959.1089 11.33.111 27.05l.004 26.22-.5284.2265c-1.562.6696-3.982.9524-5.463.6384zm127.3-.007c-1.975-.3994-3.091-1.54-3.362-3.434-.1485-1.039-.1548-39.43-.007-41.71.4516-6.967 3.319-10.91 9.362-12.87 2.065-.6709 4.163-.9524 7.077-.9502 4.305.003 7.441.7529 9.497 2.272 1.269.937 1.82 1.945 1.82 3.328 0 1.59-.4041 2.537-1.635 3.833-.567.5968-.8507.8204-.9432.7432-.3564-.2958-2.11-1.062-3.109-1.359-1.886-.5604-3.201-.748-5.231-.7463-4.6.003-6.533 1.115-7.384 4.25-.2062.7577-.2446 1.293-.2897 4.04l-.052 3.167h16.06l.4157.8274c.6275 1.249.8112 1.942.8239 3.106.0268 2.51-.9493 3.768-3.147 4.053-.46.0597-3.827.1102-7.485.112l-6.647.003v30.54l-.8945.3113c-1.718.5981-3.444.7682-4.867.4801zm77.13-.002c-1.08-.2529-1.53-.4937-2.224-1.187-1.187-1.189-1.081.4298-1.116-17.05-.0335-16.76-.0555-16.17.6512-17.6 1.199-2.435 4.885-4.587 10.16-5.937 2.814-.7187 7.612-1.062 10.27-.7349 3.323.4083 5.231 1.774 5.516 3.945.1792 1.369-.4062 3.275-1.318 4.291l-.3783.4213-1.084-.2171c-4.389-.8787-9.568-.3563-13.78 1.39l-.8274.343v31.48l-.5284.2265c-1.525.6538-4.002.9454-5.349.6301z" stroke-width=".1141"/><path d="m77.79 92.65c-3.497 0-6.311 2.816-6.311 6.313-.0052 11.55-.01316 23.11-.01499 34.66 7.5.0444 15.01.217 22.49-.3183 10.43-.9511 19.61-6.552 29.22-10.23 8.742-3.697 18.13-5.941 27.66-5.741l-.001-18.38c.004-3.498-2.815-6.313-6.311-6.313zm73.05 37.19c-1.055.0169-2.111.0457-3.166.0889-11.64-.0448-21.96 5.974-32.46 10.19 8.115 3.283 15.95 7.454 24.55 9.389 3.675.5576 7.372.8292 11.08.9085zm-71.13 16.57c-2.747.006-5.494.0346-8.239.0486.0024 6.416.0072 12.83.01757 19.25.0037 3.498 2.815 6.313 6.311 6.313h66.73c3.497 0 6.311-2.816 6.311-6.313v-2.778c-8.203-.0537-16.4-1.304-24.04-4.374-11.82-4.124-22.85-11.45-35.68-11.94-3.798-.1794-7.602-.2147-11.41-.2062z" fill="#a44" stroke-width=".9327"/></g></svg>