<svg fill="none" height="26" width="146" xmlns="http://www.w3.org/2000/svg"><path fill-rule="evenodd" clip-rule="evenodd" d="M16.602 9.9c-3.102 1.2-6 3-9.301 3.3-1.805.15-3.66.131-5.489.112L0 13.3V2C0 .9.898 0 2 0h21.398c1.102 0 2 .9 2 2v6.1c-3-.1-6 .6-8.796 1.8zm26.597-6.3h-8.601c-.598 0-1.098.2-1.399.5-.398.4-.5.8-.5 1.4v14.7c0 .6.2 1 .5 1.3.301.3.801.4 1.5.4.301 0 .7 0 1-.1.164 0 .301-.03.422-.058.098-.022.188-.043.277-.043v-7.1h4.903c.207 0 .39-.027.558-.096.153-.063.297-.16.442-.304.066-.1.133-.201.191-.31.117-.213.207-.457.207-.79 0-.3 0-.599-.101-.8l-.297-.6H36.5V6.6h5.898c.403 0 .7-.099 1-.4.2-.3.403-.699.403-1.199 0-.3 0-.6-.102-.8-.3-.3-.398-.4-.5-.6zm4.403 0c-.301 0-.602 0-.903.1-.3.1-.5.1-.699.1v16.3c0 .6.2 1 .5 1.3.3.2.8.4 1.5.4.398 0 .7 0 1-.1a1.243 1.243 0 0 0 .434-.079l.132-.057.133-.064V5.3c0-.6-.199-1-.5-1.3a2.656 2.656 0 0 0-.508-.24 3.285 3.285 0 0 0-1.09-.16zm12.3 3.7c1.399 0 2.7.3 3.801.9 1.098.6 2 1.5 2.399 2.5.226.414.41.857.55 1.327.13.425.22.873.278 1.344.047.394.07.803.07 1.229 0 1.5-.297 2.8-.898 3.9-.602 1.1-1.399 2-2.5 2.6-1 .6-2.301.9-3.801.9-1.399 0-2.7-.3-3.801-.9a6.042 6.042 0 0 1-2.5-2.5c-.598-1.1-.898-2.4-.898-3.9s.3-2.8.898-3.9c.703-1.1 1.5-2 2.602-2.6a7.082 7.082 0 0 1 1.609-.63 8.681 8.681 0 0 1 2.191-.27zM60 19.2c1.102 0 2-.4 2.602-1.2.601-.8.898-1.9 1-3.4 0-1.5-.399-2.6-1-3.4C62 10.4 61.102 10 60 10c-1.098 0-2 .4-2.598 1.2-.699.9-1 2-1 3.4 0 1.5.399 2.6 1 3.4.598.8 1.5 1.2 2.598 1.2zm42.398-15.6h-8.601c-.598 0-1.098.2-1.399.5-.398.4-.5.8-.5 1.4v14.7l.012.266.031.184c.075.362.239.632.457.85.125.124.286.214.477.276.273.09.613.123 1.023.123.301 0 .7 0 1-.1.301 0 .5-.1.7-.1v-7.1h4.902c.234 0 .434-.034.621-.124a1.43 1.43 0 0 0 .379-.276l.078-.117.125-.207c.07-.134.129-.28.164-.451.02-.099.031-.206.031-.324 0-.176 0-.352-.019-.508a.93.93 0 0 0-.082-.292l-.297-.6h-5.8V6.6h5.898c.14 0 .269-.013.39-.042.129-.032.25-.082.367-.159.083-.053.161-.12.243-.2.199-.3.402-.699.402-1.199v-.206l-.016-.28a1.009 1.009 0 0 0-.086-.315l-.179-.181-.164-.177a1.144 1.144 0 0 1-.157-.241zM87.402 7.5c.5 0 .899.1 1.2.3.3.2.5.5.398 1.1 0 .108-.031.3-.07.548l-.036.234-.023.12-.07.398c-.2.6-.301 1.3-.5 2.1-.168.681-.336 1.436-.508 2.203l-.094.397c-.11.498-.25.995-.386 1.475-.114.389-.223.767-.313 1.125-.3.9-.5 1.6-.7 2.3-.077.18-.14.348-.194.503l-.137.403c-.09.266-.168.492-.27.694a.338.338 0 0 1-.05.08l-.067.061-.074.049-.047.026a2.853 2.853 0 0 1-.559.184c-.3.1-.703.2-1.203.2-.726 0-1.27-.11-1.629-.33a1.078 1.078 0 0 1-.468-.57c-.09-.276-.204-.593-.329-.944l-.113-.318a44.146 44.146 0 0 1-.36-1.038 44.955 44.955 0 0 1-.605-1.945l-.293-1.055c-.3-1.1-.601-2.1-.902-3.2-.2 1.1-.598 2.2-.898 3.3-.301 1.1-.7 2.1-1 3.1l-.801 2.4c-.2.2-.5.3-.801.4-.3.1-.7.1-1.2.1-.16 0-.32 0-.48-.006l-.226-.016a1.92 1.92 0 0 1-.692-.178c-.5-.1-.703-.4-.902-.7-.2-.4-.398-1-.598-1.7-.152-.527-.359-1.11-.539-1.792a13.64 13.64 0 0 1-.164-.708c-.199-1-.5-2-.699-3l-.11-.384-.109-.401c-.09-.359-.172-.717-.25-1.075l-.086-.408-.144-.732-.16-.775A34.52 34.52 0 0 1 68.8 8.2c.199-.2.398-.4.898-.5.149-.05.324-.1.512-.137l.289-.044.152-.015.149-.004c.5 0 .898.2 1.199.4.047.03.09.066.133.106l.07.076c.035.042.07.088.102.138.136.217.234.51.297.88.097 1.1.3 2.2.5 3.2.05.587.132 1.117.23 1.605.082.427.176.822.27 1.195.199.8.398 1.5.5 2.1.054.348.113.662.171.923.043.19.086.35.13.477h.097c.043-.21.102-.454.18-.742l.117-.41.305-1.048.296-1.01.246-.86.223-.742.235-.788L77.3 9.1c.199-.2.5-.3.8-.4.16-.054.32-.079.497-.09.152-.01.316-.01.504-.01.5 0 1 0 1.3.2.399.2.598.4.7.8.398 1.3.699 2.5 1.097 3.7.301 1.2.602 2.3.903 3.2.199 1 .398 1.7.5 2.1h.097c.403-1.6.703-3.4 1.102-5.2.187-.896.351-1.771.508-2.633l.254-1.461L85.8 7.9c.5-.3 1-.4 1.601-.4zm28.578.097c-.23-.07-.515-.097-.882-.097-.172 0-.348 0-.524.02l-.164.025c-.07.014-.14.031-.211.055-.301.1-.5.1-.699.1v10.8c-.199.1-.602.3-1 .4-.402.1-1 .2-1.602.2-.214 0-.414-.01-.601-.029a3.503 3.503 0 0 1-.957-.224 2.793 2.793 0 0 1-.742-.447 2.487 2.487 0 0 1-.352-.438c-.285-.451-.445-1.024-.445-1.762v-7c0-.6-.203-1.1-.5-1.3a2.16 2.16 0 0 0-.414-.213l-.18-.06-.168-.045a3.207 3.207 0 0 0-.738-.082l-.418.006a2.06 2.06 0 0 0-.582.094 1.887 1.887 0 0 1-.422.092l-.121.008h-.059v8.5c0 1.3.301 2.4.801 3.3.5.8 1.301 1.5 2.301 1.9.258.104.531.194.812.27.395.107.813.188 1.25.243.461.058.942.087 1.438.087.41 0 .808-.014 1.195-.042a12.551 12.551 0 0 0 1.805-.258c.898-.2 1.597-.5 2.097-.8l.141-.105c.332-.245.582-.43.762-.695.113-.17.16-.373.183-.59.016-.164.016-.337.016-.51V9.2c0-.6-.199-1.1-.5-1.3a1.19 1.19 0 0 0-.52-.303zm8.821 5.303l1.5.4c1.601.3 2.699.9 3.5 1.5.699.7 1.101 1.7 1.101 2.8 0 .787-.156 1.447-.472 2.016-.246.445-.59.833-1.028 1.184-1 .8-2.5 1.2-4.402 1.2-1.598 0-2.898-.2-3.898-.7-1-.5-1.5-1.1-1.5-1.9 0-.3 0-.6.199-.9.047-.134.109-.248.195-.35a1.59 1.59 0 0 1 .172-.175c.07-.06.148-.118.234-.175.5.4 1.2.7 1.899 1 .801.3 1.601.4 2.5.4 1.699 0 2.5-.6 2.5-1.6 0-.5-.098-.8-.399-1.1-.3-.3-.8-.5-1.402-.6l-1.699-.4c-1.399-.3-2.399-.8-3.098-1.5-.703-.6-1-1.5-1-2.6 0-1.2.5-2.2 1.5-3 1-.8 2.399-1.2 4.199-1.2.899 0 1.801.1 2.5.3l.258.08.231.081c.156.06.308.123.449.19.297.14.555.295.762.449.398.3.601.7.601 1.2 0 .4-.101.6-.203.9-.098.2-.297.4-.5.6-.191-.13-.387-.218-.609-.318a9.327 9.327 0 0 1-.391-.182c-.398-.2-.898-.3-1.398-.4-.5-.1-1-.2-1.5-.2-.7 0-1.399.2-1.801.4-.5.3-.699.6-.699 1.1 0 .253.039.466.144.64.063.1.145.187.254.26.301.3.703.5 1.301.6zm20.402-2.6c-.5-.9-1.301-1.6-2.301-2.2a7.417 7.417 0 0 0-2.343-.73 7.9 7.9 0 0 0-1.059-.07c-.898 0-1.797.2-2.699.5-.348.13-.696.3-1.028.498a6.097 6.097 0 0 0-1.171.902c-.602.6-1.102 1.4-1.5 2.3-.399.9-.5 2-.5 3.1 0 .977.113 1.88.359 2.685.055.18.117.355.184.526l.148.333c.094.193.195.379.309.556a5.943 5.943 0 0 0 2.699 2.5c.293.146.59.268.894.37l.278.085c.222.065.449.118.679.163.286.055.575.096.871.125.411.04.836.057 1.278.057 1 0 1.801-.1 2.601-.3.348-.087.657-.192.926-.308.356-.153.649-.323.875-.493.5-.399.699-.8.699-1.3 0-.122-.019-.245-.047-.369a4.4 4.4 0 0 0-.152-.53c-.203-.3-.402-.5-.601-.6-.125.093-.27.187-.43.278a5.698 5.698 0 0 1-.754.35l-.238.085-.278.086c-.699.2-1.5.4-2.3.4-1.2 0-2.301-.299-3.102-.9a3.79 3.79 0 0 1-1.297-2.1l8.199-1.2c.309-.06.578-.122.809-.23a1.48 1.48 0 0 0 .391-.27c.164-.164.269-.357.328-.58.05-.186.07-.392.07-.62 0-1.199-.297-2.199-.797-3.1zM136 13.8c.043-.51.121-.968.246-1.378A3.81 3.81 0 0 1 137 11c.703-.7 1.5-1.1 2.5-1.1s1.703.3 2.301.8c.5.6.801 1.2.902 2L136 13.8zM25.398 18.6c-1.199 0-2.398-.1-3.597-.3-2.7-.6-5.2-1.9-7.801-3l.82-.357 1.008-.449c2.73-1.226 5.55-2.494 8.57-2.494h1v6.6zM4.45 17.31C3.867 17.3 3.281 17.3 2.7 17.3H0v6.1c0 1.1.898 2 2 2h21.5c1.102 0 2-.9 2-2v-.8c-2.602 0-5.3-.3-7.7-1.3-3.902-1.3-7.402-3.8-11.5-3.9a29.333 29.333 0 0 0-1.85-.088z" fill="#fff"/></svg>