<?xml version="1.0" encoding="UTF-8"?>
<svg id="Layer_1" xmlns="http://www.w3.org/2000/svg" version="1.1" viewBox="0 0 142.4 142.8">
  <!-- Generator: Adobe Illustrator 30.8.2, SVG Export Plug-In . SVG Version: 2.1.4 Build 7)  -->
  <defs>
    <style>
      .st0 {
        fill: #00adef;
      }
    </style>
  </defs>
  <path class="st0" d="M65.3,11.2c25.7-3.9,51.4-7.6,77.2-11.2,0,22.6,0,45.1,0,67.7-25.7,0-51.5.5-77.2.6,0-19,0-38,0-57ZM0,20.3c19.3-3,38.8-5.6,58.2-8,0,18.7,0,37.4,0,56.1-19.4,0-38.8.3-58.2.2V20.3ZM0,74.5c19.4,0,38.8.2,58.2.2,0,18.8,0,37.5,0,56.3-19.4-2.9-38.8-5.4-58.2-8v-48.5ZM65.1,75.3h77.3c0,22.5,0,45,0,67.5-25.7-3.8-51.4-7.4-77.2-10.9,0-18.9,0-37.7-.1-56.6Z"/>
</svg>