<svg xmlns="http://www.w3.org/2000/svg" xmlns:xlink="http://www.w3.org/1999/xlink" width="952" height="743" fill="none" viewBox="0 0 952 743">
  <path fill="#fff" d="M0 0h952v743H0z"/>
  <g filter="url(#a)">
    <path fill="#1F2937" d="M94 376c0-8.837 7.163-16 16-16h742c8.837 0 16 7.163 16 16v28H94v-28Z"/>
    <path fill="#fff" d="M453.213 378.576V390h2.512v-4.72h4.784v-1.952h-4.784v-2.64h5.52v-2.112h-8.032Zm9.149 5.696c.032-.533.165-.976.4-1.328a2.71 2.71 0 0 1 .896-.848 3.762 3.762 0 0 1 1.216-.448 6.693 6.693 0 0 1 1.376-.144c.416 0 .837.032 1.264.096.426.053.816.165 1.168.336s.64.411.864.72c.224.299.336.699.336 1.2v4.304c0 .373.021.731.064 1.072.042.341.117.597.224.768h-2.304a5.052 5.052 0 0 1-.112-.384 4.906 4.906 0 0 1-.048-.416c-.363.373-.79.635-1.28.784a5.15 5.15 0 0 1-1.504.224 4.06 4.06 0 0 1-1.104-.144 2.517 2.517 0 0 1-.896-.448 2.164 2.164 0 0 1-.608-.768c-.139-.309-.208-.677-.208-1.104 0-.469.08-.853.24-1.152.17-.309.384-.555.64-.736.266-.181.565-.315.896-.4a8.682 8.682 0 0 1 1.024-.224c.341-.053.677-.096 1.008-.128.33-.032.624-.08.88-.144a1.62 1.62 0 0 0 .608-.272c.149-.128.218-.309.208-.544 0-.245-.043-.437-.128-.576a.76.76 0 0 0-.32-.336 1.045 1.045 0 0 0-.464-.16 3.052 3.052 0 0 0-.56-.048c-.448 0-.8.096-1.056.288-.256.192-.406.512-.448.96h-2.272Zm5.248 1.68a1.111 1.111 0 0 1-.368.208 6.342 6.342 0 0 1-.976.192 9.14 9.14 0 0 0-.544.08 4.507 4.507 0 0 0-.512.128c-.16.053-.304.128-.432.224a.965.965 0 0 0-.288.336 1.105 1.105 0 0 0-.112.528c0 .203.037.373.112.512a.912.912 0 0 0 .304.336c.128.075.277.128.448.16.17.032.346.048.528.048.448 0 .794-.075 1.04-.224.245-.149.426-.325.544-.528.117-.213.186-.427.208-.64.032-.213.048-.384.048-.512v-.848Zm9.667-1.312h2.224c-.032-.533-.16-.992-.384-1.376a2.97 2.97 0 0 0-.88-.976 3.58 3.58 0 0 0-1.216-.592 5.099 5.099 0 0 0-1.408-.192c-.672 0-1.269.112-1.792.336a3.737 3.737 0 0 0-1.328.944c-.362.395-.64.869-.832 1.424a5.594 5.594 0 0 0-.272 1.776c0 .619.102 1.189.304 1.712.203.512.486.955.848 1.328.363.373.8.667 1.312.88a4.693 4.693 0 0 0 1.712.304c1.099 0 2-.288 2.704-.864.704-.576 1.131-1.413 1.28-2.512h-2.192c-.074.512-.261.923-.56 1.232-.288.299-.704.448-1.248.448-.352 0-.65-.08-.896-.24a1.909 1.909 0 0 1-.592-.608 3.105 3.105 0 0 1-.304-.848 4.489 4.489 0 0 1 0-1.84c.064-.32.171-.608.32-.864.16-.267.363-.48.608-.64.246-.171.55-.256.912-.256.971 0 1.531.475 1.68 1.424Zm6.436-2.912v-2.48h-2.272v2.48h-1.376v1.52h1.376v4.88c0 .416.069.752.208 1.008.138.256.325.453.56.592.245.139.522.229.832.272.32.053.656.08 1.008.08.224 0 .453-.005.688-.016.234-.011.448-.032.64-.064v-1.76a3.395 3.395 0 0 1-.704.064c-.384 0-.64-.064-.768-.192s-.192-.384-.192-.768v-4.096h1.664v-1.52h-1.664Zm4.761 4.144c0-.331.032-.656.096-.976.064-.32.17-.603.32-.848.16-.245.368-.443.624-.592.256-.16.576-.24.96-.24s.704.08.96.24c.266.149.474.347.624.592.16.245.272.528.336.848a4.962 4.962 0 0 1 0 1.952 2.57 2.57 0 0 1-.336.848c-.15.245-.358.443-.624.592-.256.149-.576.224-.96.224s-.704-.075-.96-.224a1.843 1.843 0 0 1-.624-.592 2.78 2.78 0 0 1-.32-.848 4.962 4.962 0 0 1-.096-.976Zm-2.272 0c0 .661.101 1.259.304 1.792.202.533.49.992.864 1.376.373.373.821.661 1.344.864.522.203 1.109.304 1.76.304.65 0 1.237-.101 1.76-.304a3.824 3.824 0 0 0 1.36-.864c.373-.384.661-.843.864-1.376a5.027 5.027 0 0 0 .304-1.792c0-.661-.102-1.259-.304-1.792a3.788 3.788 0 0 0-.864-1.376 3.714 3.714 0 0 0-1.36-.88 4.63 4.63 0 0 0-1.76-.32c-.651 0-1.238.107-1.76.32a3.726 3.726 0 0 0-1.344.88 3.761 3.761 0 0 0-.864 1.376c-.203.533-.304 1.131-.304 1.792Zm10.037-4.144V390h2.272v-3.728c0-.373.037-.72.112-1.04.075-.32.197-.597.368-.832.181-.245.416-.437.704-.576.288-.139.64-.208 1.056-.208.139 0 .283.011.432.032.149.011.277.027.384.048v-2.112a1.784 1.784 0 0 0-.496-.08c-.288 0-.565.043-.832.128a2.884 2.884 0 0 0-.752.368 2.567 2.567 0 0 0-.624.56 2.674 2.674 0 0 0-.432.704h-.032v-1.536h-2.16Zm10.299 9.296 3.456-9.296h-2.352l-1.808 5.664h-.032l-1.872-5.664h-2.416l2.896 7.76c.064.16.096.331.096.512 0 .245-.075.469-.224.672-.139.203-.358.32-.656.352a4.714 4.714 0 0 1-.672-.016l-.656-.064v1.872c.234.021.464.037.688.048.234.021.469.032.704.032.778 0 1.386-.144 1.824-.432.437-.288.778-.768 1.024-1.44Z"/>
    <path fill="#111827" d="M174.432 490.357v11.424h8.672v-2.112h-6.16v-2.8h5.536v-1.952h-5.536v-2.448h6.032v-2.112h-8.544Zm12.055 7.296c0-.341.032-.666.096-.976.075-.32.192-.602.352-.848.16-.256.368-.458.624-.608.256-.149.571-.224.944-.224.352 0 .651.08.896.24.256.16.459.368.608.624.149.256.256.544.32.864a4.329 4.329 0 0 1 0 1.952c-.064.31-.176.587-.336.832a1.744 1.744 0 0 1-.608.576c-.245.139-.555.208-.928.208s-.688-.074-.944-.224a1.888 1.888 0 0 1-.608-.592 2.795 2.795 0 0 1-.32-.848 4.962 4.962 0 0 1-.096-.976Zm6.144 7.024v-11.168h-2.16v1.056h-.032a2.164 2.164 0 0 0-1.072-.976 3.463 3.463 0 0 0-1.44-.304c-.629 0-1.179.123-1.648.368a3.44 3.44 0 0 0-1.152.992 4.139 4.139 0 0 0-.688 1.408 6.102 6.102 0 0 0-.224 1.648c0 .8.112 1.478.336 2.032.224.544.507.987.848 1.328.341.331.715.571 1.12.72a3.78 3.78 0 0 0 1.2.208c.512 0 1.008-.096 1.488-.288a2.24 2.24 0 0 0 1.12-.96h.032v3.936h2.272Zm9.477-2.896v-8.272h-2.272v4.336c0 .843-.138 1.451-.416 1.824-.277.363-.725.544-1.344.544-.544 0-.922-.165-1.136-.496-.213-.341-.32-.853-.32-1.536v-4.672h-2.272v5.088c0 .512.043.982.128 1.408.096.416.256.774.48 1.072.224.288.528.512.912.672.395.16.896.24 1.504.24.48 0 .95-.106 1.408-.32.459-.213.832-.56 1.12-1.04h.048v1.152h2.16Zm4.061-9.552v-1.872h-2.272v1.872h2.272Zm-2.272 1.28v8.272h2.272v-8.272h-2.272Zm8.237 6.784c-.363 0-.672-.074-.928-.224a1.897 1.897 0 0 1-.624-.576 2.837 2.837 0 0 1-.336-.848 5.05 5.05 0 0 1 0-1.968c.064-.32.17-.602.32-.848.16-.245.362-.442.608-.592.256-.16.57-.24.944-.24.362 0 .666.08.912.24.256.15.464.352.624.608a2.4 2.4 0 0 1 .336.848c.074.32.112.646.112.976 0 .331-.032.656-.096.976-.064.32-.176.603-.336.848-.15.235-.352.427-.608.576-.246.15-.555.224-.928.224Zm-4.176-6.784v11.168h2.272v-3.92h.032c.277.406.629.715 1.056.928.437.203.912.304 1.424.304.608 0 1.136-.117 1.584-.352a3.268 3.268 0 0 0 1.136-.944c.309-.394.538-.848.688-1.36a5.695 5.695 0 0 0 .224-1.6c0-.586-.075-1.146-.224-1.68a4.138 4.138 0 0 0-.688-1.424 3.49 3.49 0 0 0-1.168-.976c-.47-.245-1.03-.368-1.68-.368-.512 0-.982.102-1.408.304-.427.203-.779.528-1.056.976h-.032v-1.056h-2.16Zm9.845 0v8.272h2.272v-4.8c0-.405.059-.73.176-.976.117-.256.256-.448.416-.576.171-.138.341-.229.512-.272a1.64 1.64 0 0 1 .432-.08c.363 0 .635.064.816.192a.933.933 0 0 1 .4.48c.085.203.133.427.144.672.011.235.016.475.016.72v4.64h2.272v-4.608c0-.256.016-.506.048-.752.043-.256.117-.48.224-.672.117-.202.272-.362.464-.48.203-.128.464-.192.784-.192s.571.054.752.16c.192.107.336.251.432.432.096.182.155.395.176.64.021.246.032.507.032.784v4.688h2.272v-5.536c0-.533-.075-.986-.224-1.36a2.333 2.333 0 0 0-.624-.928 2.466 2.466 0 0 0-.96-.512 4.437 4.437 0 0 0-1.216-.16c-.576 0-1.077.139-1.504.416a3.573 3.573 0 0 0-.992.96c-.224-.512-.555-.869-.992-1.072a3.287 3.287 0 0 0-1.424-.304 2.98 2.98 0 0 0-1.456.352 3.277 3.277 0 0 0-1.072.992h-.032v-1.12h-2.144Zm20.004 3.248h-3.696c.011-.16.043-.341.096-.544.064-.202.165-.394.304-.576.149-.181.341-.33.576-.448.245-.128.549-.192.912-.192.555 0 .965.15 1.232.448.277.299.469.736.576 1.312Zm-3.696 1.44h5.968a5.84 5.84 0 0 0-.16-1.84 4.433 4.433 0 0 0-.736-1.568 3.536 3.536 0 0 0-1.28-1.088c-.523-.277-1.136-.416-1.84-.416-.629 0-1.205.112-1.728.336a4.037 4.037 0 0 0-1.328.928 3.983 3.983 0 0 0-.864 1.376 4.822 4.822 0 0 0-.304 1.728c0 .64.096 1.227.288 1.76.203.534.485.992.848 1.376.363.384.805.683 1.328.896.523.203 1.109.304 1.76.304.939 0 1.739-.213 2.4-.64.661-.426 1.152-1.136 1.472-2.128h-2c-.075.256-.277.502-.608.736-.331.224-.725.336-1.184.336-.64 0-1.131-.165-1.472-.496-.341-.33-.528-.864-.56-1.6Zm7.316-4.688v8.272h2.272v-4.336c0-.842.138-1.445.416-1.808.277-.373.725-.56 1.344-.56.544 0 .922.171 1.136.512.213.331.32.838.32 1.52v4.672h2.272v-5.088c0-.512-.048-.976-.144-1.392-.086-.426-.24-.784-.464-1.072a2.135 2.135 0 0 0-.928-.688c-.384-.17-.88-.256-1.488-.256-.48 0-.95.112-1.408.336-.459.214-.832.56-1.12 1.04h-.048v-1.152h-2.16Zm12.364 0v-2.48h-2.272v2.48h-1.376v1.52h1.376v4.88c0 .416.069.752.208 1.008.139.256.325.454.56.592.245.139.523.23.832.272.32.054.656.08 1.008.08.224 0 .453-.005.688-.016.235-.01.448-.032.64-.064v-1.76a2.89 2.89 0 0 1-.336.048c-.117.011-.24.016-.368.016-.384 0-.64-.064-.768-.192s-.192-.384-.192-.768v-4.096h1.664v-1.52h-1.664Z"/>
    <g clip-path="url(#b)">
      <path fill="#111827" d="M245.167 551.885h-5.334c-.353 0-.692.136-.942.379-.25.242-.391.571-.391.913v.646h-19.333v-9.455a10.505 10.505 0 0 0 4.957-4.837 10.034 10.034 0 0 0 .77-6.775 10.3 10.3 0 0 0-3.752-5.766 10.888 10.888 0 0 0-6.642-2.248c-2.413 0-4.754.793-6.642 2.248a10.296 10.296 0 0 0-3.752 5.766 10.034 10.034 0 0 0 .77 6.775 10.505 10.505 0 0 0 4.957 4.837v9.455H190.5v-.646c0-.342-.14-.671-.391-.913a1.352 1.352 0 0 0-.942-.379h-5.334c-.353 0-.692.136-.942.379a1.268 1.268 0 0 0-.391.913v10.333c0 .343.14.671.391.914.25.242.589.378.942.378h5.334c.353 0 .692-.136.942-.378a1.27 1.27 0 0 0 .391-.914v-.645h48v.645c0 .343.14.671.391.914.25.242.589.378.942.378h5.334c.353 0 .692-.136.942-.378a1.27 1.27 0 0 0 .391-.914v-10.333c0-.342-.14-.671-.391-.913a1.352 1.352 0 0 0-.942-.379Zm-57.27 9.365a1.27 1.27 0 0 0-.066.323v.646h-2.667v-7.75h2.667v.646a1.24 1.24 0 0 0 0 .322 1.247 1.247 0 0 0 0 .323v5.167c.008.11.03.219.066.323Zm18.6-26.156a7.63 7.63 0 0 1 2.344-5.481 8.134 8.134 0 0 1 5.657-2.27c2.122 0 4.156.817 5.657 2.27a7.632 7.632 0 0 1 2.343 5.481 7.632 7.632 0 0 1-2.343 5.48 8.134 8.134 0 0 1-5.657 2.27 8.134 8.134 0 0 1-5.657-2.27 7.627 7.627 0 0 1-2.344-5.48Zm10 10.139v8.59h-4v-8.59c1.32.258 2.68.258 4 0Zm22 15.048h-48v-3.875h48v3.875Zm5.334 1.938h-2.667v-6.459a1.247 1.247 0 0 0 0-.323 1.24 1.24 0 0 0 0-.322v-.646h2.667v7.75Zm-29.334-25.834a1.352 1.352 0 0 1-.946-.374 1.271 1.271 0 0 1-.395-.917c0-.345.142-.675.395-.917l4-3.875a1.367 1.367 0 0 1 1.293-.336c.462.12.823.469.947.917.123.447-.009.925-.347 1.253l-4 3.875a1.355 1.355 0 0 1-.947.374Z"/>
    </g>
    <rect width="135" height="122" x="147" y="476.781" stroke="#111827" stroke-width="2" rx="15"/>
    <path fill="url(#c)" d="M196.5 582h36v42h-36z"/>
    <path fill="#111827" d="M352.1 490.357v11.424h8.672v-2.112h-6.16v-2.8h5.536v-1.952h-5.536v-2.448h6.032v-2.112H352.1Zm12.055 7.296c0-.341.032-.666.096-.976.075-.32.192-.602.352-.848.16-.256.368-.458.624-.608.256-.149.571-.224.944-.224.352 0 .651.08.896.24.256.16.459.368.608.624.149.256.256.544.32.864a4.329 4.329 0 0 1 0 1.952c-.064.31-.176.587-.336.832a1.744 1.744 0 0 1-.608.576c-.245.139-.555.208-.928.208s-.688-.074-.944-.224a1.888 1.888 0 0 1-.608-.592 2.795 2.795 0 0 1-.32-.848 4.962 4.962 0 0 1-.096-.976Zm6.144 7.024v-11.168h-2.16v1.056h-.032a2.164 2.164 0 0 0-1.072-.976 3.463 3.463 0 0 0-1.44-.304c-.629 0-1.179.123-1.648.368a3.44 3.44 0 0 0-1.152.992 4.139 4.139 0 0 0-.688 1.408 6.102 6.102 0 0 0-.224 1.648c0 .8.112 1.478.336 2.032.224.544.507.987.848 1.328.341.331.715.571 1.12.72a3.78 3.78 0 0 0 1.2.208c.512 0 1.008-.096 1.488-.288a2.24 2.24 0 0 0 1.12-.96h.032v3.936h2.272Zm9.477-2.896v-8.272h-2.272v4.336c0 .843-.138 1.451-.416 1.824-.277.363-.725.544-1.344.544-.544 0-.922-.165-1.136-.496-.213-.341-.32-.853-.32-1.536v-4.672h-2.272v5.088c0 .512.043.982.128 1.408.096.416.256.774.48 1.072.224.288.528.512.912.672.395.16.896.24 1.504.24.48 0 .95-.106 1.408-.32.459-.213.832-.56 1.12-1.04h.048v1.152h2.16Zm4.061-9.552v-1.872h-2.272v1.872h2.272Zm-2.272 1.28v8.272h2.272v-8.272h-2.272Zm8.237 6.784c-.363 0-.672-.074-.928-.224a1.897 1.897 0 0 1-.624-.576 2.837 2.837 0 0 1-.336-.848 5.05 5.05 0 0 1 0-1.968c.064-.32.17-.602.32-.848.16-.245.362-.442.608-.592.256-.16.57-.24.944-.24.362 0 .666.08.912.24.256.15.464.352.624.608a2.4 2.4 0 0 1 .336.848c.074.32.112.646.112.976 0 .331-.032.656-.096.976-.064.32-.176.603-.336.848-.15.235-.352.427-.608.576-.246.15-.555.224-.928.224Zm-4.176-6.784v11.168h2.272v-3.92h.032c.277.406.629.715 1.056.928.437.203.912.304 1.424.304.608 0 1.136-.117 1.584-.352a3.268 3.268 0 0 0 1.136-.944c.309-.394.538-.848.688-1.36a5.695 5.695 0 0 0 .224-1.6c0-.586-.075-1.146-.224-1.68a4.138 4.138 0 0 0-.688-1.424 3.49 3.49 0 0 0-1.168-.976c-.47-.245-1.03-.368-1.68-.368-.512 0-.982.102-1.408.304-.427.203-.779.528-1.056.976h-.032v-1.056h-2.16Zm9.845 0v8.272h2.272v-4.8c0-.405.059-.73.176-.976.117-.256.256-.448.416-.576.171-.138.341-.229.512-.272a1.64 1.64 0 0 1 .432-.08c.363 0 .635.064.816.192a.933.933 0 0 1 .4.48c.085.203.133.427.144.672.011.235.016.475.016.72v4.64h2.272v-4.608c0-.256.016-.506.048-.752.043-.256.117-.48.224-.672.117-.202.272-.362.464-.48.203-.128.464-.192.784-.192s.571.054.752.16c.192.107.336.251.432.432.096.182.155.395.176.64.021.246.032.507.032.784v4.688h2.272v-5.536c0-.533-.075-.986-.224-1.36a2.333 2.333 0 0 0-.624-.928 2.466 2.466 0 0 0-.96-.512 4.437 4.437 0 0 0-1.216-.16c-.576 0-1.077.139-1.504.416a3.573 3.573 0 0 0-.992.96c-.224-.512-.555-.869-.992-1.072a3.287 3.287 0 0 0-1.424-.304 2.98 2.98 0 0 0-1.456.352 3.277 3.277 0 0 0-1.072.992h-.032v-1.12h-2.144Zm20.004 3.248h-3.696c.011-.16.043-.341.096-.544.064-.202.165-.394.304-.576.149-.181.341-.33.576-.448.245-.128.549-.192.912-.192.555 0 .965.15 1.232.448.277.299.469.736.576 1.312Zm-3.696 1.44h5.968a5.84 5.84 0 0 0-.16-1.84 4.433 4.433 0 0 0-.736-1.568 3.536 3.536 0 0 0-1.28-1.088c-.523-.277-1.136-.416-1.84-.416-.629 0-1.205.112-1.728.336a4.037 4.037 0 0 0-1.328.928 3.983 3.983 0 0 0-.864 1.376 4.822 4.822 0 0 0-.304 1.728c0 .64.096 1.227.288 1.76.203.534.485.992.848 1.376.363.384.805.683 1.328.896.523.203 1.109.304 1.76.304.939 0 1.739-.213 2.4-.64.661-.426 1.152-1.136 1.472-2.128h-2c-.075.256-.277.502-.608.736-.331.224-.725.336-1.184.336-.64 0-1.131-.165-1.472-.496-.341-.33-.528-.864-.56-1.6Zm7.315-4.688v8.272h2.272v-4.336c0-.842.139-1.445.416-1.808.278-.373.726-.56 1.344-.56.544 0 .923.171 1.136.512.214.331.32.838.32 1.52v4.672h2.272v-5.088c0-.512-.048-.976-.144-1.392-.085-.426-.24-.784-.464-1.072a2.129 2.129 0 0 0-.928-.688c-.384-.17-.88-.256-1.488-.256-.48 0-.949.112-1.408.336-.458.214-.832.56-1.12 1.04h-.048v-1.152h-2.16Zm12.365 0v-2.48h-2.272v2.48h-1.376v1.52h1.376v4.88c0 .416.069.752.208 1.008.139.256.325.454.56.592.245.139.523.23.832.272.32.054.656.08 1.008.08.224 0 .453-.005.688-.016.235-.01.448-.032.64-.064v-1.76a2.89 2.89 0 0 1-.336.048c-.117.011-.24.016-.368.016-.384 0-.64-.064-.768-.192s-.192-.384-.192-.768v-4.096h1.664v-1.52h-1.664Z"/>
    <g clip-path="url(#d)">
      <path fill="#111827" d="M414.835 557.698h-45.334a9.49 9.49 0 0 0-6.599 2.648c-1.751 1.696-2.734 3.996-2.734 6.393 0 2.398.983 4.698 2.734 6.394a9.49 9.49 0 0 0 6.599 2.648h45.334a9.49 9.49 0 0 0 6.599-2.648c1.75-1.696 2.734-3.996 2.734-6.394 0-2.397-.984-4.697-2.734-6.393a9.49 9.49 0 0 0-6.599-2.648Zm0 15.5h-45.334c-2.381 0-4.583-1.231-5.773-3.229a6.285 6.285 0 0 1 0-6.459c1.191-1.998 3.392-3.229 5.773-3.229h45.334c2.381 0 4.582 1.231 5.773 3.229a6.287 6.287 0 0 1 0 6.459c-1.191 1.998-3.392 3.229-5.773 3.229Zm-44-10.333a4.066 4.066 0 0 0-2.829 1.135 3.813 3.813 0 0 0-1.171 2.74c0 1.027.421 2.013 1.171 2.74a4.07 4.07 0 0 0 2.829 1.135 4.07 4.07 0 0 0 2.828-1.135 3.817 3.817 0 0 0 1.172-2.74 3.814 3.814 0 0 0-1.172-2.74 4.065 4.065 0 0 0-2.828-1.135Zm0 5.166c-.354 0-.693-.136-.943-.378a1.272 1.272 0 0 1-.391-.913c0-.343.141-.671.391-.914.25-.242.589-.378.943-.378.353 0 .692.136.942.378s.391.571.391.914c0 .342-.141.671-.391.913s-.589.378-.942.378Zm10.666-5.166a4.064 4.064 0 0 0-2.828 1.135 3.814 3.814 0 0 0-1.172 2.74c0 1.027.422 2.013 1.172 2.74a4.068 4.068 0 0 0 2.828 1.135 4.07 4.07 0 0 0 2.829-1.135 3.816 3.816 0 0 0 1.171-2.74 3.813 3.813 0 0 0-1.171-2.74 4.066 4.066 0 0 0-2.829-1.135Zm0 5.166a1.36 1.36 0 0 1-.943-.378 1.271 1.271 0 0 1-.39-.913c0-.343.14-.671.39-.914.25-.242.59-.378.943-.378.354 0 .693.136.943.378s.391.571.391.914c0 .342-.141.671-.391.913s-.589.378-.943.378Zm10.667-5.166A4.064 4.064 0 0 0 389.34 564a3.81 3.81 0 0 0-1.172 2.74c0 1.027.421 2.013 1.172 2.74a4.068 4.068 0 0 0 2.828 1.135 4.068 4.068 0 0 0 2.828-1.135 3.817 3.817 0 0 0 1.172-2.74 3.814 3.814 0 0 0-1.172-2.74 4.064 4.064 0 0 0-2.828-1.135Zm0 5.166c-.354 0-.693-.136-.943-.378a1.271 1.271 0 0 1-.39-.913c0-.343.14-.671.39-.914.25-.242.589-.378.943-.378.353 0 .693.136.943.378s.39.571.39.914c0 .342-.14.671-.39.913s-.59.378-.943.378Zm10.667-5.166a4.066 4.066 0 0 0-2.829 1.135 3.813 3.813 0 0 0-1.171 2.74c0 1.027.421 2.013 1.171 2.74a4.07 4.07 0 0 0 2.829 1.135 4.07 4.07 0 0 0 2.828-1.135 3.817 3.817 0 0 0 1.172-2.74 3.814 3.814 0 0 0-1.172-2.74 4.065 4.065 0 0 0-2.828-1.135Zm0 5.166c-.354 0-.693-.136-.943-.378a1.272 1.272 0 0 1-.391-.913c0-.343.141-.671.391-.914.25-.242.589-.378.943-.378.353 0 .692.136.942.378s.391.571.391.914c0 .342-.141.671-.391.913s-.589.378-.942.378Zm10.666-5.166a4.064 4.064 0 0 0-2.828 1.135 3.814 3.814 0 0 0-1.172 2.74c0 1.027.422 2.013 1.172 2.74a4.068 4.068 0 0 0 2.828 1.135 4.07 4.07 0 0 0 2.829-1.135 3.816 3.816 0 0 0 1.171-2.74 3.813 3.813 0 0 0-1.171-2.74 4.066 4.066 0 0 0-2.829-1.135Zm0 5.166a1.36 1.36 0 0 1-.943-.378 1.271 1.271 0 0 1-.39-.913c0-.343.14-.671.39-.914.25-.242.59-.378.943-.378.354 0 .693.136.943.378s.391.571.391.914c0 .342-.141.671-.391.913s-.589.378-.943.378Zm-32-37.458a1.36 1.36 0 0 0-.943.378c-.25.243-.39.571-.39.914v20.666c0 .343.14.671.39.914.25.242.59.378.943.378h21.334c.353 0 .692-.136.942-.378.25-.243.391-.571.391-.914v-20.666c0-.343-.141-.671-.391-.914a1.355 1.355 0 0 0-.942-.378h-21.334Zm20 20.667h-18.666v-18.084h18.666v18.084Zm6.24-20.46a2.74 2.74 0 0 0-.403-2.254 2.916 2.916 0 0 0-1.997-1.221l-13.173-1.899-13.173 1.886a2.94 2.94 0 0 0-1.987 1.228 2.765 2.765 0 0 0-.413 2.247l2.866 11.108c.094.44-.055.896-.394 1.204a1.365 1.365 0 0 1-1.265.303 1.312 1.312 0 0 1-.927-.887l-2.867-11.095a5.337 5.337 0 0 1 .827-4.302 5.607 5.607 0 0 1 3.773-2.338l12.227-1.756v-6.639h-6.667c-.476 0-.917-.247-1.155-.646a1.258 1.258 0 0 1 0-1.292c.238-.4.679-.646 1.155-.646h16c.476 0 .916.246 1.155.646.238.4.238.892 0 1.292a1.345 1.345 0 0 1-1.155.646h-6.667v6.639l12.227 1.756a5.609 5.609 0 0 1 3.773 2.338 5.339 5.339 0 0 1 .774 4.315l-2.867 11.095a1.289 1.289 0 0 1-.595.831 1.364 1.364 0 0 1-1.031.161 1.332 1.332 0 0 1-.835-.608 1.26 1.26 0 0 1-.126-1.004l2.92-11.108Z"/>
    </g>
    <path fill="#111827" d="M392.839 409.11a5.333 5.333 0 1 0-.435-10.658 5.334 5.334 0 1 0 .435 10.658Zm0 72.5a5.333 5.333 0 1 0-.435-10.658 5.334 5.334 0 0 0 .435 10.658Zm.782-5.329v-2.014h-2v2.014h2Zm0-6.041v-4.028h-2v4.028h2Zm0-8.056v-4.028h-2v4.028h2Zm0-8.056v-4.027h-2v4.027h2Zm0-8.055v-4.028h-2v4.028h2Zm0-8.056v-4.027h-2v4.027h2Zm0-8.055v-4.028h-2v4.028h2Zm0-8.056v-4.027h-2v4.027h2Zm0-8.055v-4.028h-2v4.028h2Zm0-8.056v-2.014h-2v2.014h2Z"/>
    <path fill="#fff" d="M378.668 421.781h28v36h-28z"/>
    <path fill="#111827" d="M381.809 431.961c0-2.021.32-3.534.961-4.539.64-1.011 1.604-1.516 2.89-1.516 1.292 0 2.258.503 2.899 1.508.64 1.005.961 2.521.961 4.547 0 2.021-.321 3.534-.961 4.539-.641 1.005-1.607 1.508-2.899 1.508-1.286 0-2.25-.503-2.89-1.508-.641-1.01-.961-2.523-.961-4.539Zm2.687 3.117c.245.651.633.977 1.164.977.537 0 .927-.326 1.172-.977.245-.651.367-1.69.367-3.117 0-.542-.018-1.026-.054-1.453l-2.727 4.344c.026.083.052.158.078.226Zm1.164-7.219c-.531 0-.919.326-1.164.977-.245.651-.367 1.693-.367 3.125 0 .443.01.846.031 1.211l2.688-4.289a.868.868 0 0 1-.016-.047c-.245-.651-.635-.977-1.172-.977Zm10.656 7.891h2.579v-7.57l-2.399.593v-2.078l2.414-.578h2.227v9.633h2.578v2.031h-7.399v-2.031Zm-14 16h2.579v-7.57l-2.399.593v-2.078l2.414-.578h2.227v9.633h2.578v2.031h-7.399v-2.031Zm13.493-3.789c0-2.021.32-3.534.961-4.539.64-1.011 1.604-1.516 2.89-1.516 1.292 0 2.258.503 2.899 1.508.64 1.005.961 2.521.961 4.547 0 2.021-.321 3.534-.961 4.539-.641 1.005-1.607 1.508-2.899 1.508-1.286 0-2.25-.503-2.89-1.508-.641-1.01-.961-2.523-.961-4.539Zm2.687 3.117c.245.651.633.977 1.164.977.537 0 .927-.326 1.172-.977.245-.651.367-1.69.367-3.117 0-.542-.018-1.026-.054-1.453l-2.727 4.344c.026.083.052.158.078.226Zm1.164-7.219c-.531 0-.919.326-1.164.977-.245.651-.367 1.693-.367 3.125 0 .443.01.846.031 1.211l2.688-4.289a.868.868 0 0 1-.016-.047c-.245-.651-.635-.977-1.172-.977Z"/>
    <rect width="135" height="122" x="324.668" y="476.781" stroke="#111827" stroke-width="2" rx="15"/>
    <path fill="url(#e)" d="M374.168 582h36v42h-36z"/>
    <path fill="#111827" d="M529.764 490.357v11.424h8.672v-2.112h-6.16v-2.8h5.536v-1.952h-5.536v-2.448h6.032v-2.112h-8.544Zm12.055 7.296c0-.341.032-.666.096-.976.075-.32.192-.602.352-.848.16-.256.368-.458.624-.608.256-.149.571-.224.944-.224.352 0 .651.08.896.24.256.16.459.368.608.624.149.256.256.544.32.864a4.329 4.329 0 0 1 0 1.952c-.064.31-.176.587-.336.832a1.744 1.744 0 0 1-.608.576c-.245.139-.555.208-.928.208s-.688-.074-.944-.224a1.888 1.888 0 0 1-.608-.592 2.795 2.795 0 0 1-.32-.848 4.962 4.962 0 0 1-.096-.976Zm6.144 7.024v-11.168h-2.16v1.056h-.032a2.164 2.164 0 0 0-1.072-.976 3.463 3.463 0 0 0-1.44-.304c-.629 0-1.179.123-1.648.368a3.44 3.44 0 0 0-1.152.992 4.139 4.139 0 0 0-.688 1.408 6.102 6.102 0 0 0-.224 1.648c0 .8.112 1.478.336 2.032.224.544.507.987.848 1.328.341.331.715.571 1.12.72a3.78 3.78 0 0 0 1.2.208c.512 0 1.008-.096 1.488-.288a2.24 2.24 0 0 0 1.12-.96h.032v3.936h2.272Zm9.477-2.896v-8.272h-2.272v4.336c0 .843-.138 1.451-.416 1.824-.277.363-.725.544-1.344.544-.544 0-.922-.165-1.136-.496-.213-.341-.32-.853-.32-1.536v-4.672h-2.272v5.088c0 .512.043.982.128 1.408.096.416.256.774.48 1.072.224.288.528.512.912.672.395.16.896.24 1.504.24.48 0 .95-.106 1.408-.32.459-.213.832-.56 1.12-1.04h.048v1.152h2.16Zm4.061-9.552v-1.872h-2.272v1.872h2.272Zm-2.272 1.28v8.272h2.272v-8.272h-2.272Zm8.237 6.784c-.363 0-.672-.074-.928-.224a1.897 1.897 0 0 1-.624-.576 2.837 2.837 0 0 1-.336-.848 5.05 5.05 0 0 1 0-1.968c.064-.32.17-.602.32-.848.16-.245.362-.442.608-.592.256-.16.57-.24.944-.24.362 0 .666.08.912.24.256.15.464.352.624.608a2.4 2.4 0 0 1 .336.848c.074.32.112.646.112.976 0 .331-.032.656-.096.976-.064.32-.176.603-.336.848-.15.235-.352.427-.608.576-.246.15-.555.224-.928.224Zm-4.176-6.784v11.168h2.272v-3.92h.032c.277.406.629.715 1.056.928.437.203.912.304 1.424.304.608 0 1.136-.117 1.584-.352a3.268 3.268 0 0 0 1.136-.944c.309-.394.538-.848.688-1.36a5.695 5.695 0 0 0 .224-1.6c0-.586-.075-1.146-.224-1.68a4.138 4.138 0 0 0-.688-1.424 3.49 3.49 0 0 0-1.168-.976c-.47-.245-1.03-.368-1.68-.368-.512 0-.982.102-1.408.304-.427.203-.779.528-1.056.976h-.032v-1.056h-2.16Zm9.845 0v8.272h2.272v-4.8c0-.405.059-.73.176-.976.117-.256.256-.448.416-.576.171-.138.341-.229.512-.272a1.64 1.64 0 0 1 .432-.08c.363 0 .635.064.816.192a.933.933 0 0 1 .4.48c.085.203.133.427.144.672.011.235.016.475.016.72v4.64h2.272v-4.608c0-.256.016-.506.048-.752.043-.256.117-.48.224-.672.117-.202.272-.362.464-.48.203-.128.464-.192.784-.192s.571.054.752.16c.192.107.336.251.432.432.096.182.155.395.176.64.021.246.032.507.032.784v4.688h2.272v-5.536c0-.533-.075-.986-.224-1.36a2.333 2.333 0 0 0-.624-.928 2.466 2.466 0 0 0-.96-.512 4.437 4.437 0 0 0-1.216-.16c-.576 0-1.077.139-1.504.416a3.573 3.573 0 0 0-.992.96c-.224-.512-.555-.869-.992-1.072a3.287 3.287 0 0 0-1.424-.304 2.98 2.98 0 0 0-1.456.352 3.277 3.277 0 0 0-1.072.992h-.032v-1.12h-2.144Zm20.004 3.248h-3.696c.011-.16.043-.341.096-.544.064-.202.165-.394.304-.576.149-.181.341-.33.576-.448.245-.128.549-.192.912-.192.555 0 .965.15 1.232.448.277.299.469.736.576 1.312Zm-3.696 1.44h5.968a5.84 5.84 0 0 0-.16-1.84 4.433 4.433 0 0 0-.736-1.568 3.536 3.536 0 0 0-1.28-1.088c-.523-.277-1.136-.416-1.84-.416-.629 0-1.205.112-1.728.336a4.037 4.037 0 0 0-1.328.928 3.983 3.983 0 0 0-.864 1.376 4.822 4.822 0 0 0-.304 1.728c0 .64.096 1.227.288 1.76.203.534.485.992.848 1.376.363.384.805.683 1.328.896.523.203 1.109.304 1.76.304.939 0 1.739-.213 2.4-.64.661-.426 1.152-1.136 1.472-2.128h-2c-.075.256-.277.502-.608.736-.331.224-.725.336-1.184.336-.64 0-1.131-.165-1.472-.496-.341-.33-.528-.864-.56-1.6Zm7.316-4.688v8.272h2.272v-4.336c0-.842.138-1.445.416-1.808.277-.373.725-.56 1.344-.56.544 0 .922.171 1.136.512.213.331.32.838.32 1.52v4.672h2.272v-5.088c0-.512-.048-.976-.144-1.392-.086-.426-.24-.784-.464-1.072a2.135 2.135 0 0 0-.928-.688c-.384-.17-.88-.256-1.488-.256-.48 0-.95.112-1.408.336-.459.214-.832.56-1.12 1.04h-.048v-1.152h-2.16Zm12.364 0v-2.48h-2.272v2.48h-1.376v1.52h1.376v4.88c0 .416.069.752.208 1.008.139.256.325.454.56.592.245.139.523.23.832.272.32.054.656.08 1.008.08.224 0 .453-.005.688-.016.235-.01.448-.032.64-.064v-1.76a2.89 2.89 0 0 1-.336.048c-.117.011-.24.016-.368.016-.384 0-.64-.064-.768-.192s-.192-.384-.192-.768v-4.096h1.664v-1.52h-1.664Z"/>
    <g clip-path="url(#f)">
      <path fill="#111827" d="M592.499 556.406h-45.334a9.486 9.486 0 0 0-6.599 2.649 8.896 8.896 0 0 0-2.734 6.393c0 2.398.983 4.698 2.734 6.393 1.75 1.696 4.124 2.648 6.599 2.648h45.334c2.475 0 4.849-.952 6.599-2.648a8.896 8.896 0 0 0 2.734-6.393 8.896 8.896 0 0 0-2.734-6.393 9.486 9.486 0 0 0-6.599-2.649Zm0 15.5h-45.334c-2.381 0-4.582-1.231-5.773-3.229a6.283 6.283 0 0 1 0-6.458c1.191-1.998 3.392-3.229 5.773-3.229h45.334c2.381 0 4.582 1.231 5.773 3.229a6.283 6.283 0 0 1 0 6.458c-1.191 1.998-3.392 3.229-5.773 3.229Zm-44-10.333a4.066 4.066 0 0 0-2.829 1.135 3.815 3.815 0 0 0-1.171 2.74c0 1.028.421 2.013 1.171 2.74a4.066 4.066 0 0 0 2.829 1.135c1.06 0 2.078-.408 2.828-1.135a3.816 3.816 0 0 0 1.172-2.74 3.816 3.816 0 0 0-1.172-2.74 4.065 4.065 0 0 0-2.828-1.135Zm0 5.167c-.354 0-.693-.136-.943-.379a1.27 1.27 0 0 1-.391-.913c0-.342.141-.671.391-.913.25-.243.589-.379.943-.379.353 0 .692.136.942.379.251.242.391.571.391.913 0 .343-.14.671-.391.913-.25.243-.589.379-.942.379Zm10.666-5.167a4.064 4.064 0 0 0-2.828 1.135 3.816 3.816 0 0 0-1.172 2.74c0 1.028.422 2.013 1.172 2.74a4.065 4.065 0 0 0 2.828 1.135 4.066 4.066 0 0 0 2.829-1.135 3.815 3.815 0 0 0 1.171-2.74 3.815 3.815 0 0 0-1.171-2.74 4.066 4.066 0 0 0-2.829-1.135Zm0 5.167c-.353 0-.692-.136-.942-.379a1.266 1.266 0 0 1-.391-.913c0-.342.14-.671.391-.913.25-.243.589-.379.942-.379.354 0 .693.136.943.379.25.242.391.571.391.913 0 .343-.141.671-.391.913-.25.243-.589.379-.943.379Zm10.667-5.167a4.064 4.064 0 0 0-2.828 1.135 3.816 3.816 0 0 0-1.172 2.74c0 1.028.421 2.013 1.172 2.74a4.064 4.064 0 0 0 2.828 1.135 4.064 4.064 0 0 0 2.828-1.135 3.812 3.812 0 0 0 1.172-2.74 3.812 3.812 0 0 0-1.172-2.74 4.064 4.064 0 0 0-2.828-1.135Zm0 5.167c-.354 0-.693-.136-.943-.379a1.27 1.27 0 0 1-.39-.913c0-.342.14-.671.39-.913.25-.243.589-.379.943-.379s.693.136.943.379c.25.242.39.571.39.913 0 .343-.14.671-.39.913-.25.243-.589.379-.943.379Zm10.667-5.167a4.066 4.066 0 0 0-2.829 1.135 3.815 3.815 0 0 0-1.171 2.74c0 1.028.421 2.013 1.171 2.74a4.066 4.066 0 0 0 2.829 1.135c1.06 0 2.078-.408 2.828-1.135a3.816 3.816 0 0 0 1.172-2.74 3.816 3.816 0 0 0-1.172-2.74 4.065 4.065 0 0 0-2.828-1.135Zm0 5.167c-.354 0-.693-.136-.943-.379a1.27 1.27 0 0 1-.391-.913c0-.342.141-.671.391-.913.25-.243.589-.379.943-.379.353 0 .692.136.942.379.251.242.391.571.391.913 0 .343-.14.671-.391.913-.25.243-.589.379-.942.379Zm10.666-5.167a4.064 4.064 0 0 0-2.828 1.135 3.816 3.816 0 0 0-1.172 2.74c0 1.028.422 2.013 1.172 2.74a4.065 4.065 0 0 0 2.828 1.135 4.066 4.066 0 0 0 2.829-1.135 3.815 3.815 0 0 0 1.171-2.74 3.815 3.815 0 0 0-1.171-2.74 4.066 4.066 0 0 0-2.829-1.135Zm0 5.167c-.353 0-.692-.136-.942-.379a1.266 1.266 0 0 1-.391-.913c0-.342.14-.671.391-.913.25-.243.589-.379.942-.379.354 0 .693.136.943.379.25.242.391.571.391.913 0 .343-.141.671-.391.913-.25.243-.589.379-.943.379Zm-44-23.25c-.353 0-.692.136-.942.378a1.268 1.268 0 0 0-.391.913v7.75c0 .343.14.671.391.914.25.242.589.378.942.378h10.667c.354 0 .693-.136.943-.378.25-.243.39-.571.39-.914v-7.75c0-.342-.14-.671-.39-.913a1.356 1.356 0 0 0-.943-.378h-10.667Zm9.334 7.75h-8v-5.167h8v5.167Zm8-7.75c-.354 0-.693.136-.943.378s-.391.571-.391.913v7.75c0 .343.141.671.391.914.25.242.589.378.943.378h10.666c.354 0 .693-.136.943-.378.25-.243.391-.571.391-.914v-7.75c0-.342-.141-.671-.391-.913a1.356 1.356 0 0 0-.943-.378h-10.666Zm9.333 7.75h-8v-5.167h8v5.167Zm18.667-7.75h-10.667c-.354 0-.693.136-.943.378s-.39.571-.39.913v7.75c0 .343.14.671.39.914.25.242.589.378.943.378h10.667c.353 0 .692-.136.942-.378a1.27 1.27 0 0 0 .391-.914v-7.75c0-.342-.14-.671-.391-.913a1.355 1.355 0 0 0-.942-.378Zm-1.334 7.75h-8v-5.167h8v5.167Zm-52-28.417h44v10.333c0 .343.141.671.391.914.25.242.589.378.943.378h2v3.875c0 .461.254.888.666 1.119.413.23.921.23 1.334 0 .412-.231.666-.658.666-1.119v-3.875h2c.354 0 .693-.136.943-.378.25-.243.391-.571.391-.914v-10.333c.353 0 .692-.136.942-.378a1.27 1.27 0 0 0 .391-.914v-5.166c0-.343-.14-.671-.391-.914a1.355 1.355 0 0 0-.942-.378h-53.334c-.353 0-.692.136-.942.378a1.27 1.27 0 0 0-.391.914v5.166c0 .343.14.671.391.914.25.242.589.378.942.378Zm50.667 9.042h-4v-9.042h4v9.042Zm-49.333-14.209h50.666v2.584h-50.666v-2.584Z"/>
    </g>
    <path fill="#111827" d="M570.503 409.11a5.333 5.333 0 1 0-.435-10.658 5.334 5.334 0 1 0 .435 10.658Zm0 72.5a5.333 5.333 0 1 0-.435-10.658 5.334 5.334 0 0 0 .435 10.658Zm.782-5.329v-2.014h-2v2.014h2Zm0-6.041v-4.028h-2v4.028h2Zm0-8.056v-4.028h-2v4.028h2Zm0-8.056v-4.027h-2v4.027h2Zm0-8.055v-4.028h-2v4.028h2Zm0-8.056v-4.027h-2v4.027h2Zm0-8.055v-4.028h-2v4.028h2Zm0-8.056v-4.027h-2v4.027h2Zm0-8.055v-4.028h-2v4.028h2Zm0-8.056v-2.014h-2v2.014h2Z"/>
    <path fill="#fff" d="M556.332 421.781h28v36h-28z"/>
    <path fill="#111827" d="M559.473 431.961c0-2.021.32-3.534.961-4.539.64-1.011 1.604-1.516 2.89-1.516 1.292 0 2.258.503 2.899 1.508.64 1.005.961 2.521.961 4.547 0 2.021-.321 3.534-.961 4.539-.641 1.005-1.607 1.508-2.899 1.508-1.286 0-2.25-.503-2.89-1.508-.641-1.01-.961-2.523-.961-4.539Zm2.687 3.117c.245.651.633.977 1.164.977.537 0 .927-.326 1.172-.977.245-.651.367-1.69.367-3.117 0-.542-.018-1.026-.054-1.453l-2.727 4.344c.026.083.052.158.078.226Zm1.164-7.219c-.531 0-.919.326-1.164.977-.245.651-.367 1.693-.367 3.125 0 .443.01.846.031 1.211l2.688-4.289-.016-.047c-.245-.651-.635-.977-1.172-.977Zm10.656 7.891h2.579v-7.57l-2.399.593v-2.078l2.414-.578h2.227v9.633h2.578v2.031h-7.399v-2.031Zm-14 16h2.579v-7.57l-2.399.593v-2.078l2.414-.578h2.227v9.633h2.578v2.031h-7.399v-2.031Zm13.493-3.789c0-2.021.32-3.534.961-4.539.64-1.011 1.604-1.516 2.89-1.516 1.292 0 2.258.503 2.899 1.508.64 1.005.961 2.521.961 4.547 0 2.021-.321 3.534-.961 4.539-.641 1.005-1.607 1.508-2.899 1.508-1.286 0-2.25-.503-2.89-1.508-.641-1.01-.961-2.523-.961-4.539Zm2.687 3.117c.245.651.633.977 1.164.977.537 0 .927-.326 1.172-.977.245-.651.367-1.69.367-3.117 0-.542-.018-1.026-.054-1.453l-2.727 4.344c.026.083.052.158.078.226Zm1.164-7.219c-.531 0-.919.326-1.164.977-.245.651-.367 1.693-.367 3.125 0 .443.01.846.031 1.211l2.688-4.289-.016-.047c-.245-.651-.635-.977-1.172-.977Z"/>
    <rect width="135" height="122" x="502.332" y="476.781" stroke="#111827" stroke-width="2" rx="15"/>
    <path fill="url(#g)" d="M551.832 582h36v42h-36z"/>
    <path fill="#111827" d="M707.432 490.357v11.424h8.672v-2.112h-6.16v-2.8h5.536v-1.952h-5.536v-2.448h6.032v-2.112h-8.544Zm12.055 7.296c0-.341.032-.666.096-.976.075-.32.192-.602.352-.848.16-.256.368-.458.624-.608.256-.149.571-.224.944-.224.352 0 .651.08.896.24.256.16.459.368.608.624.149.256.256.544.32.864a4.329 4.329 0 0 1 0 1.952c-.064.31-.176.587-.336.832a1.744 1.744 0 0 1-.608.576c-.245.139-.555.208-.928.208s-.688-.074-.944-.224a1.888 1.888 0 0 1-.608-.592 2.795 2.795 0 0 1-.32-.848 4.962 4.962 0 0 1-.096-.976Zm6.144 7.024v-11.168h-2.16v1.056h-.032a2.164 2.164 0 0 0-1.072-.976 3.463 3.463 0 0 0-1.44-.304c-.629 0-1.179.123-1.648.368a3.44 3.44 0 0 0-1.152.992 4.139 4.139 0 0 0-.688 1.408 6.102 6.102 0 0 0-.224 1.648c0 .8.112 1.478.336 2.032.224.544.507.987.848 1.328.341.331.715.571 1.12.72a3.78 3.78 0 0 0 1.2.208c.512 0 1.008-.096 1.488-.288a2.24 2.24 0 0 0 1.12-.96h.032v3.936h2.272Zm9.477-2.896v-8.272h-2.272v4.336c0 .843-.138 1.451-.416 1.824-.277.363-.725.544-1.344.544-.544 0-.922-.165-1.136-.496-.213-.341-.32-.853-.32-1.536v-4.672h-2.272v5.088c0 .512.043.982.128 1.408.096.416.256.774.48 1.072.224.288.528.512.912.672.395.16.896.24 1.504.24.48 0 .95-.106 1.408-.32.459-.213.832-.56 1.12-1.04h.048v1.152h2.16Zm4.061-9.552v-1.872h-2.272v1.872h2.272Zm-2.272 1.28v8.272h2.272v-8.272h-2.272Zm8.237 6.784c-.363 0-.672-.074-.928-.224a1.897 1.897 0 0 1-.624-.576 2.837 2.837 0 0 1-.336-.848 5.05 5.05 0 0 1 0-1.968c.064-.32.17-.602.32-.848.16-.245.362-.442.608-.592.256-.16.57-.24.944-.24.362 0 .666.08.912.24.256.15.464.352.624.608a2.4 2.4 0 0 1 .336.848c.074.32.112.646.112.976 0 .331-.032.656-.096.976-.064.32-.176.603-.336.848-.15.235-.352.427-.608.576-.246.15-.555.224-.928.224Zm-4.176-6.784v11.168h2.272v-3.92h.032c.277.406.629.715 1.056.928.437.203.912.304 1.424.304.608 0 1.136-.117 1.584-.352a3.268 3.268 0 0 0 1.136-.944c.309-.394.538-.848.688-1.36a5.695 5.695 0 0 0 .224-1.6c0-.586-.075-1.146-.224-1.68a4.138 4.138 0 0 0-.688-1.424 3.49 3.49 0 0 0-1.168-.976c-.47-.245-1.03-.368-1.68-.368-.512 0-.982.102-1.408.304-.427.203-.779.528-1.056.976h-.032v-1.056h-2.16Zm9.845 0v8.272h2.272v-4.8c0-.405.059-.73.176-.976.117-.256.256-.448.416-.576.171-.138.341-.229.512-.272a1.64 1.64 0 0 1 .432-.08c.363 0 .635.064.816.192a.933.933 0 0 1 .4.48c.085.203.133.427.144.672.011.235.016.475.016.72v4.64h2.272v-4.608c0-.256.016-.506.048-.752.043-.256.117-.48.224-.672.117-.202.272-.362.464-.48.203-.128.464-.192.784-.192s.571.054.752.16c.192.107.336.251.432.432.096.182.155.395.176.64.021.246.032.507.032.784v4.688h2.272v-5.536c0-.533-.075-.986-.224-1.36a2.333 2.333 0 0 0-.624-.928 2.466 2.466 0 0 0-.96-.512 4.437 4.437 0 0 0-1.216-.16c-.576 0-1.077.139-1.504.416a3.573 3.573 0 0 0-.992.96c-.224-.512-.555-.869-.992-1.072a3.287 3.287 0 0 0-1.424-.304 2.98 2.98 0 0 0-1.456.352 3.277 3.277 0 0 0-1.072.992h-.032v-1.12h-2.144Zm20.004 3.248h-3.696c.011-.16.043-.341.096-.544.064-.202.165-.394.304-.576.149-.181.341-.33.576-.448.245-.128.549-.192.912-.192.555 0 .965.15 1.232.448.277.299.469.736.576 1.312Zm-3.696 1.44h5.968a5.84 5.84 0 0 0-.16-1.84 4.433 4.433 0 0 0-.736-1.568 3.536 3.536 0 0 0-1.28-1.088c-.523-.277-1.136-.416-1.84-.416-.629 0-1.205.112-1.728.336a4.037 4.037 0 0 0-1.328.928 3.983 3.983 0 0 0-.864 1.376 4.822 4.822 0 0 0-.304 1.728c0 .64.096 1.227.288 1.76.203.534.485.992.848 1.376.363.384.805.683 1.328.896.523.203 1.109.304 1.76.304.939 0 1.739-.213 2.4-.64.661-.426 1.152-1.136 1.472-2.128h-2c-.075.256-.277.502-.608.736-.331.224-.725.336-1.184.336-.64 0-1.131-.165-1.472-.496-.341-.33-.528-.864-.56-1.6Zm7.316-4.688v8.272h2.272v-4.336c0-.842.138-1.445.416-1.808.277-.373.725-.56 1.344-.56.544 0 .922.171 1.136.512.213.331.32.838.32 1.52v4.672h2.272v-5.088c0-.512-.048-.976-.144-1.392-.086-.426-.24-.784-.464-1.072a2.135 2.135 0 0 0-.928-.688c-.384-.17-.88-.256-1.488-.256-.48 0-.95.112-1.408.336-.459.214-.832.56-1.12 1.04h-.048v-1.152h-2.16Zm12.364 0v-2.48h-2.272v2.48h-1.376v1.52h1.376v4.88c0 .416.069.752.208 1.008.139.256.325.454.56.592.245.139.523.23.832.272.32.054.656.08 1.008.08.224 0 .453-.005.688-.016.235-.01.448-.032.64-.064v-1.76a2.89 2.89 0 0 1-.336.048c-.117.011-.24.016-.368.016-.384 0-.64-.064-.768-.192s-.192-.384-.192-.768v-4.096h1.664v-1.52h-1.664Z"/>
    <g clip-path="url(#h)">
      <path fill="#111827" d="M778.167 514.427h-61.334c-.353 0-.692.136-.942.378a1.27 1.27 0 0 0-.391.914v3.875c0 .342.14.671.391.913.25.242.589.378.942.378h9.334v11.625H723.5c-.354 0-.693.136-.943.379-.25.242-.39.571-.39.913v3.875h-1.334c-1.429 0-2.749.739-3.464 1.938a3.773 3.773 0 0 0 0 3.875c.715 1.199 2.035 1.937 3.464 1.937h13.334c1.429 0 2.749-.738 3.464-1.937a3.773 3.773 0 0 0 0-3.875c-.715-1.199-2.035-1.938-3.464-1.938h-1.334v-3.875c0-.342-.14-.671-.39-.913a1.352 1.352 0 0 0-.943-.379h-2.667v-11.625h25.334v11.625H751.5c-.354 0-.693.136-.943.379-.25.242-.39.571-.39.913v3.875h-1.334c-1.429 0-2.749.739-3.464 1.938a3.773 3.773 0 0 0 0 3.875c.715 1.199 2.035 1.937 3.464 1.937h13.334c1.429 0 2.749-.738 3.464-1.937a3.773 3.773 0 0 0 0-3.875c-.715-1.199-2.035-1.938-3.464-1.938h-1.334v-3.875c0-.342-.14-.671-.39-.913a1.352 1.352 0 0 0-.943-.379h-2.667v-11.625h21.334c.353 0 .692-.136.942-.378.251-.242.391-.571.391-.913v-3.875c0-.343-.14-.671-.391-.914a1.355 1.355 0 0 0-.942-.378ZM735.5 541.552c0 .342-.14.671-.391.913-.25.243-.589.379-.942.379h-13.334c-.476 0-.916-.247-1.154-.646a1.254 1.254 0 0 1 0-1.292 1.342 1.342 0 0 1 1.154-.646h13.334c.353 0 .692.136.942.379.251.242.391.571.391.913Zm-5.333-6.458v2.583h-5.334v-2.583h5.334Zm33.333 6.458c0 .342-.14.671-.391.913-.25.243-.589.379-.942.379h-13.334c-.476 0-.916-.247-1.154-.646a1.254 1.254 0 0 1 0-1.292 1.342 1.342 0 0 1 1.154-.646h13.334c.353 0 .692.136.942.379.251.242.391.571.391.913Zm-5.333-6.458v2.583h-5.334v-2.583h5.334Zm18.666-16.792h-58.666v-1.292h58.666v1.292Zm1.334 34.875h-61.334c-.353 0-.692.136-.942.378a1.27 1.27 0 0 0-.391.914v6.458c0 .343.14.671.391.913.25.243.589.379.942.379h2v11.625c0 .461.255.888.667 1.118.413.231.921.231 1.333 0 .413-.231.667-.657.667-1.118v-11.625h52v11.625c0 .461.254.888.667 1.118.412.231.921.231 1.333 0 .413-.231.667-.657.667-1.118v-11.625h2c.353 0 .692-.136.942-.379.251-.242.391-.57.391-.913v-6.458c0-.343-.14-.671-.391-.914a1.355 1.355 0 0 0-.942-.378Zm-1.334 6.458h-58.666v-3.875h58.666v3.875Z"/>
    </g>
    <path fill="#111827" d="M748.171 409.11a5.333 5.333 0 1 0-.435-10.658 5.334 5.334 0 1 0 .435 10.658Zm0 72.5a5.333 5.333 0 1 0-.435-10.658 5.334 5.334 0 0 0 .435 10.658Zm.782-5.329v-2.014h-2v2.014h2Zm0-6.041v-4.028h-2v4.028h2Zm0-8.056v-4.028h-2v4.028h2Zm0-8.056v-4.027h-2v4.027h2Zm0-8.055v-4.028h-2v4.028h2Zm0-8.056v-4.027h-2v4.027h2Zm0-8.055v-4.028h-2v4.028h2Zm0-8.056v-4.027h-2v4.027h2Zm0-8.055v-4.028h-2v4.028h2Zm0-8.056v-2.014h-2v2.014h2Z"/>
    <path fill="#fff" d="M734 421.781h28v36h-28z"/>
    <path fill="#111827" d="M737.141 431.961c0-2.021.32-3.534.961-4.539.64-1.011 1.604-1.516 2.89-1.516 1.292 0 2.258.503 2.899 1.508.64 1.005.961 2.521.961 4.547 0 2.021-.321 3.534-.961 4.539-.641 1.005-1.607 1.508-2.899 1.508-1.286 0-2.25-.503-2.89-1.508-.641-1.01-.961-2.523-.961-4.539Zm2.687 3.117c.245.651.633.977 1.164.977.537 0 .927-.326 1.172-.977.245-.651.367-1.69.367-3.117 0-.542-.018-1.026-.054-1.453l-2.727 4.344c.026.083.052.158.078.226Zm1.164-7.219c-.531 0-.919.326-1.164.977-.245.651-.367 1.693-.367 3.125 0 .443.01.846.031 1.211l2.688-4.289a.868.868 0 0 1-.016-.047c-.245-.651-.635-.977-1.172-.977Zm10.656 7.891h2.579v-7.57l-2.399.593v-2.078l2.414-.578h2.227v9.633h2.578v2.031h-7.399v-2.031Zm-14 16h2.579v-7.57l-2.399.593v-2.078l2.414-.578h2.227v9.633h2.578v2.031h-7.399v-2.031Zm13.493-3.789c0-2.021.32-3.534.961-4.539.64-1.011 1.604-1.516 2.89-1.516 1.292 0 2.258.503 2.899 1.508.64 1.005.961 2.521.961 4.547 0 2.021-.321 3.534-.961 4.539-.641 1.005-1.607 1.508-2.899 1.508-1.286 0-2.25-.503-2.89-1.508-.641-1.01-.961-2.523-.961-4.539Zm2.687 3.117c.245.651.633.977 1.164.977.537 0 .927-.326 1.172-.977.245-.651.367-1.69.367-3.117 0-.542-.018-1.026-.054-1.453l-2.727 4.344c.026.083.052.158.078.226Zm1.164-7.219c-.531 0-.919.326-1.164.977-.245.651-.367 1.693-.367 3.125 0 .443.01.846.031 1.211l2.688-4.289a.868.868 0 0 1-.016-.047c-.245-.651-.635-.977-1.172-.977Z"/>
    <rect width="135" height="122" x="680" y="476.781" stroke="#111827" stroke-width="2" rx="15"/>
    <path fill="url(#i)" d="M729.5 582h36v42h-36z"/>
    <rect width="770" height="318" x="96" y="362" stroke="#000" stroke-width="4" rx="14"/>
    <path fill="#111827" d="M215.718 252.329a5.333 5.333 0 1 0-.436-10.658 5.334 5.334 0 0 0 .436 10.658Zm0 113.5a5.333 5.333 0 1 0-.436-10.658 5.333 5.333 0 1 0 .436 10.658Zm.782-5.329v-2.027h-2v2.027h2Zm0-6.08v-4.054h-2v4.054h2Zm0-8.107v-4.054h-2v4.054h2Zm0-8.108v-4.053h-2v4.053h2Zm0-8.107v-4.053h-2v4.053h2Zm0-8.107v-4.053h-2v4.053h2Zm0-8.107v-4.054h-2v4.054h2Zm0-8.107v-4.054h-2v4.054h2Zm0-8.107v-4.054h-2v4.054h2Zm0-8.107v-4.054h-2v4.054h2Zm0-8.108v-4.053h-2v4.053h2Zm0-8.107v-4.053h-2v4.053h2Zm0-8.107v-4.053h-2v4.053h2Zm0-8.107v-4.054h-2v4.054h2Zm0-8.107V247h-2v2.027h2Zm530.343 3.302a5.333 5.333 0 1 0-.436-10.658 5.334 5.334 0 0 0 .436 10.658Zm0 113.5a5.333 5.333 0 1 0-.436-10.658 5.333 5.333 0 1 0 .436 10.658Zm.782-5.329v-2.027h-2v2.027h2Zm0-6.08v-4.054h-2v4.054h2Zm0-8.107v-4.054h-2v4.054h2Zm0-8.108v-4.053h-2v4.053h2Zm0-8.107v-4.053h-2v4.053h2Zm0-8.107v-4.053h-2v4.053h2Zm0-8.107v-4.054h-2v4.054h2Zm0-8.107v-4.054h-2v4.054h2Zm0-8.107v-4.054h-2v4.054h2Zm0-8.107v-4.054h-2v4.054h2Zm0-8.108v-4.053h-2v4.053h2Zm0-8.107v-4.053h-2v4.053h2Zm0-8.107v-4.053h-2v4.053h2Zm0-8.107v-4.054h-2v4.054h2Zm0-8.107V247h-2v2.027h2ZM665.628 78.336c0-.501.053-.987.16-1.456.117-.47.298-.885.544-1.248.245-.373.565-.667.96-.88.394-.224.874-.336 1.44-.336.565 0 1.045.112 1.44.336.394.213.714.507.96.88.245.363.421.779.528 1.248.117.47.176.955.176 1.456 0 .48-.059.95-.176 1.408a3.678 3.678 0 0 1-.528 1.216 2.833 2.833 0 0 1-.96.88c-.395.213-.875.32-1.44.32-.566 0-1.046-.107-1.44-.32a2.815 2.815 0 0 1-.96-.88 3.905 3.905 0 0 1-.544-1.216 6.177 6.177 0 0 1-.16-1.408Zm-2.512 0c0 .832.128 1.61.384 2.336a5.575 5.575 0 0 0 1.104 1.872c.48.533 1.066.955 1.76 1.264.704.299 1.493.448 2.368.448.885 0 1.674-.15 2.368-.448.693-.31 1.28-.73 1.76-1.264a5.575 5.575 0 0 0 1.104-1.872 6.969 6.969 0 0 0 .384-2.336c0-.853-.128-1.643-.384-2.368a5.693 5.693 0 0 0-1.104-1.92 5.069 5.069 0 0 0-1.76-1.28c-.694-.31-1.483-.464-2.368-.464-.875 0-1.664.155-2.368.464a5.06 5.06 0 0 0-1.76 1.28 5.693 5.693 0 0 0-1.104 1.92 7.068 7.068 0 0 0-.384 2.368Zm12.709-2.608V84h2.272v-4.336c0-.843.139-1.445.416-1.808.277-.373.725-.56 1.344-.56.544 0 .923.17 1.136.512.213.33.32.837.32 1.52V84h2.272v-5.088c0-.512-.048-.976-.144-1.392-.085-.427-.24-.784-.464-1.072a2.123 2.123 0 0 0-.928-.688c-.384-.17-.88-.256-1.488-.256-.48 0-.949.112-1.408.336-.459.213-.832.56-1.12 1.04h-.048v-1.152h-2.16Zm9.468 2.928v1.952h4.816v-1.952h-4.816Zm9.284-.704v-3.424h1.952c.288 0 .565.021.832.064s.501.128.704.256c.203.117.363.288.48.512.128.224.192.517.192.88s-.064.656-.192.88c-.117.224-.277.4-.48.528a2.035 2.035 0 0 1-.704.24 5.26 5.26 0 0 1-.832.064h-1.952Zm-2.512-5.376V84h2.512v-4.096h2.64c.715 0 1.323-.101 1.824-.304.501-.213.907-.49 1.216-.832.32-.341.549-.73.688-1.168.149-.448.224-.901.224-1.36 0-.47-.075-.923-.224-1.36a3.03 3.03 0 0 0-.688-1.168c-.309-.341-.715-.613-1.216-.816-.501-.213-1.109-.32-1.824-.32h-5.152Zm10.432 3.152V84h2.272v-3.728c0-.373.037-.72.112-1.04a2.26 2.26 0 0 1 .368-.832c.181-.245.416-.437.704-.576.288-.139.64-.208 1.056-.208.138 0 .282.01.432.032.149.01.277.027.384.048v-2.112a1.779 1.779 0 0 0-.496-.08 2.72 2.72 0 0 0-.832.128 2.878 2.878 0 0 0-.752.368c-.235.15-.443.336-.624.56a2.627 2.627 0 0 0-.432.704h-.032v-1.536h-2.16Zm11.505 3.248h-3.696a2.99 2.99 0 0 1 .096-.544c.064-.203.166-.395.304-.576.15-.181.342-.33.576-.448.246-.128.55-.192.912-.192.555 0 .966.15 1.232.448.278.299.47.736.576 1.312Zm-3.696 1.44h5.968a5.81 5.81 0 0 0-.16-1.84 4.407 4.407 0 0 0-.736-1.568 3.518 3.518 0 0 0-1.28-1.088c-.522-.277-1.136-.416-1.84-.416-.629 0-1.205.112-1.728.336a4.037 4.037 0 0 0-1.328.928 3.98 3.98 0 0 0-.864 1.376 4.839 4.839 0 0 0-.304 1.728c0 .64.096 1.227.288 1.76.203.533.486.992.848 1.376a3.75 3.75 0 0 0 1.328.896c.523.203 1.11.304 1.76.304.939 0 1.739-.213 2.4-.64.662-.427 1.152-1.136 1.472-2.128h-2c-.074.256-.277.501-.608.736-.33.224-.725.336-1.184.336-.64 0-1.13-.165-1.472-.496-.341-.33-.528-.864-.56-1.6Zm7.38-4.688V84h2.272v-4.8c0-.405.058-.73.176-.976.117-.256.256-.448.416-.576.17-.139.341-.23.512-.272a1.64 1.64 0 0 1 .432-.08c.362 0 .634.064.816.192a.927.927 0 0 1 .4.48c.085.203.133.427.144.672.01.235.016.475.016.72V84h2.272v-4.608c0-.256.016-.507.048-.752.042-.256.117-.48.224-.672.117-.203.272-.363.464-.48.202-.128.464-.192.784-.192s.57.053.752.16c.192.107.336.25.432.432.096.181.154.395.176.64.021.245.032.507.032.784V84h2.272v-5.536c0-.533-.075-.987-.224-1.36a2.352 2.352 0 0 0-.624-.928 2.453 2.453 0 0 0-.96-.512 4.416 4.416 0 0 0-1.216-.16c-.576 0-1.078.139-1.504.416a3.553 3.553 0 0 0-.992.96c-.224-.512-.555-.87-.992-1.072a3.28 3.28 0 0 0-1.424-.304c-.544 0-1.03.117-1.456.352a3.256 3.256 0 0 0-1.072.992h-.032v-1.12h-2.144Zm16.772-1.28v-1.872h-2.272v1.872h2.272Zm-2.272 1.28V84h2.272v-8.272h-2.272Zm5.821 5.584h-2.16c.021.555.144 1.019.368 1.392.234.363.528.656.88.88.362.224.773.384 1.232.48a6.85 6.85 0 0 0 2.784 0c.458-.085.864-.24 1.216-.464.352-.224.634-.517.848-.88.224-.373.336-.832.336-1.376 0-.384-.075-.704-.224-.96a1.955 1.955 0 0 0-.592-.656 3.034 3.034 0 0 0-.848-.432 9.164 9.164 0 0 0-.96-.272c-.32-.075-.635-.144-.944-.208a9.356 9.356 0 0 1-.832-.208 1.838 1.838 0 0 1-.576-.32.621.621 0 0 1-.224-.496c0-.17.042-.304.128-.4a.813.813 0 0 1 .304-.24c.128-.053.266-.085.416-.096.149-.021.288-.032.416-.032.405 0 .757.08 1.056.24.298.15.464.443.496.88h2.16c-.043-.512-.176-.933-.4-1.264a2.5 2.5 0 0 0-.816-.816 3.455 3.455 0 0 0-1.136-.432 6.671 6.671 0 0 0-2.608 0 3.369 3.369 0 0 0-1.152.416 2.29 2.29 0 0 0-.832.8c-.203.341-.304.779-.304 1.312 0 .363.074.672.224.928.149.245.346.453.592.624.245.16.522.293.832.4.32.096.645.181.976.256.81.17 1.44.341 1.888.512.458.17.688.427.688.768a.878.878 0 0 1-.144.512 1.195 1.195 0 0 1-.368.32 1.963 1.963 0 0 1-.48.176 2.693 2.693 0 0 1-1.152-.032 1.791 1.791 0 0 1-.544-.24 1.536 1.536 0 0 1-.4-.432 1.35 1.35 0 0 1-.144-.64Zm12.402-2.336h-3.696c.01-.16.042-.341.096-.544a1.86 1.86 0 0 1 .304-.576c.149-.181.341-.33.576-.448.245-.128.549-.192.912-.192.554 0 .965.15 1.232.448.277.299.469.736.576 1.312Zm-3.696 1.44h5.968a5.87 5.87 0 0 0-.16-1.84 4.442 4.442 0 0 0-.736-1.568 3.535 3.535 0 0 0-1.28-1.088c-.523-.277-1.136-.416-1.84-.416-.63 0-1.206.112-1.728.336a4.026 4.026 0 0 0-1.328.928 3.951 3.951 0 0 0-.864 1.376 4.817 4.817 0 0 0-.304 1.728c0 .64.096 1.227.288 1.76.202.533.485.992.848 1.376.362.384.805.683 1.328.896.522.203 1.109.304 1.76.304.938 0 1.738-.213 2.4-.64.661-.427 1.152-1.136 1.472-2.128h-2c-.075.256-.278.501-.608.736-.331.224-.726.336-1.184.336-.64 0-1.131-.165-1.472-.496-.342-.33-.528-.864-.56-1.6Zm14.52 1.472v-7.2h1.792c.619 0 1.136.09 1.552.272.427.17.768.421 1.024.752.256.33.438.73.544 1.2.118.459.176.976.176 1.552 0 .63-.08 1.163-.24 1.6-.16.437-.373.795-.64 1.072-.266.267-.57.459-.912.576a3.224 3.224 0 0 1-1.056.176h-2.24Zm-2.512-9.312V84h4.928c.875 0 1.632-.144 2.272-.432a4.515 4.515 0 0 0 1.616-1.216c.438-.512.763-1.12.976-1.824.214-.704.32-1.472.32-2.304 0-.95-.133-1.776-.4-2.48-.256-.704-.618-1.29-1.088-1.76a4.373 4.373 0 0 0-1.648-1.056 5.814 5.814 0 0 0-2.048-.352h-4.928Zm11.524 5.696c.032-.533.165-.976.4-1.328a2.71 2.71 0 0 1 .896-.848 3.762 3.762 0 0 1 1.216-.448 6.693 6.693 0 0 1 1.376-.144c.416 0 .837.032 1.264.096.426.053.816.165 1.168.336.352.17.64.41.864.72.224.299.336.699.336 1.2v4.304c0 .373.021.73.064 1.072.042.341.117.597.224.768h-2.304a5.052 5.052 0 0 1-.112-.384 4.906 4.906 0 0 1-.048-.416c-.363.373-.79.635-1.28.784a5.14 5.14 0 0 1-1.504.224 4.06 4.06 0 0 1-1.104-.144 2.522 2.522 0 0 1-.896-.448 2.16 2.16 0 0 1-.608-.768c-.139-.31-.208-.677-.208-1.104 0-.47.08-.853.24-1.152.17-.31.384-.555.64-.736.266-.181.565-.315.896-.4.341-.096.682-.17 1.024-.224.341-.053.677-.096 1.008-.128.33-.032.624-.08.88-.144a1.62 1.62 0 0 0 .608-.272c.149-.128.218-.31.208-.544 0-.245-.043-.437-.128-.576a.757.757 0 0 0-.32-.336 1.045 1.045 0 0 0-.464-.16 3.052 3.052 0 0 0-.56-.048c-.448 0-.8.096-1.056.288-.256.192-.406.512-.448.96h-2.272Zm5.248 1.68a1.111 1.111 0 0 1-.368.208 6.478 6.478 0 0 1-.976.192 9.393 9.393 0 0 0-.544.08 4.445 4.445 0 0 0-.512.128 1.51 1.51 0 0 0-.432.224.97.97 0 0 0-.288.336 1.103 1.103 0 0 0-.112.528c0 .203.037.373.112.512a.92.92 0 0 0 .304.336c.128.075.277.128.448.16.17.032.346.048.528.048.448 0 .794-.075 1.04-.224a1.53 1.53 0 0 0 .544-.528c.117-.213.186-.427.208-.64.032-.213.048-.384.048-.512v-.848Zm6.915-4.224v-2.48h-2.272v2.48h-1.376v1.52h1.376v4.88c0 .416.069.752.208 1.008a1.5 1.5 0 0 0 .56.592c.245.139.523.23.832.272.32.053.656.08 1.008.08.224 0 .453-.005.688-.016.235-.01.448-.032.64-.064v-1.76a3.226 3.226 0 0 1-.336.048 4.05 4.05 0 0 1-.368.016c-.384 0-.64-.064-.768-.192s-.192-.384-.192-.768v-4.096h1.664v-1.52h-1.664Zm2.649 2.544c.032-.533.165-.976.4-1.328a2.72 2.72 0 0 1 .896-.848 3.771 3.771 0 0 1 1.216-.448 6.7 6.7 0 0 1 1.376-.144c.416 0 .837.032 1.264.096a3.71 3.71 0 0 1 1.168.336c.352.17.64.41.864.72.224.299.336.699.336 1.2v4.304c0 .373.021.73.064 1.072.043.341.117.597.224.768h-2.304a5.052 5.052 0 0 1-.112-.384 5.886 5.886 0 0 1-.048-.416 2.96 2.96 0 0 1-1.28.784 5.14 5.14 0 0 1-1.504.224 4.06 4.06 0 0 1-1.104-.144 2.53 2.53 0 0 1-.896-.448 2.16 2.16 0 0 1-.608-.768c-.139-.31-.208-.677-.208-1.104 0-.47.08-.853.24-1.152.171-.31.384-.555.64-.736.267-.181.565-.315.896-.4.341-.096.683-.17 1.024-.224.341-.053.677-.096 1.008-.128.331-.032.624-.08.88-.144.256-.064.459-.155.608-.272.149-.128.219-.31.208-.544 0-.245-.043-.437-.128-.576a.752.752 0 0 0-.32-.336 1.045 1.045 0 0 0-.464-.16 3.044 3.044 0 0 0-.56-.048c-.448 0-.8.096-1.056.288-.256.192-.405.512-.448.96h-2.272Zm5.248 1.68a1.111 1.111 0 0 1-.368.208 6.478 6.478 0 0 1-.976.192 9.522 9.522 0 0 0-.544.08 4.497 4.497 0 0 0-.512.128 1.51 1.51 0 0 0-.432.224.992.992 0 0 0-.288.336 1.103 1.103 0 0 0-.112.528c0 .203.037.373.112.512.075.139.176.25.304.336.128.075.277.128.448.16.171.032.347.048.528.048.448 0 .795-.075 1.04-.224.245-.15.427-.325.544-.528.117-.213.187-.427.208-.64.032-.213.048-.384.048-.512v-.848Zm16.345-3.536h2.432a4.61 4.61 0 0 0-.544-1.76 4.137 4.137 0 0 0-1.104-1.28 4.637 4.637 0 0 0-1.504-.8 5.685 5.685 0 0 0-1.776-.272c-.875 0-1.664.155-2.368.464a5.06 5.06 0 0 0-1.76 1.28 5.693 5.693 0 0 0-1.104 1.92 7.068 7.068 0 0 0-.384 2.368c0 .832.128 1.61.384 2.336a5.575 5.575 0 0 0 1.104 1.872c.48.533 1.066.955 1.76 1.264.704.299 1.493.448 2.368.448a5.63 5.63 0 0 0 1.936-.32 4.501 4.501 0 0 0 1.536-.928 4.647 4.647 0 0 0 1.056-1.472 5.823 5.823 0 0 0 .496-1.936h-2.432c-.096.768-.363 1.387-.8 1.856-.427.47-1.024.704-1.792.704-.566 0-1.046-.107-1.44-.32a2.815 2.815 0 0 1-.96-.88 3.905 3.905 0 0 1-.544-1.216 6.53 6.53 0 0 1 0-2.864c.117-.47.298-.885.544-1.248.245-.373.565-.667.96-.88.394-.224.874-.336 1.44-.336.309 0 .602.053.88.16a2.43 2.43 0 0 1 1.328 1.056c.149.235.245.496.288.784Zm9.571 2.56h-3.696a2.99 2.99 0 0 1 .096-.544 1.86 1.86 0 0 1 .304-.576c.149-.181.341-.33.576-.448.245-.128.549-.192.912-.192.555 0 .965.15 1.232.448.277.299.469.736.576 1.312Zm-3.696 1.44h5.968a5.84 5.84 0 0 0-.16-1.84 4.425 4.425 0 0 0-.736-1.568 3.526 3.526 0 0 0-1.28-1.088c-.523-.277-1.136-.416-1.84-.416-.629 0-1.205.112-1.728.336a4.026 4.026 0 0 0-1.328.928 3.98 3.98 0 0 0-.864 1.376 4.817 4.817 0 0 0-.304 1.728c0 .64.096 1.227.288 1.76a4.1 4.1 0 0 0 .848 1.376c.363.384.805.683 1.328.896.523.203 1.109.304 1.76.304.939 0 1.739-.213 2.4-.64.661-.427 1.152-1.136 1.472-2.128h-2c-.075.256-.277.501-.608.736-.331.224-.725.336-1.184.336-.64 0-1.131-.165-1.472-.496-.341-.33-.528-.864-.56-1.6Zm7.316-4.688V84h2.272v-4.336c0-.843.138-1.445.416-1.808.277-.373.725-.56 1.344-.56.544 0 .922.17 1.136.512.213.33.32.837.32 1.52V84h2.272v-5.088c0-.512-.048-.976-.144-1.392-.086-.427-.24-.784-.464-1.072a2.13 2.13 0 0 0-.928-.688c-.384-.17-.88-.256-1.488-.256-.48 0-.95.112-1.408.336-.459.213-.832.56-1.12 1.04h-.048v-1.152h-2.16Zm12.364 0v-2.48h-2.272v2.48h-1.376v1.52h1.376v4.88c0 .416.069.752.208 1.008a1.5 1.5 0 0 0 .56.592c.245.139.523.23.832.272.32.053.656.08 1.008.08.224 0 .453-.005.688-.016.235-.01.448-.032.64-.064v-1.76a3.226 3.226 0 0 1-.336.048 4.05 4.05 0 0 1-.368.016c-.384 0-.64-.064-.768-.192s-.192-.384-.192-.768v-4.096h1.664v-1.52h-1.664Zm8.313 3.248h-3.696a2.99 2.99 0 0 1 .096-.544 1.86 1.86 0 0 1 .304-.576c.149-.181.341-.33.576-.448.245-.128.549-.192.912-.192.555 0 .965.15 1.232.448.277.299.469.736.576 1.312Zm-3.696 1.44h5.968a5.84 5.84 0 0 0-.16-1.84 4.425 4.425 0 0 0-.736-1.568 3.526 3.526 0 0 0-1.28-1.088c-.523-.277-1.136-.416-1.84-.416-.629 0-1.205.112-1.728.336a4.026 4.026 0 0 0-1.328.928 3.98 3.98 0 0 0-.864 1.376 4.817 4.817 0 0 0-.304 1.728c0 .64.096 1.227.288 1.76a4.1 4.1 0 0 0 .848 1.376c.363.384.805.683 1.328.896.523.203 1.109.304 1.76.304.939 0 1.739-.213 2.4-.64.661-.427 1.152-1.136 1.472-2.128h-2c-.075.256-.277.501-.608.736-.331.224-.725.336-1.184.336-.64 0-1.131-.165-1.472-.496-.341-.33-.528-.864-.56-1.6Zm7.315-4.688V84h2.272v-3.728c0-.373.038-.72.112-1.04.075-.32.198-.597.368-.832.182-.245.416-.437.704-.576.288-.139.64-.208 1.056-.208.139 0 .283.01.432.032.15.01.278.027.384.048v-2.112a1.768 1.768 0 0 0-.496-.08c-.288 0-.565.043-.832.128a2.91 2.91 0 0 0-.752.368 2.61 2.61 0 0 0-.624.56 2.679 2.679 0 0 0-.432.704h-.032v-1.536h-2.16Z"/>
    <path fill="url(#j)" d="M696.5 90h119v118h-119z"/>
    <g filter="url(#k)">
      <path fill="url(#l)" d="M610 216h141v53H610z"/>
    </g>
    <rect width="263" height="189" x="603" y="58" stroke="#111827" stroke-width="4" rx="14"/>
    <g filter="url(#m)">
      <path fill="#111827" d="M114.768 70.576V82h2.352v-8.016h.032l2.8 8.016h1.936l2.8-8.096h.032V82h2.352V70.576h-3.536l-2.528 7.856h-.032l-2.672-7.856h-3.536Zm14.18 5.696c.032-.533.165-.976.4-1.328a2.71 2.71 0 0 1 .896-.848 3.762 3.762 0 0 1 1.216-.448 6.693 6.693 0 0 1 1.376-.144c.416 0 .837.032 1.264.096.426.053.816.165 1.168.336.352.17.64.41.864.72.224.299.336.699.336 1.2v4.304c0 .373.021.73.064 1.072.042.341.117.597.224.768h-2.304a5.052 5.052 0 0 1-.112-.384 4.906 4.906 0 0 1-.048-.416c-.363.373-.79.635-1.28.784a5.14 5.14 0 0 1-1.504.224 4.06 4.06 0 0 1-1.104-.144 2.522 2.522 0 0 1-.896-.448 2.16 2.16 0 0 1-.608-.768c-.139-.31-.208-.677-.208-1.104 0-.47.08-.853.24-1.152.17-.31.384-.555.64-.736.266-.181.565-.315.896-.4.341-.096.682-.17 1.024-.224.341-.053.677-.096 1.008-.128.33-.032.624-.08.88-.144a1.62 1.62 0 0 0 .608-.272c.149-.128.218-.31.208-.544 0-.245-.043-.437-.128-.576a.757.757 0 0 0-.32-.336 1.045 1.045 0 0 0-.464-.16 3.052 3.052 0 0 0-.56-.048c-.448 0-.8.096-1.056.288-.256.192-.406.512-.448.96h-2.272Zm5.248 1.68a1.111 1.111 0 0 1-.368.208 6.478 6.478 0 0 1-.976.192 9.393 9.393 0 0 0-.544.08 4.445 4.445 0 0 0-.512.128 1.51 1.51 0 0 0-.432.224.97.97 0 0 0-.288.336 1.103 1.103 0 0 0-.112.528c0 .203.037.373.112.512a.92.92 0 0 0 .304.336c.128.075.277.128.448.16.17.032.346.048.528.048.448 0 .794-.075 1.04-.224a1.53 1.53 0 0 0 .544-.528c.117-.213.186-.427.208-.64.032-.213.048-.384.048-.512v-.848Zm4.035-4.224V82h2.272v-4.336c0-.843.139-1.445.416-1.808.278-.373.726-.56 1.344-.56.544 0 .923.17 1.136.512.214.33.32.837.32 1.52V82h2.272v-5.088c0-.512-.048-.976-.144-1.392-.085-.427-.24-.784-.464-1.072a2.123 2.123 0 0 0-.928-.688c-.384-.17-.88-.256-1.488-.256-.48 0-.949.112-1.408.336-.458.213-.832.56-1.12 1.04h-.048v-1.152h-2.16Zm9.389 2.544c.032-.533.165-.976.4-1.328a2.71 2.71 0 0 1 .896-.848 3.762 3.762 0 0 1 1.216-.448 6.693 6.693 0 0 1 1.376-.144c.416 0 .837.032 1.264.096.426.053.816.165 1.168.336.352.17.64.41.864.72.224.299.336.699.336 1.2v4.304c0 .373.021.73.064 1.072.042.341.117.597.224.768h-2.304a5.052 5.052 0 0 1-.112-.384 4.906 4.906 0 0 1-.048-.416c-.363.373-.79.635-1.28.784a5.14 5.14 0 0 1-1.504.224 4.06 4.06 0 0 1-1.104-.144 2.522 2.522 0 0 1-.896-.448 2.16 2.16 0 0 1-.608-.768c-.139-.31-.208-.677-.208-1.104 0-.47.08-.853.24-1.152.17-.31.384-.555.64-.736.266-.181.565-.315.896-.4.341-.096.682-.17 1.024-.224.341-.053.677-.096 1.008-.128.33-.032.624-.08.88-.144a1.62 1.62 0 0 0 .608-.272c.149-.128.218-.31.208-.544 0-.245-.043-.437-.128-.576a.757.757 0 0 0-.32-.336 1.045 1.045 0 0 0-.464-.16 3.052 3.052 0 0 0-.56-.048c-.448 0-.8.096-1.056.288-.256.192-.406.512-.448.96h-2.272Zm5.248 1.68a1.111 1.111 0 0 1-.368.208 6.478 6.478 0 0 1-.976.192 9.393 9.393 0 0 0-.544.08 4.445 4.445 0 0 0-.512.128 1.51 1.51 0 0 0-.432.224.97.97 0 0 0-.288.336 1.103 1.103 0 0 0-.112.528c0 .203.037.373.112.512a.92.92 0 0 0 .304.336c.128.075.277.128.448.16.17.032.346.048.528.048.448 0 .794-.075 1.04-.224a1.53 1.53 0 0 0 .544-.528c.117-.213.186-.427.208-.64.032-.213.048-.384.048-.512v-.848Zm7.891 2.096c-.352 0-.645-.075-.88-.224a1.848 1.848 0 0 1-.576-.576 2.658 2.658 0 0 1-.304-.784 5.12 5.12 0 0 1-.08-.896c0-.31.032-.603.096-.88a2.32 2.32 0 0 1 .336-.752c.16-.224.352-.4.576-.528.235-.128.512-.192.832-.192.373 0 .683.07.928.208.245.139.443.325.592.56.149.235.256.507.32.816.064.299.096.619.096.96 0 .299-.043.587-.128.864a2.163 2.163 0 0 1-.352.72 1.78 1.78 0 0 1-.608.512 1.806 1.806 0 0 1-.848.192Zm4.096 1.424v-7.744h-2.16v1.104h-.032c-.277-.48-.624-.821-1.04-1.024-.405-.203-.88-.304-1.424-.304-.576 0-1.088.112-1.536.336a3.275 3.275 0 0 0-1.104.912 4.04 4.04 0 0 0-.688 1.312 5.258 5.258 0 0 0-.224 1.536c0 .565.064 1.104.192 1.616.139.501.352.944.64 1.328.288.373.656.672 1.104.896.448.213.981.32 1.6.32.501 0 .976-.101 1.424-.304a2.283 2.283 0 0 0 1.056-.976h.032v1.088c.011.587-.133 1.072-.432 1.456-.288.384-.752.576-1.392.576a2.18 2.18 0 0 1-1.072-.256c-.309-.16-.517-.453-.624-.88h-2.256c.032.47.16.87.384 1.2.235.341.523.619.864.832.352.213.736.368 1.152.464.427.107.843.16 1.248.16.949 0 1.707-.128 2.272-.384.565-.256.997-.57 1.296-.944.299-.363.491-.757.576-1.184.096-.427.144-.805.144-1.136Zm7.397-4.496h-3.696a2.99 2.99 0 0 1 .096-.544c.064-.203.166-.395.304-.576.15-.181.342-.33.576-.448.246-.128.55-.192.912-.192.555 0 .966.15 1.232.448.278.299.47.736.576 1.312Zm-3.696 1.44h5.968a5.81 5.81 0 0 0-.16-1.84 4.407 4.407 0 0 0-.736-1.568 3.518 3.518 0 0 0-1.28-1.088c-.522-.277-1.136-.416-1.84-.416-.629 0-1.205.112-1.728.336a4.037 4.037 0 0 0-1.328.928 3.98 3.98 0 0 0-.864 1.376 4.839 4.839 0 0 0-.304 1.728c0 .64.096 1.227.288 1.76.203.533.486.992.848 1.376a3.75 3.75 0 0 0 1.328.896c.523.203 1.11.304 1.76.304.939 0 1.739-.213 2.4-.64.662-.427 1.152-1.136 1.472-2.128h-2c-.074.256-.277.501-.608.736-.33.224-.725.336-1.184.336-.64 0-1.13-.165-1.472-.496-.341-.33-.528-.864-.56-1.6Zm13.188-.576c0 .341-.032.672-.096.992-.064.32-.171.608-.32.864-.15.245-.352.443-.608.592-.246.15-.555.224-.928.224-.352 0-.656-.075-.912-.224a2.238 2.238 0 0 1-.624-.608 2.814 2.814 0 0 1-.352-.864 4.194 4.194 0 0 1-.112-.96c0-.341.032-.667.096-.976a2.84 2.84 0 0 1 .336-.848c.16-.245.368-.443.624-.592.256-.15.57-.224.944-.224.373 0 .682.075.928.224.245.15.442.347.592.592.16.235.272.512.336.832.064.31.096.635.096.976Zm.032 3.104V82h2.16V70.576h-2.272v4.16h-.032a2.38 2.38 0 0 0-1.056-.912 3.139 3.139 0 0 0-1.392-.32c-.608 0-1.142.123-1.6.368a3.42 3.42 0 0 0-1.152.944 4.376 4.376 0 0 0-.688 1.376 5.66 5.66 0 0 0-.224 1.6c0 .576.074 1.13.224 1.664.16.533.389 1.008.688 1.424.309.405.698.73 1.168.976.469.235 1.013.352 1.632.352.544 0 1.029-.096 1.456-.288a2.387 2.387 0 0 0 1.056-.976h.032Zm16.186-6.528h2.432a4.593 4.593 0 0 0-.544-1.76 4.137 4.137 0 0 0-1.104-1.28 4.617 4.617 0 0 0-1.504-.8 5.676 5.676 0 0 0-1.776-.272c-.874 0-1.664.155-2.368.464-.693.31-1.28.736-1.76 1.28a5.693 5.693 0 0 0-1.104 1.92 7.068 7.068 0 0 0-.384 2.368c0 .832.128 1.61.384 2.336a5.575 5.575 0 0 0 1.104 1.872c.48.533 1.067.955 1.76 1.264.704.299 1.494.448 2.368.448.704 0 1.35-.107 1.936-.32a4.482 4.482 0 0 0 1.536-.928c.438-.405.79-.896 1.056-1.472a5.8 5.8 0 0 0 .496-1.936h-2.432c-.096.768-.362 1.387-.8 1.856-.426.47-1.024.704-1.792.704-.565 0-1.045-.107-1.44-.32a2.833 2.833 0 0 1-.96-.88 3.951 3.951 0 0 1-.544-1.216 6.233 6.233 0 0 1-.16-1.408c0-.501.054-.987.16-1.456.118-.47.299-.885.544-1.248.246-.373.566-.667.96-.88.395-.224.875-.336 1.44-.336.31 0 .603.053.88.16a2.43 2.43 0 0 1 1.328 1.056c.15.235.246.496.288.784Zm4.068-3.84V82h2.272V70.576h-2.272Zm6.077 7.296c0-.33.032-.656.096-.976.064-.32.17-.603.32-.848.16-.245.368-.443.624-.592.256-.16.576-.24.96-.24s.704.08.96.24c.266.15.474.347.624.592.16.245.272.528.336.848a4.964 4.964 0 0 1 0 1.952c-.064.31-.176.592-.336.848-.15.245-.358.443-.624.592-.256.15-.576.224-.96.224s-.704-.075-.96-.224a1.843 1.843 0 0 1-.624-.592 2.776 2.776 0 0 1-.32-.848 4.964 4.964 0 0 1-.096-.976Zm-2.272 0c0 .661.101 1.259.304 1.792.202.533.49.992.864 1.376a3.83 3.83 0 0 0 1.344.864c.522.203 1.109.304 1.76.304.65 0 1.237-.101 1.76-.304a3.81 3.81 0 0 0 1.36-.864 3.98 3.98 0 0 0 .864-1.376c.202-.533.304-1.13.304-1.792 0-.661-.102-1.259-.304-1.792a3.79 3.79 0 0 0-.864-1.376 3.71 3.71 0 0 0-1.36-.88 4.63 4.63 0 0 0-1.76-.32c-.651 0-1.238.107-1.76.32a3.722 3.722 0 0 0-1.344.88 3.764 3.764 0 0 0-.864 1.376c-.203.533-.304 1.13-.304 1.792ZM223.632 82v-8.272h-2.272v4.336c0 .843-.139 1.45-.416 1.824-.278.363-.726.544-1.344.544-.544 0-.923-.165-1.136-.496-.214-.341-.32-.853-.32-1.536v-4.672h-2.272v5.088c0 .512.042.981.128 1.408.096.416.256.773.48 1.072.224.288.528.512.912.672.394.16.896.24 1.504.24.48 0 .949-.107 1.408-.32.458-.213.832-.56 1.12-1.04h.048V82h2.16Zm7.596-4.16c0 .341-.032.672-.096.992-.064.32-.17.608-.32.864a1.7 1.7 0 0 1-.608.592c-.245.15-.554.224-.928.224-.352 0-.656-.075-.912-.224a2.265 2.265 0 0 1-.624-.608 2.838 2.838 0 0 1-.352-.864 4.25 4.25 0 0 1-.112-.96c0-.341.032-.667.096-.976a2.89 2.89 0 0 1 .336-.848c.16-.245.368-.443.624-.592.256-.15.571-.224.944-.224.374 0 .683.075.928.224.246.15.443.347.592.592.16.235.272.512.336.832.064.31.096.635.096.976Zm.032 3.104V82h2.16V70.576h-2.272v4.16h-.032a2.38 2.38 0 0 0-1.056-.912 3.133 3.133 0 0 0-1.392-.32c-.608 0-1.141.123-1.6.368a3.44 3.44 0 0 0-1.152.944 4.397 4.397 0 0 0-.688 1.376 5.697 5.697 0 0 0-.224 1.6c0 .576.075 1.13.224 1.664.16.533.39 1.008.688 1.424.31.405.699.73 1.168.976.47.235 1.014.352 1.632.352.544 0 1.03-.096 1.456-.288.438-.203.79-.528 1.056-.976h.032Zm10.283-2.736h-2.432c-.011.704.117 1.312.384 1.824.266.512.624.933 1.072 1.264.458.33.981.57 1.568.72.597.16 1.21.24 1.84.24.778 0 1.461-.09 2.048-.272.597-.181 1.093-.432 1.488-.752a3.2 3.2 0 0 0 .912-1.168 3.5 3.5 0 0 0 .304-1.456c0-.64-.139-1.163-.416-1.568a3.294 3.294 0 0 0-.96-.992 4.048 4.048 0 0 0-1.136-.528 9.178 9.178 0 0 0-.88-.24c-.715-.181-1.296-.33-1.744-.448a6.803 6.803 0 0 1-1.04-.352c-.246-.117-.411-.245-.496-.384-.086-.139-.128-.32-.128-.544 0-.245.053-.448.16-.608.106-.16.24-.293.4-.4.17-.107.357-.181.56-.224.202-.043.405-.064.608-.064.309 0 .592.027.848.08.266.053.501.144.704.272.202.128.362.304.48.528.128.224.202.507.224.848h2.432c0-.661-.128-1.221-.384-1.68a3.198 3.198 0 0 0-1.008-1.152 4.182 4.182 0 0 0-1.472-.64 6.906 6.906 0 0 0-1.712-.208c-.512 0-1.024.07-1.536.208a4.286 4.286 0 0 0-1.376.64 3.45 3.45 0 0 0-.992 1.088c-.246.427-.368.933-.368 1.52 0 .523.096.97.288 1.344.202.363.464.667.784.912s.682.448 1.088.608c.405.15.821.277 1.248.384.416.117.826.224 1.232.32.405.096.768.208 1.088.336.32.128.576.288.768.48.202.192.304.443.304.752 0 .288-.075.528-.224.72-.15.181-.336.325-.56.432a2.697 2.697 0 0 1-.72.224 5.823 5.823 0 0 1-.72.048c-.331 0-.651-.037-.96-.112a2.705 2.705 0 0 1-.816-.368 1.922 1.922 0 0 1-.544-.656c-.139-.267-.208-.592-.208-.976Zm14.006-1.232h-3.696a2.99 2.99 0 0 1 .096-.544c.064-.203.166-.395.304-.576.15-.181.342-.33.576-.448.246-.128.55-.192.912-.192.555 0 .966.15 1.232.448.278.299.47.736.576 1.312Zm-3.696 1.44h5.968a5.81 5.81 0 0 0-.16-1.84 4.407 4.407 0 0 0-.736-1.568 3.518 3.518 0 0 0-1.28-1.088c-.522-.277-1.136-.416-1.84-.416-.629 0-1.205.112-1.728.336a4.037 4.037 0 0 0-1.328.928 3.98 3.98 0 0 0-.864 1.376 4.839 4.839 0 0 0-.304 1.728c0 .64.096 1.227.288 1.76.203.533.486.992.848 1.376a3.75 3.75 0 0 0 1.328.896c.523.203 1.11.304 1.76.304.939 0 1.739-.213 2.4-.64.662-.427 1.152-1.136 1.472-2.128h-2c-.074.256-.277.501-.608.736-.33.224-.725.336-1.184.336-.64 0-1.13-.165-1.472-.496-.341-.33-.528-.864-.56-1.6Zm7.316-4.688V82h2.272v-3.728c0-.373.037-.72.112-1.04a2.26 2.26 0 0 1 .368-.832c.181-.245.416-.437.704-.576.288-.139.64-.208 1.056-.208.138 0 .282.01.432.032.149.01.277.027.384.048v-2.112a1.779 1.779 0 0 0-.496-.08 2.72 2.72 0 0 0-.832.128 2.878 2.878 0 0 0-.752.368c-.235.15-.443.336-.624.56a2.627 2.627 0 0 0-.432.704h-.032v-1.536h-2.16ZM269.963 82l2.8-8.272h-2.256l-1.744 5.648h-.032l-1.744-5.648h-2.384L267.435 82h2.528Zm6.073-9.552v-1.872h-2.272v1.872h2.272Zm-2.272 1.28V82h2.272v-8.272h-2.272Zm9.693 2.912h2.224c-.032-.533-.16-.992-.384-1.376a2.972 2.972 0 0 0-.88-.976 3.585 3.585 0 0 0-1.216-.592 5.099 5.099 0 0 0-1.408-.192c-.672 0-1.269.112-1.792.336a3.724 3.724 0 0 0-1.328.944 4.02 4.02 0 0 0-.832 1.424 5.594 5.594 0 0 0-.272 1.776c0 .619.101 1.19.304 1.712.203.512.485.955.848 1.328.363.373.8.667 1.312.88a4.695 4.695 0 0 0 1.712.304c1.099 0 2-.288 2.704-.864.704-.576 1.131-1.413 1.28-2.512h-2.192c-.075.512-.261.923-.56 1.232-.288.299-.704.448-1.248.448-.352 0-.651-.08-.896-.24a1.895 1.895 0 0 1-.592-.608 3.069 3.069 0 0 1-.304-.848 4.493 4.493 0 0 1 0-1.84c.064-.32.171-.608.32-.864.16-.267.363-.48.608-.64.245-.17.549-.256.912-.256.971 0 1.531.475 1.68 1.424Zm9.123.336h-3.696a2.99 2.99 0 0 1 .096-.544c.064-.203.166-.395.304-.576.15-.181.342-.33.576-.448.246-.128.55-.192.912-.192.555 0 .966.15 1.232.448.278.299.47.736.576 1.312Zm-3.696 1.44h5.968a5.81 5.81 0 0 0-.16-1.84 4.407 4.407 0 0 0-.736-1.568 3.518 3.518 0 0 0-1.28-1.088c-.522-.277-1.136-.416-1.84-.416-.629 0-1.205.112-1.728.336a4.037 4.037 0 0 0-1.328.928 3.98 3.98 0 0 0-.864 1.376 4.839 4.839 0 0 0-.304 1.728c0 .64.096 1.227.288 1.76.203.533.486.992.848 1.376a3.75 3.75 0 0 0 1.328.896c.523.203 1.11.304 1.76.304.939 0 1.739-.213 2.4-.64.662-.427 1.152-1.136 1.472-2.128h-2c-.074.256-.277.501-.608.736-.33.224-.725.336-1.184.336-.64 0-1.13-.165-1.472-.496-.341-.33-.528-.864-.56-1.6Z"/>
      <path fill="url(#n)" d="M140.5 88h128v128h-128z"/>
      <rect width="268" height="190" x="96" y="56" stroke="#111827" stroke-width="4" rx="14"/>
    </g>
    <path fill="url(#o)" d="M205 216h141v53H205z"/>
    <path fill="#111827" d="M141.667 540a5.333 5.333 0 1 0 10.666 0 5.333 5.333 0 0 0-10.666 0Zm-51.5-390a5.333 5.333 0 1 0 10.665 0 5.333 5.333 0 0 0-10.665 0Zm5.333-1h-3.438v2H95.5v-2Zm-10.313 0h-6.874v2h6.874v-2Zm-13.75 0H68v2h3.438v-2ZM68 149c-1.2 0-2.375.118-3.512.343l.388 1.962A16.06 16.06 0 0 1 68 151v-2Zm-10.002 3.032a18.103 18.103 0 0 0-4.966 4.966l1.662 1.113a16.106 16.106 0 0 1 4.417-4.417l-1.113-1.662Zm-7.655 11.456A18.083 18.083 0 0 0 50 167h2c0-1.07.105-2.114.305-3.124l-1.962-.388ZM50 167v4.045h2V167h-2Zm0 12.136v8.091h2v-8.091h-2Zm0 16.182v8.091h2v-8.091h-2Zm0 16.182v8.091h2V211.5h-2Zm0 16.182v8.091h2v-8.091h-2Zm0 16.182v8.091h2v-8.091h-2Zm0 16.181v8.091h2v-8.091h-2Zm0 16.182v8.091h2v-8.091h-2Zm0 16.182v8.091h2v-8.091h-2Zm0 16.182v8.091h2v-8.091h-2Zm0 16.182v8.091h2v-8.091h-2Zm0 16.182v8.09h2v-8.09h-2Zm0 16.181v8.091h2v-8.091h-2Zm0 16.182v8.091h2v-8.091h-2Zm0 16.182v8.091h2V389.5h-2Zm0 16.182v8.091h2v-8.091h-2Zm0 16.182v8.091h2v-8.091h-2Zm0 16.182v8.09h2v-8.09h-2Zm0 16.181v8.091h2v-8.091h-2Zm0 16.182v8.091h2v-8.091h-2Zm0 16.182v8.091h2v-8.091h-2Zm0 16.182v8.091h2v-8.091h-2Zm0 16.182V523h2v-4.045h-2ZM50 523c0 1.201.118 2.375.343 3.512l1.962-.388A16.09 16.09 0 0 1 52 523h-2Zm3.032 10.002a18.103 18.103 0 0 0 4.966 4.966l1.113-1.662a16.107 16.107 0 0 1-4.417-4.417l-1.662 1.113Zm11.456 7.655c1.137.225 2.311.343 3.512.343v-2a16.06 16.06 0 0 1-3.124-.305l-.388 1.962ZM68 541h3.95v-2H68v2Zm11.85 0h7.9v-2h-7.9v2Zm15.8 0h7.9v-2h-7.9v2Zm15.8 0h7.9v-2h-7.9v2Zm15.8 0h7.9v-2h-7.9v2Zm15.8 0H147v-2h-3.95v2Z"/>
  </g>
  <path fill="#fff" d="M202 286h28v36h-28z"/>
  <path fill="#111827" d="M205.141 296.18c0-2.021.32-3.534.961-4.539.64-1.011 1.604-1.516 2.89-1.516 1.292 0 2.258.503 2.899 1.508.64 1.005.961 2.521.961 4.547 0 2.021-.321 3.534-.961 4.539-.641 1.005-1.607 1.508-2.899 1.508-1.286 0-2.25-.503-2.89-1.508-.641-1.011-.961-2.524-.961-4.539Zm2.687 3.117c.245.651.633.976 1.164.976.537 0 .927-.325 1.172-.976.245-.651.367-1.69.367-3.117 0-.542-.018-1.026-.054-1.453l-2.727 4.343c.026.084.052.159.078.227Zm1.164-7.219c-.531 0-.919.326-1.164.977-.245.651-.367 1.692-.367 3.125 0 .442.01.846.031 1.211l2.688-4.289-.016-.047c-.245-.651-.635-.977-1.172-.977Zm10.656 7.891h2.579v-7.571l-2.399.594v-2.078l2.414-.578h2.227v9.633h2.578V302h-7.399v-2.031Zm-14 16h2.579v-7.571l-2.399.594v-2.078l2.414-.578h2.227v9.633h2.578V318h-7.399v-2.031Zm13.493-3.789c0-2.021.32-3.534.961-4.539.64-1.011 1.604-1.516 2.89-1.516 1.292 0 2.258.503 2.899 1.508.64 1.005.961 2.521.961 4.547 0 2.021-.321 3.534-.961 4.539-.641 1.005-1.607 1.508-2.899 1.508-1.286 0-2.25-.503-2.89-1.508-.641-1.011-.961-2.524-.961-4.539Zm2.687 3.117c.245.651.633.976 1.164.976.537 0 .927-.325 1.172-.976.245-.651.367-1.69.367-3.117 0-.542-.018-1.026-.054-1.453l-2.727 4.343c.026.084.052.159.078.227Zm1.164-7.219c-.531 0-.919.326-1.164.977-.245.651-.367 1.692-.367 3.125 0 .442.01.846.031 1.211l2.688-4.289-.016-.047c-.245-.651-.635-.977-1.172-.977Z"/>
  <path fill="#fff" d="M734 286h28v36h-28z"/>
  <path fill="#111827" d="M737.141 296.18c0-2.021.32-3.534.961-4.539.64-1.011 1.604-1.516 2.89-1.516 1.292 0 2.258.503 2.899 1.508.64 1.005.961 2.521.961 4.547 0 2.021-.321 3.534-.961 4.539-.641 1.005-1.607 1.508-2.899 1.508-1.286 0-2.25-.503-2.89-1.508-.641-1.011-.961-2.524-.961-4.539Zm2.687 3.117c.245.651.633.976 1.164.976.537 0 .927-.325 1.172-.976.245-.651.367-1.69.367-3.117 0-.542-.018-1.026-.054-1.453l-2.727 4.343c.026.084.052.159.078.227Zm1.164-7.219c-.531 0-.919.326-1.164.977-.245.651-.367 1.692-.367 3.125 0 .442.01.846.031 1.211l2.688-4.289-.016-.047c-.245-.651-.635-.977-1.172-.977Zm10.656 7.891h2.579v-7.571l-2.399.594v-2.078l2.414-.578h2.227v9.633h2.578V302h-7.399v-2.031Zm-14 16h2.579v-7.571l-2.399.594v-2.078l2.414-.578h2.227v9.633h2.578V318h-7.399v-2.031Zm13.493-3.789c0-2.021.32-3.534.961-4.539.64-1.011 1.604-1.516 2.89-1.516 1.292 0 2.258.503 2.899 1.508.64 1.005.961 2.521.961 4.547 0 2.021-.321 3.534-.961 4.539-.641 1.005-1.607 1.508-2.899 1.508-1.286 0-2.25-.503-2.89-1.508-.641-1.011-.961-2.524-.961-4.539Zm2.687 3.117c.245.651.633.976 1.164.976.537 0 .927-.325 1.172-.976.245-.651.367-1.69.367-3.117 0-.542-.018-1.026-.054-1.453l-2.727 4.343c.026.084.052.159.078.227Zm1.164-7.219c-.531 0-.919.326-1.164.977-.245.651-.367 1.692-.367 3.125 0 .442.01.846.031 1.211l2.688-4.289-.016-.047c-.245-.651-.635-.977-1.172-.977Z"/>
  <path fill="#fff" d="M37 320h28v36H37z"/>
  <path fill="#111827" d="M40.14 330.18c0-2.021.32-3.534.962-4.539.64-1.011 1.604-1.516 2.89-1.516 1.292 0 2.258.503 2.899 1.508.64 1.005.96 2.521.96 4.547 0 2.021-.32 3.534-.96 4.539-.641 1.005-1.607 1.508-2.899 1.508-1.286 0-2.25-.503-2.89-1.508-.641-1.011-.961-2.524-.961-4.539Zm2.688 3.117c.245.651.633.976 1.164.976.537 0 .927-.325 1.172-.976.245-.651.367-1.69.367-3.117 0-.542-.018-1.026-.054-1.453l-2.727 4.343c.026.084.052.159.078.227Zm1.164-7.219c-.531 0-.92.326-1.164.977-.245.651-.367 1.692-.367 3.125 0 .442.01.846.031 1.211l2.688-4.289-.016-.047c-.245-.651-.635-.977-1.172-.977Zm10.656 7.891h2.579v-7.571l-2.399.594v-2.078l2.414-.578h2.227v9.633h2.578V336h-7.399v-2.031Zm-14 16h2.579v-7.571l-2.399.594v-2.078l2.414-.578h2.227v9.633h2.578V352h-7.399v-2.031Zm13.492-3.789c0-2.021.32-3.534.962-4.539.64-1.011 1.604-1.516 2.89-1.516 1.292 0 2.258.503 2.899 1.508.64 1.005.96 2.521.96 4.547 0 2.021-.32 3.534-.96 4.539-.641 1.005-1.607 1.508-2.899 1.508-1.286 0-2.25-.503-2.89-1.508-.641-1.011-.961-2.524-.961-4.539Zm2.688 3.117c.245.651.633.976 1.164.976.537 0 .927-.325 1.172-.976.245-.651.367-1.69.367-3.117 0-.542-.018-1.026-.054-1.453l-2.727 4.343c.026.084.052.159.078.227Zm1.164-7.219c-.531 0-.92.326-1.164.977-.245.651-.367 1.692-.367 3.125 0 .442.01.846.031 1.211l2.688-4.289-.016-.047c-.245-.651-.635-.977-1.172-.977Z"/>
  <g filter="url(#p)">
    <rect width="129" height="78" x="300" y="113" fill="#374151" stroke="#111827" stroke-width="2" rx="1"/>
    <path fill="#50C3C9" d="M301 114h127v6H301z"/>
    <path fill="#4B5563" d="M302 121h29v49h-29zm32 0h29v62h-29zm32 0h29v27h-29zm0 30h29v27h-29zm0 30h29v9h-29zm32-60h29v47h-29z"/>
    <path fill="#35AAB0" d="M302 115h4v4h-4zm5 0h23v4h-23z"/>
    <path stroke="#EAB308" d="m373 142 4.666-5.599a.5.5 0 0 1 .72-.05l4.677 4.251a.5.5 0 0 0 .757-.099L388 134"/>
    <path stroke="#16A34A" d="m373 139 4.716 2.83a.502.502 0 0 0 .552-.025l4.886-3.554a.501.501 0 0 1 .648.051L388 142.5"/>
    <path stroke="#2563EB" d="m373 132 4.842.968a.493.493 0 0 0 .305-.035l5.201-2.364a.502.502 0 0 1 .315-.033l4.337.964"/>
    <path fill="#22C55E" d="M424 153.5a10.496 10.496 0 0 0-5.25-9.093l-3.254 5.635a3.996 3.996 0 0 1 1.997 3.458H424Z"/>
    <path fill="#3B82F6" d="M424 153.5a10.502 10.502 0 0 1-14.518 9.701 10.496 10.496 0 0 1-5.075-4.451l5.635-3.254a3.99 3.99 0 0 0 6.625.434 3.985 3.985 0 0 0 .826-2.43H424Z"/>
    <path fill="#EAB308" d="M404.407 158.75a10.497 10.497 0 0 1 7.722-15.66 10.497 10.497 0 0 1 6.621 1.317l-3.254 5.635a3.992 3.992 0 0 0-5.454 5.454l-5.635 3.254Z"/>
    <path fill="#6B7280" d="M345 163.6h7v7h-7zm0 8.4h7v1.4h-7z"/>
    <path fill="#BC3838" d="M348.5 158a10.505 10.505 0 0 1 9.424 5.869 10.497 10.497 0 0 1-1.112 11.046 10.503 10.503 0 0 1-10.403 3.875 10.503 10.503 0 0 1-8.066-7.629l2.982-.781a7.412 7.412 0 0 0 5.698 5.389 7.416 7.416 0 0 0 5.398-13.565 7.414 7.414 0 0 0-3.921-1.122V158Z"/>
    <path fill="#6B7280" d="M338.372 171.271a10.512 10.512 0 0 1 1.8-9.165 10.494 10.494 0 0 1 8.389-4.106l-.018 3.082a7.428 7.428 0 0 0-5.927 2.901 7.426 7.426 0 0 0-1.271 6.475l-2.973.813ZM314 143h5v4h-5zm-1 5h7v1.4h-7z"/>
    <path fill="#EAB308" d="M306 148.5a10.499 10.499 0 0 1 14.675-9.634l-1.226 2.828a7.412 7.412 0 0 0-7.02.605 7.424 7.424 0 0 0-3.347 6.201H306Z"/>
    <path fill="#6B7280" d="M320.029 138.611a10.497 10.497 0 0 1 6.971 9.883l-3.082.002a7.418 7.418 0 0 0-4.925-6.982l1.036-2.903Z"/>
    <path fill="#2563EB" d="M338.75 145.125h3.5v7h-3.5z"/>
    <path fill="#6B7280" d="M337 132h.875v20.125H337z"/>
    <path fill="#16A34A" d="M343.125 135.5h3.5v16.625h-3.5z"/>
    <path fill="#35AAB0" d="M347.5 143.375h3.5v8.75h-3.5z"/>
    <path fill="#BC3838" d="M351.875 139h3.5v13.125h-3.5z"/>
    <path fill="#EAB308" d="M356.25 146h3.5v6.125h-3.5z"/>
    <path fill="#6B7280" d="M360.625 152v.875H337V152h23.625ZM369 128h.875v17.233H369z"/>
    <path fill="#6B7280" d="M392.625 145.126v.749H369v-.749h23.625Zm-32-19.126v.875H337V126h23.625Z"/>
    <circle cx="352.5" cy="126.5" r="1.5" fill="#74D4D9"/>
    <path fill="#6B7280" d="M392 161v1h-24v-1h24Z"/>
    <circle cx="383.5" cy="161.5" r="1.5" fill="#74D4D9"/>
    <path fill="#6B7280" d="M423.5 130a1.5 1.5 0 0 1 0 3h-4a1.5 1.5 0 0 1 0-3h4Z"/>
    <circle cx="423.5" cy="131.5" r="1.5" fill="#74D4D9"/>
    <path fill="#6B7280" d="M423.5 124a1.5 1.5 0 0 1 0 3h-4a1.5 1.5 0 0 1 0-3h4Z"/>
    <circle cx="423.5" cy="125.5" r="1.5" fill="#74D4D9"/>
    <path fill="#6B7280" d="M392 167v1h-24v-1h24Z"/>
    <circle cx="373.5" cy="167.5" r="1.5" fill="#74D4D9"/>
    <path fill="#6B7280" d="M392 173v1h-24v-1h24Z"/>
    <circle cx="378.5" cy="173.5" r="1.5" fill="#74D4D9"/>
    <path fill="#35AAB0" d="M304 123h10v4h-10zm12 0h13v4h-13z"/>
    <path fill="#31959A" d="M317 124h11v2h-11z"/>
    <path fill="#35AAB0" d="M412 136h13v4h-13z"/>
    <path fill="#31959A" d="M413 137h11v2h-11zm-108-13h8v2h-8z"/>
    <path fill="#35AAB0" d="M400 136h10v4h-10z"/>
    <path fill="#31959A" d="M401 137h8v2h-8z"/>
    <path fill="#6B7280" d="M306 131h21v3h-21zm64-8h21v3h-21z"/>
    <path fill="#6B7280" d="M370 123h21v3h-21zm30 1h14v3h-14zm0 6h7v3h-7zm-30 24h21v3h-21zm-66-1h25v3h-25zm0 6h25v3h-25zm0 6h25v3h-25z"/>
  </g>
  <g filter="url(#q)">
    <rect width="129" height="78" x="538" y="113" fill="#374151" stroke="#111827" stroke-width="2" rx="1"/>
    <path fill="#50C3C9" d="M539 114h127v6H539z"/>
    <path fill="#4B5563" d="M540 121h29v49h-29zm32 0h29v62h-29zm32 0h29v27h-29zm0 30h29v27h-29zm0 30h29v9h-29zm32-60h29v47h-29z"/>
    <path fill="#35AAB0" d="M540 115h4v4h-4zm5 0h23v4h-23z"/>
    <path stroke="#EAB308" d="m611 142 4.666-5.599a.5.5 0 0 1 .72-.05l4.677 4.251a.5.5 0 0 0 .757-.099L626 134"/>
    <path stroke="#16A34A" d="m611 139 4.716 2.83a.502.502 0 0 0 .552-.025l4.886-3.554a.501.501 0 0 1 .648.051L626 142.5"/>
    <path stroke="#2563EB" d="m611 132 4.842.968a.493.493 0 0 0 .305-.035l5.201-2.364a.502.502 0 0 1 .315-.033l4.337.964"/>
    <path fill="#22C55E" d="M662 153.5a10.496 10.496 0 0 0-5.25-9.093l-3.254 5.635a3.996 3.996 0 0 1 1.997 3.458H662Z"/>
    <path fill="#3B82F6" d="M662 153.5a10.502 10.502 0 0 1-14.518 9.701 10.496 10.496 0 0 1-5.075-4.451l5.635-3.254a3.99 3.99 0 0 0 6.625.434 3.985 3.985 0 0 0 .826-2.43H662Z"/>
    <path fill="#EAB308" d="M642.407 158.75a10.497 10.497 0 0 1 7.722-15.66 10.497 10.497 0 0 1 6.621 1.317l-3.254 5.635a3.992 3.992 0 0 0-5.454 5.454l-5.635 3.254Z"/>
    <path fill="#6B7280" d="M583 163.6h7v7h-7zm0 8.4h7v1.4h-7z"/>
    <path fill="#BC3838" d="M586.5 158a10.505 10.505 0 0 1 9.424 5.869 10.497 10.497 0 0 1-1.112 11.046 10.503 10.503 0 0 1-10.403 3.875 10.503 10.503 0 0 1-8.066-7.629l2.982-.781a7.412 7.412 0 0 0 5.698 5.389 7.416 7.416 0 0 0 5.398-13.565 7.414 7.414 0 0 0-3.921-1.122V158Z"/>
    <path fill="#6B7280" d="M576.372 171.271a10.512 10.512 0 0 1 1.8-9.165 10.494 10.494 0 0 1 8.389-4.106l-.018 3.082a7.428 7.428 0 0 0-5.927 2.901 7.426 7.426 0 0 0-1.271 6.475l-2.973.813ZM552 143h5v4h-5zm-1 5h7v1.4h-7z"/>
    <path fill="#EAB308" d="M544 148.5a10.499 10.499 0 0 1 14.675-9.634l-1.226 2.828a7.412 7.412 0 0 0-7.02.605 7.424 7.424 0 0 0-3.347 6.201H544Z"/>
    <path fill="#6B7280" d="M558.029 138.611a10.497 10.497 0 0 1 6.971 9.883l-3.082.002a7.418 7.418 0 0 0-4.925-6.982l1.036-2.903Z"/>
    <path fill="#2563EB" d="M576.75 145.125h3.5v7h-3.5z"/>
    <path fill="#6B7280" d="M575 132h.875v20.125H575z"/>
    <path fill="#16A34A" d="M581.125 135.5h3.5v16.625h-3.5z"/>
    <path fill="#35AAB0" d="M585.5 143.375h3.5v8.75h-3.5z"/>
    <path fill="#BC3838" d="M589.875 139h3.5v13.125h-3.5z"/>
    <path fill="#EAB308" d="M594.25 146h3.5v6.125h-3.5z"/>
    <path fill="#6B7280" d="M598.625 152v.875H575V152h23.625ZM607 128h.875v17.233H607z"/>
    <path fill="#6B7280" d="M630.625 145.126v.749H607v-.749h23.625Zm-32-19.126v.875H575V126h23.625Z"/>
    <circle cx="590.5" cy="126.5" r="1.5" fill="#74D4D9"/>
    <path fill="#6B7280" d="M630 161v1h-24v-1h24Z"/>
    <circle cx="621.5" cy="161.5" r="1.5" fill="#74D4D9"/>
    <path fill="#6B7280" d="M661.5 130a1.5 1.5 0 0 1 0 3h-4a1.5 1.5 0 0 1 0-3h4Z"/>
    <circle cx="661.5" cy="131.5" r="1.5" fill="#74D4D9"/>
    <path fill="#6B7280" d="M661.5 124a1.5 1.5 0 0 1 0 3h-4a1.5 1.5 0 0 1 0-3h4Z"/>
    <circle cx="661.5" cy="125.5" r="1.5" fill="#74D4D9"/>
    <path fill="#6B7280" d="M630 167v1h-24v-1h24Z"/>
    <circle cx="611.5" cy="167.5" r="1.5" fill="#74D4D9"/>
    <path fill="#6B7280" d="M630 173v1h-24v-1h24Z"/>
    <circle cx="616.5" cy="173.5" r="1.5" fill="#74D4D9"/>
    <path fill="#35AAB0" d="M542 123h10v4h-10zm12 0h13v4h-13z"/>
    <path fill="#31959A" d="M555 124h11v2h-11z"/>
    <path fill="#35AAB0" d="M650 136h13v4h-13z"/>
    <path fill="#31959A" d="M651 137h11v2h-11zm-108-13h8v2h-8z"/>
    <path fill="#35AAB0" d="M638 136h10v4h-10z"/>
    <path fill="#31959A" d="M639 137h8v2h-8z"/>
    <path fill="#6B7280" d="M544 131h21v3h-21zm64-8h21v3h-21z"/>
    <path fill="#6B7280" d="M608 123h21v3h-21zm30 1h14v3h-14zm0 6h7v3h-7zm-30 24h21v3h-21zm-66-1h25v3h-25zm0 6h25v3h-25zm0 6h25v3h-25z"/>
  </g>
  <path fill="url(#r)" d="M355 655.5h111v53H355z"/>
  <g filter="url(#s)">
    <rect width="129" height="78" x="467" y="643" fill="#374151" stroke="#000" stroke-width="2" rx="1"/>
    <path fill="#50C3C9" d="M468 644h127v6H468z"/>
    <path fill="#4B5563" d="M469 651h29v49h-29zm32 0h29v62h-29zm32 0h29v27h-29zm0 30h29v27h-29zm0 30h29v9h-29zm32-60h29v47h-29z"/>
    <path fill="#35AAB0" d="M469 645h4v4h-4zm5 0h23v4h-23z"/>
    <path stroke="#EAB308" d="m540 672 4.666-5.599a.5.5 0 0 1 .72-.05l4.677 4.251a.5.5 0 0 0 .757-.099L555 664"/>
    <path stroke="#16A34A" d="m540 669 4.716 2.83a.502.502 0 0 0 .552-.025l4.886-3.554a.501.501 0 0 1 .648.051L555 672.5"/>
    <path stroke="#2563EB" d="m540 662 4.842.968a.493.493 0 0 0 .305-.035l5.201-2.364a.502.502 0 0 1 .315-.033l4.337.964"/>
    <path fill="#22C55E" d="M591 683.5a10.496 10.496 0 0 0-5.25-9.093l-3.254 5.635a3.996 3.996 0 0 1 1.997 3.458H591Z"/>
    <path fill="#3B82F6" d="M591 683.5a10.502 10.502 0 0 1-14.518 9.701 10.496 10.496 0 0 1-5.075-4.451l5.635-3.254a3.99 3.99 0 0 0 6.625.434 3.985 3.985 0 0 0 .826-2.43H591Z"/>
    <path fill="#EAB308" d="M571.407 688.75a10.497 10.497 0 0 1 7.722-15.66 10.497 10.497 0 0 1 6.621 1.317l-3.254 5.635a3.992 3.992 0 0 0-5.454 5.454l-5.635 3.254Z"/>
    <path fill="#6B7280" d="M512 693.6h7v7h-7zm0 8.4h7v1.4h-7z"/>
    <path fill="#BC3838" d="M515.5 688a10.505 10.505 0 0 1 9.424 5.869 10.497 10.497 0 0 1-1.112 11.046 10.503 10.503 0 0 1-10.403 3.875 10.503 10.503 0 0 1-8.066-7.629l2.982-.781a7.412 7.412 0 0 0 5.698 5.389 7.416 7.416 0 0 0 5.398-13.565 7.414 7.414 0 0 0-3.921-1.122V688Z"/>
    <path fill="#6B7280" d="M505.372 701.271a10.512 10.512 0 0 1 1.8-9.165 10.494 10.494 0 0 1 8.389-4.106l-.018 3.082a7.428 7.428 0 0 0-5.927 2.901 7.426 7.426 0 0 0-1.271 6.475l-2.973.813ZM481 673h5v4h-5zm-1 5h7v1.4h-7z"/>
    <path fill="#EAB308" d="M473 678.5a10.499 10.499 0 0 1 14.675-9.634l-1.226 2.828a7.412 7.412 0 0 0-7.02.605 7.424 7.424 0 0 0-3.347 6.201H473Z"/>
    <path fill="#6B7280" d="M487.029 668.611a10.497 10.497 0 0 1 6.971 9.883l-3.082.002a7.418 7.418 0 0 0-4.925-6.982l1.036-2.903Z"/>
    <path fill="#2563EB" d="M505.75 675.125h3.5v7h-3.5z"/>
    <path fill="#6B7280" d="M504 662h.875v20.125H504z"/>
    <path fill="#16A34A" d="M510.125 665.5h3.5v16.625h-3.5z"/>
    <path fill="#35AAB0" d="M514.5 673.375h3.5v8.75h-3.5z"/>
    <path fill="#BC3838" d="M518.875 669h3.5v13.125h-3.5z"/>
    <path fill="#EAB308" d="M523.25 676h3.5v6.125h-3.5z"/>
    <path fill="#6B7280" d="M527.625 682v.875H504V682h23.625ZM536 658h.875v17.233H536z"/>
    <path fill="#6B7280" d="M559.625 675.126v.749H536v-.749h23.625Zm-32-19.126v.875H504V656h23.625Z"/>
    <circle cx="519.5" cy="656.5" r="1.5" fill="#74D4D9"/>
    <path fill="#6B7280" d="M559 691v1h-24v-1h24Z"/>
    <circle cx="550.5" cy="691.5" r="1.5" fill="#74D4D9"/>
    <path fill="#6B7280" d="M590.5 660a1.5 1.5 0 0 1 0 3h-4a1.5 1.5 0 0 1 0-3h4Z"/>
    <circle cx="590.5" cy="661.5" r="1.5" fill="#74D4D9"/>
    <path fill="#6B7280" d="M590.5 654a1.5 1.5 0 0 1 0 3h-4a1.5 1.5 0 0 1 0-3h4Z"/>
    <circle cx="590.5" cy="655.5" r="1.5" fill="#74D4D9"/>
    <path fill="#6B7280" d="M559 697v1h-24v-1h24Z"/>
    <circle cx="540.5" cy="697.5" r="1.5" fill="#74D4D9"/>
    <path fill="#6B7280" d="M559 703v1h-24v-1h24Z"/>
    <circle cx="545.5" cy="703.5" r="1.5" fill="#74D4D9"/>
    <path fill="#35AAB0" d="M471 653h10v4h-10zm12 0h13v4h-13z"/>
    <path fill="#31959A" d="M484 654h11v2h-11z"/>
    <path fill="#35AAB0" d="M579 666h13v4h-13z"/>
    <path fill="#31959A" d="M580 667h11v2h-11zm-108-13h8v2h-8z"/>
    <path fill="#35AAB0" d="M567 666h10v4h-10z"/>
    <path fill="#31959A" d="M568 667h8v2h-8z"/>
    <path fill="#6B7280" d="M473 661h21v3h-21zm64-8h21v3h-21z"/>
    <path fill="#6B7280" d="M537 653h21v3h-21zm30 1h14v3h-14zm0 6h7v3h-7zm-30 24h21v3h-21zm-66-1h25v3h-25zm0 6h25v3h-25zm0 6h25v3h-25z"/>
  </g>
  <defs>
    <pattern id="c" width="1" height="1" patternContentUnits="objectBoundingBox">
      <use xlink:href="#t" transform="matrix(.00054 0 0 .00046 -.005 0)"/>
    </pattern>
    <pattern id="e" width="1" height="1" patternContentUnits="objectBoundingBox">
      <use xlink:href="#t" transform="matrix(.00054 0 0 .00046 -.005 0)"/>
    </pattern>
    <pattern id="g" width="1" height="1" patternContentUnits="objectBoundingBox">
      <use xlink:href="#t" transform="matrix(.00054 0 0 .00046 -.005 0)"/>
    </pattern>
    <pattern id="i" width="1" height="1" patternContentUnits="objectBoundingBox">
      <use xlink:href="#t" transform="matrix(.00054 0 0 .00046 -.005 0)"/>
    </pattern>
    <pattern id="j" width="1" height="1" patternContentUnits="objectBoundingBox">
      <use xlink:href="#u" transform="matrix(.00195 0 0 .00197 0 -.004)"/>
    </pattern>
    <pattern id="l" width="1" height="1" patternContentUnits="objectBoundingBox">
      <use xlink:href="#t" transform="matrix(.00017 0 0 .00046 .337 0)"/>
    </pattern>
    <pattern id="n" width="1" height="1" patternContentUnits="objectBoundingBox">
      <use xlink:href="#v" transform="scale(.00195)"/>
    </pattern>
    <pattern id="o" width="1" height="1" patternContentUnits="objectBoundingBox">
      <use xlink:href="#t" transform="matrix(.00017 0 0 .00046 .337 0)"/>
    </pattern>
    <pattern id="r" width="1" height="1" patternContentUnits="objectBoundingBox">
      <use xlink:href="#t" transform="matrix(.00022 0 0 .00046 .293 0)"/>
    </pattern>
    <filter id="a" width="826" height="636" x="46" y="54" color-interpolation-filters="sRGB" filterUnits="userSpaceOnUse">
      <feFlood flood-opacity="0" result="BackgroundImageFix"/>
      <feColorMatrix in="SourceAlpha" result="hardAlpha" values="0 0 0 0 0 0 0 0 0 0 0 0 0 0 0 0 0 0 127 0"/>
      <feOffset dy="4"/>
      <feGaussianBlur stdDeviation="2"/>
      <feComposite in2="hardAlpha" operator="out"/>
      <feColorMatrix values="0 0 0 0 0 0 0 0 0 0 0 0 0 0 0 0 0 0 0.25 0"/>
      <feBlend in2="BackgroundImageFix" result="effect1_dropShadow_1075_8533"/>
      <feBlend in="SourceGraphic" in2="effect1_dropShadow_1075_8533" result="shape"/>
    </filter>
    <filter id="k" width="149" height="61" x="606" y="216" color-interpolation-filters="sRGB" filterUnits="userSpaceOnUse">
      <feFlood flood-opacity="0" result="BackgroundImageFix"/>
      <feColorMatrix in="SourceAlpha" result="hardAlpha" values="0 0 0 0 0 0 0 0 0 0 0 0 0 0 0 0 0 0 127 0"/>
      <feOffset dy="4"/>
      <feGaussianBlur stdDeviation="2"/>
      <feComposite in2="hardAlpha" operator="out"/>
      <feColorMatrix values="0 0 0 0 0 0 0 0 0 0 0 0 0 0 0 0 0 0 0.25 0"/>
      <feBlend in2="BackgroundImageFix" result="effect1_dropShadow_1075_8533"/>
      <feBlend in="SourceGraphic" in2="effect1_dropShadow_1075_8533" result="shape"/>
    </filter>
    <filter id="m" width="280" height="202" x="90" y="54" color-interpolation-filters="sRGB" filterUnits="userSpaceOnUse">
      <feFlood flood-opacity="0" result="BackgroundImageFix"/>
      <feColorMatrix in="SourceAlpha" result="hardAlpha" values="0 0 0 0 0 0 0 0 0 0 0 0 0 0 0 0 0 0 127 0"/>
      <feOffset dy="4"/>
      <feGaussianBlur stdDeviation="2"/>
      <feComposite in2="hardAlpha" operator="out"/>
      <feColorMatrix values="0 0 0 0 0 0 0 0 0 0 0 0 0 0 0 0 0 0 0.25 0"/>
      <feBlend in2="BackgroundImageFix" result="effect1_dropShadow_1075_8533"/>
      <feBlend in="SourceGraphic" in2="effect1_dropShadow_1075_8533" result="shape"/>
    </filter>
    <filter id="p" width="139" height="88" x="295" y="112" color-interpolation-filters="sRGB" filterUnits="userSpaceOnUse">
      <feFlood flood-opacity="0" result="BackgroundImageFix"/>
      <feColorMatrix in="SourceAlpha" result="hardAlpha" values="0 0 0 0 0 0 0 0 0 0 0 0 0 0 0 0 0 0 127 0"/>
      <feOffset dy="4"/>
      <feGaussianBlur stdDeviation="2"/>
      <feComposite in2="hardAlpha" operator="out"/>
      <feColorMatrix values="0 0 0 0 0 0 0 0 0 0 0 0 0 0 0 0 0 0 0.25 0"/>
      <feBlend in2="BackgroundImageFix" result="effect1_dropShadow_1075_8533"/>
      <feBlend in="SourceGraphic" in2="effect1_dropShadow_1075_8533" result="shape"/>
    </filter>
    <filter id="q" width="139" height="88" x="533" y="112" color-interpolation-filters="sRGB" filterUnits="userSpaceOnUse">
      <feFlood flood-opacity="0" result="BackgroundImageFix"/>
      <feColorMatrix in="SourceAlpha" result="hardAlpha" values="0 0 0 0 0 0 0 0 0 0 0 0 0 0 0 0 0 0 127 0"/>
      <feOffset dy="4"/>
      <feGaussianBlur stdDeviation="2"/>
      <feComposite in2="hardAlpha" operator="out"/>
      <feColorMatrix values="0 0 0 0 0 0 0 0 0 0 0 0 0 0 0 0 0 0 0.25 0"/>
      <feBlend in2="BackgroundImageFix" result="effect1_dropShadow_1075_8533"/>
      <feBlend in="SourceGraphic" in2="effect1_dropShadow_1075_8533" result="shape"/>
    </filter>
    <filter id="s" width="139" height="88" x="462" y="642" color-interpolation-filters="sRGB" filterUnits="userSpaceOnUse">
      <feFlood flood-opacity="0" result="BackgroundImageFix"/>
      <feColorMatrix in="SourceAlpha" result="hardAlpha" values="0 0 0 0 0 0 0 0 0 0 0 0 0 0 0 0 0 0 127 0"/>
      <feOffset dy="4"/>
      <feGaussianBlur stdDeviation="2"/>
      <feComposite in2="hardAlpha" operator="out"/>
      <feColorMatrix values="0 0 0 0 0 0 0 0 0 0 0 0 0 0 0 0 0 0 0.25 0"/>
      <feBlend in2="BackgroundImageFix" result="effect1_dropShadow_1075_8533"/>
      <feBlend in="SourceGraphic" in2="effect1_dropShadow_1075_8533" result="shape"/>
    </filter>
    <clipPath id="b">
      <path fill="#fff" d="M0 0h64v62H0z" transform="translate(182.5 513.781)"/>
    </clipPath>
    <clipPath id="d">
      <path fill="#fff" d="M0 0h64v62H0z" transform="translate(360.168 513.781)"/>
    </clipPath>
    <clipPath id="f">
      <path fill="#fff" d="M0 0h64v62H0z" transform="translate(537.832 513.781)"/>
    </clipPath>
    <clipPath id="h">
      <path fill="#fff" d="M0 0h64v62H0z" transform="translate(715.5 513.781)"/>
    </clipPath>
  </defs>
</svg>
