<svg width="100%" height="100%" viewBox="0 0 88 80" fill="none" xmlns="http://www.w3.org/2000/svg">
<path d="M3.5196 24.692L3.5402 66.8586L36.2937 66.886C36.9455 66.886 38.0158 67.7299 38.2353 68.2856C38.4549 68.8413 37.3846 70.433 36.6367 70.4399L15.1761 70.5016L15.2859 76.0109C15.2996 76.5598 14.4146 77.63 13.8931 77.7947C13.2688 77.9868 11.9035 76.8822 11.8967 76.1961L11.8143 70.5085L4.54872 70.4742C1.52996 70.4605 0 68.5258 0 65.6511L0.013735 4.03416C0.013735 1.98278 1.99652 0.0137141 4.10279 0.0137141L56.931 0C59.5107 0 61.3082 2.13371 61.3013 4.54185L61.2602 23.0043C61.2602 23.6149 60.1556 24.7607 59.6067 24.7812C58.9412 24.8087 57.7955 23.7453 57.7955 22.8945V3.62251L3.58136 3.58819L3.46474 21.0764L48.9656 21.1038C49.5419 21.1038 50.7975 22.1947 50.7563 22.7642C50.7151 23.3336 50.0908 24.2392 49.4802 24.7469L3.5059 24.692H3.5196Z" fill="currentColor"/>
<path d="M48.6516 14.3041L35.1769 14.263C34.5251 14.263 33.4343 13.3848 33.3039 12.8359C33.1461 12.1773 34.2782 10.6885 35.0672 10.6953L49.2965 10.7571C49.9826 10.7571 50.7853 12.2939 50.6137 12.8016C50.4422 13.3093 49.3651 14.3041 48.6584 14.3041H48.6516Z" fill="currentColor"/>
<path d="M22.2189 14.2629H12.552C11.962 14.2629 10.878 13.3916 10.7545 12.829C10.6104 12.1566 11.763 10.7364 12.4903 10.7364L21.8896 10.709C22.5071 10.709 23.6734 11.7381 23.8312 12.3213C23.989 12.9044 22.8981 14.2629 22.2121 14.2629H22.2189Z" fill="currentColor"/>
<path d="M22.1407 58.213L12.6111 58.2678C11.9319 58.2678 10.7999 57.2936 10.7175 56.7173C10.6146 56.0243 11.7398 54.7139 12.4876 54.7139L21.9281 54.6934C22.573 54.6934 23.7188 55.5784 23.8834 56.1616C24.0481 56.7447 22.9092 58.213 22.1476 58.213H22.1407Z" fill="currentColor"/>
<path d="M30.9678 36.4855C32.169 36.4855 33.1427 35.5118 33.1427 34.3106C33.1427 33.1095 32.169 32.1357 30.9678 32.1357C29.7667 32.1357 28.793 33.1095 28.793 34.3106C28.793 35.5118 29.7667 36.4855 30.9678 36.4855Z" fill="currentColor"/>
<path d="M13.1075 36.465C14.3125 36.465 15.2892 35.4882 15.2892 34.2833C15.2892 33.0784 14.3125 32.1016 13.1075 32.1016C11.9026 32.1016 10.9258 33.0784 10.9258 34.2833C10.9258 35.4882 11.9026 36.465 13.1075 36.465Z" fill="currentColor"/>
<path d="M21.2989 36.4162C22.5039 36.4162 23.4807 35.4394 23.4807 34.2345C23.4807 33.0295 22.5039 32.0527 21.2989 32.0527C20.094 32.0527 19.1172 33.0295 19.1172 34.2345C19.1172 35.4394 20.094 36.4162 21.2989 36.4162Z" fill="currentColor"/>
<path d="M87.6372 53.6033C87.5206 65.3284 77.3117 76.0175 66.1972 79.5165C60.3792 77.8905 55.0415 73.7397 51.2201 69.3282C46.39 63.7504 44.668 57.2944 44.7572 50.1248L44.8944 39.0172C44.9081 37.94 46.5135 36.9727 47.6662 36.6776C54.2868 35.0105 60.0568 31.9848 66.1903 28.8906C72.4474 32.0946 78.3271 34.935 84.9272 36.6502C86.3954 37.0344 87.7882 38.0498 87.7745 39.6415L87.6304 53.6033H87.6372ZM84.2411 53.0201L84.1519 40.1629C77.4832 38.1939 72.0358 35.7446 66.2452 32.7533L48.2493 40.2384L48.3454 53.5827C48.414 63.1741 56.9831 72.4019 66.3276 76.0861C75.672 71.9216 84.3097 63.3113 84.2411 53.0132V53.0201Z" fill="currentColor"/>
<path d="M73.054 65.3074L60.0254 65.424C59.1472 65.4309 57.3908 64.2783 57.377 63.4344L57.2467 54.5565C57.2192 52.5806 58.1386 51.0781 59.7097 49.9598C59.2706 45.7198 61.6651 41.7337 66.056 41.7062C70.0421 41.6788 73.3627 44.9994 72.6012 49.6579L75.2015 52.2375L75.3455 62.8032C75.3592 63.6196 74.0077 65.3074 73.0609 65.3142L73.054 65.3074ZM68.9924 50.3646C70.049 49.6442 69.6168 46.7146 68.5945 45.7335C67.4625 44.6426 65.3562 44.4437 64.1624 45.4522C63.0647 46.3853 62.7628 48.2446 62.9137 50.2959L68.9924 50.3646ZM60.4027 53.3421V62.2338H72.0523V53.3421H60.4027Z" fill="currentColor"/>
</svg>
