<svg width="100%" height="100%" viewBox="0 0 76 80" fill="none" xmlns="http://www.w3.org/2000/svg">
<path d="M76.0053 61.6931C76.0053 71.7647 67.841 79.936 57.7624 79.936C47.6839 79.936 39.5195 71.7716 39.5195 61.6931C39.5195 51.6146 47.6839 43.4502 57.7624 43.4502C67.841 43.4502 76.0053 51.6146 76.0053 61.6931ZM72.3279 61.6931C72.3279 53.6316 65.7896 47.0933 57.7281 47.0933C49.6667 47.0933 43.1283 53.6316 43.1283 61.6931C43.1283 69.7545 49.6667 76.2929 57.7281 76.2929C65.7896 76.2929 72.3279 69.7545 72.3279 61.6931Z" fill="currentColor"/>
<path d="M3.67738 6.09926V71.4347C3.68424 73.0127 5.36516 74.2339 6.69616 74.131L35.0519 74.1036C35.7174 74.4466 36.6367 75.2288 36.7945 75.7708C36.9866 76.4225 35.6899 77.7055 34.9627 77.7055L6.29822 77.6781C1.93474 77.6781 0.0274282 74.1379 0.0274282 70.289L0 7.59492C0 3.9038 1.90732 0 6.31882 0H53.8711C57.3152 0 59.737 3.17656 59.7645 6.24334L59.792 35.7036C59.4283 36.4035 58.804 37.2885 58.3031 37.5698C57.8023 37.8511 56.5331 36.822 56.2243 36.2731L56.1763 6.27078C56.094 4.89862 54.8727 3.61565 53.4114 3.61565L6.76475 3.63623C5.35828 3.63623 4.23312 4.4115 3.68425 6.09926H3.67738Z" fill="currentColor"/>
<path d="M46.2272 24.1849L13.6315 24.2192C13.0071 23.9585 11.9575 22.7373 12.1427 22.1404C12.3279 21.5435 13.3639 20.878 14.1666 20.5898L46.5085 20.6379L48.0384 22.1747C48.4844 22.6206 47.0573 24.082 46.2272 24.1849Z" fill="currentColor"/>
<path d="M37.6564 36.0195H14.0895C13.424 35.8754 12.1891 34.9217 12.1205 34.2905C12.045 33.5358 13.2937 32.4175 14.1993 32.2872L37.3065 32.2666C37.9789 32.6234 38.8433 33.2546 39.1589 33.7485C39.4745 34.2425 38.3699 35.6353 37.6564 36.0195Z" fill="currentColor"/>
<path d="M30.7418 47.6145L13.823 47.6831C13.1507 47.6831 11.8608 46.2904 12.1147 45.7141C12.3685 45.1378 13.3977 44.3351 14.07 44.04L30.4811 44.0675L32.1688 45.2475C32.6628 45.5974 31.4278 47.6145 30.7418 47.6214V47.6145Z" fill="currentColor"/>
<path d="M65.0675 65.2468C65.6644 65.6928 65.6918 67.4697 65.2939 67.8402C64.896 68.2107 63.7091 68.4646 63.2631 68.1421L55.7163 62.7564L55.6133 54.2352C55.6065 53.6521 56.32 52.6024 56.6905 52.2662C57.157 51.8477 59.1329 52.5681 59.1535 53.2884L59.3319 60.9931L65.0744 65.24L65.0675 65.2468Z" fill="currentColor"/>
</svg>
