<svg viewBox="0 0 24 24" fill="none" xmlns="http://www.w3.org/2000/svg">
<path d="M4.50931 20H5.61204C6.44413 20 7.12127 19.299 7.12127 18.4375V17.3333H15.8788V18.4375C15.8788 19.299 16.5559 20 17.388 20H18.4908C19.3229 20 20 19.299 20 18.4375V11.5708C20 10.5948 19.3943 9.76563 18.5521 9.46144L17.6225 6.25104C17.2331 4.90416 16.0589 4 14.7016 4H8.12826C6.72669 4 5.50821 4.98437 5.16924 6.39168L4.4247 9.46875C3.59562 9.78125 3 10.6052 3 11.5698V18.4365C3 19.2979 3.67714 19.999 4.50923 19.999L4.50931 20ZM18.4547 18.4H17.4244V17.3333H17.8389C18.0522 17.3333 18.2585 17.299 18.4547 17.2396V18.4ZM6.66753 6.7792C6.83455 6.08544 7.43523 5.60003 8.12846 5.60003H14.7018C15.3719 5.60003 15.9514 6.04587 16.1446 6.70941L16.9042 9.33336H6.04979L6.66554 6.7792H6.66753ZM4.54555 13.8667V11.5708C4.54555 11.2187 4.82123 10.9333 5.16131 10.9333H17.8368C18.1769 10.9333 18.4526 11.2187 18.4526 11.5708V15.0959C18.4526 15.448 18.1769 15.7334 17.8368 15.7334H5.16131C4.82123 15.7334 4.54555 15.448 4.54555 15.0959V13.8667ZM4.54555 17.2395C4.74175 17.3009 4.94701 17.3332 5.16131 17.3332H5.57585V18.3999H4.54555V17.2395Z" fill="currentColor"/>
<path d="M8 13.5C8 15.5 5 15.5 5 13.5C5 11.5 8 11.5 8 13.5Z" fill="currentColor"/>
<path d="M18 13.5C18 15.5 15 15.5 15 13.5C15 11.5 18 11.5 18 13.5Z" fill="currentColor"/>
</svg>
