<svg width="100%" height="100%" viewBox="0 0 24 24" fill="none" xmlns="http://www.w3.org/2000/svg">
<g clip-path="url(#clip0_5009_2197)">
<path d="M9.25 4.75H11.87C12.77 4.75 13.62 5.11 14.26 5.74C14.89 6.37 15.25 7.23 15.25 8.13V9.63C15.25 9.93 15.37 10.21 15.58 10.43C15.79 10.64 16.08 10.76 16.38 10.76H17.88C18.78 10.76 19.63 11.12 20.27 11.75C20.9 12.38 21.26 13.24 21.26 14.14V16.02" stroke="currentColor" stroke-width="1.5" stroke-linecap="round" stroke-linejoin="round"/>
<path d="M5.5 11.5H13" stroke="currentColor" stroke-width="1.5" stroke-linecap="round" stroke-linejoin="round"/>
<path d="M5.5 8H11.64" stroke="currentColor" stroke-width="1.5" stroke-linecap="round" stroke-linejoin="round"/>
<path d="M5.5 14.8599H11.64" stroke="currentColor" stroke-width="1.5" stroke-linecap="round" stroke-linejoin="round"/>
<path d="M21.2517 13.7498V18.6298C21.2517 19.2498 20.7517 19.7498 20.1317 19.7498H2.88172C2.26172 19.7498 1.76172 19.2498 1.76172 18.6298V5.87977C1.76172 5.25977 2.26172 4.75977 2.88172 4.75977H12.2617C14.6517 4.75977 16.9417 5.70977 18.6217 7.39977C20.3117 9.08977 21.2617 11.3798 21.2617 13.7598L21.2517 13.7498Z" stroke="currentColor" stroke-width="1.5" stroke-linecap="round" stroke-linejoin="round"/>
<path d="M18.3994 15.1602C18.2994 15.0402 18.2294 14.8902 18.2194 14.7202C18.1994 14.5402 18.1194 14.3702 17.9994 14.2402C17.8794 14.1102 17.7094 14.0302 17.5194 14.0202C17.3594 14.0002 17.2094 13.9402 17.0794 13.8402C16.9494 13.7202 16.7694 13.6602 16.5894 13.6602C16.4094 13.6602 16.2294 13.7202 16.0994 13.8402C15.9794 13.9402 15.8294 14.0102 15.6694 14.0202C15.4894 14.0402 15.3194 14.1202 15.1894 14.2402C15.0594 14.3602 14.9794 14.5302 14.9694 14.7202C14.9494 14.8802 14.8894 15.0302 14.7894 15.1602C14.6694 15.2902 14.6094 15.4702 14.6094 15.6502C14.6094 15.8302 14.6694 16.0102 14.7894 16.1402C14.8894 16.2602 14.9594 16.4102 14.9694 16.5702C14.9894 16.7502 15.0694 16.9202 15.1894 17.0502C15.3094 17.1802 15.4794 17.2602 15.6694 17.2702C15.8294 17.2902 15.9794 17.3502 16.0994 17.4502C16.2294 17.5702 16.4094 17.6302 16.5894 17.6302C16.7694 17.6302 16.9494 17.5702 17.0794 17.4502C17.1994 17.3502 17.3494 17.2802 17.5194 17.2702C17.6994 17.2502 17.8694 17.1702 17.9994 17.0502C18.1294 16.9302 18.2094 16.7602 18.2194 16.5702C18.2394 16.4102 18.2994 16.2602 18.3994 16.1402C18.5194 16.0102 18.5794 15.8302 18.5794 15.6502C18.5794 15.4702 18.5194 15.2902 18.3994 15.1602Z" stroke="currentColor" stroke-width="1.5" stroke-linecap="round" stroke-linejoin="round"/>
</g>
<defs>
<clipPath id="clip0_5009_2197">
<rect width="21" height="16.5" fill="white" transform="translate(1 4)"/>
</clipPath>
</defs>
</svg>
