<svg width="59" height="59" viewBox="0 0 59 59" fill="none" xmlns="http://www.w3.org/2000/svg">
<path d="M49.7812 20.923C51.9546 21.6222 53.4688 23.6964 53.4688 26.0785V36.6139C53.4688 39.4081 51.3856 41.7776 48.6006 42.0048C47.7674 42.0728 46.9318 42.1323 46.0938 42.1832V49.7812L38.7188 42.4062C35.3908 42.4062 32.095 42.2706 28.8368 42.0046C28.1035 41.9447 27.4188 41.7363 26.808 41.4108M49.7812 20.923C49.409 20.8032 49.0175 20.7238 48.6109 20.69C45.3493 20.4193 42.0501 20.2812 38.7187 20.2812C35.3873 20.2812 32.0881 20.4193 28.8266 20.69C26.046 20.9208 23.9688 23.2884 23.9688 26.0785V36.6137C23.9688 38.6721 25.0992 40.5 26.808 41.4108M49.7812 20.923V16.3167C49.7812 12.3307 46.9499 8.87617 42.9971 8.36303C37.9759 7.71119 32.8557 7.375 27.657 7.375C22.4577 7.375 17.337 7.71126 12.3154 8.36322C8.36258 8.87641 5.53125 12.331 5.53125 16.3169V31.6207C5.53125 35.6066 8.3626 39.0612 12.3154 39.5743C13.7337 39.7585 15.16 39.9174 16.5938 40.0507V51.625L26.808 41.4108" stroke="#C4F3F5" stroke-width="3.6875" stroke-linecap="round" stroke-linejoin="round"/>
</svg>
