<svg width="100%" height="100%" viewBox="0 0 350 402" fill="none" xmlns="http://www.w3.org/2000/svg">
<g clip-path="url(#clip0_4234_2380)">
<path d="M346.559 97.9807L178.437 0.921873C177.372 0.30994 176.188 0 174.996 0C173.804 0 172.62 0.30994 171.555 0.921873L3.44127 97.9807C1.31134 99.2126 0 101.485 0 103.941V298.059C0 300.515 1.31134 302.787 3.44127 304.019L171.555 401.078C172.62 401.69 173.804 402 174.996 402C176.188 402 177.372 401.69 178.437 401.078L346.551 304.019C348.681 302.787 349.992 300.515 349.992 298.059V103.941C349.992 101.485 348.681 99.2126 346.551 97.9807H346.559ZM223.619 65.5801C223.619 62.1946 226.472 59.3336 229.866 59.3336H240.261L296.338 91.7104H229.866C226.48 91.7104 223.619 88.8494 223.619 85.4639V65.5801ZM174.996 21.6561L220.75 48.0725C214.432 51.3785 210.092 57.9905 210.092 65.5801V68.9656C177.166 70.9445 162.185 87.2997 150.009 100.603C141.235 110.18 134.011 118.055 121.716 120.32V116.069C121.716 105.205 112.823 96.3118 101.951 96.3118H45.6902L174.996 21.6561ZM19.678 111.332L22.2848 109.822H101.943C105.328 109.822 108.189 112.683 108.189 116.069V135.952C108.189 139.338 105.336 142.199 101.943 142.199H20.9973C20.5443 142.199 20.1072 142.135 19.678 142.04V111.332ZM102.109 338.256L69.485 319.421V269.449C69.485 268.964 69.938 268.503 70.4228 268.503H101.172C101.656 268.503 102.109 268.964 102.109 269.449V338.256ZM190.891 371.165L174.996 380.344L158.259 370.68V196.414C158.259 195.93 158.712 195.477 159.196 195.477H189.937C190.422 195.477 190.883 195.93 190.883 196.414V371.173L190.891 371.165ZM280.793 319.262L248.169 338.097V246.696C248.169 246.219 248.622 245.759 249.106 245.759H279.855C280.332 245.759 280.793 246.219 280.793 246.696V319.262ZM330.314 290.668L294.312 311.458V246.696C294.312 238.749 287.803 232.248 279.847 232.248H249.098C241.143 232.248 234.634 238.749 234.634 246.696V345.901L204.41 363.353V196.407C204.41 188.459 197.893 181.959 189.937 181.959H159.196C151.241 181.959 144.732 188.459 144.732 196.407V362.868L115.62 346.06V269.449C115.62 261.502 109.111 254.993 101.156 254.993H70.4069C62.4515 254.993 55.9425 261.502 55.9425 269.449V311.609L19.6701 290.668V155.661C20.1072 155.693 20.5443 155.709 20.9893 155.709H101.943C112.815 155.709 121.708 146.816 121.708 135.952V134.196C161.008 134.474 174.042 143.081 187.807 152.181C201.882 161.503 216.442 171.135 255.735 171.135V174.321C255.735 185.185 264.636 194.078 275.508 194.078H330.306V290.668H330.314ZM330.314 180.568H275.516C272.13 180.568 269.261 177.707 269.261 174.321V154.437C269.261 151.052 272.122 148.191 275.516 148.191H330.314V180.568ZM330.314 134.681H275.516C264.644 134.681 255.743 143.574 255.743 154.437V157.624C220.519 157.624 208.264 149.51 195.278 140.919C183.85 133.354 172.103 125.597 147.402 122.307C151.98 118.453 156.009 114.058 159.983 109.719C163.21 106.19 166.476 102.638 170.092 99.3079C179.399 90.6932 189.786 85.909 200.881 83.652C203.734 83.1195 206.81 82.7381 210.092 82.5155V85.4639C210.092 96.3277 218.985 105.221 229.858 105.221H310.811C313.203 105.221 315.5 104.784 317.622 103.997L330.322 111.332V134.681H330.314Z" fill="currentColor"/>
</g>
<defs>
<clipPath id="clip0_4234_2380">
<rect width="100%" height="100%" fill="none"/>
</clipPath>
</defs>
</svg>
