<svg width="100%" height="100%" viewBox="0 0 29 35" fill="none" xmlns="http://www.w3.org/2000/svg">
<path d="M3.78551 8.89378C3.78551 6.83581 4.11171 5.29497 4.76411 4.27129C5.41651 3.2423 6.39776 2.72781 7.70786 2.72781C9.02327 2.72781 10.0072 3.23965 10.6596 4.26333C11.312 5.28702 11.6382 6.8305 11.6382 8.89378C11.6382 10.9518 11.312 12.4926 10.6596 13.5163C10.0072 14.54 9.02327 15.0518 7.70786 15.0518C6.39776 15.0518 5.41651 14.54 4.76411 13.5163C4.11171 12.4873 3.78551 10.9465 3.78551 8.89378ZM6.52241 12.0683C6.7717 12.7313 7.16685 13.0628 7.70786 13.0628C8.25418 13.0628 8.65199 12.7313 8.90128 12.0683C9.15057 11.4053 9.27522 10.3471 9.27522 8.89378C9.27522 8.34216 9.25665 7.84888 9.21952 7.41395L6.44284 11.8375C6.46936 11.9224 6.49588 11.9993 6.52241 12.0683ZM7.70786 4.71683C7.16685 4.71683 6.7717 5.04834 6.52241 5.71134C6.27311 6.37435 6.14847 7.43517 6.14847 8.89378C6.14847 9.34463 6.15908 9.7557 6.18029 10.127L8.91719 5.75908C8.91189 5.74317 8.90658 5.72726 8.90128 5.71134C8.65199 5.04834 8.25418 4.71683 7.70786 4.71683Z" fill="currentColor"/>
<path d="M17.0185 12.7525H19.644V5.04303L17.2015 5.6477V3.53137L19.6599 2.94262H21.9274V12.7525H24.5529V14.8211H17.0185V12.7525Z" fill="currentColor"/>
<path d="M4.30265 28.1103H6.92817V20.4009L4.48564 21.0055V18.8892L6.94408 18.3005H9.21157V28.1103H11.8371V30.1789H4.30265V28.1103Z" fill="currentColor"/>
<path d="M16.5013 24.2516C16.5013 22.1936 16.8275 20.6528 17.4799 19.6291C18.1323 18.6001 19.1136 18.0856 20.4237 18.0856C21.7391 18.0856 22.723 18.5975 23.3754 19.6212C24.0278 20.6449 24.354 22.1883 24.354 24.2516C24.354 26.3096 24.0278 27.8504 23.3754 28.8741C22.723 29.8978 21.7391 30.4096 20.4237 30.4096C19.1136 30.4096 18.1323 29.8978 17.4799 28.8741C16.8275 27.8451 16.5013 26.3043 16.5013 24.2516ZM19.2382 27.4261C19.4875 28.0891 19.8827 28.4206 20.4237 28.4206C20.97 28.4206 21.3678 28.0891 21.6171 27.4261C21.8664 26.7631 21.991 25.7049 21.991 24.2516C21.991 23.7 21.9725 23.2067 21.9353 22.7718L19.1587 27.1954C19.1852 27.2802 19.2117 27.3572 19.2382 27.4261ZM20.4237 20.0747C19.8827 20.0747 19.4875 20.4062 19.2382 21.0692C18.9889 21.7322 18.8643 22.793 18.8643 24.2516C18.8643 24.7025 18.8749 25.1135 18.8961 25.4848L21.633 21.1169C21.6277 21.101 21.6224 21.0851 21.6171 21.0692C21.3678 20.4062 20.97 20.0747 20.4237 20.0747Z" fill="currentColor"/>
</svg>
