<svg fill="none" height="26" viewBox="0 0 22 26" width="22" xmlns="http://www.w3.org/2000/svg"><path d="m0 0h22v26h-22z"/><g fill="currentColor"><path d="m5.50215 12.132c-.88733 0-1.54733-.33-1.98-.99-.42533-.6673-.638-1.661-.638-2.981s.21267-2.31.638-2.97c.43267-.66733 1.09267-1.001 1.98-1.001s1.54367.33367 1.969 1.001c.43267.66.649 1.65.649 2.97s-.21633 2.3137-.649 2.981c-.42533.66-1.08167.99-1.969.99zm0-.572c.66 0 1.144-.2493 1.452-.748.308-.506.462-1.21733.462-2.134v-1.034c0-.90933-.154-1.617-.462-2.123s-.792-.759-1.452-.759-1.144.253-1.452.759-.462 1.21367-.462 2.123v1.034c0 .91667.154 1.628.462 2.134.308.4987.792.748 1.452.748zm0-2.893c-.19067 0-.32633-.04033-.407-.121s-.121-.17967-.121-.297v-.176c0-.11733.04033-.21633.121-.297s.21633-.121.407-.121.32633.04033.407.121.121.17967.121.297v.176c0 .11733-.04033.21633-.121.297s-.21633.121-.407.121z"/><path d="m14.1921 12v-.572h2.288v-6.622h-.055l-2.112 1.881-.374-.418 2.189-1.947h1.001v7.106h2.145v.572z"/><path d="m3.19215 23v-.572h2.288v-6.622h-.055l-2.112 1.881-.374-.418 2.189-1.947h1.001v7.106h2.145v.572z"/><path d="m16.5021 23.132c-.8873 0-1.5473-.33-1.98-.99-.4253-.6673-.638-1.661-.638-2.981s.2127-2.31.638-2.97c.4327-.6673 1.0927-1.001 1.98-1.001.8874 0 1.5437.3337 1.969 1.001.4327.66.649 1.65.649 2.97s-.2163 2.3137-.649 2.981c-.4253.66-1.0816.99-1.969.99zm0-.572c.66 0 1.144-.2493 1.452-.748.308-.506.462-1.2173.462-2.134v-1.034c0-.9093-.154-1.617-.462-2.123s-.792-.759-1.452-.759-1.144.253-1.452.759-.462 1.2137-.462 2.123v1.034c0 .9167.154 1.628.462 2.134.308.4987.792.748 1.452.748zm0-2.893c-.1906 0-.3263-.0403-.407-.121-.0806-.0807-.121-.1797-.121-.297v-.176c0-.1173.0404-.2163.121-.297.0807-.0807.2164-.121.407-.121.1907 0 .3264.0403.407.121.0807.0807.121.1797.121.297v.176c0 .1173-.0403.2163-.121.297-.0806.0807-.2163.121-.407.121z"/></g></svg>