<svg version="1.1" xmlns="http://www.w3.org/2000/svg" xmlns:xlink="http://www.w3.org/1999/xlink" x="0px" y="0px"
	 viewBox="0 0 24 24" xml:space="preserve">
<path fill="currentColor" d="M9.6,2C8.1,5.4,4.7,2.6,2.9,4.6C3.3,1.1,6.1,3.9,9.6,2L9.6,2z M5.8,5.1c0.4,0,0.7,0.4,0.7,0.7v5.4L8.2,12v-1.9
	c0-0.2,0.1-0.4,0.3-0.6c0.2-0.1,0.5-0.1,0.7,0l5.3,2.6v-2c0-0.2,0.1-0.4,0.3-0.6c0.2-0.1,0.5-0.1,0.7,0l6.2,3
	c0.2,0.1,0.4,0.3,0.4,0.6v8.3c0,0.3-0.3,0.7-0.7,0.7H2.7C2.3,22,2,21.7,2,21.4V5.7c0-0.3,0.3-0.7,0.7-0.7L5.8,5.1z M5.1,6.4H3.3
	v14.3h17.3v-7.2l-4.9-2.4v2c0,0.2-0.1,0.4-0.3,0.6c-0.2,0.1-0.4,0.1-0.6,0l-5.3-2.6v2c0,0.2-0.1,0.4-0.3,0.6c-0.2,0.1-0.5,0.1-0.7,0
	L5.5,12c-0.2-0.1-0.4-0.3-0.4-0.6L5.1,6.4L5.1,6.4z M18.9,15.3c0.3,0,0.7,0.3,0.7,0.7v2.2c0,0.3-0.3,0.7-0.7,0.7h-3.1
	c-0.3,0-0.7-0.3-0.7-0.7v-2.2c0-0.3,0.3-0.7,0.7-0.7H18.9z M13.6,15.3c0.3,0,0.7,0.3,0.7,0.7v2.2c0,0.3-0.3,0.7-0.7,0.7h-3.1
	c-0.3,0-0.7-0.3-0.7-0.7v-2.2c0-0.3,0.3-0.7,0.7-0.7H13.6z M8.2,15.3c0.3,0,0.7,0.3,0.7,0.7v2.2c0,0.3-0.3,0.7-0.7,0.7H5.1
	c-0.3,0-0.7-0.3-0.7-0.7v-2.2c0-0.3,0.3-0.7,0.7-0.7H8.2z M18.2,16.6h-1.8v0.9h1.8V16.6z M12.9,16.6h-1.8v0.9h1.8V16.6z M7.6,16.6
	H5.8v0.9h1.8V16.6z"/>
</svg>
