<svg width="20" height="20" viewBox="0 0 20 20" fill="none" xmlns="http://www.w3.org/2000/svg"><path fill="currentColor" d="M1.59385 0.00234319C0.712771 0.00234319 0.00377529 0.711833 0.00377529 1.5929C0.00246514 4.50292 0.000461073 7.41546 0 10.3255C1.88965 10.3367 3.78181 10.3802 5.66642 10.2453C8.29428 10.0057 10.6072 8.59451 13.0285 7.66784C15.231 6.73638 17.5964 6.17101 19.9975 6.2214L19.9972 1.59056C19.9982 0.709238 19.288 0 18.4072 0L1.59385 0.00234319ZM19.999 9.37235C19.7332 9.37661 19.4671 9.38387 19.2013 9.39475C16.2686 9.38346 13.6684 10.8999 11.0229 11.9621C13.0675 12.7893 15.0416 13.8402 17.2084 14.3277C18.1343 14.4682 19.0658 14.5366 20 14.5566L19.999 9.37235ZM2.0776 13.5472C1.38548 13.5487 0.693371 13.5559 0.00176078 13.5594C0.00236546 15.1759 0.00357496 16.7919 0.00618771 18.4094C0.00711994 19.2908 0.715434 20 1.59626 20H18.4091C19.2901 20 19.9991 19.2905 19.9991 18.4094V17.7095C17.9324 17.696 15.8671 17.381 13.9422 16.6075C10.9641 15.5685 8.18508 13.7227 4.95252 13.5992C3.99561 13.554 3.03718 13.5451 2.07774 13.5473L2.0776 13.5472Z"/></svg>