<!-- fast-food-outline from Ionicons (MIT). Kept at its native 512 viewBox with
     stroke-width 32, which resolves to 1.5 once scaled into the 24px icon box,
     so it matches the Heroicons weight the rest of the set uses. width/height
     are 100% rather than Iconify's 1em so it fills the wrapper the navoption
     shortcode emits, the same way wind-turbine.svg does. -->
<svg xmlns="http://www.w3.org/2000/svg" width="100%" height="100%" viewBox="0 0 512 512" fill="none"><path fill="none" stroke="currentColor" stroke-linecap="round" stroke-miterlimit="10" stroke-width="32" d="M322 416c0 35.35-20.65 64-56 64H134c-35.35 0-56-28.65-56-64m258-80c17.67 0 32 17.91 32 40h0c0 22.09-14.33 40-32 40H64c-17.67 0-32-17.91-32-40h0c0-22.09 14.33-40 32-40"/><path fill="none" stroke="currentColor" stroke-linecap="round" stroke-miterlimit="10" stroke-width="32" d="M344 336H179.31a8 8 0 0 0-5.65 2.34l-26.83 26.83a4 4 0 0 1-5.66 0l-26.83-26.83a8 8 0 0 0-5.65-2.34H56a24 24 0 0 1-24-24h0a24 24 0 0 1 24-24h288a24 24 0 0 1 24 24h0a24 24 0 0 1-24 24ZM64 276v-.22c0-55 45-83.78 100-83.78h72c55 0 100 29 100 84v-.22M241 112l7.44 63.97"/><path fill="none" stroke="currentColor" stroke-linecap="round" stroke-miterlimit="10" stroke-width="32" d="M256 480h139.31a32 32 0 0 0 31.91-29.61L463 112"/><path fill="none" stroke="currentColor" stroke-linecap="round" stroke-linejoin="round" stroke-width="32" d="m368 112l16-64l47-16"/><path fill="none" stroke="currentColor" stroke-linecap="round" stroke-miterlimit="10" stroke-width="32" d="M224 112h256"/></svg>
