<svg width="19" height="19" viewBox="0 0 19 19" fill="none" xmlns="http://www.w3.org/2000/svg">
<path d="M4.32753 7.20174L0.721865 9.15481L4.32753 11.1078M4.32753 7.20174L9.13504 9.7933L13.9425 7.20174M4.32753 7.20174L0.721865 5.24867L9.15384 0.704102L17.5857 5.24867L13.9801 7.20174M13.9613 7.20174L17.5669 9.15481L13.9613 11.1078M13.9613 11.0891L17.5669 13.0421L9.13504 17.5867L0.703125 13.0421L4.30873 11.0891M13.9613 11.0891L9.15384 13.6806L4.34632 11.0891" fill="#ED4E4E"/>
<path d="M4.32753 7.20174L0.721865 9.15481L4.32753 11.1078M4.32753 7.20174L9.13504 9.7933L13.9425 7.20174M4.32753 7.20174L0.721865 5.24867L9.15383 0.704102L17.5857 5.24867L13.9801 7.20174M13.9613 7.20174L17.5669 9.15481L13.9613 11.1078M4.30873 11.0891L0.703125 13.0421L9.13504 17.5867L17.5669 13.0421L13.9613 11.0891L9.15383 13.6806L4.34632 11.0891" stroke="white" stroke-width="1.40845" stroke-linecap="round" stroke-linejoin="round"/>
</svg>
