<svg width="20" height="20" viewBox="0 0 20 20" fill="none" xmlns="http://www.w3.org/2000/svg">
<g clip-path="url(#clip0_933_361)">
<path d="M0 10V8.35296C5.09 8.35296 5.81 7.45282 6.44 6.65802C7.16 5.75788 7.9 5.05884 10.32 5.05884V6.7059C8.56 6.7059 8.28 7.06021 7.81 7.65391C6.79 8.93709 5.5 10 0 10H0Z" fill="currentColor"/>
<path d="M8.6 14.9411C5.7 14.9411 5.13 13.4281 4.72 12.3269C4.25 11.0725 3.85 9.99996 0 9.99996V8.35291C4.67 8.35291 5.67 9.97124 6.34 11.7715C6.72 12.7866 6.91 13.2941 8.6 13.2941V14.9411Z" fill="currentColor"/>
<path d="M16.7801 17.0001H9.90005C8.95005 17.0001 8.18005 16.2627 8.18005 15.353V12.8824C8.18005 11.9727 8.95005 11.2354 9.90005 11.2354H16.7801C17.7301 11.2354 18.5001 11.9727 18.5001 12.8824V15.353C18.5001 16.2627 17.7301 17.0001 16.7801 17.0001ZM16.7801 12.8824H9.90005V15.353H16.7801V12.8824Z" fill="currentColor"/>
<path d="M18.2801 8.76471H11.4001C10.4501 8.76471 9.68005 8.02736 9.68005 7.11765V4.64706C9.68005 3.73735 10.4501 3 11.4001 3H18.2801C19.2301 3 20.0001 3.73735 20.0001 4.64706V7.11765C20.0001 8.02736 19.2301 8.76471 18.2801 8.76471ZM18.2801 4.64706H11.4001V7.11765H18.2801V4.64706Z" fill="currentColor"/>
</g>
<defs>
<clipPath id="clip0_933_361">
<rect width="20" height="14" fill="white" transform="translate(0 3)"/>
</clipPath>
</defs>
</svg>
