<svg>
	<g>
		<defs>
			<rect id="SVGID_1_" x="2" y="5" width="20" height="14"/>
		</defs>
		<clipPath id="SVGID_00000115488762289358135260000002093335360758826652_">
			<use xlink:href="#SVGID_1_"  style="overflow:visible;"/>
		</clipPath>
		<g style="clip-path:url(#SVGID_00000115488762289358135260000002093335360758826652_);">
			<path fill="currentColor" d="M2,12v-1.6c5.1,0,5.8-0.9,6.4-1.7c0.7-0.9,1.5-1.6,3.9-1.6v1.6c-1.8,0-2,0.4-2.5,0.9C8.8,10.9,7.5,12,2,12L2,12z"/>
			<path fill="currentColor" d="M10.6,16.9c-2.9,0-3.5-1.5-3.9-2.6C6.2,13.1,5.8,12,2,12v-1.6c4.7,0,5.7,1.6,6.3,3.4c0.4,1,0.6,1.5,2.3,1.5V16.9z"/>
			<path fill="currentColor" d="M18.8,19h-6.9c-0.9,0-1.7-0.7-1.7-1.6v-2.5c0-0.9,0.8-1.6,1.7-1.6h6.9c1,0,1.7,0.7,1.7,1.6v2.5C20.5,18.3,19.7,19,18.8,19
				z M18.8,14.9h-6.9v2.5h6.9V14.9z"/>
			<path fill="currentColor" d="M20.3,10.8h-6.9c-0.9,0-1.7-0.7-1.7-1.6V6.6c0-0.9,0.8-1.6,1.7-1.6h6.9c1,0,1.7,0.7,1.7,1.6v2.5
				C22,10,21.2,10.8,20.3,10.8z M20.3,6.6h-6.9v2.5h6.9V6.6z"/>
		</g>
	</g>
</svg>