<svg width="19" height="22" viewBox="0 0 19 22" fill="none" xmlns="http://www.w3.org/2000/svg">
<path fill="currentColor" opacity="0.98" fill-rule="evenodd" clip-rule="evenodd" d="M18.9991 5.75876L9.50039 0.5L0.00170898 5.75552V16.2519L9.50039 21.5L18.9991 16.2523V5.75876ZM0.739258 15.7425V12.2324V11.5091V6.2687C0.739259 6.24022 0.747096 6.21223 0.761984 6.18757C0.776871 6.1629 0.798283 6.14241 0.824067 6.12817L9.41528 1.39129C9.44225 1.37644 9.47296 1.36896 9.50406 1.36968C9.53248 1.37029 9.56027 1.37772 9.5849 1.39129L18.1629 6.12817C18.2154 6.15715 18.2526 6.21074 18.2526 6.2687V15.7422C18.2526 15.8001 18.2154 15.8537 18.1629 15.8827L9.5849 20.6206C9.55912 20.6348 9.52987 20.6423 9.50009 20.6423C9.47032 20.6423 9.44107 20.6348 9.41528 20.6206L0.824067 15.883C0.798283 15.8688 0.776871 15.8483 0.761984 15.8236C0.747096 15.799 0.739259 15.771 0.739258 15.7425ZM17.9132 6.36221L9.50009 1.71912L1.08688 6.36224V9.16574H4.5695C5.1307 9.16879 5.60747 9.54735 5.6609 10.0719C6.07399 10.022 6.32811 9.9128 6.5096 9.75358C6.70938 9.57823 6.85069 9.33247 7.01508 9.04657C7.02577 9.02798 7.03656 9.00921 7.04747 8.99029C7.22611 8.6804 7.44434 8.32453 7.84335 8.06252C8.16587 7.85074 8.6407 7.7462 9.19858 7.71988V7.53479C9.19858 6.96413 9.66395 6.50433 10.2604 6.50433L14.5789 6.50439C15.1754 6.50439 15.7082 6.96419 15.7082 7.53486V8.55003C15.7082 9.12073 15.1733 9.58763 14.5768 9.58763H10.2583C9.66181 9.58763 9.19858 9.1207 9.19858 8.55003V8.41826C8.77674 8.44225 8.4509 8.51777 8.26004 8.64308C8.01497 8.80396 7.86178 9.03677 7.69236 9.33062C7.68405 9.34503 7.67569 9.35958 7.66726 9.37424C7.51577 9.63781 7.3423 9.93962 7.06365 10.207C8.64138 10.4465 9.42583 11.0198 10.0521 11.5438C10.8055 12.174 11.4096 12.6756 13.4353 12.69V12.5497C13.4353 11.979 13.9462 11.5025 14.5426 11.5025H17.9132V6.36221ZM14.579 7.21838H10.2605L10.2604 7.21841C10.0591 7.21841 9.8931 7.34217 9.8931 7.53482V8.54996C9.8931 8.74265 10.0569 8.87361 10.2583 8.87361H14.5768C14.7782 8.87361 14.928 8.74265 14.928 8.54996V7.53482C14.928 7.3421 14.7804 7.21838 14.579 7.21838ZM4.5694 9.81482H1.08711V11.5025H4.5694C4.7708 11.5025 4.92044 11.3751 4.92044 11.1824V10.1672C4.92044 9.9745 4.7708 9.81482 4.5694 9.81482ZM9.53929 12.05C8.76903 11.4052 8.08497 10.8326 5.68176 10.7964L5.68166 11.1824C5.68166 11.7531 5.16622 12.2164 4.56974 12.2164H1.08711V15.6486L9.50023 20.2927L17.9133 15.6486V14.5858H14.5428C13.9463 14.5858 13.4354 14.1357 13.4354 13.565V13.3888C11.2419 13.361 10.3183 12.7018 9.56774 12.0738C9.55824 12.0658 9.54876 12.0579 9.53929 12.05ZM17.9135 12.2165H14.543C14.3416 12.2165 14.1819 12.3571 14.1819 12.5497V13.5471C14.1819 13.7398 14.3416 13.8718 14.543 13.8718H17.9135V12.2165Z" fill="white"/>
</svg>
