<svg width="17" height="21" viewBox="0 0 17 21" fill="none" xmlns="http://www.w3.org/2000/svg">
<path d="M11.5739 8.98556C12.5692 9.32359 13.3579 10.056 13.7711 11.0137L14.6725 13.1358H7.94947M2.78516 13.117V12.7602C2.78516 12.6476 2.78515 12.5349 2.84149 12.441L3.06684 11.7837C3.53633 10.3752 4.71943 9.32359 6.18422 9.0419L6.40956 9.00436V2.78834L6.1091 2.48792C5.63962 2.01844 5.37671 1.37993 5.37671 0.722656H11.5927V0.891664C11.5927 1.43626 11.3673 1.96208 10.9917 2.35645L10.5598 2.78834V4.34706" stroke="#3F3F46" stroke-width="1.40845" stroke-linecap="round" stroke-linejoin="round"/>
<path d="M7.69066 18.8637C7.69066 19.2581 8.04747 19.5773 8.46062 19.5773C8.87376 19.5773 9.23056 19.2581 9.23056 18.8637H7.67188H7.69066ZM8.47939 13.1172H7.70944V18.8637H9.26813V13.1172H8.49817H8.47939Z" stroke="#3F3F46" stroke-width="1.40845" stroke-linecap="round" stroke-linejoin="round"/>
<path d="M0.703125 18.3003L16.2336 0.704102" stroke="#3F3F46" stroke-width="1.40845" stroke-linecap="round" stroke-linejoin="round"/>
</svg>
