<svg width="26" height="30" viewBox="0 0 26 30" fill="none" width="100%" height="100%" xmlns="http://www.w3.org/2000/svg">
<path d="M7.80078 4.09961C7.52464 4.09961 7.30078 4.32347 7.30078 4.59961C7.30078 4.87575 7.52464 5.09961 7.80078 5.09961L7.80078 4.59961L7.80078 4.09961ZM17.2543 4.95316C17.4496 4.7579 17.4496 4.44132 17.2543 4.24606L14.0724 1.06408C13.8771 0.868814 13.5605 0.868814 13.3652 1.06408C13.17 1.25934 13.17 1.57592 13.3652 1.77118L16.1937 4.59961L13.3652 7.42804C13.17 7.6233 13.17 7.93988 13.3652 8.13514C13.5605 8.33041 13.8771 8.33041 14.0724 8.13514L17.2543 4.95316ZM7.80078 4.59961L7.80078 5.09961L16.9008 5.09961L16.9008 4.59961L16.9008 4.09961L7.80078 4.09961L7.80078 4.59961Z" fill="currentColor"/>
<path d="M7.80078 24.9004C7.52464 24.9004 7.30078 25.1242 7.30078 25.4004C7.30078 25.6765 7.52464 25.9004 7.80078 25.9004L7.80078 25.4004L7.80078 24.9004ZM17.2543 25.7539C17.4496 25.5587 17.4496 25.2421 17.2543 25.0468L14.0724 21.8649C13.8771 21.6696 13.5605 21.6696 13.3652 21.8649C13.17 22.0601 13.17 22.3767 13.3652 22.572L16.1937 25.4004L13.3652 28.2288C13.17 28.4241 13.17 28.7407 13.3652 28.9359C13.5605 29.1312 13.8771 29.1312 14.0724 28.9359L17.2543 25.7539ZM7.80078 25.4004L7.80078 25.9004L16.9008 25.9004L16.9008 25.4004L16.9008 24.9004L7.80078 24.9004L7.80078 25.4004Z" fill="currentColor"/>
<path d="M16.3653 10.833C16.5605 10.6378 16.5605 10.3212 16.3653 10.1259C16.17 9.93068 15.8534 9.93068 15.6582 10.1259L16.0117 10.4795L16.3653 10.833ZM7.71172 18.2795C7.71172 18.5556 7.93558 18.7795 8.21172 18.7795H12.7117C12.9879 18.7795 13.2117 18.5556 13.2117 18.2795C13.2117 18.0033 12.9879 17.7795 12.7117 17.7795H8.71172V13.7795C8.71172 13.5033 8.48786 13.2795 8.21172 13.2795C7.93558 13.2795 7.71172 13.5033 7.71172 13.7795L7.71172 18.2795ZM16.0117 10.4795L15.6582 10.1259L7.85817 17.9259L8.21172 18.2795L8.56527 18.633L16.3653 10.833L16.0117 10.4795Z" fill="currentColor"/>
<circle cx="22.75" cy="5.25" r="3.25" fill="currentColor"/>
<circle cx="22.75" cy="24.75" r="3.25" fill="currentColor"/>
<circle cx="3.25" cy="5.25" r="3.25" fill="currentColor"/>
<circle cx="3.25" cy="24.75" r="3.25" fill="currentColor"/>
</svg>
