<svg width="100%" height="100%" viewBox="0 0 331 334" fill="currentColor" xmlns="http://www.w3.org/2000/svg">
<path fill-rule="evenodd" clip-rule="evenodd" d="M42.8633 25.9543C29.8648 25.9543 19.3157 36.5034 19.3157 49.5019V290.983C19.3157 303.982 29.8648 314.531 42.8633 314.531H284.345C297.343 314.531 307.892 303.982 307.892 290.983V118.547C307.892 113.213 312.216 108.889 317.55 108.889C322.884 108.889 327.208 113.213 327.208 118.547V290.983C327.208 314.65 308.011 333.847 284.345 333.847H42.8633C19.1971 333.847 0 314.65 0 290.983V49.5019C0 25.8356 19.1971 6.63855 42.8633 6.63855H215.142C220.476 6.63855 224.8 10.9625 224.8 16.2964C224.8 21.6303 220.476 25.9543 215.142 25.9543H42.8633Z" fill="currentColor"/>
<path fill-rule="evenodd" clip-rule="evenodd" d="M242.886 213.024V218.286C242.886 221.464 241.201 224.379 238.461 225.96L165.729 267.963C162.99 269.543 159.618 269.543 156.879 267.963L84.1463 225.96C81.407 224.362 79.7213 221.447 79.7213 218.286V188.402H112.724C118.571 188.402 123.634 183.579 123.634 177.654V173.643C147.194 174.018 153.925 179.971 161.484 186.657C161.583 186.745 161.682 186.833 161.782 186.921C169.144 193.442 178.218 200.306 199.734 200.596V202.42C199.734 208.345 204.743 213.024 210.608 213.024H242.886ZM242.886 205.599V188.384H210.608C208.629 188.384 207.061 189.847 207.061 191.852V202.221C207.061 204.226 208.629 205.599 210.608 205.599H242.886ZM242.886 180.959V134.298C242.886 131.137 241.201 128.222 238.461 126.624L165.729 84.6214C162.99 83.041 159.618 83.041 156.879 84.6214L84.1463 126.624C81.407 128.205 79.7213 131.12 79.7213 134.298V156.681H112.724C118.232 156.717 122.921 160.655 123.438 166.11C127.484 165.586 129.98 164.466 131.762 162.805C133.727 160.984 135.122 158.41 136.737 155.431C136.837 155.247 136.937 155.061 137.039 154.874C138.786 151.659 140.925 147.956 144.847 145.228C148.002 143.024 152.673 141.94 158.145 141.669V139.736C158.145 133.811 162.727 129.024 168.574 129.024H210.965C216.829 129.024 222.052 133.811 222.052 139.736V150.286C222.052 156.211 216.794 161.07 210.947 161.07H168.556C162.709 161.07 158.163 156.211 158.163 150.286V148.913C154.01 149.148 150.819 149.943 148.947 151.243C146.54 152.923 145.025 155.344 143.367 158.397C143.266 158.583 143.163 158.771 143.06 158.961C141.585 161.669 139.898 164.767 137.199 167.501C152.673 169.994 160.374 175.937 166.524 181.393C173.922 187.95 179.858 193.171 199.734 193.316V191.852C199.734 185.909 204.761 180.959 210.608 180.959H242.886ZM79.7213 163.437V180.977H112.724C114.703 180.977 116.164 179.659 116.164 177.654V167.104C116.164 165.099 114.703 163.437 112.724 163.437H79.7213ZM168.574 136.412C166.595 136.412 164.973 137.695 164.973 139.7V150.25C164.973 152.255 166.577 153.61 168.556 153.61H210.947C212.925 153.61 214.387 152.255 214.387 150.25V139.7C214.387 137.695 212.943 136.412 210.965 136.412H168.574Z" fill="currentColor"/>
<path fill-rule="evenodd" clip-rule="evenodd" d="M284.307 7.63137C289.422 2.68249 296.288 -0.0668082 303.421 0.00123355C310.558 0.0517635 317.375 2.9221 322.412 7.95832C327.462 13.0091 330.298 19.8287 330.369 26.9379C330.44 34.0743 327.69 40.9454 322.739 46.0628C322.712 46.0905 322.685 46.118 322.657 46.1452L302.499 66.3038C297.407 71.3957 290.493 74.2611 283.291 74.2611C276.089 74.2611 269.176 71.3957 264.084 66.3038C261.341 63.5608 261.341 59.1135 264.084 56.3705C266.827 53.6275 271.274 53.6275 274.017 56.3705C276.476 58.8293 279.817 60.2133 283.291 60.2133C286.766 60.2133 290.107 58.8293 292.566 56.3705L312.679 36.2574C315.045 33.7929 316.356 30.4953 316.322 27.0779C316.287 23.6161 314.908 20.3213 312.478 17.8916C310.037 15.4501 306.744 14.0714 303.315 14.0486L303.292 14.0484C299.875 14.0144 296.577 15.3252 294.113 17.691L288.609 23.1947C285.866 25.9377 281.419 25.9376 278.676 23.1946C275.933 20.4516 275.933 16.0044 278.676 13.2614L284.225 7.71248C284.252 7.68522 284.279 7.65818 284.307 7.63137ZM254.022 37.9504C259.114 32.8585 266.028 29.993 273.23 29.993C280.432 29.993 287.345 32.8585 292.437 37.9504C295.18 40.6934 295.18 45.1406 292.437 47.8836C289.694 50.6266 285.247 50.6266 282.504 47.8836C280.045 45.4249 276.704 44.0408 273.23 44.0408C269.755 44.0408 266.414 45.4249 263.955 47.8836L243.797 68.0422C243.766 68.0729 243.735 68.1032 243.704 68.1333C242.449 69.343 241.463 70.7717 240.78 72.3756L240.773 72.3922C240.082 74.0054 239.719 75.7331 239.708 77.4505C239.696 79.1959 240.029 80.9477 240.681 82.5664C241.349 84.1825 242.321 85.6417 243.551 86.8718C244.786 88.1069 246.252 89.0821 247.876 89.7501C249.479 90.4096 251.191 90.7379 252.926 90.7152L252.972 90.7148C254.69 90.7035 256.417 90.3408 258.03 89.6495C259.621 88.9678 261.084 87.9583 262.312 86.6957C262.324 86.6829 262.337 86.6701 262.349 86.6573C262.36 86.6468 262.37 86.6364 262.38 86.6259L267.929 81.0771C270.672 78.3341 275.12 78.3341 277.863 81.0771C280.606 83.8201 280.606 88.2674 277.863 91.0104L272.346 96.5274C269.858 99.0754 266.874 101.143 263.564 102.561C260.267 103.974 256.7 104.735 253.087 104.762C249.457 104.806 245.874 104.116 242.532 102.742C239.204 101.373 236.175 99.3628 233.618 96.8051C231.06 94.2473 229.05 91.2182 227.681 87.8904L227.665 87.8509C226.32 84.5231 225.637 80.9439 225.66 77.3581C225.684 73.7405 226.444 70.1681 227.858 66.8669C229.273 63.5438 231.324 60.5673 233.906 58.0663L254.022 37.9504Z" fill="currentColor"/>
</svg>
