<svg width="100%" height="100%" viewBox="0 0 93 76" fill="none" xmlns="http://www.w3.org/2000/svg">
<path d="M46.6529 75.9151C38.5983 73.3079 30.0908 65.761 29.9948 58.516L29.8164 44.4925C30.8249 43.5938 32.3275 43.1341 33.7065 42.8803C38.2826 42.0295 42.3511 40.0193 46.3921 37.9268C50.7007 40.184 55.0093 42.153 59.7639 42.9832C61.4379 43.2782 62.8992 44.0672 62.8649 45.9745L62.6522 58.1524C62.5287 65.3494 54.5359 72.5533 46.6529 75.9151ZM37.8573 57.5692L44.4643 63.9223L55.1122 52.7461C55.5444 51.9914 53.2392 50.091 52.6217 50.7359L44.3476 59.3942L40.1899 55.5522C39.5725 54.9827 37.1918 56.9175 37.8642 57.5692H37.8573Z" fill="currentColor"/>
<path d="M61.4801 37.3993C60.842 28.2127 46.4137 24.103 36.5273 29.6809C32.8499 31.7528 30.826 35.341 31.1141 39.6496L27.2172 41.8176L27.2446 36.6789C22.4832 33.3103 15.6087 32.5281 9.98284 34.8745C6.60732 36.281 3.78066 39.3546 3.75322 43.0732L3.69147 52.9939L21.1385 52.9253C21.7011 53.3164 22.545 54.0368 22.8537 54.5033C23.2311 55.0659 21.8795 56.5821 21.1385 56.5821H3.1632C1.55091 56.589 -0.0270904 55.2374 0.000352821 53.6182L0.137577 43.0938C0.213046 37.3719 4.50791 32.9603 9.76329 31.1628C16.0272 29.0154 22.8262 29.8936 28.5207 33.2965C34.4279 21.7635 51.2574 20.5903 61.3771 28.8233L64.3273 33.1319C70.6941 29.1183 79.0574 28.7958 85.8702 32.5624C89.4859 34.5589 92.4017 38.4353 92.436 42.6135L92.5389 54.174C92.5527 55.3952 90.467 56.589 89.2389 56.589H71.737C71.0646 56.589 69.7679 55.5942 69.6032 54.963C69.4386 54.3318 70.5706 52.9665 71.3184 52.9665L88.8821 52.939L88.9576 44.2738C88.9919 40.4181 87.1807 37.0974 83.6542 35.3342C77.8911 32.4664 70.6255 32.9055 65.5142 36.7064L65.4182 40.8297C65.1575 41.3991 62.8179 40.7817 62.372 40.2122C61.926 39.6428 61.5555 38.4421 61.4801 37.3993Z" fill="currentColor"/>
<path d="M45.611 20.2945C39.5598 19.8622 36.3764 14.6343 36.6096 9.42695C36.8429 4.2196 40.8907 -0.034098 46.4892 0.000206038C52.0876 0.0345101 56.1698 4.87823 56.1561 10.0238C56.1355 15.5811 51.9024 20.7404 45.611 20.2945ZM52.2797 11.7802C53.1853 7.51278 50.3724 3.92458 46.7156 3.70504C42.8049 3.46491 40.2116 6.90218 40.3899 10.8266C40.534 14.0168 42.8049 16.5347 45.7963 16.9052C48.7876 17.2757 51.5662 15.1694 52.2797 11.7871V11.7802Z" fill="currentColor"/>
<path d="M25.8273 18.4156C25.8273 23.2593 21.8961 27.1906 17.0523 27.1906C12.2086 27.1906 8.27734 23.2593 8.27734 18.4156C8.27734 13.5719 12.2086 9.64062 17.0523 9.64062C21.8961 9.64062 25.8273 13.5719 25.8273 18.4156ZM16.3731 23.8082C20.1122 24.2473 22.2597 20.9953 22.0538 18.0931C21.8343 14.9646 19.3164 12.5702 15.9066 13.2151C13.3338 13.7022 11.8998 16.2819 12.0028 18.5871C12.1057 20.8924 13.4092 23.4583 16.3731 23.8082Z" fill="currentColor"/>
<path d="M84.3644 18.4225C84.3644 23.273 80.4332 27.2043 75.5826 27.2043C70.732 27.2043 66.8008 23.273 66.8008 18.4225C66.8008 13.5719 70.732 9.64062 75.5826 9.64062C80.4332 9.64062 84.3644 13.5719 84.3644 18.4225ZM74.6701 23.7739C78.3063 24.5011 80.6253 21.4001 80.6939 18.5048C80.7694 15.2596 78.2446 12.6045 74.773 13.1328C71.9258 13.565 70.6222 16.0555 70.6017 18.6283C70.5879 20.7277 71.9189 23.225 74.677 23.7807L74.6701 23.7739Z" fill="currentColor"/>
</svg>
