<svg width="100%" height="100%" viewBox="0 0 93 80" fill="none" xmlns="http://www.w3.org/2000/svg">
<path d="M85.7049 51.1838C88.9981 46.4155 89.6636 40.6662 87.1663 35.4314C85.0188 30.9307 80.1477 27.3082 74.3778 27.0749C73.9524 26.4094 73.4035 24.8451 73.3761 24.0973C73.232 19.9122 69.5134 17.9432 65.5067 18.4852C61.1844 8.74967 51.5518 2.56808 40.8146 3.85105C30.5715 5.07914 22.0229 12.5643 20.2117 23.6033C11.0388 23.9944 4.42493 30.9307 3.84176 39.5959C3.27232 48.0827 9.08342 56.1236 17.8653 57.4614C18.7366 57.5918 19.9441 58.3464 20.0813 58.9776C21.2339 64.3702 0.459388 59.1903 0.00657454 41.1052C-0.247275 31.0336 6.87424 22.2998 17.1517 20.3444C19.8617 9.25737 29.3022 1.62129 40.1354 0.221686C51.6067 -1.26025 62.5566 4.80471 67.8531 14.9107C73.0056 15.0685 76.1958 19.3565 77.3484 23.4592C83.3448 25.5449 89.0942 29.339 91.1661 35.102C93.6909 42.1275 92.3736 49.1804 87.6465 54.5867C84.2504 58.5866 79.784 60.981 74.4052 61.1525C73.8975 60.9536 72.4361 60.0205 72.6419 59.4991C72.8478 58.9776 73.3761 58.1681 73.8838 57.4202C78.8647 57.53 82.7205 55.1425 85.7118 51.1769L85.7049 51.1838Z" fill="currentColor"/>
<path d="M60.9002 79.0737L31.6869 79.108C29.4365 79.108 27.8174 76.9194 27.8242 74.8474L27.8929 53.5721C27.8997 50.6768 31.0969 49.1606 33.7246 49.881L33.8892 44.8177C34.1019 38.1764 39.6111 33.2641 45.8407 33.0445C52.0703 32.825 58.3137 37.4903 58.6293 44.31L58.8831 49.8878C61.4216 49.1812 64.6599 50.7043 64.6737 53.4898L64.7491 75.4924C64.7491 77.0429 62.7938 79.0737 60.8933 79.0737H60.9002ZM54.7324 49.7438C54.7118 47.9051 54.7323 45.8125 54.5128 43.8023C54.0325 39.3565 49.3672 36.6259 45.484 37.065C41.0656 37.5658 37.8204 41.1197 37.8204 45.641V49.7575L54.7392 49.7438H54.7324ZM48.1734 70.4908L48.537 65.2629C49.8955 63.8358 50.8766 62.004 50.2728 60.6867C49.5181 59.0401 48.0087 57.9904 46.1014 58.0179C44.5166 58.0385 42.6573 59.5273 42.3074 60.8788C41.882 62.5049 42.822 64.0554 44.0706 65.4276L44.5509 70.6967C44.791 71.5817 48.1116 71.4719 48.1802 70.4908H48.1734Z" fill="currentColor"/>
</svg>
