<svg width="22" height="25" viewBox="0 0 22 25" fill="none" xmlns="http://www.w3.org/2000/svg">
<path d="M17.1908 12.4507C17.1908 12.3193 17.1157 12.2066 17.003 12.1314L14.5429 10.7418L16.3269 9.70895L19.8762 10.8733C19.8762 10.8733 19.9513 10.8733 19.9889 10.8733C20.1391 10.8733 20.2894 10.7794 20.3269 10.6291C20.3833 10.4413 20.2894 10.2348 20.1016 10.1784L17.172 9.22067L18.8809 8.24416L20.4959 8.88265C20.4959 8.88265 20.5898 8.90139 20.6274 8.90139C20.7776 8.90139 20.9091 8.8075 20.9654 8.67605C21.0405 8.48826 20.9466 8.28168 20.7589 8.20657L19.6884 7.79342L21.5851 6.70424C21.7542 6.61034 21.8105 6.38497 21.7166 6.21596C21.6227 6.04695 21.3974 5.99059 21.2283 6.08449L19.3316 7.17372L19.5006 6.04695C19.5382 5.84038 19.388 5.67136 19.2002 5.6338C18.9936 5.59625 18.8246 5.74649 18.787 5.93428L18.5241 7.64321L16.8152 8.61971L17.4537 5.61501C17.4912 5.42721 17.3598 5.22068 17.172 5.18312C16.9842 5.14556 16.7776 5.25822 16.7401 5.4648L15.9701 9.12679L14.1861 10.1596V7.34273C14.2236 7.21128 14.1485 7.0798 14.0358 7.02346C13.9232 6.96712 13.7917 6.94834 13.6603 7.02346L11.2377 8.45071V6.40376L14.0171 3.90614C14.1673 3.77468 14.1861 3.54929 14.0358 3.39906C13.9044 3.24882 13.679 3.23002 13.5288 3.38026L11.2377 5.446V3.47419L12.5898 2.40375C12.7401 2.2723 12.7776 2.04697 12.6462 1.89673C12.5147 1.7465 12.2894 1.70894 12.1391 1.8404L11.2377 2.55402V0.356812C11.2377 0.150239 11.0687 0 10.8809 0C10.6743 0 10.5241 0.169019 10.5241 0.356812V2.55402L9.6227 1.8404C9.47246 1.70894 9.22834 1.7465 9.11566 1.89673C9.00299 2.04697 9.02176 2.29108 9.172 2.40375L10.5241 3.47419V5.446L8.23303 3.38026C8.0828 3.2488 7.85744 3.2676 7.72598 3.39906C7.59452 3.54929 7.61331 3.77468 7.74476 3.90614L10.5241 6.40376V8.45071L8.10158 7.02346C7.9889 6.94834 7.83866 6.96712 7.72598 7.02346C7.6133 7.0798 7.53819 7.21128 7.53819 7.34273V10.1596L5.79171 9.12679L5.02176 5.4648C4.9842 5.277 4.7964 5.14556 4.58983 5.18312C4.40204 5.22068 4.27059 5.40843 4.30815 5.61501L4.94664 8.61971L3.23772 7.64321L2.97481 5.93428C2.93725 5.72771 2.76824 5.59625 2.56167 5.6338C2.35509 5.67136 2.22364 5.84038 2.2612 6.04695L2.43021 7.17372L0.533493 6.08449C0.364479 5.99059 0.13913 6.04695 0.0452334 6.21596C-0.0486634 6.38497 0.0076741 6.61034 0.176688 6.70424L2.0734 7.79342L1.00298 8.20657C0.815184 8.28168 0.721286 8.48826 0.796403 8.67605C0.852741 8.82628 0.984197 8.90139 1.13443 8.90139C1.17199 8.90139 1.22833 8.90143 1.26589 8.88265L2.88091 8.24416L4.58983 9.22067L1.66026 10.1784C1.47247 10.2348 1.35978 10.4413 1.4349 10.6291C1.49124 10.7794 1.6227 10.8733 1.77293 10.8733C1.81049 10.8733 1.84805 10.8733 1.88561 10.8733L5.4349 9.70895L7.21894 10.7418L4.75885 12.1314C4.64617 12.2066 4.57106 12.3193 4.57106 12.4507C4.57106 12.5822 4.64617 12.6948 4.75885 12.7699L7.21894 14.1596L5.4349 15.1925L1.88561 14.0282C1.69782 13.9718 1.49124 14.0657 1.4349 14.2535C1.37856 14.4413 1.47247 14.6479 1.66026 14.7043L4.58983 15.662L2.88091 16.6385L1.26589 16C1.07809 15.9249 0.87152 16.0188 0.796403 16.2066C0.721286 16.3944 0.815184 16.601 1.00298 16.6761L2.0734 17.0892L0.176688 18.1784C0.0076741 18.2723 -0.0486634 18.4977 0.0452334 18.6667C0.120351 18.7794 0.233023 18.8545 0.364479 18.8545C0.420817 18.8545 0.495939 18.8545 0.552277 18.7981L2.44899 17.7089L2.27997 18.8357C2.24241 19.0423 2.39265 19.2113 2.58044 19.2488C2.58044 19.2488 2.618 19.2488 2.63678 19.2488C2.80579 19.2488 2.97481 19.1174 2.99359 18.9484L3.2565 17.2394L4.96542 16.2629L4.32692 19.2676C4.28936 19.4554 4.40204 19.662 4.60862 19.6995C4.62739 19.6995 4.66495 19.6995 4.68373 19.6995C4.85274 19.6995 5.00298 19.5869 5.04054 19.4178L5.81049 15.7559L7.59453 14.723V17.5399C7.55697 17.6714 7.63209 17.8028 7.74476 17.8592C7.74476 17.8592 7.85744 17.9155 7.93255 17.9155C8.00767 17.9155 8.06401 17.9155 8.12035 17.8592L10.5429 16.4319V18.4789L7.76355 20.9766C7.61331 21.108 7.59453 21.3333 7.74476 21.4836C7.81988 21.5587 7.91378 21.5962 8.00767 21.5962C8.10157 21.5962 8.17668 21.5587 8.2518 21.5024L10.5429 19.4366V21.4084L9.19077 22.4789C9.04053 22.6103 9.00298 22.8357 9.13443 22.9859C9.20955 23.0798 9.30345 23.1174 9.41612 23.1174C9.49124 23.1174 9.58514 23.0986 9.64148 23.0422L10.5429 22.3287V24.5258C10.5429 24.7324 10.7119 24.8826 10.8997 24.8826C11.1063 24.8826 11.2565 24.7136 11.2565 24.5258V22.3287L12.1579 23.0422C12.233 23.0986 12.3081 23.1174 12.3833 23.1174C12.4959 23.1174 12.5898 23.0798 12.665 22.9859C12.7964 22.8357 12.7589 22.5916 12.6086 22.4789L11.2565 21.4084V19.4366L13.5476 21.5024C13.6227 21.5587 13.6978 21.5962 13.7917 21.5962C13.8856 21.5962 13.9983 21.5587 14.0546 21.4836C14.1861 21.3333 14.1673 21.108 14.0358 20.9766L11.2565 18.4789V16.4319L13.679 17.8592C13.7354 17.8967 13.7917 17.9155 13.8668 17.9155C13.942 17.9155 13.9983 17.9155 14.0546 17.8592C14.1673 17.8028 14.2424 17.6714 14.2424 17.5399V14.723L15.9889 15.7559L16.7589 19.4178C16.7964 19.5869 16.9466 19.6995 17.1157 19.6995C17.1344 19.6995 17.172 19.6995 17.1908 19.6995C17.3786 19.662 17.51 19.4742 17.4725 19.2676L16.834 16.2629L18.5429 17.2394L18.8058 18.9484C18.8246 19.1361 18.9936 19.2488 19.1626 19.2488C19.1626 19.2488 19.2002 19.2488 19.2189 19.2488C19.4255 19.2113 19.557 19.0423 19.5194 18.8357L19.3504 17.7089L21.2471 18.7981C21.2471 18.7981 21.3598 18.8545 21.4349 18.8545C21.5664 18.8545 21.679 18.7981 21.7542 18.6667C21.8481 18.4977 21.7917 18.2723 21.6227 18.1784L19.726 17.0892L20.7964 16.6761C20.9842 16.601 21.0781 16.3944 21.003 16.2066C20.9279 16.0188 20.7213 15.9249 20.5335 16L18.9185 16.6385L17.2096 15.662L20.1391 14.7043C20.3269 14.6479 20.4396 14.4413 20.3645 14.2535C20.3081 14.0657 20.1016 13.9531 19.9138 14.0282L16.3645 15.1925L14.5804 14.1596L17.0405 12.7699C17.1532 12.6948 17.2283 12.5822 17.2283 12.4507H17.1908ZM8.2518 7.94368L10.5053 9.277V11.8498L8.28937 10.5728V7.96242L8.2518 7.94368ZM11.2377 11.831V9.2582L13.4912 7.92489L13.4725 10.5352L11.2565 11.8122L11.2377 11.831ZM11.5945 12.4507L13.8105 11.1737L16.0828 12.4507L13.8105 13.7277L11.5945 12.4507ZM7.91378 11.1737L10.1297 12.4507L7.91378 13.7277L5.64148 12.4507L7.91378 11.1737ZM8.28937 14.3662L10.5053 13.0892V15.662L8.2518 16.9953L8.27058 14.385L8.28937 14.3662ZM11.2377 15.6432V13.0704L13.4537 14.3474V16.9577H13.4725L11.2189 15.6244L11.2377 15.6432Z" fill="#4B5563"/>
</svg>
