<svg xmlns="http://www.w3.org/2000/svg" fill="white" viewBox="0 0 24 24" class="w-6 h-6">
  <path class="cls-1" d="m20.74,17.51l-2.79-1.63,2.65-.76c.25-.09.37-.36.29-.6-.08-.22-.31-.35-.54-.3l-3.52,1-4.58-2.69h3.91c.26,0,.47-.21.47-.47s-.21-.47-.47-.47h-3.92s4.59-2.7,4.59-2.7l3.52,1s.09.02.13.02c.26,0,.47-.22.47-.48,0-.21-.14-.39-.34-.45l-2.65-.76,2.79-1.63c.23-.12.33-.4.21-.63-.12-.23-.4-.33-.63-.21-.02,0-.04.02-.05.03l-2.79,1.63.64-2.68c.08-.25-.06-.51-.31-.59-.25-.08-.51.06-.59.31,0,.02-.01.04-.01.06l-.84,3.56-4.54,2.66,1.94-3.32c.12-.23.02-.52-.21-.63-.21-.11-.47-.04-.6.16l-1.97,3.37v-5.31l2.64-2.53c.2-.17.23-.47.06-.67-.17-.2-.47-.23-.67-.06-.02.01-.03.03-.04.04l-1.99,1.9V.47c0-.26-.21-.47-.47-.47s-.47.21-.47.47v3.23l-1.99-1.91c-.18-.19-.48-.2-.67-.02-.19.18-.2.48-.02.67.01.01.03.03.04.04l2.64,2.53v5.31l-1.97-3.37c-.14-.22-.44-.28-.65-.14-.2.13-.27.4-.16.61l1.94,3.32-4.54-2.66-.84-3.56c-.04-.26-.28-.44-.53-.4-.26.04-.44.28-.4.53,0,.03.01.06.02.08l.64,2.68-2.79-1.63c-.22-.15-.51-.09-.66.13-.15.22-.09.51.13.66.02.01.03.02.05.03l2.79,1.63-2.65.76c-.25.07-.39.34-.32.59.06.2.24.33.45.34.04,0,.09,0,.13-.02l3.52-1,4.58,2.69h-3.91c-.26,0-.47.21-.47.47s.21.47.47.47h3.92s-4.59,2.7-4.59,2.7l-3.52-1.01c-.25-.05-.51.11-.56.36-.05.23.08.46.3.54l2.65.76-2.79,1.63c-.23.12-.33.4-.21.63.12.23.4.33.63.21.02,0,.04-.02.05-.03l2.79-1.63-.64,2.69c-.06.25.1.51.35.57.04,0,.07.01.11.01.22,0,.41-.15.46-.36l.84-3.56,4.54-2.66-1.94,3.32c-.15.22-.09.51.13.66.22.15.51.09.66-.13.01-.02.02-.03.03-.05l1.97-3.37v5.31l-2.64,2.53c-.18.19-.17.49.02.67.18.16.45.17.63.01l1.99-1.9v3.23c0,.26.21.47.47.47s.47-.21.47-.47v-3.23l1.99,1.91c.2.17.5.14.66-.06.15-.18.15-.45-.02-.62l-2.64-2.53v-5.31l1.97,3.37c.14.22.44.28.65.14.2-.13.27-.4.16-.61l-1.94-3.32,4.54,2.66.84,3.56c.05.21.24.36.46.36.04,0,.07,0,.11-.01.25-.06.41-.31.35-.57l-.64-2.68,2.79,1.63c.22.15.51.09.66-.13.15-.22.09-.51-.13-.66-.02-.01-.03-.02-.05-.03h0Z"/>
</svg>