<svg width="24" height="24" viewBox="0 0 24 24" fill="none" xmlns="http://www.w3.org/2000/svg">
<path d="M11.9705 15.0718C13.6714 15.0718 15.0503 13.6929 15.0503 11.9919C15.0503 10.291 13.6714 8.91211 11.9705 8.91211C10.2695 8.91211 8.89062 10.291 8.89062 11.9919C8.89062 13.6929 10.2695 15.0718 11.9705 15.0718Z" stroke="#3F3F46" stroke-width="1.40845" stroke-linecap="round" stroke-linejoin="round"/>
<path d="M11.971 18.9578C15.8189 18.9578 18.9382 15.8385 18.9382 11.9906C18.9382 8.14277 15.8189 5.02344 11.971 5.02344C8.12321 5.02344 5.00391 8.14277 5.00391 11.9906C5.00391 15.8385 8.12321 18.9578 11.971 18.9578Z" stroke="#3F3F46" stroke-width="1.40845" stroke-linecap="round" stroke-linejoin="round"/>
<path d="M11.9688 0.704102V23.2581" stroke="#3F3F46" stroke-width="1.40845" stroke-linecap="round" stroke-linejoin="round"/>
<path d="M23.2571 11.9912H0.703125" stroke="#3F3F46" stroke-width="1.40845" stroke-linecap="round" stroke-linejoin="round"/>
</svg>
