<svg xmlns="http://www.w3.org/2000/svg" fill="none" viewBox="0 0 24 24" stroke-width="1.5" stroke="currentColor" class="w-full h-full">
<g clip-path="url(#clip0_4698_1617)">
<path d="M6.73302 6.74087L10.0791 10.0869M13.5048 13.5127L16.8509 16.8587M13.3056 13.3055C12.4691 14.142 11.1148 14.142 10.2783 13.3055C9.44174 12.469 9.44174 11.1147 10.2783 10.2781C11.1148 9.44162 12.4691 9.44162 13.3056 10.2781C14.1422 11.1147 14.1422 12.469 13.3056 13.3055ZM6.73302 6.7329C5.8965 7.56942 4.54214 7.56942 3.70563 6.7329C2.86911 5.89639 2.86911 4.54203 3.70563 3.70551C4.54214 2.869 5.8965 2.869 6.73302 3.70551C7.56953 4.54203 7.56953 5.89639 6.73302 6.7329ZM19.8942 19.8941C19.0577 20.7306 17.7033 20.7306 16.8668 19.8941C16.0303 19.0576 16.0303 17.7032 16.8668 16.8667C17.7033 16.0302 19.0577 16.0302 19.8942 16.8667C20.7307 17.7032 20.7307 19.0576 19.8942 19.8941Z" stroke="currentColor" stroke-width="1.5" stroke-linecap="round" stroke-linejoin="round"/>
<path d="M16.8731 6.74087L13.5255 10.0869M10.0903 13.5127L6.74266 16.8587M16.8651 6.7329C17.702 7.56942 19.057 7.56942 19.8939 6.7329C20.7308 5.89639 20.7308 4.54203 19.8939 3.70551C19.057 2.869 17.702 2.869 16.8651 3.70551C16.0282 4.54203 16.0282 5.89639 16.8651 6.7329ZM3.70591 19.8941C4.54281 20.7306 5.89779 20.7306 6.73469 19.8941C7.57159 19.0576 7.57159 17.7032 6.73469 16.8667C5.89779 16.0302 4.54281 16.0302 3.70591 16.8667C2.86901 17.7032 2.86901 19.0576 3.70591 19.8941Z" stroke="currentColor" stroke-width="1.5" stroke-linecap="round" stroke-linejoin="round"/>
</g>
<defs>
<clipPath id="clip0_4698_1617">
<rect width="24" height="24" fill="white"/>
</clipPath>
</defs>
</svg>