<svg viewBox="0 0 24 24" fill="none" xmlns="http://www.w3.org/2000/svg">
<path d="M11.7821 2.00957C12.1522 2.08043 12.4078 2.36386 12.4871 2.71029L12.7956 4.18259L13.3772 6.96974C13.4566 7.41064 13.3772 7.8358 13.1393 8.22159L12.5752 9.15851C12.9013 9.43408 13.0864 9.80412 13.104 10.2057L14.0118 10.2608C14.4525 10.2844 14.8491 10.4497 15.184 10.7017L15.5629 11.0245L16.3914 11.7488L17.3344 12.5676L18.251 13.3707L18.7797 13.8352C18.8767 13.9219 18.9296 14.0321 18.9736 14.1502C19.0111 14.2829 19.0064 14.4764 18.9736 14.6304C18.8238 15.0792 18.2245 15.2918 17.775 15.1186L13.4389 13.418C13.06 13.2684 12.7515 13.0637 12.4959 12.7566L12.8308 16.2602L13.3156 21.3936C13.342 21.6849 13.1482 21.9998 12.8749 21.9998C12.6016 21.9998 10.4138 22.0002 10.2636 21.9998C10.1133 21.9995 9.87893 21.7524 9.89603 21.4408C9.91313 21.1293 10.513 12.4259 10.513 12.4259C10.2397 12.8668 9.83434 13.1424 9.33199 13.3392L5.26029 14.969C4.98708 15.0792 4.70506 15.0556 4.44066 14.9218C4.08496 14.7364 4 14.4415 4 14.1029C4 13.9918 4.09695 13.8116 4.23796 13.6857L6.82904 11.3552L7.64867 10.6229C8.01001 10.3238 8.45948 10.1584 8.96183 10.1269L10.0106 10.0639C10.0811 9.63879 10.3103 9.28449 10.698 9.04042L10.1428 8.19797C9.89603 7.82005 9.76383 7.3949 9.83434 6.94612L10.1075 5.56042L10.698 2.66305C10.7685 2.33237 11.0153 2.0883 11.3855 2.01744C11.5 2.00473 11.6331 1.98985 11.7821 2.00957ZM12.0024 8.8672L12.5576 7.94603C12.7427 7.63897 12.7868 7.32404 12.7163 6.98548L11.8173 2.73391C11.7909 2.61581 11.6499 2.57644 11.5529 2.59219C11.456 2.60794 11.3678 2.66305 11.3414 2.77328L10.5041 6.85164C10.4248 7.22168 10.4601 7.56024 10.6804 7.87517L11.3061 8.81996C11.5441 8.79634 11.7732 8.78847 12.0112 8.8672H12.0024ZM11.9759 10.993C12.5136 10.7096 12.6017 10.0482 12.1787 9.63879C11.8702 9.3396 11.3767 9.29236 11.0065 9.55218C10.7509 9.72539 10.6275 10.0088 10.6452 10.2923C10.6628 10.56 10.8126 10.8198 11.077 10.9694C11.359 11.1347 11.6851 11.1426 11.9759 10.9851V10.993ZM5.01352 14.4257L9.30555 12.6936C9.57876 12.5834 9.79027 12.3787 9.92247 12.1504L10.4248 11.2371C10.2486 11.056 10.1252 10.867 10.0547 10.6387L9.11166 10.6938C8.7415 10.6938 8.37135 10.7962 8.10695 11.0324L7.4724 11.5914L7.19919 11.8354L4.70506 14.0714C4.61692 14.1502 4.64336 14.2919 4.70506 14.3549C4.78438 14.4415 4.89895 14.4572 5.02233 14.41L5.01352 14.4257ZM17.8279 13.8038L16.9554 13.0479L16.0829 12.2842L15.1663 11.489L14.7433 11.1268C14.4701 10.93 14.1264 10.8355 13.7738 10.8277L12.9895 10.7883C12.8749 11.0402 12.6986 11.2607 12.4519 11.4181L12.9542 12.3078C13.1217 12.5598 13.3508 12.733 13.6505 12.8511L18.013 14.5753C18.1276 14.6226 18.251 14.5911 18.3126 14.5124C18.3743 14.4415 18.4096 14.3155 18.3126 14.2368L17.8279 13.8038ZM12.6546 21.4251L12.1346 15.8823L11.738 11.6858C11.5529 11.7095 11.3767 11.6858 11.2004 11.6622L10.936 15.591L10.5394 21.4408H12.6546V21.4251Z" fill="currentColor" stroke="currentColor" stroke-width="0.5"/>
</svg>
