<svg width="100%" height="100%" viewBox="0 0 24 24" fill="none" xmlns="http://www.w3.org/2000/svg">
<g clip-path="url(#clip0_7057_4365)">
<path d="M13.291 13.1598V13.1798H13.281L14.251 11.5598C14.531 11.1098 14.621 10.6198 14.531 10.1098L13.721 6.21977L13.291 4.16977C13.211 3.81977 12.971 3.57977 12.641 3.50977C12.591 3.50977 12.551 3.50977 12.501 3.50977C12.401 3.50977 12.311 3.50977 12.221 3.52977C11.891 3.59977 11.671 3.79977 11.601 4.09977L10.781 8.13977L10.401 10.0598C10.331 10.5398 10.451 11.0298 10.771 11.5198L11.781 13.0498M13.311 16.2698L14.221 17.9198C14.471 18.3798 14.851 18.7098 15.331 18.8898L19.111 20.1398L21.101 20.7898C21.441 20.8998 21.771 20.8098 22.001 20.5598C22.031 20.5198 22.051 20.4798 22.081 20.4398C22.131 20.3598 22.171 20.2698 22.201 20.1898C22.311 19.8698 22.241 19.5798 22.011 19.3698L18.921 16.6298L17.451 15.3398C17.071 15.0398 16.591 14.8998 16.011 14.9298L14.181 15.0398M10.571 15.0298L8.741 14.9198C8.161 14.8898 7.671 15.0298 7.301 15.3298L5.831 16.6198L2.741 19.3598C2.511 19.5698 2.441 19.8598 2.551 20.1798C2.591 20.2598 2.631 20.3498 2.671 20.4298C2.701 20.4698 2.721 20.5098 2.751 20.5498C2.971 20.7998 3.301 20.8798 3.651 20.7798L5.641 20.1298L9.421 18.8798C9.901 18.7098 10.281 18.3798 10.531 17.9098L11.441 16.2598" stroke="currentColor"/>
<path d="M12.4708 16.5099C13.3931 16.5099 14.1408 15.7622 14.1408 14.8399C14.1408 13.9176 13.3931 13.1699 12.4708 13.1699C11.5485 13.1699 10.8008 13.9176 10.8008 14.8399C10.8008 15.7622 11.5485 16.5099 12.4708 16.5099Z" stroke="currentColor"/>
</g>
<defs>
<clipPath id="clip0_7057_4365">
<rect width="20.74" height="18.33" fill="white" transform="translate(2 3)"/>
</clipPath>
</defs>
</svg>
