<svg width="24" height="24" fill="none" xmlns="http://www.w3.org/2000/svg"><circle cx="12" cy="12" r="12" fill="#fff" fill-opacity=".7"/><path fill-rule="evenodd" clip-rule="evenodd" d="M11.495 6.998a4.495 4.495 0 1 0 0 8.99 4.495 4.495 0 0 0 0-8.99zM6 11.494a5.495 5.495 0 1 1 9.717 3.517l3.124 3.124a.5.5 0 1 1-.706.706l-3.124-3.124A5.495 5.495 0 0 1 6 11.494zm5.495-2.497a.5.5 0 0 1 .5.5v1.498h1.498a.5.5 0 1 1 0 .999h-1.499v1.498a.5.5 0 1 1-.999 0v-1.498H9.497a.5.5 0 0 1 0-1h1.498V9.497a.5.5 0 0 1 .5-.5z" fill="#1F2937"/></svg>