<svg height="536.8" viewBox="0 0 220.2 142" width="832.2" xmlns="http://www.w3.org/2000/svg" xmlns:xlink="http://www.w3.org/1999/xlink"><linearGradient id="a"><stop offset="0" stop-color="#c7a4a4"/><stop offset=".379" stop-color="#d6c2c2"/><stop offset="1" stop-color="#8e5c5c"/></linearGradient><linearGradient id="d" gradientUnits="userSpaceOnUse" x1="260.4" x2="302.7" y1="368.7" y2="368.7"><stop offset="0" stop-color="#9a6a66"/><stop offset=".418" stop-color="#9a6a66"/><stop offset=".57" stop-color="#cb9692"/><stop offset=".916" stop-color="#cb9692"/><stop offset="1" stop-color="#9a6a66"/></linearGradient><linearGradient id="i" gradientUnits="userSpaceOnUse" x1="204.138" x2="205.058" xlink:href="#a" y1="94.289" y2="95.919"/><linearGradient id="h" gradientTransform="rotate(-120.53 99.937 19.973) scale(.5258)" gradientUnits="userSpaceOnUse" x1="-9.339" x2="-10.98" xlink:href="#a" y1="121.1" y2="118.2"/><linearGradient id="g" gradientUnits="userSpaceOnUse" x1="184.138" x2="185.058" xlink:href="#a" y1="83.199" y2="84.829"/><linearGradient id="j" gradientUnits="userSpaceOnUse" x1="237.483" x2="238.485" xlink:href="#a" y1="97.526" y2="99.314"/><linearGradient id="e" gradientUnits="userSpaceOnUse" x1="228.783" x2="229.785" xlink:href="#a" y1="79.986" y2="81.774"/><linearGradient id="f" gradientUnits="userSpaceOnUse" x1="246.783" x2="247.785" xlink:href="#a" y1="47.406" y2="49.194"/><linearGradient id="l" gradientUnits="userSpaceOnUse" x1="154.838" x2="155.758" xlink:href="#a" y1="122.499" y2="124.129"/><linearGradient id="c" gradientUnits="userSpaceOnUse" x1="266.083" x2="267.085" xlink:href="#a" y1="58.693" y2="60.481"/><linearGradient id="k" gradientUnits="userSpaceOnUse" x1="174.238" x2="175.158" xlink:href="#a" y1="133.839" y2="135.469"/><linearGradient id="m" gradientTransform="rotate(-120.53 96.51 47.991) scale(.5258)" gradientUnits="userSpaceOnUse" x1="-9.339" x2="-10.98" xlink:href="#a" y1="121.1" y2="118.2"/><filter id="b" color-interpolation-filters="sRGB"><feFlood flood-opacity=".161" result="flood"/><feComposite in="flood" in2="SourceGraphic" operator="in" result="composite1"/><feGaussianBlur in="composite1" result="blur" stdDeviation="3"/><feOffset dx="2.395" dy="8.683" result="offset"/><feComposite in="SourceGraphic" in2="offset" result="composite2"/></filter><g filter="url(#b)" transform="translate(-91.603 -20.045)"><g fill="#fff"><g fill-rule="evenodd" stroke="#8e5c5c" stroke-dasharray="4 4" stroke-width=".14838"><path d="M254.966 59.542l-.005 1.45c-.017.526.405.567 1.428 1.16l4.923 2.84 1.033.587c2.36 1.341 3.039 1.356 5.423-.026l23.667-13.719c1.118-.648 1.775-1.062 1.827-1.494l-.006-1.47"/><path d="M262.356 64.097c2.34 1.38 3.039 1.356 5.423-.026l23.667-13.72c2.237-1.296 2.623-1.654.026-3.103l-5.505-3.073c-2.635-1.471-3.025-1.423-5.396-.053l-23.697 13.694c-3.15 1.82-1.84 2.127-.026 3.158 2.033 1.155 3.632 2.022 5.505 3.126z"/></g><path d="M261.888 65.318l-1.398.808c-.607.284-1.215.31-1.821 0l-1.82-1.051c-.281-.157-.442-.323-.446-.503v-2.68l6.28-.018-.042.173c-.003.18.024.626-.21.794l-1.024.713-.09 1.52.503.287" fill-rule="evenodd"/><g stroke="#8e5c5c" stroke-dasharray="4 4" stroke-width=".14838"><path d="M262.675 61.876v.603c-.003.18-.137.353-.371.521l-.92.531v1.506m.497.284l-1.398.807c-.607.284-1.215.31-1.821 0l-1.82-1.051c-.281-.157-.442-.323-.446-.502v-2.682"/><path d="M260.479 60.303l1.82 1.052c.533.377.456.724 0 1.051l-1.82 1.052c-.607.283-1.214.31-1.82 0l-1.821-1.052c-.547-.305-.64-.647 0-1.051l1.82-1.052c.583-.337 1.189-.355 1.82 0z" fill-rule="evenodd"/></g></g><path d="M238.1 76.79l19.94-11.35c.827-.478.092-2.255-.71-1.85-6.318 3.817-19.23 10.96-19.23 10.96z" fill="url(#c)" stroke="#8e5c5c" stroke-width=".139"/><path d="M297.4 376.8l-9.427 5.443c-4.091 1.911-8.183 2.087-12.27 0l-12.27-7.087c-1.89-1.054-2.974-2.175-3-3.384v-18.07l42.32-.118-.281 1.165c-.02 1.212 1.845 4.086.267 5.22l.093 3.726-.273 9.235-5.62 4.163" fill="url(#d)" fill-rule="evenodd" transform="translate(194.802 22.392) scale(.14838)"/><g stroke="#8e5c5c" stroke-width=".14838"><path d="M239.717 74.86v2.648c.031.221-.152.391-.315.487l-1.878 1.118c-.607.283-1.214.31-1.82 0l-1.821-1.052c-.28-.156-.442-.323-.446-.502v-2.681" fill="none"/><path d="M237.52 73.287l1.821 1.051c.533.378.456.724 0 1.052l-1.82 1.052c-.607.283-1.215.31-1.821 0l-1.82-1.052c-.548-.305-.64-.648 0-1.052l1.82-1.051c.583-.337 1.189-.355 1.82 0z" fill="#d7b0ac" fill-rule="evenodd"/></g><path d="M205 95.89l30.26-17.53c.827-.478.092-2.255-.71-1.85L205 93.65z" fill="url(#e)" stroke="#8e5c5c" stroke-width=".139"/><g fill="#fff"><g fill-rule="evenodd" stroke="#8e5c5c" stroke-dasharray="4 4" stroke-width=".14838"><path d="M235.466 48.322l-.005 1.45c-.017.526.405.567 1.428 1.16l4.923 2.84 1.033.587c2.36 1.341 3.039 1.356 5.423-.026l23.667-13.719c1.118-.648 1.775-1.062 1.827-1.494l-.006-1.47"/><path d="M242.856 52.877c2.34 1.38 3.039 1.356 5.423-.026l23.667-13.72c2.237-1.296 2.623-1.654.026-3.103l-5.505-3.073c-2.635-1.471-3.025-1.423-5.396-.053l-23.697 13.694c-3.15 1.82-1.84 2.127-.026 3.158 2.033 1.155 3.632 2.022 5.505 3.126z"/></g><path d="M242.388 54.098l-1.398.808c-.607.284-1.215.31-1.821 0l-1.82-1.051c-.281-.157-.442-.323-.446-.503v-2.68l6.28-.018-.042.173c-.003.18.024.626-.21.794l-1.024.713-.09 1.52.503.287" fill-rule="evenodd"/><g stroke="#8e5c5c" stroke-dasharray="4 4" stroke-width=".14838"><path d="M243.175 50.656v.603c-.003.18-.137.353-.371.521l-.92.531v1.506m.497.284l-1.398.807c-.607.284-1.215.31-1.821 0l-1.82-1.051c-.281-.157-.442-.323-.446-.502v-2.682"/><path d="M240.979 49.083l1.82 1.052c.533.377.456.724 0 1.051l-1.82 1.052c-.607.283-1.214.31-1.82 0l-1.821-1.052c-.547-.305-.64-.647 0-1.051l1.82-1.052c.583-.337 1.189-.355 1.82 0z" fill-rule="evenodd"/></g></g><path d="M223.1 63.3l15.71-9.159c.827-.478.092-2.255-.71-1.85l-15 8.77z" fill="url(#f)" stroke="#8e5c5c" stroke-width=".139"/><g fill="none" fill-rule="evenodd" stroke="#8e5c5c" stroke-dasharray="3.99036 3.99036" stroke-width=".14808324"><path d="M187.566 75.849l-.005 1.45c-.017.526.405.567 1.428 1.16l4.923 2.84 1.033.587c2.36 1.341 3.039 1.356 5.423-.026l23.667-13.719c1.118-.648 1.775-1.062 1.827-1.494l-.006-1.47"/><path d="M194.956 80.404c2.34 1.38 3.039 1.356 5.423-.026l23.667-13.72c2.237-1.296 2.623-1.654.026-3.103l-5.505-3.073c-2.635-1.471-3.025-1.423-5.396-.053l-23.697 13.694c-3.15 1.82-1.84 2.127-.026 3.158 2.033 1.155 3.632 2.022 5.505 3.126z"/></g><g fill="#fff"><path d="M218.051 61.253v.7c.018.169.176.327.444.476l1.82 1.052c.607.31 1.214.283 1.82 0l.871-.597 1.25.692.03-2.184" fill-rule="evenodd"/><g stroke="#8e5c5c"><path d="M218.051 61.253v.7c.018.169.176.327.444.476l1.82 1.052c.607.31 1.214.283 1.82 0l.878-.507m1.312.727l.003-2.434" stroke-dasharray="4 4" stroke-width=".14838"/><path d="M222.132 59.724l1.82 1.052c.533.377.456.724 0 1.052l-1.82 1.051c-.607.284-1.214.31-1.82 0l-1.822-1.051c-.546-.305-.638-.648 0-1.052l1.821-1.052c.583-.337 1.189-.355 1.82 0z" fill-rule="evenodd" stroke-dasharray="3.9968 3.9968" stroke-width=".14823162"/></g></g><g fill="#fff"><path d="M194.488 81.625l-1.398.808c-.607.284-1.215.31-1.821 0l-1.82-1.051c-.281-.157-.442-.323-.446-.503V78.2l6.28-.018-.042.173c-.003.18.024.626-.21.794l-1.024.713-.09 1.52.503.287" fill-rule="evenodd"/><g stroke="#8e5c5c" stroke-dasharray="4 4" stroke-width=".14838"><path d="M195.275 78.183v.603c-.003.18-.137.353-.371.521l-.92.531v1.506m.497.284l-1.398.807c-.607.284-1.215.31-1.821 0l-1.82-1.051c-.281-.157-.442-.323-.446-.502V78.2"/><path d="M193.079 76.61l1.82 1.052c.533.377.456.724 0 1.051l-1.82 1.052c-.607.283-1.214.31-1.82 0l-1.821-1.052c-.547-.305-.64-.647 0-1.051l1.82-1.052c.583-.337 1.189-.355 1.82 0z" fill-rule="evenodd"/></g></g><path d="M184.8 85.1l5.971-3.38c.827-.478.092-2.255-.71-1.85l-5.262 2.99z" fill="url(#g)" stroke="#8e5c5c" stroke-width=".139"/><path d="M297.4 376.8l-9.427 5.443c-4.091 1.911-8.183 2.087-12.27 0l-12.27-7.087c-1.89-1.054-2.974-2.175-3-3.384v-18.07l42.32-.118-.281 1.165c-.02 1.212 1.845 4.086.267 5.22l.093 3.726-.273 9.235-5.62 4.163" fill="url(#d)" fill-rule="evenodd" transform="translate(141.102 30.82) scale(.14838)"/><g stroke="#8e5c5c" stroke-width=".14838"><path d="M186.017 83.288v2.648c.031.221-.152.391-.315.487l-1.878 1.118c-.607.283-1.214.31-1.82 0l-1.821-1.052c-.28-.156-.442-.323-.446-.502v-2.681" fill="none"/><path d="M183.82 81.715l1.821 1.051c.533.378.456.724 0 1.052l-1.82 1.052c-.607.283-1.215.31-1.821 0l-1.82-1.052c-.548-.305-.64-.648 0-1.052l1.82-1.051c.583-.337 1.189-.355 1.82 0z" fill="#d7b0ac" fill-rule="evenodd"/></g><path d="M202.9 94.93l-17.55-10.01c-.832-.47-1.989 1.066-1.233 1.551l16.86 9.746z" fill="url(#h)" stroke="#8e5c5c" stroke-width=".139"/><path d="M297.4 376.8l-9.427 5.443c-4.091 1.911-8.183 2.087-12.27 0l-12.27-7.087c-1.89-1.054-2.974-2.175-3-3.384v-18.07l42.32-.118-.281 1.165c-.02 1.212 1.845 4.086.267 5.22l.093 3.726-.273 9.235-5.62 4.163" fill="url(#d)" fill-rule="evenodd" transform="translate(161.102 41.92) scale(.14838)"/><g stroke="#8e5c5c" stroke-width=".14838"><path d="M206.017 94.388v2.648c.031.221-.152.391-.315.487l-1.878 1.118c-.607.283-1.214.31-1.82 0l-1.821-1.052c-.28-.156-.442-.323-.446-.502v-2.681" fill="none"/><path d="M203.82 92.815l1.821 1.051c.533.378.456.724 0 1.052l-1.82 1.052c-.607.283-1.215.31-1.821 0l-1.82-1.052c-.548-.305-.64-.648 0-1.052l1.82-1.051c.583-.337 1.189-.355 1.82 0z" fill="#d7b0ac" fill-rule="evenodd"/></g><path d="M194.4 102.2l7.216-4.313c.827-.478.092-2.255-.71-1.85L194.4 99.96z" fill="url(#i)" stroke="#8e5c5c" stroke-width=".139"/><g fill="#fff"><g fill-rule="evenodd" stroke="#8e5c5c" stroke-dasharray="4 4" stroke-width=".14838"><path d="M158.266 115.152l-.005 1.45c-.017.526.405.567 1.428 1.16l4.923 2.84 1.033.587c2.36 1.341 3.039 1.356 5.423-.026l23.667-13.719c1.118-.648 1.775-1.062 1.827-1.494l-.006-1.47"/><path d="M165.656 119.707c2.34 1.38 3.039 1.356 5.423-.026l23.667-13.72c2.237-1.296 2.623-1.654.026-3.103l-5.505-3.073c-2.635-1.471-3.025-1.423-5.396-.053l-23.697 13.694c-3.15 1.82-1.84 2.127-.026 3.158 2.033 1.155 3.632 2.022 5.505 3.126z"/></g><path d="M188.751 100.556v.7c.018.169.176.327.444.476l1.82 1.052c.607.31 1.214.283 1.82 0l.871-.597 1.25.692.03-2.184" fill-rule="evenodd"/><g stroke="#8e5c5c"><path d="M188.751 100.556v.7c.018.169.176.327.444.476l1.82 1.052c.607.31 1.214.283 1.82 0l.878-.507m1.312.727l.003-2.434" stroke-dasharray="4 4" stroke-width=".14838"/><path d="M192.832 99.027l1.82 1.052c.533.377.456.724 0 1.052l-1.82 1.051c-.607.284-1.214.31-1.82 0l-1.822-1.051c-.546-.305-.638-.648 0-1.052l1.821-1.052c.583-.337 1.189-.355 1.82 0z" fill-rule="evenodd" stroke-dasharray="3.9968 3.9968" stroke-width=".14823162"/></g><g><path d="M165.188 120.928l-1.398.808c-.607.284-1.215.31-1.821 0l-1.82-1.051c-.281-.157-.442-.323-.446-.503v-2.68l6.28-.018-.042.173c-.003.18.024.626-.21.794l-1.024.713-.09 1.52.503.287" fill-rule="evenodd"/><g stroke="#8e5c5c" stroke-dasharray="4 4" stroke-width=".14838"><path d="M165.975 117.486v.603c-.003.18-.137.353-.371.521l-.92.531v1.506m.497.284l-1.398.807c-.607.284-1.215.31-1.821 0l-1.82-1.051c-.281-.157-.442-.323-.446-.502v-2.682"/><path d="M163.779 115.913l1.82 1.052c.533.377.456.724 0 1.051l-1.82 1.052c-.607.283-1.214.31-1.82 0l-1.821-1.052c-.547-.305-.64-.647 0-1.051l1.82-1.052c.583-.337 1.189-.355 1.82 0z" fill-rule="evenodd"/></g></g></g><g fill="#fff"><g fill-rule="evenodd" stroke="#8e5c5c" stroke-dasharray="4 4" stroke-width=".14838"><path d="M226.166 98.152l-.005 1.45c-.017.526.405.567 1.428 1.16l4.923 2.84 1.033.587c2.36 1.341 3.039 1.356 5.423-.026l23.667-13.719c1.118-.648 1.775-1.062 1.827-1.494l-.006-1.47"/><path d="M233.556 102.707c2.34 1.38 3.039 1.356 5.423-.026l23.667-13.72c2.237-1.296 2.623-1.654.026-3.103l-5.505-3.073c-2.635-1.471-3.025-1.423-5.396-.053l-23.697 13.694c-3.15 1.82-1.84 2.127-.026 3.158 2.033 1.155 3.632 2.022 5.505 3.126z"/></g><path d="M233.088 103.928l-1.398.808c-.607.284-1.215.31-1.821 0l-1.82-1.051c-.281-.157-.442-.323-.446-.503v-2.68l6.28-.018-.042.173c-.003.18.024.626-.21.794l-1.024.713-.09 1.52.503.287" fill-rule="evenodd"/><g stroke="#8e5c5c" stroke-dasharray="4 4" stroke-width=".14838"><path d="M233.875 100.486v.603c-.003.18-.137.353-.371.521l-.92.531v1.506m.497.284l-1.398.807c-.607.284-1.215.31-1.821 0l-1.82-1.051c-.281-.157-.442-.323-.446-.502v-2.682"/><path d="M231.679 98.913l1.82 1.052c.533.377.456.724 0 1.051l-1.82 1.052c-.607.283-1.214.31-1.82 0l-1.821-1.052c-.547-.305-.64-.647 0-1.051l1.82-1.052c.583-.337 1.189-.355 1.82 0z" fill-rule="evenodd"/></g></g><path d="M213.8 113.4l15.71-9.159c.827-.478.092-2.255-.71-1.85l-15 8.77z" fill="url(#j)" stroke="#8e5c5c" stroke-width=".139"/><g fill="#fff"><g fill-rule="evenodd" stroke="#8e5c5c" stroke-dasharray="4 4" stroke-width=".14838"><path d="M177.766 126.412l-.005 1.45c-.017.526.405.567 1.428 1.16l4.923 2.84 1.033.587c2.36 1.341 3.039 1.356 5.423-.026l23.667-13.719c1.118-.648 1.775-1.062 1.827-1.494l-.006-1.47"/><path d="M185.156 130.967c2.34 1.38 3.039 1.356 5.423-.026l23.667-13.72c2.237-1.296 2.623-1.654.026-3.103l-5.505-3.073c-2.635-1.471-3.025-1.423-5.396-.053l-23.697 13.694c-3.15 1.82-1.84 2.127-.026 3.158 2.033 1.155 3.632 2.022 5.505 3.126z"/></g><path d="M208.251 111.816v.7c.018.169.176.327.444.476l1.82 1.052c.607.31 1.214.283 1.82 0l.871-.597 1.25.692.03-2.184" fill-rule="evenodd"/><g stroke="#8e5c5c"><path d="M208.251 111.816v.7c.018.169.176.327.444.476l1.82 1.052c.607.31 1.214.283 1.82 0l.878-.507m1.312.727l.003-2.434" stroke-dasharray="4 4" stroke-width=".14838"/><path d="M212.332 110.287l1.82 1.052c.533.377.456.724 0 1.052l-1.82 1.051c-.607.284-1.214.31-1.82 0l-1.822-1.051c-.546-.305-.638-.648 0-1.052l1.821-1.052c.583-.337 1.189-.355 1.82 0z" fill-rule="evenodd" stroke-dasharray="3.9968 3.9968" stroke-width=".14823162"/></g><g><path d="M184.688 132.188l-1.398.808c-.607.284-1.215.31-1.821 0l-1.82-1.051c-.281-.157-.442-.323-.446-.503v-2.68l6.28-.018-.042.173c-.003.18.024.626-.21.794l-1.024.713-.09 1.52.503.287" fill-rule="evenodd"/><g stroke="#8e5c5c" stroke-dasharray="4 4" stroke-width=".14838"><path d="M185.475 128.746v.603c-.003.18-.137.353-.371.521l-.92.531v1.506m.497.284l-1.398.807c-.607.284-1.215.31-1.821 0l-1.82-1.051c-.281-.157-.442-.323-.446-.502v-2.682"/><path d="M183.279 127.173l1.82 1.052c.533.377.456.724 0 1.051l-1.82 1.052c-.607.283-1.214.31-1.82 0l-1.821-1.052c-.547-.305-.64-.647 0-1.051l1.82-1.052c.583-.337 1.189-.355 1.82 0z" fill-rule="evenodd"/></g></g></g><path d="M176 135.2l4.897-2.835c.827-.478.092-2.255-.71-1.85l-5.154 2.815z" fill="url(#k)" stroke="#8e5c5c" stroke-width=".139"/><path d="M155.5 124.4l5.971-3.38c.827-.478.092-2.255-.71-1.85l-5.262 2.99z" fill="url(#l)" stroke="#8e5c5c" stroke-width=".139"/><path d="M297.4 376.8l-9.427 5.443c-4.091 1.911-8.183 2.087-12.27 0l-12.27-7.087c-1.89-1.054-2.974-2.175-3-3.384v-18.07l42.32-.118-.281 1.165c-.02 1.212 1.845 4.086.267 5.22l.093 3.726-.273 9.235-5.62 4.163" fill="url(#d)" fill-rule="evenodd" transform="translate(111.802 70.13) scale(.14838)"/><g stroke="#8e5c5c" stroke-width=".14838"><path d="M156.717 122.598v2.648c.031.221-.152.391-.315.487l-1.878 1.118c-.607.283-1.214.31-1.82 0l-1.821-1.052c-.28-.156-.442-.323-.446-.502v-2.681" fill="none"/><path d="M154.52 121.025l1.821 1.051c.533.378.456.724 0 1.052l-1.82 1.052c-.607.283-1.215.31-1.821 0l-1.82-1.052c-.548-.305-.64-.648 0-1.052l1.82-1.051c.583-.337 1.189-.355 1.82 0z" fill="#d7b0ac" fill-rule="evenodd"/></g><path d="M173.6 134.2l-17.55-10.01c-.832-.47-1.989 1.066-1.233 1.551l16.86 9.746z" fill="url(#m)" stroke="#8e5c5c" stroke-width=".139"/><g><path d="M297.4 376.8l-9.427 5.443c-4.091 1.911-8.183 2.087-12.27 0l-12.27-7.087c-1.89-1.054-2.974-2.175-3-3.384v-18.07l42.32-.118-.281 1.165c-.02 1.212 1.845 4.086.267 5.22l.093 3.726-.273 9.235-5.62 4.163" fill="url(#d)" fill-rule="evenodd" transform="translate(131.802 81.21) scale(.14838)"/><g stroke="#8e5c5c" stroke-width=".14838"><path d="M176.717 133.678v2.648c.031.221-.152.391-.315.487l-1.878 1.118c-.607.283-1.214.31-1.82 0l-1.821-1.052c-.28-.156-.442-.323-.446-.502v-2.681" fill="none"/><path d="M174.52 132.105l1.821 1.051c.533.378.456.724 0 1.052l-1.82 1.052c-.607.283-1.215.31-1.821 0l-1.82-1.052c-.548-.305-.64-.648 0-1.052l1.82-1.051c.583-.337 1.189-.355 1.82 0z" fill="#d7b0ac" fill-rule="evenodd"/></g></g><path d="M145.1 130.4l7.216-4.313c.827-.478.092-2.255-.71-1.85l-6.506 3.923z" fill="url(#l)" stroke="#8e5c5c" stroke-width=".139"/><g fill="#fff"><g fill-rule="evenodd" stroke="#8e5c5c" stroke-dasharray="4 4" stroke-width=".14838"><path d="M109.766 143.182l-.005 1.45c-.017.526.405.567 1.428 1.16l4.923 2.84 1.033.587c2.36 1.341 3.039 1.356 5.423-.026l23.667-13.719c1.118-.648 1.775-1.062 1.827-1.494l-.006-1.47"/><path d="M117.156 147.737c2.34 1.38 3.039 1.356 5.423-.026l23.667-13.72c2.237-1.296 2.623-1.654.026-3.103l-5.505-3.073c-2.635-1.471-3.025-1.423-5.396-.053l-23.697 13.694c-3.15 1.82-1.84 2.127-.026 3.158 2.033 1.155 3.632 2.022 5.505 3.126z"/></g><path d="M140.251 128.586v.7c.018.169.176.327.444.476l1.82 1.052c.607.31 1.214.283 1.82 0l.871-.597 1.25.692.03-2.184" fill-rule="evenodd"/><g stroke="#8e5c5c"><path d="M140.251 128.586v.7c.018.169.176.327.444.476l1.82 1.052c.607.31 1.214.283 1.82 0l.878-.507m1.312.727l.003-2.434" stroke-dasharray="4 4" stroke-width=".14838"/><path d="M144.332 127.057l1.82 1.052c.533.377.456.724 0 1.052l-1.82 1.051c-.607.284-1.214.31-1.82 0l-1.822-1.051c-.546-.305-.638-.648 0-1.052l1.821-1.052c.583-.337 1.189-.355 1.82 0z" fill-rule="evenodd" stroke-dasharray="3.9968 3.9968" stroke-width=".14823162"/></g></g></g></svg>