<svg width="2000" height="361" viewBox="0 0 2000 361" fill="none" xmlns="http://www.w3.org/2000/svg">
<g clip-path="url(#clip0_2645_15786)">
<g opacity="0.4">
<g opacity="0.4">
<path d="M0 259.1V268.4H109.92C158.12 268.4 197.32 229 197.32 180.5C197.32 132 158.12 92.6001 109.92 92.6001C61.72 92.6001 22.52 132 22.52 180.5H31.72C31.72 170.2 33.72 159.9 37.62 150.4C41.52 140.9 47.32 132.2 54.52 124.9C61.82 117.6 70.42 111.8 79.92 107.9C89.42 103.9 99.62 101.9 109.82 101.9C120.02 101.9 130.32 103.9 139.82 107.9C149.32 111.9 157.92 117.6 165.22 124.9C172.52 132.2 178.22 140.9 182.22 150.4C186.12 160 188.12 170.2 188.12 180.5C188.12 190.8 186.12 201.1 182.22 210.6C178.32 220.1 172.52 228.8 165.22 236.1C157.92 243.4 149.32 249.2 139.82 253.2C130.32 257.1 120.12 259.2 109.82 259.2L0 259.1Z" fill="url(#paint0_linear_2645_15786)" fill-opacity="0.4"/>
<path d="M0 240.6V249.8H109.92C148.02 249.8 178.92 218.6 178.92 180.4C178.92 142.2 147.92 111 109.92 111C71.92 111 40.92 142.1 40.92 180.4H50.12C50.12 172.5 51.62 164.7 54.62 157.4C57.62 150.1 62.02 143.5 67.62 137.9C73.12 132.3 79.72 127.9 87.02 124.9C94.32 121.9 102.02 120.3 109.92 120.3C143.02 120.3 169.72 147.2 169.72 180.4C169.72 213.6 143.02 240.6 109.92 240.6H0Z" fill="url(#paint1_linear_2645_15786)" fill-opacity="0.4"/>
<path d="M0 222.1V231.4H109.92C137.82 231.4 160.52 208.6 160.52 180.5C160.52 152.4 137.82 129.6 109.92 129.6C82.02 129.6 59.32 152.4 59.32 180.5H68.52C68.52 157.4 87.02 138.9 109.92 138.9C132.82 138.9 151.32 157.5 151.32 180.5C151.32 186 150.22 191.4 148.22 196.4C146.12 201.5 143.12 206.1 139.22 209.9C135.42 213.8 130.82 216.8 125.82 218.9C120.82 221 115.42 222.1 109.92 222H0V222.1Z" fill="url(#paint2_linear_2645_15786)" fill-opacity="0.4"/>
<path d="M0 185.1V194.4H109.92C113.62 194.4 117.12 192.9 119.62 190.3C122.22 187.7 123.62 184.2 123.72 180.5C123.72 176.8 122.22 173.3 119.62 170.7C117.02 168.1 113.52 166.6 109.92 166.6C106.32 166.6 102.72 168.1 100.22 170.7C97.62 173.3 96.12 176.8 96.12 180.5H105.32C105.32 177.9 107.32 175.9 109.92 175.9C112.52 175.9 114.52 177.9 114.52 180.5C114.52 181.7 114.02 182.9 113.22 183.8C112.32 184.7 111.22 185.2 109.92 185.2L0 185.1Z" fill="url(#paint3_linear_2645_15786)" fill-opacity="0.4"/>
<path d="M0 277.6V286.9H17.92C21.62 286.9 25.12 285.4 27.62 282.8C30.12 280.2 31.62 276.7 31.72 273H22.52C22.52 275.6 20.52 277.6 17.92 277.6H0Z" fill="url(#paint4_linear_2645_15786)" fill-opacity="0.4"/>
<path d="M0 296.1V305.3H17.92C26.42 305.3 34.62 301.9 40.72 295.8C46.72 289.7 50.12 281.5 50.22 272.9H41.02C41.02 275.9 40.42 278.9 39.32 281.8C38.22 284.6 36.52 287.2 34.32 289.3C32.22 291.5 29.62 293.2 26.82 294.3C24.02 295.5 21.02 296 18.02 296H0V296.1Z" fill="url(#paint5_linear_2645_15786)" fill-opacity="0.4"/>
<path d="M0 314.7V323.9H17.92C45.82 323.9 68.52 301.1 68.52 273H59.32C59.32 278.5 58.32 283.9 56.22 288.9C54.12 294 51.12 298.6 47.22 302.4C43.42 306.3 38.82 309.3 33.82 311.4C28.82 313.5 23.42 314.6 17.92 314.5H0V314.7Z" fill="url(#paint6_linear_2645_15786)" fill-opacity="0.4"/>
<path d="M0 351.7V360.9H19.62C67.02 360 105.32 321 105.32 273H96.12C96.12 283.3 94.12 293.6 90.22 303.1C86.32 312.6 80.52 321.3 73.22 328.6C65.92 335.9 57.32 341.7 47.82 345.6C38.32 349.5 28.12 351.6 17.92 351.6H0V351.7Z" fill="url(#paint7_linear_2645_15786)" fill-opacity="0.4"/>
<path d="M5.31875 166.5C10.2388 114.19 56.2187 74 109.919 74C168.319 74 215.719 121.7 215.719 180.5C215.719 190.8 217.719 201.1 221.619 210.6C225.519 220.1 231.319 228.8 238.519 236.1C245.819 243.4 254.419 249.2 263.919 253.2C273.419 257.2 283.619 259.2 293.819 259.2H385.819C396.119 259.2 406.319 257.2 415.719 253.2C425.219 249.2 433.819 243.4 441.119 236.1C448.419 228.8 454.119 220.1 458.119 210.6C462.019 201.1 464.119 190.8 464.019 180.5C464.019 170.2 462.019 159.9 458.119 150.4C454.219 140.9 448.419 132.2 441.119 124.9C433.919 117.6 425.219 111.8 415.719 107.9C406.219 103.9 396.019 101.9 385.819 101.9C375.619 101.9 365.319 103.9 355.919 107.9C346.419 111.9 337.819 117.6 330.519 124.9C323.219 132.2 317.519 140.9 313.619 150.4C309.719 160 307.719 170.2 307.719 180.5H298.519C298.519 132 337.719 92.6 385.919 92.6C434.119 92.6 473.319 132 473.319 180.5C473.319 229 434.119 268.4 385.919 268.4H293.919C245.719 268.4 206.519 229 206.519 180.5C206.519 126.8 163.319 83.3 109.919 83.3C59.5187 83.3 16.7587 122 13.7188 171.6C13.5787 173.82 13.4188 180.5 13.4188 180.5L4.46875 180.6C4.46875 180.54 4.46875 175.6 5.31875 166.5Z" fill="url(#paint8_linear_2645_15786)" fill-opacity="0.4"/>
<path d="M196.121 212.9H202.021H207.921L205.121 203.6H199.021L196.121 212.9Z" fill="url(#paint9_linear_2645_15786)" fill-opacity="0.4"/>
<path d="M200.922 194.4H202.822L201.922 185.1L200.922 194.4Z" fill="url(#paint10_linear_2645_15786)" fill-opacity="0.4"/>
<path d="M158.42 259.1L138.52 268.4H265.22L245.42 259.1H158.42Z" fill="url(#paint11_linear_2645_15786)" fill-opacity="0.4"/>
<path d="M386.02 166.6C382.42 166.6 378.92 168.1 376.32 170.7C373.72 173.3 372.22 176.8 372.22 180.5H381.42C381.42 179.9 381.52 179.3 381.72 178.7C382.22 177.6 383.12 176.7 384.22 176.2C384.82 176 385.42 175.9 386.02 175.9C388.62 175.9 390.62 177.9 390.62 180.5C390.62 181.7 390.22 182.9 389.32 183.8C388.92 184.2 388.42 184.6 387.82 184.8C387.22 185 386.62 185.1 386.02 185.1H294.02C292.72 185.2 291.62 184.7 290.72 183.8C289.92 182.9 289.42 181.7 289.42 180.5C289.42 80.9 209.02 0 109.92 0C81.77 0 55.18 6.56 31.52 18.22C31.37 18.29 31.23 18.37 31.08 18.44C30.28 18.83 29.49 19.23 28.7 19.64C28.19 19.9 27.68 20.17 27.16 20.44C26.74 20.66 26.31 20.88 25.89 21.11C16.77 26 8.11 31.66 0 38V49.89C27.63 26.33 62.84 11.47 101.45 9.52V9.49C104.26 9.36 107.08 9.29 109.92 9.29C204.02 9.29 280.22 85.89 280.22 180.49C280.22 188.09 286.42 194.39 294.02 194.39H386.02C389.62 194.39 393.12 192.89 395.72 190.29C398.32 187.69 399.82 184.19 399.82 180.49C399.72 176.79 398.32 173.29 395.72 170.69C393.22 168.09 389.72 166.59 386.02 166.59V166.6Z" fill="url(#paint12_linear_2645_15786)" fill-opacity="0.4"/>
<path d="M510.622 227.9C503.422 224.1 495.322 222.1 487.222 222.1H468.222L462.922 231.3H487.322C495.422 231.3 503.422 233.8 510.222 238.3C517.022 242.9 522.422 249.3 525.522 256.9L528.722 243.9C524.022 237.2 517.822 231.7 510.622 227.9Z" fill="url(#paint13_linear_2645_15786)" fill-opacity="0.4"/>
<path d="M487.221 259.1H434.521L414.621 268.4H487.221C487.821 268.4 488.421 268.5 489.021 268.7C489.621 268.9 490.121 269.3 490.521 269.7C490.921 270.1 491.321 270.6 491.521 271.2C491.721 271.8 491.821 272.4 491.821 273H501.021C500.921 269.3 499.521 265.8 496.921 263.2C494.421 260.6 490.921 259.1 487.221 259.1Z" fill="url(#paint14_linear_2645_15786)" fill-opacity="0.4"/>
<path d="M186.719 231.4H201.919H217.119L211.719 222.1H201.919H192.119L186.719 231.4Z" fill="url(#paint15_linear_2645_15786)" fill-opacity="0.4"/>
<path d="M386.018 129.6C358.118 129.6 335.418 152.4 335.418 180.5H344.618C344.618 157.4 363.118 138.9 386.018 138.9C408.918 138.9 427.418 157.5 427.418 180.5C427.418 186 426.418 191.4 424.318 196.4C422.218 201.5 419.218 206.1 415.318 209.9C411.518 213.8 406.918 216.8 401.818 218.9C396.818 221 391.418 222.1 385.918 222H293.918C288.518 222 283.118 220.9 278.018 218.9C273.018 216.8 268.418 213.7 264.618 209.9C260.718 206 257.718 201.4 255.618 196.4C253.518 191.3 252.518 185.9 252.518 180.5C252.518 101.3 188.618 37 109.818 37C83.8683 37 59.5983 44.04 38.7083 56.32C38.2283 56.6 37.7583 56.88 37.2883 57.17C36.8983 57.41 36.4983 57.64 36.1083 57.88C22.3783 66.29 10.1683 76.96 -0.0117188 89.39V104.67C22.5183 71.66 59.3083 49.31 101.438 46.59C104.238 46.4 107.068 46.31 109.908 46.31C183.608 46.31 243.308 106.31 243.408 180.51C243.408 208.61 266.108 231.41 294.008 231.41H386.008C413.908 231.41 436.608 208.61 436.608 180.51C436.608 152.41 413.908 129.61 386.008 129.61L386.018 129.6Z" fill="url(#paint16_linear_2645_15786)" fill-opacity="0.4"/>
<path d="M408.82 157.5C402.82 151.4 394.62 148 386.12 148C377.62 148 369.42 151.4 363.32 157.5C357.32 163.6 353.82 171.8 353.82 180.4H363.02C363.02 167.6 373.32 157.3 386.02 157.3C398.72 157.3 409.02 167.6 409.02 180.4C409.02 193.2 398.72 203.5 386.02 203.5H294.02C291.02 203.5 288.02 202.9 285.22 201.8C282.42 200.6 279.92 198.9 277.72 196.8C275.62 194.6 273.92 192.1 272.72 189.3C271.52 186.5 271.02 183.5 271.02 180.4C271.02 91 198.82 18.5 110.02 18.5C107.14 18.5 104.29 18.58 101.45 18.74C101.37 18.74 101.28 18.75 101.2 18.76C100.06 18.82 98.93 18.89 97.8 18.98C97.8 18.98 97.78 18.98 97.77 18.98C92.81 19.36 87.92 19.96 83.1 20.78C51.27 26.18 22.58 40.98 0 62.26V75.21C25.81 47.9 61.57 30.2 101.45 27.95C104.26 27.78 107.08 27.7 109.92 27.7C193.82 27.7 261.82 96 261.72 180.4C261.72 189 265.12 197.2 271.22 203.3C277.22 209.4 285.42 212.8 294.02 212.8H386.02C394.52 212.8 402.72 209.4 408.82 203.3C414.82 197.2 418.22 189 418.32 180.4C418.32 171.8 414.92 163.6 408.82 157.5Z" fill="url(#paint17_linear_2645_15786)" fill-opacity="0.4"/>
<path d="M532.619 233.8L537.219 225.2C530.819 218.4 523.019 212.9 514.419 209.2C505.819 205.5 496.519 203.6 487.219 203.6H475.019L472.219 212.9H487.319C495.919 212.9 504.519 214.7 512.319 218.4C520.119 221.9 527.019 227.2 532.619 233.8Z" fill="url(#paint18_linear_2645_15786)" fill-opacity="0.4"/>
<path d="M478.016 185.1H487.216C510.116 185.1 532.016 194.1 548.316 210.2L542.416 217.3C528.316 203.1 508.716 194.3 487.216 194.3H477.116L478.016 185.1ZM109.816 277.6H293.916C295.116 277.6 296.316 277.1 297.216 276.3C298.116 275.4 298.516 274.2 298.516 273H307.716C307.716 276.7 306.216 280.2 303.616 282.8C301.016 285.4 297.516 286.9 293.916 286.9H108.816L109.816 277.6Z" fill="url(#paint19_linear_2645_15786)" fill-opacity="0.4"/>
<path d="M344.618 273H335.418C335.418 278.5 334.318 283.9 332.318 288.9C330.218 294 327.218 298.5 323.318 302.4C319.518 306.3 314.918 309.3 309.818 311.4C304.818 313.5 299.418 314.6 293.918 314.5H109.818C106.718 314.5 103.518 314.1 100.518 313.4L95.918 321.7C100.418 323 105.118 323.7 109.818 323.7H293.918C321.918 323.9 344.618 301.1 344.618 273Z" fill="url(#paint20_linear_2645_15786)" fill-opacity="0.4"/>
<path d="M109.92 333.1C103.32 333.1 96.7195 332 90.4195 329.9L84.0195 337.3C92.2195 340.7 101.02 342.4 109.92 342.3H294.02C332.12 342.3 363.02 311.2 363.02 272.9H353.82C353.82 280.8 352.32 288.6 349.32 295.9C346.32 303.2 341.92 309.8 336.32 315.4C330.82 321 324.22 325.4 316.92 328.4C309.62 331.4 301.92 333 294.02 332.9H109.92V333.1Z" fill="url(#paint21_linear_2645_15786)" fill-opacity="0.4"/>
<path d="M381.418 273H372.218C372.218 283.3 370.218 293.6 366.318 303.1C362.418 312.6 356.618 321.3 349.318 328.6C342.018 335.9 333.418 341.7 323.918 345.6C314.418 349.5 304.218 351.6 294.018 351.6H109.918C98.418 351.6 87.018 349.1 76.618 344.2L68.418 350.3C80.818 357 94.918 360.9 109.918 360.9H294.018C342.218 360.9 381.418 321.5 381.418 273Z" fill="url(#paint22_linear_2645_15786)" fill-opacity="0.4"/>
<path d="M352.717 344.2C363.117 349.1 374.517 351.7 386.017 351.6H524.017C534.317 351.6 544.517 349.6 554.017 345.6C563.517 341.6 572.117 335.8 579.417 328.5C586.717 321.2 592.417 312.5 596.417 303C600.317 293.4 602.417 283.2 602.317 272.9C602.317 269.2 603.817 265.7 606.417 263.1C609.017 260.5 612.517 259 616.117 259C619.717 259 623.317 260.5 625.817 263.1C628.417 265.7 629.817 269.2 629.917 272.9C629.917 276.6 628.417 280.1 625.817 282.7C623.217 285.3 619.717 286.8 616.117 286.8L617.017 277.5C619.117 277.1 620.717 275.3 620.717 273C620.717 270.4 618.717 268.4 616.117 268.4C615.517 268.4 614.917 268.5 614.317 268.7C613.717 268.9 613.217 269.3 612.817 269.7C612.417 270.1 612.017 270.6 611.817 271.2C611.617 271.8 611.517 272.4 611.517 273C611.517 320.9 573.217 360 525.817 360.9H386.117C371.617 360.9 357.317 357.3 344.617 350.3L352.717 344.2Z" fill="url(#paint23_linear_2645_15786)" fill-opacity="0.4"/>
<path d="M666.819 273C666.819 244.9 644.119 222.1 616.219 222.1C588.319 222.1 565.619 244.9 565.619 273C565.619 278.5 564.519 283.9 562.519 289C560.419 294.1 557.419 298.6 553.519 302.5C549.719 306.4 545.119 309.4 540.119 311.5C535.119 313.6 529.719 314.7 524.219 314.6H386.119C383.019 314.6 379.819 314.2 376.819 313.5L372.219 321.8C376.719 323.1 381.419 323.8 386.119 323.8H524.219C552.119 323.8 574.819 301 574.819 272.9C574.819 267.4 575.919 262 577.919 256.9C580.019 251.8 583.019 247.3 586.919 243.4C590.719 239.5 595.319 236.5 600.319 234.4C605.319 232.3 610.719 231.2 616.219 231.2C639.119 231.2 657.619 249.8 657.619 272.8C657.619 295.8 639.119 314.4 616.719 314.4C613.719 314.4 610.819 314 607.919 313.3L603.319 321.6C607.719 322.9 612.419 323.6 616.719 323.6C644.019 323.9 666.819 301.1 666.819 273Z" fill="url(#paint24_linear_2645_15786)" fill-opacity="0.4"/>
<path d="M524.02 305.4C541.72 305.4 556.22 290.9 556.22 273C556.22 239.7 583.02 212.8 616.02 212.8C649.02 212.8 675.82 239.7 675.82 273C675.82 306.3 649.12 333.1 616.52 333.2C610.12 333.2 603.72 332.1 597.62 330L591.22 337.4C599.22 340.7 607.92 342.4 616.62 342.4C654.12 342.4 685.12 311.2 685.12 273C685.12 234.8 654.12 203.6 616.12 203.6C578.12 203.6 547.12 234.7 547.12 273C547.12 276 546.52 279.1 545.42 281.9C544.22 284.7 542.52 287.3 540.42 289.4C538.32 291.5 535.72 293.3 532.92 294.4C530.12 295.6 527.12 296.2 524.12 296.1H386.12C385.12 296.1 384.12 296 383.22 295.9L380.52 304.8C382.32 305.1 384.22 305.3 386.12 305.3L524.02 305.4Z" fill="url(#paint25_linear_2645_15786)" fill-opacity="0.4"/>
<path opacity="0.4" d="M703.619 273C703.619 224.5 664.419 185.1 616.219 185.1C568.019 185.1 528.819 224.5 528.819 273C528.819 273.6 528.719 274.2 528.519 274.8C528.319 275.4 527.919 275.9 527.519 276.3C527.119 276.7 526.619 277.1 526.019 277.3C525.419 277.5 524.819 277.6 524.219 277.6H386.119L385.219 286.8H524.319C531.919 286.8 538.119 280.5 538.119 272.9C538.119 262.6 540.119 252.3 544.019 242.8C547.919 233.3 553.719 224.6 561.019 217.3C568.319 210 576.919 204.2 586.419 200.2C595.919 196.3 606.119 194.2 616.419 194.2C626.719 194.2 636.919 196.2 646.319 200.2C655.819 204.2 664.419 210 671.719 217.3C679.019 224.6 684.719 233.3 688.719 242.8C692.619 252.4 694.619 262.6 694.619 272.9C694.619 316.4 659.619 351.6 616.919 351.5C605.619 351.5 594.419 348.9 584.119 344.1L575.919 350.2C588.319 356.9 602.419 360.8 616.919 360.8C664.419 360.9 703.619 321.5 703.619 273Z" fill="url(#paint26_linear_2645_15786)"/>
</g>
</g>
<g opacity="0.4">
<g opacity="0.4">
<path d="M2000 259.1V268.4H1890.08C1841.88 268.4 1802.68 229 1802.68 180.5C1802.68 132 1841.88 92.6001 1890.08 92.6001C1938.28 92.6001 1977.48 132 1977.48 180.5H1968.28C1968.28 170.2 1966.28 159.9 1962.38 150.4C1958.48 140.9 1952.68 132.2 1945.48 124.9C1938.18 117.6 1929.58 111.8 1920.08 107.9C1910.58 103.9 1900.38 101.9 1890.18 101.9C1879.98 101.9 1869.68 103.9 1860.18 107.9C1850.68 111.9 1842.08 117.6 1834.78 124.9C1827.48 132.2 1821.78 140.9 1817.78 150.4C1813.88 160 1811.88 170.2 1811.88 180.5C1811.88 190.8 1813.88 201.1 1817.78 210.6C1821.68 220.1 1827.48 228.8 1834.78 236.1C1842.08 243.4 1850.68 249.2 1860.18 253.2C1869.68 257.1 1879.88 259.2 1890.18 259.2L2000 259.1Z" fill="url(#paint27_linear_2645_15786)" fill-opacity="0.4"/>
<path d="M2000 240.6V249.8H1890.08C1851.98 249.8 1821.08 218.6 1821.08 180.4C1821.08 142.2 1852.08 111 1890.08 111C1928.08 111 1959.08 142.1 1959.08 180.4H1949.88C1949.88 172.5 1948.38 164.7 1945.38 157.4C1942.38 150.1 1937.98 143.5 1932.38 137.9C1926.88 132.3 1920.28 127.9 1912.98 124.9C1905.68 121.9 1897.98 120.3 1890.08 120.3C1856.98 120.3 1830.28 147.2 1830.28 180.4C1830.28 213.6 1856.98 240.6 1890.08 240.6H2000Z" fill="url(#paint28_linear_2645_15786)" fill-opacity="0.4"/>
<path d="M2000 222.1V231.4H1890.08C1862.18 231.4 1839.48 208.6 1839.48 180.5C1839.48 152.4 1862.18 129.6 1890.08 129.6C1917.98 129.6 1940.68 152.4 1940.68 180.5H1931.48C1931.48 157.4 1912.98 138.9 1890.08 138.9C1867.18 138.9 1848.68 157.5 1848.68 180.5C1848.68 186 1849.78 191.4 1851.78 196.4C1853.88 201.5 1856.88 206.1 1860.78 209.9C1864.58 213.8 1869.18 216.8 1874.18 218.9C1879.18 221 1884.58 222.1 1890.08 222H2000V222.1Z" fill="url(#paint29_linear_2645_15786)" fill-opacity="0.4"/>
<path d="M2000 185.1V194.4H1890.08C1886.38 194.4 1882.88 192.9 1880.38 190.3C1877.78 187.7 1876.38 184.2 1876.28 180.5C1876.28 176.8 1877.78 173.3 1880.38 170.7C1882.98 168.1 1886.48 166.6 1890.08 166.6C1893.68 166.6 1897.28 168.1 1899.78 170.7C1902.38 173.3 1903.88 176.8 1903.88 180.5H1894.68C1894.68 177.9 1892.68 175.9 1890.08 175.9C1887.48 175.9 1885.48 177.9 1885.48 180.5C1885.48 181.7 1885.98 182.9 1886.78 183.8C1887.68 184.7 1888.78 185.2 1890.08 185.2L2000 185.1Z" fill="url(#paint30_linear_2645_15786)" fill-opacity="0.4"/>
<path d="M2000 277.6V286.9H1982.08C1978.38 286.9 1974.88 285.4 1972.38 282.8C1969.88 280.2 1968.38 276.7 1968.28 273H1977.48C1977.48 275.6 1979.48 277.6 1982.08 277.6H2000Z" fill="url(#paint31_linear_2645_15786)" fill-opacity="0.4"/>
<path d="M2000 296.1V305.3H1982.08C1973.58 305.3 1965.38 301.9 1959.28 295.8C1953.28 289.7 1949.88 281.5 1949.78 272.9H1958.98C1958.98 275.9 1959.58 278.9 1960.68 281.8C1961.78 284.6 1963.48 287.2 1965.68 289.3C1967.78 291.5 1970.38 293.2 1973.18 294.3C1975.98 295.5 1978.98 296 1981.98 296H2000V296.1Z" fill="url(#paint32_linear_2645_15786)" fill-opacity="0.4"/>
<path d="M2000 314.7V323.9H1982.08C1954.18 323.9 1931.48 301.1 1931.48 273H1940.68C1940.68 278.5 1941.68 283.9 1943.78 288.9C1945.88 294 1948.88 298.6 1952.78 302.4C1956.58 306.3 1961.18 309.3 1966.18 311.4C1971.18 313.5 1976.58 314.6 1982.08 314.5H2000V314.7Z" fill="url(#paint33_linear_2645_15786)" fill-opacity="0.4"/>
<path d="M2000 351.7V360.9H1980.38C1932.98 360 1894.68 321 1894.68 273H1903.88C1903.88 283.3 1905.88 293.6 1909.78 303.1C1913.68 312.6 1919.48 321.3 1926.78 328.6C1934.08 335.9 1942.68 341.7 1952.18 345.6C1961.68 349.5 1971.88 351.6 1982.08 351.6H2000V351.7Z" fill="url(#paint34_linear_2645_15786)" fill-opacity="0.4"/>
<path d="M1994.68 166.5C1989.76 114.19 1943.78 74 1890.08 74C1831.68 74 1784.28 121.7 1784.28 180.5C1784.28 190.8 1782.28 201.1 1778.38 210.6C1774.48 220.1 1768.68 228.8 1761.48 236.1C1754.18 243.4 1745.58 249.2 1736.08 253.2C1726.58 257.2 1716.38 259.2 1706.18 259.2H1614.18C1603.88 259.2 1593.68 257.2 1584.28 253.2C1574.78 249.2 1566.18 243.4 1558.88 236.1C1551.58 228.8 1545.88 220.1 1541.88 210.6C1537.98 201.1 1535.88 190.8 1535.98 180.5C1535.98 170.2 1537.98 159.9 1541.88 150.4C1545.78 140.9 1551.58 132.2 1558.88 124.9C1566.08 117.6 1574.78 111.8 1584.28 107.9C1593.78 103.9 1603.98 101.9 1614.18 101.9C1624.38 101.9 1634.68 103.9 1644.08 107.9C1653.58 111.9 1662.18 117.6 1669.48 124.9C1676.78 132.2 1682.48 140.9 1686.38 150.4C1690.28 160 1692.28 170.2 1692.28 180.5H1701.48C1701.48 132 1662.28 92.6 1614.08 92.6C1565.88 92.6 1526.68 132 1526.68 180.5C1526.68 229 1565.88 268.4 1614.08 268.4H1706.08C1754.28 268.4 1793.48 229 1793.48 180.5C1793.48 126.8 1836.68 83.3 1890.08 83.3C1940.48 83.3 1983.24 122 1986.28 171.6C1986.42 173.82 1986.58 180.5 1986.58 180.5L1995.53 180.6C1995.53 180.54 1995.53 175.6 1994.68 166.5Z" fill="url(#paint35_linear_2645_15786)" fill-opacity="0.4"/>
<path d="M1803.88 212.9H1797.98H1792.08L1794.88 203.6H1800.98L1803.88 212.9Z" fill="url(#paint36_linear_2645_15786)" fill-opacity="0.4"/>
<path d="M1799.08 194.4H1797.18L1798.08 185.1L1799.08 194.4Z" fill="url(#paint37_linear_2645_15786)" fill-opacity="0.4"/>
<path d="M1841.58 259.1L1861.48 268.4H1734.78L1754.58 259.1H1841.58Z" fill="url(#paint38_linear_2645_15786)" fill-opacity="0.4"/>
<path d="M1613.98 166.6C1617.58 166.6 1621.08 168.1 1623.68 170.7C1626.28 173.3 1627.78 176.8 1627.78 180.5H1618.58C1618.58 179.9 1618.48 179.3 1618.28 178.7C1617.78 177.6 1616.88 176.7 1615.78 176.2C1615.18 176 1614.58 175.9 1613.98 175.9C1611.38 175.9 1609.38 177.9 1609.38 180.5C1609.38 181.7 1609.78 182.9 1610.68 183.8C1611.08 184.2 1611.58 184.6 1612.18 184.8C1612.78 185 1613.38 185.1 1613.98 185.1H1705.98C1707.28 185.2 1708.38 184.7 1709.28 183.8C1710.08 182.9 1710.58 181.7 1710.58 180.5C1710.58 80.9 1790.98 0 1890.08 0C1918.23 0 1944.82 6.56 1968.48 18.22C1968.63 18.29 1968.77 18.37 1968.92 18.44C1969.72 18.83 1970.51 19.23 1971.3 19.64C1971.81 19.9 1972.32 20.17 1972.84 20.44C1973.26 20.66 1973.69 20.88 1974.11 21.11C1983.24 26 1991.9 31.66 2000.01 38.01V49.9C1972.38 26.34 1937.17 11.48 1898.56 9.53V9.5C1895.75 9.37 1892.93 9.3 1890.09 9.3C1795.99 9.3 1719.79 85.9 1719.79 180.5C1719.79 188.1 1713.59 194.4 1705.99 194.4H1613.99C1610.39 194.4 1606.89 192.9 1604.29 190.3C1601.69 187.7 1600.19 184.2 1600.19 180.5C1600.29 176.8 1601.69 173.3 1604.29 170.7C1606.79 168.1 1610.29 166.6 1613.99 166.6H1613.98Z" fill="url(#paint39_linear_2645_15786)" fill-opacity="0.4"/>
<path d="M1489.38 227.9C1496.58 224.1 1504.68 222.1 1512.78 222.1H1531.78L1537.08 231.3H1512.68C1504.58 231.3 1496.58 233.8 1489.78 238.3C1482.98 242.9 1477.58 249.3 1474.48 256.9L1471.28 243.9C1475.98 237.2 1482.18 231.7 1489.38 227.9Z" fill="url(#paint40_linear_2645_15786)" fill-opacity="0.4"/>
<path d="M1512.78 259.1H1565.48L1585.38 268.4H1512.78C1512.18 268.4 1511.58 268.5 1510.98 268.7C1510.38 268.9 1509.88 269.3 1509.48 269.7C1509.08 270.1 1508.68 270.6 1508.48 271.2C1508.28 271.8 1508.18 272.4 1508.18 273H1498.98C1499.08 269.3 1500.48 265.8 1503.08 263.2C1505.58 260.6 1509.08 259.1 1512.78 259.1Z" fill="url(#paint41_linear_2645_15786)" fill-opacity="0.4"/>
<path d="M1813.28 231.4H1798.08H1782.88L1788.28 222.1H1798.08H1807.88L1813.28 231.4Z" fill="url(#paint42_linear_2645_15786)" fill-opacity="0.4"/>
<path d="M1613.98 129.6C1641.88 129.6 1664.58 152.4 1664.58 180.5H1655.38C1655.38 157.4 1636.88 138.9 1613.98 138.9C1591.08 138.9 1572.58 157.5 1572.58 180.5C1572.58 186 1573.58 191.4 1575.68 196.4C1577.78 201.5 1580.78 206.1 1584.68 209.9C1588.48 213.8 1593.08 216.8 1598.18 218.9C1603.18 221 1608.58 222.1 1614.08 222H1706.08C1711.48 222 1716.88 220.9 1721.98 218.9C1726.98 216.8 1731.58 213.7 1735.38 209.9C1739.28 206 1742.28 201.4 1744.38 196.4C1746.48 191.3 1747.48 185.9 1747.48 180.5C1747.48 101.3 1811.38 37 1890.18 37C1916.13 37 1940.4 44.04 1961.29 56.32C1961.77 56.6 1962.24 56.88 1962.71 57.17C1963.1 57.41 1963.5 57.64 1963.89 57.88C1977.62 66.29 1989.83 76.96 2000.01 89.39V104.67C1977.48 71.66 1940.69 49.31 1898.56 46.59C1895.76 46.4 1892.93 46.31 1890.09 46.31C1816.39 46.31 1756.69 106.31 1756.59 180.51C1756.59 208.61 1733.89 231.41 1705.99 231.41H1613.99C1586.09 231.41 1563.39 208.61 1563.39 180.51C1563.39 152.41 1586.09 129.61 1613.99 129.61L1613.98 129.6Z" fill="url(#paint43_linear_2645_15786)" fill-opacity="0.4"/>
<path d="M1591.18 157.5C1597.18 151.4 1605.38 148 1613.88 148C1622.38 148 1630.58 151.4 1636.68 157.5C1642.68 163.6 1646.18 171.8 1646.18 180.4H1636.98C1636.98 167.6 1626.68 157.3 1613.98 157.3C1601.28 157.3 1590.98 167.6 1590.98 180.4C1590.98 193.2 1601.28 203.5 1613.98 203.5H1705.98C1708.98 203.5 1711.98 202.9 1714.78 201.8C1717.58 200.6 1720.08 198.9 1722.28 196.8C1724.38 194.6 1726.08 192.1 1727.28 189.3C1728.48 186.5 1728.98 183.5 1728.98 180.4C1728.98 91 1801.18 18.5 1889.98 18.5C1892.86 18.5 1895.71 18.58 1898.55 18.74C1898.63 18.74 1898.72 18.75 1898.8 18.76C1899.94 18.82 1901.07 18.89 1902.2 18.98C1902.2 18.98 1902.22 18.98 1902.23 18.98C1907.19 19.36 1912.08 19.96 1916.9 20.78C1948.73 26.19 1977.41 40.99 2000 62.27V75.22C1974.19 47.91 1938.43 30.21 1898.55 27.96C1895.74 27.79 1892.92 27.71 1890.08 27.71C1806.18 27.71 1738.18 96.01 1738.28 180.41C1738.28 189.01 1734.88 197.21 1728.78 203.31C1722.78 209.41 1714.58 212.81 1705.98 212.81H1613.98C1605.48 212.81 1597.28 209.41 1591.18 203.31C1585.18 197.21 1581.78 189.01 1581.68 180.41C1581.68 171.81 1585.08 163.61 1591.18 157.51V157.5Z" fill="url(#paint44_linear_2645_15786)" fill-opacity="0.4"/>
<path d="M1467.38 233.8L1462.78 225.2C1469.18 218.4 1476.98 212.9 1485.58 209.2C1494.18 205.5 1503.48 203.6 1512.78 203.6H1524.98L1527.78 212.9H1512.68C1504.08 212.9 1495.48 214.7 1487.68 218.4C1479.88 221.9 1472.98 227.2 1467.38 233.8Z" fill="url(#paint45_linear_2645_15786)" fill-opacity="0.4"/>
<path d="M1521.98 185.1H1512.78C1489.88 185.1 1467.98 194.1 1451.68 210.2L1457.58 217.3C1471.68 203.1 1491.28 194.3 1512.78 194.3H1522.88L1521.98 185.1ZM1890.18 277.6H1706.08C1704.88 277.6 1703.68 277.1 1702.78 276.3C1701.88 275.4 1701.48 274.2 1701.48 273H1692.28C1692.28 276.7 1693.78 280.2 1696.38 282.8C1698.98 285.4 1702.48 286.9 1706.08 286.9H1891.18L1890.18 277.6Z" fill="url(#paint46_linear_2645_15786)" fill-opacity="0.4"/>
<path d="M1655.38 273H1664.58C1664.58 278.5 1665.68 283.9 1667.68 288.9C1669.78 294 1672.78 298.5 1676.68 302.4C1680.48 306.3 1685.08 309.3 1690.18 311.4C1695.18 313.5 1700.58 314.6 1706.08 314.5H1890.18C1893.28 314.5 1896.48 314.1 1899.48 313.4L1904.08 321.7C1899.58 323 1894.88 323.7 1890.18 323.7H1706.08C1678.08 323.9 1655.38 301.1 1655.38 273Z" fill="url(#paint47_linear_2645_15786)" fill-opacity="0.4"/>
<path d="M1890.08 333.1C1896.68 333.1 1903.28 332 1909.58 329.9L1915.98 337.3C1907.78 340.7 1898.98 342.4 1890.08 342.3H1705.98C1667.88 342.3 1636.98 311.2 1636.98 272.9H1646.18C1646.18 280.8 1647.68 288.6 1650.68 295.9C1653.68 303.2 1658.08 309.8 1663.68 315.4C1669.18 321 1675.78 325.4 1683.08 328.4C1690.38 331.4 1698.08 333 1705.98 332.9H1890.08V333.1Z" fill="url(#paint48_linear_2645_15786)" fill-opacity="0.4"/>
<path d="M1618.58 273H1627.78C1627.78 283.3 1629.78 293.6 1633.68 303.1C1637.58 312.6 1643.38 321.3 1650.68 328.6C1657.98 335.9 1666.58 341.7 1676.08 345.6C1685.58 349.5 1695.78 351.6 1705.98 351.6H1890.08C1901.58 351.6 1912.98 349.1 1923.38 344.2L1931.58 350.3C1919.18 357 1905.08 360.9 1890.08 360.9H1705.98C1657.78 360.9 1618.58 321.5 1618.58 273Z" fill="url(#paint49_linear_2645_15786)" fill-opacity="0.4"/>
<path d="M1647.28 344.2C1636.88 349.1 1625.48 351.7 1613.98 351.6H1475.98C1465.68 351.6 1455.48 349.6 1445.98 345.6C1436.48 341.6 1427.88 335.8 1420.58 328.5C1413.28 321.2 1407.58 312.5 1403.58 303C1399.68 293.4 1397.58 283.2 1397.68 272.9C1397.68 269.2 1396.18 265.7 1393.58 263.1C1390.98 260.5 1387.48 259 1383.88 259C1380.28 259 1376.68 260.5 1374.18 263.1C1371.58 265.7 1370.18 269.2 1370.08 272.9C1370.08 276.6 1371.58 280.1 1374.18 282.7C1376.78 285.3 1380.28 286.8 1383.88 286.8L1382.98 277.5C1380.88 277.1 1379.28 275.3 1379.28 273C1379.28 270.4 1381.28 268.4 1383.88 268.4C1384.48 268.4 1385.08 268.5 1385.68 268.7C1386.28 268.9 1386.78 269.3 1387.18 269.7C1387.58 270.1 1387.98 270.6 1388.18 271.2C1388.38 271.8 1388.48 272.4 1388.48 273C1388.48 320.9 1426.78 360 1474.18 360.9H1613.88C1628.38 360.9 1642.68 357.3 1655.38 350.3L1647.28 344.2Z" fill="url(#paint50_linear_2645_15786)" fill-opacity="0.4"/>
<path d="M1333.18 273C1333.18 244.9 1355.88 222.1 1383.78 222.1C1411.68 222.1 1434.38 244.9 1434.38 273C1434.38 278.5 1435.48 283.9 1437.48 289C1439.58 294.1 1442.58 298.6 1446.48 302.5C1450.28 306.4 1454.88 309.4 1459.88 311.5C1464.88 313.6 1470.28 314.7 1475.78 314.6H1613.88C1616.98 314.6 1620.18 314.2 1623.18 313.5L1627.78 321.8C1623.28 323.1 1618.58 323.8 1613.88 323.8H1475.78C1447.88 323.8 1425.18 301 1425.18 272.9C1425.18 267.4 1424.08 262 1422.08 256.9C1419.98 251.8 1416.98 247.3 1413.08 243.4C1409.28 239.5 1404.68 236.5 1399.68 234.4C1394.68 232.3 1389.28 231.2 1383.78 231.2C1360.88 231.2 1342.38 249.8 1342.38 272.8C1342.38 295.8 1360.88 314.4 1383.28 314.4C1386.28 314.4 1389.18 314 1392.08 313.3L1396.68 321.6C1392.28 322.9 1387.58 323.6 1383.28 323.6C1355.98 323.9 1333.18 301.1 1333.18 273Z" fill="url(#paint51_linear_2645_15786)" fill-opacity="0.4"/>
<path d="M1475.98 305.4C1458.28 305.4 1443.78 290.9 1443.78 273C1443.78 239.7 1416.98 212.8 1383.98 212.8C1350.98 212.8 1324.18 239.7 1324.18 273C1324.18 306.3 1350.88 333.1 1383.48 333.2C1389.88 333.2 1396.28 332.1 1402.38 330L1408.78 337.4C1400.78 340.7 1392.08 342.4 1383.38 342.4C1345.88 342.4 1314.88 311.2 1314.88 273C1314.88 234.8 1345.88 203.6 1383.88 203.6C1421.88 203.6 1452.88 234.7 1452.88 273C1452.88 276 1453.48 279.1 1454.58 281.9C1455.78 284.7 1457.48 287.3 1459.58 289.4C1461.68 291.5 1464.28 293.3 1467.08 294.4C1469.88 295.6 1472.88 296.2 1475.88 296.1H1613.88C1614.88 296.1 1615.88 296 1616.78 295.9L1619.48 304.8C1617.68 305.1 1615.78 305.3 1613.88 305.3L1475.98 305.4Z" fill="url(#paint52_linear_2645_15786)" fill-opacity="0.4"/>
<path opacity="0.4" d="M1296.38 273C1296.38 224.5 1335.58 185.1 1383.78 185.1C1431.98 185.1 1471.18 224.5 1471.18 273C1471.18 273.6 1471.28 274.2 1471.48 274.8C1471.68 275.4 1472.08 275.9 1472.48 276.3C1472.88 276.7 1473.38 277.1 1473.98 277.3C1474.58 277.5 1475.18 277.6 1475.78 277.6H1613.88L1614.78 286.8H1475.68C1468.08 286.8 1461.88 280.5 1461.88 272.9C1461.88 262.6 1459.88 252.3 1455.98 242.8C1452.08 233.3 1446.28 224.6 1438.98 217.3C1431.68 210 1423.08 204.2 1413.58 200.2C1404.08 196.3 1393.88 194.2 1383.58 194.2C1373.28 194.2 1363.08 196.2 1353.68 200.2C1344.18 204.2 1335.58 210 1328.28 217.3C1320.98 224.6 1315.28 233.3 1311.28 242.8C1307.38 252.4 1305.38 262.6 1305.38 272.9C1305.38 316.4 1340.38 351.6 1383.08 351.5C1394.38 351.5 1405.58 348.9 1415.88 344.1L1424.08 350.2C1411.68 356.9 1397.58 360.8 1383.08 360.8C1335.58 360.9 1296.38 321.5 1296.38 273Z" fill="url(#paint53_linear_2645_15786)"/>
</g>
</g>
</g>
<defs>
<linearGradient id="paint0_linear_2645_15786" x1="209.74" y1="339.94" x2="9.90002" y2="103.17" gradientUnits="userSpaceOnUse">
<stop stop-color="#49D7DB"/>
<stop offset="1" stop-color="#344153"/>
</linearGradient>
<linearGradient id="paint1_linear_2645_15786" x1="180.42" y1="332.35" x2="29.33" y2="119.19" gradientUnits="userSpaceOnUse">
<stop stop-color="#49D7DB"/>
<stop offset="1" stop-color="#344153"/>
</linearGradient>
<linearGradient id="paint2_linear_2645_15786" x1="140.95" y1="309.76" x2="46.3" y2="137.64" gradientUnits="userSpaceOnUse">
<stop stop-color="#49D7DB"/>
<stop offset="1" stop-color="#344153"/>
</linearGradient>
<linearGradient id="paint3_linear_2645_15786" x1="66.29" y1="213.72" x2="59.62" y2="173.31" gradientUnits="userSpaceOnUse">
<stop stop-color="#49D7DB"/>
<stop offset="1" stop-color="#344153"/>
</linearGradient>
<linearGradient id="paint4_linear_2645_15786" x1="19.72" y1="288.56" x2="12.26" y2="271.93" gradientUnits="userSpaceOnUse">
<stop stop-color="#49D7DB"/>
<stop offset="1" stop-color="#344153"/>
</linearGradient>
<linearGradient id="paint5_linear_2645_15786" x1="31.52" y1="303.85" x2="21.5" y2="280.78" gradientUnits="userSpaceOnUse">
<stop stop-color="#49D7DB"/>
<stop offset="1" stop-color="#344153"/>
</linearGradient>
<linearGradient id="paint6_linear_2645_15786" x1="43.32" y1="319.95" x2="28.37" y2="284.47" gradientUnits="userSpaceOnUse">
<stop stop-color="#49D7DB"/>
<stop offset="1" stop-color="#344153"/>
</linearGradient>
<linearGradient id="paint7_linear_2645_15786" x1="72.33" y1="357.55" x2="44.2" y2="299.48" gradientUnits="userSpaceOnUse">
<stop stop-color="#49D7DB"/>
<stop offset="1" stop-color="#344153"/>
</linearGradient>
<linearGradient id="paint8_linear_2645_15786" x1="221.549" y1="11" x2="276.249" y2="538.27" gradientUnits="userSpaceOnUse">
<stop stop-color="#49D7DB"/>
<stop offset="1" stop-color="#344153"/>
</linearGradient>
<linearGradient id="paint9_linear_2645_15786" x1="198.641" y1="217.28" x2="205.941" y2="203.63" gradientUnits="userSpaceOnUse">
<stop stop-color="#49D7DB"/>
<stop offset="1" stop-color="#344153"/>
</linearGradient>
<linearGradient id="paint10_linear_2645_15786" x1="199.242" y1="195.62" x2="204.332" y2="186.1" gradientUnits="userSpaceOnUse">
<stop stop-color="#49D7DB"/>
<stop offset="1" stop-color="#344153"/>
</linearGradient>
<linearGradient id="paint11_linear_2645_15786" x1="181.73" y1="306.07" x2="216.779" y2="240.52" gradientUnits="userSpaceOnUse">
<stop stop-color="#49D7DB"/>
<stop offset="1" stop-color="#344153"/>
</linearGradient>
<linearGradient id="paint12_linear_2645_15786" x1="169.01" y1="168.78" x2="237.61" y2="40.45" gradientUnits="userSpaceOnUse">
<stop stop-color="#49D7DB"/>
<stop offset="1" stop-color="#344153"/>
</linearGradient>
<linearGradient id="paint13_linear_2645_15786" x1="490.002" y1="252" x2="504.952" y2="224.03" gradientUnits="userSpaceOnUse">
<stop stop-color="#49D7DB"/>
<stop offset="1" stop-color="#344153"/>
</linearGradient>
<linearGradient id="paint14_linear_2645_15786" x1="444.711" y1="295.23" x2="470.541" y2="246.91" gradientUnits="userSpaceOnUse">
<stop stop-color="#49D7DB"/>
<stop offset="1" stop-color="#344153"/>
</linearGradient>
<linearGradient id="paint15_linear_2645_15786" x1="196.519" y1="241.51" x2="208.239" y2="219.58" gradientUnits="userSpaceOnUse">
<stop stop-color="#49D7DB"/>
<stop offset="1" stop-color="#344153"/>
</linearGradient>
<linearGradient id="paint16_linear_2645_15786" x1="168.198" y1="235.08" x2="265.558" y2="52.97" gradientUnits="userSpaceOnUse">
<stop stop-color="#49D7DB"/>
<stop offset="1" stop-color="#344153"/>
</linearGradient>
<linearGradient id="paint17_linear_2645_15786" x1="171.17" y1="196.39" x2="242.51" y2="62.93" gradientUnits="userSpaceOnUse">
<stop stop-color="#49D7DB"/>
<stop offset="1" stop-color="#344153"/>
</linearGradient>
<linearGradient id="paint18_linear_2645_15786" x1="489.079" y1="193.28" x2="520.019" y2="244.25" gradientUnits="userSpaceOnUse">
<stop stop-color="#49D7DB"/>
<stop offset="1" stop-color="#344153"/>
</linearGradient>
<linearGradient id="paint19_linear_2645_15786" x1="300.576" y1="156.38" x2="358.836" y2="348.22" gradientUnits="userSpaceOnUse">
<stop stop-color="#49D7DB"/>
<stop offset="1" stop-color="#344153"/>
</linearGradient>
<linearGradient id="paint20_linear_2645_15786" x1="205.918" y1="243.64" x2="235.188" y2="353.16" gradientUnits="userSpaceOnUse">
<stop stop-color="#49D7DB"/>
<stop offset="1" stop-color="#344153"/>
</linearGradient>
<linearGradient id="paint21_linear_2645_15786" x1="200.78" y1="235.11" x2="247.8" y2="379.83" gradientUnits="userSpaceOnUse">
<stop stop-color="#49D7DB"/>
<stop offset="1" stop-color="#344153"/>
</linearGradient>
<linearGradient id="paint22_linear_2645_15786" x1="193.878" y1="227" x2="259.388" y2="405.66" gradientUnits="userSpaceOnUse">
<stop stop-color="#49D7DB"/>
<stop offset="1" stop-color="#344153"/>
</linearGradient>
<linearGradient id="paint23_linear_2645_15786" x1="476.317" y1="262.03" x2="499.527" y2="365.67" gradientUnits="userSpaceOnUse">
<stop stop-color="#49D7DB"/>
<stop offset="1" stop-color="#344153"/>
</linearGradient>
<linearGradient id="paint24_linear_2645_15786" x1="468.419" y1="178.65" x2="556.439" y2="373.7" gradientUnits="userSpaceOnUse">
<stop stop-color="#49D7DB"/>
<stop offset="1" stop-color="#344153"/>
</linearGradient>
<linearGradient id="paint25_linear_2645_15786" x1="459.67" y1="156.38" x2="600.37" y2="392.85" gradientUnits="userSpaceOnUse">
<stop stop-color="#49D7DB"/>
<stop offset="1" stop-color="#344153"/>
</linearGradient>
<linearGradient id="paint26_linear_2645_15786" x1="385.219" y1="272.95" x2="703.619" y2="272.95" gradientUnits="userSpaceOnUse">
<stop stop-color="#49D7DB"/>
<stop offset="1" stop-color="#344153"/>
</linearGradient>
<linearGradient id="paint27_linear_2645_15786" x1="1790.26" y1="339.94" x2="1990.1" y2="103.17" gradientUnits="userSpaceOnUse">
<stop stop-color="#49D7DB"/>
<stop offset="1" stop-color="#344153"/>
</linearGradient>
<linearGradient id="paint28_linear_2645_15786" x1="1819.58" y1="332.35" x2="1970.66" y2="119.19" gradientUnits="userSpaceOnUse">
<stop stop-color="#49D7DB"/>
<stop offset="1" stop-color="#344153"/>
</linearGradient>
<linearGradient id="paint29_linear_2645_15786" x1="1859.05" y1="309.76" x2="1953.7" y2="137.64" gradientUnits="userSpaceOnUse">
<stop stop-color="#49D7DB"/>
<stop offset="1" stop-color="#344153"/>
</linearGradient>
<linearGradient id="paint30_linear_2645_15786" x1="1933.71" y1="213.72" x2="1940.38" y2="173.31" gradientUnits="userSpaceOnUse">
<stop stop-color="#49D7DB"/>
<stop offset="1" stop-color="#344153"/>
</linearGradient>
<linearGradient id="paint31_linear_2645_15786" x1="1980.28" y1="288.56" x2="1987.74" y2="271.93" gradientUnits="userSpaceOnUse">
<stop stop-color="#49D7DB"/>
<stop offset="1" stop-color="#344153"/>
</linearGradient>
<linearGradient id="paint32_linear_2645_15786" x1="1968.48" y1="303.85" x2="1978.5" y2="280.78" gradientUnits="userSpaceOnUse">
<stop stop-color="#49D7DB"/>
<stop offset="1" stop-color="#344153"/>
</linearGradient>
<linearGradient id="paint33_linear_2645_15786" x1="1956.68" y1="319.95" x2="1971.63" y2="284.47" gradientUnits="userSpaceOnUse">
<stop stop-color="#49D7DB"/>
<stop offset="1" stop-color="#344153"/>
</linearGradient>
<linearGradient id="paint34_linear_2645_15786" x1="1927.66" y1="357.55" x2="1955.8" y2="299.48" gradientUnits="userSpaceOnUse">
<stop stop-color="#49D7DB"/>
<stop offset="1" stop-color="#344153"/>
</linearGradient>
<linearGradient id="paint35_linear_2645_15786" x1="1778.45" y1="11" x2="1723.75" y2="538.27" gradientUnits="userSpaceOnUse">
<stop stop-color="#49D7DB"/>
<stop offset="1" stop-color="#344153"/>
</linearGradient>
<linearGradient id="paint36_linear_2645_15786" x1="1801.35" y1="217.28" x2="1794.05" y2="203.63" gradientUnits="userSpaceOnUse">
<stop stop-color="#49D7DB"/>
<stop offset="1" stop-color="#344153"/>
</linearGradient>
<linearGradient id="paint37_linear_2645_15786" x1="1800.76" y1="195.62" x2="1795.67" y2="186.1" gradientUnits="userSpaceOnUse">
<stop stop-color="#49D7DB"/>
<stop offset="1" stop-color="#344153"/>
</linearGradient>
<linearGradient id="paint38_linear_2645_15786" x1="1818.27" y1="306.07" x2="1783.22" y2="240.52" gradientUnits="userSpaceOnUse">
<stop stop-color="#49D7DB"/>
<stop offset="1" stop-color="#344153"/>
</linearGradient>
<linearGradient id="paint39_linear_2645_15786" x1="1830.99" y1="168.78" x2="1762.39" y2="40.45" gradientUnits="userSpaceOnUse">
<stop stop-color="#49D7DB"/>
<stop offset="1" stop-color="#344153"/>
</linearGradient>
<linearGradient id="paint40_linear_2645_15786" x1="1510" y1="252" x2="1495.04" y2="224.03" gradientUnits="userSpaceOnUse">
<stop stop-color="#49D7DB"/>
<stop offset="1" stop-color="#344153"/>
</linearGradient>
<linearGradient id="paint41_linear_2645_15786" x1="1555.29" y1="295.23" x2="1529.46" y2="246.91" gradientUnits="userSpaceOnUse">
<stop stop-color="#49D7DB"/>
<stop offset="1" stop-color="#344153"/>
</linearGradient>
<linearGradient id="paint42_linear_2645_15786" x1="1803.48" y1="241.51" x2="1791.76" y2="219.58" gradientUnits="userSpaceOnUse">
<stop stop-color="#49D7DB"/>
<stop offset="1" stop-color="#344153"/>
</linearGradient>
<linearGradient id="paint43_linear_2645_15786" x1="1831.79" y1="235.08" x2="1734.44" y2="52.97" gradientUnits="userSpaceOnUse">
<stop stop-color="#49D7DB"/>
<stop offset="1" stop-color="#344153"/>
</linearGradient>
<linearGradient id="paint44_linear_2645_15786" x1="1828.83" y1="196.39" x2="1757.48" y2="62.93" gradientUnits="userSpaceOnUse">
<stop stop-color="#49D7DB"/>
<stop offset="1" stop-color="#344153"/>
</linearGradient>
<linearGradient id="paint45_linear_2645_15786" x1="1510.91" y1="193.28" x2="1479.98" y2="244.25" gradientUnits="userSpaceOnUse">
<stop stop-color="#49D7DB"/>
<stop offset="1" stop-color="#344153"/>
</linearGradient>
<linearGradient id="paint46_linear_2645_15786" x1="1699.42" y1="156.38" x2="1641.15" y2="348.22" gradientUnits="userSpaceOnUse">
<stop stop-color="#49D7DB"/>
<stop offset="1" stop-color="#344153"/>
</linearGradient>
<linearGradient id="paint47_linear_2645_15786" x1="1794.08" y1="243.64" x2="1764.81" y2="353.16" gradientUnits="userSpaceOnUse">
<stop stop-color="#49D7DB"/>
<stop offset="1" stop-color="#344153"/>
</linearGradient>
<linearGradient id="paint48_linear_2645_15786" x1="1799.21" y1="235.11" x2="1752.2" y2="379.83" gradientUnits="userSpaceOnUse">
<stop stop-color="#49D7DB"/>
<stop offset="1" stop-color="#344153"/>
</linearGradient>
<linearGradient id="paint49_linear_2645_15786" x1="1806.12" y1="227" x2="1740.6" y2="405.66" gradientUnits="userSpaceOnUse">
<stop stop-color="#49D7DB"/>
<stop offset="1" stop-color="#344153"/>
</linearGradient>
<linearGradient id="paint50_linear_2645_15786" x1="1523.68" y1="262.03" x2="1500.47" y2="365.67" gradientUnits="userSpaceOnUse">
<stop stop-color="#49D7DB"/>
<stop offset="1" stop-color="#344153"/>
</linearGradient>
<linearGradient id="paint51_linear_2645_15786" x1="1531.58" y1="178.65" x2="1443.55" y2="373.7" gradientUnits="userSpaceOnUse">
<stop stop-color="#49D7DB"/>
<stop offset="1" stop-color="#344153"/>
</linearGradient>
<linearGradient id="paint52_linear_2645_15786" x1="1540.33" y1="156.38" x2="1399.63" y2="392.85" gradientUnits="userSpaceOnUse">
<stop stop-color="#49D7DB"/>
<stop offset="1" stop-color="#344153"/>
</linearGradient>
<linearGradient id="paint53_linear_2645_15786" x1="1614.77" y1="272.95" x2="1296.37" y2="272.95" gradientUnits="userSpaceOnUse">
<stop stop-color="#49D7DB"/>
<stop offset="1" stop-color="#344153"/>
</linearGradient>
<clipPath id="clip0_2645_15786">
<rect width="2000" height="360.9" fill="white"/>
</clipPath>
</defs>
</svg>
