<svg fill="none" height="361" viewBox="0 0 2000 361" width="2000" xmlns="http://www.w3.org/2000/svg" xmlns:xlink="http://www.w3.org/1999/xlink"><linearGradient id="a"><stop offset="0" stop-color="#49d7db"/><stop offset="1" stop-color="#344153"/></linearGradient><linearGradient id="b" gradientUnits="userSpaceOnUse" x1="209.74" x2="9.90002" xlink:href="#a" y1="339.94" y2="103.17"/><linearGradient id="c" gradientUnits="userSpaceOnUse" x1="180.42" x2="29.33" xlink:href="#a" y1="332.35" y2="119.19"/><linearGradient id="d" gradientUnits="userSpaceOnUse" x1="140.95" x2="46.3" xlink:href="#a" y1="309.76" y2="137.64"/><linearGradient id="e" gradientUnits="userSpaceOnUse" x1="66.29" x2="59.62" xlink:href="#a" y1="213.72" y2="173.31"/><linearGradient id="f" gradientUnits="userSpaceOnUse" x1="19.72" x2="12.26" xlink:href="#a" y1="288.56" y2="271.93"/><linearGradient id="g" gradientUnits="userSpaceOnUse" x1="31.52" x2="21.5" xlink:href="#a" y1="303.85" y2="280.78"/><linearGradient id="h" gradientUnits="userSpaceOnUse" x1="43.32" x2="28.37" xlink:href="#a" y1="319.95" y2="284.47"/><linearGradient id="i" gradientUnits="userSpaceOnUse" x1="72.33" x2="44.2" xlink:href="#a" y1="357.55" y2="299.48"/><linearGradient id="j" gradientUnits="userSpaceOnUse" x1="221.549" x2="276.249" xlink:href="#a" y1="11" y2="538.27"/><linearGradient id="k" gradientUnits="userSpaceOnUse" x1="198.641" x2="205.941" xlink:href="#a" y1="217.28" y2="203.63"/><linearGradient id="l" gradientUnits="userSpaceOnUse" x1="199.242" x2="204.332" xlink:href="#a" y1="195.62" y2="186.1"/><linearGradient id="m" gradientUnits="userSpaceOnUse" x1="181.73" x2="216.779" xlink:href="#a" y1="306.07" y2="240.52"/><linearGradient id="n" gradientUnits="userSpaceOnUse" x1="169.01" x2="237.61" xlink:href="#a" y1="168.78" y2="40.45"/><linearGradient id="o" gradientUnits="userSpaceOnUse" x1="490.002" x2="504.952" xlink:href="#a" y1="252" y2="224.03"/><linearGradient id="p" gradientUnits="userSpaceOnUse" x1="444.711" x2="470.541" xlink:href="#a" y1="295.23" y2="246.91"/><linearGradient id="q" gradientUnits="userSpaceOnUse" x1="196.519" x2="208.239" xlink:href="#a" y1="241.51" y2="219.58"/><linearGradient id="r" gradientUnits="userSpaceOnUse" x1="168.198" x2="265.558" xlink:href="#a" y1="235.08" y2="52.97"/><linearGradient id="s" gradientUnits="userSpaceOnUse" x1="171.17" x2="242.51" xlink:href="#a" y1="196.39" y2="62.93"/><linearGradient id="t" gradientUnits="userSpaceOnUse" x1="489.079" x2="520.019" xlink:href="#a" y1="193.28" y2="244.25"/><linearGradient id="u" gradientUnits="userSpaceOnUse" x1="300.576" x2="358.836" xlink:href="#a" y1="156.38" y2="348.22"/><linearGradient id="v" gradientUnits="userSpaceOnUse" x1="205.918" x2="235.188" xlink:href="#a" y1="243.64" y2="353.16"/><linearGradient id="w" gradientUnits="userSpaceOnUse" x1="200.78" x2="247.8" xlink:href="#a" y1="235.11" y2="379.83"/><linearGradient id="x" gradientUnits="userSpaceOnUse" x1="193.878" x2="259.388" xlink:href="#a" y1="227" y2="405.66"/><linearGradient id="y" gradientUnits="userSpaceOnUse" x1="476.317" x2="499.527" xlink:href="#a" y1="262.03" y2="365.67"/><linearGradient id="z" gradientUnits="userSpaceOnUse" x1="468.419" x2="556.439" xlink:href="#a" y1="178.65" y2="373.7"/><linearGradient id="A" gradientUnits="userSpaceOnUse" x1="459.67" x2="600.37" xlink:href="#a" y1="156.38" y2="392.85"/><linearGradient id="B" gradientUnits="userSpaceOnUse" x1="385.219" x2="703.619" xlink:href="#a" y1="272.95" y2="272.95"/><linearGradient id="C" gradientUnits="userSpaceOnUse" x1="1790.26" x2="1990.1" xlink:href="#a" y1="339.94" y2="103.17"/><linearGradient id="D" gradientUnits="userSpaceOnUse" x1="1819.58" x2="1970.66" xlink:href="#a" y1="332.35" y2="119.19"/><linearGradient id="E" gradientUnits="userSpaceOnUse" x1="1859.05" x2="1953.7" xlink:href="#a" y1="309.76" y2="137.64"/><linearGradient id="F" gradientUnits="userSpaceOnUse" x1="1933.71" x2="1940.38" xlink:href="#a" y1="213.72" y2="173.31"/><linearGradient id="G" gradientUnits="userSpaceOnUse" x1="1980.28" x2="1987.74" xlink:href="#a" y1="288.56" y2="271.93"/><linearGradient id="H" gradientUnits="userSpaceOnUse" x1="1968.48" x2="1978.5" xlink:href="#a" y1="303.85" y2="280.78"/><linearGradient id="I" gradientUnits="userSpaceOnUse" x1="1956.68" x2="1971.63" xlink:href="#a" y1="319.95" y2="284.47"/><linearGradient id="J" gradientUnits="userSpaceOnUse" x1="1927.66" x2="1955.8" xlink:href="#a" y1="357.55" y2="299.48"/><linearGradient id="K" gradientUnits="userSpaceOnUse" x1="1778.45" x2="1723.75" xlink:href="#a" y1="11" y2="538.27"/><linearGradient id="L" gradientUnits="userSpaceOnUse" x1="1801.35" x2="1794.05" xlink:href="#a" y1="217.28" y2="203.63"/><linearGradient id="M" gradientUnits="userSpaceOnUse" x1="1800.76" x2="1795.67" xlink:href="#a" y1="195.62" y2="186.1"/><linearGradient id="N" gradientUnits="userSpaceOnUse" x1="1818.27" x2="1783.22" xlink:href="#a" y1="306.07" y2="240.52"/><linearGradient id="O" gradientUnits="userSpaceOnUse" x1="1830.99" x2="1762.39" xlink:href="#a" y1="168.78" y2="40.45"/><linearGradient id="P" gradientUnits="userSpaceOnUse" x1="1510" x2="1495.04" xlink:href="#a" y1="252" y2="224.03"/><linearGradient id="Q" gradientUnits="userSpaceOnUse" x1="1555.29" x2="1529.46" xlink:href="#a" y1="295.23" y2="246.91"/><linearGradient id="R" gradientUnits="userSpaceOnUse" x1="1803.48" x2="1791.76" xlink:href="#a" y1="241.51" y2="219.58"/><linearGradient id="S" gradientUnits="userSpaceOnUse" x1="1831.79" x2="1734.44" xlink:href="#a" y1="235.08" y2="52.97"/><linearGradient id="T" gradientUnits="userSpaceOnUse" x1="1828.83" x2="1757.48" xlink:href="#a" y1="196.39" y2="62.93"/><linearGradient id="U" gradientUnits="userSpaceOnUse" x1="1510.91" x2="1479.98" xlink:href="#a" y1="193.28" y2="244.25"/><linearGradient id="V" gradientUnits="userSpaceOnUse" x1="1699.42" x2="1641.15" xlink:href="#a" y1="156.38" y2="348.22"/><linearGradient id="W" gradientUnits="userSpaceOnUse" x1="1794.08" x2="1764.81" xlink:href="#a" y1="243.64" y2="353.16"/><linearGradient id="X" gradientUnits="userSpaceOnUse" x1="1799.21" x2="1752.2" xlink:href="#a" y1="235.11" y2="379.83"/><linearGradient id="Y" gradientUnits="userSpaceOnUse" x1="1806.12" x2="1740.6" xlink:href="#a" y1="227" y2="405.66"/><linearGradient id="Z" gradientUnits="userSpaceOnUse" x1="1523.68" x2="1500.47" xlink:href="#a" y1="262.03" y2="365.67"/><linearGradient id="aa" gradientUnits="userSpaceOnUse" x1="1531.58" x2="1443.55" xlink:href="#a" y1="178.65" y2="373.7"/><linearGradient id="ab" gradientUnits="userSpaceOnUse" x1="1540.33" x2="1399.63" xlink:href="#a" y1="156.38" y2="392.85"/><linearGradient id="ac" gradientUnits="userSpaceOnUse" x1="1614.77" x2="1296.37" xlink:href="#a" y1="272.95" y2="272.95"/><clipPath id="ad"><path d="m0 0h2000v360.9h-2000z"/></clipPath><g clip-path="url(#ad)"><g opacity=".16"><g fill-opacity=".4"><path d="m0 259.1v9.3h109.92c48.2 0 87.4-39.4 87.4-87.9s-39.2-87.8999-87.4-87.8999-87.4 39.3999-87.4 87.8999h9.2c0-10.3 2-20.6 5.9-30.1s9.7-18.2 16.9-25.5c7.3-7.3 15.9-13.1 25.4-17 9.5-4 19.7-6 29.9-6s20.5 2 30 6 18.1 9.7 25.4 17 13 16 17 25.5c3.9 9.6 5.9 19.8 5.9 30.1s-2 20.6-5.9 30.1-9.7 18.2-17 25.5-15.9 13.1-25.4 17.1c-9.5 3.9-19.7 6-30 6z" fill="url(#b)"/><path d="m0 240.6v9.2h109.92c38.1 0 69-31.2 69-69.4s-31-69.4-69-69.4-69 31.1-69 69.4h9.2c0-7.9 1.5-15.7 4.5-23s7.4-13.9 13-19.5c5.5-5.6 12.1-10 19.4-13s15-4.6 22.9-4.6c33.1 0 59.8 26.9 59.8 60.1s-26.7 60.2-59.8 60.2z" fill="url(#c)"/><path d="m0 222.1v9.3h109.92c27.9 0 50.6-22.8 50.6-50.9s-22.7-50.9-50.6-50.9-50.6 22.8-50.6 50.9h9.2c0-23.1 18.5-41.6 41.4-41.6s41.4 18.6 41.4 41.6c0 5.5-1.1 10.9-3.1 15.9-2.1 5.1-5.1 9.7-9 13.5-3.8 3.9-8.4 6.9-13.4 9s-10.4 3.2-15.9 3.1h-109.92z" fill="url(#d)"/><path d="m0 185.1v9.3h109.92c3.7 0 7.2-1.5 9.7-4.1 2.6-2.6 4-6.1 4.1-9.8 0-3.7-1.5-7.2-4.1-9.8s-6.1-4.1-9.7-4.1-7.2 1.5-9.7 4.1c-2.6 2.6-4.1 6.1-4.1 9.8h9.2c0-2.6 2-4.6 4.6-4.6s4.6 2 4.6 4.6c0 1.2-.5 2.4-1.3 3.3-.9.9-2 1.4-3.3 1.4z" fill="url(#e)"/><path d="m0 277.6v9.3h17.92c3.7 0 7.2-1.5 9.7-4.1s4-6.1 4.1-9.8h-9.2c0 2.6-2 4.6-4.6 4.6z" fill="url(#f)"/><path d="m0 296.1v9.2h17.92c8.5 0 16.7-3.4 22.8-9.5 6-6.1 9.4-14.3 9.5-22.9h-9.2c0 3-.6 6-1.7 8.9-1.1 2.8-2.8 5.4-5 7.5-2.1 2.2-4.7 3.9-7.5 5-2.8 1.2-5.8 1.7-8.8 1.7h-18.02z" fill="url(#g)"/><path d="m0 314.7v9.2h17.92c27.9 0 50.6-22.8 50.6-50.9h-9.2c0 5.5-1 10.9-3.1 15.9-2.1 5.1-5.1 9.7-9 13.5-3.8 3.9-8.4 6.9-13.4 9s-10.4 3.2-15.9 3.1h-17.92z" fill="url(#h)"/><path d="m0 351.7v9.2h19.62c47.4-.9 85.7-39.9 85.7-87.9h-9.2c0 10.3-2 20.6-5.9 30.1s-9.7 18.2-17 25.5-15.9 13.1-25.4 17-19.7 6-29.9 6h-17.92z" fill="url(#i)"/><path d="m5.31875 166.5c4.92005-52.31 50.89995-92.5 104.60025-92.5 58.4 0 105.8 47.7 105.8 106.5 0 10.3 2 20.6 5.9 30.1s9.7 18.2 16.9 25.5c7.3 7.3 15.9 13.1 25.4 17.1s19.7 6 29.9 6h92c10.3 0 20.5-2 29.9-6 9.5-4 18.1-9.8 25.4-17.1s13-16 17-25.5c3.9-9.5 6-19.8 5.9-30.1 0-10.3-2-20.6-5.9-30.1s-9.7-18.2-17-25.5c-7.2-7.3-15.9-13.1-25.4-17-9.5-4-19.7-6-29.9-6s-20.5 2-29.9 6c-9.5 4-18.1 9.7-25.4 17s-13 16-16.9 25.5c-3.9 9.6-5.9 19.8-5.9 30.1h-9.2c0-48.5 39.2-87.9 87.4-87.9s87.4 39.4 87.4 87.9-39.2 87.9-87.4 87.9h-92c-48.2 0-87.4-39.4-87.4-87.9 0-53.7-43.2-97.2-96.6-97.2-50.4003 0-93.1603 38.7-96.2002 88.3-.1401 2.22-.3 8.9-.3 8.9l-8.95005.1c0-.06 0-5 .85-14.1z" fill="url(#j)"/><path d="m196.121 212.9h5.9 5.9l-2.8-9.3h-6.1z" fill="url(#k)"/><path d="m200.922 194.4h1.9l-.9-9.3z" fill="url(#l)"/><path d="m158.42 259.1-19.9 9.3h126.7l-19.8-9.3z" fill="url(#m)"/><path d="m386.02 166.6c-3.6 0-7.1 1.5-9.7 4.1s-4.1 6.1-4.1 9.8h9.2c0-.6.1-1.2.3-1.8.5-1.1 1.4-2 2.5-2.5.6-.2 1.2-.3 1.8-.3 2.6 0 4.6 2 4.6 4.6 0 1.2-.4 2.4-1.3 3.3-.4.4-.9.8-1.5 1s-1.2.3-1.8.3h-92c-1.3.1-2.4-.4-3.3-1.3-.8-.9-1.3-2.1-1.3-3.3 0-99.6-80.4-180.5-179.5-180.5-28.15 0-54.74 6.56-78.4 18.22-.15.07-.29.15-.44.22-.8.39-1.59.79-2.38 1.2-.51.26-1.02.53-1.54.8-.42.22-.85.44-1.27.67-9.12 4.89-17.78 10.55-25.89 16.89v11.89c27.63-23.56 62.84-38.42 101.45-40.37v-.03c2.81-.13 5.63-.2 8.47-.2 94.1 0 170.3 76.6 170.3 171.2 0 7.6 6.2 13.9 13.8 13.9h92c3.6 0 7.1-1.5 9.7-4.1s4.1-6.1 4.1-9.8c-.1-3.7-1.5-7.2-4.1-9.8-2.5-2.6-6-4.1-9.7-4.1z" fill="url(#n)"/><path d="m510.622 227.9c-7.2-3.8-15.3-5.8-23.4-5.8h-19l-5.3 9.2h24.4c8.1 0 16.1 2.5 22.9 7 6.8 4.6 12.2 11 15.3 18.6l3.2-13c-4.7-6.7-10.9-12.2-18.1-16z" fill="url(#o)"/><path d="m487.221 259.1h-52.7l-19.9 9.3h72.6c.6 0 1.2.1 1.8.3s1.1.6 1.5 1 .8.9 1 1.5.3 1.2.3 1.8h9.2c-.1-3.7-1.5-7.2-4.1-9.8-2.5-2.6-6-4.1-9.7-4.1z" fill="url(#p)"/><path d="m186.719 231.4h15.2 15.2l-5.4-9.3h-9.8-9.8z" fill="url(#q)"/><path d="m386.018 129.6c-27.9 0-50.6 22.8-50.6 50.9h9.2c0-23.1 18.5-41.6 41.4-41.6s41.4 18.6 41.4 41.6c0 5.5-1 10.9-3.1 15.9-2.1 5.1-5.1 9.7-9 13.5-3.8 3.9-8.4 6.9-13.5 9-5 2.1-10.4 3.2-15.9 3.1h-92c-5.4 0-10.8-1.1-15.9-3.1-5-2.1-9.6-5.2-13.4-9-3.9-3.9-6.9-8.5-9-13.5-2.1-5.1-3.1-10.5-3.1-15.9 0-79.2-63.9-143.5-142.7-143.5-25.9497 0-50.2197 7.04-71.1097 19.32-.48.28-.95.56-1.42.85-.39.24-.79.47-1.18.71-13.73 8.41-25.94 19.08-36.1200188 31.51v15.28c22.5300188-33.01 59.3200188-55.36 101.4497188-58.08 2.8-.19 5.63-.28 8.47-.28 73.7 0 133.4 60 133.5 134.2 0 28.1 22.7 50.9 50.6 50.9h92c27.9 0 50.6-22.8 50.6-50.9s-22.7-50.9-50.6-50.9z" fill="url(#r)"/><path d="m408.82 157.5c-6-6.1-14.2-9.5-22.7-9.5s-16.7 3.4-22.8 9.5c-6 6.1-9.5 14.3-9.5 22.9h9.2c0-12.8 10.3-23.1 23-23.1s23 10.3 23 23.1-10.3 23.1-23 23.1h-92c-3 0-6-.6-8.8-1.7-2.8-1.2-5.3-2.9-7.5-5-2.1-2.2-3.8-4.7-5-7.5s-1.7-5.8-1.7-8.9c0-89.4-72.2-161.9-161-161.9-2.88 0-5.73.08-8.57.24-.08 0-.17.01-.25.02-1.14.06-2.27.13-3.4.22 0 0-.02 0-.03 0-4.96.38-9.85.98-14.67 1.8-31.83 5.4-60.52 20.2-83.1 41.48v12.95c25.81-27.31 61.57-45.01 101.45-47.26 2.81-.17 5.63-.25 8.47-.25 83.9 0 151.9 68.3 151.8 152.7 0 8.6 3.4 16.8 9.5 22.9 6 6.1 14.2 9.5 22.8 9.5h92c8.5 0 16.7-3.4 22.8-9.5 6-6.1 9.4-14.3 9.5-22.9 0-8.6-3.4-16.8-9.5-22.9z" fill="url(#s)"/><path d="m532.619 233.8 4.6-8.6c-6.4-6.8-14.2-12.3-22.8-16s-17.9-5.6-27.2-5.6h-12.2l-2.8 9.3h15.1c8.6 0 17.2 1.8 25 5.5 7.8 3.5 14.7 8.8 20.3 15.4z" fill="url(#t)"/><path d="m478.016 185.1h9.2c22.9 0 44.8 9 61.1 25.1l-5.9 7.1c-14.1-14.2-33.7-23-55.2-23h-10.1zm-368.2 92.5h184.1c1.2 0 2.4-.5 3.3-1.3.9-.9 1.3-2.1 1.3-3.3h9.2c0 3.7-1.5 7.2-4.1 9.8s-6.1 4.1-9.7 4.1h-185.1z" fill="url(#u)"/><path d="m344.618 273h-9.2c0 5.5-1.1 10.9-3.1 15.9-2.1 5.1-5.1 9.6-9 13.5-3.8 3.9-8.4 6.9-13.5 9-5 2.1-10.4 3.2-15.9 3.1h-184.1c-3.1 0-6.3-.4-9.3-1.1l-4.6 8.3c4.5 1.3 9.2 2 13.9 2h184.1c28 .2 50.7-22.6 50.7-50.7z" fill="url(#v)"/><path d="m109.92 333.1c-6.6 0-13.2005-1.1-19.5005-3.2l-6.4 7.4c8.2 3.4 17.0005 5.1 25.9005 5h184.1c38.1 0 69-31.1 69-69.4h-9.2c0 7.9-1.5 15.7-4.5 23s-7.4 13.9-13 19.5c-5.5 5.6-12.1 10-19.4 13s-15 4.6-22.9 4.5h-184.1z" fill="url(#w)"/><path d="m381.418 273h-9.2c0 10.3-2 20.6-5.9 30.1s-9.7 18.2-17 25.5-15.9 13.1-25.4 17-19.7 6-29.9 6h-184.1c-11.5 0-22.9-2.5-33.3-7.4l-8.2 6.1c12.4 6.7 26.5 10.6 41.5 10.6h184.1c48.2 0 87.4-39.4 87.4-87.9z" fill="url(#x)"/><path d="m352.717 344.2c10.4 4.9 21.8 7.5 33.3 7.4h138c10.3 0 20.5-2 30-6s18.1-9.8 25.4-17.1 13-16 17-25.5c3.9-9.6 6-19.8 5.9-30.1 0-3.7 1.5-7.2 4.1-9.8s6.1-4.1 9.7-4.1 7.2 1.5 9.7 4.1c2.6 2.6 4 6.1 4.1 9.8 0 3.7-1.5 7.2-4.1 9.8s-6.1 4.1-9.7 4.1l.9-9.3c2.1-.4 3.7-2.2 3.7-4.5 0-2.6-2-4.6-4.6-4.6-.6 0-1.2.1-1.8.3s-1.1.6-1.5 1-.8.9-1 1.5-.3 1.2-.3 1.8c0 47.9-38.3 87-85.7 87.9h-139.7c-14.5 0-28.8-3.6-41.5-10.6z" fill="url(#y)"/><path d="m666.819 273c0-28.1-22.7-50.9-50.6-50.9s-50.6 22.8-50.6 50.9c0 5.5-1.1 10.9-3.1 16-2.1 5.1-5.1 9.6-9 13.5-3.8 3.9-8.4 6.9-13.4 9s-10.4 3.2-15.9 3.1h-138.1c-3.1 0-6.3-.4-9.3-1.1l-4.6 8.3c4.5 1.3 9.2 2 13.9 2h138.1c27.9 0 50.6-22.8 50.6-50.9 0-5.5 1.1-10.9 3.1-16 2.1-5.1 5.1-9.6 9-13.5 3.8-3.9 8.4-6.9 13.4-9s10.4-3.2 15.9-3.2c22.9 0 41.4 18.6 41.4 41.6s-18.5 41.6-40.9 41.6c-3 0-5.9-.4-8.8-1.1l-4.6 8.3c4.4 1.3 9.1 2 13.4 2 27.3.3 50.1-22.5 50.1-50.6z" fill="url(#z)"/><path d="m524.02 305.4c17.7 0 32.2-14.5 32.2-32.4 0-33.3 26.8-60.2 59.8-60.2s59.8 26.9 59.8 60.2-26.7 60.1-59.3 60.2c-6.4 0-12.8-1.1-18.9-3.2l-6.4 7.4c8 3.3 16.7 5 25.4 5 37.5 0 68.5-31.2 68.5-69.4s-31-69.4-69-69.4-69 31.1-69 69.4c0 3-.6 6.1-1.7 8.9-1.2 2.8-2.9 5.4-5 7.5s-4.7 3.9-7.5 5c-2.8 1.2-5.8 1.8-8.8 1.7h-138c-1 0-2-.1-2.9-.2l-2.7 8.9c1.8.3 3.7.5 5.6.5z" fill="url(#A)"/></g><path d="m703.619 273c0-48.5-39.2-87.9-87.4-87.9s-87.4 39.4-87.4 87.9c0 .6-.1 1.2-.3 1.8s-.6 1.1-1 1.5-.9.8-1.5 1-1.2.3-1.8.3h-138.1l-.9 9.2h139.1c7.6 0 13.8-6.3 13.8-13.9 0-10.3 2-20.6 5.9-30.1s9.7-18.2 17-25.5 15.9-13.1 25.4-17.1c9.5-3.9 19.7-6 30-6s20.5 2 29.9 6c9.5 4 18.1 9.8 25.4 17.1s13 16 17 25.5c3.9 9.6 5.9 19.8 5.9 30.1 0 43.5-35 78.7-77.7 78.6-11.3 0-22.5-2.6-32.8-7.4l-8.2 6.1c12.4 6.7 26.5 10.6 41 10.6 47.5.1 86.7-39.3 86.7-87.8z" fill="url(#B)" opacity=".4"/></g><g opacity=".16"><g fill-opacity=".4"><path d="m2000 259.1v9.3h-109.92c-48.2 0-87.4-39.4-87.4-87.9s39.2-87.8999 87.4-87.8999 87.4 39.3999 87.4 87.8999h-9.2c0-10.3-2-20.6-5.9-30.1s-9.7-18.2-16.9-25.5c-7.3-7.3-15.9-13.1-25.4-17-9.5-4-19.7-6-29.9-6s-20.5 2-30 6-18.1 9.7-25.4 17-13 16-17 25.5c-3.9 9.6-5.9 19.8-5.9 30.1s2 20.6 5.9 30.1 9.7 18.2 17 25.5 15.9 13.1 25.4 17.1c9.5 3.9 19.7 6 30 6z" fill="url(#C)"/><path d="m2000 240.6v9.2h-109.92c-38.1 0-69-31.2-69-69.4s31-69.4 69-69.4 69 31.1 69 69.4h-9.2c0-7.9-1.5-15.7-4.5-23s-7.4-13.9-13-19.5c-5.5-5.6-12.1-10-19.4-13s-15-4.6-22.9-4.6c-33.1 0-59.8 26.9-59.8 60.1s26.7 60.2 59.8 60.2z" fill="url(#D)"/><path d="m2000 222.1v9.3h-109.92c-27.9 0-50.6-22.8-50.6-50.9s22.7-50.9 50.6-50.9 50.6 22.8 50.6 50.9h-9.2c0-23.1-18.5-41.6-41.4-41.6s-41.4 18.6-41.4 41.6c0 5.5 1.1 10.9 3.1 15.9 2.1 5.1 5.1 9.7 9 13.5 3.8 3.9 8.4 6.9 13.4 9s10.4 3.2 15.9 3.1h109.92z" fill="url(#E)"/><path d="m2000 185.1v9.3h-109.92c-3.7 0-7.2-1.5-9.7-4.1-2.6-2.6-4-6.1-4.1-9.8 0-3.7 1.5-7.2 4.1-9.8s6.1-4.1 9.7-4.1 7.2 1.5 9.7 4.1c2.6 2.6 4.1 6.1 4.1 9.8h-9.2c0-2.6-2-4.6-4.6-4.6s-4.6 2-4.6 4.6c0 1.2.5 2.4 1.3 3.3.9.9 2 1.4 3.3 1.4z" fill="url(#F)"/><path d="m2000 277.6v9.3h-17.92c-3.7 0-7.2-1.5-9.7-4.1s-4-6.1-4.1-9.8h9.2c0 2.6 2 4.6 4.6 4.6z" fill="url(#G)"/><path d="m2000 296.1v9.2h-17.92c-8.5 0-16.7-3.4-22.8-9.5-6-6.1-9.4-14.3-9.5-22.9h9.2c0 3 .6 6 1.7 8.9 1.1 2.8 2.8 5.4 5 7.5 2.1 2.2 4.7 3.9 7.5 5 2.8 1.2 5.8 1.7 8.8 1.7h18.02z" fill="url(#H)"/><path d="m2000 314.7v9.2h-17.92c-27.9 0-50.6-22.8-50.6-50.9h9.2c0 5.5 1 10.9 3.1 15.9 2.1 5.1 5.1 9.7 9 13.5 3.8 3.9 8.4 6.9 13.4 9s10.4 3.2 15.9 3.1h17.92z" fill="url(#I)"/><path d="m2000 351.7v9.2h-19.62c-47.4-.9-85.7-39.9-85.7-87.9h9.2c0 10.3 2 20.6 5.9 30.1s9.7 18.2 17 25.5 15.9 13.1 25.4 17 19.7 6 29.9 6h17.92z" fill="url(#J)"/><path d="m1994.68 166.5c-4.92-52.31-50.9-92.5-104.6-92.5-58.4 0-105.8 47.7-105.8 106.5 0 10.3-2 20.6-5.9 30.1s-9.7 18.2-16.9 25.5c-7.3 7.3-15.9 13.1-25.4 17.1s-19.7 6-29.9 6h-92c-10.3 0-20.5-2-29.9-6-9.5-4-18.1-9.8-25.4-17.1s-13-16-17-25.5c-3.9-9.5-6-19.8-5.9-30.1 0-10.3 2-20.6 5.9-30.1s9.7-18.2 17-25.5c7.2-7.3 15.9-13.1 25.4-17 9.5-4 19.7-6 29.9-6s20.5 2 29.9 6c9.5 4 18.1 9.7 25.4 17s13 16 16.9 25.5c3.9 9.6 5.9 19.8 5.9 30.1h9.2c0-48.5-39.2-87.9-87.4-87.9s-87.4 39.4-87.4 87.9 39.2 87.9 87.4 87.9h92c48.2 0 87.4-39.4 87.4-87.9 0-53.7 43.2-97.2 96.6-97.2 50.4 0 93.16 38.7 96.2 88.3.14 2.22.3 8.9.3 8.9l8.95.1c0-.06 0-5-.85-14.1z" fill="url(#K)"/><path d="m1803.88 212.9h-5.9-5.9l2.8-9.3h6.1z" fill="url(#L)"/><path d="m1799.08 194.4h-1.9l.9-9.3z" fill="url(#M)"/><path d="m1841.58 259.1 19.9 9.3h-126.7l19.8-9.3z" fill="url(#N)"/><path d="m1613.98 166.6c3.6 0 7.1 1.5 9.7 4.1s4.1 6.1 4.1 9.8h-9.2c0-.6-.1-1.2-.3-1.8-.5-1.1-1.4-2-2.5-2.5-.6-.2-1.2-.3-1.8-.3-2.6 0-4.6 2-4.6 4.6 0 1.2.4 2.4 1.3 3.3.4.4.9.8 1.5 1s1.2.3 1.8.3h92c1.3.1 2.4-.4 3.3-1.3.8-.9 1.3-2.1 1.3-3.3 0-99.6 80.4-180.5 179.5-180.5 28.15 0 54.74 6.56 78.4 18.22.15.07.29.15.44.22.8.39 1.59.79 2.38 1.2.51.26 1.02.53 1.54.8.42.22.85.44 1.27.67 9.13 4.89 17.79 10.55 25.9 16.9v11.89c-27.63-23.56-62.84-38.42-101.45-40.37v-.03c-2.81-.13-5.63-.2-8.47-.2-94.1 0-170.3 76.6-170.3 171.2 0 7.6-6.2 13.9-13.8 13.9h-92c-3.6 0-7.1-1.5-9.7-4.1s-4.1-6.1-4.1-9.8c.1-3.7 1.5-7.2 4.1-9.8 2.5-2.6 6-4.1 9.7-4.1z" fill="url(#O)"/><path d="m1489.38 227.9c7.2-3.8 15.3-5.8 23.4-5.8h19l5.3 9.2h-24.4c-8.1 0-16.1 2.5-22.9 7-6.8 4.6-12.2 11-15.3 18.6l-3.2-13c4.7-6.7 10.9-12.2 18.1-16z" fill="url(#P)"/><path d="m1512.78 259.1h52.7l19.9 9.3h-72.6c-.6 0-1.2.1-1.8.3s-1.1.6-1.5 1-.8.9-1 1.5-.3 1.2-.3 1.8h-9.2c.1-3.7 1.5-7.2 4.1-9.8 2.5-2.6 6-4.1 9.7-4.1z" fill="url(#Q)"/><path d="m1813.28 231.4h-15.2-15.2l5.4-9.3h9.8 9.8z" fill="url(#R)"/><path d="m1613.98 129.6c27.9 0 50.6 22.8 50.6 50.9h-9.2c0-23.1-18.5-41.6-41.4-41.6s-41.4 18.6-41.4 41.6c0 5.5 1 10.9 3.1 15.9 2.1 5.1 5.1 9.7 9 13.5 3.8 3.9 8.4 6.9 13.5 9 5 2.1 10.4 3.2 15.9 3.1h92c5.4 0 10.8-1.1 15.9-3.1 5-2.1 9.6-5.2 13.4-9 3.9-3.9 6.9-8.5 9-13.5 2.1-5.1 3.1-10.5 3.1-15.9 0-79.2 63.9-143.5 142.7-143.5 25.95 0 50.22 7.04 71.11 19.32.48.28.95.56 1.42.85.39.24.79.47 1.18.71 13.73 8.41 25.94 19.08 36.12 31.51v15.28c-22.53-33.01-59.32-55.36-101.45-58.08-2.8-.19-5.63-.28-8.47-.28-73.7 0-133.4 60-133.5 134.2 0 28.1-22.7 50.9-50.6 50.9h-92c-27.9 0-50.6-22.8-50.6-50.9s22.7-50.9 50.6-50.9z" fill="url(#S)"/><path d="m1591.18 157.5c6-6.1 14.2-9.5 22.7-9.5s16.7 3.4 22.8 9.5c6 6.1 9.5 14.3 9.5 22.9h-9.2c0-12.8-10.3-23.1-23-23.1s-23 10.3-23 23.1 10.3 23.1 23 23.1h92c3 0 6-.6 8.8-1.7 2.8-1.2 5.3-2.9 7.5-5 2.1-2.2 3.8-4.7 5-7.5s1.7-5.8 1.7-8.9c0-89.4 72.2-161.9 161-161.9 2.88 0 5.73.08 8.57.24.08 0 .17.01.25.02 1.14.06 2.27.13 3.4.22h.03c4.96.38 9.85.98 14.67 1.8 31.83 5.41 60.51 20.21 83.1 41.49v12.95c-25.81-27.31-61.57-45.01-101.45-47.26-2.81-.17-5.63-.25-8.47-.25-83.9 0-151.9 68.3-151.8 152.7 0 8.6-3.4 16.8-9.5 22.9-6 6.1-14.2 9.5-22.8 9.5h-92c-8.5 0-16.7-3.4-22.8-9.5-6-6.1-9.4-14.3-9.5-22.9 0-8.6 3.4-16.8 9.5-22.9z" fill="url(#T)"/><path d="m1467.38 233.8-4.6-8.6c6.4-6.8 14.2-12.3 22.8-16s17.9-5.6 27.2-5.6h12.2l2.8 9.3h-15.1c-8.6 0-17.2 1.8-25 5.5-7.8 3.5-14.7 8.8-20.3 15.4z" fill="url(#U)"/><path d="m1521.98 185.1h-9.2c-22.9 0-44.8 9-61.1 25.1l5.9 7.1c14.1-14.2 33.7-23 55.2-23h10.1zm368.2 92.5h-184.1c-1.2 0-2.4-.5-3.3-1.3-.9-.9-1.3-2.1-1.3-3.3h-9.2c0 3.7 1.5 7.2 4.1 9.8s6.1 4.1 9.7 4.1h185.1z" fill="url(#V)"/><path d="m1655.38 273h9.2c0 5.5 1.1 10.9 3.1 15.9 2.1 5.1 5.1 9.6 9 13.5 3.8 3.9 8.4 6.9 13.5 9 5 2.1 10.4 3.2 15.9 3.1h184.1c3.1 0 6.3-.4 9.3-1.1l4.6 8.3c-4.5 1.3-9.2 2-13.9 2h-184.1c-28 .2-50.7-22.6-50.7-50.7z" fill="url(#W)"/><path d="m1890.08 333.1c6.6 0 13.2-1.1 19.5-3.2l6.4 7.4c-8.2 3.4-17 5.1-25.9 5h-184.1c-38.1 0-69-31.1-69-69.4h9.2c0 7.9 1.5 15.7 4.5 23s7.4 13.9 13 19.5c5.5 5.6 12.1 10 19.4 13s15 4.6 22.9 4.5h184.1z" fill="url(#X)"/><path d="m1618.58 273h9.2c0 10.3 2 20.6 5.9 30.1s9.7 18.2 17 25.5 15.9 13.1 25.4 17 19.7 6 29.9 6h184.1c11.5 0 22.9-2.5 33.3-7.4l8.2 6.1c-12.4 6.7-26.5 10.6-41.5 10.6h-184.1c-48.2 0-87.4-39.4-87.4-87.9z" fill="url(#Y)"/><path d="m1647.28 344.2c-10.4 4.9-21.8 7.5-33.3 7.4h-138c-10.3 0-20.5-2-30-6s-18.1-9.8-25.4-17.1-13-16-17-25.5c-3.9-9.6-6-19.8-5.9-30.1 0-3.7-1.5-7.2-4.1-9.8s-6.1-4.1-9.7-4.1-7.2 1.5-9.7 4.1c-2.6 2.6-4 6.1-4.1 9.8 0 3.7 1.5 7.2 4.1 9.8s6.1 4.1 9.7 4.1l-.9-9.3c-2.1-.4-3.7-2.2-3.7-4.5 0-2.6 2-4.6 4.6-4.6.6 0 1.2.1 1.8.3s1.1.6 1.5 1 .8.9 1 1.5.3 1.2.3 1.8c0 47.9 38.3 87 85.7 87.9h139.7c14.5 0 28.8-3.6 41.5-10.6z" fill="url(#Z)"/><path d="m1333.18 273c0-28.1 22.7-50.9 50.6-50.9s50.6 22.8 50.6 50.9c0 5.5 1.1 10.9 3.1 16 2.1 5.1 5.1 9.6 9 13.5 3.8 3.9 8.4 6.9 13.4 9s10.4 3.2 15.9 3.1h138.1c3.1 0 6.3-.4 9.3-1.1l4.6 8.3c-4.5 1.3-9.2 2-13.9 2h-138.1c-27.9 0-50.6-22.8-50.6-50.9 0-5.5-1.1-10.9-3.1-16-2.1-5.1-5.1-9.6-9-13.5-3.8-3.9-8.4-6.9-13.4-9s-10.4-3.2-15.9-3.2c-22.9 0-41.4 18.6-41.4 41.6s18.5 41.6 40.9 41.6c3 0 5.9-.4 8.8-1.1l4.6 8.3c-4.4 1.3-9.1 2-13.4 2-27.3.3-50.1-22.5-50.1-50.6z" fill="url(#aa)"/><path d="m1475.98 305.4c-17.7 0-32.2-14.5-32.2-32.4 0-33.3-26.8-60.2-59.8-60.2s-59.8 26.9-59.8 60.2 26.7 60.1 59.3 60.2c6.4 0 12.8-1.1 18.9-3.2l6.4 7.4c-8 3.3-16.7 5-25.4 5-37.5 0-68.5-31.2-68.5-69.4s31-69.4 69-69.4 69 31.1 69 69.4c0 3 .6 6.1 1.7 8.9 1.2 2.8 2.9 5.4 5 7.5s4.7 3.9 7.5 5c2.8 1.2 5.8 1.8 8.8 1.7h138c1 0 2-.1 2.9-.2l2.7 8.9c-1.8.3-3.7.5-5.6.5z" fill="url(#ab)"/></g><path d="m1296.38 273c0-48.5 39.2-87.9 87.4-87.9s87.4 39.4 87.4 87.9c0 .6.1 1.2.3 1.8s.6 1.1 1 1.5.9.8 1.5 1 1.2.3 1.8.3h138.1l.9 9.2h-139.1c-7.6 0-13.8-6.3-13.8-13.9 0-10.3-2-20.6-5.9-30.1s-9.7-18.2-17-25.5-15.9-13.1-25.4-17.1c-9.5-3.9-19.7-6-30-6s-20.5 2-29.9 6c-9.5 4-18.1 9.8-25.4 17.1s-13 16-17 25.5c-3.9 9.6-5.9 19.8-5.9 30.1 0 43.5 35 78.7 77.7 78.6 11.3 0 22.5-2.6 32.8-7.4l8.2 6.1c-12.4 6.7-26.5 10.6-41 10.6-47.5.1-86.7-39.3-86.7-87.8z" fill="url(#ac)" opacity=".4"/></g></g></svg>