<svg xmlns="http://www.w3.org/2000/svg" width="1440" height="550" fill="none" viewBox="0 0 1440 550">
  <path fill="url(#paint0_linear_7_256)" fill-opacity=".4" d="M432.635 347.967l-1.215-11.208-1.224 11.191c.853.059 1.561.025 2.439.017z"/>
  <path fill="url(#paint1_linear_7_256)" fill-opacity=".4" d="M-15 449v11.217h1786V449H-15zm0 22.4v11.233h1786V471.4H-15zm0 44.967v11.217h1786v-11.217H-15zm0 22.4V550h1786v-11.233H-15z"/>
  <path fill="url(#paint2_linear_7_256)" fill-opacity=".4" d="M872.389 218.866c0-58.823-47.546-106.616-106.045-106.616-58.498 0-106.027 47.793-106.027 106.616h11.154a95.778 95.778 0 017.2-36.521 95.34 95.34 0 0120.563-30.961 94.745 94.745 0 0130.791-20.678 94.306 94.306 0 0136.319-7.239 94.324 94.324 0 0136.324 7.236 94.77 94.77 0 0130.795 20.677 95.351 95.351 0 0120.568 30.963 95.768 95.768 0 017.203 36.523 95.77 95.77 0 01-7.203 36.524 95.351 95.351 0 01-20.568 30.963 94.77 94.77 0 01-30.795 20.677 94.324 94.324 0 01-36.324 7.236l-223.935-.008.683 11.233h223.252c58.499 0 106.045-47.81 106.045-106.633v.008z"/>
  <path fill="url(#paint3_linear_7_256)" fill-opacity=".4" d="M850.114 218.833c0-46.428-37.548-84.184-83.719-84.184-46.171 0-83.718 37.756-83.718 84.184h11.171a73.226 73.226 0 015.497-27.932 72.89 72.89 0 0115.724-23.679 72.412 72.412 0 0123.549-15.811 72.089 72.089 0 0127.777-5.528c40.138 0 72.564 32.589 72.564 72.95 0 40.36-32.426 72.966-72.564 73l-226.661.034 1.654 11.217 225.007-.034c46.163-.034 83.71-37.79 83.71-84.217h.009z"/>
  <path fill="url(#paint4_linear_7_256)" fill-opacity=".4" d="M827.762 218.858c0-34.023-27.566-61.725-61.401-61.725-33.835 0-61.392 27.694-61.392 61.725h11.163c0-27.965 22.419-50.508 50.229-50.508 27.811 0 50.23 22.543 50.23 50.508a50.68 50.68 0 01-3.801 19.343 50.45 50.45 0 01-10.886 16.4 50.13 50.13 0 01-16.307 10.949 49.918 49.918 0 01-19.236 3.825h-231.85l2.92 11.225h228.93c33.835 0 61.393-27.711 61.393-61.742h.008z"/>
  <path fill="url(#paint5_linear_7_256)" fill-opacity=".4" d="M516.32 224.5l5.611 11.217 244.43-.009a16.806 16.806 0 0011.812-4.968 16.997 16.997 0 004.929-11.882 16.978 16.978 0 00-4.927-11.881 16.789 16.789 0 00-11.814-4.961 16.789 16.789 0 00-11.815 4.955 16.97 16.97 0 00-4.933 11.879h11.171c0-3.165 2.422-5.6 5.569-5.6s5.594 2.435 5.594 5.6a5.586 5.586 0 01-1.612 4 5.516 5.516 0 01-3.974 1.633l-250.041.017z"/>
  <path fill="url(#paint6_linear_7_256)" fill-opacity=".4" d="M319.874 112.259c-81.559 0-152.35 45.409-189.62 112.233H-15v11.225h151.372l1.578-2.953c34.864-65.068 103.217-109.289 181.916-109.289 114.119 0 206.52 92.906 206.52 207.667 0 9.248 7.56 16.85 16.74 16.842h111.622a16.778 16.778 0 0011.813-4.955 16.967 16.967 0 004.927-11.878h-11.154c0 3.164-2.447 5.599-5.586 5.599h-111.63a5.442 5.442 0 01-2.147-.4 5.487 5.487 0 01-3.029-3.041 5.536 5.536 0 01-.402-2.158c0-120.82-97.514-218.892-217.666-218.892z"/>
  <path fill="url(#paint7_linear_7_256)" fill-opacity=".4" d="M543.118 370.4H654.74a39.002 39.002 0 0027.605-11.503 39.437 39.437 0 0011.469-27.747h-11.171a28.074 28.074 0 01-2.095 10.751 27.937 27.937 0 01-6.047 9.113 27.758 27.758 0 01-9.068 6.073 27.635 27.635 0 01-10.693 2.096H543.118a27.651 27.651 0 01-10.7-2.104 27.787 27.787 0 01-9.072-6.081 27.965 27.965 0 01-6.047-9.122 28.081 28.081 0 01-2.093-10.759c0-108.449-87.516-196.468-195.332-196.468-77.77 0-144.554 46.037-175.967 112.25H-15v11.225h165.488l1.476-3.3c28.908-64.228 93.161-108.941 167.893-108.941 101.784 0 184.177 82.851 184.177 185.234a39.448 39.448 0 0011.46 27.765 39.007 39.007 0 0027.615 11.518h.009z"/>
  <path fill="url(#paint8_linear_7_256)" fill-opacity=".4" d="M716.123 331.15h-11.154a50.644 50.644 0 01-3.797 19.344 50.41 50.41 0 01-10.886 16.398 50.108 50.108 0 01-16.309 10.944 49.869 49.869 0 01-19.238 3.814h-111.63a49.87 49.87 0 01-19.238-3.818 50.096 50.096 0 01-16.309-10.949 50.423 50.423 0 01-10.883-16.403 50.656 50.656 0 01-3.791-19.346c0-96.037-77.525-174.001-173.022-174.001-73.763 0-136.294 46.775-161.16 112.242H-15v11.233h167.437l13.483-.017 1.317-3.75c22.216-63.192 82.115-108.491 152.637-108.491 89.456 0 161.851 72.814 161.851 162.784 0 34.048 27.558 61.741 61.401 61.733h111.622c33.835.008 61.384-27.685 61.384-61.717h-.009z"/>
  <path fill="url(#paint9_linear_7_256)" fill-opacity=".4" d="M760.784 331.15h-11.171a95.755 95.755 0 01-7.195 36.522 95.343 95.343 0 01-20.564 30.96 94.728 94.728 0 01-30.794 20.673 94.285 94.285 0 01-36.32 7.228H543.118a94.302 94.302 0 01-36.327-7.233 94.726 94.726 0 01-30.797-20.679 95.337 95.337 0 01-20.565-30.968 95.768 95.768 0 01-7.193-36.528c0-71.253-57.528-129.1-128.354-129.1v-.009c-65.121 0-118.633 48.973-126.902 112.242H-14.974v11.216H197.25l5.484-.28.422-4.853c5.4-60.07 55.545-107.1 116.735-107.1 64.801 0 117.199 52.689 117.199 117.884 0 58.849 47.538 106.642 106.036 106.625h111.622c58.498.017 106.044-47.785 106.044-106.6h-.008z"/>
  <path fill="url(#paint10_linear_7_256)" fill-opacity=".4" d="M-15 336.75v11.234l334.874-.026a16.818 16.818 0 0011.809-4.976 17.005 17.005 0 004.931-11.882 16.972 16.972 0 00-4.93-11.876 16.787 16.787 0 00-11.81-4.958 16.787 16.787 0 00-11.81 4.958 16.972 16.972 0 00-4.93 11.876h11.154c0-3.165 2.439-5.617 5.586-5.617 3.147 0 5.586 2.46 5.586 5.617 0 3.173-2.439 5.599-5.586 5.625L-15 336.75z"/>
  <path fill="url(#paint11_linear_7_256)" fill-opacity=".4" d="M358.949 331.159c0-21.636-17.567-39.283-39.067-39.283a39.052 39.052 0 00-27.608 11.527 39.49 39.49 0 00-11.475 27.756h11.18c0-15.561 12.42-28.075 27.895-28.075s27.903 12.514 27.903 28.075-12.42 28.058-27.903 28.024L-15 359.149v11.217l334.874.034a38.99 38.99 0 0027.599-11.501 39.425 39.425 0 0011.467-27.74h.009z"/>
  <path fill="url(#paint12_linear_7_256)" fill-opacity=".4" d="M381.258 331.125c0-34.023-27.549-61.742-61.384-61.742s-61.392 27.711-61.392 61.742h11.163c0-27.965 22.418-50.508 50.229-50.508s50.229 22.543 50.229 50.508c0 27.965-22.427 50.508-50.229 50.508H-15v11.217h334.874c33.835 0 61.384-27.693 61.384-61.725z"/>
  <path fill="url(#paint13_linear_7_256)" fill-opacity=".4" d="M425.918 331.134c0-58.824-47.546-106.634-106.044-106.634s-106.045 47.81-106.045 106.634h11.172a95.786 95.786 0 017.196-36.525 95.38 95.38 0 0120.563-30.967 94.777 94.777 0 0130.792-20.682 94.34 94.34 0 0136.322-7.243 94.34 94.34 0 0136.322 7.243 94.777 94.777 0 0130.792 20.682 95.362 95.362 0 0120.562 30.967 95.768 95.768 0 017.197 36.525 95.758 95.758 0 01-7.199 36.518 95.343 95.343 0 01-20.565 30.958 94.716 94.716 0 01-30.791 20.673 94.295 94.295 0 01-36.318 7.233H-15v11.217l334.874.008c58.498.009 106.044-47.784 106.044-106.607zm24.014 61.716l-6.497-11.217-11.956-.017a51.62 51.62 0 01-11.298-1.272l-5.577 10.113a60.85 60.85 0 0016.875 2.376l18.453.017zm757.348-173.984c0-58.823-47.55-106.616-106.04-106.616-58.5 0-106.032 47.793-106.032 106.616h11.152a95.872 95.872 0 017.2-36.521 95.475 95.475 0 0120.56-30.961 94.826 94.826 0 0130.8-20.678 94.259 94.259 0 0136.32-7.239 94.33 94.33 0 0136.32 7.236 94.675 94.675 0 0130.79 20.677 95.181 95.181 0 0120.57 30.963 95.7 95.7 0 017.21 36.523 95.715 95.715 0 01-7.21 36.527 95.183 95.183 0 01-20.57 30.966 94.738 94.738 0 01-30.8 20.679 94.312 94.312 0 01-36.32 7.237l-111.642.017a94.27 94.27 0 01-36.325-7.229 94.7 94.7 0 01-30.795-20.68 95.318 95.318 0 01-20.557-30.97 95.73 95.73 0 01-7.179-36.53c.025-71.252-57.528-129.117-128.354-129.117v-.008c-65.113 0-118.633 48.981-126.902 112.241h-85.17a16.79 16.79 0 00-11.819 4.958 16.972 16.972 0 00-4.93 11.884h11.172a5.541 5.541 0 011.602-3.991 5.46 5.46 0 013.966-1.617h89.457l5.484-.28.422-4.853c5.4-60.071 55.545-107.1 116.735-107.1 64.801 0 117.199 52.688 117.182 117.875-.025 58.84 47.521 106.65 106.028 106.625l111.635-.017c58.51 0 106.06-47.802 106.06-106.625l-.02.008z"/>
  <path fill="url(#paint14_linear_7_256)" fill-opacity=".4" d="M989.588 269.4a49.89 49.89 0 01-19.234-3.822 50.11 50.11 0 01-16.305-10.947 50.42 50.42 0 01-10.884-16.398 50.672 50.672 0 01-3.798-19.341c0-96.045-77.542-174-173.023-174v-.009c-73.77 0-136.318 46.775-161.184 112.242h-50.905c-25.507.008-47.436 15.747-56.701 38.061l7.982 11.276a50.452 50.452 0 0117.839-27.482 49.97 49.97 0 0130.88-10.622h44.644l13.483-.017 1.317-3.741c22.216-63.193 82.115-108.492 152.637-108.492 89.456 0 161.868 72.814 161.877 162.784.008 34.04 27.557 61.759 61.375 61.742l111.602-.017c33.85 0 61.41-27.719 61.41-61.751 0-34.031-27.56-61.724-61.41-61.724-33.84 0-61.38 27.693-61.38 61.724h11.15c0-27.964 22.43-50.508 50.23-50.508 27.81 0 50.24 22.544 50.24 50.508a50.71 50.71 0 01-3.8 19.346 50.398 50.398 0 01-10.89 16.4 50.174 50.174 0 01-16.31 10.949 49.939 49.939 0 01-19.24 3.822l-111.602.017z"/>
  <path fill="url(#paint15_linear_7_256)" fill-opacity=".4" d="M1140.28 218.892a39.422 39.422 0 00-11.47-27.747 39.03 39.03 0 00-27.59-11.528 39.005 39.005 0 00-27.6 11.523 39.432 39.432 0 00-11.47 27.752h11.16c0-15.569 12.43-28.058 27.9-28.058 15.47 0 27.92 12.489 27.92 28.058 0 15.569-12.45 28.067-27.93 28.041H989.588a27.62 27.62 0 01-10.69-2.096 27.767 27.767 0 01-9.066-6.07 27.934 27.934 0 01-6.045-9.111 28.057 28.057 0 01-2.094-10.747c.009-108.407-87.524-196.425-195.332-196.425-77.77 0-144.562 46.037-175.976 112.25l-36.113-.042c-30.882-.043-57.891 16.833-72.412 41.905l7.881 8.798a72.591 72.591 0 0126.732-28.887 72.042 72.042 0 0137.799-10.6l42.703.043 1.502-3.292C627.376 78.422 691.62 33.717 766.353 33.717c101.783 0 184.177 82.852 184.169 185.192a39.42 39.42 0 0011.464 27.743 38.986 38.986 0 0027.602 11.498h111.622a39.008 39.008 0 0027.6-11.512 39.46 39.46 0 0011.47-27.746z"/>
  <path fill="url(#paint16_linear_7_256)" fill-opacity=".4" d="M989.588 224.509a5.494 5.494 0 01-3.964-1.626 5.562 5.562 0 01-1.605-3.991C984.019 98.072 886.505 0 766.353 0c-81.567 0-152.359 45.41-189.628 112.233h-22.461c-37.227.009-70.016 19.37-88.933 48.599l8.353 7.594a95.013 95.013 0 0134.489-32.995 94.364 94.364 0 0146.091-11.973h28.603l1.578-2.952c34.865-65.068 103.193-109.29 181.908-109.29 114.111 0 206.512 92.906 206.512 207.667 0 9.249 7.56 16.842 16.723 16.834l111.602-.017a16.787 16.787 0 0011.82-4.969 16.964 16.964 0 004.93-11.89 16.931 16.931 0 00-4.93-11.876 16.782 16.782 0 00-11.81-4.957 16.8 16.8 0 00-11.81 4.957 17.017 17.017 0 00-4.93 11.876h11.17a5.67 5.67 0 01.4-2.156 5.517 5.517 0 013.03-3.041 5.463 5.463 0 012.14-.403c3.15 0 5.59 2.435 5.59 5.6a5.614 5.614 0 01-1.62 4.003c-.52.526-1.14.94-1.82 1.22-.69.28-1.42.42-2.16.411l-111.602.034zM954.825 325.5l-24.064-11.234c-35.194-.017-70.387 0-105.581 0L801.108 325.5c51.242-.017 102.475 0 153.717 0zm-58.389-44.9l-6.497-11.217-11.939-.008h-11.939l-6.497 11.225 18.436-.009 18.436.009zm-11.306-22.467l-3.426-11.234-3.67-.008h-3.671l-3.425 11.242 7.096-.009 7.096.009zm-5.991-22.416L878 224.5l-1.148 11.217c.76-.017 1.519 0 2.287 0zM1229.56 331.1h11.17a16.987 16.987 0 00-4.94-11.879 16.772 16.772 0 00-11.81-4.955h-63.96l-24.06 11.234 88.02-.009c.73-.012 1.46.124 2.15.402.68.277 1.3.69 1.82 1.213.52.523.93 1.146 1.21 1.833a5.7 5.7 0 01.4 2.161zm40.75-19.506l3.94-15.815a61.487 61.487 0 00-21.92-19.39 61.09 61.09 0 00-28.35-7.006h-23.07l-6.5 11.217h29.57a49.917 49.917 0 0127.83 8.44 50.364 50.364 0 0118.5 22.554z"/>
  <path fill="url(#paint17_linear_7_256)" fill-opacity=".4" d="M1279.08 283.578l5.56-10.453a83.394 83.394 0 00-27.64-19.4 83.093 83.093 0 00-33.02-6.826h-14.85l-3.44 11.234 18.28-.009a71.996 71.996 0 0130.34 6.636 72.235 72.235 0 0124.77 18.818z"/>
  <path fill="url(#paint18_linear_7_256)" fill-opacity=".4" d="M1290.98 263.563l7.16-8.569c-19.78-19.563-46.42-30.516-74.17-30.494h-11.15l-1.14 11.217 12.29.008c26.17.009 49.87 10.631 67.01 27.838zM424.653 369.755l3.307-10.835a28.28 28.28 0 003.527.221l3.696.008 3.426 11.234-8.286-.017a38.976 38.976 0 01-5.67-.611zm-43.539 55.149l9.991-7.441a94.369 94.369 0 0040.391 9.036l52.786.017 24.064 11.234-76.85-.026a105.203 105.203 0 01-50.382-12.811v-.009zm625.176-93.754h-11.15a5.53 5.53 0 01-1.606 3.986 5.47 5.47 0 01-3.963 1.614H766.277l-1.224 11.2c.422.034.861.051 1.291.042h223.227a16.792 16.792 0 0011.809-4.964 16.961 16.961 0 004.91-11.878z"/>
  <path fill="url(#paint19_linear_7_256)" fill-opacity=".4" d="M1051.01 331.151h-11.15a50.709 50.709 0 01-3.8 19.345 50.377 50.377 0 01-10.89 16.4 50.062 50.062 0 01-16.32 10.943 49.854 49.854 0 01-19.237 3.811l-223.269-.025a50.968 50.968 0 01-11.298-1.29l-5.585 10.122a61.253 61.253 0 0016.875 2.384l223.277.026c33.857.017 61.397-27.685 61.397-61.716z"/>
  <path fill="url(#paint20_linear_7_256)" fill-opacity=".4" d="M766.361 404.066a71.346 71.346 0 01-23.6-3.894l-7.779 9.036a82.185 82.185 0 0031.379 6.092h223.244c46.155.034 83.705-37.722 83.705-84.149h-11.16a73.062 73.062 0 01-5.49 27.927 72.986 72.986 0 01-15.73 23.674 72.367 72.367 0 01-23.55 15.801 72.06 72.06 0 01-27.775 5.513H766.361z"/>
  <path fill="url(#paint21_linear_7_256)" fill-opacity=".4" d="M1095.65 331.151h-11.17a95.879 95.879 0 01-7.2 36.523 95.486 95.486 0 01-20.57 30.962 94.687 94.687 0 01-30.8 20.672 94.303 94.303 0 01-36.322 7.225l-223.26-.034a94.425 94.425 0 01-40.383-9.036l-9.99 7.441c14.985 8.162 32.147 12.803 50.373 12.812l223.26.034c58.512.017 106.062-47.776 106.062-106.599z"/>
  <path fill="url(#paint22_linear_7_256)" fill-opacity=".4" d="M1268.62 437.75c58.5.017 106.05-47.776 106.07-106.625-.01-.743.13-1.48.41-2.168.28-.689.69-1.314 1.22-1.839a5.47 5.47 0 011.83-1.222 5.469 5.469 0 012.15-.413c3.15 0 5.57 2.452 5.57 5.617 0 2.774-1.86 4.989-4.44 5.498l-1.13 11.335a16.783 16.783 0 0011.81-4.958 16.927 16.927 0 004.93-11.875 16.93 16.93 0 00-4.93-11.876 16.783 16.783 0 00-11.81-4.958 16.823 16.823 0 00-11.82 4.97 17.01 17.01 0 00-4.94 11.889 95.744 95.744 0 01-7.21 36.532 95.375 95.375 0 01-20.58 30.967 94.791 94.791 0 01-30.8 20.677 94.37 94.37 0 01-36.34 7.232l-167.43-.034a94.466 94.466 0 01-40.38-9.036l-9.99 7.441a105.028 105.028 0 0050.37 12.812l167.44.034zm502.3-89.766V336.75h-279.04a.486.486 0 01-.12.009l-1.16 11.191c.42.034.86.051 1.28.042l279.04-.008zm0 22.382v-11.217h-279.05c-1.2-.008-2.38-.084-3.53-.229l-3.31 10.835c2.22.39 4.51.594 6.84.602l279.05.009zm-290.34 9.969l-5.59 10.122a61.319 61.319 0 0016.88 2.376l279.05.017v-11.217l-279.05-.017c-3.8-.005-7.59-.434-11.29-1.281zm-29.11 37.128l-9.99 7.441c14.98 8.162 32.14 12.803 50.37 12.812l279.05.017v-11.217l-279.05-.017a94.4 94.4 0 01-40.38-9.036z"/>
  <path fill="url(#paint23_linear_7_256)" fill-opacity=".4" d="M1441.76 331.125c0-34.023-27.55-61.742-61.38-61.742-33.84 0-61.41 27.711-61.42 61.751a50.715 50.715 0 01-3.8 19.347 50.409 50.409 0 01-10.9 16.401 50.026 50.026 0 01-16.31 10.945 49.895 49.895 0 01-19.24 3.815l-167.45-.026a50.98 50.98 0 01-11.29-1.281l-5.58 10.122a61.157 61.157 0 0016.87 2.376l167.45.034c33.85.008 61.41-27.694 61.42-61.733a50.531 50.531 0 013.81-19.346 50.402 50.402 0 0110.89-16.401 50.066 50.066 0 0116.31-10.948 49.939 49.939 0 0119.24-3.822c27.8 0 50.23 22.543 50.23 50.508 0 27.965-22.43 50.508-49.64 50.5-3.6-.043-7.19-.476-10.7-1.29l-5.59 10.122c5.36 1.544 11.03 2.376 16.29 2.384 33.24.009 60.79-27.685 60.79-61.716z"/>
  <path fill="url(#paint24_linear_7_256)" fill-opacity=".4" d="M1268.62 370.4c21.5.025 39.07-17.614 39.1-39.283.04-40.387 32.45-72.993 72.59-72.993s72.55 32.598 72.55 72.967-32.4 72.942-71.92 72.984a70.33 70.33 0 01-22.96-3.894l-7.79 9.027a81.302 81.302 0 0030.75 6.1c45.54-.042 83.09-37.798 83.09-84.225 0-46.428-37.55-84.175-83.72-84.175s-83.72 37.756-83.75 84.217c.01 3.69-.71 7.345-2.11 10.755a27.94 27.94 0 01-6.06 9.115 27.79 27.79 0 01-9.07 6.078 27.683 27.683 0 01-10.7 2.11l-167.43-.034c-1.2 0-2.37-.084-3.52-.22l-3.31 10.835c2.22.39 4.5.593 6.83.602l167.43.034z"/>
  <path fill="url(#paint25_linear_7_256)" fill-opacity=".4" d="M1486.4 331.133c0-58.823-47.53-106.633-106.03-106.633s-106.04 47.81-106.06 106.642c.01.74-.13 1.475-.41 2.16a5.45 5.45 0 01-1.22 1.83c-.52.522-1.14.933-1.82 1.21-.69.276-1.42.412-2.15.4l-167.44.017a.565.565 0 01-.13 0l-1.15 11.191c.42.034.86.051 1.28.042l167.44-.008c9.19 0 16.75-7.602 16.76-16.842a95.72 95.72 0 017.21-36.528 95.202 95.202 0 0120.57-30.968 94.816 94.816 0 0130.79-20.684 94.425 94.425 0 0136.33-7.245 94.318 94.318 0 0136.32 7.243 94.705 94.705 0 0130.79 20.682 95.375 95.375 0 0120.57 30.966 95.693 95.693 0 017.19 36.525c0 52.757-42.4 95.4-94.28 95.366a93.921 93.921 0 01-39.79-9.036l-9.99 7.433c14.98 8.17 32.15 12.811 49.78 12.828 57.91.026 105.44-47.767 105.44-106.591z"/>
  <defs>
    <linearGradient id="paint0_linear_7_256" x1="430.196" x2="434.386" y1="336.759" y2="337.456" gradientUnits="userSpaceOnUse">
      <stop offset=".323" stop-color="#C63A3A"/>
      <stop offset="1" stop-color="#3A2828"/>
    </linearGradient>
    <linearGradient id="paint1_linear_7_256" x1="-15.014" x2="2.097" y1="449" y2="680.654" gradientUnits="userSpaceOnUse">
      <stop offset=".323" stop-color="#C63A3A"/>
      <stop offset="1" stop-color="#3A2828"/>
    </linearGradient>
    <linearGradient id="paint2_linear_7_256" x1="542.406" x2="784.794" y1="112.25" y2="399.426" gradientUnits="userSpaceOnUse">
      <stop offset=".323" stop-color="#C63A3A"/>
      <stop offset="1" stop-color="#3A2828"/>
    </linearGradient>
    <linearGradient id="paint3_linear_7_256" x1="539.732" x2="722.984" y1="134.649" y2="393.192" gradientUnits="userSpaceOnUse">
      <stop offset=".323" stop-color="#C63A3A"/>
      <stop offset="1" stop-color="#3A2828"/>
    </linearGradient>
    <linearGradient id="paint4_linear_7_256" x1="534.509" x2="654.729" y1="157.133" y2="375.752" gradientUnits="userSpaceOnUse">
      <stop offset=".323" stop-color="#C63A3A"/>
      <stop offset="1" stop-color="#3A2828"/>
    </linearGradient>
    <linearGradient id="paint5_linear_7_256" x1="516.318" x2="528.8" y1="202.016" y2="277.674" gradientUnits="userSpaceOnUse">
      <stop offset=".323" stop-color="#C63A3A"/>
      <stop offset="1" stop-color="#3A2828"/>
    </linearGradient>
    <linearGradient id="paint6_linear_7_256" x1="-15.005" x2="187.971" y1="112.259" y2="564.837" gradientUnits="userSpaceOnUse">
      <stop offset=".323" stop-color="#C63A3A"/>
      <stop offset="1" stop-color="#3A2828"/>
    </linearGradient>
    <linearGradient id="paint7_linear_7_256" x1="-15.005" x2="183.676" y1="134.649" y2="592.01" gradientUnits="userSpaceOnUse">
      <stop offset=".323" stop-color="#C63A3A"/>
      <stop offset="1" stop-color="#3A2828"/>
    </linearGradient>
    <linearGradient id="paint8_linear_7_256" x1="-15.006" x2="179.444" y1="157.133" y2="618.878" gradientUnits="userSpaceOnUse">
      <stop offset=".323" stop-color="#C63A3A"/>
      <stop offset="1" stop-color="#3A2828"/>
    </linearGradient>
    <linearGradient id="paint9_linear_7_256" x1="-14.98" x2="171.419" y1="202.016" y2="671.667" gradientUnits="userSpaceOnUse">
      <stop offset=".323" stop-color="#C63A3A"/>
      <stop offset="1" stop-color="#3A2828"/>
    </linearGradient>
    <linearGradient id="paint10_linear_7_256" x1="-15.003" x2="-5.414" y1="314.266" y2="390.822" gradientUnits="userSpaceOnUse">
      <stop offset=".323" stop-color="#C63A3A"/>
      <stop offset="1" stop-color="#3A2828"/>
    </linearGradient>
    <linearGradient id="paint11_linear_7_256" x1="-15.003" x2="31.188" y1="291.876" y2="460.293" gradientUnits="userSpaceOnUse">
      <stop offset=".323" stop-color="#C63A3A"/>
      <stop offset="1" stop-color="#3A2828"/>
    </linearGradient>
    <linearGradient id="paint12_linear_7_256" x1="-15.003" x2="84.406" y1="269.383" y2="513.657" gradientUnits="userSpaceOnUse">
      <stop offset=".323" stop-color="#C63A3A"/>
      <stop offset="1" stop-color="#3A2828"/>
    </linearGradient>
    <linearGradient id="paint13_linear_7_256" x1="-15.009" x2="247.146" y1="89.758" y2="794.77" gradientUnits="userSpaceOnUse">
      <stop offset=".323" stop-color="#C63A3A"/>
      <stop offset="1" stop-color="#3A2828"/>
    </linearGradient>
    <linearGradient id="paint14_linear_7_256" x1="497.549" x2="704.832" y1="44.883" y2="492.581" gradientUnits="userSpaceOnUse">
      <stop offset=".323" stop-color="#C63A3A"/>
      <stop offset="1" stop-color="#3A2828"/>
    </linearGradient>
    <linearGradient id="paint15_linear_7_256" x1="481.855" x2="690.356" y1="22.484" y2="468.487" gradientUnits="userSpaceOnUse">
      <stop offset=".323" stop-color="#C63A3A"/>
      <stop offset="1" stop-color="#3A2828"/>
    </linearGradient>
    <linearGradient id="paint16_linear_7_256" x1="465.325" x2="782.792" y1="0" y2="593.836" gradientUnits="userSpaceOnUse">
      <stop offset=".323" stop-color="#C63A3A"/>
      <stop offset="1" stop-color="#3A2828"/>
    </linearGradient>
    <linearGradient id="paint17_linear_7_256" x1="1205.69" x2="1243.21" y1="246.899" y2="308.722" gradientUnits="userSpaceOnUse">
      <stop offset=".323" stop-color="#C63A3A"/>
      <stop offset="1" stop-color="#3A2828"/>
    </linearGradient>
    <linearGradient id="paint18_linear_7_256" x1="381.107" x2="517.859" y1="224.5" y2="674.745" gradientUnits="userSpaceOnUse">
      <stop offset=".323" stop-color="#C63A3A"/>
      <stop offset="1" stop-color="#3A2828"/>
    </linearGradient>
    <linearGradient id="paint19_linear_7_256" x1="749.458" x2="784.966" y1="331.151" y2="463.984" gradientUnits="userSpaceOnUse">
      <stop offset=".323" stop-color="#C63A3A"/>
      <stop offset="1" stop-color="#3A2828"/>
    </linearGradient>
    <linearGradient id="paint20_linear_7_256" x1="734.979" x2="792.004" y1="331.151" y2="506.686" gradientUnits="userSpaceOnUse">
      <stop offset=".323" stop-color="#C63A3A"/>
      <stop offset="1" stop-color="#3A2828"/>
    </linearGradient>
    <linearGradient id="paint21_linear_7_256" x1="715.952" x2="795.412" y1="331.151" y2="547.845" gradientUnits="userSpaceOnUse">
      <stop offset=".323" stop-color="#C63A3A"/>
      <stop offset="1" stop-color="#3A2828"/>
    </linearGradient>
    <linearGradient id="paint22_linear_7_256" x1="1050.81" x2="1111.54" y1="314.266" y2="585.432" gradientUnits="userSpaceOnUse">
      <stop offset=".323" stop-color="#C63A3A"/>
      <stop offset="1" stop-color="#3A2828"/>
    </linearGradient>
    <linearGradient id="paint23_linear_7_256" x1="1084.38" x2="1191.15" y1="269.383" y2="505.967" gradientUnits="userSpaceOnUse">
      <stop offset=".323" stop-color="#C63A3A"/>
      <stop offset="1" stop-color="#3A2828"/>
    </linearGradient>
    <linearGradient id="paint24_linear_7_256" x1="1094.36" x2="1265.01" y1="246.908" y2="533.724" gradientUnits="userSpaceOnUse">
      <stop offset=".323" stop-color="#C63A3A"/>
      <stop offset="1" stop-color="#3A2828"/>
    </linearGradient>
    <linearGradient id="paint25_linear_7_256" x1="1099.98" x2="1333.22" y1="224.5" y2="548.121" gradientUnits="userSpaceOnUse">
      <stop offset=".323" stop-color="#C63A3A"/>
      <stop offset="1" stop-color="#3A2828"/>
    </linearGradient>
  </defs>
</svg>
