<svg fill="none" height="550" viewBox="0 0 2000 550" width="2000" xmlns="http://www.w3.org/2000/svg" xmlns:xlink="http://www.w3.org/1999/xlink"><linearGradient id="a"><stop offset=".323" stop-color="#c63a3a"/><stop offset="1" stop-color="#3a2828"/></linearGradient><linearGradient id="b" gradientUnits="userSpaceOnUse" x1="625.09727" x2="629.28725" xlink:href="#a" y1="336.759" y2="337.45599"/><linearGradient id="c" gradientUnits="userSpaceOnUse" x1="179.88726" x2="196.99826" xlink:href="#a" y1="449" y2="680.65399"/><linearGradient id="d" gradientUnits="userSpaceOnUse" x1="737.30727" x2="979.69527" xlink:href="#a" y1="112.25" y2="399.42599"/><linearGradient id="e" gradientUnits="userSpaceOnUse" x1="734.63325" x2="917.88527" xlink:href="#a" y1="134.649" y2="393.19199"/><linearGradient id="f" gradientUnits="userSpaceOnUse" x1="729.41023" x2="849.63026" xlink:href="#a" y1="157.133" y2="375.75201"/><linearGradient id="g" gradientUnits="userSpaceOnUse" x1="711.21925" x2="723.70125" xlink:href="#a" y1="202.01601" y2="277.67401"/><linearGradient id="h" gradientUnits="userSpaceOnUse" x1="179.89626" x2="382.87225" xlink:href="#a" y1="112.259" y2="564.83698"/><linearGradient id="i" gradientUnits="userSpaceOnUse" x1="179.89626" x2="378.57725" xlink:href="#a" y1="134.649" y2="592.01001"/><linearGradient id="j" gradientUnits="userSpaceOnUse" x1="179.89526" x2="374.34526" xlink:href="#a" y1="157.133" y2="618.87799"/><linearGradient id="k" gradientUnits="userSpaceOnUse" x1="106.337478" x2="366.32027" xlink:href="#a" y1="135.12166" y2="671.66699"/><linearGradient id="l" gradientUnits="userSpaceOnUse" x1="179.89826" x2="189.48726" xlink:href="#a" y1="314.26599" y2="390.82199"/><linearGradient id="m" gradientUnits="userSpaceOnUse" x1="34.79388" x2="226.08926" xlink:href="#a" y1="224.492" y2="460.293"/><linearGradient id="n" gradientUnits="userSpaceOnUse" x1="61.71825" x2="279.307258" xlink:href="#a" y1="175.73091" y2="513.65698"/><linearGradient id="o" gradientUnits="userSpaceOnUse" x1="368.08073" x2="442.04726" xlink:href="#a" y1="81.860695" y2="794.77002"/><linearGradient id="p" gradientUnits="userSpaceOnUse" x1="692.45027" x2="899.73323" xlink:href="#a" y1="44.882999" y2="492.58099"/><linearGradient id="q" gradientUnits="userSpaceOnUse" x1="676.75627" x2="885.25728" xlink:href="#a" y1="22.483999" y2="468.487"/><linearGradient id="r" gradientUnits="userSpaceOnUse" x1="660.22627" x2="977.69325" xlink:href="#a" y1="0" y2="593.836"/><linearGradient id="s" gradientUnits="userSpaceOnUse" x1="1400.59116" x2="1438.11126" xlink:href="#a" y1="246.899" y2="308.72198"/><linearGradient id="t" gradientUnits="userSpaceOnUse" x1="576.00825" x2="712.76027" xlink:href="#a" y1="224.5" y2="674.745"/><linearGradient id="u" gradientUnits="userSpaceOnUse" x1="944.35927" x2="979.86726" xlink:href="#a" y1="331.151" y2="463.98401"/><linearGradient id="v" gradientUnits="userSpaceOnUse" x1="929.88026" x2="986.90529" xlink:href="#a" y1="331.151" y2="506.686"/><linearGradient id="w" gradientUnits="userSpaceOnUse" x1="910.85329" x2="990.31325" xlink:href="#a" y1="331.151" y2="547.84497"/><linearGradient id="x" gradientUnits="userSpaceOnUse" x1="1245.71136" x2="1306.44126" xlink:href="#a" y1="314.26599" y2="585.43201"/><linearGradient id="y" gradientUnits="userSpaceOnUse" x1="1279.28126" x2="1386.05126" xlink:href="#a" y1="269.383" y2="505.96701"/><linearGradient id="z" gradientUnits="userSpaceOnUse" x1="1289.26126" x2="1459.91126" xlink:href="#a" y1="246.908" y2="533.724"/><linearGradient id="A" gradientUnits="userSpaceOnUse" x1="1294.88126" x2="1528.12126" xlink:href="#a" y1="224.5" y2="548.12097"/><g fill-opacity=".4"><path d="m627.53626 347.967-1.215-11.208-1.224 11.191c.853.059 1.561.025 2.439.017z" fill="url(#b)"/><path d="m-.177369 444.57337v11.217l2000.078669 4.42663v-11.217zm0 22.4v11.233l2000.078669 4.42663v-11.233zm0 44.967v11.217l2000.078669 4.42663v-11.217zm0 22.4v11.233l2000.078669 4.42663v-11.233z" fill="url(#c)"/><path d="m1067.2903 218.866c0-58.823-47.546-106.616-106.04504-106.616-58.498 0-106.027 47.793-106.027 106.616h11.154a95.778 95.778 0 0 1 7.2-36.521 95.34 95.34 0 0 1 20.563-30.961 94.745 94.745 0 0 1 30.791-20.678 94.306 94.306 0 0 1 36.319-7.239 94.324 94.324 0 0 1 36.324 7.236 94.77 94.77 0 0 1 30.79504 20.677 95.351 95.351 0 0 1 20.568 30.963 95.768 95.768 0 0 1 7.203 36.523 95.77 95.77 0 0 1 -7.203 36.524 95.351 95.351 0 0 1 -20.568 30.963 94.77 94.77 0 0 1 -30.79504 20.677 94.324 94.324 0 0 1 -36.324 7.236l-223.935-.008.683 11.233h223.252c58.49904 0 106.04504-47.81 106.04504-106.633z" fill="url(#d)"/><path d="m1045.0153 218.833c0-46.428-37.548-84.184-83.71904-84.184-46.171 0-83.718 37.756-83.718 84.184h11.171a73.226 73.226 0 0 1 5.497-27.932 72.89 72.89 0 0 1 15.724-23.679 72.412 72.412 0 0 1 23.549-15.811 72.089 72.089 0 0 1 27.777-5.528c40.13804 0 72.56404 32.589 72.56404 72.95 0 40.36-32.426 72.966-72.56404 73l-226.661.034 1.654 11.217 225.007-.034c46.16304-.034 83.71004-37.79 83.71004-84.217z" fill="url(#e)"/><path d="m1022.6633 218.858c0-34.023-27.56604-61.725-61.40104-61.725s-61.392 27.694-61.392 61.725h11.163c0-27.965 22.419-50.508 50.229-50.508 27.811 0 50.23004 22.543 50.23004 50.508a50.68 50.68 0 0 1 -3.801 19.343 50.45 50.45 0 0 1 -10.88604 16.4 50.13 50.13 0 0 1 -16.307 10.949 49.918 49.918 0 0 1 -19.236 3.825h-231.85l2.92 11.225h228.93c33.835 0 61.39304-27.711 61.39304-61.742z" fill="url(#f)"/><path d="m711.22126 224.5 5.611 11.217 244.43-.009a16.806 16.806 0 0 0 11.812-4.968 16.997 16.997 0 0 0 4.929-11.882 16.978 16.978 0 0 0 -4.927-11.881 16.789 16.789 0 0 0 -11.814-4.961 16.789 16.789 0 0 0 -11.815 4.955 16.97 16.97 0 0 0 -4.933 11.879h11.171c0-3.165 2.422-5.6 5.569-5.6s5.594 2.435 5.594 5.6a5.586 5.586 0 0 1 -1.612 4 5.516 5.516 0 0 1 -3.974 1.633z" fill="url(#g)"/><path d="m514.77526 112.259c-81.559 0-152.35 45.409-189.62 112.233h-324.361369v11.225h330.479369l1.578-2.953c34.864-65.068 103.217-109.289 181.916-109.289 114.119 0 206.52 92.906 206.52 207.667 0 9.248 7.56 16.85 16.74 16.842h111.622c4.43803-.0243 8.68566-1.80596 11.813-4.955 3.13723-3.15949 4.9068-7.42556 4.927-11.878h-11.154c0 3.164-2.447 5.599-5.586 5.599h-111.63c-.73534.0131-1.46571-.12296-2.147-.4-1.38069-.56034-2.47413-1.6581-3.029-3.041-.2767-.68529-.41339-1.41904-.402-2.158 0-120.82-97.514-218.892-217.666-218.892z" fill="url(#h)"/><path d="m738.01926 370.4h111.622c10.36457-.0141 20.29729-4.15304 27.605-11.503 7.33187-7.37506 11.45393-17.3476 11.469-27.747h-11.171c.0143 3.68646-.69757 7.33964-2.095 10.751-1.39558 3.4064-3.45062 6.5034-6.047 9.113-2.591 2.60446-5.67324 4.66869-9.068 6.073-3.3899 1.40142-7.02488 2.11393-10.693 2.096h-111.622c-3.67097.0159-7.30836-.69934-10.7-2.104-3.3965-1.40691-6.48005-3.47382-9.072-6.081-2.59679-2.61272-4.65181-5.71274-6.047-9.122-1.3976-3.41404-2.10882-7.07-2.093-10.759 0-108.449-87.516-196.468-195.332-196.468-77.77 0-144.554 46.037-175.967 112.25l-338.985629-4.42663v11.225l345.566629 4.42663 1.476-3.3c28.908-64.228 93.161-108.941 167.893-108.941 101.784 0 184.177 82.851 184.177 185.234.009 10.40412 4.12806 20.38337 11.46 27.765 7.308 7.35745 17.24491 11.50206 27.615 11.518z" fill="url(#i)"/><path d="m911.02426 331.15h-11.154c.0136 6.63446-1.2765 13.20695-3.797 19.344-2.51596 6.12819-6.21512 11.70038-10.886 16.398-4.66116 4.68814-10.20395 8.40758-16.309 10.944-6.09699 2.53221-12.63609 3.82861-19.238 3.814h-111.63c-6.60217.0133-13.14128-1.28444-19.238-3.818-6.10562-2.53762-11.64849-6.25882-16.309-10.949-4.67008-4.69958-8.36821-10.27344-10.883-16.403-2.5184-6.13817-3.80646-12.71129-3.791-19.346 0-96.037-77.525-174.001-173.022-174.001-73.763 0-136.294 46.775-161.16 112.242l-353.784629-4.42663v11.233l347.515629 4.42663 13.483-.017 1.317-3.75c22.216-63.192 82.115-108.491 152.637-108.491 89.456 0 161.851 72.814 161.851 162.784 0 34.048 27.558 61.741 61.401 61.733h111.622c33.835.008 61.384-27.685 61.384-61.717z" fill="url(#j)"/><path d="m955.68526 331.15h-11.171c.0138 12.52745-2.4307 24.93586-7.195 36.522-4.75732 11.56908-11.74473 22.08892-20.564 30.96-8.80216 8.85282-19.26739 15.87846-30.794 20.673-11.50982 4.78658-23.85456 7.24329-36.32 7.228h-111.622c-12.46809.0142-24.81522-2.44423-36.327-7.233-11.52821-4.79593-21.99453-11.82366-30.797-20.679-8.82063-8.87324-15.80845-19.39592-20.565-30.968-4.76406-11.58824-7.20789-23.9987-7.193-36.528 0-71.253-57.528-129.1-128.354-129.1v-.009c-65.121 0-118.633 48.973-126.902 112.242l-388.032629-4.42663v11.216l392.302629 4.42663 5.484-.28.422-4.853c5.4-60.07 55.545-107.1 116.735-107.1 64.801 0 117.199 52.689 117.199 117.884 0 58.849 47.538 106.642 106.036 106.625h111.622c58.498.017 106.044-47.785 106.044-106.6z" fill="url(#k)"/><path d="m-.177369 332.32337v11.234l514.952629 4.40063c4.43876-.0353 8.68359-1.82391 11.809-4.976 3.13621-3.16213 4.90671-7.42843 4.931-11.882-.0221-4.45206-1.79261-8.71718-4.93-11.876-3.12667-3.14858-7.37278-4.93115-11.81-4.958-4.43722.0268-8.68333 1.80942-11.81 4.958-3.13739 3.15882-4.90794 7.42394-4.93 11.876h11.154c0-3.165 2.439-5.617 5.586-5.617s5.586 2.46 5.586 5.617c0 3.173-2.439 5.599-5.586 5.625z" fill="url(#l)"/><path d="m553.85026 331.159c0-21.636-17.567-39.283-39.067-39.283-10.36796.0251-20.30037 4.17216-27.608 11.527-7.33138 7.37955-11.45496 17.35377-11.475 27.756h11.18c0-15.561 12.42-28.075 27.895-28.075s27.903 12.514 27.903 28.075-12.42 28.058-27.903 28.024l-514.952629-4.46063v11.217l514.952629 4.46063c10.36247-.0138 20.29318-4.15212 27.599-11.501 7.33053-7.37293 11.45192-17.34305 11.467-27.74z" fill="url(#m)"/><path d="m576.15926 331.125c0-34.023-27.549-61.742-61.384-61.742s-61.392 27.711-61.392 61.742h11.163c0-27.965 22.418-50.508 50.229-50.508s50.229 22.543 50.229 50.508-22.427 50.508-50.229 50.508l-514.952629-4.42663v11.217l514.952629 4.42663c33.83375.29084 61.384-27.693 61.384-61.725z" fill="url(#n)"/><path d="m620.81926 331.134c0-58.824-47.546-106.634-106.044-106.634s-106.045 47.81-106.045 106.634h11.172c-.0131-12.52844 2.43175-24.93777 7.196-36.525 4.75707-11.57103 11.74407-22.09316 20.563-30.967 8.80159-8.85483 19.26596-15.88342 30.792-20.682 11.50982-4.79058 23.85502-7.25235 36.322-7.243 12.46698-.009 24.81218 2.45242 36.322 7.243 11.52604 4.79858 21.99041 11.82717 30.792 20.682 8.81893 8.87363 15.80564 19.39583 20.562 30.967 4.76504 11.58703 7.21023 23.99644 7.197 36.525.0119 12.52636-2.43392 24.93336-7.199 36.518-4.75784 11.56845-11.74558 22.0876-20.565 30.958-8.80107 8.85273-19.26531 15.87839-30.791 20.673-11.50893 4.78778-23.85292 7.24618-36.318 7.233l-514.952629-4.42663v11.217l514.952629 4.43463c58.498.009 106.044-47.784 106.044-106.607zm24.014 61.716-6.497-11.217-11.956-.017c-3.80135-.007-7.59032-.43329-11.298-1.272l-5.577 10.113c5.4857 1.57964 11.1664 2.37948 16.875 2.376zm757.34804-173.984c0-58.823-47.55-106.616-106.04-106.616-58.5 0-106.032 47.793-106.032 106.616h11.152c-.01-12.52715 2.437-24.93464 7.2-36.521 4.7591-11.56748 11.7447-22.08709 20.56-30.961 8.8051-8.85327 19.2721-15.88039 30.8-20.678 11.5089-4.79102 23.8538-7.2515 36.32-7.239 12.4659-.0116 24.8104 2.44782 36.32 7.236 11.5262 4.79495 21.9903 11.8221 30.79 20.677 8.825 8.86874 15.815 19.39036 20.57 30.963 4.7709 11.585 7.2206 23.99408 7.21 36.523.011 12.53023-2.4389 24.94065-7.21 36.527-4.7547 11.57368-11.7447 22.09635-20.57 30.966-8.8036 8.85542-19.2709 15.88314-30.8 20.679-11.5094 4.78898-23.854 7.24873-36.32 7.237l-111.642.017c-12.4673.016-24.8138-2.44104-36.325-7.229-11.5279-4.79585-21.9937-11.82399-30.795-20.68-8.8184-8.87423-15.8035-19.39763-20.557-30.97-4.7605-11.58955-7.1996-24.00087-7.179-36.53.025-71.252-57.528-129.117-128.35404-129.117v-.008c-65.113 0-118.633 48.981-126.902 112.241h-85.17c-4.44028.0248-8.68993 1.8075-11.819 4.958-3.13933 3.16079-4.91003 7.42917-4.93 11.884h11.172c-.0251-1.49176.55247-2.9306 1.602-3.991 1.0466-1.05665 2.47895-1.64064 3.966-1.617h89.457l5.484-.28.422-4.853c5.4-60.071 55.545-107.1 116.735-107.1 64.80104 0 117.19904 52.688 117.18204 117.875-.025 58.84 47.521 106.65 106.028 106.625l111.635-.017c58.51 0 106.06-47.802 106.06-106.625z" fill="url(#o)"/><path d="m1184.4893 269.4a49.89 49.89 0 0 1 -19.234-3.822 50.11 50.11 0 0 1 -16.305-10.947 50.42 50.42 0 0 1 -10.884-16.398 50.672 50.672 0 0 1 -3.798-19.341c0-96.045-77.542-174-173.02304-174v-.009c-73.77 0-136.318 46.775-161.184 112.242h-50.905c-25.507.008-47.436 15.747-56.701 38.061l7.982 11.276a50.452 50.452 0 0 1 17.839-27.482 49.97 49.97 0 0 1 30.88-10.622h44.644l13.483-.017 1.317-3.741c22.216-63.193 82.115-108.492 152.637-108.492 89.45604 0 161.86804 72.814 161.87704 162.784.01 34.04 27.557 61.759 61.375 61.742l111.602-.017c33.85 0 61.41-27.719 61.41-61.751 0-34.031-27.56-61.724-61.41-61.724-33.84 0-61.38 27.693-61.38 61.724h11.15c0-27.964 22.43-50.508 50.23-50.508 27.81 0 50.24 22.544 50.24 50.508a50.71 50.71 0 0 1 -3.8 19.346 50.398 50.398 0 0 1 -10.89 16.4 50.174 50.174 0 0 1 -16.31 10.949 49.939 49.939 0 0 1 -19.24 3.822z" fill="url(#p)"/><path d="m1335.1813 218.892a39.422 39.422 0 0 0 -11.47-27.747 39.03 39.03 0 0 0 -27.59-11.528 39.005 39.005 0 0 0 -27.6 11.523 39.432 39.432 0 0 0 -11.47 27.752h11.16c0-15.569 12.43-28.058 27.9-28.058s27.92 12.489 27.92 28.058-12.45 28.067-27.93 28.041h-111.612a27.62 27.62 0 0 1 -10.69-2.096 27.767 27.767 0 0 1 -9.066-6.07 27.934 27.934 0 0 1 -6.045-9.111 28.057 28.057 0 0 1 -2.094-10.747c.01-108.407-87.524-196.425-195.33204-196.425-77.77 0-144.562 46.037-175.976 112.25l-36.113-.042c-30.882-.043-57.891 16.833-72.412 41.905l7.881 8.798a72.591 72.591 0 0 1 26.732-28.887 72.042 72.042 0 0 1 37.799-10.6l42.703.043 1.502-3.292c28.899-64.237 93.143-108.942 167.876-108.942 101.78304 0 184.17704 82.852 184.16904 185.192a39.42 39.42 0 0 0 11.464 27.743 38.986 38.986 0 0 0 27.602 11.498h111.622a39.008 39.008 0 0 0 27.6-11.512 39.46 39.46 0 0 0 11.47-27.746z" fill="url(#q)"/><path d="m1184.4893 224.509a5.494 5.494 0 0 1 -3.964-1.626 5.562 5.562 0 0 1 -1.605-3.991c0-120.82-97.514-218.892-217.66604-218.892-81.567 0-152.359 45.41-189.628 112.233h-22.461c-37.227.009-70.016 19.37-88.933 48.599l8.353 7.594a95.013 95.013 0 0 1 34.489-32.995 94.364 94.364 0 0 1 46.091-11.973h28.603l1.578-2.952c34.865-65.068 103.193-109.29 181.908-109.29 114.11104 0 206.51204 92.906 206.51204 207.667 0 9.249 7.56 16.842 16.723 16.834l111.602-.017a16.787 16.787 0 0 0 11.82-4.969 16.964 16.964 0 0 0 4.93-11.89 16.931 16.931 0 0 0 -4.93-11.876 16.782 16.782 0 0 0 -11.81-4.957 16.8 16.8 0 0 0 -11.81 4.957 17.017 17.017 0 0 0 -4.93 11.876h11.17a5.67 5.67 0 0 1 .4-2.156 5.517 5.517 0 0 1 3.03-3.041 5.463 5.463 0 0 1 2.14-.403c3.15 0 5.59 2.435 5.59 5.6a5.614 5.614 0 0 1 -1.62 4.003c-.52.526-1.14.94-1.82 1.22-.69.28-1.42.42-2.16.411zm-34.763 100.991-24.064-11.234c-35.194-.017-70.387 0-105.581 0l-24.07204 11.234c51.24204-.017 102.47504 0 153.71704 0zm-58.389-44.9-6.497-11.217-11.939-.008h-11.939l-6.497 11.225 18.436-.009zm-11.306-22.467-3.426-11.234-3.67-.008h-3.671l-3.425 11.242 7.096-.009zm-5.991-22.416-1.139-11.217-1.148 11.217c.76-.017 1.519 0 2.287 0zm350.421 95.383h11.17a16.987 16.987 0 0 0 -4.94-11.879 16.772 16.772 0 0 0 -11.81-4.955h-63.96l-24.06 11.234 88.02-.009c.73-.012 1.46.124 2.15.402.68.277 1.3.69 1.82 1.213s.93 1.146 1.21 1.833a5.7 5.7 0 0 1 .4 2.161zm40.75-19.506 3.94-15.815a61.487 61.487 0 0 0 -21.92-19.39 61.09 61.09 0 0 0 -28.35-7.006h-23.07l-6.5 11.217h29.57a49.917 49.917 0 0 1 27.83 8.44 50.364 50.364 0 0 1 18.5 22.554z" fill="url(#r)"/><path d="m1473.9813 283.578 5.56-10.453a83.394 83.394 0 0 0 -27.64-19.4 83.093 83.093 0 0 0 -33.02-6.826h-14.85l-3.44 11.234 18.28-.009a71.996 71.996 0 0 1 30.34 6.636 72.235 72.235 0 0 1 24.77 18.818z" fill="url(#s)"/><path d="m1485.8813 263.563 7.16-8.569c-19.78-19.563-46.42-30.516-74.17-30.494h-11.15l-1.14 11.217 12.29.008c26.17.009 49.87 10.631 67.01 27.838zm-866.32704 106.192 3.307-10.835a28.28 28.28 0 0 0 3.527.221l3.696.008 3.426 11.234-8.286-.017a38.976 38.976 0 0 1 -5.67-.611zm-43.539 55.149 9.991-7.441a94.369 94.369 0 0 0 40.391 9.036l52.786.017 24.064 11.234-76.85-.026a105.203 105.203 0 0 1 -50.382-12.811zm625.17604-93.754h-11.15a5.53 5.53 0 0 1 -1.606 3.986 5.47 5.47 0 0 1 -3.963 1.614h-223.29404l-1.224 11.2c.422.034.861.051 1.291.042h223.22704a16.792 16.792 0 0 0 11.809-4.964 16.961 16.961 0 0 0 4.91-11.878z" fill="url(#t)"/><path d="m1245.9113 331.151h-11.15a50.709 50.709 0 0 1 -3.8 19.345 50.377 50.377 0 0 1 -10.89 16.4 50.062 50.062 0 0 1 -16.32 10.943 49.854 49.854 0 0 1 -19.237 3.811l-223.26904-.025a50.968 50.968 0 0 1 -11.298-1.29l-5.585 10.122a61.253 61.253 0 0 0 16.875 2.384l223.27704.026c33.857.017 61.397-27.685 61.397-61.716z" fill="url(#u)"/><path d="m961.26226 404.066a71.346 71.346 0 0 1 -23.6-3.894l-7.779 9.036a82.185 82.185 0 0 0 31.379 6.092h223.24404c46.155.034 83.705-37.722 83.705-84.149h-11.16a73.062 73.062 0 0 1 -5.49 27.927 72.986 72.986 0 0 1 -15.73 23.674 72.367 72.367 0 0 1 -23.55 15.801 72.06 72.06 0 0 1 -27.775 5.513z" fill="url(#v)"/><path d="m1290.5513 331.151h-11.17a95.879 95.879 0 0 1 -7.2 36.523 95.486 95.486 0 0 1 -20.57 30.962 94.687 94.687 0 0 1 -30.8 20.672 94.303 94.303 0 0 1 -36.322 7.225l-223.26004-.034a94.425 94.425 0 0 1 -40.383-9.036l-9.99 7.441c14.985 8.162 32.147 12.803 50.373 12.812l223.26004.034c58.512.017 106.062-47.776 106.062-106.599z" fill="url(#w)"/><path d="m1463.5213 437.75c58.5.017 106.05-47.776 106.07-106.625-.01-.743.13-1.48.41-2.168.28-.689.69-1.314 1.22-1.839.5209-.52709 1.1435-.94284 1.83-1.222.6815-.28117 1.4128-.42165 2.15-.413 3.15 0 5.57 2.452 5.57 5.617 0 2.774-1.86 4.989-4.44 5.498l-1.13 11.335c4.4373-.0264 8.6836-1.80905 11.81-4.958 3.1413-3.15583 4.9125-7.42231 4.93-11.875-.017-4.45297-1.7888-8.71974-4.93-11.876-3.1264-3.14895-7.3727-4.93159-11.81-4.958-4.4416.0313-8.6906 1.8179-11.82 4.97-3.1407 3.16271-4.9146 7.43183-4.94 11.889.011 12.53184-2.439 24.94387-7.21 36.532-4.762 11.57251-11.7549 22.09476-20.58 30.967-8.8046 8.85362-19.2717 15.8805-30.8 20.677-11.5164 4.78838-23.8678 7.24642-36.34 7.232l-167.43-.034c-13.9624.009-27.7532-3.07687-40.38-9.036l-9.99 7.441c15.4515 8.42316 32.7718 12.82871 50.37 12.812zm536.3-89.766v-11.234h-313.04c-.04.008-.08.011-.12.009l-1.16 11.191c.42.034.86.051 1.28.042zm0 22.382v-11.217h-313.05c-1.2-.008-2.38-.084-3.53-.229l-3.31 10.835c2.22.39 4.51.594 6.84.602zm-324.34 9.969-5.59 10.122c5.4886 1.57405 11.1702 2.37377 16.88 2.376l313.05.017v-11.217l-313.05-.017c-3.8-.005-7.59-.434-11.29-1.281zm-29.11 37.128-9.99 7.441c14.98 8.162 32.14 12.803 50.37 12.812l313.05.017v-11.217l-313.05-.017c-13.9626.0113-27.7539-3.07478-40.38-9.036z" fill="url(#x)"/><path d="m1636.6613 331.125c0-34.023-27.55-61.742-61.38-61.742-33.84 0-61.41 27.711-61.42 61.751a50.715 50.715 0 0 1 -3.8 19.347 50.409 50.409 0 0 1 -10.9 16.401 50.026 50.026 0 0 1 -16.31 10.945 49.895 49.895 0 0 1 -19.24 3.815l-167.45-.026a50.98 50.98 0 0 1 -11.29-1.281l-5.58 10.122a61.157 61.157 0 0 0 16.87 2.376l167.45.034c33.85.008 61.41-27.694 61.42-61.733a50.531 50.531 0 0 1 3.81-19.346 50.402 50.402 0 0 1 10.89-16.401 50.066 50.066 0 0 1 16.31-10.948 49.939 49.939 0 0 1 19.24-3.822c27.8 0 50.23 22.543 50.23 50.508s-22.43 50.508-49.64 50.5c-3.6-.043-7.19-.476-10.7-1.29l-5.59 10.122c5.36 1.544 11.03 2.376 16.29 2.384 33.24.009 60.79-27.685 60.79-61.716z" fill="url(#y)"/><path d="m1463.5213 370.4c21.5.025 39.07-17.614 39.1-39.283.04-40.387 32.45-72.993 72.59-72.993s72.55 32.598 72.55 72.967-32.4 72.942-71.92 72.984a70.33 70.33 0 0 1 -22.96-3.894l-7.79 9.027a81.302 81.302 0 0 0 30.75 6.1c45.54-.042 83.09-37.798 83.09-84.225 0-46.428-37.55-84.175-83.72-84.175s-83.72 37.756-83.75 84.217c.01 3.69-.71 7.345-2.11 10.755a27.94 27.94 0 0 1 -6.06 9.115 27.79 27.79 0 0 1 -9.07 6.078 27.683 27.683 0 0 1 -10.7 2.11l-167.43-.034c-1.2 0-2.37-.084-3.52-.22l-3.31 10.835c2.22.39 4.5.593 6.83.602z" fill="url(#z)"/><path d="m1681.3013 331.133c0-58.823-47.53-106.633-106.03-106.633s-106.04 47.81-106.06 106.642c.01.74-.13 1.475-.41 2.16a5.45 5.45 0 0 1 -1.22 1.83c-.52.522-1.14.933-1.82 1.21-.69.276-1.42.412-2.15.4l-167.44.017a.565.565 0 0 1 -.13 0l-1.15 11.191c.42.034.86.051 1.28.042l167.44-.008c9.19 0 16.75-7.602 16.76-16.842a95.72 95.72 0 0 1 7.21-36.528 95.202 95.202 0 0 1 20.57-30.968 94.816 94.816 0 0 1 30.79-20.684 94.425 94.425 0 0 1 36.33-7.245 94.318 94.318 0 0 1 36.32 7.243 94.705 94.705 0 0 1 30.79 20.682 95.375 95.375 0 0 1 20.57 30.966 95.693 95.693 0 0 1 7.19 36.525c0 52.757-42.4 95.4-94.28 95.366a93.921 93.921 0 0 1 -39.79-9.036l-9.99 7.433c14.98 8.17 32.15 12.811 49.78 12.828 57.91.026 105.44-47.767 105.44-106.591z" fill="url(#A)"/></g></svg>