<?xml version="1.0" encoding="UTF-8" standalone="no"?>
<svg
   width="2000"
   height="550"
   fill="none"
   viewBox="0 0 2000 550"
   version="1.1"
   id="svg193"
   sodipodi:docname="ff-cloud.svg"
   inkscape:version="1.1.2 (b8e25be8, 2022-02-05)"
   xmlns:inkscape="http://www.inkscape.org/namespaces/inkscape"
   xmlns:sodipodi="http://sodipodi.sourceforge.net/DTD/sodipodi-0.dtd"
   xmlns="http://www.w3.org/2000/svg"
   xmlns:svg="http://www.w3.org/2000/svg">
  <sodipodi:namedview
     id="namedview195"
     pagecolor="#505050"
     bordercolor="#eeeeee"
     borderopacity="1"
     inkscape:pageshadow="0"
     inkscape:pageopacity="0"
     inkscape:pagecheckerboard="0"
     showgrid="false"
     width="1441px"
     inkscape:zoom="0.30382303"
     inkscape:cx="967.66857"
     inkscape:cy="197.48338"
     inkscape:window-width="1728"
     inkscape:window-height="966"
     inkscape:window-x="2484"
     inkscape:window-y="1928"
     inkscape:window-maximized="1"
     inkscape:current-layer="svg193" />
  <path
     fill="url(#paint0_linear_7_256)"
     fill-opacity="0.4"
     d="m 627.53626,347.967 -1.215,-11.208 -1.224,11.191 c 0.853,0.059 1.561,0.025 2.439,0.017 z"
     id="path9"
     style="fill:url(#paint0_linear_7_256)" />
  <path
     fill="url(#paint1_linear_7_256)"
     fill-opacity="0.4"
     d="m -0.177369,444.57337 v 11.217 L 1999.9013,460.217 V 449 Z m 0,22.4 v 11.233 L 1999.9013,482.633 V 471.4 Z m 0,44.967 v 11.217 L 1999.9013,527.584 v -11.217 z m 0,22.4 v 11.233 L 1999.9013,550 v -11.233 z"
     id="path11"
     sodipodi:nodetypes="cccccccccccccccccccc"
     style="fill:url(#paint1_linear_7_256)" />
  <path
     fill="url(#paint2_linear_7_256)"
     fill-opacity="0.4"
     d="m 1067.2903,218.866 c 0,-58.823 -47.546,-106.616 -106.04504,-106.616 -58.498,0 -106.027,47.793 -106.027,106.616 h 11.154 a 95.778,95.778 0 0 1 7.2,-36.521 95.34,95.34 0 0 1 20.563,-30.961 94.745,94.745 0 0 1 30.791,-20.678 94.306,94.306 0 0 1 36.319,-7.239 94.324,94.324 0 0 1 36.324,7.236 94.77,94.77 0 0 1 30.79504,20.677 95.351,95.351 0 0 1 20.568,30.963 95.768,95.768 0 0 1 7.203,36.523 95.77,95.77 0 0 1 -7.203,36.524 95.351,95.351 0 0 1 -20.568,30.963 94.77,94.77 0 0 1 -30.79504,20.677 94.324,94.324 0 0 1 -36.324,7.236 l -223.935,-0.008 0.683,11.233 h 223.252 c 58.49904,0 106.04504,-47.81 106.04504,-106.633 z"
     id="path13"
     style="fill:url(#paint2_linear_7_256)" />
  <path
     fill="url(#paint3_linear_7_256)"
     fill-opacity="0.4"
     d="m 1045.0153,218.833 c 0,-46.428 -37.548,-84.184 -83.71904,-84.184 -46.171,0 -83.718,37.756 -83.718,84.184 h 11.171 a 73.226,73.226 0 0 1 5.497,-27.932 72.89,72.89 0 0 1 15.724,-23.679 72.412,72.412 0 0 1 23.549,-15.811 72.089,72.089 0 0 1 27.777,-5.528 c 40.13804,0 72.56404,32.589 72.56404,72.95 0,40.36 -32.426,72.966 -72.56404,73 l -226.661,0.034 1.654,11.217 225.007,-0.034 c 46.16304,-0.034 83.71004,-37.79 83.71004,-84.217 z"
     id="path15"
     style="fill:url(#paint3_linear_7_256)" />
  <path
     fill="url(#paint4_linear_7_256)"
     fill-opacity="0.4"
     d="m 1022.6633,218.858 c 0,-34.023 -27.56604,-61.725 -61.40104,-61.725 -33.835,0 -61.392,27.694 -61.392,61.725 h 11.163 c 0,-27.965 22.419,-50.508 50.229,-50.508 27.811,0 50.23004,22.543 50.23004,50.508 a 50.68,50.68 0 0 1 -3.801,19.343 50.45,50.45 0 0 1 -10.88604,16.4 50.13,50.13 0 0 1 -16.307,10.949 49.918,49.918 0 0 1 -19.236,3.825 h -231.85 l 2.92,11.225 h 228.93 c 33.835,0 61.39304,-27.711 61.39304,-61.742 z"
     id="path17"
     style="fill:url(#paint4_linear_7_256)" />
  <path
     fill="url(#paint5_linear_7_256)"
     fill-opacity="0.4"
     d="m 711.22126,224.5 5.611,11.217 244.43,-0.009 a 16.806,16.806 0 0 0 11.812,-4.968 16.997,16.997 0 0 0 4.929,-11.882 16.978,16.978 0 0 0 -4.927,-11.881 16.789,16.789 0 0 0 -11.814,-4.961 16.789,16.789 0 0 0 -11.815,4.955 16.97,16.97 0 0 0 -4.933,11.879 h 11.171 c 0,-3.165 2.422,-5.6 5.569,-5.6 3.147,0 5.594,2.435 5.594,5.6 a 5.586,5.586 0 0 1 -1.612,4 5.516,5.516 0 0 1 -3.974,1.633 z"
     id="path19"
     style="fill:url(#paint5_linear_7_256)" />
  <path
     fill="url(#paint6_linear_7_256)"
     fill-opacity="0.4"
     d="m 514.77526,112.259 c -81.559,0 -152.35,45.409 -189.62,112.233 H 0.793891 v 11.225 H 331.27326 l 1.578,-2.953 c 34.864,-65.068 103.217,-109.289 181.916,-109.289 114.119,0 206.52,92.906 206.52,207.667 0,9.248 7.56,16.85 16.74,16.842 h 111.622 c 4.43803,-0.0243 8.68566,-1.80596 11.813,-4.955 3.13723,-3.15949 4.9068,-7.42556 4.927,-11.878 h -11.154 c 0,3.164 -2.447,5.599 -5.586,5.599 h -111.63 c -0.73534,0.0131 -1.46571,-0.12296 -2.147,-0.4 -1.38069,-0.56034 -2.47413,-1.6581 -3.029,-3.041 -0.2767,-0.68529 -0.41339,-1.41904 -0.402,-2.158 0,-120.82 -97.514,-218.892 -217.666,-218.892 z"
     id="path21"
     sodipodi:nodetypes="scccccsscccccsccccs"
     style="fill:url(#paint6_linear_7_256)" />
  <path
     fill="url(#paint7_linear_7_256)"
     fill-opacity="0.4"
     d="m 738.01926,370.4 h 111.622 c 10.36457,-0.0141 20.29729,-4.15304 27.605,-11.503 7.33187,-7.37506 11.45393,-17.3476 11.469,-27.747 h -11.171 c 0.0143,3.68646 -0.69757,7.33964 -2.095,10.751 -1.39558,3.4064 -3.45062,6.5034 -6.047,9.113 -2.591,2.60446 -5.67324,4.66869 -9.068,6.073 -3.3899,1.40142 -7.02488,2.11393 -10.693,2.096 h -111.622 c -3.67097,0.0159 -7.30836,-0.69934 -10.7,-2.104 -3.3965,-1.40691 -6.48005,-3.47382 -9.072,-6.081 -2.59679,-2.61272 -4.65181,-5.71274 -6.047,-9.122 -1.3976,-3.41404 -2.10882,-7.07 -2.093,-10.759 0,-108.449 -87.516,-196.468 -195.332,-196.468 -77.77,0 -144.554,46.037 -175.967,112.25 L -0.177369,242.47237 v 11.225 l 345.566629,4.42663 1.476,-3.3 c 28.908,-64.228 93.161,-108.941 167.893,-108.941 101.784,0 184.177,82.851 184.177,185.234 0.009,10.40412 4.12806,20.38337 11.46,27.765 7.308,7.35745 17.24491,11.50206 27.615,11.518 z"
     id="path23"
     sodipodi:nodetypes="ccccccccccccccscccccscssc"
     style="fill:url(#paint7_linear_7_256)" />
  <path
     fill="url(#paint8_linear_7_256)"
     fill-opacity="0.4"
     d="m 911.02426,331.15 h -11.154 c 0.0136,6.63446 -1.2765,13.20695 -3.797,19.344 -2.51596,6.12819 -6.21512,11.70038 -10.886,16.398 -4.66116,4.68814 -10.20395,8.40758 -16.309,10.944 -6.09699,2.53221 -12.63609,3.82861 -19.238,3.814 h -111.63 c -6.60217,0.0133 -13.14128,-1.28444 -19.238,-3.818 -6.10562,-2.53762 -11.64849,-6.25882 -16.309,-10.949 -4.67008,-4.69958 -8.36821,-10.27344 -10.883,-16.403 -2.5184,-6.13817 -3.80646,-12.71129 -3.791,-19.346 0,-96.037 -77.525,-174.001 -173.022,-174.001 -73.763,0 -136.294,46.775 -161.16,112.242 L -0.177369,264.94837 v 11.233 l 347.515629,4.42663 13.483,-0.017 1.317,-3.75 c 22.216,-63.192 82.115,-108.491 152.637,-108.491 89.456,0 161.851,72.814 161.851,162.784 0,34.048 27.558,61.741 61.401,61.733 h 111.622 c 33.835,0.008 61.384,-27.685 61.384,-61.717 z"
     id="path25"
     sodipodi:nodetypes="cccccccccscsccccccsscccc"
     style="fill:url(#paint8_linear_7_256)" />
  <path
     fill="url(#paint9_linear_7_256)"
     fill-opacity="0.4"
     d="m 955.68526,331.15 h -11.171 c 0.0138,12.52745 -2.4307,24.93586 -7.195,36.522 -4.75732,11.56908 -11.74473,22.08892 -20.564,30.96 -8.80216,8.85282 -19.26739,15.87846 -30.794,20.673 -11.50982,4.78658 -23.85456,7.24329 -36.32,7.228 h -111.622 c -12.46809,0.0142 -24.81522,-2.44423 -36.327,-7.233 -11.52821,-4.79593 -21.99453,-11.82366 -30.797,-20.679 -8.82063,-8.87324 -15.80845,-19.39592 -20.565,-30.968 -4.76406,-11.58824 -7.20789,-23.9987 -7.193,-36.528 0,-71.253 -57.528,-129.1 -128.354,-129.1 v -0.009 c -65.121,0 -118.633,48.973 -126.902,112.242 L -0.151369,309.83137 v 11.216 l 392.302629,4.42663 5.484,-0.28 0.422,-4.853 c 5.4,-60.07 55.545,-107.1 116.735,-107.1 64.801,0 117.199,52.689 117.199,117.884 0,58.849 47.538,106.642 106.036,106.625 h 111.622 c 58.498,0.017 106.044,-47.785 106.044,-106.6 z"
     id="path27"
     sodipodi:nodetypes="ccsccccccccccccccccsscccc"
     style="fill:url(#paint9_linear_7_256)" />
  <path
     fill="url(#paint10_linear_7_256)"
     fill-opacity="0.4"
     d="m -0.177369,332.32337 v 11.234 L 514.77526,347.958 c 4.43876,-0.0353 8.68359,-1.82391 11.809,-4.976 3.13621,-3.16213 4.90671,-7.42843 4.931,-11.882 -0.0221,-4.45206 -1.79261,-8.71718 -4.93,-11.876 -3.12667,-3.14858 -7.37278,-4.93115 -11.81,-4.958 -4.43722,0.0268 -8.68333,1.80942 -11.81,4.958 -3.13739,3.15882 -4.90794,7.42394 -4.93,11.876 h 11.154 c 0,-3.165 2.439,-5.617 5.586,-5.617 3.147,0 5.586,2.46 5.586,5.617 0,3.173 -2.439,5.599 -5.586,5.625 z"
     id="path29"
     sodipodi:nodetypes="ccccccccccsscc"
     style="fill:url(#paint10_linear_7_256)" />
  <path
     fill="url(#paint11_linear_7_256)"
     fill-opacity="0.4"
     d="m 553.85026,331.159 c 0,-21.636 -17.567,-39.283 -39.067,-39.283 -10.36796,0.0251 -20.30037,4.17216 -27.608,11.527 -7.33138,7.37955 -11.45496,17.35377 -11.475,27.756 h 11.18 c 0,-15.561 12.42,-28.075 27.895,-28.075 15.475,0 27.903,12.514 27.903,28.075 0,15.561 -12.42,28.058 -27.903,28.024 L -0.177369,354.72237 v 11.217 L 514.77526,370.4 c 10.36247,-0.0138 20.29318,-4.15212 27.599,-11.501 7.33053,-7.37293 11.45192,-17.34305 11.467,-27.74 z"
     id="path31"
     sodipodi:nodetypes="cccccssccccccc"
     style="fill:url(#paint11_linear_7_256)" />
  <path
     fill="url(#paint12_linear_7_256)"
     fill-opacity="0.4"
     d="m 576.15926,331.125 c 0,-34.023 -27.549,-61.742 -61.384,-61.742 -33.835,0 -61.392,27.711 -61.392,61.742 h 11.163 c 0,-27.965 22.418,-50.508 50.229,-50.508 27.811,0 50.229,22.543 50.229,50.508 0,27.965 -22.427,50.508 -50.229,50.508 L -0.177369,377.20637 v 11.217 L 514.77526,392.85 c 33.83375,0.29084 61.384,-27.693 61.384,-61.725 z"
     id="path33"
     sodipodi:nodetypes="ssccsssccss"
     style="fill:url(#paint12_linear_7_256)" />
  <path
     fill="url(#paint13_linear_7_256)"
     fill-opacity="0.4"
     d="m 620.81926,331.134 c 0,-58.824 -47.546,-106.634 -106.044,-106.634 -58.498,0 -106.045,47.81 -106.045,106.634 h 11.172 c -0.0131,-12.52844 2.43175,-24.93777 7.196,-36.525 4.75707,-11.57103 11.74407,-22.09316 20.563,-30.967 8.80159,-8.85483 19.26596,-15.88342 30.792,-20.682 11.50982,-4.79058 23.85502,-7.25235 36.322,-7.243 12.46698,-0.009 24.81218,2.45242 36.322,7.243 11.52604,4.79858 21.99041,11.82717 30.792,20.682 8.81893,8.87363 15.80564,19.39583 20.562,30.967 4.76504,11.58703 7.21023,23.99644 7.197,36.525 0.0119,12.52636 -2.43392,24.93336 -7.199,36.518 -4.75784,11.56845 -11.74558,22.0876 -20.565,30.958 -8.80107,8.85273 -19.26531,15.87839 -30.791,20.673 -11.50893,4.78778 -23.85292,7.24618 -36.318,7.233 L -0.177369,422.08937 v 11.217 L 514.77526,437.741 c 58.498,0.009 106.044,-47.784 106.044,-106.607 z m 24.014,61.716 -6.497,-11.217 -11.956,-0.017 c -3.80135,-0.007 -7.59032,-0.43329 -11.298,-1.272 l -5.577,10.113 c 5.4857,1.57964 11.1664,2.37948 16.875,2.376 z M 1402.1813,218.866 c 0,-58.823 -47.55,-106.616 -106.04,-106.616 -58.5,0 -106.032,47.793 -106.032,106.616 h 11.152 c -0.01,-12.52715 2.437,-24.93464 7.2,-36.521 4.7591,-11.56748 11.7447,-22.08709 20.56,-30.961 8.8051,-8.85327 19.2721,-15.88039 30.8,-20.678 11.5089,-4.79102 23.8538,-7.2515 36.32,-7.239 12.4659,-0.0116 24.8104,2.44782 36.32,7.236 11.5262,4.79495 21.9903,11.8221 30.79,20.677 8.825,8.86874 15.815,19.39036 20.57,30.963 4.7709,11.585 7.2206,23.99408 7.21,36.523 0.011,12.53023 -2.4389,24.94065 -7.21,36.527 -4.7547,11.57368 -11.7447,22.09635 -20.57,30.966 -8.8036,8.85542 -19.2709,15.88314 -30.8,20.679 -11.5094,4.78898 -23.854,7.24873 -36.32,7.237 l -111.642,0.017 c -12.4673,0.016 -24.8138,-2.44104 -36.325,-7.229 -11.5279,-4.79585 -21.9937,-11.82399 -30.795,-20.68 -8.8184,-8.87423 -15.8035,-19.39763 -20.557,-30.97 -4.7605,-11.58955 -7.1996,-24.00087 -7.179,-36.53 0.025,-71.252 -57.528,-129.117 -128.35404,-129.117 v -0.008 c -65.113,0 -118.633,48.981 -126.902,112.241 h -85.17 c -4.44028,0.0248 -8.68993,1.8075 -11.819,4.958 -3.13933,3.16079 -4.91003,7.42917 -4.93,11.884 h 11.172 c -0.0251,-1.49176 0.55247,-2.9306 1.602,-3.991 1.0466,-1.05665 2.47895,-1.64064 3.966,-1.617 h 89.457 l 5.484,-0.28 0.422,-4.853 c 5.4,-60.071 55.545,-107.1 116.735,-107.1 64.80104,0 117.19904,52.688 117.18204,117.875 -0.025,58.84 47.521,106.65 106.028,106.625 l 111.635,-0.017 c 58.51,0 106.06,-47.802 106.06,-106.625 z"
     id="path35"
     sodipodi:nodetypes="sscccccccccccccccccsccccccccsccccccsccccccccccscccccscccccccsccccc"
     style="fill:url(#paint13_linear_7_256)" />
  <path
     fill="url(#paint14_linear_7_256)"
     fill-opacity="0.4"
     d="m 1184.4893,269.4 a 49.89,49.89 0 0 1 -19.234,-3.822 50.11,50.11 0 0 1 -16.305,-10.947 50.42,50.42 0 0 1 -10.884,-16.398 50.672,50.672 0 0 1 -3.798,-19.341 c 0,-96.045 -77.542,-174 -173.02304,-174 v -0.009 c -73.77,0 -136.318,46.775 -161.184,112.242 h -50.905 c -25.507,0.008 -47.436,15.747 -56.701,38.061 l 7.982,11.276 a 50.452,50.452 0 0 1 17.839,-27.482 49.97,49.97 0 0 1 30.88,-10.622 h 44.644 l 13.483,-0.017 1.317,-3.741 c 22.216,-63.193 82.115,-108.492 152.637,-108.492 89.45604,0 161.86804,72.814 161.87704,162.784 0.01,34.04 27.557,61.759 61.375,61.742 l 111.602,-0.017 c 33.85,0 61.41,-27.719 61.41,-61.751 0,-34.031 -27.56,-61.724 -61.41,-61.724 -33.84,0 -61.38,27.693 -61.38,61.724 h 11.15 c 0,-27.964 22.43,-50.508 50.23,-50.508 27.81,0 50.24,22.544 50.24,50.508 a 50.71,50.71 0 0 1 -3.8,19.346 50.398,50.398 0 0 1 -10.89,16.4 50.174,50.174 0 0 1 -16.31,10.949 49.939,49.939 0 0 1 -19.24,3.822 z"
     id="path37"
     style="fill:url(#paint14_linear_7_256)" />
  <path
     fill="url(#paint15_linear_7_256)"
     fill-opacity="0.4"
     d="m 1335.1813,218.892 a 39.422,39.422 0 0 0 -11.47,-27.747 39.03,39.03 0 0 0 -27.59,-11.528 39.005,39.005 0 0 0 -27.6,11.523 39.432,39.432 0 0 0 -11.47,27.752 h 11.16 c 0,-15.569 12.43,-28.058 27.9,-28.058 15.47,0 27.92,12.489 27.92,28.058 0,15.569 -12.45,28.067 -27.93,28.041 h -111.612 a 27.62,27.62 0 0 1 -10.69,-2.096 27.767,27.767 0 0 1 -9.066,-6.07 27.934,27.934 0 0 1 -6.045,-9.111 28.057,28.057 0 0 1 -2.094,-10.747 c 0.01,-108.407 -87.524,-196.425 -195.33204,-196.425 -77.77,0 -144.562,46.037 -175.976,112.25 l -36.113,-0.042 c -30.882,-0.043 -57.891,16.833 -72.412,41.905 l 7.881,8.798 a 72.591,72.591 0 0 1 26.732,-28.887 72.042,72.042 0 0 1 37.799,-10.6 l 42.703,0.043 1.502,-3.292 c 28.899,-64.237 93.143,-108.942 167.876,-108.942 101.78304,0 184.17704,82.852 184.16904,185.192 a 39.42,39.42 0 0 0 11.464,27.743 38.986,38.986 0 0 0 27.602,11.498 h 111.622 a 39.008,39.008 0 0 0 27.6,-11.512 39.46,39.46 0 0 0 11.47,-27.746 z"
     id="path39"
     style="fill:url(#paint15_linear_7_256)" />
  <path
     fill="url(#paint16_linear_7_256)"
     fill-opacity="0.4"
     d="m 1184.4893,224.509 a 5.494,5.494 0 0 1 -3.964,-1.626 5.562,5.562 0 0 1 -1.605,-3.991 C 1178.9203,98.072 1081.4063,0 961.25426,0 c -81.567,0 -152.359,45.41 -189.628,112.233 h -22.461 c -37.227,0.009 -70.016,19.37 -88.933,48.599 l 8.353,7.594 a 95.013,95.013 0 0 1 34.489,-32.995 94.364,94.364 0 0 1 46.091,-11.973 h 28.603 l 1.578,-2.952 c 34.865,-65.068 103.193,-109.29 181.908,-109.29 114.11104,0 206.51204,92.906 206.51204,207.667 0,9.249 7.56,16.842 16.723,16.834 l 111.602,-0.017 a 16.787,16.787 0 0 0 11.82,-4.969 16.964,16.964 0 0 0 4.93,-11.89 16.931,16.931 0 0 0 -4.93,-11.876 16.782,16.782 0 0 0 -11.81,-4.957 16.8,16.8 0 0 0 -11.81,4.957 17.017,17.017 0 0 0 -4.93,11.876 h 11.17 a 5.67,5.67 0 0 1 0.4,-2.156 5.517,5.517 0 0 1 3.03,-3.041 5.463,5.463 0 0 1 2.14,-0.403 c 3.15,0 5.59,2.435 5.59,5.6 a 5.614,5.614 0 0 1 -1.62,4.003 c -0.52,0.526 -1.14,0.94 -1.82,1.22 -0.69,0.28 -1.42,0.42 -2.16,0.411 z m -34.763,100.991 -24.064,-11.234 c -35.194,-0.017 -70.387,0 -105.581,0 L 996.00926,325.5 c 51.24204,-0.017 102.47504,0 153.71704,0 z m -58.389,-44.9 -6.497,-11.217 -11.939,-0.008 h -11.939 l -6.497,11.225 18.436,-0.009 z m -11.306,-22.467 -3.426,-11.234 -3.67,-0.008 h -3.671 l -3.425,11.242 7.096,-0.009 z m -5.991,-22.416 -1.139,-11.217 -1.148,11.217 c 0.76,-0.017 1.519,0 2.287,0 z m 350.421,95.383 h 11.17 a 16.987,16.987 0 0 0 -4.94,-11.879 16.772,16.772 0 0 0 -11.81,-4.955 h -63.96 l -24.06,11.234 88.02,-0.009 c 0.73,-0.012 1.46,0.124 2.15,0.402 0.68,0.277 1.3,0.69 1.82,1.213 0.52,0.523 0.93,1.146 1.21,1.833 a 5.7,5.7 0 0 1 0.4,2.161 z m 40.75,-19.506 3.94,-15.815 a 61.487,61.487 0 0 0 -21.92,-19.39 61.09,61.09 0 0 0 -28.35,-7.006 h -23.07 l -6.5,11.217 h 29.57 a 49.917,49.917 0 0 1 27.83,8.44 50.364,50.364 0 0 1 18.5,22.554 z"
     id="path41"
     style="fill:url(#paint16_linear_7_256)" />
  <path
     fill="url(#paint17_linear_7_256)"
     fill-opacity="0.4"
     d="m 1473.9813,283.578 5.56,-10.453 a 83.394,83.394 0 0 0 -27.64,-19.4 83.093,83.093 0 0 0 -33.02,-6.826 h -14.85 l -3.44,11.234 18.28,-0.009 a 71.996,71.996 0 0 1 30.34,6.636 72.235,72.235 0 0 1 24.77,18.818 z"
     id="path43"
     style="fill:url(#paint17_linear_7_256)" />
  <path
     fill="url(#paint18_linear_7_256)"
     fill-opacity="0.4"
     d="m 1485.8813,263.563 7.16,-8.569 c -19.78,-19.563 -46.42,-30.516 -74.17,-30.494 h -11.15 l -1.14,11.217 12.29,0.008 c 26.17,0.009 49.87,10.631 67.01,27.838 z m -866.32704,106.192 3.307,-10.835 a 28.28,28.28 0 0 0 3.527,0.221 l 3.696,0.008 3.426,11.234 -8.286,-0.017 a 38.976,38.976 0 0 1 -5.67,-0.611 z m -43.539,55.149 9.991,-7.441 a 94.369,94.369 0 0 0 40.391,9.036 l 52.786,0.017 24.064,11.234 -76.85,-0.026 a 105.203,105.203 0 0 1 -50.382,-12.811 z M 1201.1913,331.15 h -11.15 a 5.53,5.53 0 0 1 -1.606,3.986 5.47,5.47 0 0 1 -3.963,1.614 H 961.17826 l -1.224,11.2 c 0.422,0.034 0.861,0.051 1.291,0.042 h 223.22704 a 16.792,16.792 0 0 0 11.809,-4.964 16.961,16.961 0 0 0 4.91,-11.878 z"
     id="path45"
     style="fill:url(#paint18_linear_7_256)" />
  <path
     fill="url(#paint19_linear_7_256)"
     fill-opacity="0.4"
     d="m 1245.9113,331.151 h -11.15 a 50.709,50.709 0 0 1 -3.8,19.345 50.377,50.377 0 0 1 -10.89,16.4 50.062,50.062 0 0 1 -16.32,10.943 49.854,49.854 0 0 1 -19.237,3.811 l -223.26904,-0.025 a 50.968,50.968 0 0 1 -11.298,-1.29 l -5.585,10.122 a 61.253,61.253 0 0 0 16.875,2.384 l 223.27704,0.026 c 33.857,0.017 61.397,-27.685 61.397,-61.716 z"
     id="path47"
     style="fill:url(#paint19_linear_7_256)" />
  <path
     fill="url(#paint20_linear_7_256)"
     fill-opacity="0.4"
     d="m 961.26226,404.066 a 71.346,71.346 0 0 1 -23.6,-3.894 l -7.779,9.036 a 82.185,82.185 0 0 0 31.379,6.092 h 223.24404 c 46.155,0.034 83.705,-37.722 83.705,-84.149 h -11.16 a 73.062,73.062 0 0 1 -5.49,27.927 72.986,72.986 0 0 1 -15.73,23.674 72.367,72.367 0 0 1 -23.55,15.801 72.06,72.06 0 0 1 -27.775,5.513 z"
     id="path49"
     style="fill:url(#paint20_linear_7_256)" />
  <path
     fill="url(#paint21_linear_7_256)"
     fill-opacity="0.4"
     d="m 1290.5513,331.151 h -11.17 a 95.879,95.879 0 0 1 -7.2,36.523 95.486,95.486 0 0 1 -20.57,30.962 94.687,94.687 0 0 1 -30.8,20.672 94.303,94.303 0 0 1 -36.322,7.225 l -223.26004,-0.034 a 94.425,94.425 0 0 1 -40.383,-9.036 l -9.99,7.441 c 14.985,8.162 32.147,12.803 50.373,12.812 l 223.26004,0.034 c 58.512,0.017 106.062,-47.776 106.062,-106.599 z"
     id="path51"
     style="fill:url(#paint21_linear_7_256)" />
  <path
     fill="url(#paint22_linear_7_256)"
     fill-opacity="0.4"
     d="m 1463.5213,437.75 c 58.5,0.017 106.05,-47.776 106.07,-106.625 -0.01,-0.743 0.13,-1.48 0.41,-2.168 0.28,-0.689 0.69,-1.314 1.22,-1.839 0.5209,-0.52709 1.1435,-0.94284 1.83,-1.222 0.6815,-0.28117 1.4128,-0.42165 2.15,-0.413 3.15,0 5.57,2.452 5.57,5.617 0,2.774 -1.86,4.989 -4.44,5.498 l -1.13,11.335 c 4.4373,-0.0264 8.6836,-1.80905 11.81,-4.958 3.1413,-3.15583 4.9125,-7.42231 4.93,-11.875 -0.017,-4.45297 -1.7888,-8.71974 -4.93,-11.876 -3.1264,-3.14895 -7.3727,-4.93159 -11.81,-4.958 -4.4416,0.0313 -8.6906,1.8179 -11.82,4.97 -3.1407,3.16271 -4.9146,7.43183 -4.94,11.889 0.011,12.53184 -2.439,24.94387 -7.21,36.532 -4.762,11.57251 -11.7549,22.09476 -20.58,30.967 -8.8046,8.85362 -19.2717,15.8805 -30.8,20.677 -11.5164,4.78838 -23.8678,7.24642 -36.34,7.232 l -167.43,-0.034 c -13.9624,0.009 -27.7532,-3.07687 -40.38,-9.036 l -9.99,7.441 c 15.4515,8.42316 32.7718,12.82871 50.37,12.812 z m 536.3,-89.766 V 336.75 h -313.04 c -0.04,0.008 -0.08,0.011 -0.12,0.009 l -1.16,11.191 c 0.42,0.034 0.86,0.051 1.28,0.042 z m 0,22.382 v -11.217 h -313.05 c -1.2,-0.008 -2.38,-0.084 -3.53,-0.229 l -3.31,10.835 c 2.22,0.39 4.51,0.594 6.84,0.602 z m -324.34,9.969 -5.59,10.122 c 5.4886,1.57405 11.1702,2.37377 16.88,2.376 l 313.05,0.017 v -11.217 l -313.05,-0.017 c -3.8,-0.005 -7.59,-0.434 -11.29,-1.281 z m -29.11,37.128 -9.99,7.441 c 14.98,8.162 32.14,12.803 50.37,12.812 l 313.05,0.017 v -11.217 l -313.05,-0.017 c -13.9626,0.0113 -27.7539,-3.07478 -40.38,-9.036 z"
     id="path53"
     style="fill:url(#paint22_linear_7_256)"
     sodipodi:nodetypes="ccccccsccccccccccccccccccccccccccccccccccccccccccccc" />
  <path
     fill="url(#paint23_linear_7_256)"
     fill-opacity="0.4"
     d="m 1636.6613,331.125 c 0,-34.023 -27.55,-61.742 -61.38,-61.742 -33.84,0 -61.41,27.711 -61.42,61.751 a 50.715,50.715 0 0 1 -3.8,19.347 50.409,50.409 0 0 1 -10.9,16.401 50.026,50.026 0 0 1 -16.31,10.945 49.895,49.895 0 0 1 -19.24,3.815 l -167.45,-0.026 a 50.98,50.98 0 0 1 -11.29,-1.281 l -5.58,10.122 a 61.157,61.157 0 0 0 16.87,2.376 l 167.45,0.034 c 33.85,0.008 61.41,-27.694 61.42,-61.733 a 50.531,50.531 0 0 1 3.81,-19.346 50.402,50.402 0 0 1 10.89,-16.401 50.066,50.066 0 0 1 16.31,-10.948 49.939,49.939 0 0 1 19.24,-3.822 c 27.8,0 50.23,22.543 50.23,50.508 0,27.965 -22.43,50.508 -49.64,50.5 -3.6,-0.043 -7.19,-0.476 -10.7,-1.29 l -5.59,10.122 c 5.36,1.544 11.03,2.376 16.29,2.384 33.24,0.009 60.79,-27.685 60.79,-61.716 z"
     id="path55"
     style="fill:url(#paint23_linear_7_256)" />
  <path
     fill="url(#paint24_linear_7_256)"
     fill-opacity="0.4"
     d="m 1463.5213,370.4 c 21.5,0.025 39.07,-17.614 39.1,-39.283 0.04,-40.387 32.45,-72.993 72.59,-72.993 40.14,0 72.55,32.598 72.55,72.967 0,40.369 -32.4,72.942 -71.92,72.984 a 70.33,70.33 0 0 1 -22.96,-3.894 l -7.79,9.027 a 81.302,81.302 0 0 0 30.75,6.1 c 45.54,-0.042 83.09,-37.798 83.09,-84.225 0,-46.428 -37.55,-84.175 -83.72,-84.175 -46.17,0 -83.72,37.756 -83.75,84.217 0.01,3.69 -0.71,7.345 -2.11,10.755 a 27.94,27.94 0 0 1 -6.06,9.115 27.79,27.79 0 0 1 -9.07,6.078 27.683,27.683 0 0 1 -10.7,2.11 l -167.43,-0.034 c -1.2,0 -2.37,-0.084 -3.52,-0.22 l -3.31,10.835 c 2.22,0.39 4.5,0.593 6.83,0.602 z"
     id="path57"
     style="fill:url(#paint24_linear_7_256)" />
  <path
     fill="url(#paint25_linear_7_256)"
     fill-opacity="0.4"
     d="m 1681.3013,331.133 c 0,-58.823 -47.53,-106.633 -106.03,-106.633 -58.5,0 -106.04,47.81 -106.06,106.642 0.01,0.74 -0.13,1.475 -0.41,2.16 a 5.45,5.45 0 0 1 -1.22,1.83 c -0.52,0.522 -1.14,0.933 -1.82,1.21 -0.69,0.276 -1.42,0.412 -2.15,0.4 l -167.44,0.017 a 0.565,0.565 0 0 1 -0.13,0 l -1.15,11.191 c 0.42,0.034 0.86,0.051 1.28,0.042 l 167.44,-0.008 c 9.19,0 16.75,-7.602 16.76,-16.842 a 95.72,95.72 0 0 1 7.21,-36.528 95.202,95.202 0 0 1 20.57,-30.968 94.816,94.816 0 0 1 30.79,-20.684 94.425,94.425 0 0 1 36.33,-7.245 94.318,94.318 0 0 1 36.32,7.243 94.705,94.705 0 0 1 30.79,20.682 95.375,95.375 0 0 1 20.57,30.966 95.693,95.693 0 0 1 7.19,36.525 c 0,52.757 -42.4,95.4 -94.28,95.366 a 93.921,93.921 0 0 1 -39.79,-9.036 l -9.99,7.433 c 14.98,8.17 32.15,12.811 49.78,12.828 57.91,0.026 105.44,-47.767 105.44,-106.591 z"
     id="path59"
     style="fill:url(#paint25_linear_7_256)" />
  <defs
     id="defs191">
    <linearGradient
       id="paint0_linear_7_256"
       x1="430.19601"
       x2="434.38599"
       y1="336.759"
       y2="337.45599"
       gradientUnits="userSpaceOnUse"
       gradientTransform="translate(194.90126)">
      <stop
         offset=".323"
         stop-color="#C63A3A"
         id="stop61" />
      <stop
         offset="1"
         stop-color="#3A2828"
         id="stop63" />
    </linearGradient>
    <linearGradient
       id="paint1_linear_7_256"
       x1="-15.014"
       x2="2.0969999"
       y1="449"
       y2="680.65399"
       gradientUnits="userSpaceOnUse"
       gradientTransform="translate(194.90126)">
      <stop
         offset=".323"
         stop-color="#C63A3A"
         id="stop66" />
      <stop
         offset="1"
         stop-color="#3A2828"
         id="stop68" />
    </linearGradient>
    <linearGradient
       id="paint2_linear_7_256"
       x1="542.40601"
       x2="784.79401"
       y1="112.25"
       y2="399.42599"
       gradientUnits="userSpaceOnUse"
       gradientTransform="translate(194.90126)">
      <stop
         offset=".323"
         stop-color="#C63A3A"
         id="stop71" />
      <stop
         offset="1"
         stop-color="#3A2828"
         id="stop73" />
    </linearGradient>
    <linearGradient
       id="paint3_linear_7_256"
       x1="539.73199"
       x2="722.98401"
       y1="134.649"
       y2="393.19199"
       gradientUnits="userSpaceOnUse"
       gradientTransform="translate(194.90126)">
      <stop
         offset=".323"
         stop-color="#C63A3A"
         id="stop76" />
      <stop
         offset="1"
         stop-color="#3A2828"
         id="stop78" />
    </linearGradient>
    <linearGradient
       id="paint4_linear_7_256"
       x1="534.50897"
       x2="654.729"
       y1="157.133"
       y2="375.75201"
       gradientUnits="userSpaceOnUse"
       gradientTransform="translate(194.90126)">
      <stop
         offset=".323"
         stop-color="#C63A3A"
         id="stop81" />
      <stop
         offset="1"
         stop-color="#3A2828"
         id="stop83" />
    </linearGradient>
    <linearGradient
       id="paint5_linear_7_256"
       x1="516.31799"
       x2="528.79999"
       y1="202.01601"
       y2="277.67401"
       gradientUnits="userSpaceOnUse"
       gradientTransform="translate(194.90126)">
      <stop
         offset=".323"
         stop-color="#C63A3A"
         id="stop86" />
      <stop
         offset="1"
         stop-color="#3A2828"
         id="stop88" />
    </linearGradient>
    <linearGradient
       id="paint6_linear_7_256"
       x1="-15.005"
       x2="187.97099"
       y1="112.259"
       y2="564.83698"
       gradientUnits="userSpaceOnUse"
       gradientTransform="translate(194.90126)">
      <stop
         offset=".323"
         stop-color="#C63A3A"
         id="stop91" />
      <stop
         offset="1"
         stop-color="#3A2828"
         id="stop93" />
    </linearGradient>
    <linearGradient
       id="paint7_linear_7_256"
       x1="-15.005"
       x2="183.67599"
       y1="134.649"
       y2="592.01001"
       gradientUnits="userSpaceOnUse"
       gradientTransform="translate(194.90126)">
      <stop
         offset=".323"
         stop-color="#C63A3A"
         id="stop96" />
      <stop
         offset="1"
         stop-color="#3A2828"
         id="stop98" />
    </linearGradient>
    <linearGradient
       id="paint8_linear_7_256"
       x1="-15.006"
       x2="179.444"
       y1="157.133"
       y2="618.87799"
       gradientUnits="userSpaceOnUse"
       gradientTransform="translate(194.90126)">
      <stop
         offset=".323"
         stop-color="#C63A3A"
         id="stop101" />
      <stop
         offset="1"
         stop-color="#3A2828"
         id="stop103" />
    </linearGradient>
    <linearGradient
       id="paint9_linear_7_256"
       x1="-88.563782"
       x2="171.41901"
       y1="135.12166"
       y2="671.66699"
       gradientUnits="userSpaceOnUse"
       gradientTransform="translate(194.90126)">
      <stop
         offset=".323"
         stop-color="#C63A3A"
         id="stop106" />
      <stop
         offset="1"
         stop-color="#3A2828"
         id="stop108" />
    </linearGradient>
    <linearGradient
       id="paint10_linear_7_256"
       x1="-15.003"
       x2="-5.414"
       y1="314.26599"
       y2="390.82199"
       gradientUnits="userSpaceOnUse"
       gradientTransform="translate(194.90126)">
      <stop
         offset=".323"
         stop-color="#C63A3A"
         id="stop111" />
      <stop
         offset="1"
         stop-color="#3A2828"
         id="stop113" />
    </linearGradient>
    <linearGradient
       id="paint11_linear_7_256"
       x1="-160.10738"
       x2="31.188"
       y1="224.492"
       y2="460.293"
       gradientUnits="userSpaceOnUse"
       gradientTransform="translate(194.90126)">
      <stop
         offset=".323"
         stop-color="#C63A3A"
         id="stop116" />
      <stop
         offset="1"
         stop-color="#3A2828"
         id="stop118" />
    </linearGradient>
    <linearGradient
       id="paint12_linear_7_256"
       x1="-133.18301"
       x2="84.405998"
       y1="175.73091"
       y2="513.65698"
       gradientUnits="userSpaceOnUse"
       gradientTransform="translate(194.90126)">
      <stop
         offset=".323"
         stop-color="#C63A3A"
         id="stop121" />
      <stop
         offset="1"
         stop-color="#3A2828"
         id="stop123" />
    </linearGradient>
    <linearGradient
       id="paint13_linear_7_256"
       x1="173.17947"
       x2="247.146"
       y1="81.860695"
       y2="794.77002"
       gradientUnits="userSpaceOnUse"
       gradientTransform="translate(194.90126)">
      <stop
         offset=".323"
         stop-color="#C63A3A"
         id="stop126" />
      <stop
         offset="1"
         stop-color="#3A2828"
         id="stop128" />
    </linearGradient>
    <linearGradient
       id="paint14_linear_7_256"
       x1="497.54901"
       x2="704.83197"
       y1="44.882999"
       y2="492.58099"
       gradientUnits="userSpaceOnUse"
       gradientTransform="translate(194.90126)">
      <stop
         offset=".323"
         stop-color="#C63A3A"
         id="stop131" />
      <stop
         offset="1"
         stop-color="#3A2828"
         id="stop133" />
    </linearGradient>
    <linearGradient
       id="paint15_linear_7_256"
       x1="481.85501"
       x2="690.35602"
       y1="22.483999"
       y2="468.487"
       gradientUnits="userSpaceOnUse"
       gradientTransform="translate(194.90126)">
      <stop
         offset=".323"
         stop-color="#C63A3A"
         id="stop136" />
      <stop
         offset="1"
         stop-color="#3A2828"
         id="stop138" />
    </linearGradient>
    <linearGradient
       id="paint16_linear_7_256"
       x1="465.32501"
       x2="782.79199"
       y1="0"
       y2="593.836"
       gradientUnits="userSpaceOnUse"
       gradientTransform="translate(194.90126)">
      <stop
         offset=".323"
         stop-color="#C63A3A"
         id="stop141" />
      <stop
         offset="1"
         stop-color="#3A2828"
         id="stop143" />
    </linearGradient>
    <linearGradient
       id="paint17_linear_7_256"
       x1="1205.6899"
       x2="1243.21"
       y1="246.899"
       y2="308.72198"
       gradientUnits="userSpaceOnUse"
       gradientTransform="translate(194.90126)">
      <stop
         offset=".323"
         stop-color="#C63A3A"
         id="stop146" />
      <stop
         offset="1"
         stop-color="#3A2828"
         id="stop148" />
    </linearGradient>
    <linearGradient
       id="paint18_linear_7_256"
       x1="381.10699"
       x2="517.85901"
       y1="224.5"
       y2="674.745"
       gradientUnits="userSpaceOnUse"
       gradientTransform="translate(194.90126)">
      <stop
         offset=".323"
         stop-color="#C63A3A"
         id="stop151" />
      <stop
         offset="1"
         stop-color="#3A2828"
         id="stop153" />
    </linearGradient>
    <linearGradient
       id="paint19_linear_7_256"
       x1="749.45801"
       x2="784.966"
       y1="331.151"
       y2="463.98401"
       gradientUnits="userSpaceOnUse"
       gradientTransform="translate(194.90126)">
      <stop
         offset=".323"
         stop-color="#C63A3A"
         id="stop156" />
      <stop
         offset="1"
         stop-color="#3A2828"
         id="stop158" />
    </linearGradient>
    <linearGradient
       id="paint20_linear_7_256"
       x1="734.979"
       x2="792.00403"
       y1="331.151"
       y2="506.686"
       gradientUnits="userSpaceOnUse"
       gradientTransform="translate(194.90126)">
      <stop
         offset=".323"
         stop-color="#C63A3A"
         id="stop161" />
      <stop
         offset="1"
         stop-color="#3A2828"
         id="stop163" />
    </linearGradient>
    <linearGradient
       id="paint21_linear_7_256"
       x1="715.95203"
       x2="795.41199"
       y1="331.151"
       y2="547.84497"
       gradientUnits="userSpaceOnUse"
       gradientTransform="translate(194.90126)">
      <stop
         offset=".323"
         stop-color="#C63A3A"
         id="stop166" />
      <stop
         offset="1"
         stop-color="#3A2828"
         id="stop168" />
    </linearGradient>
    <linearGradient
       id="paint22_linear_7_256"
       x1="1050.8101"
       x2="1111.54"
       y1="314.26599"
       y2="585.43201"
       gradientUnits="userSpaceOnUse"
       gradientTransform="translate(194.90126)">
      <stop
         offset=".323"
         stop-color="#C63A3A"
         id="stop171" />
      <stop
         offset="1"
         stop-color="#3A2828"
         id="stop173" />
    </linearGradient>
    <linearGradient
       id="paint23_linear_7_256"
       x1="1084.38"
       x2="1191.15"
       y1="269.383"
       y2="505.96701"
       gradientUnits="userSpaceOnUse"
       gradientTransform="translate(194.90126)">
      <stop
         offset=".323"
         stop-color="#C63A3A"
         id="stop176" />
      <stop
         offset="1"
         stop-color="#3A2828"
         id="stop178" />
    </linearGradient>
    <linearGradient
       id="paint24_linear_7_256"
       x1="1094.36"
       x2="1265.01"
       y1="246.908"
       y2="533.724"
       gradientUnits="userSpaceOnUse"
       gradientTransform="translate(194.90126)">
      <stop
         offset=".323"
         stop-color="#C63A3A"
         id="stop181" />
      <stop
         offset="1"
         stop-color="#3A2828"
         id="stop183" />
    </linearGradient>
    <linearGradient
       id="paint25_linear_7_256"
       x1="1099.98"
       x2="1333.22"
       y1="224.5"
       y2="548.12097"
       gradientUnits="userSpaceOnUse"
       gradientTransform="translate(194.90126)">
      <stop
         offset=".323"
         stop-color="#C63A3A"
         id="stop186" />
      <stop
         offset="1"
         stop-color="#3A2828"
         id="stop188" />
    </linearGradient>
  </defs>
</svg>
