<svg height="172.5" viewBox="0 0 800 172.5" width="800" xmlns="http://www.w3.org/2000/svg"><path d="m275.5 177.1c-7.817-.5274-16.05-2.63-21.6-5.516-2.854-1.484-5.685-4.133-6.725-6.291-1.398-2.901-1.361-6.827.0931-9.804.9021-1.848 2.82-3.727 4.972-4.873l1.415-.7536 1.422 1.077c2.55 1.931 6.57 3.887 11.14 5.421 4.347 1.458 7.119 1.914 12.66 2.083 7.38.2247 11.68-.486 16.23-2.684 4.294-2.073 6.803-5.214 8.161-10.22.4466-1.644.559-2.992.659-7.9l.1206-5.917-1.654.7476c-10.87 4.911-28.2 4.395-39.68-1.182-7.649-3.714-13.25-9.387-17.17-17.4-3.718-7.595-5.124-14.45-5.124-24.98-.00016-8.45 1.044-14.51 3.584-20.82 6.989-17.35 23.32-26.77 45.21-26.08 6.984.2212 11.83 1.083 17.93 3.189 10.01 3.456 16.46 8.724 17.67 14.43.2268 1.068.2798 12.22.2092 43.98-.094 42.26-.0984 42.57-.6477 45.02-1.616 7.226-4.164 12.17-8.623 16.73-5.884 6.022-14.39 9.747-25.68 11.25-3.072.4079-11.53.6891-14.56.4843zm16.39-60.09c1.249-.2179 2.978-.6342 3.842-.9252 1.767-.5954 5.152-2.449 7.024-3.847l1.245-.9291v-47.03l-1.918-.874c-2.089-.9519-5.126-1.96-7.582-2.516-1.068-.242-3.33-.3491-7.157-.339-5.244.01382-5.755.05866-8.128.7134-9.827 2.712-15.15 9.072-17.15 20.48-.4289 2.447-.4344 11.08-.009 13.92 2.165 14.49 10.09 21.61 24.15 21.71 1.999.0138 4.356-.1406 5.686-.3726zm-500.5 23.92c-14.9-1.122-26.23-7.16-34-18.11-3.247-4.58-6.293-11.69-7.515-17.55-1.797-8.615-1.808-19.17-.0299-27.2 4.045-18.27 15.71-30.57 32.95-34.75 7.402-1.795 17.45-1.783 24.59.02873 9.242 2.345 17.15 7.137 22.37 13.55 4.004 4.92 7.009 10.54 8.966 16.75 3.261 10.36 3.306 25.08.1077 35.56-5.426 17.77-18.55 29.07-36.39 31.33-2.461.3118-9.047.5475-11.06.3959zm10.41-19.07c9.14-2.427 14.81-9.104 17.04-20.06 1.146-5.626 1.147-14.95.00099-20.57-2.005-9.839-7.333-16.82-14.83-19.42-5.803-2.018-14.02-1.859-19.13.3697-6.603 2.88-11.48 9.011-13.49 16.97-.9612 3.803-1.206 5.707-1.391 10.82-.3972 10.97 2.149 19.9 7.276 25.5 4.675 5.111 10.15 7.201 18.4 7.03 3.081-.0638 4.526-.2143 6.116-.6366zm304.5 19.07c-11.99-.8987-20.98-4.609-28.62-11.8-7.604-7.161-12.46-17.46-13.95-29.56-.4601-3.736-.4054-12.86.09916-16.53.862-6.257 2.29-11.18 4.744-16.34 5.703-12 15.58-20.02 28.75-23.37 2.9-.736 6.223-1.16 10.41-1.327 25.79-1.032 44.19 14.76 47.81 41.03.5045 3.662.5593 12.79.0992 16.53-1.902 15.44-9.198 27.86-20.38 34.7-5.23 3.198-11.68 5.457-17.9 6.268-2.232.2911-9.123.5319-11.06.3866zm8.328-18.7c4.19-.7491 7.894-2.385 10.59-4.676 4.326-3.679 7.148-9.167 8.713-16.94.384-1.908.4715-3.62.4722-9.239 0-6.245-.0567-7.166-.6071-9.739-1.528-7.145-3.729-11.44-7.879-15.39-3.165-3.011-5.768-4.352-10.34-5.327-2.339-.4989-3.232-.5578-6.767-.4457-3.079.09764-4.58.2686-6.154.7012-9.134 2.51-15.08 9.88-17.23 21.35-.674 3.602-.6696 15.04.0069 18.22 1.619 7.605 3.399 11.27 7.459 15.38 3.425 3.464 6.108 4.895 11.19 5.965 2.761.5813 7.712.6484 10.54.1428zm272.4 18.56c-11.34-1.007-21.15-4.792-28.69-11.07-8.238-6.854-13.14-16.21-14.94-28.5-.6494-4.437-.7912-13.33-.2824-17.7.8641-7.434 2.237-12.19 5.277-18.27 4.99-9.989 13.73-17.51 24.3-20.93 11.79-3.809 25.44-2.96 35.79 2.224 13.54 6.785 22 20.93 21.99 36.74-.003 1.972-.1481 3.818-.3678 4.643-.9337 3.508-3.283 5.721-7.112 6.702-.8229.2107-14.14 2.141-29.58 4.289-15.45 2.148-28.15 3.965-28.22 4.037-.2188.2188 1.528 4.57 2.589 6.45 2.713 4.806 6.419 8.169 11.45 10.39 7.472 3.297 18.73 3.699 26.91.961 3.438-1.15 7.738-3.319 10.46-5.278 1.317-.9466 2.475-1.721 2.574-1.721.0984 0 1.149.6457 2.335 1.435 7.283 4.846 6.936 13.25-.7727 18.72-7.424 5.267-20.9 8.02-33.7 6.883zm-.7197-58.66c11.9-1.645 22.08-3.06 22.61-3.144.9217-.1464.9582-.1906.8104-.9782-.3568-1.9-1.499-5.116-2.449-6.895-2.893-5.419-7.06-8.796-12.6-10.21-2.988-.7638-8.142-.9471-11.27-.4009-8.109 1.415-14.48 6.723-17.52 14.59-.8008 2.076-1.862 6.412-2.152 8.798-.1371 1.125-.1021 1.236.3872 1.236.2959 0 10.28-1.346 22.18-2.991zm-502.5 57.4c-3.767-.6004-6.66-2.17-8.219-4.459-4.035-5.927-14.65-42.37-22.48-77.15l-2.166-9.63 1.341-1.27c3.084-2.921 5.6-4.07 9.337-4.263 4.745-.2453 7.687 1.298 9.661 5.068 1.218 2.326 1.313 2.686 4.366 16.47 4.235 19.12 10.97 47.76 11.31 48.1.0664.0664.1759-.0425.2433-.2419.0675-.1994 1.775-5.516 3.795-11.81 2.02-6.298 6.253-19.24 9.408-28.76 4.546-13.72 5.864-17.42 6.359-17.84 1.081-.9157 4.293-2 7.183-2.425 3.231-.475 6.32-.2195 8.853.7322 1.713.6437 3.833 2.434 4.764 4.022 1.013 1.728 10.24 29.74 15.74 47.78 2.562 8.402 2.781 9.042 2.949 8.589.4814-1.3 9.555-36.42 10.83-41.9 1.465-6.317 3.214-14.79 4.515-21.85l.5965-3.241 1.491-.8713c2.282-1.333 5.215-1.98 8.241-1.816 4.28.2312 6.763 1.639 8.339 4.729.8719 1.709.9097 1.898.8833 4.415-.04315 4.101-1.63 11.66-5.456 25.98-6.975 26.11-17.07 57.27-19.1 58.97-.8437.7025-2.924 1.637-4.872 2.19-1.634.4633-2.695.5749-5.416.5697-6.191-.0118-9.805-1.516-11.43-4.759-2.02-4.021-9.1-25.15-15.49-46.22-1.302-4.294-2.434-7.983-2.515-8.198-.08503-.2252-.3652.3255-.662 1.301-4.783 15.72-6.59 21.32-10.55 32.66-2.939 8.419-7.448 20.63-8.04 21.78-.431.8334-3.358 2.35-5.668 2.937-1.874.4761-6.33.705-8.133.4177zm-245.7-.3848c-3.429-.7808-5.412-2.198-6.681-4.776l-.8576-1.742-.0763-48.28c-.0541-34.21.008-49.04.2134-50.89 1.395-12.53 6.885-20.56 17.21-25.17 6.403-2.857 14.45-4.075 23.64-3.575 6.847.3725 10.54 1.182 14.75 3.236 3.492 1.704 5.687 3.585 6.78 5.811.6479 1.319.7229 1.742.7 3.95-.0394 3.795-1.296 6.433-4.343 9.115l-1.23 1.083-2.406-1.177c-5.989-2.931-13.76-4.287-20.57-3.589-6.846.7018-10.07 2.487-12.06 6.678-1.457 3.062-1.693 4.662-1.836 12.42l-.1279 6.962h36.69l1.063 2.044c1.358 2.61 1.857 4.553 1.857 7.227 0 5.331-2.374 8.334-7.07 8.944-1.05.1363-8.731.2514-17.07.2559l-15.16.0081v69.51l-1.205.5166c-3.587 1.537-8.983 2.174-12.21 1.44zm77.31.0161c-3.426-.7264-5.354-2.1-6.533-4.652l-.7544-1.634-.1344-123.2.9781-.4112c4.659-1.958 11.45-2.322 14.8-.7914 2.994 1.371 4.584 3.651 5.05 7.244.1469 1.131.2484 25.84.2532 61.69l.008 59.8-1.205.5166c-3.563 1.527-9.081 2.172-12.46 1.456zm290.4-.0153c-4.504-.9108-7.049-3.511-7.667-7.831-.3388-2.37-.3529-89.92-.01536-95.12 1.03-15.89 7.569-24.88 21.35-29.36 4.71-1.53 9.494-2.172 16.14-2.167 9.819.00689 16.97 1.717 21.66 5.182 2.893 2.137 4.15 4.436 4.15 7.591 0 3.626-.9215 5.786-3.729 8.741-1.293 1.361-1.94 1.871-2.151 1.695-.8128-.6746-4.813-2.423-7.09-3.1-4.302-1.278-7.301-1.706-11.93-1.702-10.49.0091-14.9 2.543-16.84 9.692-.4703 1.728-.5578 2.948-.6606 9.214l-.1185 7.222h36.63l.948 1.887c1.431 2.849 1.85 4.429 1.879 7.084.06124 5.725-2.165 8.593-7.177 9.244-1.049.1362-8.729.2512-17.07.2556l-15.16.0081v69.66l-2.04.71c-3.919 1.364-7.854 1.752-11.1 1.095zm175.9-.00395c-2.462-.5767-3.49-1.126-5.071-2.708-2.708-2.711-2.466.9803-2.546-38.88-.0765-38.23-.1267-36.88 1.485-40.15 2.734-5.554 11.14-10.46 23.17-13.54 6.417-1.639 17.36-2.422 23.43-1.676 7.578.9311 11.93 4.045 12.58 8.997.4088 3.123-.9263 7.469-3.006 9.785l-.8627.9608-2.472-.4952c-10.01-2.004-21.82-.8126-31.43 3.171l-1.887.7822v71.8l-1.205.5166c-3.479 1.491-9.126 2.156-12.2 1.437z" stroke-width=".26" transform="translate(369.5 -4.66)"/></svg>