<?xml version="1.0" encoding="UTF-8"?>
<svg width="832.5" height="536.9" version="1.1" viewBox="0 0 220.3 142" xmlns="http://www.w3.org/2000/svg" xmlns:cc="http://creativecommons.org/ns#" xmlns:dc="http://purl.org/dc/elements/1.1/" xmlns:rdf="http://www.w3.org/1999/02/22-rdf-syntax-ns#" xmlns:xlink="http://www.w3.org/1999/xlink">
 <defs>
  <linearGradient id="Wires-1">
   <stop stop-color="#c7a4a4" offset="0"/>
   <stop stop-color="#d6c2c2" offset=".3793"/>
   <stop stop-color="#8e5c5c" offset="1"/>
  </linearGradient>
  <linearGradient id="PortWalls">
   <stop stop-color="#9a6a66" offset="0"/>
   <stop stop-color="#9a6a66" offset=".2369"/>
   <stop stop-color="#cb9692" offset=".2961"/>
   <stop stop-color="#cb9692" offset=".9745"/>
   <stop stop-color="#9a6a66" offset="1"/>
  </linearGradient>
  <linearGradient id="NodeWalls">
   <stop stop-color="#9a6a66" offset="0"/>
   <stop stop-color="#9a6a66" offset=".4182"/>
   <stop stop-color="#cb9692" offset=".57"/>
   <stop stop-color="#cb9692" offset=".9157"/>
   <stop stop-color="#9a6a66" offset="1"/>
  </linearGradient>
  <linearGradient id="linearGradient8165" x1="456.1" x2="498.2" y1="247.7" y2="247.7" gradientUnits="userSpaceOnUse" xlink:href="#NodeWalls"/>
  <linearGradient id="linearGradient8295" x1="242.3" x2="501.4" y1="230.2" y2="230.2" gradientUnits="userSpaceOnUse" xlink:href="#PortWalls"/>
  <linearGradient id="linearGradient8299" x1="260.4" x2="302.7" y1="368.7" y2="368.7" gradientUnits="userSpaceOnUse" xlink:href="#NodeWalls"/>
  <linearGradient id="linearGradient8596" x1="-9.817" x2="-8.067" y1="117" y2="120.1" gradientTransform="matrix(.5258 0 0 .5258 209.3 32.77)" gradientUnits="userSpaceOnUse" xlink:href="#Wires-1"/>
  <linearGradient id="linearGradient8654" x1="-9.339" x2="-10.98" y1="121.1" y2="118.2" gradientTransform="matrix(-.2671 -.4529 .4529 -.2671 133.5 116.2)" gradientUnits="userSpaceOnUse" xlink:href="#Wires-1"/>
  <linearGradient id="linearGradient8658" x1="-9.817" x2="-8.067" y1="117" y2="120.1" gradientTransform="matrix(.5258 0 0 .5258 189.3 21.68)" gradientUnits="userSpaceOnUse" xlink:href="#Wires-1"/>
  <linearGradient id="linearGradient8695" x1="-9.542" x2="-7.636" y1="117.3" y2="120.7" gradientTransform="matrix(.5258 0 0 .5258 242.5 35.85)" gradientUnits="userSpaceOnUse" xlink:href="#Wires-1"/>
  <linearGradient id="linearGradient8850" x1="-9.542" x2="-7.636" y1="117.3" y2="120.7" gradientTransform="matrix(.5258 0 0 .5258 233.8 18.31)" gradientUnits="userSpaceOnUse" xlink:href="#Wires-1"/>
  <linearGradient id="linearGradient8879" x1="-9.542" x2="-7.636" y1="117.3" y2="120.7" gradientTransform="matrix(.5258 0 0 .5258 251.8 -14.27)" gradientUnits="userSpaceOnUse" xlink:href="#Wires-1"/>
  <linearGradient id="linearGradient9507" x1="-9.817" x2="-8.067" y1="117" y2="120.1" gradientTransform="matrix(.5258 0 0 .5258 160 60.98)" gradientUnits="userSpaceOnUse" xlink:href="#Wires-1"/>
  <linearGradient id="linearGradient10026" x1="-9.542" x2="-7.636" y1="117.3" y2="120.7" gradientTransform="matrix(.5258 0 0 .5258 271.1 -2.983)" gradientUnits="userSpaceOnUse" xlink:href="#Wires-1"/>
  <linearGradient id="linearGradient10028" x1="-9.817" x2="-8.067" y1="117" y2="120.1" gradientTransform="matrix(.5258 0 0 .5258 179.4 72.32)" gradientUnits="userSpaceOnUse" xlink:href="#Wires-1"/>
  <linearGradient id="linearGradient10030" x1="-9.339" x2="-10.98" y1="121.1" y2="118.2" gradientTransform="matrix(-.2671 -.4529 .4529 -.2671 104.2 155.5)" gradientUnits="userSpaceOnUse" xlink:href="#Wires-1"/>
  <filter id="filter3719" color-interpolation-filters="sRGB">
   <feFlood flood-color="rgb(0,0,0)" flood-opacity=".1608" result="flood"/>
   <feComposite in="flood" in2="SourceGraphic" operator="in" result="composite1"/>
   <feGaussianBlur in="composite1" result="blur" stdDeviation="3"/>
   <feOffset dx="2.39521" dy="8.68263" result="offset"/>
   <feComposite in="SourceGraphic" in2="offset" result="composite2"/>
  </filter>
 </defs>
 <metadata>
  <rdf:RDF>
   <cc:Work rdf:about="">
    <dc:format>image/svg+xml</dc:format>
    <dc:type rdf:resource="http://purl.org/dc/dcmitype/StillImage"/>
    <dc:title/>
   </cc:Work>
  </rdf:RDF>
 </metadata>
 <g transform="translate(1217 191.8)" opacity=".88">
  <g transform="translate(-1313 -209.5)">
   <g transform="translate(4.397 -2.245)" filter="url(#filter3719)">
    <g transform="matrix(.5258 0 0 .5258 295 -22.05)">
     <g transform="matrix(.2822 0 0 .2822 -146.9 59.83)" stroke="#8e5c5c">
      <g transform="translate(7.95 95.77)" fill-rule="evenodd" stroke="#8e5c5c" stroke-width="1px">
       <path d="m242.8 242.1-0.0373 9.77c-0.1111 3.548 2.732 3.82 9.622 7.826l33.18 19.14 6.962 3.953c15.91 9.037 20.48 9.137 36.55-0.1768l159.5-92.46c7.536-4.369 11.96-7.156 12.31-10.07l-0.0379-9.903" fill="url(#linearGradient8295)"/>
       <path d="m292.6 272.8c15.77 9.293 20.48 9.137 36.55-0.1768l159.5-92.46c15.08-8.74 17.68-11.15 0.1768-20.92l-37.1-20.71c-17.76-9.915-20.39-9.589-36.37-0.3536l-159.7 92.29c-21.23 12.27-12.4 14.33-0.1768 21.28 13.7 7.787 24.48 13.63 37.1 21.07z" fill="#d7b0ac"/>
      </g>
     </g>
     <g transform="matrix(.2822 0 0 .2822 -146.9 59.83)">
      <path d="m297.4 376.8-9.427 5.443c-4.091 1.911-8.183 2.087-12.27 0l-12.27-7.087c-1.89-1.054-2.974-2.175-3-3.384v-18.07l42.32-0.1177-0.2812 1.165c-0.0197 1.212 0.1636 4.221-1.414 5.355l-6.903 4.802-0.6091 10.24 3.392 1.943" fill="url(#linearGradient8299)" fill-rule="evenodd"/>
      <path d="m302.7 353.6v4.061c-0.0197 1.212-0.9228 2.38-2.5 3.514l-6.2 3.58v10.15m3.353 1.909-9.427 5.443c-4.091 1.911-8.183 2.087-12.27 0l-12.27-7.087c-1.89-1.054-2.974-2.175-3-3.384v-18.07" fill="none" stroke="#8e5c5c" stroke-width="1px"/>
      <path d="m287.9 343 12.27 7.087c3.587 2.542 3.072 4.878 0 7.087l-12.27 7.087c-4.091 1.911-8.183 2.087-12.27 0l-12.27-7.087c-3.686-2.055-4.304-4.366 0-7.087l12.27-7.087c3.929-2.273 8.012-2.393 12.27 0z" fill="#d7b0ac" fill-rule="evenodd" stroke="#8e5c5c" stroke-width="1px"/>
     </g>
    </g>
    <path d="m238.1 76.79 19.94-11.35c0.8272-0.4779 0.0919-2.255-0.7097-1.85-6.318 3.817-19.23 10.96-19.23 10.96z" fill="url(#linearGradient10026)" stroke="#8e5c5c" stroke-width=".1391px"/>
    <g transform="matrix(.5258 0 0 .5258 223.5 2.722)">
     <g transform="matrix(.2822 0 0 .2822 -54.58 37.41)">
      <path d="m297.4 376.8-9.427 5.443c-4.091 1.911-8.183 2.087-12.27 0l-12.27-7.087c-1.89-1.054-2.974-2.175-3-3.384v-18.07l42.32-0.1177-0.2812 1.165c-0.0197 1.212 1.845 4.086 0.2677 5.22l0.0925 3.726-0.2728 9.235-5.621 4.163" fill="url(#linearGradient8299)" fill-rule="evenodd"/>
      <path d="m302.7 353.6v17.85c0.2131 1.489-1.025 2.634-2.119 3.284l-12.66 7.528c-4.091 1.911-8.183 2.087-12.27 0l-12.27-7.087c-1.89-1.054-2.974-2.175-3-3.384v-18.07" fill="none" stroke="#8e5c5c" stroke-width="1px"/>
      <path d="m287.9 343 12.27 7.087c3.587 2.542 3.072 4.878 0 7.087l-12.27 7.087c-4.091 1.911-8.183 2.087-12.27 0l-12.27-7.087c-3.686-2.055-4.304-4.366 0-7.087l12.27-7.087c3.929-2.273 8.012-2.393 12.27 0z" fill="#d7b0ac" fill-rule="evenodd" stroke="#8e5c5c" stroke-width="1px"/>
     </g>
    </g>
    <path d="m205 95.89 30.26-17.53c0.8272-0.4779 0.0919-2.255-0.7097-1.85l-29.55 17.14z" fill="url(#linearGradient8850)" stroke="#8e5c5c" stroke-width=".1391px"/>
    <g transform="matrix(.5258 0 0 .5258 275.5 -33.27)">
     <g transform="matrix(.2822 0 0 .2822 -146.9 59.83)" stroke="#8e5c5c">
      <g transform="translate(7.95 95.77)" fill-rule="evenodd" stroke="#8e5c5c" stroke-width="1px">
       <path d="m242.8 242.1-0.0373 9.77c-0.1111 3.548 2.732 3.82 9.622 7.826l33.18 19.14 6.962 3.953c15.91 9.037 20.48 9.137 36.55-0.1768l159.5-92.46c7.536-4.369 11.96-7.156 12.31-10.07l-0.0379-9.903" fill="url(#linearGradient8295)"/>
       <path d="m292.6 272.8c15.77 9.293 20.48 9.137 36.55-0.1768l159.5-92.46c15.08-8.74 17.68-11.15 0.1768-20.92l-37.1-20.71c-17.76-9.915-20.39-9.589-36.37-0.3536l-159.7 92.29c-21.23 12.27-12.4 14.33-0.1768 21.28 13.7 7.787 24.48 13.63 37.1 21.07z" fill="#d7b0ac"/>
      </g>
     </g>
     <g transform="matrix(.2822 0 0 .2822 -146.9 59.83)">
      <path d="m297.4 376.8-9.427 5.443c-4.091 1.911-8.183 2.087-12.27 0l-12.27-7.087c-1.89-1.054-2.974-2.175-3-3.384v-18.07l42.32-0.1177-0.2812 1.165c-0.0197 1.212 0.1636 4.221-1.414 5.355l-6.903 4.802-0.6091 10.24 3.392 1.943" fill="url(#linearGradient8299)" fill-rule="evenodd"/>
      <path d="m302.7 353.6v4.061c-0.0197 1.212-0.9228 2.38-2.5 3.514l-6.2 3.58v10.15m3.353 1.909-9.427 5.443c-4.091 1.911-8.183 2.087-12.27 0l-12.27-7.087c-1.89-1.054-2.974-2.175-3-3.384v-18.07" fill="none" stroke="#8e5c5c" stroke-width="1px"/>
      <path d="m287.9 343 12.27 7.087c3.587 2.542 3.072 4.878 0 7.087l-12.27 7.087c-4.091 1.911-8.183 2.087-12.27 0l-12.27-7.087c-3.686-2.055-4.304-4.366 0-7.087l12.27-7.087c3.929-2.273 8.012-2.393 12.27 0z" fill="#d7b0ac" fill-rule="evenodd" stroke="#8e5c5c" stroke-width="1px"/>
     </g>
    </g>
    <path d="m223.1 63.3 15.71-9.159c0.8272-0.4779 0.0919-2.255-0.7097-1.85l-15 8.77z" fill="url(#linearGradient8879)" stroke="#8e5c5c" stroke-width=".1391px"/>
    <g transform="matrix(.5258 0 0 .5258 227.6 -5.743)">
     <g transform="matrix(.2822 0 0 .2822 -146.9 59.83)" stroke="#8e5c5c">
      <g transform="translate(7.95 95.77)" fill-rule="evenodd" stroke="#8e5c5c" stroke-width="1px">
       <path d="m242.8 242.1-0.0373 9.77c-0.1111 3.548 2.732 3.82 9.622 7.826l33.18 19.14 6.962 3.953c15.91 9.037 20.48 9.137 36.55-0.1768l159.5-92.46c7.536-4.369 11.96-7.156 12.31-10.07l-0.0379-9.903" fill="url(#linearGradient8295)"/>
       <path d="m292.6 272.8c15.77 9.293 20.48 9.137 36.55-0.1768l159.5-92.46c15.08-8.74 17.68-11.15 0.1768-20.92l-37.1-20.71c-17.76-9.915-20.39-9.589-36.37-0.3536l-159.7 92.29c-21.23 12.27-12.4 14.33-0.1768 21.28 13.7 7.787 24.48 13.63 37.1 21.07z" fill="#d7b0ac"/>
      </g>
     </g>
     <g transform="matrix(.2822 0 0 .2822 -146.9 59.83)">
      <path d="m456.2 239.5-2e-3 4.713c0.1188 1.145 1.188 2.211 2.99 3.215l12.27 7.087c4.091 2.087 8.183 1.911 12.27 0l5.867-4.021 8.418 4.663 0.2018-14.72" fill="url(#linearGradient8165)" fill-rule="evenodd"/>
      <path d="m456.2 239.5-2e-3 4.713c0.1188 1.145 1.188 2.211 2.99 3.215l12.27 7.087c4.091 2.087 8.183 1.911 12.27 0l5.914-3.414m8.839 4.896 0.0201-16.4" fill="none" stroke="#8e5c5c" stroke-width="1px"/>
      <path d="m483.7 229.2 12.27 7.087c3.587 2.542 3.072 4.878 0 7.087l-12.27 7.087c-4.091 1.911-8.183 2.087-12.27 0l-12.27-7.087c-3.686-2.055-4.304-4.366 0-7.087l12.27-7.087c3.929-2.273 8.012-2.393 12.27 0z" fill="#d7b0ac" fill-rule="evenodd" stroke="#8e5c5c" stroke-width=".9992"/>
     </g>
     <g transform="matrix(.2822 0 0 .2822 -146.9 59.83)">
      <path d="m297.4 376.8-9.427 5.443c-4.091 1.911-8.183 2.087-12.27 0l-12.27-7.087c-1.89-1.054-2.974-2.175-3-3.384v-18.07l42.32-0.1177-0.2812 1.165c-0.0197 1.212 0.1636 4.221-1.414 5.355l-6.903 4.802-0.6091 10.24 3.392 1.943" fill="url(#linearGradient8299)" fill-rule="evenodd"/>
      <path d="m302.7 353.6v4.061c-0.0197 1.212-0.9228 2.38-2.5 3.514l-6.2 3.58v10.15m3.353 1.909-9.427 5.443c-4.091 1.911-8.183 2.087-12.27 0l-12.27-7.087c-1.89-1.054-2.974-2.175-3-3.384v-18.07" fill="none" stroke="#8e5c5c" stroke-width="1px"/>
      <path d="m287.9 343 12.27 7.087c3.587 2.542 3.072 4.878 0 7.087l-12.27 7.087c-4.091 1.911-8.183 2.087-12.27 0l-12.27-7.087c-3.686-2.055-4.304-4.366 0-7.087l12.27-7.087c3.929-2.273 8.012-2.393 12.27 0z" fill="#d7b0ac" fill-rule="evenodd" stroke="#8e5c5c" stroke-width="1px"/>
     </g>
    </g>
    <path d="m184.8 85.1 5.971-3.38c0.8272-0.4779 0.0919-2.255-0.7097-1.85l-5.262 2.99z" fill="url(#linearGradient8658)" stroke="#8e5c5c" stroke-width=".1391px"/>
    <g transform="matrix(.5258 0 0 .5258 169.8 11.15)">
     <g transform="matrix(.2822 0 0 .2822 -54.58 37.41)">
      <path d="m297.4 376.8-9.427 5.443c-4.091 1.911-8.183 2.087-12.27 0l-12.27-7.087c-1.89-1.054-2.974-2.175-3-3.384v-18.07l42.32-0.1177-0.2812 1.165c-0.0197 1.212 1.845 4.086 0.2677 5.22l0.0925 3.726-0.2728 9.235-5.621 4.163" fill="url(#linearGradient8299)" fill-rule="evenodd"/>
      <path d="m302.7 353.6v17.85c0.2131 1.489-1.025 2.634-2.119 3.284l-12.66 7.528c-4.091 1.911-8.183 2.087-12.27 0l-12.27-7.087c-1.89-1.054-2.974-2.175-3-3.384v-18.07" fill="none" stroke="#8e5c5c" stroke-width="1px"/>
      <path d="m287.9 343 12.27 7.087c3.587 2.542 3.072 4.878 0 7.087l-12.27 7.087c-4.091 1.911-8.183 2.087-12.27 0l-12.27-7.087c-3.686-2.055-4.304-4.366 0-7.087l12.27-7.087c3.929-2.273 8.012-2.393 12.27 0z" fill="#d7b0ac" fill-rule="evenodd" stroke="#8e5c5c" stroke-width="1px"/>
     </g>
    </g>
    <path d="m202.9 94.93-17.55-10.01c-0.8318-0.4698-1.989 1.066-1.233 1.551l16.86 9.746z" fill="url(#linearGradient8654)" stroke="#8e5c5c" stroke-width=".1391px"/>
    <g transform="matrix(.5258 0 0 .5258 189.8 22.25)">
     <g transform="matrix(.2822 0 0 .2822 -54.58 37.41)">
      <path d="m297.4 376.8-9.427 5.443c-4.091 1.911-8.183 2.087-12.27 0l-12.27-7.087c-1.89-1.054-2.974-2.175-3-3.384v-18.07l42.32-0.1177-0.2812 1.165c-0.0197 1.212 1.845 4.086 0.2677 5.22l0.0925 3.726-0.2728 9.235-5.621 4.163" fill="url(#linearGradient8299)" fill-rule="evenodd"/>
      <path d="m302.7 353.6v17.85c0.2131 1.489-1.025 2.634-2.119 3.284l-12.66 7.528c-4.091 1.911-8.183 2.087-12.27 0l-12.27-7.087c-1.89-1.054-2.974-2.175-3-3.384v-18.07" fill="none" stroke="#8e5c5c" stroke-width="1px"/>
      <path d="m287.9 343 12.27 7.087c3.587 2.542 3.072 4.878 0 7.087l-12.27 7.087c-4.091 1.911-8.183 2.087-12.27 0l-12.27-7.087c-3.686-2.055-4.304-4.366 0-7.087l12.27-7.087c3.929-2.273 8.012-2.393 12.27 0z" fill="#d7b0ac" fill-rule="evenodd" stroke="#8e5c5c" stroke-width="1px"/>
     </g>
    </g>
    <path d="m194.4 102.2 7.216-4.313c0.8272-0.4779 0.0919-2.255-0.7097-1.85l-6.506 3.923z" fill="url(#linearGradient8596)" stroke="#8e5c5c" stroke-width=".1391px"/>
    <g transform="matrix(.5258 0 0 .5258 198.3 33.56)">
     <g transform="matrix(.2822 0 0 .2822 -146.9 59.83)" stroke="#8e5c5c">
      <g transform="translate(7.95 95.77)" fill-rule="evenodd" stroke="#8e5c5c" stroke-width="1px">
       <path d="m242.8 242.1-0.0373 9.77c-0.1111 3.548 2.732 3.82 9.622 7.826l33.18 19.14 6.962 3.953c15.91 9.037 20.48 9.137 36.55-0.1768l159.5-92.46c7.536-4.369 11.96-7.156 12.31-10.07l-0.0379-9.903" fill="url(#linearGradient8295)"/>
       <path d="m292.6 272.8c15.77 9.293 20.48 9.137 36.55-0.1768l159.5-92.46c15.08-8.74 17.68-11.15 0.1768-20.92l-37.1-20.71c-17.76-9.915-20.39-9.589-36.37-0.3536l-159.7 92.29c-21.23 12.27-12.4 14.33-0.1768 21.28 13.7 7.787 24.48 13.63 37.1 21.07z" fill="#d7b0ac"/>
      </g>
     </g>
     <g transform="matrix(.2822 0 0 .2822 -146.9 59.83)">
      <path d="m456.2 239.5-2e-3 4.713c0.1188 1.145 1.188 2.211 2.99 3.215l12.27 7.087c4.091 2.087 8.183 1.911 12.27 0l5.867-4.021 8.418 4.663 0.2018-14.72" fill="url(#linearGradient8165)" fill-rule="evenodd"/>
      <path d="m456.2 239.5-2e-3 4.713c0.1188 1.145 1.188 2.211 2.99 3.215l12.27 7.087c4.091 2.087 8.183 1.911 12.27 0l5.914-3.414m8.839 4.896 0.0201-16.4" fill="none" stroke="#8e5c5c" stroke-width="1px"/>
      <path d="m483.7 229.2 12.27 7.087c3.587 2.542 3.072 4.878 0 7.087l-12.27 7.087c-4.091 1.911-8.183 2.087-12.27 0l-12.27-7.087c-3.686-2.055-4.304-4.366 0-7.087l12.27-7.087c3.929-2.273 8.012-2.393 12.27 0z" fill="#d7b0ac" fill-rule="evenodd" stroke="#8e5c5c" stroke-width=".9992"/>
     </g>
     <g transform="matrix(.2822 0 0 .2822 -146.9 59.83)">
      <path d="m297.4 376.8-9.427 5.443c-4.091 1.911-8.183 2.087-12.27 0l-12.27-7.087c-1.89-1.054-2.974-2.175-3-3.384v-18.07l42.32-0.1177-0.2812 1.165c-0.0197 1.212 0.1636 4.221-1.414 5.355l-6.903 4.802-0.6091 10.24 3.392 1.943" fill="url(#linearGradient8299)" fill-rule="evenodd"/>
      <path d="m302.7 353.6v4.061c-0.0197 1.212-0.9228 2.38-2.5 3.514l-6.2 3.58v10.15m3.353 1.909-9.427 5.443c-4.091 1.911-8.183 2.087-12.27 0l-12.27-7.087c-1.89-1.054-2.974-2.175-3-3.384v-18.07" fill="none" stroke="#8e5c5c" stroke-width="1px"/>
      <path d="m287.9 343 12.27 7.087c3.587 2.542 3.072 4.878 0 7.087l-12.27 7.087c-4.091 1.911-8.183 2.087-12.27 0l-12.27-7.087c-3.686-2.055-4.304-4.366 0-7.087l12.27-7.087c3.929-2.273 8.012-2.393 12.27 0z" fill="#d7b0ac" fill-rule="evenodd" stroke="#8e5c5c" stroke-width="1px"/>
     </g>
    </g>
    <g transform="matrix(.5258 0 0 .5258 266.2 16.56)">
     <g transform="matrix(.2822 0 0 .2822 -146.9 59.83)" stroke="#8e5c5c">
      <g transform="translate(7.95 95.77)" fill-rule="evenodd" stroke="#8e5c5c" stroke-width="1px">
       <path d="m242.8 242.1-0.0373 9.77c-0.1111 3.548 2.732 3.82 9.622 7.826l33.18 19.14 6.962 3.953c15.91 9.037 20.48 9.137 36.55-0.1768l159.5-92.46c7.536-4.369 11.96-7.156 12.31-10.07l-0.0379-9.903" fill="url(#linearGradient8295)"/>
       <path d="m292.6 272.8c15.77 9.293 20.48 9.137 36.55-0.1768l159.5-92.46c15.08-8.74 17.68-11.15 0.1768-20.92l-37.1-20.71c-17.76-9.915-20.39-9.589-36.37-0.3536l-159.7 92.29c-21.23 12.27-12.4 14.33-0.1768 21.28 13.7 7.787 24.48 13.63 37.1 21.07z" fill="#d7b0ac"/>
      </g>
     </g>
     <g transform="matrix(.2822 0 0 .2822 -146.9 59.83)">
      <path d="m297.4 376.8-9.427 5.443c-4.091 1.911-8.183 2.087-12.27 0l-12.27-7.087c-1.89-1.054-2.974-2.175-3-3.384v-18.07l42.32-0.1177-0.2812 1.165c-0.0197 1.212 0.1636 4.221-1.414 5.355l-6.903 4.802-0.6091 10.24 3.392 1.943" fill="url(#linearGradient8299)" fill-rule="evenodd"/>
      <path d="m302.7 353.6v4.061c-0.0197 1.212-0.9228 2.38-2.5 3.514l-6.2 3.58v10.15m3.353 1.909-9.427 5.443c-4.091 1.911-8.183 2.087-12.27 0l-12.27-7.087c-1.89-1.054-2.974-2.175-3-3.384v-18.07" fill="none" stroke="#8e5c5c" stroke-width="1px"/>
      <path d="m287.9 343 12.27 7.087c3.587 2.542 3.072 4.878 0 7.087l-12.27 7.087c-4.091 1.911-8.183 2.087-12.27 0l-12.27-7.087c-3.686-2.055-4.304-4.366 0-7.087l12.27-7.087c3.929-2.273 8.012-2.393 12.27 0z" fill="#d7b0ac" fill-rule="evenodd" stroke="#8e5c5c" stroke-width="1px"/>
     </g>
    </g>
    <path d="m213.8 113.4 15.71-9.159c0.8272-0.4779 0.0919-2.255-0.7097-1.85l-15 8.77z" fill="url(#linearGradient8695)" stroke="#8e5c5c" stroke-width=".1391px"/>
    <g transform="matrix(.5258 0 0 .5258 217.8 44.82)">
     <g transform="matrix(.2822 0 0 .2822 -146.9 59.83)" stroke="#8e5c5c">
      <g transform="translate(7.95 95.77)" fill-rule="evenodd" stroke="#8e5c5c" stroke-width="1px">
       <path d="m242.8 242.1-0.0373 9.77c-0.1111 3.548 2.732 3.82 9.622 7.826l33.18 19.14 6.962 3.953c15.91 9.037 20.48 9.137 36.55-0.1768l159.5-92.46c7.536-4.369 11.96-7.156 12.31-10.07l-0.0379-9.903" fill="url(#linearGradient8295)"/>
       <path d="m292.6 272.8c15.77 9.293 20.48 9.137 36.55-0.1768l159.5-92.46c15.08-8.74 17.68-11.15 0.1768-20.92l-37.1-20.71c-17.76-9.915-20.39-9.589-36.37-0.3536l-159.7 92.29c-21.23 12.27-12.4 14.33-0.1768 21.28 13.7 7.787 24.48 13.63 37.1 21.07z" fill="#d7b0ac"/>
      </g>
     </g>
     <g transform="matrix(.2822 0 0 .2822 -146.9 59.83)">
      <path d="m456.2 239.5-2e-3 4.713c0.1188 1.145 1.188 2.211 2.99 3.215l12.27 7.087c4.091 2.087 8.183 1.911 12.27 0l5.867-4.021 8.418 4.663 0.2018-14.72" fill="url(#linearGradient8165)" fill-rule="evenodd"/>
      <path d="m456.2 239.5-2e-3 4.713c0.1188 1.145 1.188 2.211 2.99 3.215l12.27 7.087c4.091 2.087 8.183 1.911 12.27 0l5.914-3.414m8.839 4.896 0.0201-16.4" fill="none" stroke="#8e5c5c" stroke-width="1px"/>
      <path d="m483.7 229.2 12.27 7.087c3.587 2.542 3.072 4.878 0 7.087l-12.27 7.087c-4.091 1.911-8.183 2.087-12.27 0l-12.27-7.087c-3.686-2.055-4.304-4.366 0-7.087l12.27-7.087c3.929-2.273 8.012-2.393 12.27 0z" fill="#d7b0ac" fill-rule="evenodd" stroke="#8e5c5c" stroke-width=".9992"/>
     </g>
     <g transform="matrix(.2822 0 0 .2822 -146.9 59.83)">
      <path d="m297.4 376.8-9.427 5.443c-4.091 1.911-8.183 2.087-12.27 0l-12.27-7.087c-1.89-1.054-2.974-2.175-3-3.384v-18.07l42.32-0.1177-0.2812 1.165c-0.0197 1.212 0.1636 4.221-1.414 5.355l-6.903 4.802-0.6091 10.24 3.392 1.943" fill="url(#linearGradient8299)" fill-rule="evenodd"/>
      <path d="m302.7 353.6v4.061c-0.0197 1.212-0.9228 2.38-2.5 3.514l-6.2 3.58v10.15m3.353 1.909-9.427 5.443c-4.091 1.911-8.183 2.087-12.27 0l-12.27-7.087c-1.89-1.054-2.974-2.175-3-3.384v-18.07" fill="none" stroke="#8e5c5c" stroke-width="1px"/>
      <path d="m287.9 343 12.27 7.087c3.587 2.542 3.072 4.878 0 7.087l-12.27 7.087c-4.091 1.911-8.183 2.087-12.27 0l-12.27-7.087c-3.686-2.055-4.304-4.366 0-7.087l12.27-7.087c3.929-2.273 8.012-2.393 12.27 0z" fill="#d7b0ac" fill-rule="evenodd" stroke="#8e5c5c" stroke-width="1px"/>
     </g>
    </g>
    <path d="m176 135.2 4.897-2.835c0.8272-0.4779 0.0919-2.255-0.7097-1.85l-5.154 2.815z" fill="url(#linearGradient10028)" stroke="#8e5c5c" stroke-width=".1391px"/>
    <path d="m155.5 124.4 5.971-3.38c0.8272-0.4779 0.0919-2.255-0.7097-1.85l-5.262 2.99z" fill="url(#linearGradient9507)" stroke="#8e5c5c" stroke-width=".1391px"/>
    <g transform="matrix(.5258 0 0 .5258 140.5 50.46)">
     <g transform="matrix(.2822 0 0 .2822 -54.58 37.41)">
      <path d="m297.4 376.8-9.427 5.443c-4.091 1.911-8.183 2.087-12.27 0l-12.27-7.087c-1.89-1.054-2.974-2.175-3-3.384v-18.07l42.32-0.1177-0.2812 1.165c-0.0197 1.212 1.845 4.086 0.2677 5.22l0.0925 3.726-0.2728 9.235-5.621 4.163" fill="url(#linearGradient8299)" fill-rule="evenodd"/>
      <path d="m302.7 353.6v17.85c0.2131 1.489-1.025 2.634-2.119 3.284l-12.66 7.528c-4.091 1.911-8.183 2.087-12.27 0l-12.27-7.087c-1.89-1.054-2.974-2.175-3-3.384v-18.07" fill="none" stroke="#8e5c5c" stroke-width="1px"/>
      <path d="m287.9 343 12.27 7.087c3.587 2.542 3.072 4.878 0 7.087l-12.27 7.087c-4.091 1.911-8.183 2.087-12.27 0l-12.27-7.087c-3.686-2.055-4.304-4.366 0-7.087l12.27-7.087c3.929-2.273 8.012-2.393 12.27 0z" fill="#d7b0ac" fill-rule="evenodd" stroke="#8e5c5c" stroke-width="1px"/>
     </g>
    </g>
    <path d="m173.6 134.2-17.55-10.01c-0.8318-0.4697-1.989 1.066-1.233 1.551l16.86 9.746z" fill="url(#linearGradient10030)" stroke="#8e5c5c" stroke-width=".1391px"/>
    <g transform="matrix(.5258 0 0 .5258 160.5 61.54)">
     <g transform="matrix(.2822 0 0 .2822 -54.58 37.41)">
      <path d="m297.4 376.8-9.427 5.443c-4.091 1.911-8.183 2.087-12.27 0l-12.27-7.087c-1.89-1.054-2.974-2.175-3-3.384v-18.07l42.32-0.1177-0.2812 1.165c-0.0197 1.212 1.845 4.086 0.2677 5.22l0.0925 3.726-0.2728 9.235-5.621 4.163" fill="url(#linearGradient8299)" fill-rule="evenodd"/>
      <path d="m302.7 353.6v17.85c0.2131 1.489-1.025 2.634-2.119 3.284l-12.66 7.528c-4.091 1.911-8.183 2.087-12.27 0l-12.27-7.087c-1.89-1.054-2.974-2.175-3-3.384v-18.07" fill="none" stroke="#8e5c5c" stroke-width="1px"/>
      <path d="m287.9 343 12.27 7.087c3.587 2.542 3.072 4.878 0 7.087l-12.27 7.087c-4.091 1.911-8.183 2.087-12.27 0l-12.27-7.087c-3.686-2.055-4.304-4.366 0-7.087l12.27-7.087c3.929-2.273 8.012-2.393 12.27 0z" fill="#d7b0ac" fill-rule="evenodd" stroke="#8e5c5c" stroke-width="1px"/>
     </g>
    </g>
    <path d="m145.1 130.4 7.216-4.313c0.8272-0.4779 0.0919-2.255-0.7097-1.85l-6.506 3.923z" fill="url(#linearGradient9507)" stroke="#8e5c5c" stroke-width=".1391px"/>
    <g transform="matrix(.5258 0 0 .5258 149.8 61.59)">
     <g transform="matrix(.2822 0 0 .2822 -146.9 59.83)" stroke="#8e5c5c">
      <g transform="translate(7.95 95.77)" fill-rule="evenodd" stroke="#8e5c5c" stroke-width="1px">
       <path d="m242.8 242.1-0.0373 9.77c-0.1111 3.548 2.732 3.82 9.622 7.826l33.18 19.14 6.962 3.953c15.91 9.037 20.48 9.137 36.55-0.1768l159.5-92.46c7.536-4.369 11.96-7.156 12.31-10.07l-0.0379-9.903" fill="url(#linearGradient8295)"/>
       <path d="m292.6 272.8c15.77 9.293 20.48 9.137 36.55-0.1768l159.5-92.46c15.08-8.74 17.68-11.15 0.1768-20.92l-37.1-20.71c-17.76-9.915-20.39-9.589-36.37-0.3536l-159.7 92.29c-21.23 12.27-12.4 14.33-0.1768 21.28 13.7 7.787 24.48 13.63 37.1 21.07z" fill="#d7b0ac"/>
      </g>
     </g>
     <g transform="matrix(.2822 0 0 .2822 -146.9 59.83)">
      <path d="m456.2 239.5-2e-3 4.713c0.1188 1.145 1.188 2.211 2.99 3.215l12.27 7.087c4.091 2.087 8.183 1.911 12.27 0l5.867-4.021 8.418 4.663 0.2018-14.72" fill="url(#linearGradient8165)" fill-rule="evenodd"/>
      <path d="m456.2 239.5-2e-3 4.713c0.1188 1.145 1.188 2.211 2.99 3.215l12.27 7.087c4.091 2.087 8.183 1.911 12.27 0l5.914-3.414m8.839 4.896 0.0201-16.4" fill="none" stroke="#8e5c5c" stroke-width="1px"/>
      <path d="m483.7 229.2 12.27 7.087c3.587 2.542 3.072 4.878 0 7.087l-12.27 7.087c-4.091 1.911-8.183 2.087-12.27 0l-12.27-7.087c-3.686-2.055-4.304-4.366 0-7.087l12.27-7.087c3.929-2.273 8.012-2.393 12.27 0z" fill="#d7b0ac" fill-rule="evenodd" stroke="#8e5c5c" stroke-width=".9992"/>
     </g>
    </g>
   </g>
  </g>
 </g>
</svg>
