<svg width="155" height="37" viewBox="0 0 155 37" fill="none" xmlns="http://www.w3.org/2000/svg">
<g clip-path="url(#clip0_7304_4691)">
<mask id="mask0_7304_4691" style="mask-type:luminance" maskUnits="userSpaceOnUse" x="0" y="0" width="155" height="37">
<path d="M154.889 0H0V36.9507H154.889V0Z" fill="white"/>
</mask>
<g mask="url(#mask0_7304_4691)">
<path d="M26.9779 9.57795L16.3117 9.56738L14.7305 12.2842H21.0518L18.3471 23.0741H21.7939H25.2441L22.5429 12.2842H28.5348L26.9779 9.57795Z" fill="#ED1C24"/>
<path d="M35.5221 12.284H40.7789L37.4813 9.58476L32.4707 9.58124L21.6484 0L27.7167 9.398L29.5822 12.284L34.0276 19.166H43.2929L35.5221 12.284Z" fill="#ED1C24"/>
<path d="M10.8431 9.56362L5.93993 9.56009L2.51398 12.284H7.7708L0 19.166H9.26879L21.648 0L10.8431 9.56362Z" fill="#ED1C24"/>
<path d="M53.1145 18.7925V17.908C52.681 18.3062 52.2233 18.5951 51.7379 18.7784C51.2524 18.9616 50.6872 19.0532 50.0422 19.0532C48.943 19.0532 48.0934 18.8277 47.4866 18.3696C46.8798 17.9151 46.5781 17.2667 46.5781 16.4315C46.5781 14.5745 48.1836 13.6125 51.3911 13.535L52.9758 13.5032V13.1473C52.9758 12.9007 52.8717 12.7069 52.6672 12.5694C52.4626 12.4285 52.1782 12.3615 51.8211 12.3615C51.1137 12.3615 50.6872 12.5765 50.5381 13.0064L47.1191 12.7809C47.445 10.9555 49.0505 10.0464 51.932 10.0464C55.0355 10.0464 56.5855 11.2198 56.5855 13.5702V18.7995H53.1179L53.1145 18.7925ZM52.9723 15.3638L51.7205 15.3955C51.1726 15.4167 50.7669 15.4907 50.5103 15.614C50.2503 15.7373 50.122 15.9241 50.122 16.1672C50.122 16.5654 50.4687 16.7628 51.1657 16.7628C51.7552 16.7628 52.2198 16.6289 52.5597 16.3611C52.8336 16.1461 52.9723 15.8607 52.9723 15.5083V15.3638Z" fill="#231F20"/>
<path d="M58.5117 18.7923V7.30469H62.3572V11.1668C63.0646 10.4162 64.0459 10.0392 65.3012 10.0392C66.0502 10.0392 66.7194 10.2189 67.3124 10.5713C67.9019 10.9272 68.37 11.4311 68.7133 12.0935C69.0566 12.7525 69.2265 13.5242 69.2265 14.4016C69.2265 15.2791 69.0566 16.1036 68.7133 16.8049C68.37 17.5096 67.8776 18.0594 67.2326 18.454C66.5877 18.8487 65.8283 19.0495 64.9544 19.0495C63.7928 19.0495 62.8947 18.676 62.2636 17.9254V18.7958H58.5117V18.7923ZM62.3434 14.6413C62.3434 15.1452 62.4821 15.5363 62.756 15.8147C63.0195 16.0825 63.394 16.2164 63.8795 16.2164C64.365 16.2164 64.736 16.0719 64.9891 15.783C65.2423 15.494 65.3706 15.0747 65.3706 14.5285C65.3706 13.4255 64.8782 12.8723 63.8968 12.8723C63.4114 12.8723 63.0299 13.0062 62.756 13.274C62.4821 13.5207 62.3434 13.8836 62.3434 14.3699V14.6448V14.6413Z" fill="#231F20"/>
<path d="M70.8594 18.7922V10.2963H74.6113V11.3746C75.3811 10.5606 76.3312 10.1519 77.4616 10.1519C77.8118 10.1519 78.1586 10.1836 78.5053 10.247L78.0788 13.2211C77.687 13.1577 77.3125 13.126 76.9553 13.126C76.5982 13.126 76.2826 13.1612 75.981 13.2387C75.6793 13.3127 75.4366 13.422 75.2458 13.5594C75.0863 13.6792 74.958 13.8237 74.8575 13.9928C74.7569 14.162 74.7084 14.3417 74.7084 14.5214V18.7852H70.8628L70.8594 18.7922Z" fill="#231F20"/>
<path d="M85.302 18.7925V17.908C84.8685 18.3062 84.4108 18.5951 83.9254 18.7784C83.4399 18.9616 82.8747 19.0532 82.2297 19.0532C81.1305 19.0532 80.281 18.8277 79.6741 18.3696C79.0673 17.9151 78.7656 17.2667 78.7656 16.4315C78.7656 14.5745 80.3711 13.6125 83.5786 13.535L85.1633 13.5032V13.1473C85.1633 12.9007 85.0593 12.7069 84.8547 12.5694C84.6501 12.4285 84.3657 12.3615 84.0086 12.3615C83.3012 12.3615 82.8747 12.5765 82.7256 13.0064L79.3066 12.7809C79.6325 10.9555 81.238 10.0464 84.1195 10.0464C87.223 10.0464 88.773 11.2198 88.773 13.5702V18.7995H85.3054L85.302 18.7925ZM85.1598 15.3638L83.908 15.3955C83.3601 15.4167 82.9544 15.4907 82.6978 15.614C82.4378 15.7373 82.3095 15.9241 82.3095 16.1672C82.3095 16.5654 82.6562 16.7628 83.3532 16.7628C83.9427 16.7628 84.4073 16.6289 84.7472 16.3611C85.0211 16.1461 85.1598 15.8607 85.1598 15.5083V15.3638Z" fill="#231F20"/>
<path d="M96.3376 12.9818C96.2752 12.7246 96.1399 12.5378 95.9319 12.418C95.7273 12.3017 95.4395 12.2418 95.0685 12.2418C94.3195 12.2418 93.945 12.418 93.945 12.7739C93.945 12.8937 94.0178 12.9853 94.1669 13.0558C94.316 13.1263 94.583 13.1862 94.9749 13.2426L96.1157 13.4047C97.097 13.5456 97.8703 13.7253 98.4355 13.9509C99.0007 14.1764 99.4064 14.4654 99.6561 14.8213C99.9057 15.1772 100.027 15.6212 100.027 16.1568C100.027 17.1117 99.6283 17.8341 98.8308 18.3204C98.0332 18.8067 96.8473 19.0498 95.2765 19.0498C93.7057 19.0498 92.3846 18.7996 91.5385 18.3028C90.6924 17.8024 90.2312 17.0553 90.1445 16.0581H93.7543C93.8271 16.3153 93.9797 16.4986 94.2051 16.6149C94.4339 16.7276 94.7737 16.784 95.228 16.784C95.9562 16.784 96.3203 16.6113 96.3203 16.2695C96.3203 16.1321 96.2509 16.0264 96.1157 15.9559C95.9804 15.8854 95.7238 15.8255 95.3563 15.7692L94.2952 15.6106C92.9116 15.3956 91.913 15.0679 91.2958 14.6274C90.6785 14.187 90.3699 13.5773 90.3699 12.7915C90.3699 11.9141 90.7826 11.234 91.6044 10.7583C92.4262 10.2826 93.5878 10.043 95.0893 10.043C96.5907 10.043 97.6206 10.2579 98.4077 10.6878C99.1949 11.1177 99.6873 11.7802 99.8884 12.6823L96.3411 12.9889L96.3376 12.9818Z" fill="#231F20"/>
<path d="M101.371 9.31334V7.05811H105.217V9.31334H101.371ZM101.371 18.7889V10.293H105.217V18.7889H101.371Z" fill="#231F20"/>
<path d="M109.794 18.7923L106.312 10.2964H110.269L111.885 15.5257L113.532 10.2964H117.381L113.896 18.7923H109.794Z" fill="#231F20"/>
<path d="M121.324 15.332C121.366 15.7831 121.518 16.1143 121.782 16.3222C122.045 16.5301 122.441 16.6358 122.971 16.6358C123.741 16.6358 124.209 16.4209 124.379 15.991H127.909C127.465 18.0313 125.787 19.0461 122.874 19.0461C121.227 19.0461 119.954 18.6691 119.056 17.9115C118.158 17.1538 117.711 16.0685 117.711 14.6519C117.711 13.9754 117.829 13.3587 118.061 12.7949C118.293 12.2311 118.637 11.7448 119.091 11.329C119.545 10.9167 120.1 10.596 120.752 10.3705C121.407 10.145 122.146 10.0322 122.968 10.0322C124.573 10.0322 125.811 10.4234 126.682 11.2057C127.552 11.9915 127.989 13.1015 127.989 14.5357V15.325H121.324V15.332ZM124.459 13.5631C124.438 13.1755 124.306 12.89 124.064 12.7033C123.821 12.5165 123.446 12.4214 122.94 12.4214C122.496 12.4214 122.136 12.5236 121.855 12.7279C121.574 12.9323 121.407 13.2107 121.355 13.5631H124.459Z" fill="#231F20"/>
<path d="M54.5056 33.3776C54.0409 33.5292 53.5902 33.6349 53.1532 33.6983C52.7163 33.7617 52.2274 33.7934 51.6899 33.7934C50.3688 33.7934 49.4222 33.5292 48.8465 32.9971C48.2709 32.465 47.9831 31.5946 47.9831 30.3824V27.9052H46.3984V25.1531H47.9831V22.9507H51.8321V25.1531H54.2074V27.9052H51.8321V30.0124C51.8321 30.3542 51.9153 30.6009 52.0783 30.7524C52.2413 30.9039 52.5187 30.9779 52.9105 30.9779C53.2365 30.9779 53.6179 30.9145 54.0513 30.7876L54.5091 33.3776H54.5056Z" fill="#231F20"/>
<path d="M58.9257 30.1919C58.9673 30.6429 59.1199 30.9707 59.3834 31.1821C59.647 31.3935 60.0423 31.4957 60.5728 31.4957C61.3426 31.4957 61.8107 31.2808 61.9806 30.8509H65.5106C65.0668 32.8876 63.3885 33.906 60.4757 33.906C58.8286 33.906 57.556 33.5289 56.6579 32.7713C55.7598 32.0137 55.3125 30.9284 55.3125 29.5118C55.3125 28.8352 55.4304 28.215 55.6627 27.6512C55.8951 27.0874 56.2383 26.6011 56.6926 26.1853C57.1468 25.773 57.7017 25.4559 58.3536 25.2304C59.0089 25.0049 59.7475 24.8921 60.5693 24.8921C62.1748 24.8921 63.4127 25.2832 64.2831 26.0655C65.1534 26.8478 65.5904 27.9578 65.5904 29.3955V30.1849H58.9257V30.1919ZM62.0604 28.4229C62.0396 28.0389 61.9078 27.7499 61.6651 27.5631C61.4223 27.3764 61.0478 27.2812 60.5416 27.2812C60.0977 27.2812 59.7371 27.3834 59.4562 27.5878C59.1754 27.7922 59.0089 28.0706 58.9569 28.4229H62.0604Z" fill="#231F20"/>
<path d="M76.9426 30.1746C76.849 30.9709 76.5958 31.644 76.1901 32.2043C75.7844 32.761 75.2331 33.1839 74.5431 33.4764C73.853 33.7653 73.0208 33.9098 72.0499 33.9098C70.3716 33.9098 69.0851 33.5222 68.1939 32.7505C67.3028 31.9787 66.8555 30.8864 66.8555 29.4698C66.8555 28.0532 67.3167 26.9256 68.2425 26.1151C69.1649 25.3047 70.4444 24.8994 72.0811 24.8994C73.4196 24.8994 74.498 25.1954 75.3094 25.7839C76.1208 26.3759 76.6167 27.2005 76.797 28.2611L73.267 28.5994C73.2046 28.2999 73.0832 28.0779 72.9029 27.9299C72.7226 27.7854 72.4695 27.7149 72.1435 27.7149C71.6788 27.7149 71.3252 27.8594 71.0824 28.1413C70.8397 28.4267 70.7183 28.8461 70.7183 29.4028C70.7183 29.9596 70.8397 30.3825 71.0824 30.6679C71.3252 30.9533 71.6788 31.0943 72.1435 31.0943C72.8925 31.0943 73.3017 30.7877 73.3641 30.1746H76.9426Z" fill="#231F20"/>
<path d="M84.6972 33.6486V28.8386C84.6972 28.1304 84.354 27.778 83.6674 27.778C83.2755 27.778 82.9392 27.9119 82.6548 28.1797C82.3705 28.4475 82.2283 28.747 82.2283 29.0818V33.6522H78.3828V22.1646H82.2283V26.1218C83.1056 25.3078 84.1147 24.899 85.2521 24.899C86.275 24.899 87.0795 25.1845 87.6655 25.7518C88.2515 26.3226 88.5462 27.1049 88.5462 28.1022V33.6522H84.6972V33.6486Z" fill="#231F20"/>
<path d="M96.7988 33.649V28.839C96.7988 28.1307 96.4555 27.7784 95.7689 27.7784C95.3771 27.7784 95.0408 27.9123 94.7564 28.1801C94.4721 28.4479 94.3299 28.7474 94.3299 29.0822V33.6526H90.4844V25.1567H94.2363V26.2173C95.1344 25.3364 96.1746 24.8994 97.3571 24.8994C98.38 24.8994 99.1845 25.1848 99.7705 25.7522C100.357 26.323 100.651 27.1053 100.651 28.1026V33.6526H96.8023L96.7988 33.649Z" fill="#231F20"/>
<path d="M112.853 29.3711C112.853 30.7983 112.378 31.9118 111.428 32.7117C110.478 33.5116 109.157 33.9098 107.472 33.9098C105.786 33.9098 104.483 33.5222 103.578 32.7505C102.669 31.9787 102.215 30.8758 102.215 29.4346C102.215 27.9933 102.69 26.8939 103.64 26.0975C104.59 25.2976 105.908 24.8994 107.597 24.8994C109.285 24.8994 110.586 25.2835 111.491 26.0587C112.399 26.8305 112.853 27.9369 112.853 29.3747V29.3711ZM108.99 29.4028C108.99 28.2787 108.505 27.7149 107.534 27.7149C106.563 27.7149 106.078 28.2787 106.078 29.4028C106.078 30.5269 106.563 31.0943 107.534 31.0943C108.505 31.0943 108.99 30.5305 108.99 29.4028Z" fill="#231F20"/>
<path d="M114.48 33.6488V22.1611H118.326V33.6488H114.48Z" fill="#231F20"/>
<path d="M130.599 29.3711C130.599 30.7983 130.124 31.9118 129.174 32.7117C128.224 33.5116 126.903 33.9098 125.218 33.9098C123.533 33.9098 122.229 33.5222 121.324 32.7505C120.415 31.9787 119.961 30.8758 119.961 29.4346C119.961 27.9933 120.436 26.8939 121.386 26.0975C122.336 25.2976 123.654 24.8994 125.343 24.8994C127.031 24.8994 128.332 25.2835 129.237 26.0587C130.145 26.8305 130.599 27.9369 130.599 29.3747V29.3711ZM126.737 29.4028C126.737 28.2787 126.251 27.7149 125.28 27.7149C124.309 27.7149 123.824 28.2787 123.824 29.4028C123.824 30.5269 124.309 31.0943 125.28 31.0943C126.251 31.0943 126.737 30.5305 126.737 29.4028Z" fill="#231F20"/>
<path d="M138.736 32.1548C138.386 32.5072 137.977 32.7715 137.502 32.9442C137.026 33.1168 136.458 33.2014 135.792 33.2014C135.043 33.2014 134.37 33.0358 133.781 32.7116C133.188 32.3839 132.723 31.9187 132.38 31.3126C132.037 30.7065 131.863 29.9983 131.863 29.1807C131.863 28.3632 132.033 27.6338 132.38 26.9854C132.723 26.337 133.216 25.8261 133.861 25.4561C134.506 25.0861 135.265 24.9028 136.139 24.9028C137.29 24.9028 138.188 25.2552 138.83 25.9635V25.1565H142.582V32.4614C142.582 33.9943 142.148 35.1254 141.274 35.8548C140.4 36.5843 139.072 36.9507 137.276 36.9507C135.702 36.9507 134.502 36.69 133.673 36.1685C132.845 35.6469 132.373 34.8576 132.255 33.7969H135.945C135.997 34.0436 136.125 34.2233 136.333 34.3361C136.538 34.4488 136.846 34.5052 137.259 34.5052C137.765 34.5052 138.14 34.3748 138.375 34.1105C138.611 33.8463 138.733 33.4375 138.733 32.8807V32.1584L138.736 32.1548ZM138.753 29.0504C138.753 28.6205 138.611 28.2786 138.327 28.0214C138.074 27.7959 137.703 27.6831 137.217 27.6831C136.732 27.6831 136.361 27.8029 136.108 28.0461C135.854 28.2892 135.726 28.6381 135.726 29.0997C135.726 30.0229 136.219 30.4845 137.2 30.4845C137.644 30.4845 138.018 30.3718 138.323 30.1463C138.608 29.9313 138.75 29.6106 138.75 29.1807V29.0504H138.753Z" fill="#231F20"/>
<path d="M147.702 32.7325L143.68 25.1528H147.751L149.398 29.4484L150.982 25.1528H154.894L150.792 33.6029C150.327 34.5685 149.911 35.2803 149.54 35.7419C149.169 36.2035 148.774 36.5171 148.354 36.6898C147.934 36.8625 147.411 36.947 146.787 36.947C145.889 36.947 145.039 36.8131 144.238 36.5453L144.762 34.0187C145.164 34.1385 145.583 34.1985 146.027 34.1985C146.364 34.1985 146.638 34.128 146.842 33.987C147.047 33.8461 147.255 33.5853 147.466 33.1977L147.706 32.7325H147.702Z" fill="#231F20"/>
<path d="M28.8362 22.0167C28.8362 22.3374 28.7287 22.5946 28.5102 22.7884C28.2918 22.9787 28.0005 23.0774 27.6329 23.0774C27.2654 23.0774 26.9741 22.9822 26.7556 22.7884C26.5372 22.5981 26.4297 22.3409 26.4297 22.0167C26.4297 21.6925 26.5372 21.4388 26.7556 21.245C26.9741 21.0547 27.2654 20.9561 27.6329 20.9561C28.0005 20.9561 28.2918 21.0512 28.5102 21.245C28.7287 21.4353 28.8362 21.6925 28.8362 22.0167ZM28.5449 22.0167C28.5449 21.763 28.4651 21.5692 28.3022 21.4282C28.1392 21.2873 27.9173 21.2168 27.6295 21.2168C27.3417 21.2168 27.1197 21.2873 26.9568 21.4282C26.7938 21.5692 26.714 21.7665 26.714 22.0167C26.714 22.2669 26.7938 22.4642 26.9568 22.6052C27.1197 22.7462 27.3417 22.8166 27.6295 22.8166C27.9173 22.8166 28.1392 22.7462 28.3022 22.6052C28.4651 22.4642 28.5449 22.2669 28.5449 22.0167ZM27.8999 22.5101L27.6988 22.1753H27.4387V22.5101H27.1544V21.4952H27.6711C27.8271 21.4952 27.945 21.5199 28.0213 21.5727C28.0976 21.6256 28.1357 21.7066 28.1357 21.8194C28.1357 21.9568 28.0733 22.052 27.9485 22.1083L28.2016 22.5101H27.8965H27.8999ZM27.6607 21.9462C27.73 21.9462 27.7786 21.9392 27.8098 21.9216C27.841 21.904 27.8583 21.8722 27.8583 21.83C27.8583 21.7877 27.841 21.7595 27.8098 21.7454C27.7786 21.7313 27.7231 21.7242 27.6433 21.7242H27.4353V21.9498H27.6572L27.6607 21.9462Z" fill="#ED1C24"/>
<path d="M28.8362 22.0167C28.8362 22.3374 28.7287 22.5946 28.5102 22.7884C28.2918 22.9787 28.0005 23.0774 27.6329 23.0774C27.2654 23.0774 26.9741 22.9822 26.7556 22.7884C26.5372 22.5981 26.4297 22.3409 26.4297 22.0167C26.4297 21.6925 26.5372 21.4388 26.7556 21.245C26.9741 21.0547 27.2654 20.9561 27.6329 20.9561C28.0005 20.9561 28.2918 21.0512 28.5102 21.245C28.7287 21.4353 28.8362 21.6925 28.8362 22.0167ZM28.5449 22.0167C28.5449 21.763 28.4651 21.5692 28.3022 21.4282C28.1392 21.2873 27.9173 21.2168 27.6295 21.2168C27.3417 21.2168 27.1197 21.2873 26.9568 21.4282C26.7938 21.5692 26.714 21.7665 26.714 22.0167C26.714 22.2669 26.7938 22.4642 26.9568 22.6052C27.1197 22.7462 27.3417 22.8166 27.6295 22.8166C27.9173 22.8166 28.1392 22.7462 28.3022 22.6052C28.4651 22.4642 28.5449 22.2669 28.5449 22.0167ZM27.8999 22.5101L27.6988 22.1753H27.4387V22.5101H27.1544V21.4952H27.6711C27.8271 21.4952 27.945 21.5199 28.0213 21.5727C28.0976 21.6256 28.1357 21.7066 28.1357 21.8194C28.1357 21.9568 28.0733 22.052 27.9485 22.1083L28.2016 22.5101H27.8965H27.8999ZM27.6607 21.9462C27.73 21.9462 27.7786 21.9392 27.8098 21.9216C27.841 21.904 27.8583 21.8722 27.8583 21.83C27.8583 21.7877 27.841 21.7595 27.8098 21.7454C27.7786 21.7313 27.7231 21.7242 27.6433 21.7242H27.4353V21.9498H27.6572L27.6607 21.9462Z" fill="#ED1C24"/>
</g>
</g>
<defs>
<clipPath id="clip0_7304_4691">
<rect width="155" height="37" fill="white"/>
</clipPath>
</defs>
</svg>
