<svg width="88" height="29" viewBox="0 0 88 29" fill="none" xmlns="http://www.w3.org/2000/svg">
<g clip-path="url(#clip0_7304_4804)">
<mask id="mask0_7304_4804" style="mask-type:luminance" maskUnits="userSpaceOnUse" x="0" y="0" width="88" height="29">
<path d="M88 0H0V29H88V0Z" fill="white"/>
</mask>
<g mask="url(#mask0_7304_4804)">
<mask id="mask1_7304_4804" style="mask-type:luminance" maskUnits="userSpaceOnUse" x="0" y="0" width="88" height="29">
<path d="M88 0H0V29H88V0Z" fill="white"/>
</mask>
<g mask="url(#mask1_7304_4804)">
<path d="M38.2278 5.7136L38.4691 7.26235C39.4892 5.60549 40.8609 5.36133 42.2017 5.36133C43.5424 5.36133 44.8865 5.90546 45.6137 6.63799L44.1351 9.51922C43.4631 8.94715 42.8461 8.65064 41.7708 8.65064C40.051 8.65064 38.4691 9.57503 38.4691 12.0481V19.1151H35.1914V5.7136H38.2278Z" fill="#1A1A1A"/>
<path d="M49.8865 1.93592C49.8865 4.51716 46.0195 4.51716 46.0195 1.93592C46.0195 -0.645307 49.8865 -0.645307 49.8865 1.93592ZM46.3159 7.73323V19.1151H49.5935V5.66126L46.3159 7.73674V7.73323Z" fill="#1A1A1A"/>
<path d="M60.6563 9.27452C59.7151 8.37807 58.6399 8.0781 57.3785 8.0781C55.8203 8.0781 54.9626 8.56642 54.9626 9.41057C54.9626 10.2547 55.7414 10.7675 57.4337 10.8791C59.9321 11.043 63.0995 11.6116 63.0995 15.173C63.0995 17.5379 61.1939 19.5785 57.4058 19.5785C55.3105 19.5785 53.2152 19.2262 51.2812 17.1857L52.8946 14.8207C53.8353 15.8811 55.9827 16.6694 57.461 16.6973C58.695 16.7252 59.8532 16.0729 59.8532 15.0928C59.8532 14.1684 59.1016 13.7882 57.2197 13.6801C54.7213 13.4917 51.74 12.5673 51.74 9.52219C51.74 6.47704 54.9075 5.33643 57.3264 5.33643C59.3944 5.33643 60.9526 5.74451 62.4825 7.10492L60.6563 9.28149V9.27452Z" fill="#1A1A1A"/>
<path d="M69.2804 1.93555V5.74112H72.934V8.59441H69.2531V14.3847C69.2531 15.6614 69.9526 16.2893 70.9727 16.2893C71.483 16.2893 72.0757 16.1254 72.5582 15.8812L73.4716 18.7066C72.5304 19.0868 71.7515 19.2507 70.7592 19.2786C67.8846 19.3868 66.0062 17.7299 66.0062 14.3847V8.59441H63.5352V5.74112H66.0062V3.95518L69.284 1.93555H69.2804Z" fill="#1A1A1A"/>
<path d="M87.9978 12.4282C87.9978 16.2895 85.3922 19.4149 81.0944 19.4149C76.7965 19.4149 74.2188 16.2895 74.2188 12.4282C74.2188 8.56679 76.8517 5.44141 81.0671 5.44141C85.282 5.44141 87.9978 8.59472 87.9978 12.4282ZM77.4965 12.4282C77.4965 14.4688 78.7062 16.3698 81.0944 16.3698C83.483 16.3698 84.6928 14.4652 84.6928 12.4282C84.6928 10.3911 83.2969 8.45868 81.0944 8.45868C78.73 8.45868 77.4965 10.4155 77.4965 12.4282Z" fill="#FEC600"/>
<path d="M9.51164 13.3741L9.5078 13.3781L9.5 13.3741L9.5078 13.3701L9.51164 13.3741Z" fill="#1A1A1A"/>
<path d="M45.1796 9.07283H45.1719H45.168L45.1719 9.06885L45.1796 9.07283Z" fill="#1A1A1A"/>
<path d="M33.6089 12.6547C33.6227 12.4594 33.633 12.2606 33.633 12.0582C33.633 12.0268 33.633 11.9954 33.6296 11.964C33.6296 11.7931 33.6193 11.6187 33.6055 11.4513C33.5986 11.3536 33.5848 11.256 33.5745 11.1618C33.5641 11.0781 33.5538 10.9944 33.54 10.9141C33.3746 9.81534 32.9679 8.80726 32.3544 7.95268C31.7616 7.12598 30.9724 6.44931 30.0245 5.98185C29.8109 5.87725 29.5903 5.78307 29.3594 5.70284C28.5977 5.36797 27.7636 5.28076 26.9434 5.28076C26.933 5.28076 26.9261 5.28076 26.9158 5.28076C26.9089 5.28076 26.8986 5.28076 26.8916 5.28076C24.6997 5.28076 22.9557 6.15626 21.8011 7.53411C21.7805 7.55853 21.7598 7.58295 21.7356 7.61084C21.6461 7.71895 21.5599 7.83754 21.4772 7.95619C21.422 8.03637 21.3669 8.11315 21.3117 8.19338C21.2635 8.26659 21.2221 8.33985 21.1774 8.41658C21.1049 8.53868 21.0326 8.66425 20.9706 8.79332C20.9464 8.83865 20.9292 8.88404 20.9051 8.92937C20.8327 9.08281 20.7638 9.23982 20.7017 9.40024C20.6879 9.43514 20.6776 9.4735 20.6638 9.51186C20.6052 9.6793 20.5466 9.84673 20.4984 10.0177C20.4811 10.077 20.4708 10.1397 20.4536 10.2025C20.4156 10.3525 20.3812 10.5025 20.3502 10.6595C20.326 10.799 20.3088 10.9455 20.2882 11.092C20.2778 11.1722 20.264 11.2525 20.2571 11.3362C20.2364 11.5734 20.2227 11.8176 20.2227 12.0687C20.2227 12.0722 20.2227 12.0792 20.2227 12.0826C20.2227 12.1001 20.2227 12.121 20.2227 12.1384C20.2227 12.2884 20.2295 12.435 20.2399 12.5849C20.426 16.2057 22.6421 18.4904 26.1575 18.7834C26.3505 18.8008 26.547 18.8148 26.7503 18.8183C26.809 18.8183 26.8641 18.8252 26.9227 18.8252C26.9261 18.8252 26.933 18.8252 26.9365 18.8252C28.5736 18.8252 30.2934 19.6659 30.2934 21.5146C30.2934 23.3633 28.8148 24.3958 26.9365 24.3958C25.0581 24.3958 23.5279 23.2901 23.4762 21.6018L20.519 23.4261C21.3462 25.9411 23.8243 27.4968 26.9365 27.4968C30.7759 27.4968 33.571 25.2121 33.571 21.5181C33.571 19.9345 33.1092 18.4416 31.2929 17.3463C31.1447 17.2591 30.993 17.1719 30.8276 17.0881C32.4578 16.3347 33.2126 14.8348 33.4883 13.4291C33.509 13.3175 33.5331 13.2059 33.5469 13.0907C33.5469 13.0663 33.5538 13.0454 33.5572 13.021C33.5745 12.8989 33.5848 12.7803 33.5952 12.6652M26.933 15.808C25.0271 15.808 23.4692 14.4232 23.4692 12.0826C23.4692 9.74208 25.0271 8.305 26.933 8.305C28.839 8.305 30.3692 9.77347 30.3692 12.0826C30.3692 14.3918 28.8114 15.808 26.933 15.808Z" fill="#1A1A1A"/>
<path d="M38.3779 24.6504L39.0707 26.7991L39.7566 24.6504H40.1047L40.7871 26.7991L41.4833 24.6504H41.952L41.049 27.263H40.5596L40.208 26.2933L39.9324 25.341L39.6498 26.2933L39.3016 27.263H38.8157L37.9023 24.6504H38.3779Z" fill="#1A1A1A"/>
<path d="M44.7251 26.8412C44.4632 27.1517 44.0151 27.3052 43.6118 27.3052C42.8123 27.3052 42.2539 26.7715 42.2539 25.9413C42.2539 25.1111 42.8123 24.5879 43.5912 24.5879C44.3701 24.5879 44.9801 25.0797 44.8802 26.1192H42.6882C42.7364 26.6005 43.1259 26.9006 43.6222 26.9006C43.9151 26.9006 44.2701 26.7854 44.4425 26.5727L44.7285 26.8378H44.7216L44.7251 26.8412ZM44.4735 25.7634C44.4528 25.2576 44.1081 24.9821 43.6015 24.9821C43.1535 24.9821 42.7606 25.2576 42.6882 25.7599H44.4735V25.7634Z" fill="#1A1A1A"/>
<path d="M47.2711 23.5625H46.8438V27.2599H47.2711V23.5625Z" fill="#1A1A1A"/>
<path d="M49.2591 24.5913C50.0483 24.5913 50.5998 25.1494 50.5998 25.9586C50.5998 26.7679 50.0346 27.305 49.2591 27.305C48.4837 27.305 47.9219 26.7504 47.9219 25.9586C47.9219 25.1668 48.4905 24.5913 49.2591 24.5913ZM49.2626 24.9855C48.7352 24.9855 48.3492 25.3761 48.3492 25.9586C48.3492 26.5063 48.7318 26.9005 49.2591 26.9005C49.7864 26.9005 50.1725 26.5098 50.1759 25.9586C50.1759 25.3796 49.7795 24.9855 49.2626 24.9855Z" fill="#1A1A1A"/>
<path d="M51.3204 24.6504L51.7371 25.6689L52.1751 26.7991L52.609 25.6759L53.0263 24.6504H53.4951L52.4128 27.263H51.9404L50.8516 24.6504H51.3204Z" fill="#1A1A1A"/>
<path d="M56.2216 26.8412C55.9596 27.1517 55.5115 27.3052 55.1079 27.3052C54.3083 27.3052 53.75 26.7715 53.75 25.9413C53.75 25.1111 54.3083 24.5879 55.0877 24.5879C55.8665 24.5879 56.4765 25.0797 56.3763 26.1192H54.1844C54.2325 26.6005 54.6224 26.9006 55.1186 26.9006C55.4114 26.9006 55.7664 26.7854 55.9389 26.5727L56.2246 26.8378H56.218L56.2216 26.8412ZM55.9697 25.7634C55.949 25.2576 55.6046 24.9821 55.0978 24.9821C54.6497 24.9821 54.2568 25.2576 54.1844 25.7599H55.9697V25.7634Z" fill="#1A1A1A"/>
<path d="M58.3086 24.6611H58.7152L58.736 25.1634C58.9393 24.8146 59.3221 24.6157 59.7287 24.6157C60.4697 24.6332 61.0108 25.1599 61.0108 25.9621C61.0108 26.7644 60.4732 27.319 59.7009 27.319C59.3358 27.319 58.9291 27.1586 58.7258 26.7923V28.4945H58.3086V24.6646V24.6611ZM60.5834 25.9726C60.5834 25.3866 60.2006 25.0378 59.6736 25.0378C59.1461 25.0378 58.7703 25.4389 58.7703 25.9726C58.7703 26.5063 59.1532 26.9074 59.6736 26.9144C60.1905 26.9144 60.5834 26.5621 60.5834 25.9726Z" fill="#1A1A1A"/>
<path d="M62.802 24.5913C63.5915 24.5913 64.1428 25.1494 64.1428 25.9586C64.1428 26.7679 63.5779 27.305 62.802 27.305C62.0267 27.305 61.4648 26.7504 61.4648 25.9586C61.4648 25.1668 62.0338 24.5913 62.802 24.5913ZM62.8056 24.9855C62.2781 24.9855 61.8922 25.3761 61.8922 25.9586C61.8922 26.5063 62.2751 26.9005 62.802 26.9005C63.3295 26.9005 63.7154 26.5098 63.719 25.9586C63.719 25.3796 63.3225 24.9855 62.8056 24.9855Z" fill="#1A1A1A"/>
<path d="M65.4251 24.6545H66.2247V25.0243H65.422V26.4021C65.422 26.7091 65.5217 26.9044 65.8287 26.9044C65.9424 26.9044 66.0729 26.866 66.1903 26.8102L66.3147 27.1695C66.1422 27.2497 65.987 27.2916 65.8145 27.2986C65.2632 27.309 65.0013 26.9812 65.0013 26.4056V25.0278H64.4844V24.6581H65.0013V23.9395L65.4286 23.8906V24.6545H65.4251Z" fill="#1A1A1A"/>
<path d="M68.8908 27.2704L68.8807 26.796C68.6774 27.1553 68.2844 27.3262 67.9294 27.3262C67.1885 27.3262 66.6094 26.8065 66.6094 25.9588C66.6094 25.1112 67.1986 24.6054 67.9365 24.6124C68.3223 24.6124 68.7047 24.7938 68.8908 25.1321V24.6577H69.3116V27.2669H68.8979L68.8878 27.2773L68.8908 27.2704ZM67.9501 25.0205C67.4398 25.0205 67.0266 25.3902 67.0266 25.9728C67.0266 26.5553 67.4398 26.9285 67.9501 26.9285C69.1907 26.9285 69.1907 25.017 67.9537 25.017H67.9501V25.0205Z" fill="#1A1A1A"/>
<path d="M70.8235 24.6545H71.6231V25.0243H70.82V26.4021C70.82 26.7091 70.9201 26.9044 71.2271 26.9044C71.3404 26.9044 71.4714 26.866 71.5887 26.8102L71.7126 27.1695C71.5407 27.2497 71.3854 27.2916 71.2129 27.2986C70.6617 27.309 70.3997 26.9812 70.3997 26.4056V25.0278H69.8828V24.6581H70.3997V23.9395L70.827 23.8906V24.6545H70.8235Z" fill="#1A1A1A"/>
<path d="M73.3372 24.5913C74.1267 24.5913 74.6779 25.1494 74.6779 25.9586C74.6779 26.7679 74.113 27.305 73.3372 27.305C72.5619 27.305 72 26.7504 72 25.9586C72 25.1668 72.569 24.5913 73.3372 24.5913ZM73.3407 24.9855C72.8137 24.9855 72.4274 25.3761 72.4274 25.9586C72.4274 26.5063 72.8102 26.9005 73.3372 26.9005C73.8647 26.9005 74.2506 26.5098 74.2541 25.9586C74.2541 25.3796 73.8576 24.9855 73.3407 24.9855Z" fill="#1A1A1A"/>
<path d="M77.6004 26.8412C77.3384 27.1517 76.8903 27.3052 76.4907 27.3052C75.6912 27.3052 75.1328 26.7715 75.1328 25.9413C75.1328 25.1111 75.6912 24.5879 76.4665 24.5879C77.2418 24.5879 77.8552 25.0797 77.7556 26.1192H75.5632C75.6118 26.6005 76.0012 26.9006 76.4973 26.9006C76.7901 26.9006 77.1452 26.7854 77.3176 26.5727L77.6039 26.8378H77.6004V26.8412ZM77.3485 25.7634C77.3283 25.2576 76.9833 24.9821 76.4766 24.9821C76.0285 24.9821 75.6355 25.2576 75.5632 25.7599H77.3485V25.7634Z" fill="#1A1A1A"/>
<path d="M80.0084 25.2298C79.7848 25.024 79.5501 24.9751 79.2846 24.9751C78.9296 24.9682 78.6438 25.0973 78.6474 25.3554C78.6504 25.624 78.9645 25.7042 79.2882 25.7391C79.757 25.7984 80.3841 25.8926 80.374 26.5378C80.3634 27.0611 79.8743 27.3192 79.2952 27.3192C78.8608 27.3192 78.4335 27.1971 78.1406 26.8274L78.3854 26.5274C78.613 26.8134 78.9852 26.9285 79.3018 26.9285C79.5845 26.9285 79.9431 26.8379 79.9568 26.5204C79.9603 26.2344 79.6604 26.1507 79.2609 26.1018C78.7642 26.039 78.2337 25.9065 78.2337 25.3519C78.2266 24.7973 78.7814 24.581 79.2781 24.5845C79.6639 24.5845 79.9846 24.6787 80.2602 24.9333L80.0154 25.2194H80.0084V25.2298Z" fill="#1A1A1A"/>
<path d="M12.2593 0.157227H8.40607L0 19.1153H3.82564L5.43172 15.54H8.4922L13.8067 12.2123L15.592 16.3632L16.8087 19.1153H20.6619L12.2593 0.157227ZM6.85166 12.2088L10.3292 4.13721L13.8102 12.2088H6.85166Z" fill="#1A1A1A"/>
</g>
</g>
</g>
<defs>
<clipPath id="clip0_7304_4804">
<rect width="88" height="29" fill="white"/>
</clipPath>
</defs>
</svg>
