<svg width="179" height="17" viewBox="0 0 179 17" fill="none" xmlns="http://www.w3.org/2000/svg">
<path fill-rule="evenodd" clip-rule="evenodd" d="M60.2168 0C67.0281 0.00014 68.2065 4.28508 68.4863 5.3086C68.4937 5.33805 68.5014 5.36757 68.5088 5.38965H65.4453C65.2759 4.8522 64.0604 2.62891 60.4004 2.62891C56.0559 2.62898 54.2365 5.07289 54.2363 8.30469C54.2363 11.9123 56.8514 13.8125 60.2168 13.8125C63.8029 13.8124 65.3709 11.6767 65.6729 10.4619L68.7363 10.5215L68.7441 10.5283C68.4422 12.2806 67.1899 16.5069 59.9805 16.5069C55.0246 16.5067 51.1143 13.7455 51.1143 7.98829C51.1144 3.40904 53.9501 0 60.2168 0ZM81.9336 0.04493C88.625 0.04504 91.1284 3.84479 91.2783 7.99122L91.2861 8.38575C91.2861 11.6546 89.3858 16.5067 81.9336 16.5069C74.4811 16.5069 72.5957 11.6473 72.5957 8.38575C72.5959 4.09363 75.0263 0.04493 81.9336 0.04493ZM102.56 0.03028C109.306 0.03038 110.484 3.15896 110.867 4.24122L108.016 5.20606C107.523 3.7925 106.249 2.59183 102.509 2.5918C100.439 2.5918 98.3477 3.1004 98.3477 4.55079C98.3478 5.22064 98.7391 5.93463 101.868 6.31739L105.579 6.88379C109.099 7.42125 111.176 8.77683 111.176 11.4199C111.175 15.1301 107.634 16.5068 103.444 16.5069C96.7142 16.5069 95.071 13.1872 94.71 11.9942L97.6631 11.0518C98.2228 12.2003 99.3942 13.8858 103.54 13.8858C106.036 13.8857 108.112 13.0612 108.112 11.6992C108.112 10.6832 106.949 10.0136 104.703 9.74118L100.918 9.21778C97.295 8.72451 95.2404 7.1494 95.2402 4.75684C95.2329 0.03019 101.345 0.03028 102.56 0.03028ZM177.151 12.7744C177.435 12.7744 177.718 12.8476 177.972 12.9893L178.072 13.0615C178.352 13.2456 178.565 13.5034 178.69 13.8125C178.815 14.1142 178.852 14.4526 178.786 14.7764C178.727 15.1075 178.565 15.4022 178.33 15.6377C178.102 15.8733 177.799 16.0285 177.475 16.0948C177.152 16.161 176.813 16.1241 176.504 15.999C176.194 15.8739 175.936 15.6532 175.752 15.3809C175.568 15.1086 175.473 14.7843 175.472 14.4531C175.472 14.0041 175.649 13.5842 175.966 13.2676C176.282 12.951 176.709 12.7745 177.151 12.7744ZM124.675 0.43457C127.333 0.43457 131.685 0.43485 131.685 5.24219C131.685 10.0498 127.348 10.043 124.689 10.043H118.997V16.124H115.933V0.43457H124.675ZM19.5 0.43457C24.4707 0.43457 28.4325 2.50354 28.4326 8.17969C28.4326 13.5248 24.8098 16.1162 19.6328 16.1162H0.00781V13.4883H0L18.0938 13.4737C23.3148 13.4736 25.3398 12.0379 25.3398 8.20215C25.3398 4.36637 23.2339 3.04885 18.0938 3.04883H14.9932V10.8448H11.9297V0.43457H19.5ZM47.373 0.42774V3.06348H36.3564V6.71485H45.8418V9.34278H36.3564V13.4883H47.6309V16.1162H33.293V0.42774H47.373ZM144.006 0.42774L151.627 16.1162H148.394L146.745 12.5088H137.694L136.03 16.1162H132.775L140.508 0.42774H144.006ZM169.544 11.7656V0.42774H172.49V16.1162H169.677L158.756 4.37403V16.1162H155.81V0.42774H159.057L169.544 11.7656ZM177.438 13.1719C177.181 13.1204 176.916 13.1496 176.68 13.2451C176.445 13.3408 176.238 13.5102 176.091 13.7237C175.951 13.9372 175.87 14.1955 175.87 14.4531C175.87 14.7917 176.003 15.1224 176.246 15.3653C176.482 15.6082 176.812 15.7485 177.151 15.7559C177.345 15.7559 177.538 15.7145 177.713 15.6348L177.895 15.542C178.109 15.4022 178.278 15.1963 178.381 14.961C178.484 14.718 178.513 14.4599 178.462 14.2022C178.41 13.952 178.292 13.7162 178.108 13.5323C177.924 13.3484 177.696 13.2234 177.438 13.1719ZM177.195 13.5694C177.637 13.5694 177.881 13.7242 177.881 14.0996C177.888 14.1584 177.88 14.2245 177.858 14.2832C177.836 14.3421 177.807 14.4012 177.762 14.4453C177.718 14.4894 177.667 14.5336 177.608 14.5557C177.549 14.5778 177.483 14.5928 177.424 14.5928L177.902 15.3877H177.527L177.085 14.5996H176.849V15.3877H176.496V13.5694H177.195ZM176.849 13.8194V14.3428H177.159C177.38 14.3428 177.548 14.3422 177.549 14.0703C177.549 13.82 177.38 13.8194 177.218 13.8194H176.849ZM81.9336 2.67286C78.3473 2.67286 75.6514 4.43991 75.6514 8.2168C75.6514 12.6637 79.0027 13.8936 81.9336 13.8936C84.8644 13.8935 88.2148 12.6856 88.2148 8.2168C88.2148 4.43265 85.5198 2.67295 81.9336 2.67286ZM138.975 9.88768H145.545L142.26 2.89356L138.975 9.88768ZM119.049 7.39942H125.396C127.134 7.39941 128.68 7.25233 128.68 5.22071C128.68 3.18873 127.142 3.06349 125.396 3.06348H119.049V7.39942Z" fill="#1B3930"/>
</svg>
