<svg width="93" height="60" viewBox="0 0 93 60" fill="none" xmlns="http://www.w3.org/2000/svg">
<g clip-path="url(#clip0_5735_3539)">
<path d="M0 29.4994L17.1795 47L21.1423 42.9605V37.5784H13.212V32.1928H21.1423V26.8072H13.212V21.4239H21.1423V16.0371L17.1795 12L0 29.4994Z" fill="#EC008C"/>
<path d="M21.1412 42.9605V37.5748H13.2109V32.1928H21.1412V26.8072H13.2109V21.4239H21.1412V16.0371L34.3532 29.4994L21.1412 42.9605Z" fill="#BAD532"/>
<path d="M68.0195 34.8977L71.6365 29.5096L68.0195 24.124H70.8204L73.0363 27.4218L75.2534 24.124H78.0555L74.4386 29.5096L78.0555 34.8977H75.2522L73.0363 31.5975L70.8204 34.8977H68.0195Z" fill="#696A6D"/>
<path d="M57.9992 35.0149V24.123H55.5125V30.0677L50.1404 24.123H48.0664V34.8979H50.5402V28.2211L56.6896 35.0149H57.9992Z" fill="#696A6D"/>
<path d="M66.8887 34.8977V32.7525H62.6082V30.5906H66.6389V28.3965H62.6082V26.2692H66.8887V24.124H60.207V34.8977H66.8887Z" fill="#696A6D"/>
<path d="M82.1051 24.1211H79.5352V34.8971H82.1051V24.1211Z" fill="#696A6D"/>
<path d="M91.0002 31.6538C91.0002 29.7463 89.7926 28.682 87.7667 28.1075C86.9565 27.871 86.5086 27.5844 86.5086 27.0421C86.5086 26.4998 86.9213 26.1117 87.8159 26.1117C88.5463 26.1117 89.3916 26.4174 89.8231 26.6718L90.2885 24.5601C89.8571 24.3069 88.8441 23.9521 87.6365 23.9521C85.3468 23.9521 84.0372 25.389 84.0372 27.1771C84.0372 28.8146 84.9986 29.9804 87.0714 30.5561C88.0492 30.826 88.4326 31.182 88.4326 31.8066C88.4326 32.4636 87.8511 32.8864 86.9401 32.8864C85.879 32.8864 84.7512 32.4648 83.8906 31.8556L84.1368 34.3054C84.7664 34.6935 85.9119 35.0507 87.1066 35.0507C89.6754 35.0507 91.0014 33.732 91.0014 31.6538" fill="#696A6D"/>
<path d="M46.3246 34.8977V32.7525H42.0417V30.5906H46.0737V28.3965H42.0417V26.2692H46.3246V24.124H39.6406V34.8977H46.3246Z" fill="#696A6D"/>
<path d="M0 29.4994L17.1795 47L21.1423 42.9605V37.5784H13.212V32.1928H21.1423V26.8072H13.212V21.4239H21.1423V16.0371L17.1795 12L0 29.4994Z" fill="#EC008C"/>
<path d="M21.1412 42.9605V37.5748H13.2109V32.1928H21.1412V26.8072H13.2109V21.4239H21.1412V16.0371L34.3532 29.4994L21.1412 42.9605Z" fill="#BAD532"/>
<path d="M68.0195 34.8977L71.6365 29.5096L68.0195 24.124H70.8204L73.0363 27.4218L75.2534 24.124H78.0555L74.4386 29.5096L78.0555 34.8977H75.2522L73.0363 31.5975L70.8204 34.8977H68.0195Z" fill="#696A6D"/>
<path d="M57.9992 35.0149V24.123H55.5125V30.0677L50.1404 24.123H48.0664V34.8979H50.5402V28.2211L56.6896 35.0149H57.9992Z" fill="#696A6D"/>
<path d="M66.8887 34.8977V32.7525H62.6082V30.5906H66.6389V28.3965H62.6082V26.2692H66.8887V24.124H60.207V34.8977H66.8887Z" fill="#696A6D"/>
<path d="M82.1051 24.1211H79.5352V34.8971H82.1051V24.1211Z" fill="#696A6D"/>
<path d="M91.0002 31.6538C91.0002 29.7463 89.7926 28.682 87.7667 28.1075C86.9565 27.871 86.5086 27.5844 86.5086 27.0421C86.5086 26.4998 86.9213 26.1117 87.8159 26.1117C88.5463 26.1117 89.3916 26.4174 89.8231 26.6718L90.2885 24.5601C89.8571 24.3069 88.8441 23.9521 87.6365 23.9521C85.3468 23.9521 84.0372 25.389 84.0372 27.1771C84.0372 28.8146 84.9986 29.9804 87.0714 30.5561C88.0492 30.826 88.4326 31.182 88.4326 31.8066C88.4326 32.4636 87.8511 32.8864 86.9401 32.8864C85.879 32.8864 84.7512 32.4648 83.8906 31.8556L84.1368 34.3054C84.7664 34.6935 85.9119 35.0507 87.1066 35.0507C89.6754 35.0507 91.0014 33.732 91.0014 31.6538" fill="#696A6D"/>
<path d="M46.3246 34.8977V32.7525H42.0417V30.5906H46.0737V28.3965H42.0417V26.2692H46.3246V24.124H39.6406V34.8977H46.3246Z" fill="#696A6D"/>
</g>
<defs>
<clipPath id="clip0_5735_3539">
<rect width="91" height="35" fill="white" transform="translate(0 12)"/>
</clipPath>
</defs>
</svg>
