<svg width="186" height="120" viewBox="0 0 186 120" fill="none" xmlns="http://www.w3.org/2000/svg">
<g clip-path="url(#clip0_5740_3582)">
<path d="M0.5 59.4988L34.859 94.5L42.7846 86.421V75.6569H26.9241V64.8856H42.7846V54.1144H26.9241V43.3479H42.7846V32.5743L34.859 24.5L0.5 59.4988Z" fill="#EC008C"/>
<path d="M42.7824 86.4209V75.6497H26.9219V64.8856H42.7824V54.1143H26.9219V43.3479H42.7824V32.5742L69.2065 59.4988L42.7824 86.4209Z" fill="#BAD532"/>
<path d="M136.539 70.2953L143.773 59.5193L136.539 48.748H142.141L146.573 55.3436L151.007 48.748H156.611L149.377 59.5193L156.611 70.2953H151.004L146.573 63.695L142.141 70.2953H136.539Z" fill="#696A6D"/>
<path d="M116.498 70.5299V48.7461H111.525V60.6353L100.781 48.7461H96.6328V70.2958H101.58V56.9422L113.879 70.5299H116.498Z" fill="#696A6D"/>
<path d="M134.277 70.2953V66.005H125.716V61.6812H133.778V57.2929H125.716V53.0384H134.277V48.748H120.914V70.2953H134.277Z" fill="#696A6D"/>
<path d="M164.71 48.7422H159.57V70.2942H164.71V48.7422Z" fill="#696A6D"/>
<path d="M182.5 63.8075C182.5 59.9925 180.085 57.8641 176.033 56.7151C174.413 56.2421 173.517 55.6687 173.517 54.5842C173.517 53.4997 174.343 52.7233 176.132 52.7233C177.593 52.7233 179.283 53.3348 180.146 53.8437L181.077 49.6202C180.214 49.1138 178.188 48.4043 175.773 48.4043C171.194 48.4043 168.574 51.2781 168.574 54.8541C168.574 58.1292 170.497 60.4607 174.643 61.6122C176.598 62.152 177.365 62.8639 177.365 64.1133C177.365 65.4271 176.202 66.2728 174.38 66.2728C172.258 66.2728 170.002 65.4295 168.281 64.2112L168.774 69.1107C170.033 69.8871 172.324 70.6013 174.713 70.6013C179.851 70.6013 182.503 67.9641 182.503 63.8075" fill="#696A6D"/>
<path d="M93.1492 70.2953V66.005H84.5835V61.6812H92.6474V57.2929H84.5835V53.0384H93.1492V48.748H79.7812V70.2953H93.1492Z" fill="#696A6D"/>
<path d="M0.5 59.4988L34.859 94.5L42.7846 86.421V75.6569H26.9241V64.8856H42.7846V54.1144H26.9241V43.3479H42.7846V32.5743L34.859 24.5L0.5 59.4988Z" fill="#EC008C"/>
<path d="M42.7824 86.4209V75.6497H26.9219V64.8856H42.7824V54.1143H26.9219V43.3479H42.7824V32.5742L69.2065 59.4988L42.7824 86.4209Z" fill="#BAD532"/>
<path d="M136.539 70.2953L143.773 59.5193L136.539 48.748H142.141L146.573 55.3436L151.007 48.748H156.611L149.377 59.5193L156.611 70.2953H151.004L146.573 63.695L142.141 70.2953H136.539Z" fill="#696A6D"/>
<path d="M116.498 70.5299V48.7461H111.525V60.6353L100.781 48.7461H96.6328V70.2958H101.58V56.9422L113.879 70.5299H116.498Z" fill="#696A6D"/>
<path d="M134.277 70.2953V66.005H125.716V61.6812H133.778V57.2929H125.716V53.0384H134.277V48.748H120.914V70.2953H134.277Z" fill="#696A6D"/>
<path d="M164.71 48.7422H159.57V70.2942H164.71V48.7422Z" fill="#696A6D"/>
<path d="M182.5 63.8075C182.5 59.9925 180.085 57.8641 176.033 56.7151C174.413 56.2421 173.517 55.6687 173.517 54.5842C173.517 53.4997 174.343 52.7233 176.132 52.7233C177.593 52.7233 179.283 53.3348 180.146 53.8437L181.077 49.6202C180.214 49.1138 178.188 48.4043 175.773 48.4043C171.194 48.4043 168.574 51.2781 168.574 54.8541C168.574 58.1292 170.497 60.4607 174.643 61.6122C176.598 62.152 177.365 62.8639 177.365 64.1133C177.365 65.4271 176.202 66.2728 174.38 66.2728C172.258 66.2728 170.002 65.4295 168.281 64.2112L168.774 69.1107C170.033 69.8871 172.324 70.6013 174.713 70.6013C179.851 70.6013 182.503 67.9641 182.503 63.8075" fill="#696A6D"/>
<path d="M93.1492 70.2953V66.005H84.5835V61.6812H92.6474V57.2929H84.5835V53.0384H93.1492V48.748H79.7812V70.2953H93.1492Z" fill="#696A6D"/>
</g>
<defs>
<clipPath id="clip0_5740_3582">
<rect width="182" height="70" fill="white" transform="translate(0.5 24.5)"/>
</clipPath>
</defs>
</svg>
