<?xml version="1.0" encoding="utf-8"?>
<!-- Generator: Adobe Illustrator 14.0.0, SVG Export Plug-In . SVG Version: 6.00 Build 43363)  -->
<!DOCTYPE svg PUBLIC "-//W3C//DTD SVG 1.1//EN" "http://www.w3.org/Graphics/SVG/1.1/DTD/svg11.dtd">
<svg version="1.1" id="Henkel" xmlns="http://www.w3.org/2000/svg" xmlns:xlink="http://www.w3.org/1999/xlink" x="0px" y="0px"
	 width="76.266px" height="56.69px" viewBox="0 0 76.266 56.69" enable-background="new 0 0 76.266 56.69" xml:space="preserve">
<path fill="#FFFFFF" stroke="#FFFFFF" d="M38.131,8.01c-20.514,0-37.203,9.126-37.203,20.344c0,11.208,16.689,20.327,37.205,20.327
	s37.206-9.119,37.206-20.327C75.339,17.136,58.647,8.01,38.131,8.01z"/>
<path fill="#E1000F" d="M38.133,7.084c21.052,0,38.133,9.522,38.133,21.26S59.187,49.604,38.135,49.604
	c-21.049,0-38.136-9.523-38.136-21.261S17.084,7.084,38.133,7.084z M38.133,9C18.148,9,1.93,17.679,1.93,28.344
	c0,10.666,16.22,19.327,36.205,19.327c19.981,0,36.206-8.661,36.206-19.327C74.341,17.679,58.114,9,38.133,9z M31.434,30.386h-7.503
	c0.082,1.848,1.12,2.707,2.672,2.707c1.157,0,1.947-0.652,2.148-1.307h2.461c-0.633,2.235-2.456,3.271-4.708,3.271
	c-3.199,0-5.183-2.196-5.183-5.339c0-3.043,2.101-5.359,5.183-5.359C29.96,24.358,31.629,27.264,31.434,30.386z M26.426,26.273
	c-1.556,0-2.358,1.04-2.483,2.37h4.875C28.628,27.224,28.033,26.273,26.426,26.273z M63.929,30.386h-7.502
	c0.081,1.848,1.12,2.707,2.672,2.707c1.157,0,1.946-0.652,2.147-1.307h2.461c-0.632,2.235-2.456,3.271-4.707,3.271
	c-3.2,0-5.183-2.196-5.183-5.339c0-3.043,2.101-5.359,5.183-5.359C62.456,24.358,64.125,27.264,63.929,30.386z M58.922,26.273
	c-1.555,0-2.358,1.04-2.483,2.37h4.874C61.124,27.224,60.528,26.273,58.922,26.273z M8.189,34.781h2.788v-6.045h6.016v6.045h2.786
	V20.736h-2.786v5.752h-6.016v-5.752H8.189V34.781z M32.974,34.781h2.616v-5.488c0-2.062,0.729-2.906,2.239-2.906
	c1.296,0,1.879,0.825,1.879,2.493v5.901h2.617v-6.242c0-2.513-0.746-4.181-3.712-4.181c-1.178,0-2.396,0.549-3.103,1.688h-0.058
	v-1.414h-2.479V34.781z M44.562,34.781h2.618v-5.495l3.866,5.495h3.257l-4.262-5.692l3.78-4.456h-3.128l-3.514,4.377v-8.273h-2.618
	V34.781z M65.467,34.781h2.616V20.735h-2.616V34.781z"/>
</svg>
