<svg xmlns="http://www.w3.org/2000/svg" viewBox="0 0 726.378 404.008" version="1.0" class="w-full h-full"><path d="M 2387.6643,463.3717 C 2397.2498,463.3717 2404.9711,471.15993 2404.9711,480.74545 C 2404.9711,490.331 2397.2498,498.11913 2387.6643,498.11913 C 2378.0121,498.11913 2370.2908,490.331 2370.2908,480.74545 C 2370.2908,471.15993 2378.0121,463.3717 2387.6643,463.3717 L 2387.6643,463.3717 M 2780.9357,522.54886 C 2753.577,549.77434 2668.3731,624.52797 2645.8075,687.4994 L 2617.916,680.31031 C 2627.0352,654.21639 2654.5272,613.67775 2685.1481,582.3917 C 2678.6238,584.85464 2671.834,585.78655 2666.3756,585.78655 C 2658.1215,585.78655 2651.6648,583.25708 2647.8042,578.59745 C 2645.0083,575.2025 2643.6104,570.80922 2643.6104,565.55045 C 2643.6104,564.4188 2643.6769,563.28724 2643.8768,561.95594 C 2616.9177,578.39781 2595.283,585.78655 2574.1154,585.78655 C 2557.607,585.78655 2543.6944,578.59745 2537.3045,565.94985 C 2510.6119,579.26311 2484.9832,585.78655 2463.5492,585.78655 C 2443.6464,585.78655 2427.5375,577.86527 2420.2149,563.48689 C 2393.1893,578.66406 2370.2243,585.78655 2351.9848,585.78655 C 2341.4011,585.78655 2333.0802,582.8577 2327.6883,577.33268 C 2323.7611,573.27216 2321.6971,567.81375 2321.4307,561.48995 C 2304.1237,572.87276 2278.829,585.78655 2252.8682,585.78655 C 2226.3747,585.78655 2208.5349,576.66703 2194.7556,567.6141 C 2172.7222,579.79562 2148.4923,585.78655 2122.9312,585.78655 C 2103.5602,585.78655 2072.2743,577.73216 2072.2743,549.97406 C 2072.2743,527.54129 2095.7058,512.3643 2126.9917,512.3643 C 2153.551,512.3643 2179.1797,523.54738 2195.2886,535.19639 C 2210.5324,523.08139 2226.5745,506.0405 2245.4791,482.01015 C 2241.2853,482.2764 2237.2248,482.40954 2233.231,482.40954 C 2197.0195,482.40954 2166.8649,471.69244 2150.3565,453.05389 C 2141.4361,442.93585 2137.2425,431.0871 2137.2425,418.37307 C 2137.2425,368.04916 2200.8136,329.04148 2256.3959,323.25028 C 2260.0567,331.57095 2263.3854,338.02788 2266.7798,345.61647 C 2211.797,352.00671 2166.0657,384.55754 2166.0657,416.30952 C 2166.0657,437.21127 2189.5636,458.17954 2239.3545,458.17954 C 2247.8752,458.17954 2256.4625,457.38075 2264.9166,456.18258 C 2308.916,395.47437 2376.2812,301.21688 2434.3273,301.21688 C 2451.4343,301.21688 2460.4204,311.6678 2460.4204,325.58002 C 2460.4204,354.33651 2435.7253,385.22319 2419.6821,401.33218 C 2394.3874,426.69381 2348.6561,464.50325 2284.8194,477.01764 C 2259.9902,511.56553 2239.6209,534.46423 2219.1853,551.03911 C 2231.5667,557.69569 2243.1495,561.75621 2256.9955,561.75621 C 2291.3427,561.75621 2324.6928,530.33701 2350.7201,503.64415 L 2351.6518,502.77877 L 2371.9543,518.6214 L 2371.0226,519.75305 C 2359.5062,532.93309 2348.856,546.91208 2348.856,554.70024 C 2348.856,560.62465 2353.9147,561.82282 2358.175,561.82282 C 2371.3558,561.82282 2391.6583,553.30232 2415.4883,538.59125 L 2415.4883,538.39159 C 2418.1511,479.48068 2498.6292,389.21718 2547.4895,389.21718 C 2561.2678,389.21718 2569.19,396.07341 2569.19,408.12189 C 2569.19,437.74378 2518.2001,501.1146 2444.0451,549.57469 L 2444.0451,549.6412 C 2447.8402,557.89544 2456.6928,561.88933 2471.6702,561.88933 C 2483.3865,561.88933 2506.285,556.69727 2533.5104,542.45201 C 2536.6392,511.89829 2553.9462,479.08128 2575.913,455.71658 C 2597.9466,432.28528 2622.6418,417.04168 2644.0101,417.04168 C 2657.1898,417.04168 2664.9776,424.29748 2664.9776,435.68023 C 2664.9776,461.44127 2635.0231,505.5745 2562.8656,551.70476 C 2566.0612,557.89544 2572.2512,561.82282 2581.9035,561.82282 C 2603.4049,561.82282 2641.2142,538.92412 2670.7027,510.70004 L 2691.8711,527.14189 C 2682.8174,538.12533 2673.6982,550.17373 2673.9646,557.09667 C 2674.0313,559.35986 2675.5624,560.89091 2679.1566,560.89091 C 2700.8571,560.89091 2735.0721,532.20091 2760.6998,506.83927 L 2780.9357,522.54886 L 2780.9357,522.54886 M 2306.9861,445.59862 C 2338.805,435.34745 2369.0252,414.04631 2391.5915,391.74665 C 2412.3605,371.11114 2429.0677,346.61488 2429.0677,334.49989 C 2429.0677,331.70409 2427.0713,330.03992 2424.542,330.03992 C 2414.9563,330.03992 2396.6503,342.88717 2372.0209,367.51665 C 2352.8499,386.68761 2330.5507,412.91465 2306.9861,445.59862 L 2306.9861,445.59862 M 2170.9254,550.83936 C 2159.2093,542.65175 2141.104,535.59586 2124.8612,535.59586 C 2109.1519,535.59586 2099.1002,541.71985 2099.1002,549.57469 C 2099.1002,558.49456 2111.3483,562.35533 2124.9942,562.35533 C 2141.5029,562.35533 2156.5468,557.89544 2170.9254,550.83936 L 2170.9254,550.83936 M 2443.6464,521.35061 C 2488.0455,487.80135 2534.7085,438.94194 2539.7007,418.9056 C 2539.8338,418.23995 2540.0336,417.57419 2539.9671,416.97515 C 2539.9005,415.64387 2539.1687,414.44568 2537.5044,414.44568 C 2523.4587,414.44568 2458.3574,474.48817 2443.6464,521.35061 L 2443.6464,521.35061 L 2443.6464,521.35061 M 2561.4011,526.67599 C 2565.5282,523.74705 2569.9884,520.35218 2574.1154,517.09045 C 2606.0009,491.59567 2630.3641,463.63795 2635.223,448.12809 C 2635.3561,447.66209 2635.7558,446.19767 2635.7558,445.06611 C 2635.7558,443.46837 2635.0231,442.33681 2633.5586,442.33681 C 2618.9142,442.33681 2571.9191,489.13273 2560.536,527.00876 L 2560.536,527.14189 L 2561.4011,526.67599 L 2561.4011,526.67599 z" style="fill:#9B9C9D;fill-opacity:1;fill-rule:nonzero;stroke:none" transform="translate(-2063.416,-292.3542)"/></svg>