<svg width="130" height="26" viewBox="0 0 130 26" fill="none" xmlns="http://www.w3.org/2000/svg">
<g clip-path="url(#clip0_7304_4734)">
<path d="M32.6994 7.63867H39.5605L42.0883 17.1421H42.2508C42.3772 16.3532 42.4855 15.5104 42.7202 14.7394L44.7966 7.63867H51.5855L54.6008 25.7132H48.155L47.2522 15.8152H47.1258C46.9994 16.4069 46.8911 17.0345 46.6924 17.6083L44.0383 25.7132H40.1383L37.7549 18.0566C37.5563 17.2856 37.3938 16.5683 37.3397 15.7973H37.123C37.0688 16.5145 37.0327 17.2676 36.9605 17.9849L36.1841 25.7132H29.7383L32.6994 7.63867Z" fill="#484848"/>
<path d="M60.0714 25.7133H53.0117L59.4034 7.63881H66.7881L73.3423 25.7133H66.2645L65.6506 23.454H60.6131L60.0714 25.7133ZM64.477 19.1685L63.7006 15.9767C63.502 15.2057 63.3756 14.4167 63.2673 13.6457H63.0326L61.8228 19.1685H64.477ZM91.452 15.0623C91.3978 18.0209 91.3978 20.4774 89.2312 22.7905C87.2812 24.8705 84.2839 26.0002 81.4312 26.0002C75.8339 26.0002 71.302 22.5933 71.302 16.7836C71.302 10.8843 75.7076 7.33398 81.4853 7.33398C84.6812 7.33398 89.0506 8.89398 90.4951 11.9781L84.2659 14.2374C83.7603 13.3229 82.8034 12.8388 81.7381 12.8388C79.3548 12.8388 78.0367 14.8471 78.0367 17.0347C78.0367 19.025 79.3006 20.8898 81.4673 20.8898C82.5145 20.8898 83.8506 20.4057 84.1756 19.3119H81.1603V15.0623H91.452ZM91.9576 7.63881H98.3673L104.362 17.6623H104.56C104.289 16.1561 104.001 14.5961 104.001 13.054V7.63881H110.374V25.7133H104.001L98.1326 16.2098H97.9339C98.1506 17.465 98.3492 18.6305 98.3492 19.8319V25.7133H91.9756V7.63881H91.9576Z" fill="#484848"/>
<path d="M116.765 25.7131H109.706L116.079 7.63862H123.464L130 25.7131H122.94L122.326 23.4538H117.289L116.765 25.7131ZM121.171 19.1683L120.394 15.9766C120.196 15.2055 120.088 14.4166 119.961 13.6455H119.708L118.499 19.1683H121.171ZM14.8597 0C13 0 11.5014 1.48828 11.5014 3.31724C11.5014 5.14621 13 6.63448 14.8597 6.63448C16.7194 6.63448 18.2181 5.14621 18.2181 3.31724C18.2181 1.48828 16.7194 0 14.8597 0ZM19.5542 25.731H26.4694L19.8069 7.67448H14.7333L13.8125 10.1848M0 25.731H10.3097L5.14583 11.7807M11.4833 25.731H18.3986L11.7361 7.67448H6.68056L5.74167 10.1848" fill="#484848"/>
</g>
<defs>
<clipPath id="clip0_7304_4734">
<rect width="130" height="26" fill="white"/>
</clipPath>
</defs>
</svg>
