<svg width="151" height="42" viewBox="0 0 151 42" fill="none" xmlns="http://www.w3.org/2000/svg">
<g clip-path="url(#clip0_7304_4839)">
<path d="M147.252 30.7532C146.825 30.4048 146.196 30.4852 145.844 30.9407C145.441 31.6375 144.586 32.9774 144.359 33.3257C143.479 34.6121 142.523 35.818 141.442 36.9435C140.31 38.2834 138.776 39.1409 137.115 39.4089C135.707 39.4089 134.374 38.7658 133.468 37.6402C132.185 36.1931 131.103 34.5853 130.223 32.8702C129.846 32.0663 129.242 31.4231 128.488 31.0212C127.708 30.6728 126.803 30.7532 126.073 31.2087C125.344 31.6643 124.74 32.2539 124.237 32.9774C123.683 33.7277 123.181 34.5317 122.752 35.3624C122.476 33.8617 121.545 32.5754 120.262 31.9055C118.427 31.2087 116.766 32.6023 115.282 33.4866C114.025 34.2905 112.54 35.1748 110.377 33.9153C111.911 32.5486 113.094 30.78 113.773 28.7701C114.276 27.0015 114.352 24.7772 112.867 23.5445C111.359 22.3118 109.371 22.8478 107.962 23.9733C106.63 25.0988 105.799 26.7603 105.623 28.5825C105.523 30.512 106.076 32.3879 107.208 33.8885C106.227 34.6388 105.12 35.2552 103.963 35.6572C102.278 36.1395 100.492 36.1395 98.8065 35.6572C97.4232 35.2016 96.1909 34.3441 95.235 33.1917C96.8448 32.5218 98.2032 31.3427 99.1335 29.8152C100.165 28.2878 100.265 26.2511 99.3856 24.5897C98.4546 23.1694 96.6938 22.6602 95.235 23.4374C93.6751 24.2949 92.3674 25.608 91.487 27.2426C90.4556 28.8237 89.5253 30.4316 88.6698 32.1199C88.5943 31.1552 88.2674 27.9662 88.1669 27.6982C89.2988 25.6884 90.3046 23.5713 91.16 21.4275C92.7199 17.5954 93.8767 13.5757 94.5555 9.47563C94.8575 7.65337 94.8575 5.80435 94.5555 3.98209C94.3297 2.15983 93.0212 0.68595 91.311 0.364377C89.6763 0.176791 88.0914 1.03433 87.3115 2.5886C86.5066 4.14288 86.0037 5.85794 85.8277 7.62661C85.3242 11.6731 85.2237 15.7731 85.5008 19.8464C85.5763 21.883 85.8277 24.9917 86.0037 27.1891C85.7017 27.6982 85.3747 28.1538 84.9972 28.6093C84.5449 29.3061 83.9409 29.8689 83.2621 30.2976C82.6082 30.8336 81.6772 30.8336 81.0233 30.2976C80.1935 29.6812 79.363 27.6446 79.036 25.876C79.0111 25.2596 78.5581 24.8041 77.9797 24.8041H77.9547C77.4013 24.8041 76.9483 25.2864 76.9483 25.876V25.9564C76.7723 27.2426 76.4204 28.5022 75.867 29.6812C75.0365 31.1016 73.8797 32.3343 72.3704 32.2539C70.6352 32.1734 69.3018 30.4852 68.4719 28.5289C69.3773 26.9479 70.2071 25.34 70.9621 23.6517C72.5463 20.034 73.7038 16.2287 74.3577 12.3163C74.785 8.59133 74.2822 6.2867 73.3512 4.62524C72.7479 3.52653 71.7165 2.74939 70.5341 2.5886C69.3773 2.50821 68.2205 2.96377 67.365 3.8213C66.2332 5.00041 65.403 6.4475 64.9503 8.08218C63.9945 11.6195 63.7177 15.3176 64.1202 18.9621C64.2711 20.9452 64.573 22.9014 65.0257 24.8041C65.3024 26.0368 65.6548 27.2695 66.1071 28.4218C65.3527 29.6276 64.4723 30.7532 63.5417 31.7983C62.787 32.6023 60.8 34.4513 58.6368 34.3709C57.9576 34.3441 57.2785 34.2101 56.6497 33.9421C55.1405 33.2454 53.8576 32.0663 53.0024 30.5656C53.0779 30.378 53.757 29.4133 54.1595 28.7165C54.5871 28.0198 54.914 27.2962 55.2411 26.5995C55.9454 24.9917 56.4736 23.3034 56.8257 21.5615C57.2282 19.6052 57.4294 17.6222 57.4042 15.6392C57.4042 13.9509 57.0773 12.2894 56.3981 10.762C56.0208 9.95802 55.4423 9.28805 54.738 8.80573C53.9834 8.32334 53.0779 8.21617 52.2478 8.53774C50.7386 9.20764 49.6067 10.5743 49.1791 12.2626C48.6006 13.8973 48.2736 15.6392 48.1729 17.4078C47.9466 21.1863 48.4748 24.938 49.7577 28.4753C49.9337 28.8237 50.3362 29.8956 50.5877 30.4316C49.9085 31.2891 49.0785 32.0127 48.1729 32.5486C46.8147 33.5401 45.0288 33.5937 43.5951 32.7362C42.1864 31.7715 41.2558 29.4669 41.1049 27.2426C41.13 26.6531 40.7024 26.1171 40.1491 26.0904H40.0987C39.495 26.0904 39.0172 26.6263 39.0172 27.2695V27.3231C39.0674 28.9577 38.6147 30.5656 37.7595 31.9323C36.8539 33.299 35.3448 34.1297 33.7601 34.1565C32.2006 34.1029 30.792 33.1917 30.0122 31.7715C29.0815 30.244 28.3772 28.5825 27.9245 26.8139C27.346 24.8577 27.019 22.821 26.5914 20.8916C26.3398 19.632 26.038 18.3993 25.6858 17.1666C25.4343 16.2287 24.9061 15.398 24.2018 14.7817C23.5729 14.2189 22.768 13.9777 21.9631 14.0849C21.284 14.1653 20.63 14.4601 20.1269 14.9692C19.2466 15.9339 18.6681 17.1666 18.4668 18.5065C18.165 20.2484 18.0392 22.0439 18.1398 23.8125C18.2153 25.5008 18.3159 27.1891 18.4668 28.8505C17.4859 26.0368 16.6558 23.1694 15.9767 20.2752C15.4736 18.3189 15.0711 16.4699 14.392 14.6208C13.9643 12.9058 13.0589 11.3783 11.8263 10.1992C11.1472 9.63645 10.2417 9.44887 9.41163 9.66321C8.68217 9.90444 8.02814 10.4136 7.57541 11.0836C6.77051 12.477 6.24228 14.0045 5.99075 15.6124C5.71406 17.4078 5.58829 19.2033 5.58829 20.9987C5.58829 24.8577 5.91529 28.7165 6.59443 32.495C4.98461 27.2962 3.72694 21.9634 2.84657 16.5771C2.59504 14.7281 2.19259 11.1907 2.01651 8.96648C2.06682 8.35016 1.63921 7.78736 1.03553 7.73378H0.934913C0.356388 7.78736 -0.0460658 8.35016 0.00424092 8.93972V8.96648C0.0797011 11.2711 0.658229 16.0411 1.08583 18.6942C1.84044 23.1157 3.50056 30.4584 5.66375 35.2284C6.36804 36.9971 7.24839 38.6853 8.22937 40.2664C8.63188 40.8828 9.38642 42.035 10.468 41.4187C11.0717 40.9899 11.3233 40.186 11.0466 39.4625C10.8705 38.7658 10.0404 36.8095 9.78894 35.9251C8.8079 32.9506 8.20422 29.8689 7.95271 26.7335C7.77663 24.7772 7.7012 22.9282 7.7012 20.9719C7.7012 16.2823 8.4558 13.0934 9.28584 12.0214C9.46192 11.7267 9.71344 11.5123 10.0404 11.4051C10.619 11.3247 11.0466 11.6731 11.7005 12.9058C12.5306 14.8084 13.1846 16.7915 13.6122 18.8281L15.0963 24.6701C16.0521 28.5022 17.5362 32.1734 19.4981 35.55C19.7496 35.8984 20.1521 36.7827 21.0828 36.4343C21.4349 36.2735 21.6864 35.8715 21.6613 35.4696C21.5858 35.1212 21.5104 34.7461 21.4098 34.3977C20.8815 32.0663 20.5546 29.708 20.4036 27.3231C20.2527 25.206 20.1521 23.2497 20.1521 21.9367C20.1521 20.4628 20.3281 19.0157 20.6552 17.5954C20.8312 17.0595 21.2337 16.0144 21.9883 15.9071C22.6423 15.8268 22.9944 16.1751 23.3214 16.8719C23.9 18.3458 24.3275 19.9 24.5791 21.4811C24.9816 23.4374 25.3337 25.3668 25.9122 27.3231C26.365 29.0113 27.0441 30.6192 27.8994 32.093C28.7545 33.6741 30.0625 34.9068 31.6472 35.6304C33.2067 36.2467 34.9423 36.1664 36.4767 35.4428C38.0613 34.6924 39.319 33.3257 40.0484 31.6375C40.4509 32.5486 41.0545 33.3794 41.784 34.0225C43.1926 35.2016 45.0288 35.6036 46.7644 35.1748C48.6006 34.6657 50.2355 33.5937 51.4932 32.0663C53.0779 34.5317 55.6686 36.1128 58.4858 36.3271C62.1331 36.4075 65.0509 33.3257 67.1385 30.4048C67.8679 31.8787 68.9998 33.0846 70.3837 33.8617C71.8425 34.5584 73.5278 34.5049 74.961 33.6741C76.4454 32.7362 77.5772 31.3159 78.2062 29.6009C78.8351 31.3159 80.3189 32.495 82.0291 32.7094C83.765 32.7898 85.3498 31.4767 86.4311 30.1368C86.607 31.3695 86.6825 32.7094 86.8335 33.9421C86.909 34.2905 86.909 34.7461 87.0095 35.0944C87.06 35.4696 87.1355 35.818 87.2616 36.1664C87.6384 36.6487 88.2923 36.7291 88.7453 36.3271C88.8458 36.2199 88.9469 36.1128 89.0224 35.9788C89.4248 35.014 89.9277 34.1297 90.3551 33.2454C91.0845 31.7983 91.8894 30.4316 92.7698 29.0917C93.5747 27.6714 94.6566 26.4119 95.9395 25.474C96.4673 25.0988 97.1718 25.1524 97.5992 25.6616C98.0771 26.3315 98.1277 27.2158 97.7751 27.9662C97.0457 29.5741 95.7379 30.8068 94.1281 31.3427C93.8012 31.5035 93.4742 31.6107 93.1224 31.6911C92.7947 31.8787 92.5689 32.2539 92.5433 32.6558C92.6188 33.1114 92.8204 33.5401 93.1224 33.8885C93.9771 35.148 95.084 36.1664 96.3669 36.8899C99.4355 38.5782 103.033 38.6853 106.177 37.1578C107.006 36.7291 108.264 35.818 108.667 35.5768C110.076 36.6755 111.861 37.0775 113.572 36.7291C114.402 36.5415 115.181 36.1931 115.911 35.7644C116.666 35.2016 117.471 34.6924 118.326 34.2637C118.628 34.1297 118.93 34.0225 119.232 33.9957C119.533 33.9957 119.81 34.1565 119.986 34.4244C120.439 35.1212 120.766 35.8984 120.891 36.7291C121.042 37.4258 121.143 38.1494 121.218 38.8461C121.244 39.3821 121.646 39.8109 122.124 39.8109C122.627 39.8645 123.079 39.5161 123.205 39.0069C123.432 38.3905 123.708 37.801 124.035 37.2382C124.463 36.3539 124.916 35.4964 125.444 34.6657C125.872 34.0493 126.702 32.897 127.432 32.9774C127.934 33.0578 128.337 33.8617 128.588 34.3977C128.991 35.2016 129.418 35.952 129.922 36.7023C130.878 38.3638 132.185 39.7305 133.745 40.7756C134.725 41.3651 135.858 41.6867 136.99 41.6599C138.825 41.4455 140.536 40.588 141.895 39.2749C143.001 38.2566 144.007 37.1311 144.888 35.8984C145.642 34.9337 146.875 32.9774 147.302 32.2806C147.755 31.9859 147.831 31.2623 147.252 30.7532ZM50.1852 20.302C50.0092 17.9974 50.2607 14.4601 51.1914 12.611C51.6945 11.4587 52.5245 10.3868 53.2791 10.494C54.1846 10.5743 54.7632 11.7267 55.1153 13.0666C55.4674 14.8888 55.5178 16.7915 55.2913 18.6405C54.9392 22.1243 53.8325 25.4472 52.0466 28.3682C50.8896 25.8491 50.2607 23.089 50.1852 20.302ZM66.2332 13.6561C66.3087 12.0214 66.5601 10.3868 66.9875 8.7789C67.365 7.38545 68.0695 6.15272 69.0753 5.1612C69.4278 4.86642 69.8552 4.67884 70.3332 4.62524C70.7356 4.62524 71.1131 4.81282 71.339 5.1612C72.3454 6.23311 72.4964 7.81419 72.5969 9.66321C72.5719 11.4855 72.3205 13.3077 71.8425 15.0496C70.8361 18.8013 69.4528 22.419 67.692 25.8491C66.5352 21.9099 66.0572 17.783 66.2332 13.6561ZM88.0159 23.7589C87.6384 19.632 87.5629 15.5052 87.7645 11.3783C87.8144 8.72532 88.3179 6.12592 89.2482 3.66051C89.6008 2.74939 90.5061 2.24023 91.4115 2.42781C92.5689 2.69579 92.7449 4.00889 92.8959 4.81282C92.9714 7.38545 92.6943 9.95802 92.0654 12.4234C91.0845 16.3359 89.7262 20.1412 88.0159 23.7589ZM108.868 32.6023C108.113 31.6107 107.711 30.3512 107.786 29.0649C107.862 27.8322 108.415 26.6799 109.271 25.876C109.447 25.6884 109.673 25.608 109.849 25.4472C110.428 25.0988 111.433 24.9112 111.836 25.6348C112.238 26.4119 112.264 27.3231 111.911 28.1002C111.283 29.842 110.226 31.3963 108.868 32.6023ZM39.822 23.5713C40.6521 23.5713 41.3061 22.8478 41.3061 21.9903C41.3061 21.1327 40.6269 20.4092 39.822 20.4092C39.0172 20.4092 38.338 21.1327 38.338 21.9903C38.338 22.8478 38.992 23.5445 39.822 23.5713ZM77.7788 22.2583C78.6086 22.2583 79.2625 21.5347 79.2625 20.6772C79.2625 19.8196 78.5837 19.0961 77.7788 19.0961C76.9739 19.0961 76.2944 19.8196 76.2944 20.6772C76.3449 21.5079 76.9739 22.2047 77.7788 22.2583ZM149.088 36.2199C148.057 36.2467 147.252 37.1578 147.252 38.2298V38.2566C147.227 39.3553 148.057 40.2664 149.088 40.2932C150.12 40.32 150.975 39.4357 151 38.3369V38.2566C150.949 37.1578 150.12 36.2735 149.088 36.2199ZM149.088 39.8645C148.208 39.8645 147.503 39.1141 147.503 38.1762C147.503 37.2382 148.208 36.4879 149.088 36.4879C149.969 36.4879 150.673 37.2382 150.673 38.1762C150.673 39.1141 149.969 39.8645 149.088 39.8645ZM149.843 37.7474C149.843 37.5866 149.793 37.4258 149.667 37.3187C149.491 37.1847 149.29 37.1311 149.088 37.1311H148.258V39.1677H148.585V38.4709H148.988L149.491 39.1677H149.893L149.39 38.3638C149.692 38.2834 149.868 38.0154 149.843 37.7474ZM148.661 38.0958V37.3991H149.164C149.415 37.3991 149.591 37.4794 149.591 37.7474C149.566 37.9618 149.39 38.1226 149.164 38.0958H148.661Z" fill="#484848"/>
</g>
<defs>
<clipPath id="clip0_7304_4839">
<rect width="151" height="42" fill="white"/>
</clipPath>
</defs>
</svg>
