<svg width="130" height="30" viewBox="0 0 130 30" fill="none" xmlns="http://www.w3.org/2000/svg">
<g clip-path="url(#clip0_7304_4841)">
<path fill-rule="evenodd" clip-rule="evenodd" d="M119.52 28.4251H117.616C117.162 28.4251 116.945 28.6901 116.945 29.2226C116.945 29.7338 117.184 30.0001 117.616 30.0001H124.973C125.427 30.0001 125.665 29.7338 125.665 29.2226C125.665 28.7126 125.427 28.4238 124.973 28.4238L119.52 28.4251Z" fill="#2AACE2"/>
<path fill-rule="evenodd" clip-rule="evenodd" d="M109.176 28.4251H107.358C106.925 28.4251 106.688 28.6901 106.688 29.2226C106.688 29.7338 106.926 30.0001 107.358 30.0001H114.368C114.822 30.0001 115.039 29.7338 115.039 29.2226C115.039 28.7126 114.822 28.4238 114.368 28.4238L109.176 28.4251Z" fill="#3FB4E5"/>
<path fill-rule="evenodd" clip-rule="evenodd" d="M98.5301 28.4251H96.7125C96.2575 28.4251 96.0625 28.6901 96.0625 29.2226C96.0625 29.7338 96.2575 30.0001 96.7125 30.0001H103.745C104.198 30.0001 104.415 29.7338 104.415 29.2226C104.415 28.7126 104.198 28.4238 103.745 28.4238L98.5301 28.4251Z" fill="#4CB9E7"/>
<path fill-rule="evenodd" clip-rule="evenodd" d="M87.5388 28.4251H85.7212C85.2674 28.4251 85.0508 28.6901 85.0508 29.2226C85.0508 29.7338 85.2675 30.0001 85.7225 30.0001H92.7328C93.1866 30.0001 93.4033 29.7338 93.4033 29.2226C93.4033 28.7126 93.1866 28.4238 92.7328 28.4238L87.5388 28.4251Z" fill="#58BEE9"/>
<path fill-rule="evenodd" clip-rule="evenodd" d="M76.9177 28.4251H75.1001C74.6464 28.4251 74.4297 28.6901 74.4297 29.2226C74.4297 29.7338 74.6464 30.0001 75.1001 30.0001H82.1105C82.5643 30.0001 82.781 29.7338 82.781 29.2226C82.781 28.7126 82.5643 28.4238 82.1105 28.4238L76.9177 28.4251Z" fill="#65C3EB"/>
<path fill-rule="evenodd" clip-rule="evenodd" d="M66.4011 28.4251H64.498C64.043 28.4251 63.8047 28.6901 63.8047 29.2226C63.8047 29.7338 64.043 30.0001 64.498 30.0001H71.8322C72.286 30.0001 72.5243 29.7338 72.5243 29.2226C72.5243 28.7126 72.286 28.4238 71.8322 28.4238L66.4011 28.4251Z" fill="#72C8EC"/>
<path fill-rule="evenodd" clip-rule="evenodd" d="M55.647 28.4251H53.8294C53.3756 28.4251 53.1602 28.6901 53.1602 29.2226C53.1602 29.7338 53.3768 30.0001 53.8306 30.0001H60.841C61.2948 30.0001 61.5115 29.7338 61.5115 29.2226C61.5115 28.7126 61.3164 28.4238 60.841 28.4238L55.647 28.4251Z" fill="#7FCDEE"/>
<path fill-rule="evenodd" clip-rule="evenodd" d="M45.0232 28.4251H43.2056C42.7518 28.4251 42.5352 28.6901 42.5352 29.2226C42.5352 29.7338 42.7518 30.0001 43.2056 30.0001H50.2377C50.671 30.0001 50.8877 29.7338 50.8877 29.2226C50.8877 28.7126 50.671 28.4238 50.2377 28.4238L45.0232 28.4251Z" fill="#8CD2F0"/>
<path fill-rule="evenodd" clip-rule="evenodd" d="M34.4021 28.4251H32.5845C32.1295 28.4251 31.9141 28.6901 31.9141 29.2226C31.9141 29.7338 32.1307 30.0001 32.5845 30.0001H39.5949C40.0487 30.0001 40.2654 29.7338 40.2654 29.2226C40.2654 28.7126 40.0487 28.4238 39.5949 28.4238L34.4021 28.4251Z" fill="#98D7F1"/>
<path fill-rule="evenodd" clip-rule="evenodd" d="M23.7555 28.4251H21.9595C21.5057 28.4251 21.2891 28.6901 21.2891 29.2226C21.2891 29.7338 21.5057 30.0001 21.9595 30.0001H28.9699C29.4249 30.0001 29.6404 29.7338 29.6404 29.2226C29.6404 28.7126 29.4237 28.4238 28.9699 28.4238L23.7555 28.4251Z" fill="#A5DCF3"/>
<path fill-rule="evenodd" clip-rule="evenodd" d="M13.1314 28.4251H11.3138C10.86 28.4251 10.6445 28.6901 10.6445 29.2226C10.6445 29.7338 10.8612 30.0001 11.315 30.0001H18.3254C18.7792 30.0001 18.9958 29.7338 18.9958 29.2226C18.9958 28.7126 18.7792 28.4238 18.3254 28.4238L13.1314 28.4251Z" fill="#B2E1F5"/>
<path fill-rule="evenodd" clip-rule="evenodd" d="M2.48712 28.4251H0.669531C0.215735 28.4251 0.0195312 28.6901 0.0195312 29.2226C0.0195312 29.7338 0.215735 30.0001 0.669531 30.0001H7.70277C8.15657 30.0001 8.37323 29.7338 8.37323 29.2226C8.37323 28.7126 8.15657 28.4238 7.70277 28.4238L2.48712 28.4251Z" fill="#BFE6F6"/>
<path fill-rule="evenodd" clip-rule="evenodd" d="M0.0216667 5.88H1.99093V8.655C2.66139 7.63375 3.37519 6.90125 4.08898 6.4125C5.08444 5.79125 6.12324 5.45875 7.20537 5.45875C7.93963 5.45875 8.63296 5.61375 9.32509 5.9025C9.97509 6.19 10.5372 6.6125 10.9477 7.1225C11.3594 7.61125 11.7265 8.34375 12.0298 9.275C12.6798 8.0325 13.5007 7.07875 14.4745 6.4125C15.4174 5.78645 16.5139 5.45536 17.6331 5.45875C18.6935 5.45875 19.624 5.725 20.4256 6.3025C21.2249 6.85625 21.8099 7.63375 22.2204 8.6325C22.6092 9.6075 22.8042 11.1175 22.8042 13.0925V21.8125H20.8144V13.0925C20.8144 11.3837 20.6844 10.2075 20.4678 9.56375C20.2363 8.9236 19.8109 8.3788 19.2556 8.01125C18.6935 7.63375 18.0231 7.43375 17.2443 7.43375C16.2921 7.43375 15.4483 7.745 14.6479 8.32125C13.8663 8.90797 13.2651 9.71725 12.9169 10.6512C12.5703 11.65 12.3753 13.27 12.3753 15.555V21.79H10.4072V13.625C10.4072 11.6937 10.2989 10.385 10.0822 9.6975C9.84389 9.01 9.45509 8.455 8.8713 8.055C8.26835 7.64118 7.55971 7.42477 6.83704 7.43375C5.92824 7.43375 5.08444 7.72125 4.28398 8.29875C3.50519 8.85375 2.92139 9.63 2.53139 10.6062C2.16306 11.5837 1.96926 13.0475 1.96926 15.0437V21.8125H0V5.88H0.0216667ZM34.0119 5.45875C36.3049 5.45875 38.2092 6.36875 39.7234 8.12125C41.1077 9.74125 41.801 11.65 41.801 13.8912C41.801 16.11 41.0872 18.0625 39.6163 19.7037C38.1658 21.3687 36.3061 22.2125 34.0335 22.2125C31.7405 22.2125 29.8795 21.3687 28.4303 19.705C26.9581 18.0625 26.2444 16.11 26.2444 13.8912C26.2444 11.6725 26.9365 9.76375 28.3219 8.14375C29.7929 6.36875 31.6971 5.45875 34.0119 5.45875ZM34.0119 7.47875C32.4109 7.47875 31.0483 8.1 29.9012 9.36375C28.7541 10.6063 28.1703 12.1387 28.1703 13.935C28.1703 15.0662 28.4303 16.1325 28.9491 17.1525C29.4406 18.1023 30.1744 18.8932 31.07 19.4387C31.9544 19.9805 32.9634 20.2639 33.9902 20.2588C35.029 20.2588 36.0244 19.9712 36.9116 19.4387C37.8204 18.905 38.5125 18.1288 39.0313 17.1525C39.5437 16.1636 39.8113 15.058 39.8101 13.935C39.8101 12.1375 39.2263 10.6063 38.0792 9.36375C36.9549 8.1 35.5911 7.47875 34.0119 7.47875ZM60.7545 0.0225V21.8125H58.8069V19.105C58.0535 20.0766 57.1098 20.8708 56.0384 21.435C54.9831 21.953 53.8293 22.2182 52.662 22.2112C50.499 22.2112 48.6381 21.4125 47.1238 19.7713C45.5879 18.1513 44.8091 16.1988 44.8091 13.8688C44.8091 11.6275 45.5879 9.675 47.1443 8.055C48.6814 6.435 50.5423 5.63625 52.727 5.63625C53.9825 5.63625 55.1284 5.9025 56.1239 6.4575C57.1627 7.01125 58.0498 7.8325 58.8081 8.9425V0H60.7545V0.0225ZM52.9004 7.5875C51.7749 7.5875 50.7807 7.875 49.8502 8.40875C48.9263 8.97496 48.1643 9.78654 47.6426 10.76C47.1103 11.7187 46.827 12.8046 46.8205 13.9112C46.8205 15.0425 47.1021 16.0863 47.6426 17.085C48.1716 18.0662 48.9406 18.885 49.8719 19.4588C50.8228 20.0138 51.8182 20.3025 52.8787 20.3025C53.9608 20.3025 54.978 20.0138 55.9518 19.4588C56.8769 18.9269 57.6464 18.1452 58.1786 17.1962C58.6986 16.2412 58.9369 15.1538 58.9369 13.9775C58.9369 12.1588 58.3532 10.6275 57.1844 9.42875C56.0372 8.20875 54.588 7.5875 52.9004 7.5875ZM77.9759 16.5087L79.5997 17.4413C79.1329 18.4408 78.5033 19.3492 77.7388 20.1262C77.0414 20.7932 76.2357 21.3265 75.3591 21.7013C74.4025 22.0619 73.3915 22.2422 72.3739 22.2338C69.9063 22.2338 67.9804 21.3688 66.5961 19.6825C65.2119 17.9738 64.5197 16.065 64.5197 13.9125C64.5197 11.8713 65.0819 10.075 66.2723 8.52125C67.7866 6.50125 69.7763 5.5025 72.2644 5.5025C74.8186 5.5025 76.8745 6.52375 78.4309 8.5875C79.5347 10.0512 80.0752 11.85 80.0969 14.0237H66.5311C66.5744 15.865 67.1161 17.3962 68.2187 18.5725C69.3008 19.7475 70.6418 20.3475 72.2222 20.3475C73.001 20.3475 73.7148 20.1925 74.4503 19.9262C75.1213 19.6711 75.7439 19.2954 76.2895 18.8163C76.8517 18.3063 77.3921 17.5512 77.9759 16.5087ZM77.9759 12.2037C77.7171 11.1162 77.3283 10.2513 76.8517 9.58625C76.3266 8.91038 75.6512 8.37717 74.8836 8.0325C74.0858 7.63755 73.2132 7.43256 72.3294 7.4325C70.8368 7.4325 69.5825 7.92125 68.5004 8.9425C67.7216 9.675 67.1366 10.7625 66.7261 12.2263H77.9771L77.9759 12.2037ZM82.7799 5.88H84.8358V8.21C85.4413 7.3 86.1118 6.6125 86.7834 6.1475C87.4756 5.7025 88.1894 5.46 88.926 5.46C89.5086 5.46 90.0936 5.65875 90.7424 5.99125L89.6831 7.7225C89.2498 7.5225 88.9032 7.43375 88.6215 7.43375C87.951 7.43375 87.2806 7.72125 86.6751 8.2775C86.0251 8.83125 85.5713 9.71875 85.2246 10.895C84.9658 11.805 84.8358 13.6463 84.8358 16.3988V21.79H82.7787V5.88H82.7799ZM93.0138 5.88H94.9614V8.7425C95.7402 7.655 96.6273 6.835 97.5795 6.3025C98.5282 5.76431 99.5919 5.48194 100.673 5.48125C101.82 5.48125 102.837 5.79125 103.724 6.39125C104.589 6.98898 105.266 7.83745 105.671 8.83125C106.104 9.8525 106.299 11.45 106.299 13.6462V21.8337H104.351V14.2463C104.351 12.4038 104.265 11.1837 104.113 10.5625C103.896 9.52 103.464 8.72 102.794 8.1875C102.167 7.6775 101.323 7.38875 100.263 7.38875C99.0949 7.38875 98.0116 7.78875 97.0823 8.61C96.1302 9.4525 95.5235 10.4512 95.2431 11.65C95.0481 12.4487 94.9614 13.9125 94.9614 15.9763V21.835H93.0138V5.88ZM125.273 5.88V21.8125H123.392V19.0825C122.59 20.1262 121.682 20.9025 120.687 21.435C119.657 21.9595 118.524 22.2327 117.377 22.2338C115.256 22.2338 113.438 21.4125 111.967 19.7713C110.475 18.1513 109.716 16.1762 109.716 13.8238C109.716 11.5613 110.475 9.58625 111.989 7.94375C113.503 6.32375 115.321 5.5025 117.442 5.5025C118.674 5.5025 119.777 5.76875 120.774 6.34625C121.768 6.90125 122.633 7.74375 123.392 8.85375V5.925H125.273V5.88ZM117.614 7.43375C116.555 7.43375 115.559 7.72125 114.629 8.27625C113.72 8.85375 113.028 9.63 112.464 10.6512C111.946 11.6304 111.671 12.7287 111.664 13.8462C111.664 14.9775 111.946 16.065 112.464 17.0638C112.977 18.0488 113.731 18.8756 114.65 19.46C115.581 20.015 116.533 20.325 117.592 20.325C118.631 20.325 119.648 20.0375 120.6 19.46C121.531 18.905 122.245 18.1287 122.785 17.175C123.283 16.22 123.52 15.1113 123.52 13.9125C123.52 12.0713 122.958 10.5175 121.833 9.2975C120.665 8.055 119.258 7.43375 117.614 7.43375ZM128.498 5.8575C128.713 5.8575 128.952 5.9025 129.147 5.99125C129.361 6.10048 129.536 6.27956 129.644 6.50125C129.774 6.72375 129.817 6.945 129.817 7.21125C129.817 7.45625 129.774 7.6775 129.665 7.89875C129.539 8.10622 129.369 8.28108 129.168 8.41C128.93 8.52125 128.735 8.565 128.498 8.565C128.272 8.57177 128.048 8.51841 127.848 8.41C127.647 8.28119 127.477 8.10682 127.351 7.9C127.245 7.68788 127.193 7.45131 127.199 7.2125C127.199 6.945 127.242 6.72375 127.351 6.50125C127.481 6.30125 127.654 6.10125 127.848 5.99125C128.064 5.9025 128.303 5.8575 128.498 5.8575ZM128.498 6.035C128.306 6.03153 128.118 6.08581 127.956 6.19125C127.776 6.27666 127.63 6.42597 127.546 6.6125C127.443 6.79407 127.39 7.00178 127.394 7.2125C127.394 7.41125 127.437 7.58875 127.546 7.76625C127.63 7.95278 127.776 8.10209 127.956 8.1875C128.119 8.29023 128.307 8.34429 128.498 8.34375C128.696 8.34718 128.89 8.29306 129.06 8.1875C129.241 8.10245 129.386 7.95304 129.47 7.76625C129.557 7.56625 129.622 7.38875 129.622 7.21125C129.622 7.01125 129.557 6.81125 129.47 6.6125C129.38 6.43041 129.236 6.28287 129.06 6.19125C128.891 6.08302 128.696 6.02868 128.498 6.035ZM127.934 7.96625V6.47875H128.411C128.605 6.47875 128.713 6.47875 128.8 6.50125C128.865 6.54625 128.93 6.59 128.973 6.65625C129.014 6.71453 129.037 6.78428 129.038 6.85625C129.039 6.96335 129 7.06668 128.93 7.145C128.833 7.21544 128.722 7.26087 128.605 7.2775C128.67 7.3 128.692 7.3225 128.735 7.345C128.778 7.41125 128.843 7.5 128.93 7.655L129.125 7.94375H128.822L128.713 7.7225C128.605 7.545 128.541 7.41125 128.476 7.3675C128.422 7.33954 128.363 7.32418 128.303 7.3225H128.173V7.96625H127.934ZM128.151 7.1225H128.433C128.563 7.1225 128.67 7.1225 128.713 7.07875C128.778 7.03375 128.8 6.99 128.8 6.9225C128.799 6.88159 128.783 6.8425 128.757 6.8125C128.739 6.77274 128.708 6.74109 128.67 6.72375C128.627 6.72375 128.541 6.70125 128.411 6.70125H128.173V7.1225H128.151Z" fill="#E31837"/>
</g>
<defs>
<clipPath id="clip0_7304_4841">
<rect width="130" height="30" fill="white"/>
</clipPath>
</defs>
</svg>
