<svg width="81" height="60" viewBox="0 0 81 60" fill="none" xmlns="http://www.w3.org/2000/svg">
<path d="M60.1917 21.034L49.0376 13.7287L37.9025 21.0531C37.5231 21.3004 37.0299 21.1862 36.7832 20.8248L36.4987 20.3872C36.2521 20.0067 36.3659 19.5121 36.7263 19.2648L48.4495 11.5599C48.8099 11.3316 49.2652 11.3316 49.6256 11.5599L61.3678 19.2457C61.7472 19.4931 61.842 19.9877 61.5954 20.3682L61.3109 20.8057C61.0643 21.1862 60.5711 21.2814 60.1917 21.034Z" fill="#288DC1"/>
<path d="M71.4964 14.7373H71.0221C70.491 14.7373 70.0547 15.1749 70.0547 15.7075V37.5856C70.0547 38.1183 70.491 38.5558 71.0221 38.5558H71.4964C72.0275 38.5558 72.4638 38.1183 72.4638 37.5856V15.7266C72.4638 15.1749 72.0275 14.7373 71.4964 14.7373Z" fill="#696057"/>
<path d="M78.8362 11.4648H78.362C77.8308 11.4648 77.3945 11.9024 77.3945 12.4351V37.5853C77.3945 38.118 77.8308 38.5556 78.362 38.5556H78.8362C79.3674 38.5556 79.8037 38.118 79.8037 37.5853V12.4541C79.8037 11.9024 79.3674 11.4648 78.8362 11.4648Z" fill="#696057"/>
<path d="M23.3497 23.9258C21.3579 23.9258 19.6317 24.6868 18.3797 26.0946C17.2036 27.4263 16.5586 29.2526 16.5586 31.2121V31.4594C16.5776 33.419 17.2415 35.2072 18.4176 36.5009C19.6506 37.8707 21.3579 38.6126 23.3497 38.6126C25.4743 38.6126 27.1057 37.8326 28.149 37.2619C28.3766 37.1287 28.5474 36.9194 28.6043 36.6531C28.6612 36.3868 28.6043 36.1204 28.4525 35.8921L28.2438 35.6068C27.9783 35.2263 27.4661 35.1121 27.0677 35.3214C26.9729 35.3785 26.878 35.4165 26.7832 35.4736C26.0244 35.8731 25.0949 36.3868 23.6153 36.3868C20.675 36.3868 19.0436 34.0087 19.0436 32.3536L19.0246 32.2204C19.0246 32.1063 19.0626 32.0111 19.1385 31.9351C19.2143 31.859 19.2902 31.8399 19.3851 31.8399H28.9078C29.2492 31.8399 29.5148 31.5736 29.5527 31.2311C29.5907 30.9838 29.6286 30.5272 29.6286 30.299C29.6286 28.5297 29.0026 26.9126 27.8644 25.7521C26.7073 24.5726 25.0949 23.9258 23.3497 23.9258ZM27.0867 29.7472C27.0298 29.8043 26.9539 29.8424 26.8591 29.8424H19.3661C19.2712 29.8424 19.1954 29.8043 19.1385 29.7282C19.0815 29.6521 19.0626 29.576 19.0815 29.4809C19.4799 27.4833 21.2441 26.0755 23.3497 26.0755C24.2792 26.0755 25.1897 26.437 25.8916 27.1029C26.5745 27.7307 27.0298 28.5868 27.1626 29.4999C27.1626 29.5951 27.1436 29.6711 27.0867 29.7472Z" fill="#696057"/>
<path d="M60.0216 23.9258C58.0298 23.9258 56.3035 24.6868 55.0515 26.0946C53.8754 27.4263 53.2305 29.2526 53.2305 31.2121V31.4594C53.2494 33.419 53.9134 35.2072 55.0895 36.5009C56.3225 37.8707 58.0298 38.6126 60.0216 38.6126C62.1462 38.6126 63.7775 37.8326 64.8209 37.2619C65.0485 37.1287 65.2192 36.9194 65.2761 36.6531C65.333 36.3868 65.2761 36.1204 65.1244 35.8921L64.9157 35.6068C64.6501 35.2263 64.138 35.1121 63.7396 35.3214C63.6448 35.3785 63.5499 35.4165 63.4551 35.4736C62.6963 35.8731 61.7668 36.3868 60.2871 36.3868C57.3469 36.3868 55.7155 34.0087 55.7155 32.3536L55.6965 32.2204C55.6965 32.1063 55.7345 32.0111 55.8103 31.9351C55.8862 31.859 55.9621 31.8209 56.0569 31.8209H65.5797C65.9211 31.8209 66.1867 31.5546 66.2246 31.2121C66.2626 30.9648 66.3005 30.5082 66.3005 30.2799C66.3005 28.5107 65.6745 26.8936 64.5363 25.7331C63.3602 24.5726 61.7668 23.9258 60.0216 23.9258ZM55.7534 29.4999C56.1707 27.5024 57.9159 26.0946 60.0216 26.0946C60.9511 26.0946 61.8616 26.456 62.5635 27.1219C63.2464 27.7497 63.7017 28.6058 63.8344 29.519C63.8534 29.5951 63.8155 29.6902 63.7586 29.7472C63.7017 29.8043 63.6258 29.8424 63.5309 29.8424H56.038C55.9431 29.8424 55.8672 29.8043 55.8103 29.7282C55.7534 29.6711 55.7344 29.576 55.7534 29.4999Z" fill="#696057"/>
<path d="M50.3653 23.9453H49.8152C49.4168 23.9453 49.0754 24.2117 48.9616 24.5921L46.4007 33.876L42.5878 24.5921C42.455 24.2687 42.1325 24.0404 41.7721 24.0404H41.222C40.8616 24.0404 40.5391 24.2497 40.4063 24.5921L36.5934 33.876L34.0325 24.6112C33.9187 24.2307 33.5773 23.9643 33.1789 23.9643H32.6288C32.3442 23.9643 32.0976 24.0975 31.9269 24.3068C31.7562 24.5351 31.6993 24.8014 31.7752 25.0678L35.3225 37.9282C35.4363 38.3087 35.7777 38.5751 36.1761 38.5751H36.4986C36.859 38.5751 37.1815 38.3658 37.3143 38.0234L41.4876 27.8453L45.6609 38.0043C45.7937 38.3277 46.1161 38.556 46.4766 38.556H46.799C47.1974 38.556 47.5389 38.2897 47.6527 37.9092L51.2 25.0487C51.2759 24.7824 51.219 24.497 51.0482 24.2878C50.8965 24.0785 50.6309 23.9453 50.3653 23.9453Z" fill="#696057"/>
<path d="M6.774 23.9453C4.85807 23.9453 3.2836 24.4209 1.99367 24.8965C1.40561 25.0868 0.988281 25.6385 0.988281 26.2282V37.6238C0.988281 38.1565 1.42458 38.5751 1.93676 38.5751H2.42997C2.96112 38.5751 3.37845 38.1375 3.37845 37.6238V27.2365C3.37845 27.0273 3.51123 26.837 3.70093 26.7609C4.23208 26.5326 5.35128 26.1712 6.73606 26.1712C7.93114 26.1712 9.03137 26.5326 9.82809 27.1985C10.6248 27.8643 11.0611 28.7965 11.0611 29.8238V37.6048C11.0611 38.1375 11.4974 38.556 12.0096 38.556H12.5028C13.0339 38.556 13.4513 38.1185 13.4513 37.6048V29.8238C13.4892 26.3804 10.7386 23.9453 6.774 23.9453Z" fill="#696057"/>
<path d="M36.4398 42.9502H34.8463C34.7515 42.9502 34.6756 43.0073 34.6567 43.1024L33.6133 47.5921C33.5944 47.6302 33.6133 47.6682 33.6323 47.7063C33.6513 47.7443 33.6892 47.7634 33.7461 47.7634H35.4154C36.326 47.7634 37.1227 47.2117 37.2934 46.4317C37.4452 45.7658 36.952 45.4424 36.6864 45.3282C36.933 45.2141 37.5021 44.8526 37.6349 44.2629C37.7107 43.9395 37.6538 43.6351 37.4641 43.4068C37.2745 43.1024 36.8951 42.9502 36.4398 42.9502ZM35.3016 43.6351H36.2501C36.4588 43.6351 36.6295 43.6921 36.7243 43.8253C36.8192 43.9395 36.8382 44.1107 36.8002 44.3009C36.7054 44.7195 36.3449 45.0048 35.9276 45.0048H34.9981L35.3016 43.6351ZM36.4777 46.3556C36.3829 46.7741 35.9845 47.0785 35.5672 47.0785H34.5049L34.8274 45.6707H35.7759C36.0225 45.6707 36.2501 45.7658 36.3829 45.918C36.4777 46.0512 36.5157 46.2034 36.4777 46.3556Z" fill="#288DC1"/>
<path d="M41.7305 42.9502H39.7956C39.7007 42.9502 39.6248 43.0073 39.6059 43.1024L38.5625 47.5921C38.5436 47.6302 38.5625 47.6682 38.5815 47.7063C38.6005 47.7443 38.6384 47.7634 38.6953 47.7634H39.1506C39.2265 47.7634 39.3213 47.6873 39.3403 47.6112L39.7387 45.899H40.782L41.3131 47.6873C41.3321 47.7253 41.37 47.7634 41.4269 47.7634H41.9771C42.0529 47.7634 42.1099 47.7253 42.1478 47.6873C42.1857 47.6492 42.1857 47.5921 42.1668 47.5351L41.5977 45.8419C42.2995 45.5946 42.8307 45.0619 42.9635 44.4531C43.0583 44.0726 42.9825 43.7112 42.7548 43.4258C42.5462 43.1214 42.1668 42.9502 41.7305 42.9502ZM42.1857 44.4341C42.0909 44.8717 41.5977 45.2521 41.1424 45.2521H39.9094L40.2698 43.6541H41.5218C41.7494 43.6541 41.9391 43.7492 42.0719 43.9014C42.2047 44.0536 42.2426 44.2439 42.1857 44.4341Z" fill="#288DC1"/>
<path d="M46.8349 42.9691C46.8159 42.9121 46.759 42.874 46.7021 42.874H46.6262C46.5883 42.874 46.5124 42.9121 46.4744 42.9501L43.2306 47.516C43.1927 47.573 43.1927 47.6301 43.2117 47.6682C43.2306 47.7062 43.2686 47.7252 43.3445 47.7252H43.7997C43.8946 47.7252 43.9705 47.6682 44.0084 47.6111C44.1222 47.4589 44.236 47.2877 44.3499 47.1355C44.4447 46.9833 44.5585 46.8501 44.6534 46.6979H46.9487L47.1763 47.6111C47.1953 47.6872 47.2522 47.7252 47.347 47.7252H47.8023C47.8592 47.7252 47.9161 47.7062 47.9541 47.6491C47.992 47.6111 47.992 47.554 47.992 47.516L46.8349 42.9691ZM46.7969 46.0891H45.0897L46.3606 44.2818L46.7969 46.0891Z" fill="#288DC1"/>
<path d="M54.0805 42.9501H53.6252C53.5494 42.9501 53.4545 43.0072 53.4355 43.1023L52.7147 46.2604L50.4383 42.893V42.874H50.2486C50.1728 42.874 50.0779 42.9311 50.059 43.0072L49.0156 47.573C49.0156 47.6111 49.0156 47.6491 49.0346 47.6872C49.0536 47.7252 49.0915 47.7443 49.1484 47.7443H49.6037C49.6985 47.7443 49.7744 47.6872 49.7934 47.5921L50.5522 44.3389L52.8285 47.8204H53.0182C53.113 47.8204 53.1889 47.7633 53.2079 47.6872L54.2512 43.1213C54.2512 43.0833 54.2512 43.0452 54.2323 43.0072C54.1564 42.9691 54.1184 42.9501 54.0805 42.9501Z" fill="#288DC1"/>
<path d="M57.8566 42.9502H56.2253C56.1494 42.9502 56.0545 43.0263 56.0356 43.1024L54.9922 47.5921C54.9733 47.6302 54.9922 47.6682 55.0112 47.7063C55.0302 47.7443 55.0681 47.7443 55.1061 47.7443H56.7374C58.1222 47.7443 59.507 46.66 59.8105 45.3473C59.9623 44.7195 59.8295 44.1297 59.469 43.6731C59.1276 43.2165 58.5395 42.9502 57.8566 42.9502ZM58.9948 45.3473C58.7672 46.3365 57.8377 47.0595 56.8133 47.0595H55.9028L56.6805 43.6541H57.61C58.1222 43.6541 58.5395 43.8253 58.7861 44.1487C59.0327 44.4531 59.1086 44.8717 58.9948 45.3473Z" fill="#288DC1"/>
<path d="M64.6091 43.3872C64.6091 43.3492 64.5901 43.3111 64.5522 43.2921C64.4383 43.197 63.9831 42.8926 63.3191 42.8926C62.162 42.8926 61.555 43.6536 61.4411 44.1672C61.2514 44.9853 61.8016 45.3658 62.4276 45.6321C63.1105 45.9365 63.3571 46.1838 63.2812 46.5453C63.2053 46.9067 62.807 47.154 62.3517 47.154C61.8395 47.154 61.4222 46.7736 61.3273 46.6975C61.2514 46.6214 61.1376 46.6594 61.0428 46.7545L60.91 46.8877C60.91 46.8877 60.8341 46.9828 60.7962 47.0209C60.6824 47.154 60.7393 47.2111 60.7962 47.2682C60.8721 47.3633 61.3273 47.8199 62.2189 47.8199C63.1294 47.8199 63.9641 47.2682 64.1348 46.5262C64.3435 45.6511 63.6226 45.2706 62.9397 44.9853C62.3707 44.7379 62.162 44.5097 62.2379 44.1482C62.2758 43.9389 62.5414 43.5584 63.1674 43.5584C63.3381 43.5584 63.6226 43.6155 64.021 43.8818L64.04 43.9009C64.1348 43.9579 64.2486 43.9389 64.3435 43.8248C64.3814 43.7867 64.4194 43.7487 64.4383 43.7106C64.4763 43.6536 64.5332 43.6155 64.5711 43.5584C64.6091 43.4823 64.6091 43.4253 64.6091 43.3872Z" fill="#288DC1"/>
</svg>
