<svg width="162" height="120" viewBox="0 0 162 120" fill="none" xmlns="http://www.w3.org/2000/svg">
<path d="M120.383 43.0681L98.0752 28.4573L75.8049 43.1061C75.0461 43.6008 74.0597 43.3725 73.5665 42.6495L72.9974 41.7744C72.5042 41.0134 72.7318 40.0242 73.4527 39.5295L96.899 24.1198C97.6199 23.6632 98.5304 23.6632 99.2513 24.1198L122.736 39.4915C123.494 39.9861 123.684 40.9754 123.191 41.7364L122.622 42.6115C122.129 43.3725 121.142 43.5627 120.383 43.0681Z" fill="#288DC1"/>
<path d="M142.993 30.4746H142.044C140.982 30.4746 140.109 31.3497 140.109 32.4151V76.1712C140.109 77.2366 140.982 78.1117 142.044 78.1117H142.993C144.055 78.1117 144.928 77.2366 144.928 76.1712V32.4531C144.928 31.3497 144.055 30.4746 142.993 30.4746Z" fill="#696057"/>
<path d="M157.672 23.9297H156.724C155.662 23.9297 154.789 24.8048 154.789 25.8702V76.1707C154.789 77.236 155.662 78.1112 156.724 78.1112H157.672C158.735 78.1112 159.607 77.236 159.607 76.1707V25.9082C159.607 24.8048 158.735 23.9297 157.672 23.9297Z" fill="#696057"/>
<path d="M46.6994 48.8516C42.7158 48.8516 39.2633 50.3735 36.7593 53.1891C34.4071 55.8525 33.1172 59.5052 33.1172 63.4242V63.9189C33.1551 67.8379 34.483 71.4145 36.8352 74.0018C39.3013 76.7413 42.7158 78.2252 46.6994 78.2252C50.9486 78.2252 54.2113 76.6652 56.298 75.5238C56.7532 75.2574 57.0947 74.8389 57.2085 74.3062C57.3223 73.7735 57.2085 73.2408 56.905 72.7843L56.4877 72.2135C55.9565 71.4525 54.9322 71.2243 54.1355 71.6428C53.9458 71.7569 53.7561 71.833 53.5664 71.9472C52.0488 72.7462 50.1898 73.7735 47.2305 73.7735C41.35 73.7735 38.0872 69.0174 38.0872 65.7072L38.0493 65.4408C38.0493 65.2125 38.1251 65.0223 38.2769 64.8701C38.4287 64.7179 38.5804 64.6799 38.7701 64.6799H57.8155C58.4984 64.6799 59.0296 64.1472 59.1055 63.4623C59.1814 62.9677 59.2572 62.0545 59.2572 61.5979C59.2572 58.0594 58.0052 54.8252 55.7289 52.5042C53.4146 50.1452 50.1898 48.8516 46.6994 48.8516ZM54.1734 60.4945C54.0596 60.6086 53.9078 60.6847 53.7181 60.6847H38.7322C38.5425 60.6847 38.3907 60.6086 38.2769 60.4564C38.1631 60.3042 38.1251 60.1521 38.1631 59.9618C38.9598 55.9667 42.4881 53.1511 46.6994 53.1511C48.5584 53.1511 50.3795 53.874 51.7832 55.2057C53.149 56.4613 54.0596 58.1735 54.3251 59.9999C54.3251 60.1901 54.2872 60.3423 54.1734 60.4945Z" fill="#696057"/>
<path d="M120.043 48.8516C116.06 48.8516 112.607 50.3735 110.103 53.1891C107.751 55.8525 106.461 59.5052 106.461 63.4242V63.9189C106.499 67.8379 107.827 71.4145 110.179 74.0018C112.645 76.7413 116.06 78.2252 120.043 78.2252C124.292 78.2252 127.555 76.6652 129.642 75.5238C130.097 75.2574 130.438 74.8389 130.552 74.3062C130.666 73.7735 130.552 73.2408 130.249 72.7843L129.831 72.2135C129.3 71.4525 128.276 71.2243 127.479 71.6428C127.29 71.7569 127.1 71.833 126.91 71.9472C125.393 72.7462 123.534 73.7735 120.574 73.7735C114.694 73.7735 111.431 69.0174 111.431 65.7072L111.393 65.4408C111.393 65.2125 111.469 65.0223 111.621 64.8701C111.772 64.7179 111.924 64.6418 112.114 64.6418H131.159C131.842 64.6418 132.373 64.1091 132.449 63.4242C132.525 62.9296 132.601 62.0164 132.601 61.5599C132.601 58.0213 131.349 54.7872 129.073 52.4662C126.72 50.1452 123.534 48.8516 120.043 48.8516ZM111.507 59.9999C112.341 56.0047 115.832 53.1891 120.043 53.1891C121.902 53.1891 123.723 53.9121 125.127 55.2438C126.493 56.4994 127.403 58.2116 127.669 60.0379C127.707 60.1901 127.631 60.3803 127.517 60.4945C127.403 60.6086 127.252 60.6847 127.062 60.6847H112.076C111.886 60.6847 111.734 60.6086 111.621 60.4564C111.507 60.3423 111.469 60.1521 111.507 59.9999Z" fill="#696057"/>
<path d="M100.731 48.8906H99.6304C98.8337 48.8906 98.1508 49.4233 97.9232 50.1843L92.8014 68.7521L85.1756 50.1843C84.91 49.5375 84.2651 49.0809 83.5442 49.0809H82.444C81.7232 49.0809 81.0782 49.4994 80.8126 50.1843L73.1869 68.7521L68.0651 50.2223C67.8374 49.4614 67.1545 48.9287 66.3578 48.9287H65.2576C64.6885 48.9287 64.1953 49.195 63.8538 49.6135C63.5124 50.0701 63.3986 50.6028 63.5503 51.1355L70.6449 76.8565C70.8726 77.6175 71.5555 78.1501 72.3522 78.1501H72.9972C73.718 78.1501 74.363 77.7316 74.6285 77.0467L82.9751 56.6906L91.3218 77.0087C91.5873 77.6555 92.2323 78.1121 92.9531 78.1121H93.5981C94.3948 78.1121 95.0777 77.5794 95.3054 76.8184L102.4 51.0975C102.552 50.5648 102.438 49.994 102.096 49.5755C101.793 49.157 101.262 48.8906 100.731 48.8906Z" fill="#696057"/>
<path d="M13.548 48.8906C9.71614 48.8906 6.5672 49.8418 3.98734 50.7931C2.81122 51.1736 1.97656 52.277 1.97656 53.4565V76.2477C1.97656 77.3131 2.84916 78.1501 3.87352 78.1501H4.85994C5.92223 78.1501 6.75689 77.275 6.75689 76.2477V55.4731C6.75689 55.0545 7.02246 54.674 7.40186 54.5218C8.46415 54.0653 10.7026 53.3423 13.4721 53.3423C15.8623 53.3423 18.0627 54.0653 19.6562 55.397C21.2496 56.7287 22.1222 58.5931 22.1222 60.6477V76.2096C22.1222 77.275 22.9948 78.1121 24.0192 78.1121H25.0056C26.0679 78.1121 26.9026 77.237 26.9026 76.2096V60.6477C26.9784 53.7609 21.4773 48.8906 13.548 48.8906Z" fill="#696057"/>
<path d="M72.8796 86.9004H69.6927C69.503 86.9004 69.3512 87.0145 69.3133 87.2048L67.2267 96.1843C67.1887 96.2604 67.2267 96.3365 67.2646 96.4126C67.3025 96.4887 67.3784 96.5267 67.4922 96.5267H70.8309C72.6519 96.5267 74.2454 95.4233 74.5868 93.8633C74.8904 92.5316 73.9039 91.8848 73.3728 91.6565C73.866 91.4282 75.0042 90.7053 75.2697 89.5258C75.4215 88.8789 75.3077 88.2702 74.9283 87.8136C74.5489 87.2048 73.7901 86.9004 72.8796 86.9004ZM70.6032 88.2701H72.5002C72.9175 88.2701 73.259 88.3843 73.4487 88.6506C73.6384 88.8789 73.6763 89.2214 73.6004 89.6019C73.4107 90.4389 72.6899 91.0097 71.8552 91.0097H69.9962L70.6032 88.2701ZM72.9555 93.7111C72.7658 94.5482 71.969 95.157 71.1344 95.157H69.0098L69.6548 92.3414H71.5517C72.0449 92.3414 72.5002 92.5316 72.7658 92.836C72.9555 93.1023 73.0313 93.4067 72.9555 93.7111Z" fill="#288DC1"/>
<path d="M83.4609 86.9004H79.5911C79.4014 86.9004 79.2497 87.0145 79.2117 87.2048L77.1251 96.1843C77.0872 96.2604 77.1251 96.3365 77.163 96.4126C77.201 96.4887 77.2768 96.5267 77.3907 96.5267H78.3012C78.453 96.5267 78.6427 96.3745 78.6806 96.2223L79.4773 92.798H81.564L82.6263 96.3745C82.6642 96.4506 82.7401 96.5267 82.8539 96.5267H83.9541C84.1059 96.5267 84.2197 96.4506 84.2956 96.3745C84.3715 96.2984 84.3715 96.1843 84.3335 96.0701L83.1953 92.6838C84.5991 92.1892 85.6614 91.1238 85.927 89.9062C86.1167 89.1453 85.9649 88.4223 85.5096 87.8516C85.0923 87.2428 84.3335 86.9004 83.4609 86.9004ZM84.3715 89.8682C84.1818 90.7433 83.1953 91.5043 82.2848 91.5043H79.8188L80.5396 88.3082H83.0436C83.4989 88.3082 83.8783 88.4984 84.1438 88.8028C84.4094 89.1072 84.4853 89.4877 84.3715 89.8682Z" fill="#288DC1"/>
<path d="M93.6697 86.9383C93.6318 86.8241 93.518 86.748 93.4042 86.748H93.2524C93.1765 86.748 93.0248 86.8241 92.9489 86.9002L86.4613 96.0319C86.3854 96.1461 86.3854 96.2602 86.4234 96.3363C86.4613 96.4124 86.5372 96.4505 86.6889 96.4505H87.5995C87.7892 96.4505 87.9409 96.3363 88.0168 96.2222C88.2444 95.9178 88.4721 95.5754 88.6997 95.271C88.8894 94.9666 89.117 94.7002 89.3067 94.3958H93.8974L94.3526 96.2222C94.3906 96.3744 94.5044 96.4505 94.6941 96.4505H95.6046C95.7184 96.4505 95.8323 96.4124 95.9081 96.2983C95.984 96.2222 95.984 96.108 95.984 96.0319L93.6697 86.9383ZM93.5938 93.1783H90.1793L92.7212 89.5637L93.5938 93.1783Z" fill="#288DC1"/>
<path d="M108.161 86.9002H107.25C107.099 86.9002 106.909 87.0144 106.871 87.2046L105.429 93.5207L100.877 86.7861V86.748H100.497C100.346 86.748 100.156 86.8622 100.118 87.0144L98.0312 96.1461C98.0312 96.2222 98.0313 96.2983 98.0692 96.3744C98.1071 96.4505 98.183 96.4885 98.2968 96.4885H99.2074C99.3971 96.4885 99.5488 96.3744 99.5868 96.1841L101.104 89.6778L105.657 96.6407H106.036C106.226 96.6407 106.378 96.5266 106.416 96.3744L108.502 87.2427C108.502 87.1666 108.502 87.0905 108.465 87.0144C108.313 86.9383 108.237 86.9002 108.161 86.9002Z" fill="#288DC1"/>
<path d="M115.713 86.9004H112.451C112.299 86.9004 112.109 87.0526 112.071 87.2048L109.984 96.1843C109.947 96.2604 109.984 96.3365 110.022 96.4126C110.06 96.4887 110.136 96.4887 110.212 96.4887H113.475C116.244 96.4887 119.014 94.3199 119.621 91.6945C119.925 90.4389 119.659 89.2594 118.938 88.3462C118.255 87.4331 117.079 86.9004 115.713 86.9004ZM117.99 91.6945C117.534 93.6731 115.675 95.1189 113.627 95.1189H111.806L113.361 88.3082H115.22C116.244 88.3082 117.079 88.6506 117.572 89.2975C118.065 89.9062 118.217 90.7433 117.99 91.6945Z" fill="#288DC1"/>
<path d="M129.218 87.7744C129.218 87.6983 129.18 87.6222 129.104 87.5842C128.877 87.3939 127.966 86.7852 126.638 86.7852C124.324 86.7852 123.11 88.3071 122.882 89.3344C122.503 90.9705 123.603 91.7315 124.855 92.2642C126.221 92.873 126.714 93.3676 126.562 94.0905C126.411 94.8135 125.614 95.3081 124.703 95.3081C123.679 95.3081 122.844 94.5471 122.655 94.3949C122.503 94.2427 122.275 94.3188 122.086 94.5091L121.82 94.7754C121.82 94.7754 121.668 94.9656 121.592 95.0417C121.365 95.3081 121.479 95.4222 121.592 95.5364C121.744 95.7266 122.655 96.6398 124.438 96.6398C126.259 96.6398 127.928 95.5364 128.27 94.0525C128.687 92.3022 127.245 91.5413 125.879 90.9705C124.741 90.4759 124.324 90.0193 124.476 89.2964C124.552 88.8778 125.083 88.1169 126.335 88.1169C126.676 88.1169 127.245 88.231 128.042 88.7637L128.08 88.8017C128.27 88.9159 128.497 88.8778 128.687 88.6495C128.763 88.5735 128.839 88.4974 128.877 88.4213C128.953 88.3071 129.066 88.231 129.142 88.1169C129.218 87.9647 129.218 87.8505 129.218 87.7744Z" fill="#288DC1"/>
</svg>
