<svg xmlns="http://www.w3.org/2000/svg" width="141" height="141" viewBox="0 0 141 141"><rect width="100%" height="100%" fill="#0099d8"/><g transform="scale(0.07) translate(370,300)"><path fill="#fff" opacity="1" stroke="none" d="M1 672.468628C414.095276 672 827.190552 672 1241 672 1241 674.10498 1241 676.02478 1241 677.94458 1241 735.103027 1240.967285 792.261597 1241.069214 849.419861 1241.076416 853.455383 1240.12561 856.573425 1237.471802 859.757751 1187.781128 919.383118 1138.203735 979.102966 1088.621704 1038.818848 1009.141479 1134.543823 929.685242 1230.288696 850.199768 1326.009155 784.121521 1405.584106 718.00946 1485.130981 651.928406 1564.703613 641.82373 1576.871338 631.805725 1589.11084 621.873779 1601.658691 621.555542 1602 621.111084 1602 620.417725 1601.65332c-25.31128-30.606323-50.346131-60.888794-75.441224-91.121216C480.211884 1432.509277 415.419647 1354.509521 350.640198 1276.499023 289.691162 1203.10144 228.743301 1129.702881 167.79689 1056.302979 122.698143 1001.989197 77.620003 947.658203 32.492325 893.368408 22.079674 880.841736 11.501853 868.452454 1.000011 856 1 794.979126 1 733.958191 1 672.468628M273.500122 855.439392c-54.73027.0-109.460541.0-165.304108.0 171.353516 207.733582 341.897919 414.486145 512.746796 621.607971 171.032959-207.340088 341.516052-414.013672 512.758484-621.607605-287.131104.0-573.166138.0-860.201172-.000365999999985434z"/><path fill="#fff" opacity="1" stroke="none" d="M748.531372 1.000001C749.146729 2.476071 749.420959 3.952079 749.421692 5.428219 749.444702 52.92321 749.443298 100.418221 749.431946 147.913223 749.43158 149.375183 749.285706 150.837112 749.185669 152.711029c-60.049316.0-119.808228.0-179.875855.0.0 24.170731.0 47.914261.0 72.208862 59.8515630000001.0 119.737793.0 179.869385.0.0 47.272248.0 93.994721.0 141.154694-60.0170290000001.0-119.770447.0-179.85083.0.0 30.350647.0 60.267334.0 90.747314 59.714783.0 119.594299.0 179.79419.0.0 47.280701.0 94.000061.0 141.029358-113.972168.0-227.85962.0-342.257965.0.0-198.741211.0-397.331695.0677180000000135-596.386715C520.687561 1 634.375122 1 748.531372 1.000001z"/><path fill="#fff" opacity="1" stroke="none" d="M160.531342 1C167.459778 1.99858 173.912033 3.049065 180.380554 3.987283c40.817887 5.92037 79.441223 17.963937 113.912842 41.296641 45.676208 30.916729 72.521606 74.371639 83.552612 127.832821C386.685699 215.957809 387.370483 258.779053 373.628113 300.90509 358.648346 346.824188 329.937225 382.798645 291.615356 411.38678c-31.562194 23.545379-66.31549 40.58548-104.953414 49.096893C180.184006 461.910645 173.530136 462.538849 166.535049 463.60025c0 44.350739.0 89.08017.0 134.534577-55.094368.0-109.850135.0-165.070473-.0674440000000232C1 399.115051 1 200.230103 1 1 54.020393 1 107.041542 1 160.531342 1m11.677154 154.299759c-3.588943-.484267999999986-7.177887-.968536-11.792374-1.591171.0 53.698303.0 106.900512.0 160.592132C163.558182 314.066193 167.084595 314.164795 170.457016 313.49176 190.263733 309.539124 202.868301 296.467041 211.714935 279.435089 229.632233 244.939911 225.718491 210.629074 209.632278 176.748932 205.277313 167.576706 197.74826 161.516815 188.234848 158.360748 183.394257 156.754898 178.137299 156.404114 172.208496 155.299759z"/><path fill="#fff" opacity="1" stroke="none" d="M1353 63.541931C1352.416626 65.840912 1351.738037 67.6577 1351.264282 69.526405 1344.96814 94.362541 1320.745239 109.713783 1295.526245 104.822952 1271.516235 100.16658 1254.111328 76.397949 1257.381958 52.731541 1261.026001 26.362152 1283.088501 8.115105 1308.834961 10.176497 1331.511719 11.992118 1349.581665 29.580324 1352.67749 52.768112 1353 56.361286 1353 59.722576 1353 63.541931m-84.067139-14.795864C1264.57019 66.683388 1273.308105 84.567032 1290.058594 91.983757 1306.439087 99.236671 1325.809937 93.549362 1335.864746 78.534966 1346.004883 63.393616 1343.730469 43.283096 1330.322998 30.76193 1310.428589 12.182768 1277.358643 20.182781 1268.932861 48.746067z"/><path fill="#fff" opacity="1" stroke="none" d="M1241.161011 572c0 8.81366000000003.0 17.12738.0 25.800171-52.011475.0-103.746704.0-156.505615.0.0-66.027527.0-132.206787.0-198.386017C1084.108643 399.328369 1083.562012 399.242584 1083.015259 399.156799 1058.891968 457.498535 1034.768677 515.840271 1010.088379 575.529297 987.669189 516.154541 965.754211 458.11499 943.839233 400.07547 943.586365 400.106201 943.333557 400.136932 943.08075 400.167664c0 65.94577.0 131.89154.0 197.948852-52.768372.0-105.025635.0-157.602479.0.0-198.042389.0-395.754364.0-593.86967C787.091858 4.164128 788.695557 4.010492 790.299255 4.010081 839.125549 3.99757 887.951843 4.03317 936.777954 3.929375 940.199219 3.922102 941.897766 4.73331 943.21228 8.192507 965.650024 67.238121 988.264526 126.216568 1010.844788 185.207993 1011.314087 186.433914 1011.840881 187.637833 1012.672241 189.656738 1017.321899 177.710876 1021.714233 166.437042 1026.098389 155.160034c19.032592-48.955833 38.070678-97.90953 57.071655-146.877572C1084.175171 5.692413 1085.024048 3.884186 1088.608765 3.895376 1138.434448 4.05092 1188.26062 4.000746 1238.086792 4.006384 1238.896851 4.006475 1239.706909 4.076302 1241.161011 4.143233c0 189.233812.0 378.295274.0 567.856767z"/><path fill="#fff" opacity="1" stroke="none" d="M1320.821533 72.202034C1322.454956 74.922356 1323.902588 77.324081 1325.386353 79.785912 1317.28772 82.621597 1313.724731 81.391869 1309.87854 74.661781 1307.815796 71.052399 1305.963013 67.299789 1303.615723 63.886696 1302.557739 62.348518 1300.522949 61.482254 1298.931396 60.311111 1298.507202 60.652348 1298.08313 60.993584 1297.658936 61.334816c0 6.25246400000001.0 12.504921.0 19.12677-3.69763200000011.0-6.89441000000011.0-10.382325.0.0-15.421814.0-30.79903.0-46.33638C1295.604248 34.125206 1303.743042 33.694199 1311.814575 34.247162 1319.791504 34.79364 1324.287231 39.158546 1324.96582 45.534447 1325.863525 53.967716 1323.299316 57.603008 1313.961914 60.779892 1316.209595 64.519463 1318.422729 68.201454 1320.821533 72.202034M1302.54834 41.986877C1300.960083 42.068733 1299.371704 42.150589 1297.764893 42.233402c0 3.774601.0 7.148182.0 10.504235C1301.908936 52.737637 1305.818604 53.291035 1309.433838 52.499485 1311.188599 52.115288 1313.335449 49.316578 1313.544678 47.417053 1313.710205 45.915493 1311.500122 43.524055 1309.773071 42.61816 1308.035156 41.7066 1305.590942 42.141685 1302.54834 41.986877z"/></g></svg>