<svg width="173" height="39" viewBox="0 0 173 39" fill="none" xmlns="http://www.w3.org/2000/svg">
<g clip-path="url(#clip0_7304_4856)">
<path d="M172.068 13.7603C171.884 13.7594 171.704 13.7031 171.551 13.5988C171.399 13.4944 171.28 13.3465 171.21 13.1737C171.141 13.001 171.123 12.8112 171.159 12.6283C171.196 12.4453 171.285 12.2774 171.415 12.1458C171.546 12.0142 171.712 11.9247 171.892 11.8886C172.073 11.8526 172.26 11.8715 172.43 11.9432C172.6 12.0148 172.745 12.1359 172.847 12.2912C172.95 12.4465 173.004 12.6289 173.004 12.8156C173.005 12.9402 172.981 13.0638 172.934 13.179C172.887 13.2943 172.818 13.3989 172.731 13.4868C172.644 13.5748 172.54 13.6442 172.426 13.6912C172.312 13.7381 172.191 13.7616 172.068 13.7603ZM172.068 12.0617C171.919 12.0607 171.774 12.1045 171.65 12.1875C171.526 12.2705 171.43 12.389 171.372 12.5278C171.315 12.6667 171.3 12.8196 171.329 12.9673C171.357 13.1149 171.429 13.2506 171.534 13.357C171.639 13.4634 171.772 13.5357 171.918 13.5649C172.064 13.594 172.214 13.5785 172.351 13.5205C172.488 13.4625 172.605 13.3645 172.687 13.2389C172.769 13.1134 172.812 12.9661 172.811 12.8156C172.805 12.6195 172.724 12.4334 172.585 12.2965C172.447 12.1596 172.261 12.0825 172.068 12.0813V12.0617ZM172.483 13.3345V13.3785H172.314C172.302 13.3793 172.291 13.3764 172.282 13.3702C172.272 13.3641 172.265 13.355 172.261 13.3443C172.198 13.2121 172.14 13.0799 172.072 12.9429H171.932V13.3345C171.932 13.3345 171.932 13.3785 171.899 13.3785H171.763C171.735 13.3785 171.725 13.3785 171.725 13.3345V12.3065C171.725 12.2771 171.725 12.2673 171.773 12.2673H172.13C172.175 12.2623 172.22 12.2671 172.263 12.2816C172.305 12.296 172.344 12.3196 172.377 12.3508C172.409 12.382 172.435 12.4201 172.451 12.4623C172.468 12.5045 172.475 12.5499 172.473 12.5953C172.477 12.6614 172.461 12.7272 172.428 12.784C172.394 12.8408 172.344 12.8859 172.285 12.9135L172.483 13.3345ZM172.082 12.4484H171.923V12.7617H172.082C172.159 12.7617 172.251 12.7617 172.251 12.6002C172.251 12.4386 172.164 12.4484 172.082 12.4484ZM95.5622 13.3296H91.3385V27.7802C91.3385 28.0788 91.2323 28.2697 90.8557 28.2697H88.867C88.4953 28.2697 88.3842 28.1082 88.3842 27.7802V13.3296H83.2047L84.146 10.6666H96.5518L95.5622 13.3296ZM75.2737 28.5291C68.8633 28.5291 68.284 23.3402 68.284 19.2381C68.284 16.0268 69.0178 10.4512 75.2979 10.4512C81.578 10.4512 82.4227 15.0184 82.4227 19.2381C82.4227 23.3402 81.7662 28.5291 75.2737 28.5291ZM75.2979 13.0603C72.3147 13.0603 71.3734 15.4198 71.3734 19.5122C71.3734 23.492 72.1602 25.9102 75.2979 25.9102C78.4355 25.9102 79.4106 23.6242 79.4106 19.5122C79.4106 15.2583 78.5176 13.0603 75.2979 13.0603ZM104.13 28.5291C97.7151 28.5291 97.1407 23.3549 97.1407 19.2283C97.1407 16.017 97.8744 10.4414 104.155 10.4414C110.435 10.4414 111.275 15.0184 111.275 19.2381C111.275 23.3402 110.623 28.5291 104.13 28.5291ZM104.155 13.0603C101.171 13.0603 100.23 15.4198 100.23 19.5122C100.23 23.492 101.012 25.9102 104.155 25.9102C107.297 25.9102 108.267 23.6242 108.267 19.5122C108.267 15.2583 107.35 13.0603 104.155 13.0603ZM117.56 25.6899H125.046C125.36 25.6899 125.529 25.7976 125.529 26.1403V27.8144C125.529 28.1326 125.399 28.304 125.046 28.304H115.127C114.731 28.304 114.6 28.1424 114.6 27.8144V10.6813H117.062C117.4 10.6813 117.545 10.8379 117.545 11.21L117.56 25.6899ZM142.163 27.8144L136.762 11.2197C136.656 10.8771 136.554 10.6666 136.052 10.6666H133.214L127.754 27.7459C127.619 28.1424 127.725 28.2795 128.044 28.2795H130.086C130.247 28.2935 130.407 28.2468 130.536 28.1483C130.666 28.0499 130.754 27.9066 130.786 27.7459L131.964 23.9179H137.346L135.753 21.4213H132.697L134.85 13.8191H134.952L138.939 27.7459C139.069 28.1228 139.175 28.3089 139.595 28.3089H141.903C142.188 28.2942 142.236 28.1082 142.163 27.8144ZM154.304 19.0374L154.28 18.9884C155.979 18.1611 156.375 16.3548 156.375 15.3464C156.375 12.5268 154.589 10.6666 151.103 10.6666H144.582V27.7998C144.582 28.1228 144.712 28.2893 145.156 28.2893H151.818C154.516 28.2893 156.877 26.3997 156.877 23.2619C156.877 21.9353 156.404 19.757 154.304 19.0374ZM151.079 25.685H147.546V13.2415H150.669C152.503 13.2415 153.29 14.2205 153.29 15.5863C153.292 15.8938 153.233 16.1985 153.115 16.4821C152.998 16.7656 152.825 17.022 152.607 17.2358C152.389 17.4495 152.131 17.6162 151.847 17.7256C151.564 17.835 151.261 17.8849 150.959 17.8723H147.98L148.965 20.4031H151.084C152.971 20.4031 153.782 21.6514 153.782 23.0612C153.782 24.471 153.208 25.685 151.084 25.685H151.079ZM66.5125 27.7459L63.0707 20.7017C65.3491 19.8255 66.1842 17.7255 66.1842 15.8408C66.1842 12.1792 63.5389 10.6666 60.8454 10.6666H54.5267V27.7998C54.5267 28.1424 54.657 28.2893 55.048 28.2893H56.9789C57.3457 28.2893 57.4616 28.0739 57.4616 27.7557V13.2953H60.2372C61.7577 13.2953 63.1335 13.8534 63.1335 15.8408C63.1335 18.259 61.4826 18.6555 60.1986 18.6555H57.9105L58.8759 21.1766H60.1744L63.2348 27.8389C63.2866 27.9942 63.3915 28.1254 63.5306 28.209C63.6696 28.2925 63.8336 28.3227 63.9927 28.2942H66.2421C66.5125 28.2942 66.6428 28.0543 66.5125 27.7459ZM46.7212 10.6666H40.75V27.7998C40.75 28.1424 40.9093 28.2893 41.2762 28.2893H43.2408C43.6028 28.2893 43.7235 28.0739 43.7235 27.7998V13.2659H46.3929C48.1741 13.2659 49.352 14.1422 49.352 16.0268C49.352 17.6471 48.5941 18.9199 46.4991 18.9199H44.1435L45.1089 21.4409H46.7019C51.1766 21.4409 52.3303 18.3912 52.3303 15.9485C52.3496 12.4191 49.8878 10.6666 46.7212 10.6666ZM159.662 27.7459C159.063 27.506 159.063 27.2564 159.141 26.9235L159.377 25.8368C159.478 25.3864 159.638 25.3864 160.082 25.4403C161.438 25.6018 163.504 25.8123 164.706 25.8123C166.927 25.8123 168.051 24.9899 168.051 23.4822C168.051 21.5731 167.294 21.0982 164.938 20.6724C161.858 20.0605 159.131 19.3213 159.131 15.6891C159.131 12.3554 161.38 10.5246 165.063 10.5246C166.058 10.5246 168.356 10.6029 169.891 11.2393C170.465 11.4792 170.465 11.7288 170.412 12.0617L170.151 13.1484C170.045 13.5694 169.891 13.5988 169.393 13.5694C168.009 13.3622 166.612 13.2478 165.213 13.2268C162.993 13.2268 162.211 14.103 162.211 15.5863C162.211 17.2555 163.046 17.4954 165.319 17.9164C168.322 18.5283 171.112 19.1891 171.112 23.2179C171.112 27.2466 168.109 28.5145 164.764 28.5145C163.398 28.5145 161.023 28.304 159.662 27.7459Z" fill="#374151"/>
<path d="M7.83984 22.4738V26.8452L26.2409 16.5212V12.1547L7.83984 22.4738ZM7.83984 14.6366V19.0031L17.0404 13.8436V9.47705L7.83984 14.6366ZM26.2409 24.3633V19.9919L17.0404 25.1564V29.5229L26.2409 24.3633Z" fill="#374151"/>
<path d="M17.0446 0L0 9.55542V29.4397L17.0446 39.0049L34.1086 29.4397V9.55542L17.0446 0ZM30.3145 27.1879L17.0446 34.6286L3.77 27.1879V11.8121L17.0446 4.36651L30.3145 11.8121V27.1879Z" fill="#374151"/>
</g>
<defs>
<clipPath id="clip0_7304_4856">
<rect width="173" height="39" fill="white"/>
</clipPath>
</defs>
</svg>
