<svg xmlns="http://www.w3.org/2000/svg" width="107" height="20" viewBox="0 0 107 20" fill="none"><g clip-path="url(#clip0_8302_28493)"><g clip-path="url(#clip1_8302_28493)"><path d="M18.8966 0.0197045V1.49754C18.8966 2.32512 18.2266 2.99507 17.399 2.99507H5.7734C4.25616 2.99507 3.01478 4.23645 3.01478 5.7537C3.01478 7.27094 4.15764 8.41379 5.59606 8.51232H5.67488C5.71429 8.51232 5.7734 8.51232 5.81281 8.51232C5.85222 8.51232 5.91133 8.51232 5.95074 8.51232C5.95074 8.51232 5.95074 8.51232 5.97044 8.51232H6.91626C7.74384 8.51232 8.41379 9.18227 8.41379 10.0099V11.4877H5.73399C5.24138 11.4877 4.70936 11.4089 4.25616 11.2906C2.73892 10.8769 1.45813 9.85222 0.70936 8.51232C0.256158 7.68473 0 6.75862 0 5.7537C0 4.74877 0.256158 3.82266 0.70936 3.01478C1.45813 1.65517 2.71921 0.630542 4.25616 0.216749C4.63054 0.118227 5.00493 0.0591135 5.39902 0.039409H18.8769L18.8966 0.0197045ZM19.0542 11.4877C18.4434 10.3842 17.4778 9.49754 16.2956 8.98522C15.6256 8.68966 14.8966 8.53202 14.1478 8.51232H11.4089V9.99015C11.4089 10.8177 12.0788 11.468 12.8867 11.468H13.9507C13.9704 11.468 14.0493 11.468 14.069 11.468C14.3054 11.468 14.5419 11.5074 14.7586 11.5665C15.2315 11.6847 15.665 11.9409 16 12.2759C16.4926 12.7685 16.8079 13.4581 16.8079 14.2266C16.8079 14.9951 16.4926 15.665 16 16.1773C15.5074 16.6897 14.8177 16.9852 14.0493 16.9852C13.2808 16.9852 14.0296 16.9852 14.0099 16.9852C14.0099 16.9852 13.9901 16.9852 13.9704 16.9852H1.7537C0.926109 16.9852 0.275862 17.6552 0.275862 18.4828V19.9803H13.9704C16.1576 19.9803 18.069 18.7783 19.0345 17.0049C19.4877 16.1773 19.7438 15.2512 19.7438 14.2463C19.7438 13.2414 19.4877 12.2956 19.0345 11.4877H19.0542ZM40.8276 0.0197045C40.1379 0.0197045 39.468 0.256158 38.936 0.70936L30.1478 8.07882L27.8424 10.0099L27.5074 10.3054V1.49754C27.5074 0.669951 26.8374 0 26.0296 0H24.5517V18.4828C24.5517 19.3103 25.2217 19.9803 26.0296 19.9803H27.5074V14.1872L30.1675 11.9606L32.4729 10.0296L35.4089 7.5665L44.3941 0.039409H40.8473L40.8276 0.0197045ZM68.67 0.0591132C67.8818 0.0591132 67.133 0.374384 66.5813 0.926109L60.867 6.6404L59.3301 8.17734L57.9113 9.59606L57.2414 10.266L57.9113 10.936V19.9803H59.3892C60.2168 19.9803 60.867 19.3103 60.867 18.4828V10.798L61.4187 10.2463L71.6453 0.0197045H68.67V0.0591132ZM52.0591 0.926109C51.5074 0.374384 50.7586 0.0591132 49.9704 0.0591132H46.9951L54.0887 7.13301C54.6601 7.70444 55.6059 7.70444 56.1971 7.13301L57.2414 6.08867L52.0788 0.926109H52.0591Z" fill="#003366"></path><path d="M44.4145 20H40.8676C40.237 20 39.6262 19.803 39.1138 19.4286L37.1039 17.734L36.828 17.4975L33.951 15.0739L32.5322 13.8719L33.8919 12.7291C33.9904 12.6305 34.1284 12.5714 34.2466 12.5123C34.621 12.3547 35.0742 12.335 35.4486 12.5123C35.488 12.532 35.5471 12.5517 35.5866 12.5911L38.5621 15.0936L41.4587 17.5172L43.9613 19.6059L44.3948 19.9803H44.4343L44.4145 20Z" fill="#4BBAF4"></path><path d="M94.3848 6.02956H94.1286C91.9216 6.02956 90.1284 7.82266 90.1284 10.0296C90.1284 12.2365 91.9216 14.0296 94.1286 14.0296H94.3848C96.5918 14.0296 98.3849 12.2365 98.3849 10.0296C98.3849 7.82266 96.5918 6.02956 94.3848 6.02956Z" fill="#4BBAF4"></path><path d="M104 0.0591125H76.2563V17.0049C76.2563 18.6601 77.5963 20 79.2514 20H106.995V3.05419C106.995 1.39901 105.655 0.0591125 104 0.0591125ZM84.7884 15.7438H83.9411C83.4682 15.7438 83.0938 15.3695 83.0938 14.8966V7.64532H83.9411C84.414 7.64532 84.7884 8.0197 84.7884 8.49261V15.7438ZM84.7884 5.20197C84.7884 5.67488 84.414 6.04926 83.9411 6.04926C83.4682 6.04926 83.0938 5.67488 83.0938 5.20197C83.0938 4.70936 83.4682 4.33498 83.9411 4.33498C84.414 4.33498 84.7884 4.70936 84.7884 5.18227V5.20197ZM94.2465 15.7635C90.9756 15.7635 88.3352 13.202 88.3352 10.0296C88.3352 6.85714 90.9953 4.29557 94.2465 4.29557C97.4977 4.29557 100.158 6.85714 100.158 10.0296C100.158 13.202 97.4977 15.7635 94.2465 15.7635Z" fill="#4BBAF4"></path></g></g><defs><clipPath id="clip0_8302_28493"><rect width="107" height="20" fill="white"></rect></clipPath><clipPath id="clip1_8302_28493"><rect width="106.995" height="20" fill="white"></rect></clipPath></defs></svg>