<svg width="123" height="23" viewBox="0 0 123 23" fill="none" xmlns="http://www.w3.org/2000/svg">
<path d="M19.3771 11.5C19.3771 4.88266 24.1542 0 30.6285 0C37.0714 0 41.8485 4.88271 41.8485 11.5C41.8485 18.1173 37.0714 23 30.6285 23C24.1542 23 19.3771 18.1173 19.3771 11.5ZM30.5971 18.824C34.3685 18.824 37.1027 15.708 37.1027 11.5C37.1027 7.29191 34.3685 4.14383 30.5971 4.14383C26.8256 4.14383 24.1228 7.29191 24.1228 11.5C24.1228 15.708 26.8256 18.824 30.5971 18.824ZM44.891 0.256965H53.9425C58.6252 0.256965 61.3596 3.2123 61.3596 7.35613C61.3596 11.4678 58.6252 14.4553 53.9425 14.4553H49.6367V22.743H44.891V0.256965ZM53.6596 10.4399C55.8596 10.4399 56.8024 8.99443 56.8024 7.35613C56.8024 5.71787 55.8596 4.27231 53.6596 4.27231H49.6367V10.4399L53.6596 10.4399ZM63.2038 15.0978H67.7296C67.9181 17.3785 69.3953 18.8241 71.7209 18.8241C73.8267 18.8241 75.2409 17.9246 75.2409 16.222C75.2409 11.8212 63.8324 15.1942 63.8324 6.36037C63.8324 2.6341 66.9753 4.39876e-05 71.4381 4.39876e-05C76.1838 4.39876e-05 79.3896 2.79469 79.5152 7.06709H75.0209C74.8639 5.30031 73.5439 4.14387 71.4381 4.14387C69.5838 4.14387 68.421 5.0433 68.421 6.36037C68.421 11.0503 79.9866 7.25975 79.9866 16.1578C79.9866 20.366 76.6553 23 71.721 23C66.7239 23 63.3924 19.884 63.2038 15.0978ZM82.1798 11.5C82.1798 4.88266 86.9568 0 93.4311 0C99.874 0 104.651 4.88271 104.651 11.5C104.651 18.1173 99.874 23 93.4311 23C86.9569 23 82.1798 18.1173 82.1798 11.5ZM93.3997 18.824C97.1711 18.824 99.9054 15.708 99.9054 11.5C99.9054 7.29191 97.1712 4.14383 93.3997 4.14383C89.6282 4.14383 86.9255 7.29191 86.9255 11.5C86.9255 15.708 89.6283 18.824 93.3997 18.824ZM107.694 0.256965H122.654V4.4008H112.408V9.15502H120.58V13.331H112.408V18.5671H123V22.743H107.694V0.256965ZM0 4.4008V0.257099H18.8545V4.4008H0ZM7.04217 4.40088L7.04208 22.743H11.8123V9.27645L7.04217 4.40088Z" fill="black"/>
</svg>
