<svg width="267" height="120" viewBox="0 0 267 120" fill="none" xmlns="http://www.w3.org/2000/svg">
<path fill-rule="evenodd" clip-rule="evenodd" d="M105 71.9996C107 71.9996 109.2 69.7996 109.2 67.7996V50.5996H105V65.5996C105 65.5996 103.6 68.1996 102.8 67.7996C101.8 68.1996 94.6 68.1996 94.2 67.7996V50.5996H90V67.7996C89.6 68.1996 82.4 68.1996 81.4 67.7996C80.6 68.1996 79.2 65.5996 79.2 65.5996V50.5996H75V67.7996C75 69.9996 77.2 71.9996 79.2 71.9996H105Z" fill="#0F1216"/>
<path fill-rule="evenodd" clip-rule="evenodd" d="M40.6016 57H44.8016V74.2H40.6016V57Z" fill="#006599"/>
<path fill-rule="evenodd" clip-rule="evenodd" d="M2 65.5996H36.4V69.7996H2V65.5996Z" fill="#0F1216"/>
<path fill-rule="evenodd" clip-rule="evenodd" d="M49.2031 27H53.4031V80.6H49.2031V27Z" fill="#F6BC25"/>
<path fill-rule="evenodd" clip-rule="evenodd" d="M57.7969 39.8008H61.9969V93.4008H57.7969V39.8008Z" fill="#C51E46"/>
<path fill-rule="evenodd" clip-rule="evenodd" d="M66.3984 31.1992H70.5984V65.5992H66.3984V31.1992Z" fill="#317931"/>
<path fill-rule="evenodd" clip-rule="evenodd" d="M169.598 50.5996V54.7996H182.398V71.9996H186.598V54.7996H199.398V50.5996H169.398H169.598Z" fill="#0F1216"/>
<path fill-rule="evenodd" clip-rule="evenodd" d="M205.997 63.6V65.8C205.997 65.8 207.397 68.4 208.197 68C209.397 68.4 231.797 68.4 231.797 68V72.2H205.997C203.997 72.2 201.797 70 201.797 68V55.2C201.797 53 203.997 51 205.997 51H231.797V55.2C231.797 54.8 209.197 54.8 208.197 55.2C207.397 54.8 205.997 57.4 205.997 57.4V59.6H227.397V63.8H205.997V63.6Z" fill="#0F1216"/>
<path fill-rule="evenodd" clip-rule="evenodd" d="M154.4 67.7996C155.6 68.1996 178 68.1996 178 67.7996V71.9996H152.2C150.2 71.9996 148 69.7996 148 67.7996V50.5996H152.2V65.5996C152.2 65.5996 153.6 68.1996 154.4 67.7996Z" fill="#0F1216"/>
<path fill-rule="evenodd" clip-rule="evenodd" d="M259.803 57.0008C259.803 58.6008 259.003 59.2008 257.403 59.2008H240.403V55.0008H257.403C259.003 55.0008 259.803 55.6008 259.803 57.2008V57.0008ZM264.003 55.0008C264.003 52.8008 261.803 50.8008 259.803 50.8008H236.203V72.2008H240.403V63.6008H257.603L259.803 65.8008V72.2008H264.003V65.8008C264.003 63.6008 262.803 62.4008 261.803 61.6008C262.803 62.6008 264.003 61.4008 264.003 59.4008V55.2008V55.0008Z" fill="#0F1216"/>
<path fill-rule="evenodd" clip-rule="evenodd" d="M139.397 61.3996H117.997V56.5996C117.997 55.5996 118.797 54.9996 120.397 54.9996H137.197C138.797 54.9996 139.597 55.5996 139.597 56.5996V61.3996H139.397ZM128.797 50.5996H117.997C115.997 50.5996 113.797 52.7996 113.797 54.7996V71.9996H117.997V65.5996H139.397V71.9996H143.597V54.7996C143.597 52.5996 141.397 50.5996 139.397 50.5996H128.597H128.797Z" fill="#0F1216"/>
</svg>
