<?xml version="1.0" encoding="UTF-8"?>
<svg xmlns="http://www.w3.org/2000/svg" xmlns:sketch="http://www.bohemiancoding.com/sketch/ns" version="1.1" viewBox="0 0 131 33.3">
  <defs>
    <style>
      .cls-1 {
        fill: #f6bc25;
      }

      .cls-1, .cls-2, .cls-3, .cls-4, .cls-5 {
        fill-rule: evenodd;
      }

      .cls-2 {
        fill: #c51e46;
      }

      .cls-3 {
        fill: #317931;
      }

      .cls-4 {
        fill: #006599;
      }

      .cls-5 {
        fill: #0f1216;
      }
    </style>
  </defs>
  <!-- Generator: Adobe Illustrator 28.6.0, SVG Export Plug-In . SVG Version: 1.2.0 Build 709)  -->
  <g>
    <g id="Layer_1">
      <g id="Page-1" sketch:type="MSPage">
        <g id="Desktop_01_Landingpage_LightImage" sketch:type="MSArtboardGroup">
          <g id="Footer-2" sketch:type="MSLayerGroup">
            <g id="Walter-Logo" sketch:type="MSShapeGroup">
              <path id="Fill-1" class="cls-5" d="M51.5,22.5c1,0,2.1-1.1,2.1-2.1v-8.6h-2.1v7.5s-.7,1.3-1.1,1.1c-.5.2-4.1.2-4.3,0v-8.6h-2.1v8.6c-.2.2-3.8.2-4.3,0-.4.2-1.1-1.1-1.1-1.1v-7.5h-2.1v8.6c0,1.1,1.1,2.1,2.1,2.1h12.9Z"/>
              <path id="Fill-2" class="cls-4" d="M19.3,15h2.1v8.6h-2.1v-8.6Z"/>
              <path id="Fill-3" class="cls-5" d="M0,19.3h17.2v2.1H0v-2.1Z"/>
              <path id="Fill-4" class="cls-1" d="M23.6,0h2.1v26.8h-2.1V0Z"/>
              <path id="Fill-5" class="cls-2" d="M27.9,6.4h2.1v26.8h-2.1V6.4Z"/>
              <path id="Fill-6" class="cls-3" d="M32.2,2.1h2.1v17.2h-2.1V2.1Z"/>
              <path id="Fill-7" class="cls-5" d="M83.8,11.8v2.1h6.4v8.6h2.1v-8.6h6.4v-2.1h-15Z"/>
              <path id="Fill-8" class="cls-5" d="M102,18.3v1.1s.7,1.3,1.1,1.1c.6.2,11.8.2,11.8,0v2.1h-12.9c-1,0-2.1-1.1-2.1-2.1v-6.4c0-1.1,1.1-2.1,2.1-2.1h12.9v2.1c0-.2-11.3-.2-11.8,0-.4-.2-1.1,1.1-1.1,1.1v1.1h10.7v2.1h-10.7Z"/>
              <path id="Fill-9" class="cls-5" d="M76.2,20.4c.6.2,11.8.2,11.8,0v2.1h-12.9c-1,0-2.1-1.1-2.1-2.1v-8.6h2.1v7.5s.7,1.3,1.1,1.1Z"/>
              <path id="Fill-10" class="cls-5" d="M128.9,15c0,.8-.4,1.1-1.2,1.1h-8.5v-2.1h8.5c.8,0,1.2.3,1.2,1.1h0ZM131,14c0-1.1-1.1-2.1-2.1-2.1h-11.8v10.7h2.1v-4.3h8.6l1.1,1.1v3.2h2.1v-3.2c0-1.1-.6-1.7-1.1-2.1.5.5,1.1-.1,1.1-1.1v-2.1Z"/>
              <path id="Fill-11" class="cls-5" d="M68.7,17.2h-10.7v-2.4c0-.5.4-.8,1.2-.8h8.4c.8,0,1.2.3,1.2.8v2.4h0ZM63.4,11.8h-5.4c-1,0-2.1,1.1-2.1,2.1v8.6h2.1v-3.2h10.7v3.2h2.1v-8.6c0-1.1-1.1-2.1-2.1-2.1h-5.4Z"/>
            </g>
          </g>
        </g>
      </g>
    </g>
  </g>
</svg>