<svg width="132" height="60" viewBox="0 0 132 60" fill="none" xmlns="http://www.w3.org/2000/svg">
<path fill-rule="evenodd" clip-rule="evenodd" d="M51.5 35.4998C52.5 35.4998 53.6 34.3998 53.6 33.3998V24.7998H51.5V32.2998C51.5 32.2998 50.8 33.5998 50.4 33.3998C49.9 33.5998 46.3 33.5998 46.1 33.3998V24.7998H44V33.3998C43.8 33.5998 40.2 33.5998 39.7 33.3998C39.3 33.5998 38.6 32.2998 38.6 32.2998V24.7998H36.5V33.3998C36.5 34.4998 37.6 35.4998 38.6 35.4998H51.5Z" fill="#0F1216"/>
<path fill-rule="evenodd" clip-rule="evenodd" d="M19.3008 28H21.4008V36.6H19.3008V28Z" fill="#006599"/>
<path fill-rule="evenodd" clip-rule="evenodd" d="M0 32.2998H17.2V34.3998H0V32.2998Z" fill="#0F1216"/>
<path fill-rule="evenodd" clip-rule="evenodd" d="M23.6016 13H25.7016V39.8H23.6016V13Z" fill="#F6BC25"/>
<path fill-rule="evenodd" clip-rule="evenodd" d="M27.8984 19.4004H29.9984V46.2004H27.8984V19.4004Z" fill="#C51E46"/>
<path fill-rule="evenodd" clip-rule="evenodd" d="M32.1992 15.0996H34.2992V32.2996H32.1992V15.0996Z" fill="#317931"/>
<path fill-rule="evenodd" clip-rule="evenodd" d="M83.7992 24.7998V26.8998H90.1992V35.4998H92.2992V26.8998H98.6992V24.7998H83.6992H83.7992Z" fill="#0F1216"/>
<path fill-rule="evenodd" clip-rule="evenodd" d="M101.998 31.3V32.4C101.998 32.4 102.698 33.7 103.098 33.5C103.698 33.7 114.898 33.7 114.898 33.5V35.6H101.998C100.998 35.6 99.8984 34.5 99.8984 33.5V27.1C99.8984 26 100.998 25 101.998 25H114.898V27.1C114.898 26.9 103.598 26.9 103.098 27.1C102.698 26.9 101.998 28.2 101.998 28.2V29.3H112.698V31.4H101.998V31.3Z" fill="#0F1216"/>
<path fill-rule="evenodd" clip-rule="evenodd" d="M76.2 33.3998C76.8 33.5998 88 33.5998 88 33.3998V35.4998H75.1C74.1 35.4998 73 34.3998 73 33.3998V24.7998H75.1V32.2998C75.1 32.2998 75.8 33.5998 76.2 33.3998Z" fill="#0F1216"/>
<path fill-rule="evenodd" clip-rule="evenodd" d="M128.902 28.0004C128.902 28.8004 128.502 29.1004 127.702 29.1004H119.202V27.0004H127.702C128.502 27.0004 128.902 27.3004 128.902 28.1004V28.0004ZM131.002 27.0004C131.002 25.9004 129.902 24.9004 128.902 24.9004H117.102V35.6004H119.202V31.3004H127.802L128.902 32.4004V35.6004H131.002V32.4004C131.002 31.3004 130.402 30.7004 129.902 30.3004C130.402 30.8004 131.002 30.2004 131.002 29.2004V27.1004V27.0004Z" fill="#0F1216"/>
<path fill-rule="evenodd" clip-rule="evenodd" d="M68.6984 30.1998H57.9984V27.7998C57.9984 27.2998 58.3984 26.9998 59.1984 26.9998H67.5984C68.3984 26.9998 68.7984 27.2998 68.7984 27.7998V30.1998H68.6984ZM63.3984 24.7998H57.9984C56.9984 24.7998 55.8984 25.8998 55.8984 26.8998V35.4998H57.9984V32.2998H68.6984V35.4998H70.7984V26.8998C70.7984 25.7998 69.6984 24.7998 68.6984 24.7998H63.2984H63.3984Z" fill="#0F1216"/>
</svg>
