<svg width="209" height="120" viewBox="0 0 209 120" fill="none" xmlns="http://www.w3.org/2000/svg">
<g clip-path="url(#clip0_5740_3582)">
<path d="M74.3275 52.4453H81.3243L84.6371 72.1641H84.7085L88.1712 52.4453H96.8602L100.466 72.1641H100.537L103.886 52.4453H110.547L104.807 78.1283H96.0105L92.3622 58.4095H92.2908L88.8995 78.1283H80.0249L74.3203 52.4453H74.3275Z" fill="#6B7280"/>
<path d="M118.032 70.4725C118.396 73.1192 120.424 74.1537 123.665 74.1537C125.472 74.1537 127.535 73.7471 129.52 72.6841V77.3569C127.385 78.2059 124.958 78.5697 122.487 78.5697C116.155 78.5697 111.328 74.8528 111.328 68.5248C111.328 62.1968 115.633 58.5156 121.602 58.5156C128.706 58.5156 131.283 63.5523 131.283 69.2597V70.4725H118.032ZM125.322 66.7199C125.322 64.5155 124.294 62.7105 121.638 62.7105C119.246 62.7105 118.104 64.5155 117.954 66.7199H125.315H125.322Z" fill="#6B7280"/>
<path d="M134.742 58.9579H140.782V62.4894H140.854C142.182 59.7284 144.83 58.5156 147.851 58.5156C153.077 58.5156 155.176 62.1969 155.176 66.1706V78.1274H148.55V68.853C148.55 65.2431 147.301 64.0303 145.494 64.0303C142.767 64.0303 141.375 65.9066 141.375 70.0302V78.1203H134.749V58.9508L134.742 58.9579Z" fill="#6B7280"/>
<path d="M174.326 64.4382C173.113 63.7034 171.899 63.3681 170.314 63.3681C167.444 63.3681 165.23 65.3586 165.23 68.6617C165.23 71.7151 167.808 73.7055 170.678 73.7055C172.184 73.7055 173.698 73.3702 174.805 72.7852L174.955 77.7149C173.298 78.2642 171.313 78.5639 169.543 78.5639C163.21 78.5639 158.391 74.8827 158.391 68.5547C158.391 62.2267 163.21 58.5098 169.543 58.5098C171.528 58.5098 173.298 58.8379 174.805 59.5728L174.326 64.4311V64.4382Z" fill="#6B7280"/>
<path d="M176.797 68.5605C176.797 62.1969 181.616 58.5156 187.949 58.5156C194.282 58.5156 199.108 62.1969 199.108 68.5605C199.108 74.9242 194.282 78.5697 187.949 78.5697C181.616 78.5697 176.797 74.8885 176.797 68.5605ZM192.254 68.5605C192.254 65.6926 191.005 63.1528 187.949 63.1528C184.893 63.1528 183.644 65.6926 183.644 68.5605C183.644 71.4285 184.893 73.9325 187.949 73.9325C191.005 73.9325 192.254 71.3928 192.254 68.5605Z" fill="#6B7280"/>
<path d="M203.188 51.4316C205.294 51.4316 207 53.1438 207 55.2413C207 57.3387 205.287 59.0509 203.188 59.0509C201.089 59.0509 199.375 57.3387 199.375 55.2413C199.375 53.1438 201.089 51.4316 203.188 51.4316ZM203.188 58.2091C204.701 58.2091 205.908 57.0034 205.908 55.2413C205.908 53.4791 204.701 52.2735 203.188 52.2735C201.674 52.2735 200.467 53.4863 200.467 55.2413C200.467 56.9963 201.653 58.2091 203.188 58.2091ZM201.653 53.1082H203.252C204.33 53.1082 204.944 53.4221 204.944 54.378C204.944 55.1485 204.48 55.4553 203.823 55.5052L204.944 57.3459H204.016L203.002 55.548H202.566V57.3459H201.66V53.1082H201.653ZM203.302 54.856C203.737 54.856 204.03 54.7847 204.03 54.2996C204.03 53.8644 203.566 53.8144 203.209 53.8144H202.566V54.856H203.309H203.302Z" fill="#6B7280"/>
<path d="M65.105 19.9632C60.8212 16.4318 49.3121 22.8882 36.625 35.1019L36.2466 35.4515L36.9677 34.9235C48.0984 25.1783 58.0153 20.2129 61.4638 23.3448C66.0403 27.4969 60.1429 51.0467 45.0854 67.6194H44.8784L39.3737 52.2595H32.2841L28.65 62.8252C28.1573 64.3519 27.5433 65.9857 27.3434 67.548H27.1007L22.4885 52.2595H12.75L22.4171 77.8783H31.9271C31.9271 77.8783 35.2042 65.2366 35.5968 63.9453H35.961L39.288 77.8283C40.6303 77.8283 45.5424 77.8283 46.8275 77.7713C47.7842 77.7285 51.3755 73.3481 52.0037 72.5419C72.5659 46.0742 70.781 24.6432 65.105 19.9632Z" fill="#6B7280"/>
<path d="M5.46246 97.7398C0.978763 96.4628 3.67755 81.5524 10.3317 68.3471L10.6601 67.5195L10.4174 67.9761C1.76412 83.3074 -1.37018 95.7637 2.88505 99.3165C7.91849 103.518 26.8028 100.679 45.0946 81.1886H41.0179C22.5548 97.3688 10.6244 99.2095 5.4696 97.7398H5.46246Z" fill="#9CA3AF"/>
</g>
<defs>
<clipPath id="clip0_5740_3582">
<rect width="206" height="82" fill="white" transform="translate(1 19)"/>
</clipPath>
</defs>
</svg>
