<svg width="104" height="60" viewBox="0 0 104 60" fill="none" xmlns="http://www.w3.org/2000/svg">
<rect width="104" height="60" fill="white"/>
<g clip-path="url(#clip0_5735_3539)">
<path d="M36.6637 25.7227H40.1622L41.8185 35.5821H41.8542L43.5856 25.7227H47.9301L49.7328 35.5821H49.7685L51.4428 25.7227H54.7734L51.9033 38.5641H47.5053L45.6811 28.7047H45.6454L43.9497 38.5641H39.5124L36.6602 25.7227H36.6637Z" fill="#6B7280"/>
<path d="M58.5161 34.7362C58.6982 36.0596 59.712 36.5768 61.3327 36.5768C62.2359 36.5768 63.2676 36.3735 64.26 35.842V38.1785C63.1926 38.603 61.9788 38.7849 60.7437 38.7849C57.5773 38.7849 55.1641 36.9264 55.1641 33.7624C55.1641 30.5984 57.3167 28.7578 60.301 28.7578C63.853 28.7578 65.1417 31.2762 65.1417 34.1298V34.7362H58.5161ZM62.1609 32.86C62.1609 31.7577 61.6469 30.8553 60.3189 30.8553C59.123 30.8553 58.5518 31.7577 58.4769 32.86H62.1573H62.1609Z" fill="#6B7280"/>
<path d="M66.8711 28.979H69.8912V30.7447H69.9269C70.5908 29.3642 71.9152 28.7578 73.4253 28.7578C76.0384 28.7578 77.0879 30.5984 77.0879 32.5853V38.5637H73.7751V33.9265C73.7751 32.1216 73.1504 31.5152 72.2472 31.5152C70.8836 31.5152 70.1875 32.4533 70.1875 34.5151V38.5601H66.8747V28.9754L66.8711 28.979Z" fill="#6B7280"/>
<path d="M86.6632 31.7191C86.0563 31.3517 85.4494 31.1841 84.6569 31.1841C83.2218 31.1841 82.1152 32.1793 82.1152 33.8308C82.1152 35.3575 83.4039 36.3528 84.839 36.3528C85.5922 36.3528 86.349 36.1851 86.9023 35.8926L86.9773 38.3575C86.1491 38.6321 85.1567 38.7819 84.2714 38.7819C81.1049 38.7819 78.6953 36.9413 78.6953 33.7773C78.6953 30.6133 81.1049 28.7549 84.2714 28.7549C85.2638 28.7549 86.1491 28.919 86.9023 29.2864L86.6632 31.7156V31.7191Z" fill="#6B7280"/>
<path d="M87.8984 33.7803C87.8984 30.5984 90.3081 28.7578 93.4745 28.7578C96.6409 28.7578 99.0541 30.5984 99.0541 33.7803C99.0541 36.9621 96.6409 38.7849 93.4745 38.7849C90.3081 38.7849 87.8984 36.9443 87.8984 33.7803ZM95.6271 33.7803C95.6271 32.3463 95.0024 31.0764 93.4745 31.0764C91.9466 31.0764 91.3219 32.3463 91.3219 33.7803C91.3219 35.2142 91.9466 36.4663 93.4745 36.4663C95.0024 36.4663 95.6271 35.1964 95.6271 33.7803Z" fill="#6B7280"/>
<path d="M101.094 25.2158C102.147 25.2158 103 26.0719 103 27.1206C103 28.1694 102.143 29.0255 101.094 29.0255C100.044 29.0255 99.1875 28.1694 99.1875 27.1206C99.1875 26.0719 100.044 25.2158 101.094 25.2158ZM101.094 28.6045C101.851 28.6045 102.454 28.0017 102.454 27.1206C102.454 26.2396 101.851 25.6367 101.094 25.6367C100.337 25.6367 99.7337 26.2431 99.7337 27.1206C99.7337 27.9981 100.326 28.6045 101.094 28.6045ZM100.326 26.0541H101.126C101.665 26.0541 101.972 26.211 101.972 26.689C101.972 27.0743 101.74 27.2277 101.411 27.2526L101.972 28.1729H101.508L101.001 27.274H100.783V28.1729H100.33V26.0541H100.326ZM101.151 26.928C101.369 26.928 101.515 26.8923 101.515 26.6498C101.515 26.4322 101.283 26.4072 101.104 26.4072H100.783V26.928H101.154H101.151Z" fill="#6B7280"/>
<path d="M32.0525 9.4816C29.9106 7.7159 24.156 10.9441 17.8125 17.0509L17.6233 17.2257L17.9838 16.9618C23.5492 12.0891 28.5077 9.60645 30.2319 11.1724C32.5201 13.2484 29.5715 25.0234 22.0427 33.3097H21.9392L19.1869 25.6298H15.642L13.825 30.9126C13.5787 31.676 13.2717 32.4928 13.1717 33.274H13.0503L10.7442 25.6298H5.875L10.7085 38.4391H15.4635C15.4635 38.4391 17.1021 32.1183 17.2984 31.4726H17.4805L19.144 38.4142C19.8151 38.4142 22.2712 38.4142 22.9138 38.3856C23.3921 38.3642 25.1877 36.1741 25.5019 35.771C35.7829 22.5371 34.8905 11.8216 32.0525 9.4816Z" fill="#6B7280"/>
<path d="M2.23123 48.3699C-0.0106183 47.7314 1.33877 40.2762 4.66585 33.6735L4.83006 33.2598L4.70868 33.4881C0.382062 41.1537 -1.18509 47.3818 0.942524 49.1582C3.45925 51.2592 12.9014 49.8395 22.0473 40.0943H20.0089C10.7774 48.1844 4.81221 49.1047 2.2348 48.3699H2.23123Z" fill="#9CA3AF"/>
</g>
<defs>
<clipPath id="clip0_5735_3539">
<rect width="103" height="41" fill="white" transform="translate(0 9)"/>
</clipPath>
</defs>
</svg>
