<?xml version="1.0" encoding="UTF-8"?>
<svg id="Layer_2" data-name="Layer 2" xmlns="http://www.w3.org/2000/svg" viewBox="0 0 288.53 114.94">
  <defs>
    <style>
      .cls-1 {
        fill: #414042;
      }

      .cls-2 {
        fill: #808285;
      }
    </style>
  </defs>
  <g id="Layer_1-2" data-name="Layer 1">
    <g>
      <g>
        <path class="cls-1" d="M102.71,46.88h9.8l4.64,27.64h.1l4.85-27.64h12.17l5.05,27.64h.1l4.69-27.64h9.33l-8.04,36h-12.32l-5.11-27.64h-.1l-4.75,27.64h-12.43l-7.99-36Z"/>
        <path class="cls-1" d="M163.92,72.15c.51,3.71,3.35,5.16,7.89,5.16,2.53,0,5.42-.57,8.2-2.06v6.55c-2.99,1.19-6.39,1.7-9.85,1.7-8.87,0-15.63-5.21-15.63-14.08s6.03-14.03,14.39-14.03c9.95,0,13.56,7.06,13.56,15.06v1.7h-18.56ZM174.13,66.89c0-3.09-1.44-5.62-5.16-5.62-3.35,0-4.95,2.53-5.16,5.62h10.31Z"/>
        <path class="cls-1" d="M187.33,56.01h8.46v4.95h.1c1.86-3.87,5.57-5.57,9.8-5.57,7.32,0,10.26,5.16,10.26,10.73v16.76h-9.28v-13c0-5.06-1.75-6.76-4.28-6.76-3.82,0-5.77,2.63-5.77,8.41v11.34h-9.28v-26.87Z"/>
        <path class="cls-1" d="M242.77,63.69c-1.7-1.03-3.4-1.5-5.62-1.5-4.02,0-7.12,2.79-7.12,7.42,0,4.28,3.61,7.07,7.63,7.07,2.11,0,4.23-.47,5.78-1.29l.21,6.91c-2.32.77-5.1,1.19-7.58,1.19-8.87,0-15.62-5.16-15.62-14.03s6.75-14.08,15.62-14.08c2.78,0,5.26.46,7.37,1.49l-.67,6.81Z"/>
        <path class="cls-1" d="M246.23,69.47c0-8.92,6.75-14.08,15.62-14.08s15.63,5.16,15.63,14.08-6.76,14.03-15.63,14.03-15.62-5.16-15.62-14.03ZM267.88,69.47c0-4.02-1.75-7.58-6.03-7.58s-6.03,3.56-6.03,7.58,1.75,7.53,6.03,7.53,6.03-3.56,6.03-7.53Z"/>
      </g>
      <path class="cls-1" d="M283.19,45.46c2.95,0,5.34,2.4,5.34,5.34s-2.4,5.34-5.34,5.34-5.34-2.4-5.34-5.34,2.4-5.34,5.34-5.34ZM283.19,54.96c2.12,0,3.81-1.69,3.81-4.16s-1.69-4.16-3.81-4.16-3.81,1.7-3.81,4.16,1.66,4.16,3.81,4.16ZM281.04,47.81h2.24c1.51,0,2.37.44,2.37,1.78,0,1.08-.65,1.51-1.57,1.58l1.57,2.58h-1.3l-1.42-2.52h-.61v2.52h-1.27v-5.94ZM283.35,50.26c.61,0,1.02-.1,1.02-.78,0-.61-.65-.68-1.15-.68h-.9v1.46h1.04Z"/>
    </g>
    <g>
      <path class="cls-1" d="M89.79,1.35c-6-4.95-22.12,4.1-39.89,21.22l-.53.49,1.01-.74c15.59-13.66,29.48-20.62,34.31-16.23,6.41,5.82-1.85,38.83-22.94,62.06h-.29s-7.71-21.53-7.71-21.53h-9.93l-5.09,14.81c-.69,2.14-1.55,4.43-1.83,6.62h-.34l-6.46-21.43h-13.64l13.54,35.91h13.32s4.59-17.72,5.14-19.53h.51l4.66,19.46c1.88,0,8.76,0,10.56-.08,1.34-.06,6.37-6.2,7.25-7.33C100.24,37.95,97.74,7.91,89.79,1.35Z"/>
      <path class="cls-2" d="M6.25,110.37c-6.28-1.79-2.5-22.69,6.82-41.2l.46-1.16-.34.64C1.07,90.14-3.32,107.6,2.64,112.58c7.05,5.89,33.5,1.91,59.12-25.41h-5.71c-25.86,22.68-42.57,25.26-49.79,23.2Z"/>
    </g>
  </g>
</svg>