<svg width="213" height="29" viewBox="0 0 213 29" fill="none" xmlns="http://www.w3.org/2000/svg">
<path fill-rule="evenodd" clip-rule="evenodd" d="M61.1144 26.3346L60.9025 26.5478H60.7966L60.6907 26.6544V26.761L60.4789 26.9743V27.1875L60.3729 27.2941V27.8272L60.4789 27.9338V28.1471L60.5848 28.2537V28.3603L60.9025 28.6801H61.0085L61.3262 28.8934H62.1735L62.2795 28.7868H62.3854L62.915 28.2537V28.1471L63.0209 28.0404V27.1875L62.915 27.0809V26.8676L62.4913 26.4412H62.3854L62.0676 26.2279H61.4321L61.3262 26.3346H61.1144ZM61.4321 27.0809L61.538 26.9743H61.9617L62.1735 27.1875V27.4007L61.9617 27.614H61.538L61.4321 27.5074V27.0809ZM61.538 26.3346H61.9617L62.0676 26.4412L62.3854 26.5478L62.8091 26.9743V27.1875L62.915 27.2941V27.9338L62.8091 28.0404V28.1471L62.4913 28.4669L62.0676 27.9338V27.8272L62.3854 27.5074V27.1875L62.2795 27.0809V26.9743L62.1735 26.8676H61.2203V28.3603H61.4321V27.9338L61.538 27.8272H61.7499L62.1735 28.3603H62.3854L62.4913 28.4669L62.2795 28.6801H62.1735L62.0676 28.7868H61.4321L61.3262 28.6801L61.0085 28.5735L60.6907 28.2537V28.1471L60.4789 27.8272V27.4007L60.5848 27.2941V27.0809L60.7966 26.8676V26.761L60.9025 26.6544H61.0085L61.2203 26.4412H61.4321L61.538 26.3346ZM118.31 16.5257V28.7868H126.465V26.2279H121.17L121.064 26.1213V16.6324L120.958 16.5257H118.31ZM107.4 16.5257L107.294 16.6324V28.7868H115.662V26.5478H110.154L110.048 26.4412V23.7757L110.154 23.6691H114.815V21.4301H110.154L110.048 21.3235V18.9779L110.154 18.8713H115.45V16.5257H107.4ZM96.279 16.5257V28.7868H104.646V26.5478H99.0328L98.9269 26.4412V23.7757L99.0328 23.6691H103.905V21.4301H99.0328L98.9269 21.3235V18.9779L99.0328 18.8713H104.435V16.5257H96.279ZM83.7807 16.5257V19.0846H87.5937L87.6997 19.1912V28.7868H90.3476V19.1912L90.4535 19.0846H94.2665V16.5257H83.7807ZM32.4107 16.5257V28.7868H55.8185L55.9244 28.6801H56.454L56.5599 28.5735H56.8777L56.9836 28.4669H57.1954L57.3013 28.3603H57.5132L57.6191 28.2537H57.725L57.8309 28.1471H57.9368L58.0428 28.0404L58.3605 27.9338L58.6783 27.614H58.7842L59.6315 26.761V26.6544L59.9493 26.3346V26.2279L60.0552 26.1213V26.0147L60.1611 25.9081V25.8015L60.4789 25.2684V25.0551L60.5848 24.9485V24.7353L60.6907 24.6287V24.4154L60.7966 24.3088V23.7757L60.9025 23.6691V21.6434L60.7966 21.5368V21.1103L60.6907 21.0037V20.6838L60.5848 20.5772V20.364L60.4789 20.2574V20.0441L60.3729 19.9375V19.8309L60.267 19.7243V19.6176L60.1611 19.511L60.0552 19.1912L59.8434 18.9779V18.8713L59.5256 18.5515V18.4449L58.8901 17.8051H58.7842L58.4664 17.4853L58.1487 17.3787L57.9368 17.1654H57.8309L57.725 17.0588H57.5132L57.1954 16.8456H56.8777L56.7718 16.739H56.454L56.3481 16.6324H55.6067L55.5007 16.5257H32.4107ZM76.2606 16.4191L76.1546 16.5257H75.8369L75.731 16.6324H75.5191L75.2014 16.8456H74.9896L74.7777 17.0588L74.46 17.1654L73.7185 17.9118V18.0184L73.5067 18.2316V18.3382L73.2949 18.6581V18.9779L73.189 19.0846V19.511L73.083 19.6176V20.364L73.189 20.4706V20.8971L73.2949 21.0037V21.2169L73.4008 21.3235L73.5067 21.6434L73.7185 21.8566V21.9632L74.3541 22.6029H74.46L74.6718 22.8162H74.7777L74.8836 22.9228H74.9896L75.5191 23.2426H75.731L75.8369 23.3493H76.0487L76.1546 23.4559H76.3665L76.4724 23.5625H76.7902L76.8961 23.6691H77.2138L77.3197 23.7757H77.6375L77.7434 23.8824H78.0612L78.1671 23.989H78.3789L78.6967 24.2022H78.9085L79.1203 24.4154H79.2263L79.7558 24.9485V25.1618L79.8618 25.2684V25.8015L79.7558 25.9081L79.6499 26.2279L79.3322 26.5478H79.2263L78.9085 26.761H78.5908L78.4848 26.8676H77.3197L77.2138 26.761H77.002L76.8961 26.6544H76.6842L76.4724 26.4412H76.3665L75.9428 26.0147V25.9081L75.731 25.5882V25.2684L75.6251 25.1618V25.0551H72.9771V25.375L73.083 25.4816V26.0147L73.189 26.1213V26.3346L73.4008 26.6544V26.8676L73.6126 27.0809V27.1875L73.9304 27.5074V27.614L74.0363 27.7206H74.1422L74.5659 28.1471H74.6718L74.7777 28.2537H74.8836L75.0955 28.4669H75.3073L75.6251 28.6801H75.8369L75.9428 28.7868H76.3665L76.4724 28.8934H77.002L77.1079 29H78.8026L78.9085 28.8934H79.4381L79.544 28.7868H79.8618L79.9677 28.6801H80.2854L80.3913 28.5735H80.4973L80.6032 28.4669H80.7091L80.815 28.3603L81.1328 28.2537L81.3446 28.0404H81.4505L81.8742 27.614V27.5074L82.1919 27.1875V27.0809L82.2979 26.9743V26.761L82.4038 26.6544V26.4412L82.5097 26.3346V25.9081L82.6156 25.8015V25.0551L82.5097 24.9485V24.5221L82.4038 24.4154V24.2022L82.2979 24.0956V23.989L82.1919 23.8824L82.086 23.5625L81.3446 22.8162H81.2387L81.0269 22.6029H80.9209L80.815 22.4963H80.7091L80.1795 22.1765H79.9677L79.6499 21.9632H79.4381L79.3322 21.8566H79.0144L78.9085 21.75H78.6967L78.5908 21.6434H78.273L78.1671 21.5368H77.8493L77.7434 21.4301H77.4257L77.3197 21.3235H77.1079L77.002 21.2169H76.8961L76.7902 21.1103H76.6842L76.5783 21.0037L76.2606 20.8971L75.9428 20.5772V20.4706L75.731 20.1507V19.6176L76.1546 18.9779H76.2606L76.4724 18.7647H76.6842L76.7902 18.6581H77.1079L77.2138 18.5515H78.1671L78.273 18.6581H78.5908L78.6967 18.7647L79.0144 18.8713L79.544 19.4044V19.511L79.6499 19.6176V19.8309L79.7558 19.9375V20.364H82.4038V20.1507L82.2979 20.0441V19.4044L82.1919 19.2978V19.0846L82.086 18.9779V18.7647L81.9801 18.6581L81.8742 18.3382L81.6624 18.125V18.0184L80.9209 17.2721H80.815L80.6032 17.0588H80.4973L80.3913 16.9522H80.2854L79.7558 16.6324H79.4381L79.3322 16.5257H79.0144L78.9085 16.4191H78.273L78.1671 16.3125H77.1079L77.002 16.4191H76.2606ZM202.62 0.213235V12.4743H205.268V5.11765L205.374 5.01103L205.586 5.22426V5.33088L205.904 5.65074V5.75735L206.115 5.97059V6.07721L206.433 6.39706V6.50368L206.645 6.71691V6.82353L207.28 7.56985V7.67647L207.492 7.88971V7.99632L208.128 8.74265V8.84926L208.34 9.0625V9.16912L208.657 9.48897V9.59559L208.869 9.80882V9.91544L209.187 10.2353V10.3419L209.505 10.6618V10.7684L209.717 10.9816V11.0882L210.034 11.4081V11.5147L210.246 11.7279V11.8346L210.564 12.1544V12.261L210.776 12.4743H213V0.213235H210.352V7.46324L210.246 7.56985L209.928 7.25V7.14338L209.717 6.93015V6.82353L209.081 6.07721V5.97059L208.869 5.75735V5.65074L208.234 4.90441V4.79779L208.022 4.58456V4.47794L207.704 4.15809V4.05147L207.069 3.30515V3.19853L206.857 2.98529V2.87868L206.221 2.13235V2.02574L206.009 1.8125V1.70588L205.692 1.38603V1.27941L205.374 0.959559V0.852941L205.056 0.533088V0.426471L204.844 0.213235H202.62ZM176.353 0.213235V2.77206H180.06L180.166 2.87868V12.4743H182.919V2.87868L183.025 2.77206H186.732V0.213235H176.353ZM149.873 0.213235V12.4743H152.521V5.11765L152.627 5.01103L152.839 5.22426V5.33088L153.157 5.65074V5.75735L153.368 5.97059V6.07721L153.686 6.39706V6.50368L153.898 6.71691V6.82353L154.534 7.56985V7.67647L154.745 7.88971V7.99632L155.063 8.31618V8.42279L155.275 8.63603V8.74265L155.91 9.48897V9.59559L156.122 9.80882V9.91544L156.44 10.2353V10.3419L156.758 10.6618V10.7684L156.97 10.9816V11.0882L157.287 11.4081V11.5147L157.499 11.7279V11.8346L157.817 12.1544V12.261L158.029 12.4743H160.253V0.213235H157.605V7.46324L157.499 7.56985L157.182 7.25V7.14338L156.97 6.93015V6.82353L156.652 6.50368V6.39706L156.016 5.65074V5.54412L155.805 5.33088V5.22426L155.169 4.47794V4.37132L154.957 4.15809V4.05147L154.639 3.73162V3.625L154.322 3.30515V3.19853L154.11 2.98529V2.87868L153.792 2.55882V2.45221L153.474 2.13235V2.02574L153.263 1.8125V1.70588L152.945 1.38603V1.27941L152.627 0.959559V0.852941L152.415 0.639706V0.533088L152.097 0.213235H149.873ZM144.26 0.213235V12.4743H146.908V0.213235H144.26ZM130.914 0.213235V12.4743H133.562V7.56985L133.668 7.46324H138.328L138.434 7.56985V12.4743H141.082V0.213235H138.434V4.90441L138.328 5.01103H133.668L133.562 4.90441V0.213235H130.914ZM118.522 0.213235V2.77206H122.229L122.335 2.87868V12.4743H125.089V2.87868L125.194 2.77206H129.007V0.319853L128.902 0.213235H118.522ZM107.4 0.213235L107.294 0.319853V12.4743H110.048V8.74265L110.154 8.63603H111.849L112.273 9.16912V9.27574L112.378 9.38235L112.484 9.70221L112.696 9.91544V10.0221L112.802 10.1287L112.908 10.4485L113.12 10.6618V10.7684L113.226 10.875L113.332 11.1949L113.544 11.4081V11.5147L113.649 11.6213L113.755 11.9412L113.967 12.1544L114.073 12.4743H117.251L117.145 12.3676V12.261L116.933 12.0478V11.9412L116.827 11.8346L116.721 11.5147L116.509 11.3015L116.403 10.9816L115.98 10.4485V10.3419L115.874 10.2353L115.768 9.91544L115.556 9.70221L115.45 9.38235L115.238 9.16912L115.132 8.84926L114.92 8.63603V8.52941L114.815 8.42279V8.20956L114.92 8.10294H115.026L115.238 7.88971H115.344L115.556 7.67647H115.662L116.191 7.14338V7.03676L116.615 6.50368V6.39706L116.721 6.29044V6.07721L116.827 5.97059V5.75735L116.933 5.65074V5.22426L117.039 5.11765V3.73162L116.933 3.625V3.19853L116.827 3.09191V2.87868L116.721 2.77206V2.55882L116.615 2.45221V2.34559L116.403 2.13235V2.02574L116.191 1.8125V1.70588L115.662 1.17279H115.556L115.344 0.959559H115.238L115.132 0.852941H115.026L114.497 0.533088H114.285L114.179 0.426471H113.861L113.755 0.319853H113.014L112.908 0.213235H107.4ZM109.942 2.66544L110.048 2.55882H112.802L112.908 2.66544H113.12L113.226 2.77206L113.544 2.87868L114.073 3.41176V3.51838L114.179 3.625V3.83824L114.285 3.94485V5.01103L114.179 5.11765V5.33088L113.967 5.54412V5.65074L113.649 5.97059H113.544L113.014 6.29044H112.484L112.378 6.39706H110.154L109.942 6.18382V2.66544ZM72.8712 0.213235V0.533088L72.9771 0.639706V0.852941L73.083 0.959559V1.27941L73.189 1.38603V1.59926L73.2949 1.70588V1.91912L73.4008 2.02574V2.23897L73.5067 2.34559V2.55882L73.6126 2.66544V2.87868L73.7185 2.98529V3.19853L73.8245 3.30515V3.51838L73.9304 3.625V3.83824L74.0363 3.94485V4.15809L74.1422 4.26471V4.58456L74.2481 4.69118V4.90441L74.3541 5.01103V5.22426L74.46 5.33088V5.54412L74.5659 5.65074V5.86397L74.6718 5.97059V6.18382L74.7777 6.29044V6.50368L74.8836 6.61029V6.82353L74.9896 6.93015V7.14338L75.0955 7.25V7.56985L75.2014 7.67647V7.88971L75.3073 7.99632V8.20956L75.4132 8.31618V8.52941L75.5191 8.63603V8.84926L75.6251 8.95588V9.16912L75.731 9.27574V9.48897L75.8369 9.59559V9.80882L75.9428 9.91544V10.1287L76.0487 10.2353V10.5551L76.1546 10.6618V10.875L76.2606 10.9816V11.1949L76.3665 11.3015V11.5147L76.4724 11.6213V11.8346L76.5783 11.9412V12.1544L76.6842 12.261V12.4743H79.3322L79.4381 12.3676V12.1544L79.544 12.0478V11.8346L79.7558 11.5147V11.3015L79.8618 11.1949V10.9816L79.9677 10.875V10.6618L80.0736 10.5551V10.3419L80.1795 10.2353V10.0221L80.2854 9.91544V9.70221L80.4973 9.38235V9.16912L80.6032 9.0625V8.84926L80.7091 8.74265V8.52941L80.815 8.42279V8.20956L80.9209 8.10294V7.88971L81.1328 7.56985V7.35662L81.2387 7.25V7.03676L81.3446 6.93015V6.71691L81.4505 6.61029V6.39706L81.5564 6.29044V6.07721L81.7683 5.75735V5.54412L81.8742 5.4375V5.22426L81.9801 5.11765V4.90441L82.1919 4.58456L82.4038 4.90441V5.11765L82.5097 5.22426V5.4375L82.6156 5.54412V5.75735L82.7215 5.86397V6.07721L82.9334 6.39706V6.61029L83.0393 6.71691V6.93015L83.1452 7.03676V7.25L83.2511 7.35662V7.56985L83.357 7.67647V7.88971L83.463 7.99632V8.20956L83.6748 8.52941V8.74265L83.7807 8.84926V9.0625L83.8866 9.16912V9.38235L83.9925 9.48897V9.70221L84.0985 9.80882V10.0221L84.2044 10.1287V10.3419L84.4162 10.6618V10.875L84.5221 10.9816V11.1949L84.628 11.3015V11.5147L84.734 11.6213V11.8346L84.8399 11.9412V12.1544L84.9458 12.261V12.3676L85.0517 12.4743H87.5937L87.6997 12.3676V12.1544L87.8056 12.0478V11.8346L87.9115 11.7279V11.5147L88.0174 11.4081V11.1949L88.1233 11.0882V10.875L88.2292 10.7684V10.5551L88.3352 10.4485V10.2353L88.4411 10.1287V9.91544L88.547 9.80882V9.48897L88.6529 9.38235V9.16912L88.7588 9.0625V8.84926L88.8647 8.74265V8.52941L88.9707 8.42279V8.20956L89.0766 8.10294V7.88971L89.1825 7.78309V7.56985L89.2884 7.46324V7.25L89.3943 7.14338V6.93015L89.5002 6.82353V6.61029L89.6062 6.50368V6.18382L89.7121 6.07721V5.86397L89.818 5.75735V5.54412L89.9239 5.4375V5.22426L90.0298 5.11765V4.90441L90.1358 4.79779V4.58456L90.2417 4.47794V4.26471L90.3476 4.15809V3.94485L90.4535 3.83824V3.625L90.5594 3.51838V3.30515L90.6653 3.19853V2.98529L90.7713 2.87868V2.66544L90.8772 2.55882V2.23897L90.9831 2.13235V1.91912L91.089 1.8125V1.59926L91.1949 1.49265V1.27941L91.3008 1.17279V0.959559L91.4068 0.852941V0.639706L91.5127 0.533088V0.213235H88.7588L88.6529 0.319853V0.533088L88.547 0.639706V0.852941L88.4411 0.959559V1.27941L88.3352 1.38603V1.59926L88.2292 1.70588V1.91912L88.1233 2.02574V2.23897L88.0174 2.34559V2.55882L87.9115 2.66544V2.87868L87.8056 2.98529V3.19853L87.6997 3.30515V3.625L87.5937 3.73162V3.94485L87.4878 4.05147V4.26471L87.3819 4.37132V4.58456L87.276 4.69118V4.90441L87.1701 5.01103V5.22426L87.0641 5.33088V5.54412L86.9582 5.65074V5.97059L86.8523 6.07721V6.29044L86.7464 6.39706V6.61029L86.6405 6.71691V6.93015L86.5346 7.03676V7.25L86.4286 7.35662V7.56985L86.3227 7.67647V7.88971L86.2168 7.99632L86.005 7.67647V7.46324L85.8991 7.35662V7.14338L85.7931 7.03676V6.82353L85.6872 6.71691V6.50368L85.4754 6.18382V5.97059L85.3695 5.86397V5.65074L85.2636 5.54412V5.33088L85.1576 5.22426V5.01103L85.0517 4.90441V4.69118L84.9458 4.58456V4.37132L84.8399 4.26471V4.05147L84.628 3.73162V3.51838L84.5221 3.41176V3.19853L84.4162 3.09191V2.87868L84.3103 2.77206V2.55882L84.2044 2.45221V2.23897L84.0985 2.13235V1.91912L83.9925 1.8125V1.59926L83.7807 1.27941V1.06618L83.6748 0.959559V0.746324L83.5689 0.639706V0.426471L83.463 0.319853V0.213235H80.9209L80.815 0.319853V0.533088L80.7091 0.639706V0.852941L80.6032 0.959559V1.17279L80.4973 1.27941V1.49265L80.3913 1.59926V1.8125L80.1795 2.13235V2.34559L80.0736 2.45221V2.66544L79.9677 2.77206V2.98529L79.8618 3.09191V3.30515L79.7558 3.41176V3.625L79.6499 3.73162V3.94485L79.4381 4.26471V4.47794L79.3322 4.58456V4.79779L79.2263 4.90441V5.11765L79.1203 5.22426V5.4375L79.0144 5.54412V5.75735L78.9085 5.86397V6.07721L78.6967 6.39706V6.61029L78.5908 6.71691V6.93015L78.4848 7.03676V7.25L78.3789 7.35662V7.56985L78.273 7.67647V7.88971L78.1671 7.99632L78.0612 7.88971V7.67647L77.9552 7.56985V7.35662L77.8493 7.25V7.03676L77.7434 6.93015V6.71691L77.6375 6.61029V6.39706L77.5316 6.29044V6.07721L77.4257 5.97059V5.65074L77.3197 5.54412V5.33088L77.2138 5.22426V5.01103L77.1079 4.90441V4.69118L77.002 4.58456V4.37132L76.8961 4.26471V4.05147L76.7902 3.94485V3.73162L76.6842 3.625V3.30515L76.5783 3.19853V2.98529L76.4724 2.87868V2.66544L76.3665 2.55882V2.34559L76.2606 2.23897V2.02574L76.1546 1.91912V1.70588L76.0487 1.59926V1.27941L75.9428 1.17279V0.959559L75.8369 0.852941V0.639706L75.731 0.533088V0.319853L75.6251 0.213235H72.8712ZM32.4107 4.26471V4.58456L32.3048 4.69118V5.11765L32.1989 5.22426V7.46324L32.3048 7.56985V7.99632L32.4107 8.10294V8.42279L32.5167 8.52941V8.74265L32.6226 8.84926V8.95588L32.7285 9.0625V9.16912L32.8344 9.27574V9.38235L32.9403 9.48897V9.59559L33.0462 9.70221L33.1522 10.0221L33.4699 10.3419V10.4485L34.3173 11.3015H34.4232L34.7409 11.6213H34.8468L34.9528 11.7279H35.0587L35.5883 12.0478H35.8001L35.906 12.1544H36.1179L36.2238 12.261H36.5415L36.6474 12.3676H37.177L37.2829 12.4743H60.6907V0.213235H37.4948L37.3889 0.319853H36.6474L36.5415 0.426471H36.2238L36.1179 0.533088H35.906L35.8001 0.639706H35.5883L35.4823 0.746324H35.3764L35.2705 0.852941L34.9528 0.959559L34.4232 1.38603H34.3173L33.4699 2.23897V2.34559L33.1522 2.66544V2.77206L33.0462 2.87868V2.98529L32.9403 3.09191V3.19853L32.6226 3.73162V3.94485L32.4107 4.26471ZM16.2054 0.213235V24.2022L16.3113 24.3088V24.7353L16.4172 24.8419V25.1618L16.629 25.4816V25.6949L16.735 25.8015L16.8409 26.1213L17.0527 26.3346V26.4412L17.2645 26.6544V26.761L18.2178 27.7206H18.3237L18.6415 28.0404H18.7474L18.8533 28.1471H18.9592L19.0651 28.2537H19.1711L19.7006 28.5735H19.9125L20.0184 28.6801H20.2302L20.3362 28.7868H20.7598L20.8657 28.8934H21.3953L21.5012 29H22.9841L23.09 28.8934H23.6196L23.7255 28.7868H24.0433L24.1492 28.6801H24.4669L24.5728 28.5735H24.6788L24.7847 28.4669H24.9965L25.1024 28.3603H25.2084L25.3143 28.2537L25.632 28.1471L25.8439 27.9338H25.9498L26.2675 27.614H26.3734L27.1149 26.8676V26.761L27.4326 26.4412V26.3346L27.5385 26.2279V26.1213L27.6445 26.0147V25.9081L27.9622 25.375V25.1618L28.0681 25.0551V24.7353L28.174 24.6287V24.2022L28.28 24.0956V0.213235H16.2054ZM0 0.213235V24.3088L0.105917 24.4154V24.7353L0.211835 24.8419V25.1618L0.317752 25.2684V25.4816L0.42367 25.5882V25.6949L0.529587 25.8015V25.9081L0.635505 26.0147L0.741422 26.3346L1.05917 26.6544V26.761L2.01243 27.7206H2.11835L2.4361 28.0404H2.54202L2.64794 28.1471H2.75385L2.85977 28.2537H2.96569L3.49528 28.5735H3.70711L3.81303 28.6801H4.02486L4.13078 28.7868H4.55445L4.66037 28.8934H5.18996L5.29587 29H6.77872L6.88463 28.8934H7.41422L7.52014 28.7868H7.83789L7.94381 28.6801H8.26156L8.36748 28.5735H8.4734L8.57931 28.4669H8.79115L8.89707 28.3603L9.21482 28.2537L9.42665 28.0404L9.74441 27.9338L10.0622 27.614H10.1681L10.9095 26.8676V26.761L11.3332 26.2279V26.1213L11.4391 26.0147V25.9081L11.7568 25.375V25.1618L11.8628 25.0551V24.7353L11.9687 24.6287V24.0956L12.0746 23.989V0.213235H0ZM193.511 0L193.405 0.106618H192.77L192.664 0.213235H192.346L192.24 0.319853H191.922L191.817 0.426471H191.605L191.499 0.533088H191.393L191.287 0.639706H191.181L191.075 0.746324H190.969L190.863 0.852941L190.545 0.959559L190.334 1.17279H190.228L189.91 1.49265H189.804L189.169 2.13235V2.23897L188.851 2.55882V2.66544L188.639 2.87868V2.98529L188.533 3.09191V3.19853L188.215 3.73162V3.94485L188.109 4.05147V4.26471L188.003 4.37132V4.69118L187.898 4.79779V5.22426L187.792 5.33088V7.35662L187.898 7.46324V7.99632L188.003 8.10294V8.31618L188.109 8.42279V8.63603L188.215 8.74265V8.95588L188.321 9.0625V9.16912L188.427 9.27574V9.38235L188.533 9.48897L188.639 9.80882L188.851 10.0221V10.1287L189.063 10.3419V10.4485L189.91 11.3015H190.016L190.334 11.6213L190.651 11.7279L190.863 11.9412H190.969L191.075 12.0478H191.287L191.605 12.261H191.817L191.922 12.3676H192.134L192.24 12.4743H192.558L192.664 12.5809H193.299L193.405 12.6875H194.888L194.994 12.5809H195.63L195.735 12.4743H196.053L196.159 12.3676H196.371L196.477 12.261H196.689L196.795 12.1544H197.006L197.112 12.0478H197.218L197.324 11.9412L197.642 11.8346L197.854 11.6213H197.96L198.172 11.4081H198.277L199.337 10.3419V10.2353L199.76 9.70221V9.59559L200.078 9.0625V8.84926L200.29 8.52941V8.20956L200.396 8.10294V7.67647L200.502 7.56985V6.82353L200.608 6.71691V5.97059L200.502 5.86397V5.11765L200.396 5.01103V4.58456L200.29 4.47794V4.26471L200.184 4.15809V3.94485L200.078 3.83824V3.625L199.972 3.51838V3.41176L199.866 3.30515L199.76 2.98529L199.548 2.77206V2.66544L199.231 2.34559V2.23897L198.383 1.38603H198.277L197.96 1.06618L197.642 0.959559L197.43 0.746324H197.324L197.218 0.639706H197.006L196.689 0.426471H196.477L196.371 0.319853H196.159L196.053 0.213235H195.63L195.524 0.106618H194.888L194.782 0H193.511ZM193.511 2.55882H194.782L194.888 2.66544H195.206L195.312 2.77206H195.524L195.63 2.87868H195.841L196.053 3.09191L196.371 3.19853L197.112 3.94485V4.05147L197.324 4.26471V4.37132L197.642 4.90441V5.22426L197.748 5.33088V5.75735L197.854 5.86397V6.93015L197.748 7.03676V7.46324L197.642 7.56985V7.78309L197.536 7.88971V7.99632L197.43 8.10294V8.20956L197.324 8.31618L197.218 8.63603L196.371 9.48897H196.265L196.053 9.70221H195.947L195.63 9.91544H195.418L195.312 10.0221H194.994L194.888 10.1287H193.405L193.299 10.0221H192.982L192.876 9.91544H192.664L192.558 9.80882L192.24 9.70221L192.028 9.48897H191.922L191.181 8.74265V8.63603L190.969 8.42279V8.31618L190.757 7.99632V7.78309L190.651 7.67647V7.46324L190.545 7.35662V6.82353L190.44 6.71691V5.97059L190.545 5.86397V5.33088L190.651 5.22426V5.01103L190.757 4.90441V4.69118L190.863 4.58456V4.47794L191.075 4.26471V4.15809L191.287 3.94485V3.83824L191.817 3.30515H191.922L192.134 3.09191H192.24L192.77 2.77206H192.982L193.088 2.66544H193.405L193.511 2.55882ZM168.303 0L168.197 0.106618H167.561L167.455 0.213235H167.032L166.926 0.319853H166.714L166.608 0.426471H166.396L166.29 0.533088H166.184L166.079 0.639706H165.973L165.867 0.746324H165.761L165.655 0.852941L165.337 0.959559L165.125 1.17279H165.019L164.702 1.49265H164.596L163.96 2.13235V2.23897L163.642 2.55882V2.66544L163.431 2.87868V2.98529L163.325 3.09191V3.19853L163.007 3.73162V3.94485L162.901 4.05147V4.26471L162.795 4.37132V4.69118L162.689 4.79779V5.33088L162.583 5.4375V7.25L162.689 7.35662V7.88971L162.795 7.99632V8.31618L162.901 8.42279V8.63603L163.007 8.74265V8.95588L163.113 9.0625V9.16912L163.219 9.27574V9.38235L163.325 9.48897L163.431 9.80882L163.642 10.0221V10.1287L163.96 10.4485V10.5551L164.702 11.3015H164.808L165.337 11.7279L165.655 11.8346L165.867 12.0478H166.079L166.396 12.261H166.608L166.714 12.3676H166.926L167.032 12.4743H167.35L167.455 12.5809H168.091L168.197 12.6875H169.68L169.786 12.5809H170.421L170.527 12.4743H170.845L170.951 12.3676H171.163L171.269 12.261H171.48L171.586 12.1544H171.692L171.798 12.0478H171.904L172.01 11.9412H172.116L172.222 11.8346L172.54 11.7279L172.857 11.4081H172.963L174.022 10.3419V10.2353L174.234 10.0221L174.34 9.70221L174.552 9.48897V9.38235L174.658 9.27574V9.0625L174.764 8.95588V8.84926L174.87 8.74265V8.52941L174.976 8.42279V8.10294L175.082 7.99632V7.67647L175.187 7.56985V6.82353L175.293 6.71691V5.97059L175.187 5.86397H168.409V7.99632H172.116L172.222 8.10294V8.31618L172.116 8.42279V8.52941L171.904 8.74265V8.84926L171.163 9.59559H171.057L170.845 9.80882H170.739L170.421 10.0221H170.209L170.103 10.1287H169.68L169.574 10.2353H168.303L168.197 10.1287H167.879L167.773 10.0221H167.561L167.455 9.91544H167.35L167.244 9.80882L166.926 9.70221L166.608 9.38235H166.502L165.867 8.63603V8.52941L165.761 8.42279V8.31618L165.443 7.78309V7.56985L165.337 7.46324V6.93015L165.231 6.82353V5.97059L165.337 5.86397V5.33088L165.443 5.22426V4.90441L165.549 4.79779V4.69118L165.655 4.58456V4.47794L165.761 4.37132L165.867 4.05147L166.82 3.09191H166.926L167.138 2.87868H167.244L167.35 2.77206H167.561L167.667 2.66544H167.879L167.985 2.55882H168.409L168.515 2.45221H169.362L169.468 2.55882H169.892L169.998 2.66544H170.209L170.315 2.77206H170.527L170.633 2.87868H170.739L170.951 3.09191H171.057L171.904 3.94485V4.05147L172.01 4.15809H174.976L174.87 4.05147V3.83824L174.658 3.51838V3.30515L174.552 3.19853V3.09191L174.34 2.87868V2.77206L174.128 2.55882V2.45221L173.705 2.02574V1.91912L173.493 1.70588H173.387L172.963 1.27941H172.857L172.328 0.852941H172.222L171.692 0.533088H171.48L171.374 0.426471H171.163L171.057 0.319853H170.845L170.739 0.213235H170.315L170.209 0.106618H169.574L169.468 0H168.303ZM97.3381 0.106618L97.2322 0.213235H96.9145L96.8086 0.319853H96.5967L96.4908 0.426471H96.279L96.173 0.533088H95.9612L95.8553 0.639706H95.7494L95.6435 0.746324L95.3257 0.852941L95.1139 1.06618H95.008L94.7961 1.27941H94.6902L93.631 2.34559V2.45221L93.3133 2.77206V2.87868L93.2074 2.98529V3.09191L93.1014 3.19853V3.30515L92.7837 3.83824V4.05147L92.6778 4.15809V4.37132L92.5719 4.47794V4.90441L92.4659 5.01103V5.65074L92.36 5.75735V6.93015L92.4659 7.03676V7.67647L92.5719 7.78309V8.20956L92.6778 8.31618V8.52941L92.7837 8.63603V8.84926L92.8896 8.95588V9.0625L92.9955 9.16912V9.27574L93.1014 9.38235V9.48897L93.2074 9.59559L93.3133 9.91544L93.5251 10.1287V10.2353L93.9488 10.6618V10.7684L94.2665 11.0882H94.3725L94.7961 11.5147H94.902L95.1139 11.7279H95.2198L95.3257 11.8346H95.4316L95.5375 11.9412H95.6435L96.173 12.261H96.3849L96.4908 12.3676H96.8086L96.9145 12.4743H97.2322L97.3381 12.5809H97.9736L98.0796 12.6875H99.4565L99.5624 12.5809H100.198L100.304 12.4743H100.622L100.727 12.3676H101.045L101.151 12.261H101.363L101.469 12.1544H101.575L101.681 12.0478H101.787L101.893 11.9412H101.999L102.104 11.8346L102.422 11.7279L102.634 11.5147H102.74L103.164 11.0882H103.27L103.587 10.7684V10.6618L104.011 10.2353V10.1287L104.435 9.59559V9.48897L104.646 9.16912V8.95588L104.752 8.84926V8.63603L104.858 8.52941V8.31618L104.964 8.20956V7.88971L105.07 7.78309V7.25L105.176 7.14338V5.65074L105.07 5.54412V4.90441L104.964 4.79779V4.47794L104.858 4.37132V4.15809L104.752 4.05147V3.83824L104.646 3.73162V3.625L104.541 3.51838V3.41176L104.435 3.30515V3.19853L104.329 3.09191L104.223 2.77206L104.011 2.55882V2.45221L102.846 1.27941H102.74L102.21 0.852941H102.104L101.575 0.533088H101.363L101.257 0.426471H101.045L100.939 0.319853H100.727L100.622 0.213235H100.304L100.198 0.106618H99.4565L99.3506 0H98.1855L98.0796 0.106618H97.3381ZM97.6559 2.66544H98.0796L98.1855 2.55882H99.3506L99.4565 2.66544H99.8802L99.9861 2.77206H100.198L100.304 2.87868H100.41L100.516 2.98529L100.833 3.09191L101.257 3.51838H101.363L101.469 3.625V3.73162L101.893 4.15809V4.26471L102.21 4.79779V5.01103L102.316 5.11765V5.4375L102.422 5.54412V7.14338L102.316 7.25V7.56985L102.21 7.67647V7.88971L102.104 7.99632V8.10294L101.999 8.20956L101.893 8.52941L101.575 8.84926V8.95588L100.833 9.59559H100.727L100.198 9.91544H99.9861L99.8802 10.0221H99.6683L99.5624 10.1287H98.0796L97.9736 10.0221H97.6559L97.55 9.91544H97.3381L97.2322 9.80882H97.1263L97.0204 9.70221L96.7026 9.59559L96.3849 9.27574H96.279L95.6435 8.52941V8.42279L95.3257 7.88971V7.67647L95.2198 7.56985V7.25L95.1139 7.14338V5.54412L95.2198 5.4375V5.11765L95.3257 5.01103V4.79779L95.4316 4.69118V4.58456L95.5375 4.47794L95.6435 4.15809L96.5967 3.19853H96.7026L96.9145 2.98529H97.0204L97.3381 2.77206H97.55L97.6559 2.66544Z" fill="#374151"/>
</svg>
