<svg id="Layer_2" data-name="Layer 2" xmlns="http://www.w3.org/2000/svg" viewBox="0 0 183 182"><defs><style>.cls-1{fill:url(#linear-gradient)}.cls-1,.cls-2,.cls-3,.cls-4,.cls-5,.cls-6{stroke-width:0}.cls-2{fill:#374151}.cls-3{fill:#1f2937}.cls-4{fill:#9ca3af}.cls-5{fill:#fff}.cls-6{fill:#ed4e4e}</style><linearGradient id="linear-gradient" x1="1" y1="111" x2="182" y2="111" gradientUnits="userSpaceOnUse"><stop offset="0" stop-color="#9ca3af"/><stop offset=".53" stop-color="#f9f8fb"/><stop offset="1" stop-color="#9ca3af"/></linearGradient></defs><g id="Finals"><rect class="cls-3" x=".5" y=".5" width="182" height="181" rx="8.32" ry="8.32"/><path class="cls-4" d="M174.18 1C178.5 1 182 4.5 182 8.82v164.37c0 4.32-3.5 7.82-7.82 7.82H8.82c-4.32 0-7.82-3.5-7.82-7.82V8.82C1 4.5 4.5 1 8.82 1h165.37m0-1H8.82C3.96 0 0 3.96 0 8.82v164.37c0 4.86 3.96 8.82 8.82 8.82h165.37c4.86 0 8.82-3.96 8.82-8.82V8.82c0-4.86-3.96-8.82-8.82-8.82z"/><path class="cls-1" d="M1 61H182V161H1z"/><path class="cls-2" d="M42.19 98.76c-.63 2.73-1.82 4.82-3.58 6.29-1.81 1.45-3.96 2.18-6.43 2.18-2.24-.05-4.11-.62-5.61-1.69-1.52-1.04-2.63-2.23-3.32-3.59-.21-.44-.4-.87-.57-1.27-.16-.42-.29-.94-.39-1.57-.2-1.18-.29-3.46-.29-6.82s.1-5.7.29-6.86c.21-1.16.53-2.09.96-2.81.69-1.36 1.8-2.57 3.32-3.63 1.5-1.08 3.37-1.63 5.61-1.65 2.75.03 4.99.87 6.72 2.52 1.73 1.67 2.83 3.73 3.28 6.19H37.6c-.35-1.19-.99-2.2-1.92-3.03-.97-.79-2.14-1.21-3.52-1.23-1.02.03-1.89.24-2.62.63-.74.41-1.34.91-1.8 1.52-.56.63-.93 1.45-1.12 2.45-.21 1.05-.31 3.03-.31 5.93s.1 4.86.31 5.89c.18 1.02.55 1.85 1.12 2.49.46.61 1.06 1.1 1.8 1.48.73.45 1.61.67 2.62.67 2.43 0 4.24-1.34 5.45-4.02h4.58zm6.47-.66c0 1.68.47 2.96 1.41 3.84.87.89 2.02 1.33 3.44 1.33 1.66 0 3.14-.68 4.44-2.04l2.95 2.61c-2.07 2.29-4.51 3.41-7.31 3.39-1.07 0-2.11-.16-3.13-.48-.51-.18-1-.41-1.49-.71-.51-.26-.98-.57-1.43-.95-.86-.78-1.56-1.87-2.09-3.27-.59-1.35-.88-3.09-.88-5.25s.25-3.79.76-5.17c.51-1.4 1.16-2.5 1.95-3.31.81-.82 1.71-1.41 2.72-1.78.99-.36 1.97-.54 2.93-.54 2.32.03 4.28.81 5.88 2.36 1.63 1.57 2.46 3.74 2.48 6.5v3.47H48.64zm8.58-3.47c-.05-1.64-.48-2.87-1.27-3.71-.78-.8-1.79-1.2-3.02-1.2s-2.23.4-3.02 1.2c-.77.84-1.2 2.08-1.27 3.71h8.58zm9.02-8.59h4.07v2.22h.09c1.34-1.66 3.1-2.48 5.28-2.48 1.63.03 3.05.56 4.26 1.61l-2.97 3.64c-.86-.7-1.75-1.05-2.68-1.05-1.04 0-1.94.35-2.68 1.05-.84.69-1.27 1.8-1.29 3.33v12.63h-4.07V86.04zm16.33-6.38h4.07v6.38h2.97v3.23h-2.97v12.21c-.03 1.06.46 1.58 1.45 1.55h1.53v3.95h-2.13c-1.43 0-2.6-.46-3.51-1.37-.94-.87-1.41-2.14-1.41-3.79V89.26h-2.04v-3.23h2.04v-6.38zm11.36-2.1h4.07v4.2h-4.07v-4.2zm0 8.48h4.07v20.95h-4.07V86.04zm10.43 3.22h-2.06v-3.23h2.06v-2.76c0-1.99.53-3.46 1.6-4.4 1.04-.88 2.35-1.31 3.93-1.31h2.64v3.95h-2.33c-1.23-.04-1.82.54-1.76 1.74v2.78h4.09v3.23h-4.09v17.72h-4.07V89.26zm10.96-11.7h4.07v4.2h-4.07v-4.2zm0 8.48h4.07v20.95h-4.07V86.04zm12.85 12.06c0 1.68.47 2.96 1.41 3.84.87.89 2.02 1.33 3.44 1.33 1.66 0 3.14-.68 4.44-2.04l2.95 2.61c-2.07 2.29-4.51 3.41-7.31 3.39-1.07 0-2.11-.16-3.13-.48-.51-.18-1-.41-1.49-.71-.51-.26-.98-.57-1.43-.95-.86-.78-1.56-1.87-2.09-3.27-.59-1.35-.88-3.09-.88-5.25s.25-3.79.76-5.17c.51-1.4 1.16-2.5 1.95-3.31.81-.82 1.71-1.41 2.72-1.78.99-.36 1.97-.54 2.93-.54 2.32.03 4.28.81 5.88 2.36 1.63 1.57 2.46 3.74 2.48 6.5v3.47h-12.65zm8.58-3.47c-.05-1.64-.48-2.87-1.27-3.71-.78-.8-1.79-1.2-3.02-1.2s-2.23.4-3.02 1.2c-.77.84-1.2 2.08-1.27 3.71h8.58zm21.16 10.17c-1.34 1.57-3.09 2.38-5.25 2.43-1.22-.03-2.27-.29-3.14-.79a6.918 6.918 0 0 1-2.29-1.94c-.56-.66-.93-1.56-1.11-2.69-.22-1.08-.33-2.85-.33-5.33s.11-4.31.33-5.37c.18-1.08.55-1.95 1.11-2.61 1.15-1.75 2.96-2.66 5.43-2.73 1.04 0 2.01.22 2.89.66.82.47 1.61 1.07 2.36 1.81V77.56H162v29.43h-4.07v-2.19zm-4.01-14.83c-.96 0-1.7.17-2.21.51-.56.36-.97.86-1.23 1.5-.25.64-.41 1.32-.49 2.07-.08.8-.12 1.61-.12 2.45s.04 1.57.12 2.33c.08.8.24 1.51.49 2.15.26.61.67 1.11 1.23 1.5.51.38 1.24.57 2.21.57s1.73-.2 2.29-.61c.56-.39.95-.9 1.15-1.54.26-.63.44-1.34.53-2.13.03-.77.04-1.53.04-2.27a58 58 0 0 0-.04-2.33c-.09-.74-.27-1.43-.53-2.07-.21-.63-.59-1.15-1.15-1.54s-1.32-.59-2.29-.59zM22 115.01h9.97c3.86.03 6.75 1.68 8.68 4.97.69 1.1 1.13 2.26 1.31 3.47.14 1.21.21 3.3.21 6.28 0 3.16-.11 5.37-.33 6.62-.1.63-.26 1.2-.47 1.69-.22.48-.49.99-.8 1.51-.83 1.39-1.99 2.53-3.48 3.43-1.47.97-3.28 1.45-5.42 1.45h-9.68V115zm4.31 25.23h5.17c2.43 0 4.19-.86 5.28-2.57.48-.63.79-1.44.92-2.41.12-.96.18-2.75.18-5.38s-.06-4.4-.18-5.5c-.16-1.11-.53-2-1.12-2.69-1.2-1.71-2.9-2.54-5.09-2.49H26.3v21.03zm24.43-4.68c0 1.68.47 2.96 1.41 3.84.87.89 2.02 1.33 3.44 1.33 1.66 0 3.14-.68 4.44-2.04l2.95 2.61c-2.07 2.29-4.51 3.41-7.31 3.39-1.07 0-2.11-.16-3.13-.48-.51-.18-1-.41-1.49-.71-.51-.26-.98-.57-1.43-.95-.86-.78-1.56-1.87-2.09-3.27-.59-1.35-.88-3.09-.88-5.25s.25-3.79.76-5.17c.51-1.4 1.16-2.5 1.95-3.31.81-.82 1.71-1.41 2.72-1.78.99-.36 1.97-.54 2.93-.54 2.32.03 4.28.81 5.88 2.36 1.63 1.57 2.46 3.74 2.48 6.5v3.47H50.72zm8.58-3.47c-.05-1.64-.48-2.87-1.27-3.71-.78-.8-1.79-1.2-3.02-1.2s-2.23.4-3.02 1.2c-.77.84-1.2 2.08-1.27 3.71h8.58zm5.89-8.6h4.32l4.77 14.68h.08l4.75-14.68h4.34l-7.44 20.95h-3.36l-7.44-20.95zm21.35-8.48h4.07v4.2h-4.07v-4.2zm0 8.48h4.07v20.95h-4.07v-20.95zm24.73 17.58a11.17 11.17 0 0 1-3.13 2.55c-1.2.68-2.59 1.04-4.17 1.06-2.39 0-4.5-.84-6.3-2.52-1.87-1.68-2.84-4.41-2.89-8.17.05-3.81 1.02-6.57 2.89-8.27 1.81-1.68 3.91-2.51 6.31-2.48 1.58.03 2.96.36 4.16 1.01 1.2.66 2.24 1.54 3.13 2.64l-3.01 2.76c-1.03-1.42-2.4-2.15-4.13-2.21-3.47-.05-5.23 2.13-5.28 6.56.05 4.4 1.81 6.57 5.28 6.5 1.72-.03 3.1-.76 4.12-2.19l3.01 2.77zm6.47-5.51c0 1.68.47 2.96 1.41 3.84.87.89 2.02 1.33 3.44 1.33 1.66 0 3.14-.68 4.44-2.04l2.95 2.61c-2.07 2.29-4.51 3.41-7.31 3.39-1.07 0-2.11-.16-3.13-.48-.51-.18-1-.41-1.49-.71-.51-.26-.98-.57-1.43-.95-.86-.78-1.56-1.87-2.09-3.27-.59-1.35-.88-3.09-.88-5.25s.25-3.79.76-5.17c.51-1.4 1.16-2.5 1.95-3.31.81-.82 1.71-1.41 2.72-1.78.99-.36 1.97-.54 2.93-.54 2.32.03 4.28.81 5.88 2.36 1.63 1.57 2.46 3.74 2.48 6.5v3.47h-12.65zm8.58-3.47c-.05-1.64-.48-2.87-1.27-3.71-.78-.8-1.79-1.2-3.02-1.2s-2.23.4-3.02 1.2c-.77.84-1.2 2.08-1.27 3.71h8.58z"/><g><path class="cls-5" d="M62.92 21.95h-8.21c-.56 0-1.01.17-1.35.51s-.51.79-.51 1.35v13.95c0 .58.15 1 .45 1.24.3.24.78.37 1.44.37.32 0 .63-.02.93-.07.3-.05.53-.09.68-.13v-6.81h4.72c.39 0 .7-.13.93-.38.23-.25.34-.62.34-1.09 0-.28-.04-.54-.13-.77-.08-.23-.17-.43-.27-.58h-5.59V24.8h5.68c.39 0 .7-.13.93-.38.23-.25.34-.62.34-1.11 0-.28-.04-.54-.11-.79a2.3 2.3 0 0 0-.25-.56zm4.19 0c-.32 0-.62.03-.9.08-.28.06-.5.1-.65.14v15.64c0 .58.15.99.46 1.21.31.23.77.34 1.4.34.34 0 .64-.02.92-.07.27-.05.48-.1.63-.16V23.52c0-.58-.15-.99-.45-1.23-.3-.23-.77-.35-1.41-.35zm15.52 4.4c-1.04-.58-2.26-.87-3.65-.87s-2.59.29-3.64.87c-1.05.58-1.87 1.4-2.45 2.45-.58 1.05-.87 2.3-.87 3.75s.29 2.7.86 3.75a6.01 6.01 0 0 0 2.43 2.44c1.05.57 2.27.86 3.66.86s2.64-.29 3.68-.86a5.951 5.951 0 0 0 2.42-2.45c.57-1.06.86-2.31.86-3.73s-.29-2.7-.87-3.75a6.16 6.16 0 0 0-2.43-2.45zm-1.13 9.4c-.61.76-1.45 1.14-2.52 1.14s-1.91-.38-2.52-1.13c-.61-.75-.92-1.82-.92-3.21s.31-2.44.93-3.21c.62-.77 1.46-1.16 2.5-1.16s1.91.39 2.52 1.16c.61.77.92 1.84.92 3.21s-.31 2.44-.92 3.2zm38.19-13.8h-8.21c-.56 0-1.01.17-1.35.51s-.51.79-.51 1.35v13.95c0 .58.15 1 .45 1.24.3.24.78.37 1.44.37.32 0 .63-.02.93-.07.3-.05.53-.09.68-.13v-6.81h4.72c.39 0 .7-.13.93-.38.23-.25.34-.62.34-1.09 0-.28-.04-.54-.13-.77-.08-.23-.17-.43-.27-.58h-5.59V24.8h5.68c.39 0 .7-.13.93-.38.23-.25.34-.62.34-1.11 0-.28-.04-.54-.11-.79a2.3 2.3 0 0 0-.25-.56zm-13.22 3.97c-.3-.21-.69-.31-1.16-.31-.56 0-1.07.13-1.52.39-.24 1.73-.55 3.48-.92 5.24-.37 1.77-.72 3.43-1.06 4.99h-.14c-.09-.43-.27-1.09-.52-1.97-.25-.88-.55-1.89-.89-3.03a216.1 216.1 0 0 0-1.07-3.51c-.11-.34-.33-.59-.66-.75-.33-.16-.74-.24-1.22-.24-.38 0-.71.04-.99.11-.28.08-.54.19-.79.34-.38 1.26-.75 2.5-1.11 3.72-.37 1.22-.69 2.31-.96 3.26-.27.95-.47 1.64-.58 2.07h-.11c-.08-.3-.18-.74-.31-1.31-.13-.57-.28-1.25-.45-2.04-.17-.79-.34-1.67-.52-2.65s-.35-2-.52-3.07c-.09-.56-.28-.96-.56-1.2-.28-.23-.67-.35-1.16-.35-.39 0-.75.08-1.06.23-.31.15-.56.32-.75.51.13.71.3 1.53.49 2.45.2.92.41 1.87.65 2.85.23.98.47 1.92.7 2.83.23.91.46 1.71.69 2.41.23.7.42 1.23.59 1.61.15.3.42.53.82.69.39.16.85.24 1.35.24.45 0 .83-.05 1.14-.14.31-.09.56-.22.75-.37.23-.62.49-1.39.8-2.32.31-.93.63-1.93.96-3.02.33-1.08.62-2.14.89-3.17.28 1.01.57 2.04.87 3.09s.6 2.01.89 2.9c.29.89.55 1.62.78 2.18.19.56.86.84 2 .84.43 0 .83-.05 1.2-.16.37-.1.64-.22.8-.35.15-.38.33-.88.54-1.52.21-.64.43-1.36.66-2.17.23-.81.47-1.64.69-2.51.23-.86.43-1.68.61-2.45.18-.77.32-1.45.44-2.04.11-.59.17-1.01.17-1.25 0-.49-.15-.84-.45-1.04zm25.39-.25c-.32 0-.62.03-.9.08-.28.06-.5.1-.65.14v10.4c-.23.13-.54.26-.96.38s-.92.18-1.52.18c-.94 0-1.67-.22-2.2-.66-.53-.44-.79-1.16-.79-2.16v-6.76c0-.62-.15-1.04-.44-1.27-.29-.23-.76-.34-1.4-.34-.34 0-.65.03-.93.08-.28.06-.49.1-.62.14v8.2c0 1.28.25 2.32.76 3.13s1.24 1.4 2.2 1.77c.96.38 2.09.56 3.38.56 1.07 0 2.02-.11 2.85-.32.83-.22 1.5-.48 2.03-.8.39-.24.67-.51.82-.79.15-.28.23-.64.23-1.07v-9.3c0-.62-.15-1.04-.45-1.27-.3-.23-.77-.34-1.41-.34zm10.71 5.56l-1.47-.37c-.58-.13-1-.31-1.24-.55-.24-.23-.37-.51-.37-.83 0-.45.22-.79.65-1.03.43-.23 1.01-.35 1.75-.35.49 0 .97.05 1.45.15.48.1.92.24 1.31.39.39.16.7.32.93.46.21-.15.38-.35.52-.59s.21-.53.21-.85c0-.47-.2-.87-.61-1.2-.4-.33-.96-.58-1.66-.76-.7-.18-1.51-.27-2.41-.27-1.73 0-3.07.38-4.03 1.14-.96.76-1.44 1.72-1.44 2.89 0 1.05.32 1.9.97 2.54.65.64 1.65 1.11 3 1.41l1.66.42c.6.13 1.04.32 1.32.58s.42.6.42 1.03c0 1-.81 1.49-2.42 1.49-.88 0-1.67-.14-2.37-.41-.7-.27-1.31-.58-1.83-.92-.24.17-.44.39-.59.65-.15.26-.23.55-.23.87 0 .73.48 1.32 1.44 1.78.96.45 2.19.68 3.69.68 1.84 0 3.25-.37 4.21-1.11.97-.74 1.45-1.76 1.45-3.06 0-1.09-.34-1.98-1.03-2.66s-1.79-1.2-3.31-1.54zm18.54 1.25c.26-.25.39-.64.39-1.17 0-1.13-.26-2.13-.79-3.02a5.691 5.691 0 0 0-2.18-2.09c-.93-.51-2.01-.76-3.23-.76-.9 0-1.75.15-2.55.44-.8.29-1.5.73-2.11 1.31-.61.58-1.09 1.31-1.44 2.17-.35.86-.52 1.87-.52 3.02 0 1.58.31 2.9.93 3.97a5.91 5.91 0 0 0 2.61 2.41c1.12.54 2.4.8 3.85.8.94 0 1.77-.09 2.49-.28.72-.19 1.3-.46 1.73-.8.43-.35.65-.76.65-1.23 0-.3-.08-.58-.24-.83-.16-.25-.36-.46-.61-.61-.41.28-.95.54-1.62.78-.67.23-1.39.35-2.18.35-1.18 0-2.16-.29-2.93-.87-.61-.46-1.03-1.12-1.26-1.98l7.91-1.14c.47-.06.84-.21 1.1-.46zm-9.23-.78c.06-1.13.39-2.02.99-2.65.65-.68 1.46-1.01 2.44-1.01s1.66.27 2.17.8c.51.54.79 1.17.84 1.9l-6.44.95z"/><g><path class="cls-6" d="M34.95 33.2c2.49 1.06 4.88 2.3 7.47 2.88 1.15.19 2.32.29 3.46.29v-6.34h-.96c-3.55 0-6.81 1.83-9.98 3.17zm-7.38 2.02c-1.15-.1-2.3-.1-3.45-.1H21.5v5.83c0 1.05.85 1.9 1.9 1.9h20.57a1.9 1.9 0 0 0 1.9-1.9v-.73c-2.49 0-5.09-.32-7.39-1.28-3.64-1.25-6.99-3.62-10.92-3.72zm16.4-16.75H23.4a1.9 1.9 0 0 0-1.9 1.9v10.8c2.3 0 4.73.1 7.03-.1 3.16-.29 5.94-2.02 8.91-3.17 2.68-1.15 5.57-1.83 8.44-1.73v-5.8a1.9 1.9 0 0 0-1.9-1.9z"/><path class="cls-5" d="M45.88 30.02v-3.85c-2.87-.1-5.76.58-8.44 1.73-2.97 1.15-5.75 2.88-8.91 3.17-2.3.19-4.73.1-7.03.1v3.94h2.62c1.15 0 2.3 0 3.45.1 3.93.1 7.28 2.47 10.92 3.72 2.3.96 4.9 1.28 7.39 1.28v-3.85c-1.15 0-2.31-.1-3.46-.29-2.59-.58-4.98-1.83-7.47-2.88 3.16-1.35 6.43-3.17 9.98-3.17h.96z"/></g></g></g></svg>