<svg width="448" height="163" viewBox="0 0 448 163" fill="none" xmlns="http://www.w3.org/2000/svg">
<path d="M443.8 1H208.644C206.878 1 205.445 2.40763 205.445 4.14403V158.856C205.445 160.592 206.878 162 208.644 162H443.8C445.567 162 446.999 160.592 446.999 158.856V4.14403C446.999 2.40763 445.567 1 443.8 1Z" stroke="#818CF8" stroke-width="0.48" stroke-miterlimit="10"/>
<path d="M257.286 97.4543H256.323V91.1916L254.391 91.884V91.0329L257.131 90.0229H257.286V97.4543Z" fill="#818CF8"/>
<path d="M264.802 94.2981C264.802 94.9079 264.744 95.416 264.634 95.8288C264.524 96.2417 264.363 96.5783 264.162 96.8324C263.956 97.0864 263.71 97.2706 263.419 97.385C263.128 97.4993 262.799 97.5501 262.437 97.5501C262.075 97.5501 261.745 97.493 261.455 97.385C261.164 97.2706 260.912 97.0864 260.705 96.8324C260.498 96.5783 260.336 96.2417 260.227 95.8288C260.11 95.416 260.059 94.9015 260.059 94.2981V93.1675C260.059 92.5641 260.117 92.056 260.227 91.6431C260.336 91.2303 260.498 90.9 260.705 90.6523C260.912 90.4046 261.164 90.2204 261.455 90.1124C261.745 90.0044 262.075 89.9473 262.437 89.9473C262.799 89.9473 263.128 89.9981 263.426 90.1124C263.716 90.2204 263.968 90.3982 264.175 90.6523C264.382 90.9 264.544 91.2303 264.654 91.6431C264.763 92.056 264.822 92.5641 264.822 93.1675V94.2981H264.802ZM263.846 93.0151C263.846 92.5959 263.813 92.2465 263.755 91.9544C263.697 91.6622 263.607 91.4272 263.484 91.2493C263.361 91.0715 263.212 90.9381 263.038 90.8555C262.863 90.773 262.657 90.7349 262.424 90.7349C262.191 90.7349 261.991 90.773 261.816 90.8555C261.642 90.9381 261.493 91.0715 261.371 91.2493C261.254 91.4335 261.164 91.6685 261.099 91.9544C261.034 92.2465 261.009 92.6022 261.009 93.0151V94.4505C261.009 94.8634 261.041 95.2191 261.099 95.5176C261.164 95.8161 261.254 96.0575 261.377 96.248C261.5 96.4386 261.648 96.5783 261.829 96.6609C262.004 96.7498 262.211 96.7943 262.437 96.7943C262.663 96.7943 262.876 96.7498 263.051 96.6609C263.225 96.572 263.374 96.4322 263.49 96.248C263.607 96.0575 263.697 95.8161 263.755 95.5176C263.813 95.2191 263.846 94.8634 263.846 94.4505V93.0151Z" fill="#818CF8"/>
<path d="M266.998 97.0923C266.998 97.2447 266.978 97.4035 266.94 97.5686C266.901 97.7338 266.843 97.8989 266.765 98.064C266.688 98.2292 266.591 98.3816 266.481 98.5341C266.371 98.6802 266.242 98.8135 266.1 98.9279L265.557 98.5658C265.718 98.3435 265.841 98.1149 265.931 97.8735C266.022 97.6385 266.061 97.3844 266.061 97.1113V96.3428H266.998V97.0923Z" fill="#818CF8"/>
<path d="M272.828 94.2981C272.828 94.9079 272.769 95.416 272.66 95.8288C272.55 96.2417 272.388 96.5783 272.188 96.8324C271.981 97.0864 271.735 97.2706 271.445 97.385C271.154 97.4993 270.824 97.5501 270.462 97.5501C270.1 97.5501 269.771 97.493 269.48 97.385C269.189 97.2706 268.937 97.0864 268.73 96.8324C268.523 96.5783 268.362 96.2417 268.252 95.8288C268.136 95.416 268.084 94.9015 268.084 94.2981V93.1675C268.084 92.5641 268.142 92.056 268.252 91.6431C268.362 91.2303 268.523 90.9 268.73 90.6523C268.937 90.4046 269.189 90.2204 269.48 90.1124C269.771 90.0044 270.1 89.9473 270.462 89.9473C270.824 89.9473 271.154 89.9981 271.451 90.1124C271.742 90.2204 271.994 90.3982 272.201 90.6523C272.407 90.9 272.569 91.2303 272.679 91.6431C272.789 92.056 272.847 92.5641 272.847 93.1675V94.2981H272.828ZM271.871 93.0151C271.871 92.5959 271.839 92.2465 271.781 91.9544C271.722 91.6622 271.632 91.4272 271.509 91.2493C271.386 91.0651 271.238 90.9381 271.063 90.8555C270.889 90.773 270.682 90.7349 270.449 90.7349C270.217 90.7349 270.016 90.773 269.842 90.8555C269.667 90.9381 269.519 91.0715 269.396 91.2493C269.28 91.4335 269.189 91.6685 269.124 91.9544C269.06 92.2465 269.034 92.6022 269.034 93.0151V94.4505C269.034 94.8634 269.066 95.2191 269.124 95.5176C269.189 95.8161 269.28 96.0575 269.402 96.248C269.525 96.4386 269.674 96.5783 269.855 96.6609C270.029 96.7498 270.236 96.7943 270.462 96.7943C270.688 96.7943 270.902 96.7498 271.076 96.6609C271.251 96.572 271.399 96.4322 271.516 96.248C271.632 96.0575 271.722 95.8161 271.781 95.5176C271.839 95.2191 271.871 94.8634 271.871 94.4505V93.0151Z" fill="#818CF8"/>
<path d="M278.773 94.2981C278.773 94.9079 278.715 95.416 278.605 95.8288C278.495 96.2417 278.34 96.5783 278.133 96.8324C277.926 97.0864 277.681 97.2706 277.39 97.385C277.099 97.4993 276.769 97.5501 276.408 97.5501C276.046 97.5501 275.716 97.493 275.425 97.385C275.134 97.2706 274.882 97.0864 274.676 96.8324C274.469 96.5783 274.307 96.2417 274.197 95.8288C274.081 95.416 274.029 94.9015 274.029 94.2981V93.1675C274.029 92.5641 274.087 92.056 274.197 91.6431C274.307 91.2303 274.469 90.9 274.676 90.6523C274.882 90.4046 275.134 90.2204 275.425 90.1124C275.716 90.0044 276.046 89.9473 276.408 89.9473C276.769 89.9473 277.099 89.9981 277.396 90.1124C277.687 90.2204 277.939 90.3982 278.146 90.6523C278.353 90.9 278.514 91.2303 278.624 91.6431C278.734 92.056 278.792 92.5641 278.792 93.1675V94.2981H278.773ZM277.816 93.0151C277.816 92.5959 277.784 92.2465 277.726 91.9544C277.668 91.6622 277.577 91.4272 277.454 91.2493C277.332 91.0651 277.183 90.9381 277.009 90.8555C276.834 90.773 276.627 90.7349 276.395 90.7349C276.162 90.7349 275.962 90.773 275.787 90.8555C275.613 90.9381 275.464 91.0715 275.341 91.2493C275.225 91.4335 275.134 91.6685 275.07 91.9544C275.005 92.2465 274.979 92.6022 274.979 93.0151V94.4505C274.979 94.8634 275.012 95.2191 275.07 95.5176C275.134 95.8161 275.225 96.0575 275.348 96.248C275.47 96.4386 275.619 96.5783 275.8 96.6609C275.981 96.7435 276.181 96.7943 276.408 96.7943C276.634 96.7943 276.847 96.7498 277.021 96.6609C277.196 96.572 277.345 96.4322 277.461 96.248C277.577 96.0575 277.668 95.8161 277.726 95.5176C277.784 95.2191 277.816 94.8634 277.816 94.4505V93.0151Z" fill="#818CF8"/>
<path d="M284.72 94.2981C284.72 94.9079 284.662 95.416 284.552 95.8288C284.442 96.2417 284.287 96.5783 284.08 96.8324C283.874 97.0864 283.628 97.2706 283.337 97.385C283.046 97.4993 282.717 97.5501 282.355 97.5501C281.993 97.5501 281.663 97.493 281.372 97.385C281.082 97.2706 280.83 97.0864 280.623 96.8324C280.416 96.5783 280.254 96.2417 280.145 95.8288C280.028 95.416 279.977 94.9015 279.977 94.2981V93.1675C279.977 92.5641 280.035 92.056 280.145 91.6431C280.254 91.2303 280.416 90.9 280.623 90.6523C280.83 90.4046 281.082 90.2204 281.372 90.1124C281.663 90.0044 281.993 89.9473 282.355 89.9473C282.717 89.9473 283.046 89.9981 283.344 90.1124C283.634 90.2204 283.886 90.3982 284.093 90.6523C284.3 90.9 284.462 91.2303 284.571 91.6431C284.681 92.056 284.74 92.5641 284.74 93.1675V94.2981H284.72ZM283.764 93.0151C283.764 92.5959 283.731 92.2465 283.673 91.9544C283.615 91.6622 283.525 91.4272 283.402 91.2493C283.279 91.0651 283.13 90.9381 282.956 90.8555C282.781 90.773 282.575 90.7349 282.342 90.7349C282.109 90.7349 281.909 90.773 281.734 90.8555C281.56 90.9381 281.411 91.0715 281.288 91.2493C281.172 91.4335 281.082 91.6685 281.017 91.9544C280.952 92.2465 280.927 92.6022 280.927 93.0151V94.4505C280.927 94.8634 280.959 95.2191 281.017 95.5176C281.082 95.8161 281.172 96.0575 281.295 96.248C281.418 96.4386 281.566 96.5783 281.747 96.6609C281.922 96.7498 282.129 96.7943 282.355 96.7943C282.581 96.7943 282.794 96.7498 282.969 96.6609C283.143 96.572 283.292 96.4322 283.408 96.248C283.525 96.0575 283.615 95.8161 283.673 95.5176C283.731 95.2191 283.764 94.8634 283.764 94.4505V93.0151Z" fill="#818CF8"/>
<path d="M241.1 78.7817L230.34 73.4019C233.784 66.7518 238.916 60.9909 245.178 56.7481C252.817 51.5715 261.781 48.834 271.087 48.834V60.6987C264.236 60.6987 257.644 62.7122 252.028 66.5168C247.414 69.6418 243.633 73.891 241.094 78.7881L241.1 78.7817Z" fill="#818CF8"/>
<path d="M231.425 99.6846C228.09 99.6846 225.389 97.0296 225.389 93.7522C225.389 86.6956 227.101 79.658 230.339 73.4017C231.851 70.48 235.483 69.3176 238.456 70.8039C241.429 72.2902 242.612 75.8598 241.099 78.7815C238.689 83.4372 237.461 88.474 237.461 93.7458C237.461 97.0233 234.759 99.6782 231.425 99.6782V99.6846Z" fill="#4F46E5"/>
<path d="M271.092 138.664C260.37 138.664 249.946 134.942 241.745 128.178C231.353 119.616 225.395 107.065 225.395 93.7459C225.395 90.4684 228.096 87.8135 231.431 87.8135C234.765 87.8135 237.467 90.4684 237.467 93.7459C237.467 103.546 241.855 112.782 249.507 119.082C255.543 124.056 263.207 126.793 271.098 126.793C274.433 126.793 277.134 129.448 277.134 132.726C277.134 136.003 274.433 138.658 271.098 138.658L271.092 138.664Z" fill="#4F46E5"/>
<path d="M271.093 138.664C267.758 138.664 265.057 136.009 265.057 132.732C265.057 129.454 267.758 126.799 271.093 126.799C283.753 126.799 295.218 119.921 301.015 108.843C302.54 105.928 306.178 104.785 309.145 106.284C312.111 107.783 313.274 111.359 311.749 114.274C303.871 129.315 288.296 138.664 271.093 138.664Z" fill="#4F46E5"/>
<path d="M306.378 117.494C305.448 117.494 304.504 117.285 303.619 116.834C300.653 115.335 299.489 111.759 301.014 108.844C303.47 104.15 304.718 99.0685 304.718 93.7459C304.718 90.4684 307.419 87.8135 310.754 87.8135C314.088 87.8135 316.79 90.4684 316.79 93.7459C316.79 100.872 315.045 107.973 311.749 114.274C310.676 116.319 308.569 117.494 306.378 117.494Z" fill="#818CF8"/>
<path d="M310.753 99.6848C307.418 99.6848 304.716 97.0298 304.716 93.7524C304.716 75.5297 289.633 60.6987 271.085 60.6987C267.75 60.6987 265.049 58.0438 265.049 54.7664C265.049 51.4889 267.75 48.834 271.085 48.834C296.283 48.834 316.782 68.9812 316.782 93.746C316.782 97.0235 314.081 99.6784 310.746 99.6784L310.753 99.6848Z" fill="#C7D2FE"/>
<path d="M396.381 69.667H390.475V70.3212H396.381V69.667Z" fill="#818CF8"/>
<path d="M403.127 71.0265H404.019V71.6807H403.127V73.148H402.306V71.6807H399.379V71.2044L402.261 66.8218H403.134V71.0202L403.127 71.0265ZM400.303 71.0265H402.306V67.927L400.303 71.0265Z" fill="#818CF8"/>
<path d="M408.797 70.4544C408.797 70.9753 408.752 71.4072 408.655 71.7629C408.558 72.1186 408.423 72.4044 408.255 72.6203C408.08 72.8363 407.867 72.9951 407.615 73.0904C407.363 73.1856 407.085 73.2364 406.775 73.2364C406.464 73.2364 406.187 73.1856 405.934 73.0904C405.682 72.9951 405.469 72.8363 405.295 72.6203C405.12 72.4044 404.978 72.1122 404.881 71.7629C404.784 71.4135 404.732 70.9689 404.732 70.4544V69.489C404.732 68.9682 404.778 68.5363 404.875 68.1869C404.972 67.8376 405.107 67.5518 405.282 67.3422C405.456 67.1262 405.669 66.9738 405.922 66.8849C406.167 66.7896 406.451 66.7451 406.755 66.7451C407.059 66.7451 407.35 66.7896 407.602 66.8849C407.854 66.9801 408.067 67.1326 408.242 67.3422C408.416 67.5581 408.552 67.8376 408.649 68.1869C408.746 68.5363 408.791 68.9745 408.791 69.489V70.4544H408.797ZM407.983 69.3493C407.983 68.9936 407.957 68.6887 407.906 68.441C407.854 68.1933 407.776 67.99 407.673 67.8312C407.57 67.6788 407.44 67.5645 407.292 67.4946C407.136 67.4247 406.962 67.393 406.768 67.393C406.574 67.393 406.4 67.4247 406.251 67.4946C406.096 67.5645 405.973 67.6788 405.87 67.8312C405.766 67.99 405.689 68.1869 405.637 68.441C405.585 68.6887 405.56 68.9936 405.56 69.3493V70.5751C405.56 70.9308 405.585 71.2293 405.637 71.4834C405.689 71.7375 405.766 71.9471 405.87 72.1059C405.973 72.271 406.102 72.3853 406.258 72.4615C406.406 72.5378 406.581 72.5759 406.775 72.5759C406.968 72.5759 407.149 72.5378 407.298 72.4615C407.447 72.3853 407.576 72.2646 407.679 72.1059C407.783 71.9407 407.854 71.7375 407.906 71.4834C407.957 71.2293 407.983 70.9245 407.983 70.5751V69.3493Z" fill="#818CF8"/>
<path d="M409.774 68.0408C409.774 67.863 409.806 67.6915 409.865 67.5327C409.923 67.3739 410.013 67.2342 410.129 67.1199C410.239 66.9992 410.382 66.9039 410.543 66.8404C410.705 66.7705 410.892 66.7388 411.092 66.7388C411.293 66.7388 411.48 66.7705 411.648 66.8404C411.81 66.9103 411.952 67.0055 412.062 67.1199C412.172 67.2405 412.262 67.3803 412.32 67.5327C412.378 67.6915 412.411 67.863 412.411 68.0408V68.3775C412.411 68.5553 412.378 68.7205 412.32 68.8793C412.262 69.038 412.172 69.1778 412.062 69.2921C411.945 69.4128 411.81 69.5017 411.648 69.5716C411.487 69.6414 411.306 69.6732 411.099 69.6732C410.892 69.6732 410.711 69.6414 410.543 69.5716C410.382 69.5017 410.239 69.4064 410.123 69.2921C410.007 69.1778 409.923 69.038 409.858 68.8793C409.8 68.7205 409.768 68.5553 409.768 68.3775V68.0408H409.774ZM410.388 68.3775C410.388 68.4791 410.401 68.5744 410.433 68.6697C410.466 68.7649 410.504 68.8475 410.562 68.9174C410.621 68.9872 410.698 69.0507 410.782 69.0889C410.866 69.127 410.976 69.1524 411.099 69.1524C411.222 69.1524 411.319 69.1333 411.409 69.0889C411.5 69.0444 411.571 68.9872 411.629 68.9174C411.687 68.8475 411.726 68.7649 411.758 68.6697C411.784 68.5744 411.803 68.4791 411.803 68.3775V68.0408C411.803 67.9392 411.79 67.8439 411.758 67.7487C411.726 67.6534 411.687 67.5708 411.629 67.501C411.571 67.4311 411.5 67.3676 411.409 67.3295C411.319 67.285 411.215 67.266 411.099 67.266C410.983 67.266 410.873 67.285 410.782 67.3295C410.692 67.3739 410.621 67.4311 410.562 67.501C410.504 67.5708 410.459 67.6598 410.433 67.7487C410.401 67.8439 410.388 67.9392 410.388 68.0408V68.3775ZM411.286 72.6712L410.821 72.3853L413.962 67.4438L414.427 67.7296L411.286 72.6712ZM412.908 71.5977C412.908 71.4199 412.941 71.2547 412.999 71.096C413.057 70.9372 413.148 70.7974 413.257 70.6831C413.374 70.5688 413.509 70.4735 413.671 70.4036C413.839 70.3338 414.02 70.302 414.22 70.302C414.421 70.302 414.615 70.3338 414.776 70.4036C414.944 70.4735 415.08 70.5688 415.19 70.6831C415.306 70.8038 415.39 70.9372 415.455 71.096C415.513 71.2547 415.545 71.4262 415.545 71.5977V71.9344C415.545 72.1122 415.513 72.2837 415.455 72.4425C415.39 72.6013 415.306 72.741 415.19 72.8553C415.073 72.9697 414.938 73.0649 414.776 73.1348C414.615 73.2047 414.434 73.2364 414.227 73.2364C414.02 73.2364 413.833 73.2047 413.671 73.1348C413.503 73.0649 413.367 72.9697 413.251 72.8553C413.135 72.7347 413.051 72.6013 412.986 72.4425C412.921 72.2837 412.896 72.1186 412.896 71.9344V71.5977H412.908ZM413.522 71.9344C413.522 72.036 413.535 72.1313 413.568 72.2265C413.6 72.3218 413.639 72.4044 413.703 72.4743C413.761 72.5441 413.839 72.6076 413.93 72.6457C414.02 72.6902 414.123 72.7093 414.246 72.7093C414.369 72.7093 414.466 72.6902 414.556 72.6457C414.647 72.6013 414.718 72.5441 414.776 72.4743C414.834 72.4044 414.88 72.3218 414.905 72.2265C414.931 72.1313 414.944 72.036 414.944 71.9344V71.5977C414.944 71.4961 414.931 71.4008 414.899 71.3056C414.867 71.2103 414.828 71.1277 414.77 71.0578C414.711 70.988 414.634 70.9308 414.55 70.8864C414.459 70.8419 414.356 70.8228 414.24 70.8228C414.123 70.8228 414.02 70.8419 413.93 70.8864C413.839 70.9308 413.768 70.988 413.71 71.0578C413.652 71.1277 413.606 71.2103 413.574 71.3056C413.542 71.4008 413.529 71.4961 413.529 71.5977V71.9344H413.522Z" fill="#818CF8"/>
<path d="M377.596 85.3486H371.689V86.0029H377.596V85.3486Z" fill="#818CF8"/>
<path d="M385.112 88.8292H380.892V88.2512L382.998 85.9455C383.192 85.7359 383.354 85.5454 383.483 85.3866C383.612 85.2215 383.716 85.0754 383.787 84.942C383.858 84.8086 383.916 84.6816 383.942 84.5672C383.974 84.4466 383.987 84.3322 383.987 84.2052C383.987 84.0464 383.961 83.9003 383.91 83.767C383.858 83.6272 383.787 83.5065 383.69 83.4049C383.593 83.3033 383.477 83.2207 383.341 83.1636C383.205 83.1064 383.044 83.0746 382.863 83.0746C382.643 83.0746 382.456 83.1064 382.294 83.1699C382.132 83.2334 381.997 83.3223 381.893 83.4367C381.79 83.551 381.706 83.6844 381.654 83.8432C381.602 84.002 381.577 84.1735 381.577 84.364H380.756C380.756 84.0972 380.801 83.8432 380.892 83.6082C380.982 83.3732 381.118 83.1636 381.292 82.9857C381.467 82.8079 381.687 82.6681 381.951 82.5665C382.216 82.4649 382.52 82.4141 382.863 82.4141C383.166 82.4141 383.438 82.4522 383.677 82.5347C383.916 82.6173 384.123 82.7316 384.284 82.8777C384.452 83.0302 384.582 83.208 384.666 83.4176C384.75 83.6272 384.795 83.8559 384.795 84.1099C384.795 84.2941 384.763 84.4847 384.698 84.6689C384.633 84.8594 384.549 85.0436 384.44 85.2342C384.33 85.4184 384.2 85.6089 384.058 85.7931C383.91 85.9773 383.755 86.1551 383.593 86.333L381.867 88.175H385.099V88.8292H385.112Z" fill="#818CF8"/>
<path d="M390.018 86.1361C390.018 86.6569 389.972 87.0888 389.875 87.4445C389.778 87.8002 389.643 88.086 389.475 88.302C389.3 88.5179 389.087 88.6767 388.841 88.772C388.589 88.8673 388.311 88.9181 388.001 88.9181C387.691 88.9181 387.413 88.8673 387.161 88.772C386.909 88.6767 386.696 88.5179 386.521 88.302C386.347 88.086 386.205 87.7938 386.108 87.4445C386.011 87.0888 385.959 86.6506 385.959 86.1361V85.1706C385.959 84.6498 386.004 84.2179 386.101 83.8686C386.198 83.5192 386.334 83.2334 386.508 83.0238C386.683 82.8079 386.896 82.6554 387.148 82.5665C387.394 82.4712 387.678 82.4268 387.988 82.4268C388.298 82.4268 388.583 82.4712 388.835 82.5665C389.087 82.6618 389.3 82.8142 389.475 83.0238C389.649 83.2398 389.785 83.5192 389.882 83.8686C389.979 84.2179 390.024 84.6562 390.024 85.1706V86.1361H390.018ZM389.197 85.0309C389.197 84.6752 389.171 84.3703 389.119 84.1226C389.068 83.8749 388.99 83.6717 388.887 83.5129C388.783 83.3604 388.654 83.2461 388.505 83.1762C388.35 83.1064 388.176 83.0746 387.982 83.0746C387.788 83.0746 387.613 83.1064 387.465 83.1762C387.31 83.2461 387.187 83.3604 387.084 83.5129C386.98 83.6717 386.903 83.8686 386.851 84.1226C386.799 84.3703 386.773 84.6752 386.773 85.0309V86.2568C386.773 86.6125 386.799 86.911 386.851 87.165C386.903 87.4191 386.98 87.6287 387.084 87.7875C387.187 87.9526 387.316 88.067 387.471 88.1432C387.62 88.2194 387.794 88.2575 387.988 88.2575C388.182 88.2575 388.363 88.2194 388.512 88.1432C388.66 88.067 388.79 87.9463 388.893 87.7875C388.996 87.6224 389.068 87.4191 389.119 87.165C389.171 86.911 389.197 86.6061 389.197 86.2568V85.0309Z" fill="#818CF8"/>
<path d="M390.993 83.7225C390.993 83.5446 391.025 83.3731 391.083 83.2144C391.141 83.0556 391.232 82.9158 391.348 82.8015C391.458 82.6808 391.6 82.5856 391.762 82.522C391.923 82.4522 392.111 82.4204 392.311 82.4204C392.512 82.4204 392.699 82.4522 392.867 82.522C393.029 82.5919 393.171 82.6872 393.281 82.8015C393.39 82.9222 393.481 83.0619 393.539 83.2144C393.597 83.3731 393.63 83.5446 393.63 83.7225V84.0591C393.63 84.237 393.597 84.4021 393.539 84.5609C393.481 84.7197 393.39 84.8594 393.281 84.9738C393.164 85.0944 393.029 85.1834 392.867 85.2532C392.705 85.3231 392.524 85.3548 392.318 85.3548C392.111 85.3548 391.93 85.3231 391.762 85.2532C391.6 85.1834 391.458 85.0881 391.342 84.9738C391.225 84.8594 391.141 84.7197 391.077 84.5609C391.019 84.4021 390.986 84.237 390.986 84.0591V83.7225H390.993ZM391.6 84.0591C391.6 84.1607 391.613 84.256 391.646 84.3513C391.678 84.4466 391.717 84.5291 391.781 84.599C391.839 84.6689 391.917 84.7324 392.001 84.7705C392.091 84.815 392.195 84.834 392.318 84.834C392.44 84.834 392.537 84.815 392.628 84.7705C392.718 84.726 392.789 84.6689 392.848 84.599C392.906 84.5291 392.945 84.4466 392.977 84.3513C393.003 84.256 393.022 84.1607 393.022 84.0591V83.7225C393.022 83.6209 393.009 83.5256 392.977 83.4303C392.945 83.335 392.906 83.2525 392.848 83.1826C392.789 83.1127 392.718 83.0492 392.628 83.0111C392.537 82.9667 392.434 82.9476 392.318 82.9476C392.201 82.9476 392.091 82.9667 392.001 83.0111C391.91 83.0556 391.839 83.1127 391.781 83.1826C391.723 83.2525 391.678 83.3414 391.652 83.4303C391.62 83.5256 391.607 83.6209 391.607 83.7225V84.0591H391.6ZM392.505 88.3528L392.04 88.067L395.181 83.1254L395.646 83.4113L392.505 88.3528ZM394.127 87.2794C394.127 87.1015 394.159 86.9364 394.218 86.7776C394.276 86.6188 394.366 86.4791 394.476 86.3647C394.592 86.2504 394.728 86.1551 394.89 86.0853C395.058 86.0154 395.239 85.9837 395.439 85.9837C395.639 85.9837 395.833 86.0154 395.995 86.0853C396.163 86.1551 396.299 86.2504 396.408 86.3647C396.525 86.4854 396.609 86.6188 396.673 86.7776C396.732 86.9364 396.764 87.1079 396.764 87.2794V87.616C396.764 87.7939 396.732 87.9654 396.673 88.1241C396.609 88.2829 396.525 88.4227 396.408 88.537C396.292 88.6513 396.156 88.7466 395.995 88.8165C395.833 88.8863 395.652 88.9181 395.446 88.9181C395.239 88.9181 395.051 88.8863 394.89 88.8165C394.722 88.7466 394.586 88.6513 394.47 88.537C394.353 88.4163 394.269 88.2829 394.205 88.1241C394.14 87.9654 394.114 87.8002 394.114 87.616V87.2794H394.127ZM394.735 87.616C394.735 87.7176 394.748 87.8129 394.78 87.9082C394.812 88.0035 394.851 88.086 394.916 88.1559C394.974 88.2258 395.051 88.2893 395.142 88.3274C395.232 88.3718 395.336 88.3909 395.458 88.3909C395.581 88.3909 395.678 88.3718 395.769 88.3274C395.859 88.2829 395.93 88.2258 395.988 88.1559C396.047 88.086 396.092 88.0035 396.118 87.9082C396.144 87.8129 396.156 87.7176 396.156 87.616V87.2794C396.156 87.1778 396.143 87.0825 396.111 86.9872C396.079 86.8919 396.04 86.8094 395.982 86.7395C395.924 86.6696 395.846 86.6125 395.762 86.568C395.672 86.5235 395.568 86.5045 395.452 86.5045C395.336 86.5045 395.232 86.5235 395.142 86.568C395.051 86.6125 394.98 86.6696 394.922 86.7395C394.864 86.8094 394.819 86.8919 394.786 86.9872C394.754 87.0825 394.741 87.1778 394.741 87.2794V87.616H394.735Z" fill="#818CF8"/>
<path d="M385.901 101.45H379.994V102.104H385.901V101.45Z" fill="#818CF8"/>
<path d="M390.386 101.38H390.968C391.181 101.38 391.368 101.355 391.524 101.298C391.685 101.24 391.814 101.164 391.924 101.069C392.028 100.974 392.112 100.859 392.163 100.726C392.215 100.593 392.241 100.453 392.241 100.294C392.241 99.932 392.15 99.6589 391.963 99.4684C391.776 99.2778 391.491 99.1825 391.116 99.1825C390.942 99.1825 390.78 99.2079 390.638 99.2588C390.496 99.3096 390.373 99.3858 390.27 99.4747C390.166 99.57 390.089 99.6843 390.031 99.8177C389.973 99.9511 389.947 100.104 389.947 100.269H389.126C389.126 100.027 389.171 99.7986 389.268 99.589C389.365 99.3794 389.494 99.1952 389.669 99.0364C389.843 98.8777 390.05 98.757 390.296 98.6617C390.541 98.5728 390.813 98.5283 391.11 98.5283C391.407 98.5283 391.666 98.5664 391.905 98.6427C392.144 98.7189 392.344 98.8332 392.519 98.9793C392.687 99.1254 392.823 99.3159 392.913 99.5382C393.003 99.7605 393.055 100.021 393.055 100.313C393.055 100.434 393.036 100.554 392.997 100.688C392.958 100.821 392.894 100.948 392.816 101.069C392.732 101.196 392.629 101.31 392.499 101.418C392.37 101.526 392.222 101.615 392.041 101.691C392.254 101.755 392.428 101.844 392.577 101.952C392.719 102.06 392.835 102.18 392.919 102.314C393.004 102.447 393.068 102.587 393.1 102.733C393.133 102.879 393.152 103.025 393.152 103.165C393.152 103.464 393.1 103.724 392.997 103.953C392.894 104.181 392.751 104.378 392.571 104.531C392.39 104.689 392.17 104.81 391.924 104.886C391.679 104.969 391.407 105.013 391.116 105.013C390.826 105.013 390.574 104.975 390.328 104.899C390.082 104.823 389.863 104.708 389.675 104.562C389.488 104.416 389.339 104.232 389.236 104.01C389.126 103.794 389.074 103.54 389.074 103.26H389.895C389.895 103.425 389.921 103.578 389.979 103.711C390.037 103.845 390.115 103.965 390.225 104.061C390.328 104.162 390.457 104.232 390.612 104.283C390.761 104.334 390.929 104.359 391.123 104.359C391.317 104.359 391.478 104.334 391.633 104.289C391.782 104.238 391.911 104.169 392.021 104.067C392.125 103.965 392.209 103.845 392.267 103.699C392.325 103.552 392.351 103.381 392.351 103.184C392.351 102.987 392.318 102.816 392.254 102.67C392.189 102.523 392.099 102.409 391.976 102.308C391.86 102.212 391.711 102.142 391.543 102.098C391.375 102.053 391.187 102.028 390.974 102.028H390.393V101.374L390.386 101.38Z" fill="#818CF8"/>
<path d="M398.317 102.238C398.317 102.758 398.272 103.19 398.175 103.546C398.078 103.902 397.942 104.188 397.774 104.404C397.6 104.619 397.386 104.778 397.134 104.874C396.882 104.969 396.604 105.02 396.294 105.02C395.984 105.02 395.706 104.969 395.454 104.874C395.202 104.778 394.989 104.619 394.814 104.404C394.64 104.188 394.498 103.895 394.401 103.546C394.304 103.19 394.252 102.752 394.252 102.238V101.272C394.252 100.751 394.297 100.319 394.394 99.9701C394.491 99.6208 394.627 99.335 394.801 99.1254C394.976 98.9094 395.189 98.757 395.441 98.6681C395.687 98.5728 395.971 98.5283 396.281 98.5283C396.591 98.5283 396.876 98.5728 397.128 98.6681C397.38 98.7633 397.593 98.9158 397.768 99.1254C397.942 99.3413 398.078 99.6208 398.175 99.9701C398.272 100.319 398.317 100.758 398.317 101.272V102.238ZM397.503 101.139C397.503 100.783 397.477 100.478 397.425 100.231C397.373 99.9828 397.296 99.7796 397.192 99.6208C397.089 99.4684 396.96 99.354 396.811 99.2842C396.656 99.2143 396.482 99.1825 396.288 99.1825C396.094 99.1825 395.919 99.2143 395.771 99.2842C395.616 99.354 395.493 99.4684 395.389 99.6208C395.286 99.7796 395.208 99.9765 395.157 100.231C395.105 100.478 395.079 100.783 395.079 101.139V102.365C395.079 102.72 395.105 103.019 395.157 103.273C395.208 103.527 395.286 103.737 395.389 103.895C395.493 104.061 395.622 104.175 395.777 104.251C395.926 104.327 396.1 104.365 396.294 104.365C396.488 104.365 396.669 104.327 396.818 104.251C396.966 104.175 397.096 104.054 397.199 103.895C397.302 103.73 397.373 103.527 397.425 103.273C397.477 103.019 397.503 102.714 397.503 102.365V101.139Z" fill="#818CF8"/>
<path d="M399.294 99.8236C399.294 99.6457 399.326 99.4742 399.384 99.3154C399.442 99.1566 399.533 99.0169 399.649 98.9026C399.759 98.7819 399.901 98.6866 400.063 98.6231C400.224 98.5532 400.412 98.5215 400.612 98.5215C400.812 98.5215 401 98.5532 401.168 98.6231C401.329 98.693 401.471 98.7883 401.581 98.9026C401.691 99.0233 401.782 99.163 401.84 99.3154C401.898 99.4742 401.93 99.6457 401.93 99.8236V100.16C401.93 100.338 401.898 100.503 401.84 100.662C401.782 100.821 401.691 100.96 401.581 101.075C401.465 101.196 401.329 101.284 401.168 101.354C401.006 101.424 400.825 101.456 400.618 101.456C400.412 101.456 400.231 101.424 400.063 101.354C399.901 101.284 399.759 101.189 399.643 101.075C399.526 100.96 399.442 100.821 399.378 100.662C399.319 100.503 399.287 100.338 399.287 100.16V99.8236H399.294ZM399.907 100.16C399.907 100.262 399.92 100.357 399.953 100.452C399.985 100.548 400.024 100.63 400.088 100.7C400.147 100.77 400.218 100.833 400.308 100.872C400.399 100.916 400.502 100.935 400.625 100.935C400.748 100.935 400.845 100.916 400.935 100.872C401.026 100.827 401.097 100.77 401.155 100.7C401.213 100.63 401.252 100.548 401.284 100.452C401.31 100.357 401.329 100.262 401.329 100.16V99.8236C401.329 99.7219 401.316 99.6267 401.284 99.5314C401.252 99.4361 401.213 99.3535 401.155 99.2837C401.097 99.2138 401.026 99.1503 400.935 99.1122C400.845 99.0677 400.741 99.0487 400.625 99.0487C400.509 99.0487 400.399 99.0677 400.308 99.1122C400.218 99.1566 400.147 99.2138 400.088 99.2837C400.03 99.3535 399.985 99.4425 399.959 99.5314C399.927 99.6267 399.914 99.7219 399.914 99.8236V100.16H399.907ZM400.806 104.454L400.34 104.168L403.481 99.2265L403.947 99.5123L400.806 104.454ZM402.428 103.38C402.428 103.203 402.46 103.037 402.518 102.879C402.577 102.72 402.667 102.58 402.777 102.466C402.893 102.351 403.029 102.256 403.191 102.186C403.359 102.116 403.539 102.085 403.74 102.085C403.94 102.085 404.134 102.116 404.296 102.186C404.464 102.256 404.599 102.351 404.709 102.466C404.826 102.587 404.91 102.72 404.974 102.879C405.032 103.037 405.065 103.209 405.065 103.38V103.717C405.065 103.895 405.032 104.066 404.974 104.225C404.91 104.384 404.826 104.524 404.709 104.638C404.593 104.752 404.457 104.848 404.296 104.918C404.134 104.987 403.953 105.019 403.746 105.019C403.539 105.019 403.352 104.987 403.191 104.918C403.022 104.848 402.887 104.752 402.77 104.638C402.654 104.517 402.57 104.384 402.505 104.225C402.441 104.066 402.415 103.901 402.415 103.717V103.38H402.428ZM403.042 103.723C403.042 103.825 403.055 103.92 403.087 104.016C403.119 104.111 403.158 104.193 403.223 104.263C403.281 104.333 403.359 104.397 403.449 104.435C403.539 104.479 403.643 104.498 403.766 104.498C403.888 104.498 403.985 104.479 404.076 104.435C404.166 104.39 404.237 104.333 404.296 104.263C404.354 104.193 404.399 104.111 404.425 104.016C404.451 103.92 404.464 103.825 404.464 103.723V103.387C404.464 103.285 404.451 103.19 404.418 103.095C404.386 102.999 404.347 102.917 404.289 102.847C404.231 102.777 404.153 102.72 404.069 102.675C403.979 102.631 403.876 102.612 403.759 102.612C403.643 102.612 403.539 102.631 403.449 102.675C403.359 102.72 403.287 102.777 403.229 102.847C403.171 102.917 403.126 102.999 403.094 103.095C403.061 103.19 403.048 103.285 403.048 103.387V103.723H403.042Z" fill="#818CF8"/>
<path d="M390.755 117.341H384.848V117.996H390.755V117.341Z" fill="#818CF8"/>
<path d="M396.74 120.822H395.919V115.468L394.271 116.065V115.335L396.611 114.471H396.74V120.822Z" fill="#818CF8"/>
<path d="M403.17 118.129C403.17 118.65 403.125 119.082 403.028 119.438C402.931 119.793 402.796 120.079 402.628 120.295C402.453 120.511 402.24 120.67 401.988 120.765C401.736 120.86 401.458 120.911 401.148 120.911C400.837 120.911 400.56 120.86 400.308 120.765C400.055 120.67 399.842 120.511 399.668 120.295C399.493 120.079 399.351 119.787 399.254 119.438C399.157 119.082 399.105 118.644 399.105 118.129V117.164C399.105 116.643 399.151 116.211 399.248 115.862C399.345 115.512 399.48 115.227 399.655 115.017C399.829 114.801 400.043 114.649 400.295 114.56C400.54 114.464 400.825 114.42 401.135 114.42C401.445 114.42 401.729 114.464 401.981 114.56C402.233 114.655 402.447 114.807 402.621 115.017C402.796 115.233 402.931 115.512 403.028 115.862C403.125 116.211 403.17 116.649 403.17 117.164V118.129ZM402.356 117.03C402.356 116.675 402.33 116.37 402.279 116.122C402.227 115.874 402.149 115.671 402.046 115.512C401.943 115.36 401.813 115.246 401.665 115.176C401.51 115.106 401.335 115.074 401.141 115.074C400.947 115.074 400.773 115.106 400.624 115.176C400.469 115.246 400.346 115.36 400.243 115.512C400.139 115.671 400.062 115.868 400.01 116.122C399.959 116.37 399.933 116.675 399.933 117.03V118.256C399.933 118.612 399.959 118.91 400.01 119.165C400.062 119.419 400.139 119.628 400.243 119.787C400.346 119.952 400.476 120.066 400.631 120.143C400.779 120.219 400.954 120.257 401.148 120.257C401.342 120.257 401.522 120.219 401.671 120.143C401.82 120.066 401.949 119.946 402.052 119.787C402.156 119.622 402.227 119.419 402.279 119.165C402.33 118.91 402.356 118.606 402.356 118.256V117.03Z" fill="#818CF8"/>
<path d="M404.151 115.716C404.151 115.538 404.183 115.366 404.241 115.208C404.3 115.049 404.39 114.909 404.506 114.795C404.616 114.674 404.758 114.579 404.92 114.515C405.082 114.445 405.269 114.414 405.469 114.414C405.67 114.414 405.857 114.445 406.025 114.515C406.187 114.585 406.329 114.68 406.439 114.795C406.549 114.915 406.639 115.055 406.697 115.208C406.755 115.366 406.788 115.538 406.788 115.716V116.052C406.788 116.23 406.755 116.395 406.697 116.554C406.639 116.713 406.549 116.853 406.439 116.967C406.322 117.088 406.187 117.177 406.025 117.246C405.864 117.316 405.683 117.348 405.476 117.348C405.269 117.348 405.088 117.316 404.92 117.246C404.758 117.177 404.616 117.081 404.5 116.967C404.384 116.853 404.3 116.713 404.235 116.554C404.177 116.395 404.145 116.23 404.145 116.052V115.716H404.151ZM404.758 116.052C404.758 116.154 404.771 116.249 404.804 116.344C404.836 116.44 404.875 116.522 404.939 116.592C404.998 116.662 405.069 116.726 405.159 116.764C405.25 116.802 405.353 116.827 405.476 116.827C405.599 116.827 405.696 116.808 405.786 116.764C405.877 116.719 405.948 116.662 406.006 116.592C406.064 116.522 406.103 116.44 406.135 116.344C406.161 116.249 406.18 116.154 406.18 116.052V115.716C406.18 115.614 406.167 115.519 406.135 115.423C406.103 115.328 406.064 115.246 406.006 115.176C405.948 115.106 405.877 115.042 405.786 115.004C405.696 114.96 405.592 114.941 405.476 114.941C405.36 114.941 405.25 114.96 405.159 115.004C405.069 115.049 404.998 115.106 404.939 115.176C404.881 115.246 404.836 115.335 404.81 115.423C404.778 115.519 404.765 115.614 404.765 115.716V116.052H404.758ZM405.657 120.346L405.191 120.06L408.332 115.119L408.798 115.404L405.657 120.346ZM407.279 119.273C407.279 119.095 407.311 118.93 407.369 118.771C407.428 118.612 407.518 118.472 407.628 118.358C407.744 118.244 407.88 118.148 408.042 118.078C408.21 118.009 408.39 117.977 408.591 117.977C408.791 117.977 408.985 118.009 409.147 118.078C409.315 118.148 409.45 118.244 409.56 118.358C409.677 118.479 409.761 118.612 409.825 118.771C409.883 118.93 409.916 119.101 409.916 119.273V119.609C409.916 119.787 409.883 119.959 409.825 120.117C409.761 120.276 409.677 120.416 409.56 120.53C409.444 120.644 409.308 120.74 409.147 120.81C408.985 120.879 408.804 120.911 408.597 120.911C408.39 120.911 408.203 120.879 408.042 120.81C407.873 120.74 407.738 120.644 407.621 120.53C407.505 120.409 407.421 120.276 407.356 120.117C407.292 119.959 407.266 119.793 407.266 119.609V119.273H407.279ZM407.893 119.609C407.893 119.711 407.906 119.806 407.938 119.901C407.97 119.997 408.009 120.079 408.074 120.149C408.132 120.219 408.21 120.282 408.3 120.321C408.39 120.365 408.494 120.384 408.617 120.384C408.739 120.384 408.836 120.365 408.927 120.321C409.017 120.276 409.088 120.219 409.147 120.149C409.205 120.079 409.25 119.997 409.276 119.901C409.302 119.806 409.315 119.711 409.315 119.609V119.273C409.315 119.171 409.302 119.076 409.269 118.98C409.237 118.885 409.198 118.803 409.14 118.733C409.082 118.663 409.004 118.606 408.92 118.561C408.83 118.517 408.727 118.498 408.61 118.498C408.494 118.498 408.39 118.517 408.3 118.561C408.21 118.606 408.138 118.663 408.08 118.733C408.022 118.803 407.977 118.885 407.945 118.98C407.912 119.076 407.899 119.171 407.899 119.273V119.609H407.893Z" fill="#818CF8"/>
<path d="M340.713 69.9716C340.713 71.6166 339.356 72.9441 337.689 72.9441C336.021 72.9441 334.664 71.6103 334.664 69.9716C334.664 68.3329 336.021 66.999 337.689 66.999C339.356 66.999 340.713 68.3329 340.713 69.9716Z" fill="#4F46E5"/>
<path d="M340.713 86.5873C340.713 88.2324 339.356 89.5598 337.689 89.5598C336.021 89.5598 334.664 88.226 334.664 86.5873C334.664 84.9486 336.021 83.6147 337.689 83.6147C339.356 83.6147 340.713 84.9486 340.713 86.5873Z" fill="#818CF8"/>
<path d="M340.713 101.749C340.713 103.394 339.356 104.721 337.689 104.721C336.021 104.721 334.664 103.388 334.664 101.749C334.664 100.11 336.021 98.7764 337.689 98.7764C339.356 98.7764 340.713 100.11 340.713 101.749Z" fill="#C7D2FE"/>
<path d="M340.713 117.641C340.713 119.286 339.356 120.613 337.689 120.613C336.021 120.613 334.664 119.279 334.664 117.641C334.664 116.002 336.021 114.668 337.689 114.668C339.356 114.668 340.713 116.002 340.713 117.641Z" fill="#818CF8"/>
<path d="M321.404 18.1367H224.251C223.966 18.1367 223.734 18.3642 223.734 18.6448V26.705C223.734 26.9856 223.966 27.2131 224.251 27.2131H321.404C321.69 27.2131 321.921 26.9856 321.921 26.705V18.6448C321.921 18.3642 321.69 18.1367 321.404 18.1367Z" fill="#C7D2FE"/>
<path d="M386.806 67.0435H348.063C347.899 67.0435 347.766 67.1743 347.766 67.3356V74.2462C347.766 74.4075 347.899 74.5383 348.063 74.5383H386.806C386.971 74.5383 387.104 74.4075 387.104 74.2462V67.3356C387.104 67.1743 386.971 67.0435 386.806 67.0435Z" fill="#C7D2FE"/>
<path d="M368.317 81.9253H347.979C347.861 81.9253 347.766 82.0191 347.766 82.1349V89.2106C347.766 89.3263 347.861 89.4202 347.979 89.4202H368.317C368.435 89.4202 368.53 89.3263 368.53 89.2106V82.1349C368.53 82.0191 368.435 81.9253 368.317 81.9253Z" fill="#C7D2FE"/>
<path d="M376.531 97.7344H348.018C347.878 97.7344 347.766 97.8453 347.766 97.9821V104.982C347.766 105.118 347.878 105.229 348.018 105.229H376.531C376.67 105.229 376.783 105.118 376.783 104.982V97.9821C376.783 97.8453 376.67 97.7344 376.531 97.7344Z" fill="#C7D2FE"/>
<path d="M382.619 114.299H348.044C347.89 114.299 347.766 114.422 347.766 114.572V121.521C347.766 121.672 347.89 121.794 348.044 121.794H382.619C382.772 121.794 382.896 121.672 382.896 121.521V114.572C382.896 114.422 382.772 114.299 382.619 114.299Z" fill="#C7D2FE"/>
<path d="M258.006 31.5831H224.187C223.935 31.5831 223.734 31.3862 223.734 31.1385C223.734 30.8907 223.935 30.6938 224.187 30.6938H258.006C258.258 30.6938 258.458 30.8907 258.458 31.1385C258.458 31.3862 258.258 31.5831 258.006 31.5831Z" fill="#818CF8"/>
<path d="M188.416 1H4.199C2.43224 1 1 2.39307 1 4.11152V158.411C1 160.13 2.43224 161.523 4.199 161.523H188.416C190.183 161.523 191.615 160.13 191.615 158.411V4.11152C191.615 2.39307 190.183 1 188.416 1Z" stroke="#818CF8" stroke-width="0.48" stroke-miterlimit="10"/>
<path d="M39.7465 61.6206H28.0879V89.97H39.7465V61.6206Z" fill="#4F46E5"/>
<path d="M59.4379 51.915H47.7793V89.9698H59.4379V51.915Z" fill="#818CF8"/>
<path d="M79.1273 67.1714H67.4688V89.9703H79.1273V67.1714Z" fill="#4F46E5"/>
<path d="M98.8129 56.7681H87.1543V89.9701H98.8129V56.7681Z" fill="#4F46E5"/>
<path d="M118.508 48.0996H106.85V89.9699H118.508V48.0996Z" fill="#818CF8"/>
<path d="M138.192 67.1714H126.533V89.9703H138.192V67.1714Z" fill="#4F46E5"/>
<path d="M157.883 54.8574H146.225V89.9641H157.883V54.8574Z" fill="#818CF8"/>
<path d="M30.7181 95.8662L33.077 101.593L35.4358 95.8662H36.6702V102.888H35.7202V100.153L35.8107 97.1988L33.4389 102.888H32.7086L30.3498 97.2177L30.4402 100.153V102.888H29.4902V95.8662H30.7181Z" fill="#818CF8"/>
<path d="M56.5036 96.6268H54.1836V102.888H53.2335V96.6268H50.9199V95.8662H56.5036V96.6268Z" fill="#818CF8"/>
<path d="M70.2189 100.669L70.3546 101.599L70.5549 100.763L71.9832 95.8662H72.791L74.1805 100.763L74.3808 101.612L74.5295 100.669L75.654 95.8662H76.6104L74.8591 102.888H73.9931L72.5067 97.7708L72.3903 97.2365L72.2805 97.7708L70.7359 102.888H69.8699L68.125 95.8662H69.075L70.2189 100.669Z" fill="#818CF8"/>
<path d="M96.0759 96.6268H93.7558V102.888H92.8058V96.6268H90.4922V95.8662H96.0759V96.6268Z" fill="#818CF8"/>
<path d="M114.686 99.7823H111.655V102.888H110.705V95.8662H115.177V96.6268H111.655V99.028H114.686V99.7823Z" fill="#818CF8"/>
<path d="M134.037 101.109C134.037 100.945 134.011 100.801 133.96 100.675C133.908 100.549 133.818 100.436 133.688 100.329C133.559 100.222 133.385 100.128 133.158 100.034C132.939 99.9394 132.654 99.8451 132.318 99.7508C131.963 99.6502 131.64 99.5371 131.349 99.4114C131.058 99.2857 130.812 99.1348 130.612 98.9714C130.412 98.8079 130.25 98.6194 130.147 98.4056C130.037 98.1919 129.985 97.953 129.985 97.6765C129.985 97.3999 130.043 97.1485 130.16 96.9159C130.276 96.6833 130.444 96.4822 130.657 96.3061C130.871 96.1364 131.129 95.9981 131.433 95.9039C131.737 95.8096 132.066 95.7593 132.441 95.7593C132.848 95.7593 133.21 95.8221 133.527 95.9416C133.843 96.061 134.108 96.2181 134.328 96.413C134.548 96.6079 134.709 96.8342 134.819 97.0919C134.929 97.3496 134.987 97.6136 134.987 97.8902H134.031C134.031 97.6953 133.998 97.513 133.934 97.3433C133.869 97.1736 133.772 97.029 133.637 96.9096C133.507 96.7902 133.339 96.6959 133.139 96.6267C132.939 96.5576 132.706 96.5262 132.435 96.5262C132.182 96.5262 131.956 96.5576 131.769 96.6142C131.581 96.6707 131.426 96.7524 131.304 96.853C131.181 96.9536 131.09 97.073 131.032 97.2113C130.974 97.3496 130.942 97.5005 130.942 97.6639C130.942 97.8085 130.974 97.9468 131.039 98.0662C131.103 98.1856 131.2 98.2988 131.336 98.4056C131.472 98.5062 131.646 98.6005 131.859 98.6885C132.073 98.7765 132.325 98.8582 132.628 98.9399C133.036 99.0531 133.391 99.1788 133.688 99.3108C133.986 99.4491 134.231 99.6 134.425 99.776C134.619 99.952 134.761 100.147 134.858 100.361C134.949 100.574 135 100.819 135 101.096C135 101.373 134.942 101.643 134.819 101.869C134.703 102.102 134.528 102.297 134.309 102.46C134.089 102.623 133.824 102.749 133.514 102.837C133.204 102.925 132.861 102.969 132.48 102.969C132.26 102.969 132.034 102.95 131.814 102.906C131.594 102.869 131.381 102.806 131.174 102.724C130.974 102.642 130.78 102.548 130.612 102.429C130.438 102.309 130.289 102.171 130.16 102.014C130.03 101.857 129.934 101.681 129.856 101.486C129.785 101.291 129.746 101.077 129.746 100.838H130.703C130.703 101.077 130.754 101.285 130.851 101.461C130.948 101.63 131.077 101.775 131.245 101.888C131.407 102.001 131.594 102.083 131.808 102.139C132.021 102.19 132.247 102.221 132.48 102.221C132.984 102.221 133.365 102.121 133.637 101.926C133.902 101.725 134.037 101.454 134.037 101.109Z" fill="#818CF8"/>
<path d="M153.727 101.109C153.727 100.945 153.701 100.801 153.649 100.675C153.597 100.549 153.507 100.436 153.378 100.329C153.249 100.222 153.074 100.128 152.848 100.034C152.628 99.9394 152.344 99.8451 152.008 99.7508C151.652 99.6502 151.329 99.5371 151.038 99.4114C150.747 99.2857 150.502 99.1348 150.302 98.9714C150.101 98.8079 149.94 98.6194 149.836 98.4056C149.733 98.1919 149.675 97.953 149.675 97.6765C149.675 97.3999 149.733 97.1485 149.849 96.9159C149.965 96.6833 150.134 96.4822 150.347 96.3061C150.56 96.1364 150.819 95.9981 151.122 95.9039C151.426 95.8096 151.756 95.7593 152.13 95.7593C152.538 95.7593 152.9 95.8221 153.216 95.9416C153.533 96.061 153.798 96.2181 154.018 96.413C154.237 96.6079 154.399 96.8342 154.509 97.0919C154.619 97.3496 154.677 97.6136 154.677 97.8902H153.72C153.72 97.6953 153.688 97.513 153.623 97.3433C153.559 97.1736 153.462 97.029 153.326 96.9096C153.197 96.7902 153.029 96.6959 152.828 96.6267C152.628 96.5576 152.395 96.5262 152.124 96.5262C151.872 96.5262 151.646 96.5576 151.458 96.6142C151.271 96.6707 151.116 96.7524 150.993 96.853C150.87 96.9536 150.78 97.073 150.722 97.2113C150.663 97.3496 150.631 97.5005 150.631 97.6639C150.631 97.8085 150.663 97.9468 150.728 98.0662C150.793 98.1856 150.89 98.2988 151.025 98.4056C151.161 98.5062 151.336 98.6005 151.549 98.6885C151.762 98.7765 152.021 98.8582 152.318 98.9399C152.725 99.0531 153.08 99.1788 153.378 99.3108C153.675 99.4491 153.921 99.6 154.114 99.776C154.308 99.952 154.451 100.147 154.547 100.361C154.638 100.574 154.69 100.819 154.69 101.096C154.69 101.373 154.632 101.643 154.509 101.869C154.392 102.102 154.218 102.297 153.998 102.46C153.778 102.623 153.513 102.749 153.203 102.837C152.893 102.925 152.551 102.969 152.169 102.969C151.95 102.969 151.723 102.95 151.504 102.906C151.284 102.869 151.071 102.806 150.864 102.724C150.657 102.642 150.47 102.548 150.302 102.429C150.127 102.309 149.978 102.171 149.849 102.014C149.72 101.857 149.623 101.681 149.545 101.486C149.474 101.291 149.436 101.077 149.436 100.838H150.392C150.392 101.077 150.444 101.285 150.541 101.461C150.638 101.637 150.767 101.775 150.935 101.888C151.096 102.001 151.284 102.083 151.497 102.139C151.71 102.19 151.937 102.221 152.169 102.221C152.673 102.221 153.055 102.121 153.326 101.926C153.591 101.725 153.727 101.454 153.727 101.109Z" fill="#818CF8"/>
<path d="M45.6546 124.228H41.4345V123.656L43.5414 121.374C43.7352 121.167 43.8968 120.978 44.0261 120.821C44.1553 120.658 44.2587 120.513 44.3298 120.381C44.4074 120.249 44.4591 120.123 44.4849 120.01C44.5172 119.891 44.5301 119.778 44.5301 119.652C44.5301 119.495 44.5043 119.35 44.4526 119.218C44.4009 119.08 44.3298 118.961 44.2329 118.86C44.1359 118.759 44.0196 118.678 43.8839 118.621C43.7482 118.565 43.5866 118.533 43.4056 118.533C43.1859 118.533 42.9985 118.565 42.8369 118.627C42.6754 118.69 42.5461 118.778 42.4363 118.891C42.3328 119.005 42.2488 119.137 42.1971 119.294C42.1454 119.451 42.1196 119.621 42.1196 119.809H41.2988C41.2988 119.545 41.3441 119.294 41.4345 119.061C41.525 118.829 41.6607 118.621 41.8352 118.445C42.0097 118.269 42.2294 118.131 42.4944 118.03C42.7594 117.93 43.0631 117.879 43.4056 117.879C43.7094 117.879 43.9808 117.917 44.2199 117.999C44.4591 118.081 44.6659 118.194 44.8274 118.338C44.9954 118.489 45.1182 118.665 45.2087 118.873C45.2992 119.08 45.3444 119.306 45.3444 119.558C45.3444 119.74 45.3121 119.929 45.2475 120.111C45.1829 120.299 45.0989 120.482 44.989 120.67C44.8791 120.853 44.7499 121.041 44.6012 121.223C44.4526 121.406 44.2975 121.582 44.1359 121.758L42.4104 123.581H45.6417V124.228H45.6546Z" fill="#818CF8"/>
<path d="M46.8955 121.092L47.2251 117.968H50.521V118.703H47.9166L47.7227 120.413C47.8391 120.35 47.9877 120.287 48.1687 120.231C48.3496 120.174 48.5629 120.143 48.7955 120.143C49.0928 120.143 49.3578 120.193 49.5904 120.287C49.8295 120.388 50.0299 120.526 50.1915 120.708C50.3595 120.891 50.4823 121.111 50.5727 121.368C50.6632 121.626 50.7085 121.915 50.7085 122.23C50.7085 122.531 50.6632 122.808 50.5857 123.059C50.5017 123.317 50.3789 123.531 50.2108 123.719C50.0428 123.902 49.8295 124.046 49.5775 124.153C49.3255 124.26 49.0217 124.31 48.6792 124.31C48.4207 124.31 48.1751 124.273 47.9425 124.203C47.7098 124.134 47.503 124.027 47.3285 123.883C47.1476 123.738 46.9989 123.556 46.889 123.342C46.7727 123.122 46.7016 122.871 46.6758 122.575H47.4513C47.503 122.934 47.6323 123.204 47.8455 123.386C48.0588 123.568 48.3367 123.663 48.6857 123.663C48.8795 123.663 49.054 123.631 49.2027 123.562C49.3513 123.499 49.4806 123.399 49.584 123.279C49.6874 123.154 49.7649 123.009 49.8231 122.827C49.8748 122.651 49.9071 122.456 49.9071 122.236C49.9071 122.041 49.8812 121.859 49.8231 121.689C49.7649 121.519 49.6874 121.375 49.5775 121.249C49.4676 121.123 49.3319 121.023 49.1704 120.954C49.0088 120.884 48.8278 120.847 48.621 120.847C48.4853 120.847 48.3625 120.859 48.2656 120.872C48.1622 120.891 48.0782 120.916 47.9942 120.954C47.9166 120.985 47.8391 121.029 47.7744 121.079C47.7098 121.13 47.6387 121.186 47.5676 121.243L46.9149 121.079L46.8955 121.092Z" fill="#818CF8"/>
<path d="M51.5305 119.174C51.5305 118.998 51.5628 118.828 51.621 118.671C51.6791 118.514 51.7696 118.376 51.8795 118.262C51.9893 118.149 52.1315 118.049 52.2931 117.986C52.4547 117.917 52.6421 117.885 52.8424 117.885C53.0428 117.885 53.2366 117.917 53.3982 117.986C53.5598 118.055 53.7019 118.149 53.8118 118.262C53.9217 118.382 54.0122 118.52 54.0703 118.671C54.1285 118.828 54.1608 118.998 54.1608 119.174V119.507C54.1608 119.683 54.1285 119.846 54.0703 120.004C54.0122 120.161 53.9281 120.299 53.8118 120.412C53.6955 120.532 53.5598 120.62 53.3982 120.689C53.2366 120.758 53.0557 120.789 52.8489 120.789C52.6421 120.789 52.4547 120.758 52.2931 120.689C52.1315 120.62 51.9893 120.525 51.873 120.412C51.7567 120.299 51.6727 120.161 51.6081 120.004C51.5499 119.846 51.5176 119.683 51.5176 119.507V119.174H51.5305ZM52.1444 119.501C52.1444 119.601 52.1574 119.696 52.1897 119.79C52.222 119.884 52.2608 119.966 52.3254 120.035C52.3836 120.104 52.4611 120.161 52.5516 120.205C52.6421 120.249 52.7455 120.268 52.8683 120.268C52.9911 120.268 53.088 120.249 53.1785 120.205C53.2689 120.161 53.34 120.104 53.3982 120.035C53.4564 119.966 53.5016 119.884 53.5275 119.79C53.5533 119.696 53.5727 119.601 53.5727 119.501V119.168C53.5727 119.067 53.5598 118.973 53.5275 118.878C53.4951 118.784 53.4564 118.702 53.3982 118.633C53.34 118.564 53.2689 118.501 53.1785 118.464C53.088 118.42 52.9846 118.401 52.8683 118.401C52.7519 118.401 52.6421 118.42 52.5516 118.464C52.4611 118.508 52.39 118.564 52.3319 118.633C52.2737 118.702 52.2285 118.79 52.2026 118.878C52.1703 118.973 52.1574 119.067 52.1574 119.168V119.501H52.1444ZM53.0428 123.756L52.5774 123.473L55.7183 118.583L56.1836 118.866L53.0428 123.756ZM54.6649 122.694C54.6649 122.518 54.6972 122.355 54.7554 122.197C54.8135 122.04 54.904 121.902 55.0139 121.789C55.1302 121.676 55.2659 121.581 55.4275 121.512C55.589 121.443 55.7764 121.412 55.9768 121.412C56.1771 121.412 56.371 121.443 56.5326 121.512C56.6941 121.581 56.8363 121.676 56.9462 121.789C57.0625 121.908 57.1465 122.04 57.2047 122.197C57.2629 122.355 57.2952 122.524 57.2952 122.694V123.027C57.2952 123.203 57.2629 123.373 57.2047 123.53C57.1465 123.687 57.056 123.825 56.9462 123.939C56.8299 124.052 56.6941 124.146 56.5326 124.215C56.371 124.284 56.1901 124.316 55.9833 124.316C55.7764 124.316 55.589 124.284 55.4275 124.215C55.2659 124.146 55.1237 124.052 55.0074 123.939C54.8911 123.819 54.8071 123.687 54.7424 123.53C54.6843 123.373 54.652 123.209 54.652 123.027V122.694H54.6649ZM55.2788 123.027C55.2788 123.128 55.2918 123.222 55.3241 123.316C55.3564 123.411 55.3952 123.492 55.4598 123.561C55.5179 123.631 55.5955 123.693 55.686 123.731C55.7764 123.775 55.8798 123.794 56.0026 123.794C56.1254 123.794 56.2224 123.775 56.3128 123.731C56.4033 123.687 56.4744 123.631 56.5326 123.561C56.5907 123.492 56.636 123.411 56.6618 123.316C56.6877 123.222 56.7006 123.128 56.7006 123.027V122.694C56.7006 122.593 56.6877 122.499 56.6554 122.405C56.6231 122.311 56.5843 122.229 56.5261 122.16C56.4679 122.091 56.3969 122.034 56.3064 121.99C56.2159 121.946 56.1125 121.927 55.9962 121.927C55.8798 121.927 55.7764 121.946 55.686 121.99C55.5955 122.034 55.5244 122.091 55.4662 122.16C55.4081 122.229 55.3628 122.311 55.3305 122.405C55.2982 122.499 55.2853 122.593 55.2853 122.694V123.027H55.2788Z" fill="#818CF8"/>
<path d="M28.9886 120.4C28.8722 120.4 28.7559 120.356 28.6719 120.268C28.4974 120.099 28.4974 119.816 28.6719 119.646L31.2957 117.094C31.4702 116.924 31.761 116.924 31.9355 117.094C32.11 117.264 32.11 117.547 31.9355 117.716L29.3117 120.268C29.2212 120.356 29.1049 120.4 28.995 120.4H28.9886Z" fill="#818CF8"/>
<path d="M34.2354 120.4C34.1191 120.4 34.0028 120.356 33.9188 120.268L31.2949 117.716C31.1204 117.547 31.1204 117.264 31.2949 117.094C31.4694 116.924 31.7602 116.924 31.9347 117.094L34.5586 119.646C34.733 119.816 34.733 120.099 34.5586 120.268C34.4681 120.356 34.3518 120.4 34.2419 120.4H34.2354Z" fill="#818CF8"/>
<path d="M31.6145 124.128C31.3625 124.128 31.1621 123.933 31.1621 123.688V117.993C31.1621 117.748 31.3625 117.553 31.6145 117.553C31.8665 117.553 32.0669 117.748 32.0669 117.993V123.688C32.0669 123.933 31.8665 124.128 31.6145 124.128Z" fill="#818CF8"/>
<path d="M114.817 140.899H113.99V135.6L112.342 136.184V135.461L114.688 134.606H114.817V140.899Z" fill="#818CF8"/>
<path d="M121.428 140.899H117.208V140.327L119.315 138.045C119.509 137.837 119.67 137.649 119.799 137.492C119.929 137.328 120.032 137.184 120.103 137.052C120.181 136.92 120.232 136.794 120.258 136.681C120.291 136.561 120.304 136.448 120.304 136.322C120.304 136.165 120.278 136.021 120.226 135.889C120.174 135.75 120.103 135.631 120.006 135.53C119.909 135.43 119.793 135.354 119.657 135.292C119.522 135.235 119.36 135.204 119.179 135.204C118.959 135.204 118.772 135.235 118.61 135.298C118.449 135.361 118.32 135.449 118.21 135.562C118.106 135.675 118.022 135.807 117.971 135.964C117.919 136.121 117.893 136.291 117.893 136.48H117.072C117.072 136.216 117.117 135.964 117.208 135.732C117.298 135.499 117.434 135.292 117.609 135.116C117.783 134.94 118.003 134.801 118.268 134.701C118.533 134.6 118.837 134.55 119.179 134.55C119.483 134.55 119.754 134.588 119.993 134.669C120.232 134.751 120.439 134.864 120.601 135.009C120.769 135.16 120.892 135.336 120.982 135.543C121.073 135.75 121.118 135.977 121.118 136.228C121.118 136.41 121.086 136.599 121.021 136.781C120.956 136.97 120.872 137.152 120.762 137.341C120.653 137.523 120.523 137.712 120.375 137.894C120.226 138.076 120.071 138.252 119.909 138.428L118.184 140.251H121.415V140.899H121.428Z" fill="#818CF8"/>
<path d="M122.222 135.845C122.222 135.669 122.254 135.5 122.312 135.342C122.371 135.185 122.461 135.047 122.571 134.934C122.687 134.814 122.823 134.72 122.984 134.657C123.146 134.588 123.333 134.557 123.534 134.557C123.734 134.557 123.928 134.588 124.09 134.657C124.251 134.726 124.393 134.821 124.503 134.934C124.613 135.053 124.704 135.192 124.762 135.342C124.82 135.5 124.852 135.669 124.852 135.845V136.178C124.852 136.354 124.82 136.518 124.762 136.675C124.704 136.832 124.62 136.97 124.503 137.084C124.387 137.203 124.251 137.291 124.09 137.36C123.928 137.429 123.747 137.461 123.54 137.461C123.333 137.461 123.146 137.429 122.984 137.36C122.823 137.291 122.681 137.197 122.564 137.084C122.448 136.97 122.364 136.832 122.299 136.675C122.241 136.518 122.209 136.354 122.209 136.178V135.845H122.222ZM122.829 136.172C122.829 136.273 122.842 136.367 122.875 136.461C122.907 136.556 122.946 136.637 123.01 136.706C123.069 136.776 123.146 136.838 123.237 136.876C123.327 136.92 123.43 136.939 123.553 136.939C123.676 136.939 123.773 136.92 123.863 136.876C123.954 136.832 124.025 136.776 124.083 136.706C124.141 136.637 124.187 136.556 124.212 136.461C124.238 136.367 124.251 136.273 124.251 136.172V135.839C124.251 135.738 124.238 135.644 124.206 135.55C124.174 135.456 124.135 135.374 124.077 135.305C124.019 135.236 123.947 135.173 123.857 135.135C123.766 135.091 123.663 135.072 123.547 135.072C123.43 135.072 123.321 135.091 123.23 135.135C123.14 135.179 123.069 135.236 123.01 135.305C122.952 135.374 122.907 135.462 122.881 135.55C122.849 135.644 122.836 135.738 122.836 135.839V136.172H122.829ZM123.734 140.428L123.269 140.145L126.41 135.254L126.875 135.537L123.734 140.428ZM125.356 139.365C125.356 139.189 125.389 139.026 125.447 138.869C125.505 138.712 125.595 138.573 125.705 138.46C125.822 138.347 125.957 138.253 126.119 138.184C126.28 138.114 126.468 138.083 126.668 138.083C126.869 138.083 127.062 138.114 127.224 138.184C127.386 138.253 127.528 138.347 127.638 138.46C127.754 138.58 127.838 138.712 127.896 138.869C127.954 139.026 127.987 139.196 127.987 139.365V139.698C127.987 139.874 127.954 140.044 127.896 140.201C127.838 140.359 127.747 140.497 127.638 140.61C127.521 140.723 127.386 140.817 127.224 140.887C127.062 140.956 126.881 140.987 126.675 140.987C126.468 140.987 126.28 140.956 126.119 140.887C125.957 140.817 125.815 140.723 125.699 140.61C125.582 140.491 125.498 140.359 125.434 140.201C125.376 140.044 125.343 139.881 125.343 139.698V139.365H125.356ZM125.964 139.698C125.964 139.799 125.977 139.893 126.009 139.988C126.041 140.082 126.08 140.164 126.145 140.233C126.203 140.302 126.28 140.365 126.371 140.403C126.461 140.447 126.565 140.465 126.688 140.465C126.81 140.465 126.907 140.447 126.998 140.403C127.088 140.359 127.159 140.302 127.218 140.233C127.276 140.164 127.321 140.082 127.347 139.988C127.373 139.893 127.386 139.799 127.386 139.698V139.365C127.386 139.265 127.373 139.17 127.34 139.076C127.308 138.982 127.269 138.9 127.211 138.831C127.153 138.762 127.082 138.705 126.991 138.661C126.901 138.617 126.797 138.598 126.681 138.598C126.565 138.598 126.461 138.617 126.371 138.661C126.28 138.705 126.209 138.762 126.151 138.831C126.093 138.9 126.048 138.982 126.015 139.076C125.983 139.17 125.97 139.265 125.97 139.365V139.698H125.964Z" fill="#818CF8"/>
<path d="M100.639 137.466C100.523 137.466 100.406 137.422 100.322 137.334C100.148 137.164 100.148 136.881 100.322 136.712L102.946 134.16C103.121 133.99 103.411 133.99 103.586 134.16C103.76 134.329 103.76 134.612 103.586 134.782L100.962 137.334C100.872 137.422 100.755 137.466 100.639 137.466Z" fill="#818CF8"/>
<path d="M105.881 137.466C105.764 137.466 105.648 137.422 105.557 137.334L102.934 134.782C102.759 134.612 102.759 134.329 102.934 134.16C103.108 133.99 103.399 133.99 103.573 134.16L106.197 136.712C106.372 136.881 106.372 137.164 106.197 137.334C106.107 137.422 105.99 137.466 105.881 137.466Z" fill="#818CF8"/>
<path d="M103.263 141.193C103.011 141.193 102.811 140.998 102.811 140.753V135.058C102.811 134.813 103.011 134.618 103.263 134.618C103.515 134.618 103.715 134.813 103.715 135.058V140.753C103.715 140.998 103.515 141.193 103.263 141.193Z" fill="#818CF8"/>
<path d="M114.817 124.499H113.99V119.2L112.342 119.791V119.068L114.688 118.213H114.817V124.499Z" fill="#818CF8"/>
<path d="M121.111 119.872C121.111 120.187 121.027 120.463 120.859 120.708C120.691 120.954 120.458 121.142 120.174 121.28C120.342 121.35 120.49 121.438 120.62 121.538C120.755 121.639 120.872 121.758 120.962 121.89C121.059 122.022 121.13 122.16 121.182 122.318C121.234 122.475 121.259 122.638 121.259 122.814C121.259 123.103 121.208 123.355 121.104 123.575C121.001 123.795 120.852 123.983 120.671 124.128C120.484 124.279 120.271 124.392 120.019 124.467C119.767 124.543 119.502 124.58 119.211 124.58C118.92 124.58 118.655 124.543 118.403 124.467C118.151 124.392 117.938 124.279 117.75 124.128C117.569 123.977 117.421 123.795 117.317 123.575C117.214 123.355 117.162 123.103 117.162 122.814C117.162 122.638 117.188 122.475 117.24 122.318C117.291 122.16 117.362 122.022 117.453 121.89C117.543 121.758 117.66 121.639 117.789 121.538C117.918 121.438 118.073 121.35 118.235 121.28C117.951 121.142 117.724 120.954 117.556 120.708C117.388 120.463 117.311 120.187 117.311 119.879C117.311 119.608 117.356 119.363 117.453 119.149C117.55 118.936 117.679 118.753 117.847 118.609C118.015 118.464 118.216 118.351 118.448 118.276C118.681 118.2 118.933 118.163 119.211 118.163C119.489 118.163 119.741 118.2 119.967 118.276C120.2 118.351 120.4 118.464 120.568 118.609C120.736 118.753 120.872 118.936 120.962 119.149C121.053 119.363 121.104 119.608 121.104 119.879L121.111 119.872ZM120.445 122.795C120.445 122.619 120.413 122.462 120.355 122.311C120.296 122.167 120.212 122.041 120.103 121.934C119.993 121.834 119.863 121.752 119.708 121.689C119.56 121.632 119.392 121.601 119.204 121.601C119.017 121.601 118.849 121.632 118.7 121.689C118.552 121.746 118.422 121.827 118.312 121.934C118.209 122.041 118.125 122.167 118.067 122.311C118.009 122.456 117.983 122.619 117.983 122.795C117.983 122.971 118.009 123.135 118.067 123.279C118.125 123.418 118.203 123.537 118.312 123.638C118.416 123.738 118.545 123.814 118.7 123.864C118.849 123.914 119.023 123.939 119.217 123.939C119.411 123.939 119.579 123.914 119.728 123.864C119.876 123.814 120.006 123.738 120.116 123.638C120.219 123.537 120.303 123.418 120.361 123.279C120.419 123.141 120.445 122.978 120.445 122.795ZM120.296 119.891C120.296 119.734 120.271 119.596 120.219 119.464C120.167 119.332 120.096 119.219 119.999 119.124C119.902 119.03 119.792 118.955 119.657 118.898C119.521 118.841 119.379 118.816 119.217 118.816C119.056 118.816 118.913 118.841 118.778 118.892C118.642 118.942 118.532 119.017 118.435 119.105C118.338 119.2 118.267 119.313 118.216 119.445C118.164 119.577 118.138 119.728 118.138 119.891C118.138 120.055 118.164 120.199 118.216 120.331C118.267 120.463 118.338 120.576 118.435 120.671C118.532 120.765 118.642 120.834 118.778 120.884C118.913 120.935 119.056 120.96 119.217 120.96C119.379 120.96 119.527 120.935 119.657 120.884C119.792 120.834 119.902 120.765 119.999 120.671C120.096 120.576 120.167 120.463 120.219 120.331C120.271 120.199 120.296 120.055 120.296 119.891Z" fill="#818CF8"/>
<path d="M122.222 119.444C122.222 119.268 122.254 119.099 122.312 118.941C122.371 118.784 122.461 118.646 122.571 118.533C122.687 118.413 122.823 118.319 122.984 118.256C123.146 118.193 123.333 118.156 123.534 118.156C123.734 118.156 123.928 118.187 124.09 118.256C124.251 118.325 124.393 118.42 124.503 118.533C124.613 118.652 124.704 118.791 124.762 118.941C124.82 119.099 124.852 119.268 124.852 119.444V119.778C124.852 119.954 124.82 120.117 124.762 120.274C124.704 120.431 124.62 120.57 124.503 120.683C124.387 120.802 124.251 120.89 124.09 120.959C123.928 121.028 123.747 121.06 123.54 121.06C123.333 121.06 123.146 121.028 122.984 120.959C122.823 120.89 122.681 120.796 122.564 120.683C122.448 120.57 122.364 120.431 122.299 120.274C122.241 120.117 122.209 119.954 122.209 119.778V119.444H122.222ZM122.829 119.778C122.829 119.878 122.842 119.972 122.875 120.067C122.907 120.161 122.946 120.243 123.01 120.312C123.069 120.381 123.146 120.444 123.237 120.482C123.327 120.526 123.43 120.544 123.553 120.544C123.676 120.544 123.773 120.526 123.863 120.482C123.954 120.438 124.025 120.381 124.083 120.312C124.141 120.243 124.187 120.161 124.212 120.067C124.238 119.972 124.251 119.878 124.251 119.778V119.444C124.251 119.344 124.238 119.25 124.206 119.155C124.174 119.061 124.135 118.979 124.077 118.91C124.019 118.841 123.947 118.778 123.857 118.74C123.766 118.696 123.663 118.677 123.547 118.677C123.43 118.677 123.321 118.696 123.23 118.74C123.14 118.784 123.069 118.841 123.01 118.91C122.952 118.979 122.907 119.067 122.881 119.155C122.849 119.25 122.836 119.344 122.836 119.444V119.778H122.829ZM123.734 124.027L123.269 123.744L126.41 118.853L126.875 119.136L123.734 124.027ZM125.356 122.964C125.356 122.788 125.389 122.625 125.447 122.468C125.505 122.311 125.595 122.172 125.705 122.059C125.822 121.946 125.957 121.852 126.119 121.783C126.28 121.714 126.468 121.682 126.668 121.682C126.869 121.682 127.062 121.714 127.224 121.783C127.386 121.852 127.528 121.946 127.638 122.059C127.754 122.179 127.838 122.311 127.896 122.468C127.954 122.625 127.987 122.795 127.987 122.964V123.298C127.987 123.474 127.954 123.643 127.896 123.8C127.838 123.958 127.747 124.096 127.638 124.209C127.521 124.322 127.386 124.417 127.224 124.486C127.062 124.555 126.881 124.586 126.675 124.586C126.468 124.586 126.28 124.555 126.119 124.486C125.957 124.417 125.815 124.322 125.699 124.209C125.582 124.09 125.498 123.958 125.434 123.8C125.376 123.643 125.343 123.48 125.343 123.298V122.964H125.356ZM125.964 123.304C125.964 123.404 125.977 123.499 126.009 123.593C126.041 123.687 126.08 123.769 126.145 123.838C126.203 123.907 126.28 123.97 126.371 124.008C126.461 124.052 126.565 124.071 126.688 124.071C126.81 124.071 126.907 124.052 126.998 124.008C127.088 123.964 127.159 123.907 127.218 123.838C127.276 123.769 127.321 123.687 127.347 123.593C127.373 123.499 127.386 123.404 127.386 123.304V122.971C127.386 122.87 127.373 122.776 127.34 122.682C127.308 122.587 127.269 122.506 127.211 122.436C127.153 122.367 127.082 122.311 126.991 122.267C126.901 122.223 126.797 122.204 126.681 122.204C126.565 122.204 126.461 122.223 126.371 122.267C126.28 122.311 126.209 122.367 126.151 122.436C126.093 122.506 126.048 122.587 126.015 122.682C125.983 122.776 125.97 122.87 125.97 122.971V123.304H125.964Z" fill="#818CF8"/>
<path d="M100.638 120.401C100.521 120.401 100.405 120.357 100.314 120.269C100.14 120.099 100.14 119.816 100.314 119.647L102.938 117.095C103.113 116.925 103.404 116.925 103.578 117.095C103.753 117.264 103.753 117.547 103.578 117.717L100.954 120.269C100.864 120.357 100.747 120.401 100.638 120.401Z" fill="#818CF8"/>
<path d="M105.878 120.401C105.762 120.401 105.645 120.357 105.561 120.269L102.938 117.717C102.763 117.547 102.763 117.264 102.938 117.095C103.112 116.925 103.403 116.925 103.577 117.095L106.201 119.647C106.376 119.816 106.376 120.099 106.201 120.269C106.111 120.357 105.994 120.401 105.878 120.401Z" fill="#818CF8"/>
<path d="M103.261 124.129C103.009 124.129 102.809 123.934 102.809 123.689V117.994C102.809 117.749 103.009 117.554 103.261 117.554C103.513 117.554 103.713 117.749 103.713 117.994V123.689C103.713 123.934 103.513 124.129 103.261 124.129Z" fill="#818CF8"/>
<path d="M44.123 140.879H43.3023V135.58L41.6543 136.171V135.448L43.9938 134.593H44.123V140.879Z" fill="#818CF8"/>
<path d="M49.2011 140.879H48.3804V135.58L46.7324 136.171V135.448L49.0784 134.593H49.2011V140.879Z" fill="#818CF8"/>
<path d="M51.5285 135.826C51.5285 135.65 51.5609 135.48 51.619 135.323C51.6772 135.166 51.7677 135.028 51.8775 134.915C51.9874 134.802 52.1296 134.701 52.2911 134.638C52.4527 134.569 52.6401 134.538 52.8405 134.538C53.0408 134.538 53.2347 134.569 53.3962 134.638C53.5578 134.707 53.7 134.802 53.8099 134.915C53.9197 135.034 54.0102 135.172 54.0684 135.323C54.1265 135.48 54.1588 135.65 54.1588 135.826V136.159C54.1588 136.335 54.1265 136.499 54.0684 136.656C54.0102 136.813 53.9262 136.951 53.8099 137.065C53.6935 137.184 53.5578 137.272 53.3962 137.341C53.2347 137.41 53.0537 137.442 52.8469 137.442C52.6401 137.442 52.4527 137.41 52.2911 137.341C52.1296 137.272 51.9874 137.178 51.8711 137.065C51.7547 136.951 51.6707 136.813 51.6061 136.656C51.5479 136.499 51.5156 136.335 51.5156 136.159V135.826H51.5285ZM52.1425 136.159C52.1425 136.26 52.1554 136.354 52.1877 136.449C52.22 136.543 52.2588 136.625 52.3235 136.694C52.3816 136.763 52.4592 136.826 52.5496 136.863C52.6401 136.907 52.7435 136.926 52.8663 136.926C52.9891 136.926 53.086 136.907 53.1765 136.863C53.267 136.819 53.3381 136.763 53.3962 136.694C53.4544 136.625 53.4996 136.543 53.5255 136.449C53.5513 136.354 53.5707 136.26 53.5707 136.159V135.826C53.5707 135.726 53.5578 135.631 53.5255 135.537C53.4932 135.443 53.4544 135.361 53.3962 135.292C53.3381 135.223 53.267 135.16 53.1765 135.122C53.086 135.078 52.9826 135.059 52.8663 135.059C52.75 135.059 52.6401 135.078 52.5496 135.122C52.4592 135.166 52.3881 135.223 52.3299 135.292C52.2717 135.361 52.2265 135.449 52.2007 135.537C52.1683 135.631 52.1554 135.726 52.1554 135.826V136.159H52.1425ZM53.0408 140.409L52.5755 140.126L55.7163 135.235L56.1816 135.518L53.0408 140.409ZM54.6629 139.346C54.6629 139.17 54.6952 139.007 54.7534 138.85C54.8116 138.693 54.902 138.554 55.0119 138.441C55.1282 138.328 55.2639 138.234 55.4255 138.165C55.5871 138.095 55.7745 138.064 55.9748 138.064C56.1752 138.064 56.3691 138.095 56.5306 138.165C56.6922 138.234 56.8344 138.328 56.9442 138.441C57.0606 138.561 57.1446 138.693 57.2027 138.85C57.2609 139.007 57.2932 139.177 57.2932 139.346V139.679C57.2932 139.855 57.2609 140.025 57.2027 140.182C57.1446 140.339 57.0541 140.478 56.9442 140.591C56.8279 140.704 56.6922 140.798 56.5306 140.867C56.3691 140.937 56.1881 140.968 55.9813 140.968C55.7745 140.968 55.5871 140.937 55.4255 140.867C55.2639 140.798 55.1218 140.704 55.0054 140.591C54.8891 140.471 54.8051 140.339 54.7405 140.182C54.6823 140.025 54.65 139.862 54.65 139.679V139.346H54.6629ZM55.2769 139.679C55.2769 139.78 55.2898 139.874 55.3221 139.969C55.3544 140.063 55.3932 140.145 55.4578 140.214C55.516 140.283 55.5935 140.346 55.684 140.383C55.7745 140.427 55.8779 140.446 56.0007 140.446C56.1235 140.446 56.2204 140.427 56.3109 140.383C56.4014 140.339 56.4725 140.283 56.5306 140.214C56.5888 140.145 56.634 140.063 56.6599 139.969C56.6857 139.874 56.6986 139.78 56.6986 139.679V139.346C56.6986 139.246 56.6857 139.151 56.6534 139.057C56.6211 138.963 56.5823 138.881 56.5242 138.812C56.466 138.743 56.3949 138.686 56.3044 138.642C56.214 138.598 56.1105 138.579 55.9942 138.579C55.8779 138.579 55.7745 138.598 55.684 138.642C55.5935 138.686 55.5224 138.743 55.4643 138.812C55.4061 138.881 55.3609 138.963 55.3286 139.057C55.2963 139.151 55.2833 139.246 55.2833 139.346V139.679H55.2769Z" fill="#818CF8"/>
<path d="M31.6102 141.47C31.4939 141.47 31.3776 141.426 31.2871 141.338C31.1126 141.169 31.1126 140.886 31.2871 140.716L33.9109 138.164C34.0854 137.994 34.3763 137.994 34.5507 138.164C34.7252 138.334 34.7252 138.616 34.5507 138.786L31.9269 141.338C31.8364 141.426 31.7201 141.47 31.6038 141.47H31.6102Z" fill="#4F46E5"/>
<path d="M31.611 141.47C31.4947 141.47 31.3784 141.426 31.2879 141.338L28.6641 138.786C28.4896 138.616 28.4896 138.334 28.6641 138.164C28.8386 137.994 29.1294 137.994 29.3039 138.164L31.9277 140.716C32.1022 140.886 32.1022 141.169 31.9277 141.338C31.8372 141.426 31.7209 141.47 31.6046 141.47H31.611Z" fill="#4F46E5"/>
<path d="M31.6106 140.892C31.3585 140.892 31.1582 140.698 31.1582 140.452V134.757C31.1582 134.512 31.3585 134.317 31.6106 134.317C31.8626 134.317 32.063 134.512 32.063 134.757V140.452C32.063 140.698 31.8626 140.892 31.6106 140.892Z" fill="#4F46E5"/>
<path d="M124.857 17.9536H27.7045C27.419 17.9536 27.1875 18.1788 27.1875 18.4565V26.4333C27.1875 26.711 27.419 26.9362 27.7045 26.9362H124.857C125.143 26.9362 125.374 26.711 125.374 26.4333V18.4565C125.374 18.1788 125.143 17.9536 124.857 17.9536Z" fill="#C7D2FE"/>
<path d="M94.5339 117.968H59.2609C59.1039 117.968 58.9766 118.092 58.9766 118.245V125.109C58.9766 125.262 59.1039 125.386 59.2609 125.386H94.5339C94.691 125.386 94.8183 125.262 94.8183 125.109V118.245C94.8183 118.092 94.691 117.968 94.5339 117.968Z" fill="#C7D2FE"/>
<path d="M86.908 134.085H59.2286C59.0894 134.085 58.9766 134.195 58.9766 134.33V141.257C58.9766 141.393 59.0894 141.502 59.2286 141.502H86.908C87.0472 141.502 87.1601 141.393 87.1601 141.257V134.33C87.1601 134.195 87.0472 134.085 86.908 134.085Z" fill="#C7D2FE"/>
<path d="M157.647 117.968H132.288C132.156 117.968 132.049 118.072 132.049 118.201V125.153C132.049 125.281 132.156 125.386 132.288 125.386H157.647C157.779 125.386 157.886 125.281 157.886 125.153V118.201C157.886 118.072 157.779 117.968 157.647 117.968Z" fill="#C7D2FE"/>
<path d="M165.719 134.085H132.327C132.173 134.085 132.049 134.206 132.049 134.355V141.232C132.049 141.381 132.173 141.502 132.327 141.502H165.719C165.873 141.502 165.997 141.381 165.997 141.232V134.355C165.997 134.206 165.873 134.085 165.719 134.085Z" fill="#C7D2FE"/>
<path d="M61.4588 31.2667H27.6399C27.3878 31.2667 27.1875 31.0719 27.1875 30.8267C27.1875 30.5816 27.3878 30.3867 27.6399 30.3867H61.4588C61.7109 30.3867 61.9112 30.5816 61.9112 30.8267C61.9112 31.0719 61.7109 31.2667 61.4588 31.2667Z" fill="#818CF8"/>
</svg>
