<?xml version="1.0" encoding="UTF-8"?>
<svg width="79.38mm" height="79.38mm" version="1.1" viewBox="0 0 79.37 79.38" xmlns="http://www.w3.org/2000/svg">
 <g transform="translate(-71.44 -92.7)">
  <path d="m77.77 92.7c-3.497 0-6.311 2.816-6.311 6.313-0.0052 11.55-0.01316 23.11-0.01499 34.66 7.5 0.0444 15.01 0.217 22.49-0.3183 10.43-0.9511 19.61-6.552 29.22-10.23 8.742-3.697 18.13-5.941 27.66-5.741l-1e-3 -18.38c4e-3 -3.498-2.815-6.313-6.311-6.313zm73.05 37.19c-1.055 0.0169-2.111 0.0457-3.166 0.0889-11.64-0.0448-21.96 5.974-32.46 10.19 8.115 3.283 15.95 7.454 24.55 9.389 3.675 0.5576 7.372 0.8292 11.08 0.9085zm-71.13 16.57c-2.747 6e-3 -5.494 0.0346-8.239 0.0486 0.0024 6.416 0.0072 12.83 0.01757 19.25 0.0037 3.498 2.815 6.313 6.311 6.313h66.73c3.497 0 6.311-2.816 6.311-6.313v-2.778c-8.203-0.0537-16.4-1.304-24.04-4.374-11.82-4.124-22.85-11.45-35.68-11.94-3.798-0.1794-7.602-0.2147-11.41-0.2062z" fill="#a44" stroke-width=".9327"/>
 </g>
</svg>
