<svg height="536.9" viewBox="0 0 220.3 142" width="832.5" xmlns="http://www.w3.org/2000/svg" xmlns:xlink="http://www.w3.org/1999/xlink"><linearGradient id="a"><stop offset="0" stop-color="#c7a4a4"/><stop offset=".3793" stop-color="#d6c2c2"/><stop offset="1" stop-color="#8e5c5c"/></linearGradient><linearGradient id="b"><stop offset="0" stop-color="#9a6a66"/><stop offset=".4182" stop-color="#9a6a66"/><stop offset=".57" stop-color="#cb9692"/><stop offset=".9157" stop-color="#cb9692"/><stop offset="1" stop-color="#9a6a66"/></linearGradient><linearGradient id="c" gradientUnits="userSpaceOnUse" x1="456.1" x2="498.2" xlink:href="#b" y1="247.7" y2="247.7"/><linearGradient id="d" gradientUnits="userSpaceOnUse" x1="242.3" x2="501.4" y1="230.2" y2="230.2"><stop offset="0" stop-color="#9a6a66"/><stop offset=".2369" stop-color="#9a6a66"/><stop offset=".2961" stop-color="#cb9692"/><stop offset=".9745" stop-color="#cb9692"/><stop offset="1" stop-color="#9a6a66"/></linearGradient><linearGradient id="e" gradientUnits="userSpaceOnUse" x1="260.4" x2="302.7" xlink:href="#b" y1="368.7" y2="368.7"/><linearGradient id="f" gradientUnits="userSpaceOnUse" x1="204.1382214" x2="205.0583714" xlink:href="#a" y1="94.2886" y2="95.91858"/><linearGradient id="g" gradientTransform="matrix(-.2671 -.4529 .4529 -.2671 133.5 116.2)" gradientUnits="userSpaceOnUse" x1="-9.339" x2="-10.98" xlink:href="#a" y1="121.1" y2="118.2"/><linearGradient id="h" gradientUnits="userSpaceOnUse" x1="184.1382214" x2="185.0583714" xlink:href="#a" y1="83.1986" y2="84.82858"/><linearGradient id="i" gradientUnits="userSpaceOnUse" x1="237.4828164" x2="238.4849912" xlink:href="#a" y1="97.52634" y2="99.31406"/><linearGradient id="j" gradientUnits="userSpaceOnUse" x1="228.7828164" x2="229.7849912" xlink:href="#a" y1="79.98634" y2="81.77406"/><linearGradient id="k" gradientUnits="userSpaceOnUse" x1="246.7828164" x2="247.7849912" xlink:href="#a" y1="47.40634" y2="49.19406"/><linearGradient id="l" gradientUnits="userSpaceOnUse" x1="154.8382214" x2="155.7583714" xlink:href="#a" y1="122.4986" y2="124.12858"/><linearGradient id="m" gradientUnits="userSpaceOnUse" x1="266.0828164" x2="267.0849912" xlink:href="#a" y1="58.69334" y2="60.48106"/><linearGradient id="n" gradientUnits="userSpaceOnUse" x1="174.2382214" x2="175.1583714" xlink:href="#a" y1="133.8386" y2="135.46858"/><linearGradient id="o" gradientTransform="matrix(-.2671 -.4529 .4529 -.2671 104.2 155.5)" gradientUnits="userSpaceOnUse" x1="-9.339" x2="-10.98" xlink:href="#a" y1="121.1" y2="118.2"/><filter id="p" color-interpolation-filters="sRGB"><feFlood flood-opacity=".1608" result="flood"/><feComposite in="flood" in2="SourceGraphic" operator="in" result="composite1"/><feGaussianBlur in="composite1" result="blur" stdDeviation="3"/><feOffset dx="2.39521" dy="8.68263" result="offset"/><feComposite in="SourceGraphic" in2="offset" result="composite2"/></filter><g filter="url(#p)" transform="translate(-91.603 -19.945)"><g fill-rule="evenodd" stroke="#8e5c5c" transform="matrix(.14838076 0 0 .14838076 218.939607042 23.6190393852)"><path d="m242.8 242.1-.0373 9.77c-.1111 3.548 2.732 3.82 9.622 7.826l33.18 19.14 6.962 3.953c15.91 9.037 20.48 9.137 36.55-.1768l159.5-92.46c7.536-4.369 11.96-7.156 12.31-10.07l-.0379-9.903" fill="url(#d)"/><path d="m292.6 272.8c15.77 9.293 20.48 9.137 36.55-.1768l159.5-92.46c15.08-8.74 17.68-11.15.1768-20.92l-37.1-20.71c-17.76-9.915-20.39-9.589-36.37-.3536l-159.7 92.29c-21.23 12.27-12.4 14.33-.1768 21.28 13.7 7.787 24.48 13.63 37.1 21.07z" fill="#d7b0ac"/></g><g transform="matrix(.14838076 0 0 .14838076 217.75998 9.408614)"><path d="m297.4 376.8-9.427 5.443c-4.091 1.911-8.183 2.087-12.27 0l-12.27-7.087c-1.89-1.054-2.974-2.175-3-3.384v-18.07l42.32-.1177-.2812 1.165c-.0197 1.212.1636 4.221-1.414 5.355l-6.903 4.802-.6091 10.24 3.392 1.943" fill="url(#e)" fill-rule="evenodd"/><g stroke="#8e5c5c"><path d="m302.7 353.6v4.061c-.0197 1.212-.9228 2.38-2.5 3.514l-6.2 3.58v10.15m3.353 1.909-9.427 5.443c-4.091 1.911-8.183 2.087-12.27 0l-12.27-7.087c-1.89-1.054-2.974-2.175-3-3.384v-18.07" fill="none"/><path d="m287.9 343 12.27 7.087c3.587 2.542 3.072 4.878 0 7.087l-12.27 7.087c-4.091 1.911-8.183 2.087-12.27 0l-12.27-7.087c-3.686-2.055-4.304-4.366 0-7.087l12.27-7.087c3.929-2.273 8.012-2.393 12.27 0z" fill="#d7b0ac" fill-rule="evenodd"/></g></g><path d="m238.1 76.79 19.94-11.35c.8272-.4779.0919-2.255-.7097-1.85-6.318 3.817-19.23 10.96-19.23 10.96z" fill="url(#m)" stroke="#8e5c5c" stroke-width=".1391"/><g transform="matrix(.14838076 0 0 .14838076 194.801836 22.392178)"><path d="m297.4 376.8-9.427 5.443c-4.091 1.911-8.183 2.087-12.27 0l-12.27-7.087c-1.89-1.054-2.974-2.175-3-3.384v-18.07l42.32-.1177-.2812 1.165c-.0197 1.212 1.845 4.086.2677 5.22l.0925 3.726-.2728 9.235-5.621 4.163" fill="url(#e)" fill-rule="evenodd"/><g stroke="#8e5c5c"><path d="m302.7 353.6v17.85c.2131 1.489-1.025 2.634-2.119 3.284l-12.66 7.528c-4.091 1.911-8.183 2.087-12.27 0l-12.27-7.087c-1.89-1.054-2.974-2.175-3-3.384v-18.07" fill="none"/><path d="m287.9 343 12.27 7.087c3.587 2.542 3.072 4.878 0 7.087l-12.27 7.087c-4.091 1.911-8.183 2.087-12.27 0l-12.27-7.087c-3.686-2.055-4.304-4.366 0-7.087l12.27-7.087c3.929-2.273 8.012-2.393 12.27 0z" fill="#d7b0ac" fill-rule="evenodd"/></g></g><path d="m205 95.89 30.26-17.53c.8272-.4779.0919-2.255-.7097-1.85l-29.55 17.14z" fill="url(#j)" stroke="#8e5c5c" stroke-width=".1391"/><g fill-rule="evenodd" stroke="#8e5c5c" transform="matrix(.14838076 0 0 .14838076 199.439607042 12.3990393852)"><path d="m242.8 242.1-.0373 9.77c-.1111 3.548 2.732 3.82 9.622 7.826l33.18 19.14 6.962 3.953c15.91 9.037 20.48 9.137 36.55-.1768l159.5-92.46c7.536-4.369 11.96-7.156 12.31-10.07l-.0379-9.903" fill="url(#d)"/><path d="m292.6 272.8c15.77 9.293 20.48 9.137 36.55-.1768l159.5-92.46c15.08-8.74 17.68-11.15.1768-20.92l-37.1-20.71c-17.76-9.915-20.39-9.589-36.37-.3536l-159.7 92.29c-21.23 12.27-12.4 14.33-.1768 21.28 13.7 7.787 24.48 13.63 37.1 21.07z" fill="#d7b0ac"/></g><g transform="matrix(.14838076 0 0 .14838076 198.25998 -1.811386)"><path d="m297.4 376.8-9.427 5.443c-4.091 1.911-8.183 2.087-12.27 0l-12.27-7.087c-1.89-1.054-2.974-2.175-3-3.384v-18.07l42.32-.1177-.2812 1.165c-.0197 1.212.1636 4.221-1.414 5.355l-6.903 4.802-.6091 10.24 3.392 1.943" fill="url(#e)" fill-rule="evenodd"/><g stroke="#8e5c5c"><path d="m302.7 353.6v4.061c-.0197 1.212-.9228 2.38-2.5 3.514l-6.2 3.58v10.15m3.353 1.909-9.427 5.443c-4.091 1.911-8.183 2.087-12.27 0l-12.27-7.087c-1.89-1.054-2.974-2.175-3-3.384v-18.07" fill="none"/><path d="m287.9 343 12.27 7.087c3.587 2.542 3.072 4.878 0 7.087l-12.27 7.087c-4.091 1.911-8.183 2.087-12.27 0l-12.27-7.087c-3.686-2.055-4.304-4.366 0-7.087l12.27-7.087c3.929-2.273 8.012-2.393 12.27 0z" fill="#d7b0ac" fill-rule="evenodd"/></g></g><path d="m223.1 63.3 15.71-9.159c.8272-.4779.0919-2.255-.7097-1.85l-15 8.77z" fill="url(#k)" stroke="#8e5c5c" stroke-width=".1391"/><g fill-rule="evenodd" stroke="#8e5c5c" transform="matrix(.14838076 0 0 .14838076 151.539607042 39.9260393852)"><path d="m242.8 242.1-.0373 9.77c-.1111 3.548 2.732 3.82 9.622 7.826l33.18 19.14 6.962 3.953c15.91 9.037 20.48 9.137 36.55-.1768l159.5-92.46c7.536-4.369 11.96-7.156 12.31-10.07l-.0379-9.903" fill="url(#d)"/><path d="m292.6 272.8c15.77 9.293 20.48 9.137 36.55-.1768l159.5-92.46c15.08-8.74 17.68-11.15.1768-20.92l-37.1-20.71c-17.76-9.915-20.39-9.589-36.37-.3536l-159.7 92.29c-21.23 12.27-12.4 14.33-.1768 21.28 13.7 7.787 24.48 13.63 37.1 21.07z" fill="#d7b0ac"/></g><g transform="matrix(.14838076 0 0 .14838076 150.35998 25.715614)"><path d="m456.2 239.5-.002 4.713c.1188 1.145 1.188 2.211 2.99 3.215l12.27 7.087c4.091 2.087 8.183 1.911 12.27 0l5.867-4.021 8.418 4.663.2018-14.72" fill="url(#c)" fill-rule="evenodd"/><g stroke="#8e5c5c"><path d="m456.2 239.5-.002 4.713c.1188 1.145 1.188 2.211 2.99 3.215l12.27 7.087c4.091 2.087 8.183 1.911 12.27 0l5.914-3.414m8.839 4.896.0201-16.4" fill="none"/><path d="m483.7 229.2 12.27 7.087c3.587 2.542 3.072 4.878 0 7.087l-12.27 7.087c-4.091 1.911-8.183 2.087-12.27 0l-12.27-7.087c-3.686-2.055-4.304-4.366 0-7.087l12.27-7.087c3.929-2.273 8.012-2.393 12.27 0z" fill="#d7b0ac" fill-rule="evenodd" stroke-width=".9992"/></g></g><g transform="matrix(.14838076 0 0 .14838076 150.35998 25.715614)"><path d="m297.4 376.8-9.427 5.443c-4.091 1.911-8.183 2.087-12.27 0l-12.27-7.087c-1.89-1.054-2.974-2.175-3-3.384v-18.07l42.32-.1177-.2812 1.165c-.0197 1.212.1636 4.221-1.414 5.355l-6.903 4.802-.6091 10.24 3.392 1.943" fill="url(#e)" fill-rule="evenodd"/><g stroke="#8e5c5c"><path d="m302.7 353.6v4.061c-.0197 1.212-.9228 2.38-2.5 3.514l-6.2 3.58v10.15m3.353 1.909-9.427 5.443c-4.091 1.911-8.183 2.087-12.27 0l-12.27-7.087c-1.89-1.054-2.974-2.175-3-3.384v-18.07" fill="none"/><path d="m287.9 343 12.27 7.087c3.587 2.542 3.072 4.878 0 7.087l-12.27 7.087c-4.091 1.911-8.183 2.087-12.27 0l-12.27-7.087c-3.686-2.055-4.304-4.366 0-7.087l12.27-7.087c3.929-2.273 8.012-2.393 12.27 0z" fill="#d7b0ac" fill-rule="evenodd"/></g></g><path d="m184.8 85.1 5.971-3.38c.8272-.4779.0919-2.255-.7097-1.85l-5.262 2.99z" fill="url(#h)" stroke="#8e5c5c" stroke-width=".1391"/><g transform="matrix(.14838076 0 0 .14838076 141.101836 30.820178)"><path d="m297.4 376.8-9.427 5.443c-4.091 1.911-8.183 2.087-12.27 0l-12.27-7.087c-1.89-1.054-2.974-2.175-3-3.384v-18.07l42.32-.1177-.2812 1.165c-.0197 1.212 1.845 4.086.2677 5.22l.0925 3.726-.2728 9.235-5.621 4.163" fill="url(#e)" fill-rule="evenodd"/><g stroke="#8e5c5c"><path d="m302.7 353.6v17.85c.2131 1.489-1.025 2.634-2.119 3.284l-12.66 7.528c-4.091 1.911-8.183 2.087-12.27 0l-12.27-7.087c-1.89-1.054-2.974-2.175-3-3.384v-18.07" fill="none"/><path d="m287.9 343 12.27 7.087c3.587 2.542 3.072 4.878 0 7.087l-12.27 7.087c-4.091 1.911-8.183 2.087-12.27 0l-12.27-7.087c-3.686-2.055-4.304-4.366 0-7.087l12.27-7.087c3.929-2.273 8.012-2.393 12.27 0z" fill="#d7b0ac" fill-rule="evenodd"/></g></g><path d="m202.9 94.93-17.55-10.01c-.8318-.4698-1.989 1.066-1.233 1.551l16.86 9.746z" fill="url(#g)" stroke="#8e5c5c" stroke-width=".1391"/><g transform="matrix(.14838076 0 0 .14838076 161.101836 41.920178)"><path d="m297.4 376.8-9.427 5.443c-4.091 1.911-8.183 2.087-12.27 0l-12.27-7.087c-1.89-1.054-2.974-2.175-3-3.384v-18.07l42.32-.1177-.2812 1.165c-.0197 1.212 1.845 4.086.2677 5.22l.0925 3.726-.2728 9.235-5.621 4.163" fill="url(#e)" fill-rule="evenodd"/><g stroke="#8e5c5c"><path d="m302.7 353.6v17.85c.2131 1.489-1.025 2.634-2.119 3.284l-12.66 7.528c-4.091 1.911-8.183 2.087-12.27 0l-12.27-7.087c-1.89-1.054-2.974-2.175-3-3.384v-18.07" fill="none"/><path d="m287.9 343 12.27 7.087c3.587 2.542 3.072 4.878 0 7.087l-12.27 7.087c-4.091 1.911-8.183 2.087-12.27 0l-12.27-7.087c-3.686-2.055-4.304-4.366 0-7.087l12.27-7.087c3.929-2.273 8.012-2.393 12.27 0z" fill="#d7b0ac" fill-rule="evenodd"/></g></g><path d="m194.4 102.2 7.216-4.313c.8272-.4779.0919-2.255-.7097-1.85l-6.506 3.923z" fill="url(#f)" stroke="#8e5c5c" stroke-width=".1391"/><g fill-rule="evenodd" stroke="#8e5c5c" transform="matrix(.14838076 0 0 .14838076 122.239607042 79.2290393852)"><path d="m242.8 242.1-.0373 9.77c-.1111 3.548 2.732 3.82 9.622 7.826l33.18 19.14 6.962 3.953c15.91 9.037 20.48 9.137 36.55-.1768l159.5-92.46c7.536-4.369 11.96-7.156 12.31-10.07l-.0379-9.903" fill="url(#d)"/><path d="m292.6 272.8c15.77 9.293 20.48 9.137 36.55-.1768l159.5-92.46c15.08-8.74 17.68-11.15.1768-20.92l-37.1-20.71c-17.76-9.915-20.39-9.589-36.37-.3536l-159.7 92.29c-21.23 12.27-12.4 14.33-.1768 21.28 13.7 7.787 24.48 13.63 37.1 21.07z" fill="#d7b0ac"/></g><g transform="matrix(.14838076 0 0 .14838076 121.05998 65.018614)"><path d="m456.2 239.5-.002 4.713c.1188 1.145 1.188 2.211 2.99 3.215l12.27 7.087c4.091 2.087 8.183 1.911 12.27 0l5.867-4.021 8.418 4.663.2018-14.72" fill="url(#c)" fill-rule="evenodd"/><g stroke="#8e5c5c"><path d="m456.2 239.5-.002 4.713c.1188 1.145 1.188 2.211 2.99 3.215l12.27 7.087c4.091 2.087 8.183 1.911 12.27 0l5.914-3.414m8.839 4.896.0201-16.4" fill="none"/><path d="m483.7 229.2 12.27 7.087c3.587 2.542 3.072 4.878 0 7.087l-12.27 7.087c-4.091 1.911-8.183 2.087-12.27 0l-12.27-7.087c-3.686-2.055-4.304-4.366 0-7.087l12.27-7.087c3.929-2.273 8.012-2.393 12.27 0z" fill="#d7b0ac" fill-rule="evenodd" stroke-width=".9992"/></g></g><g transform="matrix(.14838076 0 0 .14838076 121.05998 65.018614)"><path d="m297.4 376.8-9.427 5.443c-4.091 1.911-8.183 2.087-12.27 0l-12.27-7.087c-1.89-1.054-2.974-2.175-3-3.384v-18.07l42.32-.1177-.2812 1.165c-.0197 1.212.1636 4.221-1.414 5.355l-6.903 4.802-.6091 10.24 3.392 1.943" fill="url(#e)" fill-rule="evenodd"/><g stroke="#8e5c5c"><path d="m302.7 353.6v4.061c-.0197 1.212-.9228 2.38-2.5 3.514l-6.2 3.58v10.15m3.353 1.909-9.427 5.443c-4.091 1.911-8.183 2.087-12.27 0l-12.27-7.087c-1.89-1.054-2.974-2.175-3-3.384v-18.07" fill="none"/><path d="m287.9 343 12.27 7.087c3.587 2.542 3.072 4.878 0 7.087l-12.27 7.087c-4.091 1.911-8.183 2.087-12.27 0l-12.27-7.087c-3.686-2.055-4.304-4.366 0-7.087l12.27-7.087c3.929-2.273 8.012-2.393 12.27 0z" fill="#d7b0ac" fill-rule="evenodd"/></g></g><g fill-rule="evenodd" stroke="#8e5c5c" transform="matrix(.14838076 0 0 .14838076 190.139607042 62.2290393852)"><path d="m242.8 242.1-.0373 9.77c-.1111 3.548 2.732 3.82 9.622 7.826l33.18 19.14 6.962 3.953c15.91 9.037 20.48 9.137 36.55-.1768l159.5-92.46c7.536-4.369 11.96-7.156 12.31-10.07l-.0379-9.903" fill="url(#d)"/><path d="m292.6 272.8c15.77 9.293 20.48 9.137 36.55-.1768l159.5-92.46c15.08-8.74 17.68-11.15.1768-20.92l-37.1-20.71c-17.76-9.915-20.39-9.589-36.37-.3536l-159.7 92.29c-21.23 12.27-12.4 14.33-.1768 21.28 13.7 7.787 24.48 13.63 37.1 21.07z" fill="#d7b0ac"/></g><g transform="matrix(.14838076 0 0 .14838076 188.95998 48.018614)"><path d="m297.4 376.8-9.427 5.443c-4.091 1.911-8.183 2.087-12.27 0l-12.27-7.087c-1.89-1.054-2.974-2.175-3-3.384v-18.07l42.32-.1177-.2812 1.165c-.0197 1.212.1636 4.221-1.414 5.355l-6.903 4.802-.6091 10.24 3.392 1.943" fill="url(#e)" fill-rule="evenodd"/><g stroke="#8e5c5c"><path d="m302.7 353.6v4.061c-.0197 1.212-.9228 2.38-2.5 3.514l-6.2 3.58v10.15m3.353 1.909-9.427 5.443c-4.091 1.911-8.183 2.087-12.27 0l-12.27-7.087c-1.89-1.054-2.974-2.175-3-3.384v-18.07" fill="none"/><path d="m287.9 343 12.27 7.087c3.587 2.542 3.072 4.878 0 7.087l-12.27 7.087c-4.091 1.911-8.183 2.087-12.27 0l-12.27-7.087c-3.686-2.055-4.304-4.366 0-7.087l12.27-7.087c3.929-2.273 8.012-2.393 12.27 0z" fill="#d7b0ac" fill-rule="evenodd"/></g></g><path d="m213.8 113.4 15.71-9.159c.8272-.4779.0919-2.255-.7097-1.85l-15 8.77z" fill="url(#i)" stroke="#8e5c5c" stroke-width=".1391"/><g fill-rule="evenodd" stroke="#8e5c5c" transform="matrix(.14838076 0 0 .14838076 141.739607042 90.4890393852)"><path d="m242.8 242.1-.0373 9.77c-.1111 3.548 2.732 3.82 9.622 7.826l33.18 19.14 6.962 3.953c15.91 9.037 20.48 9.137 36.55-.1768l159.5-92.46c7.536-4.369 11.96-7.156 12.31-10.07l-.0379-9.903" fill="url(#d)"/><path d="m292.6 272.8c15.77 9.293 20.48 9.137 36.55-.1768l159.5-92.46c15.08-8.74 17.68-11.15.1768-20.92l-37.1-20.71c-17.76-9.915-20.39-9.589-36.37-.3536l-159.7 92.29c-21.23 12.27-12.4 14.33-.1768 21.28 13.7 7.787 24.48 13.63 37.1 21.07z" fill="#d7b0ac"/></g><g transform="matrix(.14838076 0 0 .14838076 140.55998 76.278614)"><path d="m456.2 239.5-.002 4.713c.1188 1.145 1.188 2.211 2.99 3.215l12.27 7.087c4.091 2.087 8.183 1.911 12.27 0l5.867-4.021 8.418 4.663.2018-14.72" fill="url(#c)" fill-rule="evenodd"/><g stroke="#8e5c5c"><path d="m456.2 239.5-.002 4.713c.1188 1.145 1.188 2.211 2.99 3.215l12.27 7.087c4.091 2.087 8.183 1.911 12.27 0l5.914-3.414m8.839 4.896.0201-16.4" fill="none"/><path d="m483.7 229.2 12.27 7.087c3.587 2.542 3.072 4.878 0 7.087l-12.27 7.087c-4.091 1.911-8.183 2.087-12.27 0l-12.27-7.087c-3.686-2.055-4.304-4.366 0-7.087l12.27-7.087c3.929-2.273 8.012-2.393 12.27 0z" fill="#d7b0ac" fill-rule="evenodd" stroke-width=".9992"/></g></g><g transform="matrix(.14838076 0 0 .14838076 140.55998 76.278614)"><path d="m297.4 376.8-9.427 5.443c-4.091 1.911-8.183 2.087-12.27 0l-12.27-7.087c-1.89-1.054-2.974-2.175-3-3.384v-18.07l42.32-.1177-.2812 1.165c-.0197 1.212.1636 4.221-1.414 5.355l-6.903 4.802-.6091 10.24 3.392 1.943" fill="url(#e)" fill-rule="evenodd"/><g stroke="#8e5c5c"><path d="m302.7 353.6v4.061c-.0197 1.212-.9228 2.38-2.5 3.514l-6.2 3.58v10.15m3.353 1.909-9.427 5.443c-4.091 1.911-8.183 2.087-12.27 0l-12.27-7.087c-1.89-1.054-2.974-2.175-3-3.384v-18.07" fill="none"/><path d="m287.9 343 12.27 7.087c3.587 2.542 3.072 4.878 0 7.087l-12.27 7.087c-4.091 1.911-8.183 2.087-12.27 0l-12.27-7.087c-3.686-2.055-4.304-4.366 0-7.087l12.27-7.087c3.929-2.273 8.012-2.393 12.27 0z" fill="#d7b0ac" fill-rule="evenodd"/></g></g><path d="m176 135.2 4.897-2.835c.8272-.4779.0919-2.255-.7097-1.85l-5.154 2.815z" fill="url(#n)" stroke="#8e5c5c" stroke-width=".1391"/><path d="m155.5 124.4 5.971-3.38c.8272-.4779.0919-2.255-.7097-1.85l-5.262 2.99z" fill="url(#l)" stroke="#8e5c5c" stroke-width=".1391"/><g transform="matrix(.14838076 0 0 .14838076 111.801836 70.130178)"><path d="m297.4 376.8-9.427 5.443c-4.091 1.911-8.183 2.087-12.27 0l-12.27-7.087c-1.89-1.054-2.974-2.175-3-3.384v-18.07l42.32-.1177-.2812 1.165c-.0197 1.212 1.845 4.086.2677 5.22l.0925 3.726-.2728 9.235-5.621 4.163" fill="url(#e)" fill-rule="evenodd"/><g stroke="#8e5c5c"><path d="m302.7 353.6v17.85c.2131 1.489-1.025 2.634-2.119 3.284l-12.66 7.528c-4.091 1.911-8.183 2.087-12.27 0l-12.27-7.087c-1.89-1.054-2.974-2.175-3-3.384v-18.07" fill="none"/><path d="m287.9 343 12.27 7.087c3.587 2.542 3.072 4.878 0 7.087l-12.27 7.087c-4.091 1.911-8.183 2.087-12.27 0l-12.27-7.087c-3.686-2.055-4.304-4.366 0-7.087l12.27-7.087c3.929-2.273 8.012-2.393 12.27 0z" fill="#d7b0ac" fill-rule="evenodd"/></g></g><path d="m173.6 134.2-17.55-10.01c-.8318-.4697-1.989 1.066-1.233 1.551l16.86 9.746z" fill="url(#o)" stroke="#8e5c5c" stroke-width=".1391"/><g transform="matrix(.14838076 0 0 .14838076 131.801836 81.210178)"><path d="m297.4 376.8-9.427 5.443c-4.091 1.911-8.183 2.087-12.27 0l-12.27-7.087c-1.89-1.054-2.974-2.175-3-3.384v-18.07l42.32-.1177-.2812 1.165c-.0197 1.212 1.845 4.086.2677 5.22l.0925 3.726-.2728 9.235-5.621 4.163" fill="url(#e)" fill-rule="evenodd"/><g stroke="#8e5c5c"><path d="m302.7 353.6v17.85c.2131 1.489-1.025 2.634-2.119 3.284l-12.66 7.528c-4.091 1.911-8.183 2.087-12.27 0l-12.27-7.087c-1.89-1.054-2.974-2.175-3-3.384v-18.07" fill="none"/><path d="m287.9 343 12.27 7.087c3.587 2.542 3.072 4.878 0 7.087l-12.27 7.087c-4.091 1.911-8.183 2.087-12.27 0l-12.27-7.087c-3.686-2.055-4.304-4.366 0-7.087l12.27-7.087c3.929-2.273 8.012-2.393 12.27 0z" fill="#d7b0ac" fill-rule="evenodd"/></g></g><path d="m145.1 130.4 7.216-4.313c.8272-.4779.0919-2.255-.7097-1.85l-6.506 3.923z" fill="url(#l)" stroke="#8e5c5c" stroke-width=".1391"/><g fill-rule="evenodd" stroke="#8e5c5c" transform="matrix(.14838076 0 0 .14838076 73.739607042 107.2590393852)"><path d="m242.8 242.1-.0373 9.77c-.1111 3.548 2.732 3.82 9.622 7.826l33.18 19.14 6.962 3.953c15.91 9.037 20.48 9.137 36.55-.1768l159.5-92.46c7.536-4.369 11.96-7.156 12.31-10.07l-.0379-9.903" fill="url(#d)"/><path d="m292.6 272.8c15.77 9.293 20.48 9.137 36.55-.1768l159.5-92.46c15.08-8.74 17.68-11.15.1768-20.92l-37.1-20.71c-17.76-9.915-20.39-9.589-36.37-.3536l-159.7 92.29c-21.23 12.27-12.4 14.33-.1768 21.28 13.7 7.787 24.48 13.63 37.1 21.07z" fill="#d7b0ac"/></g><g transform="matrix(.14838076 0 0 .14838076 72.55998 93.048614)"><path d="m456.2 239.5-.002 4.713c.1188 1.145 1.188 2.211 2.99 3.215l12.27 7.087c4.091 2.087 8.183 1.911 12.27 0l5.867-4.021 8.418 4.663.2018-14.72" fill="url(#c)" fill-rule="evenodd"/><g stroke="#8e5c5c"><path d="m456.2 239.5-.002 4.713c.1188 1.145 1.188 2.211 2.99 3.215l12.27 7.087c4.091 2.087 8.183 1.911 12.27 0l5.914-3.414m8.839 4.896.0201-16.4" fill="none"/><path d="m483.7 229.2 12.27 7.087c3.587 2.542 3.072 4.878 0 7.087l-12.27 7.087c-4.091 1.911-8.183 2.087-12.27 0l-12.27-7.087c-3.686-2.055-4.304-4.366 0-7.087l12.27-7.087c3.929-2.273 8.012-2.393 12.27 0z" fill="#d7b0ac" fill-rule="evenodd" stroke-width=".9992"/></g></g></g></svg>