<svg width="143" height="24" viewBox="0 0 143 24" fill="none" xmlns="http://www.w3.org/2000/svg">
<g clip-path="url(#clip0_1740_13937)">
<path d="M22.6799 4.63965V23.2796H26.7599C33.1599 23.2796 36.9199 19.2796 36.9199 14.1596C36.9199 8.95965 33.3999 4.71965 25.9599 4.71965C25.9599 4.63965 22.6799 4.63965 22.6799 4.63965ZM26.9199 19.4396V8.23965C30.9999 7.99965 32.8399 10.8796 32.8399 14.1596C32.7599 17.2796 30.9199 19.6796 26.9199 19.4396Z" fill="#4B5563"/>
<path d="M79.2401 4.64031H75.0801V14.9603L63.6401 4.32031V23.2803H67.8001V13.5203L79.2401 24.0003V4.64031Z" fill="#4B5563"/>
<path d="M81 8.23965H86.12V23.2796H90.6V8.23965H95.72V4.63965H81V8.23965Z" fill="#4B5563"/>
<path d="M97.3201 23.2796V4.63965H108.28V8.15965H101.56V12.1596H107.64V15.6796H101.56V19.6796H108.28V23.2796H97.3201Z" fill="#4B5563"/>
<path d="M137.48 4.63965V12.1596H130.28V4.63965H126.04V23.2796H130.28V15.6796H137.48V23.2796H141.64V4.63965H137.48Z" fill="#4B5563"/>
<path d="M34.9199 4.63965L44.4399 23.7596L46.7599 18.8796L39.7999 4.63965H34.9199Z" fill="#4B5563"/>
<path d="M53.88 4L51.56 8.8L53.56 13.76H49.24L47.72 16.88H54.76L57.4 23.28H62.28L53.88 4Z" fill="#4B5563"/>
<path d="M109.16 13.9996C109.16 20.0796 113.72 23.5196 119.4 23.5196C121.64 23.5196 122.84 22.8796 123.8 22.3996V17.9996C122.92 19.1196 121.24 19.9196 119.48 19.9196C116.12 19.9196 113.4 17.5996 113.4 13.9196C113.4 10.2396 116.36 8.07957 119.48 8.07957C121.24 8.07957 122.92 8.87957 123.8 9.99957V5.83957C123 5.11957 121.56 4.55957 119.32 4.55957C113.72 4.55957 109.16 8.55957 109.16 13.9996Z" fill="#4B5563"/>
<path d="M8.20003 15.92L10.84 9.36L13.48 15.92H8.20003ZM21.72 23.28L11.08 0L0.280029 23.28H5.56003L7.08003 19.36H14.68L16.2 23.28H21.72Z" fill="#4B5563"/>
</g>
<defs>
<clipPath id="clip0_1740_13937">
<rect width="142.72" height="24" fill="white" transform="translate(0.280029)"/>
</clipPath>
</defs>
</svg>
