<svg width="103" height="20" viewBox="0 0 103 20" fill="none" xmlns="http://www.w3.org/2000/svg">
<g clip-path="url(#clip0_1740_13972)">
<path fill-rule="evenodd" clip-rule="evenodd" d="M6.39496 18.8933C9.90273 18.8933 12.0125 17.2979 12.0125 13.5692C12.0125 11.2876 11.5952 10.3069 9.63273 9.17779V9.1287C11.13 8.3187 11.718 6.87164 11.718 5.25275C11.718 1.54862 9.16637 0.493164 5.90405 0.493164H0.311035V18.8933H6.39496ZM4.6288 3.80569C6.14951 3.80569 7.40021 3.73205 7.40021 5.5473C7.40021 7.73073 6.51769 7.608 4.6288 7.73073V3.80569ZM4.6288 11.0421C6.4686 11.1158 7.69475 11.0667 7.69475 13.201C7.69475 15.679 6.78769 15.5306 4.6288 15.5808V11.0421Z" fill="#4B5563"/>
<path fill-rule="evenodd" clip-rule="evenodd" d="M23.9937 18.8941V15.2132H18.1309V11.2396H23.5273V7.55959H18.1309V4.17414H23.6991V0.494141H13.8127V18.8941H23.9937Z" fill="#4B5563"/>
<path fill-rule="evenodd" clip-rule="evenodd" d="M37.4059 6.92211V5.37575C37.4059 1.62253 35.198 0.0527344 31.5184 0.0527344C27.5688 0.0527344 25.729 1.91707 25.729 5.91575V13.4724C25.729 17.2245 27.2742 19.3332 31.2484 19.3332C35.6643 19.3332 37.4796 17.1263 37.4796 13.9622V11.7051H33.1618V13.3742C33.1618 14.5033 33.0391 16.024 31.5675 16.024C30.4384 16.024 30.0211 15.4093 30.0211 14.3784L30.0457 5.27757C30.0457 4.07596 30.3647 3.33959 31.7136 3.36414C32.5236 3.36414 33.0882 4.17414 33.0882 5.74393V6.92211H37.4059Z" fill="#4B5563"/>
<path fill-rule="evenodd" clip-rule="evenodd" d="M43.6219 18.8941V14.355L44.5783 12.4896L46.9583 18.8941H51.521L47.3501 8.61505L51.2764 0.494141H46.8601L43.671 7.85414H43.6219V0.494141H39.3037V18.8941H43.6219Z" fill="#4B5563"/>
<path fill-rule="evenodd" clip-rule="evenodd" d="M57.001 18.8941V11.2396H59.9947V18.8941H64.312V0.494141H59.9947V7.55959H57.001V0.494141H52.6829V18.8941H57.001Z" fill="#4B5563"/>
<path fill-rule="evenodd" clip-rule="evenodd" d="M77.8133 5.54757C77.8133 2.01526 75.7771 0.0527344 71.9994 0.0527344C68.2216 0.0527344 66.1118 2.01526 66.1118 5.54757V13.0295C66.1118 17.1765 67.6325 19.3332 71.9994 19.3332C76.3662 19.3332 77.8133 17.1765 77.8133 13.0295V5.54757ZM73.4966 13.3977C73.4966 14.4531 73.3974 16.024 71.9994 16.024C70.6014 16.024 70.4296 14.4531 70.4296 13.3977V5.84211C70.4296 4.71414 70.6014 3.36414 71.9748 3.36414C73.3974 3.36414 73.4966 4.71414 73.4966 5.84211V13.3977Z" fill="#4B5563"/>
<path fill-rule="evenodd" clip-rule="evenodd" d="M84.1029 18.8941V11.1169H89.4756V7.43687H84.1029V4.17414H89.942V0.494141H79.7856V18.8941H84.1029Z" fill="#4B5563"/>
<path fill-rule="evenodd" clip-rule="evenodd" d="M96.19 18.8941V11.1169H101.563V7.43687H96.19V4.17414H102.028V0.494141H91.8718V18.8941H96.19Z" fill="#4B5563"/>
</g>
<defs>
<clipPath id="clip0_1740_13972">
<rect width="101.818" height="20" fill="white" transform="translate(0.311035)"/>
</clipPath>
</defs>
</svg>
