<svg width="158" height="36" viewBox="0 0 158 36" fill="none" xmlns="http://www.w3.org/2000/svg">
<path d="M55.25 20.292C55.25 20.988 55.112 21.576 54.836 22.056C54.56 22.524 54.194 22.902 53.738 23.19C53.282 23.478 52.76 23.688 52.172 23.82C51.596 23.94 51.002 24 50.39 24H45.314V11.256H50.39C50.882 11.256 51.386 11.31 51.902 11.418C52.418 11.514 52.886 11.688 53.306 11.94C53.726 12.18 54.068 12.51 54.332 12.93C54.596 13.35 54.728 13.884 54.728 14.532C54.728 15.24 54.536 15.828 54.152 16.296C53.768 16.752 53.264 17.082 52.64 17.286V17.322C53 17.382 53.336 17.496 53.648 17.664C53.972 17.82 54.248 18.024 54.476 18.276C54.716 18.528 54.902 18.822 55.034 19.158C55.178 19.494 55.25 19.872 55.25 20.292ZM51.758 14.946C51.758 14.514 51.59 14.202 51.254 14.01C50.93 13.806 50.444 13.704 49.796 13.704H48.284V16.332H49.94C50.516 16.332 50.96 16.218 51.272 15.99C51.596 15.75 51.758 15.402 51.758 14.946ZM52.172 20.004C52.172 19.476 51.974 19.11 51.578 18.906C51.182 18.702 50.654 18.6 49.994 18.6H48.284V21.516H50.012C50.252 21.516 50.498 21.498 50.75 21.462C51.014 21.414 51.248 21.336 51.452 21.228C51.668 21.12 51.842 20.97 51.974 20.778C52.106 20.574 52.172 20.316 52.172 20.004ZM64.1067 24L61.3527 18.942H60.3087V24H57.2847V11.256H62.1447C62.7567 11.256 63.3507 11.322 63.9267 11.454C64.5147 11.574 65.0367 11.784 65.4927 12.084C65.9607 12.384 66.3327 12.78 66.6087 13.272C66.8847 13.764 67.0227 14.376 67.0227 15.108C67.0227 15.972 66.7887 16.698 66.3207 17.286C65.8527 17.874 65.2047 18.294 64.3767 18.546L67.7067 24H64.1067ZM63.9807 15.162C63.9807 14.862 63.9147 14.622 63.7827 14.442C63.6627 14.25 63.5007 14.106 63.2967 14.01C63.1047 13.902 62.8827 13.83 62.6307 13.794C62.3907 13.758 62.1567 13.74 61.9287 13.74H60.2907V16.71H61.7487C62.0007 16.71 62.2587 16.692 62.5227 16.656C62.7867 16.608 63.0267 16.53 63.2427 16.422C63.4587 16.314 63.6327 16.158 63.7647 15.954C63.9087 15.75 63.9807 15.486 63.9807 15.162ZM82.5043 17.574C82.5043 18.582 82.3303 19.506 81.9823 20.346C81.6343 21.174 81.1483 21.888 80.5243 22.488C79.9123 23.076 79.1803 23.532 78.3283 23.856C77.4763 24.18 76.5523 24.342 75.5563 24.342C74.5603 24.342 73.6363 24.18 72.7843 23.856C71.9443 23.532 71.2123 23.076 70.5883 22.488C69.9763 21.888 69.4963 21.174 69.1483 20.346C68.8003 19.506 68.6263 18.582 68.6263 17.574C68.6263 16.554 68.8003 15.636 69.1483 14.82C69.4963 13.992 69.9763 13.29 70.5883 12.714C71.2123 12.138 71.9443 11.694 72.7843 11.382C73.6363 11.07 74.5603 10.914 75.5563 10.914C76.5523 10.914 77.4763 11.07 78.3283 11.382C79.1803 11.694 79.9123 12.138 80.5243 12.714C81.1483 13.29 81.6343 13.992 81.9823 14.82C82.3303 15.636 82.5043 16.554 82.5043 17.574ZM79.2103 17.574C79.2103 17.022 79.1203 16.506 78.9403 16.026C78.7603 15.546 78.5083 15.138 78.1843 14.802C77.8723 14.454 77.4883 14.184 77.0323 13.992C76.5883 13.788 76.0963 13.686 75.5563 13.686C75.0163 13.686 74.5243 13.788 74.0803 13.992C73.6363 14.184 73.2523 14.454 72.9283 14.802C72.6043 15.138 72.3523 15.546 72.1723 16.026C72.0043 16.506 71.9203 17.022 71.9203 17.574C71.9203 18.15 72.0103 18.684 72.1903 19.176C72.3703 19.656 72.6163 20.07 72.9283 20.418C73.2523 20.766 73.6363 21.042 74.0803 21.246C74.5243 21.438 75.0163 21.534 75.5563 21.534C76.0963 21.534 76.5883 21.438 77.0323 21.246C77.4763 21.042 77.8603 20.766 78.1843 20.418C78.5083 20.07 78.7603 19.656 78.9403 19.176C79.1203 18.684 79.2103 18.15 79.2103 17.574ZM92.8544 24L91.8644 21.498H86.9324L85.9964 24H82.6484L87.9944 11.256H90.9824L96.2744 24H92.8544ZM89.4344 14.658L87.8144 19.032H91.0184L89.4344 14.658ZM109.226 17.592C109.226 18.708 109.016 19.674 108.596 20.49C108.188 21.294 107.642 21.96 106.958 22.488C106.286 23.004 105.524 23.388 104.672 23.64C103.82 23.88 102.956 24 102.08 24H97.3277V11.256H101.936C102.836 11.256 103.724 11.364 104.6 11.58C105.476 11.784 106.256 12.132 106.94 12.624C107.624 13.104 108.176 13.752 108.596 14.568C109.016 15.384 109.226 16.392 109.226 17.592ZM106.022 17.592C106.022 16.872 105.902 16.278 105.662 15.81C105.434 15.33 105.122 14.952 104.726 14.676C104.342 14.388 103.898 14.184 103.394 14.064C102.902 13.944 102.392 13.884 101.864 13.884H100.334V21.336H101.792C102.344 21.336 102.872 21.276 103.376 21.156C103.892 21.024 104.342 20.814 104.726 20.526C105.122 20.238 105.434 19.854 105.662 19.374C105.902 18.894 106.022 18.3 106.022 17.592ZM117.999 14.568C117.735 14.232 117.387 13.968 116.955 13.776C116.535 13.572 116.127 13.47 115.731 13.47C115.527 13.47 115.317 13.488 115.101 13.524C114.897 13.56 114.711 13.632 114.543 13.74C114.375 13.836 114.231 13.968 114.111 14.136C114.003 14.292 113.949 14.496 113.949 14.748C113.949 14.964 113.991 15.144 114.075 15.288C114.171 15.432 114.303 15.558 114.471 15.666C114.651 15.774 114.861 15.876 115.101 15.972C115.341 16.056 115.611 16.146 115.911 16.242C116.343 16.386 116.793 16.548 117.261 16.728C117.729 16.896 118.155 17.124 118.539 17.412C118.923 17.7 119.241 18.06 119.493 18.492C119.745 18.912 119.871 19.44 119.871 20.076C119.871 20.808 119.733 21.444 119.457 21.984C119.193 22.512 118.833 22.95 118.377 23.298C117.921 23.646 117.399 23.904 116.811 24.072C116.223 24.24 115.617 24.324 114.993 24.324C114.081 24.324 113.199 24.168 112.347 23.856C111.495 23.532 110.787 23.076 110.223 22.488L112.239 20.436C112.551 20.82 112.959 21.144 113.463 21.408C113.979 21.66 114.489 21.786 114.993 21.786C115.221 21.786 115.443 21.762 115.659 21.714C115.875 21.666 116.061 21.588 116.217 21.48C116.385 21.372 116.517 21.228 116.613 21.048C116.709 20.868 116.757 20.652 116.757 20.4C116.757 20.16 116.697 19.956 116.577 19.788C116.457 19.62 116.283 19.47 116.055 19.338C115.839 19.194 115.563 19.068 115.227 18.96C114.903 18.84 114.531 18.714 114.111 18.582C113.703 18.45 113.301 18.294 112.905 18.114C112.521 17.934 112.173 17.706 111.861 17.43C111.561 17.142 111.315 16.8 111.123 16.404C110.943 15.996 110.853 15.504 110.853 14.928C110.853 14.22 110.997 13.614 111.285 13.11C111.573 12.606 111.951 12.192 112.419 11.868C112.887 11.544 113.415 11.31 114.003 11.166C114.591 11.01 115.185 10.932 115.785 10.932C116.505 10.932 117.237 11.064 117.981 11.328C118.737 11.592 119.397 11.982 119.961 12.498L117.999 14.568ZM121.902 24V11.256H130.47V13.866H124.872V16.26H130.164V18.726H124.872V21.372H130.794V24H121.902ZM140.935 24L135.805 15.666H135.751L135.823 24H132.835V11.256H136.345L141.457 19.572H141.511L141.439 11.256H144.427V24H140.935ZM153.788 14.568C153.524 14.232 153.176 13.968 152.744 13.776C152.324 13.572 151.916 13.47 151.52 13.47C151.316 13.47 151.106 13.488 150.89 13.524C150.686 13.56 150.5 13.632 150.332 13.74C150.164 13.836 150.02 13.968 149.9 14.136C149.792 14.292 149.738 14.496 149.738 14.748C149.738 14.964 149.78 15.144 149.864 15.288C149.96 15.432 150.092 15.558 150.26 15.666C150.44 15.774 150.65 15.876 150.89 15.972C151.13 16.056 151.4 16.146 151.7 16.242C152.132 16.386 152.582 16.548 153.05 16.728C153.518 16.896 153.944 17.124 154.328 17.412C154.712 17.7 155.03 18.06 155.282 18.492C155.534 18.912 155.66 19.44 155.66 20.076C155.66 20.808 155.522 21.444 155.246 21.984C154.982 22.512 154.622 22.95 154.166 23.298C153.71 23.646 153.188 23.904 152.6 24.072C152.012 24.24 151.406 24.324 150.782 24.324C149.87 24.324 148.988 24.168 148.136 23.856C147.284 23.532 146.576 23.076 146.012 22.488L148.028 20.436C148.34 20.82 148.748 21.144 149.252 21.408C149.768 21.66 150.278 21.786 150.782 21.786C151.01 21.786 151.232 21.762 151.448 21.714C151.664 21.666 151.85 21.588 152.006 21.48C152.174 21.372 152.306 21.228 152.402 21.048C152.498 20.868 152.546 20.652 152.546 20.4C152.546 20.16 152.486 19.956 152.366 19.788C152.246 19.62 152.072 19.47 151.844 19.338C151.628 19.194 151.352 19.068 151.016 18.96C150.692 18.84 150.32 18.714 149.9 18.582C149.492 18.45 149.09 18.294 148.694 18.114C148.31 17.934 147.962 17.706 147.65 17.43C147.35 17.142 147.104 16.8 146.912 16.404C146.732 15.996 146.642 15.504 146.642 14.928C146.642 14.22 146.786 13.614 147.074 13.11C147.362 12.606 147.74 12.192 148.208 11.868C148.676 11.544 149.204 11.31 149.792 11.166C150.38 11.01 150.974 10.932 151.574 10.932C152.294 10.932 153.026 11.064 153.77 11.328C154.526 11.592 155.186 11.982 155.75 12.498L153.788 14.568Z" fill="#4B5563"/>
<path d="M30.3601 6.71953C31.2001 6.71953 31.9201 7.43953 31.9201 8.27953C31.9201 8.75953 31.8001 9.11953 31.4401 9.35953C31.0801 9.71953 30.7201 9.83953 30.3601 9.83953C29.5201 9.83953 28.8001 9.11953 28.8001 8.27953C28.8001 7.79953 29.0401 7.43953 29.1601 7.19953C29.4001 6.95953 29.8801 6.71953 30.3601 6.71953ZM30.3601 5.51953C29.5201 5.51953 28.6801 5.87953 28.2001 6.47953C27.8401 6.95953 27.6001 7.55953 27.6001 8.27953C27.6001 9.83953 28.8001 11.0395 30.3601 11.0395C31.0801 11.0395 31.8001 10.6795 32.2801 10.1995C32.7601 9.71953 33.1201 8.99953 33.1201 8.27953C33.1201 6.83953 31.9201 5.51953 30.3601 5.51953Z" fill="#4B5563"/>
<path d="M11.28 26.0398C12.12 26.0398 12.84 26.7598 12.84 27.5998C12.84 28.4398 12.12 29.1598 11.28 29.1598C10.44 29.1598 9.72002 28.4398 9.72002 27.5998C9.72002 26.7598 10.44 26.0398 11.28 26.0398ZM11.28 24.8398C9.72002 24.8398 8.52002 26.0398 8.52002 27.5998C8.52002 29.1598 9.72002 30.3598 11.28 30.3598C12.84 30.3598 14.04 29.1598 14.04 27.5998C14.04 26.0398 12.84 24.8398 11.28 24.8398Z" fill="#4B5563"/>
<path d="M17.28 7.91973C18.12 7.91973 18.84 8.63973 18.84 9.47973C18.84 10.3197 18.12 11.0397 17.28 11.0397C16.44 11.0397 15.72 10.3197 15.72 9.47973C15.72 8.63973 16.44 7.91973 17.28 7.91973ZM17.28 6.71973C15.72 6.71973 14.52 7.91973 14.52 9.47973C14.52 11.0397 15.72 12.2397 17.28 12.2397C18.84 12.2397 20.04 11.0397 20.04 9.47973C20.04 7.91973 18.84 6.71973 17.28 6.71973Z" fill="#4B5563"/>
<path d="M24.24 25.0799C25.08 25.0799 25.8 25.7999 25.8 26.6399C25.8 27.4799 25.08 28.1999 24.24 28.1999C23.4 28.1999 22.68 27.4799 22.68 26.6399C22.68 25.7999 23.4 25.0799 24.24 25.0799ZM24.24 23.8799C22.68 23.8799 21.48 25.0799 21.48 26.6399C21.48 28.1999 22.68 29.3999 24.24 29.3999C25.8 29.3999 27 28.1999 27 26.6399C27 25.0799 25.8 23.8799 24.24 23.8799Z" fill="#4B5563"/>
<path d="M20.8801 22.8002C23.531 22.8002 25.6801 20.6512 25.6801 18.0002C25.6801 15.3492 23.531 13.2002 20.8801 13.2002C18.2291 13.2002 16.0801 15.3492 16.0801 18.0002C16.0801 20.6512 18.2291 22.8002 20.8801 22.8002Z" stroke="#4B5563" stroke-width="2" stroke-miterlimit="10"/>
<path d="M33.84 21.8398H29.64C29.28 23.1598 28.08 24.4798 27.24 25.0798" stroke="#4B5563" stroke-width="2" stroke-miterlimit="10" stroke-linecap="square"/>
<path d="M20.04 8.87988C20.16 8.87988 20.28 8.87988 20.64 8.87988C23.88 8.87988 27 11.0399 28.68 13.5599" stroke="#4B5563" stroke-width="2" stroke-miterlimit="10" stroke-linecap="square"/>
<path d="M7.80005 14.1598H12.24C12.84 12.8398 13.68 11.6398 14.76 10.7998" stroke="#4B5563" stroke-width="2" stroke-miterlimit="10" stroke-linecap="square"/>
<path d="M21.24 27.4803C21 27.4803 20.76 27.4803 20.52 27.4803C17.4 27.4803 14.16 25.4403 12.48 22.3203" stroke="#4B5563" stroke-width="2" stroke-miterlimit="10" stroke-linecap="square"/>
<path d="M4.91992 10.2004C9.95992 10.2004 9.83992 10.2004 9.83992 10.2004C12.3599 6.96043 16.4399 4.44043 20.8799 4.44043C23.5199 4.44043 26.0399 5.28043 28.1999 6.60043" stroke="#4B5563" stroke-width="2" stroke-miterlimit="10" stroke-linecap="square"/>
<path d="M9.36007 25.2C8.16007 23.52 7.32007 20.76 7.32007 18" stroke="#4B5563" stroke-width="2" stroke-miterlimit="10" stroke-linecap="square"/>
<path d="M36.9599 25.5596C33.3599 25.5596 32.2799 25.5596 32.2799 25.5596C29.7599 29.0396 25.4399 31.5596 20.8799 31.5596C18.1199 31.5596 15.5999 30.7196 13.4399 29.3996" stroke="#4B5563" stroke-width="2" stroke-miterlimit="10" stroke-linecap="square"/>
<path d="M32.28 10.6797C33.72 12.8397 34.44 15.2397 34.44 17.9997" stroke="#4B5563" stroke-width="2" stroke-miterlimit="10" stroke-linecap="square"/>
<path d="M7.32007 18H16.0801" stroke="#4B5563" stroke-width="2" stroke-miterlimit="10"/>
<path d="M25.6799 18H34.4399" stroke="#4B5563" stroke-width="2" stroke-miterlimit="10"/>
</svg>
