<svg width="162" height="26" viewBox="0 0 162 26" fill="none" xmlns="http://www.w3.org/2000/svg">
<path fill-rule="evenodd" clip-rule="evenodd" d="M87.1771 11.9106V7.70573H88.5535C90.4868 7.70573 92.6076 7.77256 92.6076 9.67964C92.6076 11.6947 90.5618 11.9157 88.1464 11.9157L87.1771 11.9106ZM87.1771 14.2083H88.9605L94.3214 20.4025H99.9394L93.3895 13.6788C94.7659 13.2625 97.6311 12.4503 97.6311 9.62309C97.6311 5.50566 91.8257 5.39257 88.9605 5.39257H82.9355C82.3036 5.39257 82.1536 5.45939 82.1536 5.8552V20.4076C82.1536 20.4076 82.3036 20.4025 82.9355 20.4025H86.3952L87.1771 20.4076V14.2083ZM125.973 18.48C123.182 18.48 121.993 16.3313 121.993 12.9129C121.993 9.49972 123.182 7.33049 125.973 7.33049C128.763 7.33049 129.952 9.47402 129.952 12.9129C129.952 16.3313 128.763 18.48 125.973 18.48ZM135.238 12.9129C135.238 7.61321 131.703 5.0276 125.973 5.0276C120.242 5.0276 116.708 7.59265 116.708 12.9129C116.708 18.2178 120.205 20.7777 125.973 20.7777C131.741 20.7828 135.238 18.2178 135.238 12.9129ZM70.8106 13.7508H77.8477V11.3862H70.8106V7.77256H78.6618L79.7329 5.40285H66.5047C65.9906 5.40799 65.8192 5.46967 65.787 5.74725V20.4076L79.5508 20.4127V19.9501V18.5057L79.5562 18.0482H70.8106V13.7508ZM154.154 5.40285H151.438L150.656 5.39771C150.656 5.39771 150.753 14.4602 150.753 15.1593L142.361 5.68557C142.136 5.44397 142.061 5.39771 141.504 5.39771H138.451L138.365 5.40285C137.883 5.40799 137.707 5.46453 137.675 5.72669V20.4127C137.675 20.4127 137.824 20.4076 138.451 20.4076H141.172C141.804 20.4076 141.954 20.4127 141.954 20.4127V12.0648C141.954 11.0573 141.921 10.389 141.921 10.1063C141.921 10.1063 150.501 19.7393 150.849 20.1043C151.192 20.4744 151.706 20.4127 151.706 20.4127H154.159L154.941 20.423V5.40285H154.154ZM30.0067 13.7508H37.0438V11.3862H30.0067V7.77256H37.8579L38.929 5.40285H25.7062C25.1438 5.40799 24.9939 5.47995 24.9832 5.8295V20.4127L38.7469 20.4179V18.5108L38.7523 18.0533H30.0067V13.7508ZM52.0554 14.7378L46.0786 5.80894C45.8537 5.56734 45.7787 5.52622 45.2218 5.52622H42.1691L41.3872 5.53136V20.5361C41.3872 20.5361 41.5371 20.531 42.1691 20.531H44.8844C45.5163 20.531 45.6663 20.5361 45.6663 20.5361V12.1881C45.6663 11.1806 45.6395 10.7848 45.6395 10.497C45.6395 10.497 51.5359 19.5594 52.1197 20.1968H52.1518C52.7409 19.5543 58.3321 10.497 58.3321 10.497C58.3321 10.7848 58.3 11.1755 58.3 12.1881V20.5361C58.3 20.5361 58.45 20.531 59.0819 20.531H61.7972C62.4291 20.531 62.5791 20.5361 62.5791 20.5361V5.53136L61.7972 5.52622H58.7445C58.1875 5.52622 58.1126 5.56734 57.8876 5.80894L52.2161 14.7378H52.0554ZM112.552 12.3218C109.456 10.8979 105.236 10.7694 105.236 9.10392C105.236 7.78798 106.607 7.39217 108.23 7.39217C110.763 7.39217 112.948 8.35342 113.157 8.35342C113.296 8.35342 113.435 8.26604 113.542 8.13239L113.783 7.83424L115.042 6.29727L115.005 6.28185C114.651 6.1225 114.292 5.98371 113.923 5.86548C112.669 5.46453 110.351 5.02246 108.091 5.02246C104.01 5.02246 100.352 6.3384 100.352 9.49458C100.352 11.3143 101.219 12.4606 103.083 13.1648C106.671 14.5219 110.276 14.4448 110.276 16.3981C110.276 17.7552 109.397 18.4131 107.426 18.4131C104.401 18.4131 101.798 17.4519 101.589 17.4519C101.45 17.4519 101.273 17.5393 101.203 17.6729L100.818 18.3617L100.143 19.5646L100.694 19.765C101.814 20.1917 104.749 20.788 107.571 20.788C112.005 20.788 115.256 19.3949 115.171 16.1668C115.122 14.4962 114.351 13.1545 112.552 12.3218Z" fill="#4B5563"/>
<path d="M15.086 15.873L15.0808 15.8885C15.0808 15.8782 15.086 15.8782 15.086 15.873Z" fill="#9CA3AF"/>
<mask id="mask0_1740_14015" style="mask-type:luminance" maskUnits="userSpaceOnUse" x="15" y="15" width="1" height="1">
<path d="M15.086 15.873L15.0808 15.8885C15.0808 15.8782 15.086 15.8782 15.086 15.873Z" fill="white"/>
</mask>
<g mask="url(#mask0_1740_14015)">
<path d="M15.086 15.873H15.0808V15.8885H15.086V15.873Z" fill="#9CA3AF"/>
</g>
<path d="M15.086 15.873L15.0808 15.8885C15.0808 15.8782 15.086 15.8782 15.086 15.873Z" fill="#9CA3AF"/>
<mask id="mask1_1740_14015" style="mask-type:luminance" maskUnits="userSpaceOnUse" x="15" y="15" width="1" height="1">
<path d="M15.086 15.873L15.0808 15.8885C15.0808 15.8782 15.086 15.8782 15.086 15.873Z" fill="white"/>
</mask>
<g mask="url(#mask1_1740_14015)">
<path d="M15.086 15.873H15.0808V15.8885H15.086V15.873Z" fill="#9CA3AF"/>
</g>
<path d="M15.086 15.873L15.0808 15.8885C15.0808 15.8782 15.086 15.8782 15.086 15.873Z" fill="#9CA3AF"/>
<mask id="mask2_1740_14015" style="mask-type:luminance" maskUnits="userSpaceOnUse" x="15" y="15" width="1" height="1">
<path d="M15.086 15.873L15.0808 15.8885C15.0808 15.8782 15.086 15.8782 15.086 15.873Z" fill="white"/>
</mask>
<g mask="url(#mask2_1740_14015)">
<path d="M15.086 15.873H15.0808V15.8885H15.086V15.873Z" fill="#9CA3AF"/>
</g>
<path d="M15.086 15.873L15.0808 15.8885C15.0808 15.8782 15.086 15.8782 15.086 15.873Z" fill="#9CA3AF"/>
<mask id="mask3_1740_14015" style="mask-type:luminance" maskUnits="userSpaceOnUse" x="15" y="15" width="1" height="1">
<path d="M15.086 15.873L15.0808 15.8885C15.0808 15.8782 15.086 15.8782 15.086 15.873Z" fill="white"/>
</mask>
<g mask="url(#mask3_1740_14015)">
<path d="M15.086 15.873H15.0808V15.8885H15.086V15.873Z" fill="#9CA3AF"/>
</g>
<path d="M16.0502 13.2307L15.9805 13.1485L12.3441 8.87681L12.3227 8.8511L8.79876 4.70797C8.12396 3.93177 8.18287 3.77756 8.215 3.69531L6.94574 5.7566C6.92432 5.79772 6.91896 5.84913 6.92967 5.89539C6.96181 6.01362 7.08498 6.17811 7.24029 6.36317L7.30992 6.44541L10.9463 10.7171L10.9678 10.7428L14.4917 14.8808C15.1397 15.6261 15.1451 15.7752 15.0915 15.8677L16.3769 13.7961C16.4251 13.7036 16.2697 13.498 16.0502 13.2307Z" fill="#9CA3AF"/>
<mask id="mask4_1740_14015" style="mask-type:luminance" maskUnits="userSpaceOnUse" x="6" y="3" width="11" height="13">
<path d="M16.0502 13.2307L15.9805 13.1485L12.3441 8.87681L12.3227 8.8511L8.79876 4.70797C8.12396 3.93177 8.18287 3.77756 8.215 3.69531L6.94574 5.7566C6.92432 5.79772 6.91896 5.84913 6.92967 5.89539C6.96181 6.01362 7.08498 6.17811 7.24029 6.36317L7.30992 6.44541L10.9463 10.7171L10.9678 10.7428L14.4917 14.8808C15.1397 15.6261 15.1451 15.7752 15.0915 15.8677L16.3769 13.7961C16.4251 13.7036 16.2697 13.498 16.0502 13.2307Z" fill="white"/>
</mask>
<g mask="url(#mask4_1740_14015)">
<path d="M16.425 3.69531H6.91357V15.8677H16.425V3.69531Z" fill="#9CA3AF"/>
</g>
<path d="M16.0502 13.2307L15.9805 13.1485L12.3441 8.87681L12.3227 8.8511L8.79876 4.70797C8.12396 3.93177 8.18287 3.77756 8.215 3.69531L6.94574 5.7566C6.92432 5.79772 6.91896 5.84913 6.92967 5.89539C6.96181 6.01362 7.08498 6.17811 7.24029 6.36317L7.30992 6.44541L10.9463 10.7171L10.9678 10.7428L14.4917 14.8808C15.1397 15.6261 15.1451 15.7752 15.0915 15.8677L16.3769 13.7961C16.4251 13.7036 16.2697 13.498 16.0502 13.2307Z" fill="#9CA3AF"/>
<mask id="mask5_1740_14015" style="mask-type:luminance" maskUnits="userSpaceOnUse" x="6" y="3" width="11" height="13">
<path d="M16.0502 13.2307L15.9805 13.1485L12.3441 8.87681L12.3227 8.8511L8.79876 4.70797C8.12396 3.93177 8.18287 3.77756 8.215 3.69531L6.94574 5.7566C6.92432 5.79772 6.91896 5.84913 6.92967 5.89539C6.96181 6.01362 7.08498 6.17811 7.24029 6.36317L7.30992 6.44541L10.9463 10.7171L10.9678 10.7428L14.4917 14.8808C15.1397 15.6261 15.1451 15.7752 15.0915 15.8677L16.3769 13.7961C16.4251 13.7036 16.2697 13.498 16.0502 13.2307Z" fill="white"/>
</mask>
<g mask="url(#mask5_1740_14015)">
<path d="M16.425 3.69531H6.91357V15.8677H16.425V3.69531Z" fill="#9CA3AF"/>
</g>
<path d="M16.0502 13.2307L15.9805 13.1485L12.3441 8.87681L12.3227 8.8511L8.79876 4.70797C8.12396 3.93177 8.18287 3.77756 8.215 3.69531L6.94574 5.7566C6.92432 5.79772 6.91896 5.84913 6.92967 5.89539C6.96181 6.01362 7.08498 6.17811 7.24029 6.36317L7.30992 6.44541L10.9463 10.7171L10.9678 10.7428L14.4917 14.8808C15.1397 15.6261 15.1451 15.7752 15.0915 15.8677L16.3769 13.7961C16.4251 13.7036 16.2697 13.498 16.0502 13.2307Z" fill="#9CA3AF"/>
<mask id="mask6_1740_14015" style="mask-type:luminance" maskUnits="userSpaceOnUse" x="6" y="3" width="11" height="13">
<path d="M16.0502 13.2307L15.9805 13.1485L12.3441 8.87681L12.3227 8.8511L8.79876 4.70797C8.12396 3.93177 8.18287 3.77756 8.215 3.69531L6.94574 5.7566C6.92432 5.79772 6.91896 5.84913 6.92967 5.89539C6.96181 6.01362 7.08498 6.17811 7.24029 6.36317L7.30992 6.44541L10.9463 10.7171L10.9678 10.7428L14.4917 14.8808C15.1397 15.6261 15.1451 15.7752 15.0915 15.8677L16.3769 13.7961C16.4251 13.7036 16.2697 13.498 16.0502 13.2307Z" fill="white"/>
</mask>
<g mask="url(#mask6_1740_14015)">
<path d="M16.425 3.69531H6.91357V15.8677H16.425V3.69531Z" fill="#9CA3AF"/>
</g>
<path d="M16.0502 13.2307L15.9805 13.1485L12.3441 8.87681L12.3227 8.8511L8.79876 4.70797C8.12396 3.93177 8.18287 3.77756 8.215 3.69531L6.94574 5.7566C6.92432 5.79772 6.91896 5.84913 6.92967 5.89539C6.96181 6.01362 7.08498 6.17811 7.24029 6.36317L7.30992 6.44541L10.9463 10.7171L10.9678 10.7428L14.4917 14.8808C15.1397 15.6261 15.1451 15.7752 15.0915 15.8677L16.3769 13.7961C16.4251 13.7036 16.2697 13.498 16.0502 13.2307Z" fill="#9CA3AF"/>
<mask id="mask7_1740_14015" style="mask-type:luminance" maskUnits="userSpaceOnUse" x="6" y="3" width="11" height="13">
<path d="M16.0502 13.2307L15.9805 13.1485L12.3441 8.87681L12.3227 8.8511L8.79876 4.70797C8.12396 3.93177 8.18287 3.77756 8.215 3.69531L6.94574 5.7566C6.92432 5.79772 6.91896 5.84913 6.92967 5.89539C6.96181 6.01362 7.08498 6.17811 7.24029 6.36317L7.30992 6.44541L10.9463 10.7171L10.9678 10.7428L14.4917 14.8808C15.1397 15.6261 15.1451 15.7752 15.0915 15.8677L16.3769 13.7961C16.4251 13.7036 16.2697 13.498 16.0502 13.2307Z" fill="white"/>
</mask>
<g mask="url(#mask7_1740_14015)">
<path d="M16.425 3.69531H6.91357V15.8677H16.425V3.69531Z" fill="#9CA3AF"/>
</g>
<path d="M17.8604 10.301L17.7908 10.2188L14.1544 5.94198L14.133 5.91628L10.609 1.77828C9.93424 1.00208 9.99315 0.847871 10.0253 0.765625L8.75066 2.82691C8.73995 2.85262 8.72388 2.89888 8.73995 2.9657C8.77744 3.08393 8.89526 3.24328 9.05057 3.43348L9.1202 3.51572L12.7566 7.78737L12.778 7.81308L16.302 11.9562C16.95 12.7016 16.9554 12.8506 16.9018 12.9432L18.1818 10.8716C18.2353 10.7739 18.08 10.5632 17.8604 10.301Z" fill="#9CA3AF"/>
<mask id="mask8_1740_14015" style="mask-type:luminance" maskUnits="userSpaceOnUse" x="8" y="0" width="11" height="13">
<path d="M17.8604 10.301L17.7908 10.2188L14.1544 5.94198L14.133 5.91628L10.609 1.77828C9.93424 1.00208 9.99315 0.847871 10.0253 0.765625L8.75066 2.82691C8.73995 2.85262 8.72388 2.89888 8.73995 2.9657C8.77744 3.08393 8.89526 3.24328 9.05057 3.43348L9.1202 3.51572L12.7566 7.78737L12.778 7.81308L16.302 11.9562C16.95 12.7016 16.9554 12.8506 16.9018 12.9432L18.1818 10.8716C18.2353 10.7739 18.08 10.5632 17.8604 10.301Z" fill="white"/>
</mask>
<g mask="url(#mask8_1740_14015)">
<path d="M18.2353 0.765625H8.72388V12.9432H18.2353V0.765625Z" fill="#9CA3AF"/>
</g>
<path d="M17.8604 10.301L17.7908 10.2188L14.1544 5.94198L14.133 5.91628L10.609 1.77828C9.93424 1.00208 9.99315 0.847871 10.0253 0.765625L8.75066 2.82691C8.73995 2.85262 8.72388 2.89888 8.73995 2.9657C8.77744 3.08393 8.89526 3.24328 9.05057 3.43348L9.1202 3.51572L12.7566 7.78737L12.778 7.81308L16.302 11.9562C16.95 12.7016 16.9554 12.8506 16.9018 12.9432L18.1818 10.8716C18.2353 10.7739 18.08 10.5632 17.8604 10.301Z" fill="#9CA3AF"/>
<mask id="mask9_1740_14015" style="mask-type:luminance" maskUnits="userSpaceOnUse" x="8" y="0" width="11" height="13">
<path d="M17.8604 10.301L17.7908 10.2188L14.1544 5.94198L14.133 5.91628L10.609 1.77828C9.93424 1.00208 9.99315 0.847871 10.0253 0.765625L8.75066 2.82691C8.73995 2.85262 8.72388 2.89888 8.73995 2.9657C8.77744 3.08393 8.89526 3.24328 9.05057 3.43348L9.1202 3.51572L12.7566 7.78737L12.778 7.81308L16.302 11.9562C16.95 12.7016 16.9554 12.8506 16.9018 12.9432L18.1818 10.8716C18.2353 10.7739 18.08 10.5632 17.8604 10.301Z" fill="white"/>
</mask>
<g mask="url(#mask9_1740_14015)">
<path d="M18.2353 0.765625H8.72388V12.9432H18.2353V0.765625Z" fill="#9CA3AF"/>
</g>
<path d="M17.8604 10.301L17.7908 10.2188L14.1544 5.94198L14.133 5.91628L10.609 1.77828C9.93424 1.00208 9.99315 0.847871 10.0253 0.765625L8.75066 2.82691C8.73995 2.85262 8.72388 2.89888 8.73995 2.9657C8.77744 3.08393 8.89526 3.24328 9.05057 3.43348L9.1202 3.51572L12.7566 7.78737L12.778 7.81308L16.302 11.9562C16.95 12.7016 16.9554 12.8506 16.9018 12.9432L18.1818 10.8716C18.2353 10.7739 18.08 10.5632 17.8604 10.301Z" fill="#9CA3AF"/>
<mask id="mask10_1740_14015" style="mask-type:luminance" maskUnits="userSpaceOnUse" x="8" y="0" width="11" height="13">
<path d="M17.8604 10.301L17.7908 10.2188L14.1544 5.94198L14.133 5.91628L10.609 1.77828C9.93424 1.00208 9.99315 0.847871 10.0253 0.765625L8.75066 2.82691C8.73995 2.85262 8.72388 2.89888 8.73995 2.9657C8.77744 3.08393 8.89526 3.24328 9.05057 3.43348L9.1202 3.51572L12.7566 7.78737L12.778 7.81308L16.302 11.9562C16.95 12.7016 16.9554 12.8506 16.9018 12.9432L18.1818 10.8716C18.2353 10.7739 18.08 10.5632 17.8604 10.301Z" fill="white"/>
</mask>
<g mask="url(#mask10_1740_14015)">
<path d="M18.2353 0.765625H8.72388V12.9432H18.2353V0.765625Z" fill="#9CA3AF"/>
</g>
<path d="M17.8604 10.301L17.7908 10.2188L14.1544 5.94198L14.133 5.91628L10.609 1.77828C9.93424 1.00208 9.99315 0.847871 10.0253 0.765625L8.75066 2.82691C8.73995 2.85262 8.72388 2.89888 8.73995 2.9657C8.77744 3.08393 8.89526 3.24328 9.05057 3.43348L9.1202 3.51572L12.7566 7.78737L12.778 7.81308L16.302 11.9562C16.95 12.7016 16.9554 12.8506 16.9018 12.9432L18.1818 10.8716C18.2353 10.7739 18.08 10.5632 17.8604 10.301Z" fill="#9CA3AF"/>
<mask id="mask11_1740_14015" style="mask-type:luminance" maskUnits="userSpaceOnUse" x="8" y="0" width="11" height="13">
<path d="M17.8604 10.301L17.7908 10.2188L14.1544 5.94198L14.133 5.91628L10.609 1.77828C9.93424 1.00208 9.99315 0.847871 10.0253 0.765625L8.75066 2.82691C8.73995 2.85262 8.72388 2.89888 8.73995 2.9657C8.77744 3.08393 8.89526 3.24328 9.05057 3.43348L9.1202 3.51572L12.7566 7.78737L12.778 7.81308L16.302 11.9562C16.95 12.7016 16.9554 12.8506 16.9018 12.9432L18.1818 10.8716C18.2353 10.7739 18.08 10.5632 17.8604 10.301Z" fill="white"/>
</mask>
<g mask="url(#mask11_1740_14015)">
<path d="M18.2353 0.765625H8.72388V12.9432H18.2353V0.765625Z" fill="#9CA3AF"/>
</g>
<path d="M16.8963 12.9385L16.8911 12.9539C16.8911 12.9488 16.8911 12.9488 16.8963 12.9385Z" fill="#9CA3AF"/>
<mask id="mask12_1740_14015" style="mask-type:luminance" maskUnits="userSpaceOnUse" x="16" y="12" width="1" height="1">
<path d="M16.8963 12.9385L16.8911 12.9539C16.8911 12.9488 16.8911 12.9488 16.8963 12.9385Z" fill="white"/>
</mask>
<g mask="url(#mask12_1740_14015)">
<path d="M16.8963 12.9385H16.8911V12.9539H16.8963V12.9385Z" fill="#9CA3AF"/>
</g>
<path d="M16.8963 12.9385L16.8911 12.9539C16.8911 12.9488 16.8911 12.9488 16.8963 12.9385Z" fill="#9CA3AF"/>
<mask id="mask13_1740_14015" style="mask-type:luminance" maskUnits="userSpaceOnUse" x="16" y="12" width="1" height="1">
<path d="M16.8963 12.9385L16.8911 12.9539C16.8911 12.9488 16.8911 12.9488 16.8963 12.9385Z" fill="white"/>
</mask>
<g mask="url(#mask13_1740_14015)">
<path d="M16.8963 12.9385H16.8911V12.9539H16.8963V12.9385Z" fill="#9CA3AF"/>
</g>
<path d="M16.8963 12.9385L16.8911 12.9539C16.8911 12.9488 16.8911 12.9488 16.8963 12.9385Z" fill="#9CA3AF"/>
<mask id="mask14_1740_14015" style="mask-type:luminance" maskUnits="userSpaceOnUse" x="16" y="12" width="1" height="1">
<path d="M16.8963 12.9385L16.8911 12.9539C16.8911 12.9488 16.8911 12.9488 16.8963 12.9385Z" fill="white"/>
</mask>
<g mask="url(#mask14_1740_14015)">
<path d="M16.8963 12.9385H16.8911V12.9539H16.8963V12.9385Z" fill="#9CA3AF"/>
</g>
<path d="M16.8963 12.9385L16.8911 12.9539C16.8911 12.9488 16.8911 12.9488 16.8963 12.9385Z" fill="#9CA3AF"/>
<mask id="mask15_1740_14015" style="mask-type:luminance" maskUnits="userSpaceOnUse" x="16" y="12" width="1" height="1">
<path d="M16.8963 12.9385L16.8911 12.9539C16.8911 12.9488 16.8911 12.9488 16.8963 12.9385Z" fill="white"/>
</mask>
<g mask="url(#mask15_1740_14015)">
<path d="M16.8963 12.9385H16.8911V12.9539H16.8963V12.9385Z" fill="#9CA3AF"/>
</g>
<path d="M12.7353 19.6871C12.7621 19.6408 12.7621 19.5894 12.746 19.538C12.7032 19.4301 12.5854 19.2707 12.4354 19.0908L12.3658 19.0085L8.72937 14.7369L8.70795 14.7112L5.184 10.5732C4.5092 9.797 4.56811 9.64279 4.60024 9.56055L3.30956 11.6424C3.256 11.7401 3.39525 11.9611 3.62018 12.2284L3.6898 12.3106L7.32622 16.5823L7.34764 16.608L10.8716 20.7511C11.5196 21.4965 11.525 21.6456 11.4714 21.7381L12.7353 19.6871Z" fill="#9CA3AF"/>
<mask id="mask16_1740_14015" style="mask-type:luminance" maskUnits="userSpaceOnUse" x="3" y="9" width="10" height="13">
<path d="M12.7353 19.6871C12.7621 19.6408 12.7621 19.5894 12.746 19.538C12.7032 19.4301 12.5854 19.2707 12.4354 19.0908L12.3658 19.0085L8.72937 14.7369L8.70795 14.7112L5.184 10.5732C4.5092 9.797 4.56811 9.64279 4.60024 9.56055L3.30956 11.6424C3.256 11.7401 3.39525 11.9611 3.62018 12.2284L3.6898 12.3106L7.32622 16.5823L7.34764 16.608L10.8716 20.7511C11.5196 21.4965 11.525 21.6456 11.4714 21.7381L12.7353 19.6871Z" fill="white"/>
</mask>
<g mask="url(#mask16_1740_14015)">
<path d="M12.7673 9.56055H3.25586V21.7381H12.7673V9.56055Z" fill="#9CA3AF"/>
</g>
<path d="M12.7353 19.6871C12.7621 19.6408 12.7621 19.5894 12.746 19.538C12.7032 19.4301 12.5854 19.2707 12.4354 19.0908L12.3658 19.0085L8.72937 14.7369L8.70795 14.7112L5.184 10.5732C4.5092 9.797 4.56811 9.64279 4.60024 9.56055L3.30956 11.6424C3.256 11.7401 3.39525 11.9611 3.62018 12.2284L3.6898 12.3106L7.32622 16.5823L7.34764 16.608L10.8716 20.7511C11.5196 21.4965 11.525 21.6456 11.4714 21.7381L12.7353 19.6871Z" fill="#9CA3AF"/>
<mask id="mask17_1740_14015" style="mask-type:luminance" maskUnits="userSpaceOnUse" x="3" y="9" width="10" height="13">
<path d="M12.7353 19.6871C12.7621 19.6408 12.7621 19.5894 12.746 19.538C12.7032 19.4301 12.5854 19.2707 12.4354 19.0908L12.3658 19.0085L8.72937 14.7369L8.70795 14.7112L5.184 10.5732C4.5092 9.797 4.56811 9.64279 4.60024 9.56055L3.30956 11.6424C3.256 11.7401 3.39525 11.9611 3.62018 12.2284L3.6898 12.3106L7.32622 16.5823L7.34764 16.608L10.8716 20.7511C11.5196 21.4965 11.525 21.6456 11.4714 21.7381L12.7353 19.6871Z" fill="white"/>
</mask>
<g mask="url(#mask17_1740_14015)">
<path d="M12.7673 9.56055H3.25586V21.7381H12.7673V9.56055Z" fill="#9CA3AF"/>
</g>
<path d="M12.7353 19.6871C12.7621 19.6408 12.7621 19.5894 12.746 19.538C12.7032 19.4301 12.5854 19.2707 12.4354 19.0908L12.3658 19.0085L8.72937 14.7369L8.70795 14.7112L5.184 10.5732C4.5092 9.797 4.56811 9.64279 4.60024 9.56055L3.30956 11.6424C3.256 11.7401 3.39525 11.9611 3.62018 12.2284L3.6898 12.3106L7.32622 16.5823L7.34764 16.608L10.8716 20.7511C11.5196 21.4965 11.525 21.6456 11.4714 21.7381L12.7353 19.6871Z" fill="#9CA3AF"/>
<mask id="mask18_1740_14015" style="mask-type:luminance" maskUnits="userSpaceOnUse" x="3" y="9" width="10" height="13">
<path d="M12.7353 19.6871C12.7621 19.6408 12.7621 19.5894 12.746 19.538C12.7032 19.4301 12.5854 19.2707 12.4354 19.0908L12.3658 19.0085L8.72937 14.7369L8.70795 14.7112L5.184 10.5732C4.5092 9.797 4.56811 9.64279 4.60024 9.56055L3.30956 11.6424C3.256 11.7401 3.39525 11.9611 3.62018 12.2284L3.6898 12.3106L7.32622 16.5823L7.34764 16.608L10.8716 20.7511C11.5196 21.4965 11.525 21.6456 11.4714 21.7381L12.7353 19.6871Z" fill="white"/>
</mask>
<g mask="url(#mask18_1740_14015)">
<path d="M12.7673 9.56055H3.25586V21.7381H12.7673V9.56055Z" fill="#9CA3AF"/>
</g>
<path d="M12.7353 19.6871C12.7621 19.6408 12.7621 19.5894 12.746 19.538C12.7032 19.4301 12.5854 19.2707 12.4354 19.0908L12.3658 19.0085L8.72937 14.7369L8.70795 14.7112L5.184 10.5732C4.5092 9.797 4.56811 9.64279 4.60024 9.56055L3.30956 11.6424C3.256 11.7401 3.39525 11.9611 3.62018 12.2284L3.6898 12.3106L7.32622 16.5823L7.34764 16.608L10.8716 20.7511C11.5196 21.4965 11.525 21.6456 11.4714 21.7381L12.7353 19.6871Z" fill="#9CA3AF"/>
<mask id="mask19_1740_14015" style="mask-type:luminance" maskUnits="userSpaceOnUse" x="3" y="9" width="10" height="13">
<path d="M12.7353 19.6871C12.7621 19.6408 12.7621 19.5894 12.746 19.538C12.7032 19.4301 12.5854 19.2707 12.4354 19.0908L12.3658 19.0085L8.72937 14.7369L8.70795 14.7112L5.184 10.5732C4.5092 9.797 4.56811 9.64279 4.60024 9.56055L3.30956 11.6424C3.256 11.7401 3.39525 11.9611 3.62018 12.2284L3.6898 12.3106L7.32622 16.5823L7.34764 16.608L10.8716 20.7511C11.5196 21.4965 11.525 21.6456 11.4714 21.7381L12.7353 19.6871Z" fill="white"/>
</mask>
<g mask="url(#mask19_1740_14015)">
<path d="M12.7673 9.56055H3.25586V21.7381H12.7673V9.56055Z" fill="#9CA3AF"/>
</g>
<path d="M11.4658 21.7334L11.4607 21.7488L11.4658 21.7334Z" fill="#9CA3AF"/>
<mask id="mask20_1740_14015" style="mask-type:luminance" maskUnits="userSpaceOnUse" x="11" y="21" width="1" height="1">
<path d="M11.4658 21.7334L11.4607 21.7488L11.4658 21.7334Z" fill="white"/>
</mask>
<g mask="url(#mask20_1740_14015)">
<path d="M11.4658 21.7334H11.4607V21.7488H11.4658V21.7334Z" fill="#9CA3AF"/>
</g>
<path d="M11.4658 21.7334L11.4607 21.7488L11.4658 21.7334Z" fill="#9CA3AF"/>
<mask id="mask21_1740_14015" style="mask-type:luminance" maskUnits="userSpaceOnUse" x="11" y="21" width="1" height="1">
<path d="M11.4658 21.7334L11.4607 21.7488L11.4658 21.7334Z" fill="white"/>
</mask>
<g mask="url(#mask21_1740_14015)">
<path d="M11.4658 21.7334H11.4607V21.7488H11.4658V21.7334Z" fill="#9CA3AF"/>
</g>
<path d="M11.4658 21.7334L11.4607 21.7488L11.4658 21.7334Z" fill="#9CA3AF"/>
<mask id="mask22_1740_14015" style="mask-type:luminance" maskUnits="userSpaceOnUse" x="11" y="21" width="1" height="1">
<path d="M11.4658 21.7334L11.4607 21.7488L11.4658 21.7334Z" fill="white"/>
</mask>
<g mask="url(#mask22_1740_14015)">
<path d="M11.4658 21.7334H11.4607V21.7488H11.4658V21.7334Z" fill="#9CA3AF"/>
</g>
<path d="M11.4658 21.7334L11.4607 21.7488L11.4658 21.7334Z" fill="#9CA3AF"/>
<mask id="mask23_1740_14015" style="mask-type:luminance" maskUnits="userSpaceOnUse" x="11" y="21" width="1" height="1">
<path d="M11.4658 21.7334L11.4607 21.7488L11.4658 21.7334Z" fill="white"/>
</mask>
<g mask="url(#mask23_1740_14015)">
<path d="M11.4658 21.7334H11.4607V21.7488H11.4658V21.7334Z" fill="#9CA3AF"/>
</g>
<path d="M10.9197 22.6332C10.9197 22.6332 10.9625 22.5715 10.9357 22.4738C10.8929 22.3659 10.7751 22.2065 10.6251 22.0266L10.5555 21.9444L6.91908 17.6727L6.89766 17.647L3.37371 13.509C2.69356 12.7277 2.75782 12.5735 2.78996 12.4912L1.50463 14.5731C1.45107 14.6707 1.59032 14.8918 1.81525 15.1591L1.88487 15.2413L5.52128 19.513L5.54271 19.5387L9.06666 23.6818C9.71468 24.4272 9.72003 24.5762 9.66648 24.6688L10.9197 22.6332Z" fill="#9CA3AF"/>
<mask id="mask24_1740_14015" style="mask-type:luminance" maskUnits="userSpaceOnUse" x="1" y="12" width="10" height="13">
<path d="M10.9197 22.6332C10.9197 22.6332 10.9625 22.5715 10.9357 22.4738C10.8929 22.3659 10.7751 22.2065 10.6251 22.0266L10.5555 21.9444L6.91908 17.6727L6.89766 17.647L3.37371 13.509C2.69356 12.7277 2.75782 12.5735 2.78996 12.4912L1.50463 14.5731C1.45107 14.6707 1.59032 14.8918 1.81525 15.1591L1.88487 15.2413L5.52128 19.513L5.54271 19.5387L9.06666 23.6818C9.71468 24.4272 9.72003 24.5762 9.66648 24.6688L10.9197 22.6332Z" fill="white"/>
</mask>
<g mask="url(#mask24_1740_14015)">
<path d="M10.9677 12.4912H1.45093V24.6688H10.9677V12.4912Z" fill="#9CA3AF"/>
</g>
<path d="M10.9197 22.6332C10.9197 22.6332 10.9625 22.5715 10.9357 22.4738C10.8929 22.3659 10.7751 22.2065 10.6251 22.0266L10.5555 21.9444L6.91908 17.6727L6.89766 17.647L3.37371 13.509C2.69356 12.7277 2.75782 12.5735 2.78996 12.4912L1.50463 14.5731C1.45107 14.6707 1.59032 14.8918 1.81525 15.1591L1.88487 15.2413L5.52128 19.513L5.54271 19.5387L9.06666 23.6818C9.71468 24.4272 9.72003 24.5762 9.66648 24.6688L10.9197 22.6332Z" fill="#9CA3AF"/>
<mask id="mask25_1740_14015" style="mask-type:luminance" maskUnits="userSpaceOnUse" x="1" y="12" width="10" height="13">
<path d="M10.9197 22.6332C10.9197 22.6332 10.9625 22.5715 10.9357 22.4738C10.8929 22.3659 10.7751 22.2065 10.6251 22.0266L10.5555 21.9444L6.91908 17.6727L6.89766 17.647L3.37371 13.509C2.69356 12.7277 2.75782 12.5735 2.78996 12.4912L1.50463 14.5731C1.45107 14.6707 1.59032 14.8918 1.81525 15.1591L1.88487 15.2413L5.52128 19.513L5.54271 19.5387L9.06666 23.6818C9.71468 24.4272 9.72003 24.5762 9.66648 24.6688L10.9197 22.6332Z" fill="white"/>
</mask>
<g mask="url(#mask25_1740_14015)">
<path d="M10.9677 12.4912H1.45093V24.6688H10.9677V12.4912Z" fill="#9CA3AF"/>
</g>
<path d="M10.9197 22.6332C10.9197 22.6332 10.9625 22.5715 10.9357 22.4738C10.8929 22.3659 10.7751 22.2065 10.6251 22.0266L10.5555 21.9444L6.91908 17.6727L6.89766 17.647L3.37371 13.509C2.69356 12.7277 2.75782 12.5735 2.78996 12.4912L1.50463 14.5731C1.45107 14.6707 1.59032 14.8918 1.81525 15.1591L1.88487 15.2413L5.52128 19.513L5.54271 19.5387L9.06666 23.6818C9.71468 24.4272 9.72003 24.5762 9.66648 24.6688L10.9197 22.6332Z" fill="#9CA3AF"/>
<mask id="mask26_1740_14015" style="mask-type:luminance" maskUnits="userSpaceOnUse" x="1" y="12" width="10" height="13">
<path d="M10.9197 22.6332C10.9197 22.6332 10.9625 22.5715 10.9357 22.4738C10.8929 22.3659 10.7751 22.2065 10.6251 22.0266L10.5555 21.9444L6.91908 17.6727L6.89766 17.647L3.37371 13.509C2.69356 12.7277 2.75782 12.5735 2.78996 12.4912L1.50463 14.5731C1.45107 14.6707 1.59032 14.8918 1.81525 15.1591L1.88487 15.2413L5.52128 19.513L5.54271 19.5387L9.06666 23.6818C9.71468 24.4272 9.72003 24.5762 9.66648 24.6688L10.9197 22.6332Z" fill="white"/>
</mask>
<g mask="url(#mask26_1740_14015)">
<path d="M10.9677 12.4912H1.45093V24.6688H10.9677V12.4912Z" fill="#9CA3AF"/>
</g>
<path d="M10.9197 22.6332C10.9197 22.6332 10.9625 22.5715 10.9357 22.4738C10.8929 22.3659 10.7751 22.2065 10.6251 22.0266L10.5555 21.9444L6.91908 17.6727L6.89766 17.647L3.37371 13.509C2.69356 12.7277 2.75782 12.5735 2.78996 12.4912L1.50463 14.5731C1.45107 14.6707 1.59032 14.8918 1.81525 15.1591L1.88487 15.2413L5.52128 19.513L5.54271 19.5387L9.06666 23.6818C9.71468 24.4272 9.72003 24.5762 9.66648 24.6688L10.9197 22.6332Z" fill="#9CA3AF"/>
<mask id="mask27_1740_14015" style="mask-type:luminance" maskUnits="userSpaceOnUse" x="1" y="12" width="10" height="13">
<path d="M10.9197 22.6332C10.9197 22.6332 10.9625 22.5715 10.9357 22.4738C10.8929 22.3659 10.7751 22.2065 10.6251 22.0266L10.5555 21.9444L6.91908 17.6727L6.89766 17.647L3.37371 13.509C2.69356 12.7277 2.75782 12.5735 2.78996 12.4912L1.50463 14.5731C1.45107 14.6707 1.59032 14.8918 1.81525 15.1591L1.88487 15.2413L5.52128 19.513L5.54271 19.5387L9.06666 23.6818C9.71468 24.4272 9.72003 24.5762 9.66648 24.6688L10.9197 22.6332Z" fill="white"/>
</mask>
<g mask="url(#mask27_1740_14015)">
<path d="M10.9677 12.4912H1.45093V24.6688H10.9677V12.4912Z" fill="#9CA3AF"/>
</g>
<path d="M13.4315 16.5365L8.57399 14.5986L8.54186 14.5883L3.52371 12.5836L3.47015 12.5579C3.32556 12.5065 2.96138 12.3934 2.81142 12.4705C2.79536 12.4807 2.78464 12.491 2.77929 12.5065L2.74716 12.5579L1.51538 14.5575C1.56894 14.4958 1.72425 14.3724 2.64005 14.7528L7.49752 16.6907L7.52966 16.701L12.5478 18.7057L12.6121 18.7314C12.762 18.7828 13.1101 18.8908 13.2601 18.8137C13.2762 18.8034 13.2922 18.788 13.2976 18.7726L14.4544 16.8758L14.5615 16.7267C14.5026 16.7987 14.3526 16.9118 13.4315 16.5365Z" fill="#9CA3AF"/>
<mask id="mask28_1740_14015" style="mask-type:luminance" maskUnits="userSpaceOnUse" x="1" y="12" width="14" height="7">
<path d="M13.4315 16.5365L8.57399 14.5986L8.54186 14.5883L3.52371 12.5836L3.47015 12.5579C3.32556 12.5065 2.96138 12.3934 2.81142 12.4705C2.79536 12.4807 2.78464 12.491 2.77929 12.5065L2.74716 12.5579L1.51538 14.5575C1.56894 14.4958 1.72425 14.3724 2.64005 14.7528L7.49752 16.6907L7.52966 16.701L12.5478 18.7057L12.6121 18.7314C12.762 18.7828 13.1101 18.8908 13.2601 18.8137C13.2762 18.8034 13.2922 18.788 13.2976 18.7726L14.4544 16.8758L14.5615 16.7267C14.5026 16.7987 14.3526 16.9118 13.4315 16.5365Z" fill="white"/>
</mask>
<g mask="url(#mask28_1740_14015)">
<path d="M14.5561 12.3936H1.51001V18.8961H14.5561V12.3936Z" fill="#9CA3AF"/>
</g>
<path d="M13.4315 16.5365L8.57399 14.5986L8.54186 14.5883L3.52371 12.5836L3.47015 12.5579C3.32556 12.5065 2.96138 12.3934 2.81142 12.4705C2.79536 12.4807 2.78464 12.491 2.77929 12.5065L2.74716 12.5579L1.51538 14.5575C1.56894 14.4958 1.72425 14.3724 2.64005 14.7528L7.49752 16.6907L7.52966 16.701L12.5478 18.7057L12.6121 18.7314C12.762 18.7828 13.1101 18.8908 13.2601 18.8137C13.2762 18.8034 13.2922 18.788 13.2976 18.7726L14.4544 16.8758L14.5615 16.7267C14.5026 16.7987 14.3526 16.9118 13.4315 16.5365Z" fill="#9CA3AF"/>
<mask id="mask29_1740_14015" style="mask-type:luminance" maskUnits="userSpaceOnUse" x="1" y="12" width="14" height="7">
<path d="M13.4315 16.5365L8.57399 14.5986L8.54186 14.5883L3.52371 12.5836L3.47015 12.5579C3.32556 12.5065 2.96138 12.3934 2.81142 12.4705C2.79536 12.4807 2.78464 12.491 2.77929 12.5065L2.74716 12.5579L1.51538 14.5575C1.56894 14.4958 1.72425 14.3724 2.64005 14.7528L7.49752 16.6907L7.52966 16.701L12.5478 18.7057L12.6121 18.7314C12.762 18.7828 13.1101 18.8908 13.2601 18.8137C13.2762 18.8034 13.2922 18.788 13.2976 18.7726L14.4544 16.8758L14.5615 16.7267C14.5026 16.7987 14.3526 16.9118 13.4315 16.5365Z" fill="white"/>
</mask>
<g mask="url(#mask29_1740_14015)">
<path d="M14.5561 12.3936H1.51001V18.8961H14.5561V12.3936Z" fill="#9CA3AF"/>
</g>
<path d="M13.4315 16.5365L8.57399 14.5986L8.54186 14.5883L3.52371 12.5836L3.47015 12.5579C3.32556 12.5065 2.96138 12.3934 2.81142 12.4705C2.79536 12.4807 2.78464 12.491 2.77929 12.5065L2.74716 12.5579L1.51538 14.5575C1.56894 14.4958 1.72425 14.3724 2.64005 14.7528L7.49752 16.6907L7.52966 16.701L12.5478 18.7057L12.6121 18.7314C12.762 18.7828 13.1101 18.8908 13.2601 18.8137C13.2762 18.8034 13.2922 18.788 13.2976 18.7726L14.4544 16.8758L14.5615 16.7267C14.5026 16.7987 14.3526 16.9118 13.4315 16.5365Z" fill="#9CA3AF"/>
<mask id="mask30_1740_14015" style="mask-type:luminance" maskUnits="userSpaceOnUse" x="1" y="12" width="14" height="7">
<path d="M13.4315 16.5365L8.57399 14.5986L8.54186 14.5883L3.52371 12.5836L3.47015 12.5579C3.32556 12.5065 2.96138 12.3934 2.81142 12.4705C2.79536 12.4807 2.78464 12.491 2.77929 12.5065L2.74716 12.5579L1.51538 14.5575C1.56894 14.4958 1.72425 14.3724 2.64005 14.7528L7.49752 16.6907L7.52966 16.701L12.5478 18.7057L12.6121 18.7314C12.762 18.7828 13.1101 18.8908 13.2601 18.8137C13.2762 18.8034 13.2922 18.788 13.2976 18.7726L14.4544 16.8758L14.5615 16.7267C14.5026 16.7987 14.3526 16.9118 13.4315 16.5365Z" fill="white"/>
</mask>
<g mask="url(#mask30_1740_14015)">
<path d="M14.5561 12.3936H1.51001V18.8961H14.5561V12.3936Z" fill="#9CA3AF"/>
</g>
<path d="M13.4315 16.5365L8.57399 14.5986L8.54186 14.5883L3.52371 12.5836L3.47015 12.5579C3.32556 12.5065 2.96138 12.3934 2.81142 12.4705C2.79536 12.4807 2.78464 12.491 2.77929 12.5065L2.74716 12.5579L1.51538 14.5575C1.56894 14.4958 1.72425 14.3724 2.64005 14.7528L7.49752 16.6907L7.52966 16.701L12.5478 18.7057L12.6121 18.7314C12.762 18.7828 13.1101 18.8908 13.2601 18.8137C13.2762 18.8034 13.2922 18.788 13.2976 18.7726L14.4544 16.8758L14.5615 16.7267C14.5026 16.7987 14.3526 16.9118 13.4315 16.5365Z" fill="#9CA3AF"/>
<mask id="mask31_1740_14015" style="mask-type:luminance" maskUnits="userSpaceOnUse" x="1" y="12" width="14" height="7">
<path d="M13.4315 16.5365L8.57399 14.5986L8.54186 14.5883L3.52371 12.5836L3.47015 12.5579C3.32556 12.5065 2.96138 12.3934 2.81142 12.4705C2.79536 12.4807 2.78464 12.491 2.77929 12.5065L2.74716 12.5579L1.51538 14.5575C1.56894 14.4958 1.72425 14.3724 2.64005 14.7528L7.49752 16.6907L7.52966 16.701L12.5478 18.7057L12.6121 18.7314C12.762 18.7828 13.1101 18.8908 13.2601 18.8137C13.2762 18.8034 13.2922 18.788 13.2976 18.7726L14.4544 16.8758L14.5615 16.7267C14.5026 16.7987 14.3526 16.9118 13.4315 16.5365Z" fill="white"/>
</mask>
<g mask="url(#mask31_1740_14015)">
<path d="M14.5561 12.3936H1.51001V18.8961H14.5561V12.3936Z" fill="#9CA3AF"/>
</g>
<path d="M13.4315 16.5365L8.57399 14.5986L8.54186 14.5883L3.52371 12.5836L3.47015 12.5579C3.32556 12.5065 2.96138 12.3934 2.81142 12.4705C2.79536 12.4807 2.78464 12.491 2.77929 12.5065L2.74716 12.5579L1.51538 14.5575C1.56894 14.4958 1.72425 14.3724 2.64005 14.7528L7.49752 16.6907L7.52966 16.701L12.5478 18.7057L12.6121 18.7314C12.762 18.7828 13.1101 18.8908 13.2601 18.8137C13.2762 18.8034 13.2922 18.788 13.2976 18.7726L14.4544 16.8758L14.5615 16.7267C14.5026 16.7987 14.3526 16.9118 13.4315 16.5365Z" fill="#9CA3AF"/>
<mask id="mask32_1740_14015" style="mask-type:luminance" maskUnits="userSpaceOnUse" x="1" y="12" width="14" height="7">
<path d="M13.4315 16.5365L8.57399 14.5986L8.54186 14.5883L3.52371 12.5836L3.47015 12.5579C3.32556 12.5065 2.96138 12.3934 2.81142 12.4705C2.79536 12.4807 2.78464 12.491 2.77929 12.5065L2.74716 12.5579L1.51538 14.5575C1.56894 14.4958 1.72425 14.3724 2.64005 14.7528L7.49752 16.6907L7.52966 16.701L12.5478 18.7057L12.6121 18.7314C12.762 18.7828 13.1101 18.8908 13.2601 18.8137C13.2762 18.8034 13.2922 18.788 13.2976 18.7726L14.4544 16.8758L14.5615 16.7267C14.5026 16.7987 14.3526 16.9118 13.4315 16.5365Z" fill="white"/>
</mask>
<g mask="url(#mask32_1740_14015)">
<path d="M14.5561 12.3936H1.51001V18.8961H14.5561V12.3936Z" fill="#9CA3AF"/>
</g>
<path d="M15.2415 13.601L10.384 11.663L10.3519 11.6528L5.33375 9.64801L5.27484 9.62231C5.13024 9.5709 4.76607 9.45782 4.61611 9.53492C4.60004 9.5452 4.58933 9.56062 4.58398 9.5709L4.55184 9.62231L3.32007 11.6219C3.37362 11.5551 3.52893 11.4369 4.44473 11.8172L9.30221 13.7552L9.33435 13.7654L14.3525 15.7702L14.4168 15.7959C14.5667 15.8473 14.9148 15.9552 15.0648 15.8781C15.0808 15.8679 15.0916 15.8524 15.1023 15.837L16.2591 13.9402L16.3662 13.7912C16.3126 13.8683 16.1573 13.9813 15.2415 13.601Z" fill="#9CA3AF"/>
<mask id="mask33_1740_14015" style="mask-type:luminance" maskUnits="userSpaceOnUse" x="3" y="9" width="14" height="7">
<path d="M15.2415 13.601L10.384 11.663L10.3519 11.6528L5.33375 9.64801L5.27484 9.62231C5.13024 9.5709 4.76607 9.45782 4.61611 9.53492C4.60004 9.5452 4.58933 9.56062 4.58398 9.5709L4.55184 9.62231L3.32007 11.6219C3.37362 11.5551 3.52893 11.4369 4.44473 11.8172L9.30221 13.7552L9.33435 13.7654L14.3525 15.7702L14.4168 15.7959C14.5667 15.8473 14.9148 15.9552 15.0648 15.8781C15.0808 15.8679 15.0916 15.8524 15.1023 15.837L16.2591 13.9402L16.3662 13.7912C16.3126 13.8683 16.1573 13.9813 15.2415 13.601Z" fill="white"/>
</mask>
<g mask="url(#mask33_1740_14015)">
<path d="M16.3662 9.45801H3.32007V15.9606H16.3662V9.45801Z" fill="#9CA3AF"/>
</g>
<path d="M15.2415 13.601L10.384 11.663L10.3519 11.6528L5.33375 9.64801L5.27484 9.62231C5.13024 9.5709 4.76607 9.45782 4.61611 9.53492C4.60004 9.5452 4.58933 9.56062 4.58398 9.5709L4.55184 9.62231L3.32007 11.6219C3.37362 11.5551 3.52893 11.4369 4.44473 11.8172L9.30221 13.7552L9.33435 13.7654L14.3525 15.7702L14.4168 15.7959C14.5667 15.8473 14.9148 15.9552 15.0648 15.8781C15.0808 15.8679 15.0916 15.8524 15.1023 15.837L16.2591 13.9402L16.3662 13.7912C16.3126 13.8683 16.1573 13.9813 15.2415 13.601Z" fill="#9CA3AF"/>
<mask id="mask34_1740_14015" style="mask-type:luminance" maskUnits="userSpaceOnUse" x="3" y="9" width="14" height="7">
<path d="M15.2415 13.601L10.384 11.663L10.3519 11.6528L5.33375 9.64801L5.27484 9.62231C5.13024 9.5709 4.76607 9.45782 4.61611 9.53492C4.60004 9.5452 4.58933 9.56062 4.58398 9.5709L4.55184 9.62231L3.32007 11.6219C3.37362 11.5551 3.52893 11.4369 4.44473 11.8172L9.30221 13.7552L9.33435 13.7654L14.3525 15.7702L14.4168 15.7959C14.5667 15.8473 14.9148 15.9552 15.0648 15.8781C15.0808 15.8679 15.0916 15.8524 15.1023 15.837L16.2591 13.9402L16.3662 13.7912C16.3126 13.8683 16.1573 13.9813 15.2415 13.601Z" fill="white"/>
</mask>
<g mask="url(#mask34_1740_14015)">
<path d="M16.3662 9.45801H3.32007V15.9606H16.3662V9.45801Z" fill="#9CA3AF"/>
</g>
<path d="M15.2415 13.601L10.384 11.663L10.3519 11.6528L5.33375 9.64801L5.27484 9.62231C5.13024 9.5709 4.76607 9.45782 4.61611 9.53492C4.60004 9.5452 4.58933 9.56062 4.58398 9.5709L4.55184 9.62231L3.32007 11.6219C3.37362 11.5551 3.52893 11.4369 4.44473 11.8172L9.30221 13.7552L9.33435 13.7654L14.3525 15.7702L14.4168 15.7959C14.5667 15.8473 14.9148 15.9552 15.0648 15.8781C15.0808 15.8679 15.0916 15.8524 15.1023 15.837L16.2591 13.9402L16.3662 13.7912C16.3126 13.8683 16.1573 13.9813 15.2415 13.601Z" fill="#9CA3AF"/>
<mask id="mask35_1740_14015" style="mask-type:luminance" maskUnits="userSpaceOnUse" x="3" y="9" width="14" height="7">
<path d="M15.2415 13.601L10.384 11.663L10.3519 11.6528L5.33375 9.64801L5.27484 9.62231C5.13024 9.5709 4.76607 9.45782 4.61611 9.53492C4.60004 9.5452 4.58933 9.56062 4.58398 9.5709L4.55184 9.62231L3.32007 11.6219C3.37362 11.5551 3.52893 11.4369 4.44473 11.8172L9.30221 13.7552L9.33435 13.7654L14.3525 15.7702L14.4168 15.7959C14.5667 15.8473 14.9148 15.9552 15.0648 15.8781C15.0808 15.8679 15.0916 15.8524 15.1023 15.837L16.2591 13.9402L16.3662 13.7912C16.3126 13.8683 16.1573 13.9813 15.2415 13.601Z" fill="white"/>
</mask>
<g mask="url(#mask35_1740_14015)">
<path d="M16.3662 9.45801H3.32007V15.9606H16.3662V9.45801Z" fill="#9CA3AF"/>
</g>
<path d="M15.2415 13.601L10.384 11.663L10.3519 11.6528L5.33375 9.64801L5.27484 9.62231C5.13024 9.5709 4.76607 9.45782 4.61611 9.53492C4.60004 9.5452 4.58933 9.56062 4.58398 9.5709L4.55184 9.62231L3.32007 11.6219C3.37362 11.5551 3.52893 11.4369 4.44473 11.8172L9.30221 13.7552L9.33435 13.7654L14.3525 15.7702L14.4168 15.7959C14.5667 15.8473 14.9148 15.9552 15.0648 15.8781C15.0808 15.8679 15.0916 15.8524 15.1023 15.837L16.2591 13.9402L16.3662 13.7912C16.3126 13.8683 16.1573 13.9813 15.2415 13.601Z" fill="#9CA3AF"/>
<mask id="mask36_1740_14015" style="mask-type:luminance" maskUnits="userSpaceOnUse" x="3" y="9" width="14" height="7">
<path d="M15.2415 13.601L10.384 11.663L10.3519 11.6528L5.33375 9.64801L5.27484 9.62231C5.13024 9.5709 4.76607 9.45782 4.61611 9.53492C4.60004 9.5452 4.58933 9.56062 4.58398 9.5709L4.55184 9.62231L3.32007 11.6219C3.37362 11.5551 3.52893 11.4369 4.44473 11.8172L9.30221 13.7552L9.33435 13.7654L14.3525 15.7702L14.4168 15.7959C14.5667 15.8473 14.9148 15.9552 15.0648 15.8781C15.0808 15.8679 15.0916 15.8524 15.1023 15.837L16.2591 13.9402L16.3662 13.7912C16.3126 13.8683 16.1573 13.9813 15.2415 13.601Z" fill="white"/>
</mask>
<g mask="url(#mask36_1740_14015)">
<path d="M16.3662 9.45801H3.32007V15.9606H16.3662V9.45801Z" fill="#9CA3AF"/>
</g>
<path d="M15.2415 13.601L10.384 11.663L10.3519 11.6528L5.33375 9.64801L5.27484 9.62231C5.13024 9.5709 4.76607 9.45782 4.61611 9.53492C4.60004 9.5452 4.58933 9.56062 4.58398 9.5709L4.55184 9.62231L3.32007 11.6219C3.37362 11.5551 3.52893 11.4369 4.44473 11.8172L9.30221 13.7552L9.33435 13.7654L14.3525 15.7702L14.4168 15.7959C14.5667 15.8473 14.9148 15.9552 15.0648 15.8781C15.0808 15.8679 15.0916 15.8524 15.1023 15.837L16.2591 13.9402L16.3662 13.7912C16.3126 13.8683 16.1573 13.9813 15.2415 13.601Z" fill="#9CA3AF"/>
<mask id="mask37_1740_14015" style="mask-type:luminance" maskUnits="userSpaceOnUse" x="3" y="9" width="14" height="7">
<path d="M15.2415 13.601L10.384 11.663L10.3519 11.6528L5.33375 9.64801L5.27484 9.62231C5.13024 9.5709 4.76607 9.45782 4.61611 9.53492C4.60004 9.5452 4.58933 9.56062 4.58398 9.5709L4.55184 9.62231L3.32007 11.6219C3.37362 11.5551 3.52893 11.4369 4.44473 11.8172L9.30221 13.7552L9.33435 13.7654L14.3525 15.7702L14.4168 15.7959C14.5667 15.8473 14.9148 15.9552 15.0648 15.8781C15.0808 15.8679 15.0916 15.8524 15.1023 15.837L16.2591 13.9402L16.3662 13.7912C16.3126 13.8683 16.1573 13.9813 15.2415 13.601Z" fill="white"/>
</mask>
<g mask="url(#mask37_1740_14015)">
<path d="M16.3662 9.45801H3.32007V15.9606H16.3662V9.45801Z" fill="#9CA3AF"/>
</g>
<path d="M9.1577 13.6778L12.6816 17.8209C13.3564 18.5971 13.335 18.7256 13.2708 18.8233L14.5614 16.7415C14.615 16.6438 14.465 16.433 14.2401 16.1709L14.1705 16.0886L10.5341 11.817L10.5126 11.7913L6.9887 7.65328C6.3139 6.87708 6.37281 6.72287 6.40495 6.64062L5.11962 8.72248C5.06606 8.82014 5.20531 9.04118 5.43024 9.30848L5.49986 9.39072L9.13627 13.6624L9.1577 13.6778Z" fill="#9CA3AF"/>
<mask id="mask38_1740_14015" style="mask-type:luminance" maskUnits="userSpaceOnUse" x="5" y="6" width="10" height="13">
<path d="M9.1577 13.6778L12.6816 17.8209C13.3564 18.5971 13.335 18.7256 13.2708 18.8233L14.5614 16.7415C14.615 16.6438 14.465 16.433 14.2401 16.1709L14.1705 16.0886L10.5341 11.817L10.5126 11.7913L6.9887 7.65328C6.3139 6.87708 6.37281 6.72287 6.40495 6.64062L5.11962 8.72248C5.06606 8.82014 5.20531 9.04118 5.43024 9.30848L5.49986 9.39072L9.13627 13.6624L9.1577 13.6778Z" fill="white"/>
</mask>
<g mask="url(#mask38_1740_14015)">
<path d="M14.6097 6.62988H5.06616V18.8177H14.6097V6.62988Z" fill="#9CA3AF"/>
</g>
<path d="M9.1577 13.6778L12.6816 17.8209C13.3564 18.5971 13.335 18.7256 13.2708 18.8233L14.5614 16.7415C14.615 16.6438 14.465 16.433 14.2401 16.1709L14.1705 16.0886L10.5341 11.817L10.5126 11.7913L6.9887 7.65328C6.3139 6.87708 6.37281 6.72287 6.40495 6.64062L5.11962 8.72248C5.06606 8.82014 5.20531 9.04118 5.43024 9.30848L5.49986 9.39072L9.13627 13.6624L9.1577 13.6778Z" fill="#9CA3AF"/>
<mask id="mask39_1740_14015" style="mask-type:luminance" maskUnits="userSpaceOnUse" x="5" y="6" width="10" height="13">
<path d="M9.1577 13.6778L12.6816 17.8209C13.3564 18.5971 13.335 18.7256 13.2708 18.8233L14.5614 16.7415C14.615 16.6438 14.465 16.433 14.2401 16.1709L14.1705 16.0886L10.5341 11.817L10.5126 11.7913L6.9887 7.65328C6.3139 6.87708 6.37281 6.72287 6.40495 6.64062L5.11962 8.72248C5.06606 8.82014 5.20531 9.04118 5.43024 9.30848L5.49986 9.39072L9.13627 13.6624L9.1577 13.6778Z" fill="white"/>
</mask>
<g mask="url(#mask39_1740_14015)">
<path d="M14.6097 6.62988H5.06616V18.8177H14.6097V6.62988Z" fill="#9CA3AF"/>
</g>
<path d="M9.1577 13.6778L12.6816 17.8209C13.3564 18.5971 13.335 18.7256 13.2708 18.8233L14.5614 16.7415C14.615 16.6438 14.465 16.433 14.2401 16.1709L14.1705 16.0886L10.5341 11.817L10.5126 11.7913L6.9887 7.65328C6.3139 6.87708 6.37281 6.72287 6.40495 6.64062L5.11962 8.72248C5.06606 8.82014 5.20531 9.04118 5.43024 9.30848L5.49986 9.39072L9.13627 13.6624L9.1577 13.6778Z" fill="#9CA3AF"/>
<mask id="mask40_1740_14015" style="mask-type:luminance" maskUnits="userSpaceOnUse" x="5" y="6" width="10" height="13">
<path d="M9.1577 13.6778L12.6816 17.8209C13.3564 18.5971 13.335 18.7256 13.2708 18.8233L14.5614 16.7415C14.615 16.6438 14.465 16.433 14.2401 16.1709L14.1705 16.0886L10.5341 11.817L10.5126 11.7913L6.9887 7.65328C6.3139 6.87708 6.37281 6.72287 6.40495 6.64062L5.11962 8.72248C5.06606 8.82014 5.20531 9.04118 5.43024 9.30848L5.49986 9.39072L9.13627 13.6624L9.1577 13.6778Z" fill="white"/>
</mask>
<g mask="url(#mask40_1740_14015)">
<path d="M14.6097 6.62988H5.06616V18.8177H14.6097V6.62988Z" fill="#9CA3AF"/>
</g>
<path d="M9.1577 13.6778L12.6816 17.8209C13.3564 18.5971 13.335 18.7256 13.2708 18.8233L14.5614 16.7415C14.615 16.6438 14.465 16.433 14.2401 16.1709L14.1705 16.0886L10.5341 11.817L10.5126 11.7913L6.9887 7.65328C6.3139 6.87708 6.37281 6.72287 6.40495 6.64062L5.11962 8.72248C5.06606 8.82014 5.20531 9.04118 5.43024 9.30848L5.49986 9.39072L9.13627 13.6624L9.1577 13.6778Z" fill="#9CA3AF"/>
<mask id="mask41_1740_14015" style="mask-type:luminance" maskUnits="userSpaceOnUse" x="5" y="6" width="10" height="13">
<path d="M9.1577 13.6778L12.6816 17.8209C13.3564 18.5971 13.335 18.7256 13.2708 18.8233L14.5614 16.7415C14.615 16.6438 14.465 16.433 14.2401 16.1709L14.1705 16.0886L10.5341 11.817L10.5126 11.7913L6.9887 7.65328C6.3139 6.87708 6.37281 6.72287 6.40495 6.64062L5.11962 8.72248C5.06606 8.82014 5.20531 9.04118 5.43024 9.30848L5.49986 9.39072L9.13627 13.6624L9.1577 13.6778Z" fill="white"/>
</mask>
<g mask="url(#mask41_1740_14015)">
<path d="M14.6097 6.62988H5.06616V18.8177H14.6097V6.62988Z" fill="#9CA3AF"/>
</g>
<path d="M17.0465 10.6713L12.189 8.73335L12.1568 8.72307L7.1387 6.71832L7.08515 6.69262C6.94055 6.64122 6.57637 6.52813 6.42641 6.60523C6.41035 6.61552 6.39964 6.63094 6.39428 6.64122L6.36215 6.69262L5.13037 8.69223C5.18393 8.63054 5.33924 8.50717 6.25504 8.88756L11.1125 10.8255L11.1446 10.8358L16.1628 12.8405L16.2271 12.8662C16.377 12.9176 16.7251 13.0256 16.8751 12.9485C16.8911 12.9382 16.9072 12.9228 16.9126 12.9073L18.0694 11.0105L18.1765 10.8615C18.1229 10.9334 17.9676 11.0517 17.0465 10.6713Z" fill="#9CA3AF"/>
<mask id="mask42_1740_14015" style="mask-type:luminance" maskUnits="userSpaceOnUse" x="5" y="6" width="14" height="7">
<path d="M17.0465 10.6713L12.189 8.73335L12.1568 8.72307L7.1387 6.71832L7.08515 6.69262C6.94055 6.64122 6.57637 6.52813 6.42641 6.60523C6.41035 6.61552 6.39964 6.63094 6.39428 6.64122L6.36215 6.69262L5.13037 8.69223C5.18393 8.63054 5.33924 8.50717 6.25504 8.88756L11.1125 10.8255L11.1446 10.8358L16.1628 12.8405L16.2271 12.8662C16.377 12.9176 16.7251 13.0256 16.8751 12.9485C16.8911 12.9382 16.9072 12.9228 16.9126 12.9073L18.0694 11.0105L18.1765 10.8615C18.1229 10.9334 17.9676 11.0517 17.0465 10.6713Z" fill="white"/>
</mask>
<g mask="url(#mask42_1740_14015)">
<path d="M18.1711 6.52832H5.125V13.0309H18.1711V6.52832Z" fill="#9CA3AF"/>
</g>
<path d="M17.0465 10.6713L12.189 8.73335L12.1568 8.72307L7.1387 6.71832L7.08515 6.69262C6.94055 6.64122 6.57637 6.52813 6.42641 6.60523C6.41035 6.61552 6.39964 6.63094 6.39428 6.64122L6.36215 6.69262L5.13037 8.69223C5.18393 8.63054 5.33924 8.50717 6.25504 8.88756L11.1125 10.8255L11.1446 10.8358L16.1628 12.8405L16.2271 12.8662C16.377 12.9176 16.7251 13.0256 16.8751 12.9485C16.8911 12.9382 16.9072 12.9228 16.9126 12.9073L18.0694 11.0105L18.1765 10.8615C18.1229 10.9334 17.9676 11.0517 17.0465 10.6713Z" fill="#9CA3AF"/>
<mask id="mask43_1740_14015" style="mask-type:luminance" maskUnits="userSpaceOnUse" x="5" y="6" width="14" height="7">
<path d="M17.0465 10.6713L12.189 8.73335L12.1568 8.72307L7.1387 6.71832L7.08515 6.69262C6.94055 6.64122 6.57637 6.52813 6.42641 6.60523C6.41035 6.61552 6.39964 6.63094 6.39428 6.64122L6.36215 6.69262L5.13037 8.69223C5.18393 8.63054 5.33924 8.50717 6.25504 8.88756L11.1125 10.8255L11.1446 10.8358L16.1628 12.8405L16.2271 12.8662C16.377 12.9176 16.7251 13.0256 16.8751 12.9485C16.8911 12.9382 16.9072 12.9228 16.9126 12.9073L18.0694 11.0105L18.1765 10.8615C18.1229 10.9334 17.9676 11.0517 17.0465 10.6713Z" fill="white"/>
</mask>
<g mask="url(#mask43_1740_14015)">
<path d="M18.1711 6.52832H5.125V13.0309H18.1711V6.52832Z" fill="#9CA3AF"/>
</g>
<path d="M17.0465 10.6713L12.189 8.73335L12.1568 8.72307L7.1387 6.71832L7.08515 6.69262C6.94055 6.64122 6.57637 6.52813 6.42641 6.60523C6.41035 6.61552 6.39964 6.63094 6.39428 6.64122L6.36215 6.69262L5.13037 8.69223C5.18393 8.63054 5.33924 8.50717 6.25504 8.88756L11.1125 10.8255L11.1446 10.8358L16.1628 12.8405L16.2271 12.8662C16.377 12.9176 16.7251 13.0256 16.8751 12.9485C16.8911 12.9382 16.9072 12.9228 16.9126 12.9073L18.0694 11.0105L18.1765 10.8615C18.1229 10.9334 17.9676 11.0517 17.0465 10.6713Z" fill="#9CA3AF"/>
<mask id="mask44_1740_14015" style="mask-type:luminance" maskUnits="userSpaceOnUse" x="5" y="6" width="14" height="7">
<path d="M17.0465 10.6713L12.189 8.73335L12.1568 8.72307L7.1387 6.71832L7.08515 6.69262C6.94055 6.64122 6.57637 6.52813 6.42641 6.60523C6.41035 6.61552 6.39964 6.63094 6.39428 6.64122L6.36215 6.69262L5.13037 8.69223C5.18393 8.63054 5.33924 8.50717 6.25504 8.88756L11.1125 10.8255L11.1446 10.8358L16.1628 12.8405L16.2271 12.8662C16.377 12.9176 16.7251 13.0256 16.8751 12.9485C16.8911 12.9382 16.9072 12.9228 16.9126 12.9073L18.0694 11.0105L18.1765 10.8615C18.1229 10.9334 17.9676 11.0517 17.0465 10.6713Z" fill="white"/>
</mask>
<g mask="url(#mask44_1740_14015)">
<path d="M18.1711 6.52832H5.125V13.0309H18.1711V6.52832Z" fill="#9CA3AF"/>
</g>
<path d="M17.0465 10.6713L12.189 8.73335L12.1568 8.72307L7.1387 6.71832L7.08515 6.69262C6.94055 6.64122 6.57637 6.52813 6.42641 6.60523C6.41035 6.61552 6.39964 6.63094 6.39428 6.64122L6.36215 6.69262L5.13037 8.69223C5.18393 8.63054 5.33924 8.50717 6.25504 8.88756L11.1125 10.8255L11.1446 10.8358L16.1628 12.8405L16.2271 12.8662C16.377 12.9176 16.7251 13.0256 16.8751 12.9485C16.8911 12.9382 16.9072 12.9228 16.9126 12.9073L18.0694 11.0105L18.1765 10.8615C18.1229 10.9334 17.9676 11.0517 17.0465 10.6713Z" fill="#9CA3AF"/>
<mask id="mask45_1740_14015" style="mask-type:luminance" maskUnits="userSpaceOnUse" x="5" y="6" width="14" height="7">
<path d="M17.0465 10.6713L12.189 8.73335L12.1568 8.72307L7.1387 6.71832L7.08515 6.69262C6.94055 6.64122 6.57637 6.52813 6.42641 6.60523C6.41035 6.61552 6.39964 6.63094 6.39428 6.64122L6.36215 6.69262L5.13037 8.69223C5.18393 8.63054 5.33924 8.50717 6.25504 8.88756L11.1125 10.8255L11.1446 10.8358L16.1628 12.8405L16.2271 12.8662C16.377 12.9176 16.7251 13.0256 16.8751 12.9485C16.8911 12.9382 16.9072 12.9228 16.9126 12.9073L18.0694 11.0105L18.1765 10.8615C18.1229 10.9334 17.9676 11.0517 17.0465 10.6713Z" fill="white"/>
</mask>
<g mask="url(#mask45_1740_14015)">
<path d="M18.1711 6.52832H5.125V13.0309H18.1711V6.52832Z" fill="#9CA3AF"/>
</g>
<path d="M17.0465 10.6713L12.189 8.73335L12.1568 8.72307L7.1387 6.71832L7.08515 6.69262C6.94055 6.64122 6.57637 6.52813 6.42641 6.60523C6.41035 6.61552 6.39964 6.63094 6.39428 6.64122L6.36215 6.69262L5.13037 8.69223C5.18393 8.63054 5.33924 8.50717 6.25504 8.88756L11.1125 10.8255L11.1446 10.8358L16.1628 12.8405L16.2271 12.8662C16.377 12.9176 16.7251 13.0256 16.8751 12.9485C16.8911 12.9382 16.9072 12.9228 16.9126 12.9073L18.0694 11.0105L18.1765 10.8615C18.1229 10.9334 17.9676 11.0517 17.0465 10.6713Z" fill="#9CA3AF"/>
<mask id="mask46_1740_14015" style="mask-type:luminance" maskUnits="userSpaceOnUse" x="5" y="6" width="14" height="7">
<path d="M17.0465 10.6713L12.189 8.73335L12.1568 8.72307L7.1387 6.71832L7.08515 6.69262C6.94055 6.64122 6.57637 6.52813 6.42641 6.60523C6.41035 6.61552 6.39964 6.63094 6.39428 6.64122L6.36215 6.69262L5.13037 8.69223C5.18393 8.63054 5.33924 8.50717 6.25504 8.88756L11.1125 10.8255L11.1446 10.8358L16.1628 12.8405L16.2271 12.8662C16.377 12.9176 16.7251 13.0256 16.8751 12.9485C16.8911 12.9382 16.9072 12.9228 16.9126 12.9073L18.0694 11.0105L18.1765 10.8615C18.1229 10.9334 17.9676 11.0517 17.0465 10.6713Z" fill="white"/>
</mask>
<g mask="url(#mask46_1740_14015)">
<path d="M18.1711 6.52832H5.125V13.0309H18.1711V6.52832Z" fill="#9CA3AF"/>
</g>
<path d="M13.4207 16.5466L8.56325 14.6087L8.53111 14.5984L3.51297 12.5937L3.43799 12.5628C3.28268 12.5114 2.94528 12.4086 2.80604 12.4857C2.78997 12.496 2.77926 12.5114 2.76855 12.5269L1.50464 14.5727C1.55819 14.511 1.7135 14.3877 2.6293 14.7681L7.48678 16.706L7.51892 16.7214L12.5371 18.7261L12.612 18.7518C12.7673 18.8032 13.1101 18.9061 13.2493 18.8341C13.2761 18.8135 13.2922 18.793 13.3136 18.7673L14.5561 16.7522C14.4972 16.8088 14.3419 16.927 13.4207 16.5466Z" fill="#4B5563"/>
<mask id="mask47_1740_14015" style="mask-type:luminance" maskUnits="userSpaceOnUse" x="1" y="12" width="14" height="7">
<path d="M13.4207 16.5466L8.56325 14.6087L8.53111 14.5984L3.51297 12.5937L3.43799 12.5628C3.28268 12.5114 2.94528 12.4086 2.80604 12.4857C2.78997 12.496 2.77926 12.5114 2.76855 12.5269L1.50464 14.5727C1.55819 14.511 1.7135 14.3877 2.6293 14.7681L7.48678 16.706L7.51892 16.7214L12.5371 18.7261L12.612 18.7518C12.7673 18.8032 13.1101 18.9061 13.2493 18.8341C13.2761 18.8135 13.2922 18.793 13.3136 18.7673L14.5561 16.7522C14.4972 16.8088 14.3419 16.927 13.4207 16.5466Z" fill="white"/>
</mask>
<g mask="url(#mask47_1740_14015)">
<path d="M14.5454 12.4082H1.49927V18.9108H14.5454V12.4082Z" fill="#4B5563"/>
</g>
<path d="M13.4207 16.5466L8.56325 14.6087L8.53111 14.5984L3.51297 12.5937L3.43799 12.5628C3.28268 12.5114 2.94528 12.4086 2.80604 12.4857C2.78997 12.496 2.77926 12.5114 2.76855 12.5269L1.50464 14.5727C1.55819 14.511 1.7135 14.3877 2.6293 14.7681L7.48678 16.706L7.51892 16.7214L12.5371 18.7261L12.612 18.7518C12.7673 18.8032 13.1101 18.9061 13.2493 18.8341C13.2761 18.8135 13.2922 18.793 13.3136 18.7673L14.5561 16.7522C14.4972 16.8088 14.3419 16.927 13.4207 16.5466Z" fill="#4B5563"/>
<mask id="mask48_1740_14015" style="mask-type:luminance" maskUnits="userSpaceOnUse" x="1" y="12" width="14" height="7">
<path d="M13.4207 16.5466L8.56325 14.6087L8.53111 14.5984L3.51297 12.5937L3.43799 12.5628C3.28268 12.5114 2.94528 12.4086 2.80604 12.4857C2.78997 12.496 2.77926 12.5114 2.76855 12.5269L1.50464 14.5727C1.55819 14.511 1.7135 14.3877 2.6293 14.7681L7.48678 16.706L7.51892 16.7214L12.5371 18.7261L12.612 18.7518C12.7673 18.8032 13.1101 18.9061 13.2493 18.8341C13.2761 18.8135 13.2922 18.793 13.3136 18.7673L14.5561 16.7522C14.4972 16.8088 14.3419 16.927 13.4207 16.5466Z" fill="white"/>
</mask>
<g mask="url(#mask48_1740_14015)">
<path d="M14.5454 12.4082H1.49927V18.9108H14.5454V12.4082Z" fill="#4B5563"/>
</g>
<path d="M13.4207 16.5466L8.56325 14.6087L8.53111 14.5984L3.51297 12.5937L3.43799 12.5628C3.28268 12.5114 2.94528 12.4086 2.80604 12.4857C2.78997 12.496 2.77926 12.5114 2.76855 12.5269L1.50464 14.5727C1.55819 14.511 1.7135 14.3877 2.6293 14.7681L7.48678 16.706L7.51892 16.7214L12.5371 18.7261L12.612 18.7518C12.7673 18.8032 13.1101 18.9061 13.2493 18.8341C13.2761 18.8135 13.2922 18.793 13.3136 18.7673L14.5561 16.7522C14.4972 16.8088 14.3419 16.927 13.4207 16.5466Z" fill="#4B5563"/>
<mask id="mask49_1740_14015" style="mask-type:luminance" maskUnits="userSpaceOnUse" x="1" y="12" width="14" height="7">
<path d="M13.4207 16.5466L8.56325 14.6087L8.53111 14.5984L3.51297 12.5937L3.43799 12.5628C3.28268 12.5114 2.94528 12.4086 2.80604 12.4857C2.78997 12.496 2.77926 12.5114 2.76855 12.5269L1.50464 14.5727C1.55819 14.511 1.7135 14.3877 2.6293 14.7681L7.48678 16.706L7.51892 16.7214L12.5371 18.7261L12.612 18.7518C12.7673 18.8032 13.1101 18.9061 13.2493 18.8341C13.2761 18.8135 13.2922 18.793 13.3136 18.7673L14.5561 16.7522C14.4972 16.8088 14.3419 16.927 13.4207 16.5466Z" fill="white"/>
</mask>
<g mask="url(#mask49_1740_14015)">
<path d="M14.5454 12.4082H1.49927V18.9108H14.5454V12.4082Z" fill="#4B5563"/>
</g>
<path d="M13.4207 16.5466L8.56325 14.6087L8.53111 14.5984L3.51297 12.5937L3.43799 12.5628C3.28268 12.5114 2.94528 12.4086 2.80604 12.4857C2.78997 12.496 2.77926 12.5114 2.76855 12.5269L1.50464 14.5727C1.55819 14.511 1.7135 14.3877 2.6293 14.7681L7.48678 16.706L7.51892 16.7214L12.5371 18.7261L12.612 18.7518C12.7673 18.8032 13.1101 18.9061 13.2493 18.8341C13.2761 18.8135 13.2922 18.793 13.3136 18.7673L14.5561 16.7522C14.4972 16.8088 14.3419 16.927 13.4207 16.5466Z" fill="#4B5563"/>
<mask id="mask50_1740_14015" style="mask-type:luminance" maskUnits="userSpaceOnUse" x="1" y="12" width="14" height="7">
<path d="M13.4207 16.5466L8.56325 14.6087L8.53111 14.5984L3.51297 12.5937L3.43799 12.5628C3.28268 12.5114 2.94528 12.4086 2.80604 12.4857C2.78997 12.496 2.77926 12.5114 2.76855 12.5269L1.50464 14.5727C1.55819 14.511 1.7135 14.3877 2.6293 14.7681L7.48678 16.706L7.51892 16.7214L12.5371 18.7261L12.612 18.7518C12.7673 18.8032 13.1101 18.9061 13.2493 18.8341C13.2761 18.8135 13.2922 18.793 13.3136 18.7673L14.5561 16.7522C14.4972 16.8088 14.3419 16.927 13.4207 16.5466Z" fill="white"/>
</mask>
<g mask="url(#mask50_1740_14015)">
<path d="M14.5454 12.4082H1.49927V18.9108H14.5454V12.4082Z" fill="#4B5563"/>
</g>
<path d="M15.2308 13.6169L10.3733 11.679L10.3412 11.6687L5.32301 9.66399L5.24268 9.63315C5.08737 9.58175 4.74997 9.47894 4.61072 9.55605C4.59466 9.56633 4.58395 9.58175 4.57323 9.59717L3.30933 11.643C3.36288 11.5814 3.51819 11.458 4.43399 11.8435L9.29147 13.7814L9.3236 13.7969L14.3417 15.8016L14.4167 15.8273C14.572 15.8787 14.9148 15.9815 15.054 15.9095C15.0808 15.889 15.0969 15.8684 15.1183 15.8427L16.3608 13.8277C16.3072 13.8791 16.1519 13.9973 15.2308 13.6169Z" fill="#4B5563"/>
<mask id="mask51_1740_14015" style="mask-type:luminance" maskUnits="userSpaceOnUse" x="3" y="9" width="14" height="7">
<path d="M15.2308 13.6169L10.3733 11.679L10.3412 11.6687L5.32301 9.66399L5.24268 9.63315C5.08737 9.58175 4.74997 9.47894 4.61072 9.55605C4.59466 9.56633 4.58395 9.58175 4.57323 9.59717L3.30933 11.643C3.36288 11.5814 3.51819 11.458 4.43399 11.8435L9.29147 13.7814L9.3236 13.7969L14.3417 15.8016L14.4167 15.8273C14.572 15.8787 14.9148 15.9815 15.054 15.9095C15.0808 15.889 15.0969 15.8684 15.1183 15.8427L16.3608 13.8277C16.3072 13.8791 16.1519 13.9973 15.2308 13.6169Z" fill="white"/>
</mask>
<g mask="url(#mask51_1740_14015)">
<path d="M16.3554 9.47852H3.30933V15.9811H16.3554V9.47852Z" fill="#4B5563"/>
</g>
<path d="M15.2308 13.6169L10.3733 11.679L10.3412 11.6687L5.32301 9.66399L5.24268 9.63315C5.08737 9.58175 4.74997 9.47894 4.61072 9.55605C4.59466 9.56633 4.58395 9.58175 4.57323 9.59717L3.30933 11.643C3.36288 11.5814 3.51819 11.458 4.43399 11.8435L9.29147 13.7814L9.3236 13.7969L14.3417 15.8016L14.4167 15.8273C14.572 15.8787 14.9148 15.9815 15.054 15.9095C15.0808 15.889 15.0969 15.8684 15.1183 15.8427L16.3608 13.8277C16.3072 13.8791 16.1519 13.9973 15.2308 13.6169Z" fill="#4B5563"/>
<mask id="mask52_1740_14015" style="mask-type:luminance" maskUnits="userSpaceOnUse" x="3" y="9" width="14" height="7">
<path d="M15.2308 13.6169L10.3733 11.679L10.3412 11.6687L5.32301 9.66399L5.24268 9.63315C5.08737 9.58175 4.74997 9.47894 4.61072 9.55605C4.59466 9.56633 4.58395 9.58175 4.57323 9.59717L3.30933 11.643C3.36288 11.5814 3.51819 11.458 4.43399 11.8435L9.29147 13.7814L9.3236 13.7969L14.3417 15.8016L14.4167 15.8273C14.572 15.8787 14.9148 15.9815 15.054 15.9095C15.0808 15.889 15.0969 15.8684 15.1183 15.8427L16.3608 13.8277C16.3072 13.8791 16.1519 13.9973 15.2308 13.6169Z" fill="white"/>
</mask>
<g mask="url(#mask52_1740_14015)">
<path d="M16.3554 9.47852H3.30933V15.9811H16.3554V9.47852Z" fill="#4B5563"/>
</g>
<path d="M15.2308 13.6169L10.3733 11.679L10.3412 11.6687L5.32301 9.66399L5.24268 9.63315C5.08737 9.58175 4.74997 9.47894 4.61072 9.55605C4.59466 9.56633 4.58395 9.58175 4.57323 9.59717L3.30933 11.643C3.36288 11.5814 3.51819 11.458 4.43399 11.8435L9.29147 13.7814L9.3236 13.7969L14.3417 15.8016L14.4167 15.8273C14.572 15.8787 14.9148 15.9815 15.054 15.9095C15.0808 15.889 15.0969 15.8684 15.1183 15.8427L16.3608 13.8277C16.3072 13.8791 16.1519 13.9973 15.2308 13.6169Z" fill="#4B5563"/>
<mask id="mask53_1740_14015" style="mask-type:luminance" maskUnits="userSpaceOnUse" x="3" y="9" width="14" height="7">
<path d="M15.2308 13.6169L10.3733 11.679L10.3412 11.6687L5.32301 9.66399L5.24268 9.63315C5.08737 9.58175 4.74997 9.47894 4.61072 9.55605C4.59466 9.56633 4.58395 9.58175 4.57323 9.59717L3.30933 11.643C3.36288 11.5814 3.51819 11.458 4.43399 11.8435L9.29147 13.7814L9.3236 13.7969L14.3417 15.8016L14.4167 15.8273C14.572 15.8787 14.9148 15.9815 15.054 15.9095C15.0808 15.889 15.0969 15.8684 15.1183 15.8427L16.3608 13.8277C16.3072 13.8791 16.1519 13.9973 15.2308 13.6169Z" fill="white"/>
</mask>
<g mask="url(#mask53_1740_14015)">
<path d="M16.3554 9.47852H3.30933V15.9811H16.3554V9.47852Z" fill="#4B5563"/>
</g>
<path d="M15.2308 13.6169L10.3733 11.679L10.3412 11.6687L5.32301 9.66399L5.24268 9.63315C5.08737 9.58175 4.74997 9.47894 4.61072 9.55605C4.59466 9.56633 4.58395 9.58175 4.57323 9.59717L3.30933 11.643C3.36288 11.5814 3.51819 11.458 4.43399 11.8435L9.29147 13.7814L9.3236 13.7969L14.3417 15.8016L14.4167 15.8273C14.572 15.8787 14.9148 15.9815 15.054 15.9095C15.0808 15.889 15.0969 15.8684 15.1183 15.8427L16.3608 13.8277C16.3072 13.8791 16.1519 13.9973 15.2308 13.6169Z" fill="#4B5563"/>
<mask id="mask54_1740_14015" style="mask-type:luminance" maskUnits="userSpaceOnUse" x="3" y="9" width="14" height="7">
<path d="M15.2308 13.6169L10.3733 11.679L10.3412 11.6687L5.32301 9.66399L5.24268 9.63315C5.08737 9.58175 4.74997 9.47894 4.61072 9.55605C4.59466 9.56633 4.58395 9.58175 4.57323 9.59717L3.30933 11.643C3.36288 11.5814 3.51819 11.458 4.43399 11.8435L9.29147 13.7814L9.3236 13.7969L14.3417 15.8016L14.4167 15.8273C14.572 15.8787 14.9148 15.9815 15.054 15.9095C15.0808 15.889 15.0969 15.8684 15.1183 15.8427L16.3608 13.8277C16.3072 13.8791 16.1519 13.9973 15.2308 13.6169Z" fill="white"/>
</mask>
<g mask="url(#mask54_1740_14015)">
<path d="M16.3554 9.47852H3.30933V15.9811H16.3554V9.47852Z" fill="#4B5563"/>
</g>
<path d="M17.0411 10.6863L12.1836 8.74836L12.1515 8.73808L7.13333 6.73333L7.05835 6.70249C6.90304 6.65108 6.56564 6.54828 6.4264 6.62538C6.41033 6.63566 6.39962 6.65108 6.38891 6.66651L5.125 8.71237C5.17856 8.65069 5.33387 8.52732 6.24966 8.91285L11.1071 10.8508L11.1393 10.8662L16.1574 12.8709L16.2324 12.8966C16.3877 12.948 16.7305 13.0508 16.8697 12.9789C16.8965 12.9583 16.9126 12.9378 16.934 12.9121L18.1765 10.897C18.1176 10.9484 17.9569 11.0667 17.0411 10.6863Z" fill="#4B5563"/>
<mask id="mask55_1740_14015" style="mask-type:luminance" maskUnits="userSpaceOnUse" x="5" y="6" width="14" height="8">
<path d="M17.0411 10.6863L12.1836 8.74836L12.1515 8.73808L7.13333 6.73333L7.05835 6.70249C6.90304 6.65108 6.56564 6.54828 6.4264 6.62538C6.41033 6.63566 6.39962 6.65108 6.38891 6.66651L5.125 8.71237C5.17856 8.65069 5.33387 8.52732 6.24966 8.91285L11.1071 10.8508L11.1393 10.8662L16.1574 12.8709L16.2324 12.8966C16.3877 12.948 16.7305 13.0508 16.8697 12.9789C16.8965 12.9583 16.9126 12.9378 16.934 12.9121L18.1765 10.897C18.1176 10.9484 17.9569 11.0667 17.0411 10.6863Z" fill="white"/>
</mask>
<g mask="url(#mask55_1740_14015)">
<path d="M18.1657 6.54785H5.11963V13.0504H18.1657V6.54785Z" fill="#4B5563"/>
</g>
<path d="M17.0411 10.6863L12.1836 8.74836L12.1515 8.73808L7.13333 6.73333L7.05835 6.70249C6.90304 6.65108 6.56564 6.54828 6.4264 6.62538C6.41033 6.63566 6.39962 6.65108 6.38891 6.66651L5.125 8.71237C5.17856 8.65069 5.33387 8.52732 6.24966 8.91285L11.1071 10.8508L11.1393 10.8662L16.1574 12.8709L16.2324 12.8966C16.3877 12.948 16.7305 13.0508 16.8697 12.9789C16.8965 12.9583 16.9126 12.9378 16.934 12.9121L18.1765 10.897C18.1176 10.9484 17.9569 11.0667 17.0411 10.6863Z" fill="#4B5563"/>
<mask id="mask56_1740_14015" style="mask-type:luminance" maskUnits="userSpaceOnUse" x="5" y="6" width="14" height="8">
<path d="M17.0411 10.6863L12.1836 8.74836L12.1515 8.73808L7.13333 6.73333L7.05835 6.70249C6.90304 6.65108 6.56564 6.54828 6.4264 6.62538C6.41033 6.63566 6.39962 6.65108 6.38891 6.66651L5.125 8.71237C5.17856 8.65069 5.33387 8.52732 6.24966 8.91285L11.1071 10.8508L11.1393 10.8662L16.1574 12.8709L16.2324 12.8966C16.3877 12.948 16.7305 13.0508 16.8697 12.9789C16.8965 12.9583 16.9126 12.9378 16.934 12.9121L18.1765 10.897C18.1176 10.9484 17.9569 11.0667 17.0411 10.6863Z" fill="white"/>
</mask>
<g mask="url(#mask56_1740_14015)">
<path d="M18.1657 6.54785H5.11963V13.0504H18.1657V6.54785Z" fill="#4B5563"/>
</g>
<path d="M17.0411 10.6863L12.1836 8.74836L12.1515 8.73808L7.13333 6.73333L7.05835 6.70249C6.90304 6.65108 6.56564 6.54828 6.4264 6.62538C6.41033 6.63566 6.39962 6.65108 6.38891 6.66651L5.125 8.71237C5.17856 8.65069 5.33387 8.52732 6.24966 8.91285L11.1071 10.8508L11.1393 10.8662L16.1574 12.8709L16.2324 12.8966C16.3877 12.948 16.7305 13.0508 16.8697 12.9789C16.8965 12.9583 16.9126 12.9378 16.934 12.9121L18.1765 10.897C18.1176 10.9484 17.9569 11.0667 17.0411 10.6863Z" fill="#4B5563"/>
<mask id="mask57_1740_14015" style="mask-type:luminance" maskUnits="userSpaceOnUse" x="5" y="6" width="14" height="8">
<path d="M17.0411 10.6863L12.1836 8.74836L12.1515 8.73808L7.13333 6.73333L7.05835 6.70249C6.90304 6.65108 6.56564 6.54828 6.4264 6.62538C6.41033 6.63566 6.39962 6.65108 6.38891 6.66651L5.125 8.71237C5.17856 8.65069 5.33387 8.52732 6.24966 8.91285L11.1071 10.8508L11.1393 10.8662L16.1574 12.8709L16.2324 12.8966C16.3877 12.948 16.7305 13.0508 16.8697 12.9789C16.8965 12.9583 16.9126 12.9378 16.934 12.9121L18.1765 10.897C18.1176 10.9484 17.9569 11.0667 17.0411 10.6863Z" fill="white"/>
</mask>
<g mask="url(#mask57_1740_14015)">
<path d="M18.1657 6.54785H5.11963V13.0504H18.1657V6.54785Z" fill="#4B5563"/>
</g>
<path d="M17.0411 10.6863L12.1836 8.74836L12.1515 8.73808L7.13333 6.73333L7.05835 6.70249C6.90304 6.65108 6.56564 6.54828 6.4264 6.62538C6.41033 6.63566 6.39962 6.65108 6.38891 6.66651L5.125 8.71237C5.17856 8.65069 5.33387 8.52732 6.24966 8.91285L11.1071 10.8508L11.1393 10.8662L16.1574 12.8709L16.2324 12.8966C16.3877 12.948 16.7305 13.0508 16.8697 12.9789C16.8965 12.9583 16.9126 12.9378 16.934 12.9121L18.1765 10.897C18.1176 10.9484 17.9569 11.0667 17.0411 10.6863Z" fill="#4B5563"/>
<mask id="mask58_1740_14015" style="mask-type:luminance" maskUnits="userSpaceOnUse" x="5" y="6" width="14" height="8">
<path d="M17.0411 10.6863L12.1836 8.74836L12.1515 8.73808L7.13333 6.73333L7.05835 6.70249C6.90304 6.65108 6.56564 6.54828 6.4264 6.62538C6.41033 6.63566 6.39962 6.65108 6.38891 6.66651L5.125 8.71237C5.17856 8.65069 5.33387 8.52732 6.24966 8.91285L11.1071 10.8508L11.1393 10.8662L16.1574 12.8709L16.2324 12.8966C16.3877 12.948 16.7305 13.0508 16.8697 12.9789C16.8965 12.9583 16.9126 12.9378 16.934 12.9121L18.1765 10.897C18.1176 10.9484 17.9569 11.0667 17.0411 10.6863Z" fill="white"/>
</mask>
<g mask="url(#mask58_1740_14015)">
<path d="M18.1657 6.54785H5.11963V13.0504H18.1657V6.54785Z" fill="#4B5563"/>
</g>
</svg>
