<svg width="147" height="29" viewBox="0 0 147 29" fill="none" xmlns="http://www.w3.org/2000/svg">
<path d="M0.803711 7.07031H5.15405L8.69924 12.8218L12.2435 7.07031H16.5948V21.9271H12.4986V13.3951L8.7097 19.2107H8.62514L4.85763 13.4374V21.9271H0.803711V7.07031Z" fill="#6B7280"/>
<path d="M25.9294 22.2031C24.8679 22.2031 23.9127 22.0685 23.0639 21.7998C22.2151 21.5316 21.4936 21.1174 20.8994 20.5587C20.3048 19.9999 19.8483 19.2925 19.5301 18.436C19.2119 17.58 19.0527 16.5716 19.0527 15.4114V7.07031H23.2549V15.3264C23.2549 16.402 23.5004 17.1981 23.9918 17.7145C24.4833 18.231 25.1434 18.4888 25.9717 18.4888C26.8001 18.4888 27.4597 18.2414 27.9512 17.7459C28.4426 17.2508 28.6886 16.4798 28.6886 15.4323V7.07031H32.8912V15.3055C32.8912 16.5084 32.7243 17.5445 32.392 18.4147C32.0597 19.2848 31.5923 19.9995 30.9913 20.5587C30.3898 21.1174 29.661 21.532 28.8054 21.7998C27.9489 22.0685 26.9905 22.2031 25.9294 22.2031Z" fill="#6B7280"/>
<path d="M35.3484 7.07031H39.466V18.3192H45.9012V21.9271H35.3484V7.07031Z" fill="#6B7280"/>
<path d="M48.3593 10.6787H43.9021V7.07031H56.9336V10.6787H52.4768V21.9276H48.3593V10.6787Z" fill="#6B7280"/>
<path d="M62.9153 7.07031H58.7769V21.9276H62.9153V7.07031Z" fill="#6B7280"/>
<path d="M69.7467 8.61969H64.7585V7.07031H76.4111V8.61969H71.4234V21.9271H69.7467V8.61969Z" fill="#4B5563"/>
<path d="M78.2542 7.07031H88.2787V8.57695H79.9308V13.692H87.0194V15.1991H79.9308V20.4205H88.256V21.9271H78.2542V7.07031Z" fill="#4B5563"/>
<path d="M103.798 7.07031H105.475V13.6715H114.049V7.07031H115.726V21.9271H114.049V15.2418H105.475V21.9271H103.798V7.07031Z" fill="#4B5563"/>
<path d="M132.697 0.806641C125.146 0.806641 119.003 6.94958 119.003 14.5C119.003 22.0501 125.146 28.1925 132.697 28.1925C140.245 28.1925 146.386 22.0501 146.386 14.5C146.386 6.94958 140.245 0.806641 132.697 0.806641ZM132.697 23.6758C127.636 23.6758 123.52 19.5596 123.52 14.5C123.52 9.43958 127.636 5.32337 132.697 5.32337C137.755 5.32337 141.869 9.43958 141.869 14.5C141.869 19.5596 137.755 23.6758 132.697 23.6758Z" fill="#6B7280"/>
<path d="M140.364 14.4995C140.364 10.2628 136.931 6.82812 132.697 6.82812C128.458 6.82812 125.025 10.2628 125.025 14.4995C125.025 18.7335 128.458 22.1696 132.697 22.1696C136.931 22.17 140.364 18.7339 140.364 14.4995Z" fill="#4B5563"/>
<path d="M100.817 18.7839C99.73 19.9401 98.2143 20.6638 96.534 20.6638C94.6791 20.6638 93.0183 19.7887 91.9204 18.418C91.0666 17.3519 90.5529 15.9862 90.5529 14.4991V14.4982C90.5529 13.0111 91.0666 11.6454 91.9204 10.5793C93.0183 9.2081 94.6791 8.3334 96.534 8.3334C98.2143 8.3334 99.73 9.05671 100.817 10.2128L101.955 9.0749C100.567 7.68692 98.6507 6.82812 96.534 6.82812C92.2955 6.82812 88.8625 10.2642 88.8625 14.4982C88.8625 18.7348 92.2955 22.1696 96.534 22.1696C98.6512 22.1696 100.568 21.3108 101.956 19.9228L100.817 18.7839Z" fill="#4B5563"/>
<path d="M117.979 9.32039C117.812 9.32039 117.651 9.28766 117.502 9.22355C117.356 9.16036 117.225 9.07216 117.114 8.96169C117.005 8.85212 116.916 8.72255 116.853 8.57616C116.789 8.42932 116.756 8.26883 116.756 8.10062C116.756 7.92604 116.789 7.76601 116.853 7.61872C116.917 7.47278 117.004 7.34276 117.114 7.23274C117.225 7.12226 117.355 7.03497 117.502 6.97132C117.797 6.84312 118.159 6.84266 118.457 6.97132C118.604 7.03497 118.734 7.12272 118.844 7.23274C118.954 7.3423 119.042 7.47278 119.105 7.61872C119.17 7.76647 119.202 7.9265 119.202 8.09426C119.202 8.26883 119.17 8.42886 119.105 8.57616C119.042 8.72301 118.954 8.85258 118.844 8.96214C118.735 9.07171 118.604 9.1599 118.456 9.22355C118.307 9.28811 118.146 9.32039 117.979 9.32039ZM117.979 7.13454C117.847 7.13454 117.722 7.16 117.607 7.20955C117.489 7.25956 117.386 7.32912 117.3 7.41641C117.215 7.50279 117.145 7.60599 117.094 7.72283C117.045 7.83785 117.019 7.96332 117.019 8.09426C117.019 8.23155 117.045 8.35658 117.094 8.47205C117.145 8.58889 117.214 8.69209 117.3 8.77893C117.386 8.86622 117.489 8.93532 117.606 8.98533C117.837 9.08398 118.121 9.08444 118.353 8.98533C118.469 8.93532 118.572 8.86622 118.659 8.77893C118.745 8.69118 118.815 8.58844 118.864 8.47205C118.914 8.35658 118.939 8.23155 118.939 8.10062C118.939 7.96332 118.914 7.83785 118.864 7.72237C118.815 7.60644 118.745 7.50324 118.659 7.41641C118.573 7.32912 118.469 7.25956 118.353 7.20955C118.237 7.16 118.111 7.13454 117.979 7.13454ZM118.691 8.73619H118.355L117.987 8.25656H117.742V8.73619H117.474V7.39731H118.047C118.218 7.39731 118.35 7.44368 118.442 7.53597C118.516 7.61008 118.555 7.70737 118.555 7.81602C118.555 7.94878 118.511 8.05379 118.425 8.12699C118.385 8.16109 118.338 8.18882 118.284 8.20928L118.691 8.73619ZM117.742 7.99378H118.038C118.124 7.99378 118.191 7.97651 118.235 7.94287C118.273 7.91377 118.29 7.87785 118.29 7.82512C118.29 7.7692 118.274 7.73555 118.238 7.70919C118.195 7.67645 118.128 7.66009 118.041 7.66009H117.742V7.99378Z" fill="#4B5563"/>
</svg>
