<svg width="146" height="15" viewBox="0 0 146 15" fill="none" xmlns="http://www.w3.org/2000/svg">
<path d="M48.2422 0.759766V4.13H53.9774V14.2407H61.3992V4.13H67.1343V0.759766H48.2422Z" fill="#4B5563"/>
<path d="M32.3865 9.60719V14.2407H24.9646V0.759766H39.1337C39.1337 0.759766 43.8643 0.759765 43.8564 4.97258V5.39387C43.8486 9.60727 39.1337 9.60727 39.1337 9.60727L32.3865 9.60719ZM36.399 4.93503C36.399 3.28742 34.7323 3.28742 34.7323 3.28742H32.3509V6.99468H34.7323C34.7323 6.99468 36.399 6.96356 36.399 5.34732V4.93503Z" fill="#4B5563"/>
<path d="M113.811 0.759766C119.449 0.759766 121.111 2.02364 121.111 4.55129C121.111 7.50082 117.246 9.1854 113.382 10.8702H121.111V14.2408H102.219C102.227 11.7131 104.354 10.4224 107.128 9.1821C109.947 7.92162 113.811 7.5359 113.811 5.00742C113.811 4.16541 113.382 3.28759 111.693 3.28759C109.947 3.28759 109.519 4.55146 109.519 6.23654H102.219C102.219 2.02372 103.945 0.759848 109.519 0.759848L113.811 0.759766Z" fill="#4B5563"/>
<path d="M0 7.5L0.00442325 6.65799C0.00442325 2.44493 2.15093 0.759766 6.01391 0.759766H12.8818C16.7446 0.759766 18.8921 2.44493 18.8921 6.65799V7.5V8.34282C18.8921 12.5556 16.7446 14.2407 12.8818 14.2407H6.01391C2.15093 14.2407 0.00442325 12.5556 0.00442325 8.34282L0 7.5ZM11.8077 5.8826C11.8077 5.8826 11.8077 3.45606 9.44742 3.45606C7.08442 3.45606 7.08442 5.8826 7.08442 5.8826V9.11756C7.08442 9.11756 7.08442 11.5444 9.44742 11.5444C11.8077 11.5444 11.8077 9.11756 11.8077 9.11756V5.8826Z" fill="#4B5563"/>
<path d="M71.5195 7.5009L71.524 6.65775C71.524 2.44493 73.6705 0.759766 77.5338 0.759766H84.4019C88.2657 0.759766 90.4112 2.44493 90.4112 6.65775V7.5009V8.34291C90.4112 12.5557 88.2658 14.2408 84.4019 14.2408H77.5338C73.6705 14.2408 71.524 12.5556 71.524 8.34291L71.5195 7.5009ZM83.3273 5.88268C83.3273 5.88268 83.3273 3.45614 80.9656 3.45614C78.6039 3.45614 78.6039 5.88268 78.6039 5.88268V9.11764C78.6039 9.11764 78.6039 11.5445 80.9656 11.5445C83.3273 11.5445 83.3273 9.11764 83.3273 9.11764V5.88268Z" fill="#4B5563"/>
<path d="M138.439 0.759766C144.077 0.759766 145.738 2.02364 145.738 4.55129C145.738 7.50082 141.874 9.1854 138.01 10.8702H145.738V14.2408H126.846C126.855 11.7131 128.98 10.4224 131.754 9.1821C134.574 7.92162 138.439 7.5359 138.439 5.00742C138.439 4.16541 138.01 3.28759 136.321 3.28759C134.574 3.28759 134.145 4.55146 134.145 6.23654H126.846C126.846 2.02372 128.572 0.759848 134.145 0.759848L138.439 0.759766Z" fill="#4B5563"/>
</svg>
