<svg width="157" height="36" viewBox="0 0 157 36" fill="none" xmlns="http://www.w3.org/2000/svg">
<g clip-path="url(#clip0_1740_14002)">
<path d="M46.5421 18.3267H43.7638V12.8695H46.7343C50.101 12.8695 50.5812 14.2424 50.5812 15.4872C50.5812 16.7318 50.0299 18.3267 46.5421 18.3267ZM46.7773 10.1387H40.668V25.8609H43.7638V21.0576H46.4355C51.0376 21.0576 53.677 19.0391 53.677 15.4146C53.677 13.0078 52.4799 10.1387 46.7773 10.1387Z" fill="#4B5563"/>
<path d="M89.2161 12.8695H94.9679L94.979 25.8609H98.0751V12.8695H103.837V10.1387H89.2161V12.8695Z" fill="#4B5563"/>
<path d="M109.684 10.1387H106.588V25.8609H109.684V10.1387Z" fill="#4B5563"/>
<path d="M125.998 22.259C124.441 22.9825 123.176 23.3649 121.582 23.3649C118.323 23.3649 116.005 21.086 116.005 17.9781C116.005 14.9445 118.33 12.6342 121.475 12.6342C123.27 12.6342 124.435 13.0505 125.92 13.7361L126.78 11.0261C125.086 10.2706 123.323 9.90332 121.39 9.90332C116.555 9.90332 112.909 13.3931 112.909 18.0209C112.909 22.7752 116.414 26.0957 121.432 26.0957C123.327 26.0957 125.165 25.6734 126.897 24.8399L125.998 22.259Z" fill="#4B5563"/>
<path d="M133.04 10.1387H129.944V25.8609H141.505V23.1301H133.04V10.1387Z" fill="#4B5563"/>
<path d="M147.356 23.1301V19.1912H155.296V16.4603H147.356V12.8695H156.343V10.1387H144.26V25.8609H156.472V23.1301H147.356Z" fill="#4B5563"/>
<path d="M59.3896 19.8407L62.2653 13.2257L65.1419 19.8407H59.3896ZM63.8443 9.9834H60.7088L53.5203 25.8604H56.7681L58.1962 22.5715H66.3353L67.7634 25.8604H71.0101L63.8443 9.9834Z" fill="#4B5563"/>
<path d="M83.896 15.1155C83.896 16.7373 82.4017 17.7873 79.6995 17.7873H76.6673V12.8696H80.6641C82.9191 12.8696 83.896 13.6972 83.896 15.1155ZM82.6521 19.6674C85.5594 18.851 86.9867 17.0828 86.9867 14.8166C86.9867 12.6825 85.8749 10.1387 80.5783 10.1387H73.5718V25.861H76.6673V20.5182H78.4417C79.8698 20.5182 80.6412 20.9154 81.6189 22.0179L85.1086 25.861H89.031L84.5422 20.9958C83.9506 20.3152 83.3338 19.9282 82.6521 19.6674Z" fill="#4B5563"/>
<path d="M13.2077 10.1383H16.3054V16.4508H28.7511L14.7565 2.45605L0.761719 16.4508H13.2077V10.1383Z" fill="#4B5563"/>
<path d="M16.3051 25.8601H13.2075V19.5479H0.761719L14.7564 33.5426L28.7511 19.5479H16.3051V25.8601Z" fill="#4B5563"/>
</g>
<defs>
<clipPath id="clip0_1740_14002">
<rect width="155.71" height="36" fill="white" transform="translate(0.761719)"/>
</clipPath>
</defs>
</svg>
