<svg width="230" height="26" viewBox="0 0 230 26" fill="none" xmlns="http://www.w3.org/2000/svg">
<path d="M150.865 21.1432H154.172V14.2522H160.488V11.3742H154.172V7.88119H161.424V4.86719H150.865V21.1432Z" fill="#4B5563"/>
<path d="M173.042 14.2522V15.6222C173.042 16.6052 172.765 17.3212 171.972 17.9052C171.313 18.3942 170.742 18.4082 169.919 18.3862C169.183 18.3622 168.701 18.3232 168.096 17.9052C167.261 17.3382 166.938 16.6282 166.886 15.6222L166.816 14.2522V4.86719H163.53V15.3242C163.53 15.7112 163.559 15.9292 163.626 16.3032C164.054 18.8502 165.458 20.6492 167.956 21.3062C168.718 21.5042 169.18 21.4672 169.967 21.4662C170.71 21.4632 171.141 21.4462 171.861 21.2622C174.375 20.6062 176.106 18.8742 176.285 16.2832L176.351 15.3002V4.86719H173.043L173.042 14.2522Z" fill="#4B5563"/>
<path d="M203.389 11.2822H197.408V4.86719H194.124V21.1472H197.408V14.1862H203.389V21.1472H206.652V4.86719H203.389V11.2822Z" fill="#4B5563"/>
<path d="M191.934 14.8682H188.738V15.3722C188.738 17.1572 187.189 18.6612 185.454 18.5652C182.944 18.4062 182.079 16.9442 181.555 14.9802C181.35 14.2292 181.369 13.6042 181.397 12.7212C181.422 11.7842 181.626 10.8732 181.81 10.3442C182.399 8.65619 183.75 7.43619 185.594 7.51319C186.815 7.56819 187.653 8.05519 188.306 9.09019C188.597 9.55119 188.682 9.87219 188.762 10.4132H191.935L191.864 10.0062C191.728 9.18219 191.502 7.78819 189.88 6.07819C188.671 4.79619 187.316 4.49119 185.502 4.50019C183.929 4.50919 182.974 4.80619 181.626 5.62119C178.966 7.22219 178.292 9.79819 178.201 12.8092C178.089 17.0602 180.302 21.5332 185.046 21.6272C188.375 21.6702 191.306 19.7222 191.888 16.4182C191.974 15.9372 191.992 15.6512 191.958 15.1622L191.934 14.8682Z" fill="#4B5563"/>
<path d="M212.207 8.82123C212.586 6.50223 217.018 6.90223 217.498 9.25123C217.526 9.66823 217.534 9.73723 217.534 9.73723L220.791 9.73923L220.768 9.35123C220.622 6.43123 217.84 4.47523 214.553 4.50223C211.598 4.50223 208.911 6.41523 209.004 9.72023C209.047 11.5422 210.293 12.8062 211.856 13.4212C215.815 15.0142 217.706 14.3272 217.84 16.7162C217.928 18.2962 216.01 18.6872 214.99 18.5962C213.608 18.4762 212.373 18.0792 211.943 16.7592C211.845 16.4602 211.808 16.2782 211.808 15.9622V15.7392H208.521V16.2192C208.521 19.7092 211.709 21.6352 214.973 21.5592C218.111 21.4812 221.224 19.7832 221.091 16.3222C220.838 9.67723 211.621 12.4262 212.207 8.82123Z" fill="#4B5563"/>
<path d="M96.8726 21.1746H108.073V18.1836H100.18V14.2526H107.435V11.3986H100.18V7.88363H108.073V4.89062H96.8726V21.1746Z" fill="#4B5563"/>
<path d="M55.5654 21.1746H66.7664V18.1836H58.8724V14.2526H66.1284V11.3986H58.8724V7.88363H66.7664V4.89062H55.5654V21.1746Z" fill="#4B5563"/>
<path d="M128.57 18.1637V4.88672H125.267V21.1437H135.815V18.1637H128.57Z" fill="#4B5563"/>
<path d="M77.1197 4.92388C76.8657 4.87988 76.6297 4.87988 76.3197 4.87988H68.8667V21.1719H72.2037V15.3329H75.9957L76.6627 15.2899C79.2637 15.1099 80.7537 12.5659 80.7967 10.1649C80.8407 8.05688 79.6977 5.47388 77.1197 4.92388ZM75.9287 12.4309L75.3577 12.4759H72.2037V7.73688H75.4727C75.6537 7.73688 75.7697 7.78188 75.9297 7.78188C77.0737 7.89888 77.5967 9.03588 77.5767 10.1649C77.5547 11.2569 76.9777 12.3459 75.9287 12.4309Z" fill="#4B5563"/>
<path d="M91.0939 4.93563C90.8419 4.89063 90.6039 4.89062 90.2969 4.89062H82.8599V21.1446H86.1899V15.3246H89.9759L90.6399 15.2786C93.2379 15.0986 94.7209 12.5596 94.7659 10.1646C94.8079 8.06463 93.6719 5.48363 91.0939 4.93563ZM89.9069 12.4246L89.3359 12.4686H86.1899V7.74563H89.4549C89.6299 7.74563 89.7479 7.78963 89.9069 7.78963C91.0469 7.90363 91.5699 9.03963 91.5509 10.1646C91.5309 11.2536 90.9559 12.3406 89.9069 12.4246Z" fill="#4B5563"/>
<path d="M122.578 19.4403C122.338 18.1153 122.486 17.4113 122.303 15.9973C122.26 15.5193 121.781 14.2553 120.896 13.6763L120.436 13.3763L121.075 12.9213C121.977 12.2783 122.198 11.5173 122.463 10.4413C122.686 9.53332 122.686 8.94732 122.44 8.04832C122.095 6.77732 121.612 5.91132 120.425 5.33932C119.695 4.99032 119.198 4.90332 118.39 4.90332H110.266V21.1443H113.542V14.8613H116.998H117.478C117.911 14.8613 118.249 15.0173 118.501 15.2933C119.184 16.0223 119.298 16.7503 119.369 17.8213C119.437 18.9133 119.363 19.6143 119.687 20.6913L119.822 21.1443H122.937L122.782 20.5763L122.578 19.4403ZM119.275 10.2573C119.162 11.4413 118.457 12.0403 117.457 12.1023L116.679 12.1473H113.54V7.77532H117.067H117.476C118.411 7.86632 119.072 8.13732 119.275 9.45932C119.297 9.68832 119.297 9.98532 119.275 10.2573Z" fill="#4B5563"/>
<path d="M148.406 14.2488H144.635V10.2988H141.336V14.2488H137.559V17.1448H141.336V21.1448H144.635V17.1448H148.406V14.2488Z" fill="#4B5563"/>
<path d="M49.9254 4.93563C49.6754 4.89063 49.4394 4.89062 49.1264 4.89062H41.6914V21.1446H45.0204V15.3236H48.8054L49.4684 15.2766C52.0664 15.0976 53.5504 12.5586 53.5974 10.1656C53.6424 8.06463 52.5034 5.48363 49.9254 4.93563ZM48.7384 12.4226L48.1674 12.4686H45.0204V7.74563H48.2814C48.4604 7.74563 48.5784 7.78963 48.7384 7.78963C49.8824 7.90363 50.4034 9.03963 50.3814 10.1646C50.3624 11.2536 49.7874 12.3406 48.7384 12.4226Z" fill="#4B5563"/>
<path d="M12.4829 1.57617H34.8459V23.9382H12.4829V1.57617Z" fill="#6B7280"/>
<path d="M25.8701 12.2139C25.5211 12.2139 18.2671 12.2139 18.2671 12.2139V21.7029H20.5021V14.4569H25.8691C26.5181 14.4569 26.9651 15.0639 26.9651 15.5509C26.9651 16.4479 26.2271 16.6859 25.8691 16.6859C25.6641 16.6859 23.8591 16.6859 23.8591 16.6859V15.3459H21.6261V18.9459H25.8691C27.9051 18.9459 29.2001 17.2829 29.2001 15.5469C29.2091 13.8039 27.8721 12.2139 25.8701 12.2139Z" fill="#F9FAFB"/>
<path d="M21.6271 11.3264H23.8601C23.8601 11.3264 23.8601 10.7144 23.8601 9.94841H28.7111V7.71241H23.8601C23.8601 7.27941 23.8601 6.96941 23.8601 6.89641C23.8601 6.38141 24.2651 6.05041 24.6931 6.05041C25.6701 6.05041 28.7141 6.05041 28.7141 6.05041V3.81641C28.7141 3.81641 24.8531 3.81641 24.7091 3.81641C22.8831 3.81641 21.6271 5.31941 21.6271 6.89641V7.71241H18.2681V9.94741H21.6271V11.3264Z" fill="#F9FAFB"/>
</svg>
