<svg width="127" height="35" viewBox="0 0 127 35" fill="none" xmlns="http://www.w3.org/2000/svg">
<path fill-rule="evenodd" clip-rule="evenodd" d="M8.17757 0.166016C7.96445 0.178747 7.76154 0.261627 7.60046 0.401737C7.36758 0.272907 7.10122 0.217429 6.83628 0.24257C6.57134 0.26771 6.32017 0.372297 6.11568 0.542628C5.9205 0.476771 5.70989 0.47196 5.51191 0.528838C5.31393 0.585715 5.13798 0.701579 5.00752 0.860988C4.72126 0.800805 4.42446 0.813554 4.14441 0.898065C3.86437 0.982576 3.61007 1.13614 3.40488 1.34462C2.22628 1.20373 1.88353 2.01657 2.29672 2.78334C2.20711 2.88014 2.13774 2.99388 2.09269 3.11786C2.04764 3.24184 2.02782 3.37357 2.03438 3.50532C2.04094 3.63707 2.07376 3.76619 2.13091 3.88508C2.18806 4.00397 2.26838 4.11025 2.36717 4.19767C2.28815 4.42917 2.28313 4.67953 2.3528 4.91402C2.42247 5.14851 2.56337 5.35552 2.75597 5.50633C2.71101 5.73481 2.73917 5.97164 2.83644 6.18321C2.93371 6.39477 3.09516 6.57033 3.29786 6.68494C3.31323 6.9686 3.40594 7.24265 3.56593 7.47739C3.72593 7.71213 3.94711 7.89861 4.20552 8.01663C4.25059 8.30288 4.39193 8.56521 4.60622 8.76028C4.8205 8.95536 5.09491 9.07151 5.38413 9.08957C5.46278 9.34303 5.61866 9.56558 5.82997 9.72613C6.04128 9.88668 6.29747 9.9772 6.56274 9.98504C5.5323 10.4634 4.67597 11.2502 4.11219 12.2365C3.54841 13.2228 3.30503 14.36 3.41572 15.4906L3.19219 15.8916C2.56348 16.3197 2.03395 16.8777 1.63938 17.528C1.2448 18.1783 0.994372 18.9057 0.904993 19.661C0.815615 20.4164 0.889373 21.1821 1.12129 21.9065C1.3532 22.6309 1.73787 23.2971 2.24931 23.8601C2.4276 24.6647 2.67229 25.4531 2.98085 26.2173C3.11434 27.2561 3.5222 28.2406 4.16247 29.0694C4.80274 29.8983 5.65229 30.5416 6.6237 30.9331C7.68492 31.7846 8.88026 32.454 10.1609 32.9137C10.7002 33.5154 11.3597 33.9973 12.0969 34.3282C12.834 34.6591 13.6324 34.8316 14.4404 34.8347H14.5109C15.3189 34.8316 16.1173 34.6591 16.8544 34.3282C17.5916 33.9973 18.2511 33.5154 18.7905 32.9137C20.0711 32.454 21.2664 31.7846 22.3276 30.9331C23.299 30.5416 24.1486 29.8983 24.7889 29.0694C25.4291 28.2406 25.837 27.2561 25.9705 26.2173C26.279 25.4531 26.5237 24.6647 26.702 23.8601C27.2135 23.2971 27.5981 22.6309 27.83 21.9065C28.062 21.1821 28.1357 20.4164 28.0463 19.661C27.957 18.9057 27.7065 18.1783 27.312 17.528C26.9174 16.8777 26.3879 16.3197 25.7591 15.8916L25.3825 15.4906C25.4787 14.3801 25.2347 13.2665 24.683 12.2979C24.1313 11.3293 23.298 10.5515 22.2938 10.0677C22.559 10.0598 22.8152 9.96932 23.0265 9.80877C23.2378 9.64822 23.3937 9.42566 23.4724 9.1722C23.7616 9.15415 24.036 9.03799 24.2503 8.84292C24.4646 8.64785 24.6059 8.38552 24.651 8.09927C24.9094 7.98125 25.1306 7.79477 25.2906 7.56003C25.4506 7.32529 25.5433 7.05124 25.5586 6.76757C25.7613 6.65297 25.9228 6.47741 26.0201 6.26585C26.1173 6.05428 26.1455 5.81744 26.1005 5.58897C26.2931 5.43815 26.434 5.23115 26.5037 4.99666C26.5734 4.76217 26.5683 4.51181 26.4893 4.28031C26.5881 4.19288 26.6684 4.08661 26.7256 3.96772C26.7827 3.84882 26.8156 3.71971 26.8221 3.58796C26.8287 3.45621 26.8089 3.32448 26.7638 3.2005C26.7188 3.07651 26.6494 2.96278 26.5598 2.86598C26.973 2.1114 26.5598 1.29856 25.4516 1.42726C25.2493 1.19436 24.9889 1.01925 24.6969 0.919778C24.4049 0.820302 24.0918 0.800017 23.7894 0.860988C23.6598 0.703979 23.486 0.589633 23.2905 0.532848C23.095 0.476063 22.8869 0.47947 22.6934 0.542628C22.4889 0.372297 22.2378 0.26771 21.9728 0.24257C21.7079 0.217429 21.4415 0.272907 21.2086 0.401737C20.983 0.250975 20.7155 0.175539 20.4444 0.186248C20.1732 0.196956 19.9125 0.29326 19.6995 0.461345C19.4823 0.384352 19.2491 0.364472 19.022 0.403615C18.795 0.442759 18.5818 0.539614 18.403 0.684876C18.1208 0.621105 17.8254 0.650999 17.5617 0.770037C17.2979 0.889074 17.0802 1.09078 16.9413 1.34462H16.4807C15.454 2.05847 14.7176 3.11696 14.4052 4.32772C14.1083 3.09112 13.3703 2.00537 12.3298 1.27418H11.8692C11.72 1.03317 11.4978 0.846054 11.2348 0.740066C10.9719 0.634077 10.6821 0.614743 10.4074 0.684876C10.2261 0.535351 10.0086 0.43602 9.77685 0.396796C9.54508 0.357573 9.30707 0.379829 9.08658 0.461345C8.80267 0.312845 8.49586 0.213017 8.17892 0.166016H8.17757ZM11.9629 7.61556C10.1517 5.87386 8.05848 4.45175 5.77234 3.40948C8.23224 4.18906 10.5307 5.40797 12.5563 7.00729C14.8309 5.93435 13.2635 3.22356 12.1553 2.15062C12.143 2.33792 12.0777 2.51787 11.967 2.66948C11.6066 2.24542 11.2124 1.85126 10.7884 1.49087C10.829 1.6012 10.8349 1.72129 10.8053 1.83508C10.7758 1.94887 10.7122 2.05092 10.6231 2.12759C10.3439 1.75954 9.99034 1.45442 9.58539 1.23212C9.62537 1.2795 9.65534 1.33449 9.6735 1.39377C9.69166 1.45304 9.69763 1.51539 9.69104 1.57703C9.68446 1.63868 9.66547 1.69836 9.6352 1.75246C9.60494 1.80657 9.56403 1.85399 9.51495 1.89186C9.14509 1.52644 8.7037 1.24141 8.21848 1.05465C8.24625 1.09324 8.27791 1.13139 8.30951 1.16947C8.45205 1.34122 8.59334 1.51147 8.37156 1.7144C7.9079 1.40155 7.3803 1.19606 6.82718 1.1129C6.88034 1.17994 6.94983 1.24314 7.01692 1.30415C7.18574 1.4577 7.33937 1.59741 7.1794 1.74962C6.70438 1.56953 6.20958 1.44673 5.70547 1.38384C5.97641 1.59654 6.1891 1.80787 5.97641 1.97315C5.4192 1.74941 4.81004 1.68788 4.21934 1.79568L4.60814 2.26712C4.07823 2.30524 3.54626 2.30524 3.01635 2.26712C3.30283 2.61322 3.51538 3.01433 3.64087 3.44573C3.41213 3.49774 3.17464 3.49774 2.9459 3.44573C3.22331 3.87653 3.55173 4.27226 3.92401 4.62434C3.80974 4.68518 3.68227 4.717 3.55282 4.717C3.42336 4.717 3.29589 4.68518 3.18162 4.62434C3.47393 5.07206 3.83618 5.46999 4.25456 5.80295C4.05278 5.90133 3.82198 5.92253 3.60565 5.86255C3.97464 6.25486 4.39476 6.5957 4.8547 6.87589C4.64958 6.97401 4.42046 7.01071 4.19495 6.98155C4.66385 7.37818 5.18827 7.70405 5.75153 7.94882C5.56031 8.07495 5.32892 8.12519 5.10262 8.08972C5.6026 8.40497 6.1529 8.63224 6.72964 8.76166C6.67806 8.84456 6.60707 8.91366 6.52281 8.96299C6.43855 9.01232 6.34354 9.0404 6.246 9.04479C6.8363 9.21717 7.43919 9.34309 8.04914 9.42141C8.00398 9.51276 7.94107 9.59419 7.86407 9.66095C7.78708 9.72771 7.69755 9.77845 7.60072 9.81021C8.62625 9.86711 11.4441 9.76144 11.9629 7.61556ZM23.1611 3.38341C20.8526 4.42799 18.7395 5.8593 16.9131 7.61556C17.455 9.76144 20.2498 9.86711 21.2753 9.81021C21.0953 9.7327 20.9518 9.58921 20.8743 9.40921C21.4842 9.3309 22.0871 9.20498 22.6774 9.0326C22.582 9.02629 22.4894 8.99731 22.4074 8.94806C22.3255 8.89882 22.2564 8.83074 22.206 8.74946C22.7827 8.62004 23.333 8.39278 23.833 8.07752C23.6032 8.11581 23.3674 8.06545 23.1732 7.93663C23.7365 7.69186 24.2609 7.36599 24.7298 6.96936C24.5043 6.99852 24.2752 6.96182 24.0701 6.86369C24.53 6.5835 24.9501 6.24267 25.3191 5.85036C25.1028 5.91034 24.872 5.88914 24.6702 5.79075C25.0886 5.45779 25.4508 5.05987 25.7432 4.61215C25.6289 4.67299 25.5014 4.70481 25.372 4.70481C25.2425 4.70481 25.115 4.67299 25.0008 4.61215C25.373 4.26007 25.7015 3.86434 25.9789 3.43354C25.7501 3.48554 25.5126 3.48554 25.2839 3.43354C25.4094 3.00214 25.6219 2.60102 25.9084 2.25493C25.3785 2.29305 24.8465 2.29305 24.3166 2.25493L24.7176 1.84174C24.1269 1.73394 23.5178 1.79546 22.9606 2.01921C22.7479 1.85393 22.9606 1.6426 23.2315 1.42991C22.7274 1.4928 22.2326 1.61559 21.7576 1.79568C21.5528 1.59093 21.7179 1.44033 21.8973 1.27665C21.9553 1.22374 22.0147 1.16946 22.0637 1.11154C21.5106 1.1947 20.983 1.40019 20.5193 1.71304C20.2976 1.51011 20.4389 1.33986 20.5814 1.16811C20.613 1.13004 20.6447 1.09189 20.6724 1.05329C20.1872 1.24005 19.7458 1.52509 19.376 1.89051C19.326 1.85355 19.284 1.80682 19.2526 1.75316C19.2212 1.6995 19.2011 1.64002 19.1933 1.57834C19.1856 1.51665 19.1905 1.45404 19.2077 1.39429C19.2249 1.33455 19.254 1.27891 19.2933 1.23076C18.8884 1.45307 18.5348 1.75818 18.2556 2.12623C18.1665 2.04957 18.1029 1.94751 18.0734 1.83373C18.0438 1.71994 18.0498 1.59985 18.0903 1.48951C17.6663 1.84991 17.2721 2.24406 16.9117 2.66812C16.801 2.51651 16.7357 2.33657 16.7234 2.14926C15.6153 3.2222 14.0478 5.933 16.3224 7.00594C18.3514 5.39702 20.6563 4.17088 23.1245 3.38748L23.1611 3.38341ZM17.2197 27.9096C17.9532 27.2246 18.3855 26.2771 18.4223 25.2743C18.3762 24.2694 17.9332 23.3238 17.1904 22.6453C16.4477 21.9668 15.466 21.611 14.4611 21.6558C13.458 21.624 12.4832 21.9906 11.7498 22.6756C11.0164 23.3605 10.584 24.308 10.5473 25.3108C10.5933 26.3158 11.0363 27.2613 11.7791 27.9398C12.5218 28.6183 13.5035 28.9742 14.5085 28.9293C15.5115 28.9611 16.4863 28.5945 17.2197 27.9096ZM13.6379 17.4711C13.5144 16.4583 12.9968 15.535 12.1973 14.9012C11.2932 14.4192 10.2361 14.3109 9.2531 14.5997C8.27006 14.8884 7.43946 15.5512 6.93964 16.4455C6.31583 17.2529 6.03528 18.2736 6.15877 19.2864C6.28226 20.2991 6.79985 21.2225 7.59939 21.8563C8.5035 22.3383 9.56057 22.4465 10.5436 22.1578C11.5266 21.869 12.3572 21.2063 12.8571 20.3119C13.4809 19.5045 13.7614 18.4839 13.6379 17.4711ZM15.1663 17.2706C15.2898 16.2578 15.8074 15.3345 16.6069 14.7007C17.511 14.2187 18.5681 14.1104 19.5511 14.3992C20.5342 14.6879 21.3648 15.3507 21.8646 16.245C22.4884 17.0524 22.769 18.0731 22.6455 19.0859C22.522 20.0986 22.0044 21.022 21.2049 21.6558C20.3007 22.1378 19.2437 22.246 18.2606 21.9573C17.2776 21.6685 16.447 21.0058 15.9472 20.1114C15.3234 19.3041 15.0428 18.2834 15.1663 17.2706ZM3.20467 23.3289C4.63119 23.9656 5.8098 16.1976 4.04189 16.6691C3.47649 16.9921 2.994 17.4422 2.63258 17.9838C2.27116 18.5255 2.04072 19.1438 1.95951 19.7898C1.87829 20.4359 1.94851 21.092 2.16462 21.7062C2.38074 22.3205 2.73681 22.876 3.20467 23.3289ZM25.2487 23.211C23.8222 23.8477 22.6436 16.0798 24.4115 16.5512C24.9769 16.8742 25.4594 17.3243 25.8208 17.866C26.1822 18.4076 26.4126 19.0259 26.4939 19.672C26.5751 20.318 26.5049 20.9741 26.2887 21.5884C26.0726 22.2026 25.7166 22.7581 25.2487 23.211ZM18.4236 10.776C21.465 10.2572 23.9996 12.0725 23.894 15.374C23.7991 16.6704 17.3398 10.9535 18.4236 10.776ZM10.0027 10.6812C6.96131 10.1623 4.42663 11.9777 4.5323 15.2791C4.62713 16.539 11.1217 10.8709 10.0027 10.6812ZM14.3396 9.91599C14.3525 9.91586 14.3655 9.91579 14.3784 9.91579H14.3053C14.3167 9.91579 14.3281 9.91586 14.3396 9.91599ZM14.3396 9.91599C12.5388 9.93492 10.8561 11.2655 10.8561 12.0725C10.8561 12.8853 12.2949 14.0639 14.3784 14.0883C16.462 14.1127 17.9007 13.2863 17.9007 12.273C17.9007 11.2669 15.9375 9.93493 14.3396 9.91599ZM18.2082 31.3339C18.1974 30.5672 16.0759 29.9901 14.4963 30.0605L14.4949 30.0117C12.8909 29.9657 10.5337 30.6363 10.5337 31.4965C10.5093 32.0885 12.4886 33.6194 14.3879 33.6912C16.2872 33.763 18.2191 32.1007 18.2082 31.3339ZM9.34291 29.9521C10.2736 29.2571 9.82655 26.8634 8.64794 25.5086L8.65878 25.4734C7.36231 23.9751 5.67568 23.0796 4.59191 23.7394C3.86307 24.33 3.73166 26.2036 4.75718 28.0663C6.28937 30.2705 8.41222 30.6471 9.34291 29.9521ZM19.1064 29.944C18.2231 29.1068 18.9411 26.5016 20.1197 25.0751L20.1211 25.0738C21.5137 23.4955 23.0093 22.47 24.0471 23.272C24.5039 24.011 24.7359 24.8669 24.715 25.7355C24.6941 26.604 24.4211 27.4477 23.9292 28.1639C22.2426 30.5103 19.9558 30.5943 19.1064 29.944Z" fill="#4B5563"/>
<path d="M37.2994 12.9482C37.5706 12.9961 37.8383 13.0588 38.1027 13.1363C38.7822 13.3361 39.3887 13.7295 39.8483 14.2684C40.3078 14.8073 40.6005 15.4683 40.6906 16.1708C40.9139 17.4243 40.4627 18.7051 39.5009 19.5438L39.4018 19.6327C39.7588 19.9187 40.0469 20.2812 40.245 20.6936C40.4599 21.143 40.5749 21.6336 40.5823 22.1316C40.5823 22.4553 40.6021 22.7857 40.6416 23.123C40.6564 23.1937 40.6985 23.2541 40.7601 23.2917C40.943 23.3801 41.0944 23.5227 41.1937 23.7C41.2929 23.8773 41.3353 24.0809 41.315 24.2831C41.2749 24.5158 41.1529 24.7266 40.9712 24.8774C40.7894 25.0282 40.5598 25.1092 40.3236 25.1058C40.0226 25.1153 39.726 25.0305 39.4754 24.8635C39.2248 24.6964 39.0325 24.4552 38.9255 24.1737C38.7457 23.7285 38.645 23.2553 38.628 22.7755C38.628 22.4792 38.628 22.1806 38.5779 21.8935C38.5263 21.6277 38.4083 21.3793 38.235 21.1713C38.0617 20.9634 37.8386 20.8025 37.5865 20.7038C37.2515 20.5248 36.8757 20.436 36.496 20.4463H34.7901V24.2341C34.7909 24.4839 34.6973 24.7249 34.5281 24.9087C34.3588 25.0925 34.1264 25.2056 33.8774 25.2254C33.6509 25.2321 33.4291 25.1609 33.2487 25.0239C33.0683 24.8868 32.9403 24.6921 32.886 24.4722V13.7231C32.9999 13.3471 33.2848 13.0542 33.6609 12.9482H37.3894H37.2994ZM34.7616 16.7372V18.3826C34.7616 18.5422 34.7616 18.5912 34.9599 18.5912H36.8743C37.0345 18.5925 37.1943 18.5757 37.3506 18.541C38.2668 18.3473 38.8856 17.4881 38.7785 16.5582C38.6645 15.6284 37.8714 14.9287 36.9324 14.9321H34.9497C34.7901 14.9321 34.7708 14.9914 34.7708 15.1202L34.7594 16.7463L34.7616 16.7372ZM72.9766 12.9482C73.1506 12.985 73.3114 13.0679 73.4423 13.1882C73.5733 13.3085 73.6694 13.4617 73.7207 13.632C73.7572 13.7801 73.7732 13.9351 73.7709 14.0878V17.2306C75.6511 15.9566 78.215 16.3942 79.5517 18.2219C80.1355 19.0037 80.4509 19.9532 80.4509 20.9289C80.4509 21.9046 80.1355 22.8541 79.5517 23.6358C79.1244 24.2192 78.5603 24.6842 77.9062 24.9941C77.2407 25.3018 76.5047 25.425 75.7753 25.3508C75.067 25.2676 74.3879 25.0198 73.7925 24.6272C73.7462 24.8117 73.6478 24.9791 73.509 25.1092C73.3702 25.2393 73.1968 25.3268 73.0097 25.3611C72.8763 25.379 72.7407 25.3695 72.611 25.3333C72.4814 25.2971 72.3605 25.2349 72.2557 25.1505C72.1509 25.066 72.0644 24.9612 72.0014 24.8422C71.9385 24.7232 71.9004 24.5927 71.8895 24.4585V14.1459C71.8212 13.6103 72.1516 13.1032 72.6724 12.9562H73.0393L72.9766 12.9482ZM78.5398 20.8793C78.5398 20.6708 78.4805 20.4531 78.4304 20.2446C78.2775 19.6384 77.8923 19.1167 77.358 18.792C76.8238 18.4673 76.1833 18.3657 75.5748 18.5091C74.8341 18.7336 74.2335 19.284 73.9452 19.9905C73.6569 20.697 73.7139 21.522 74.0968 22.1955C74.3292 22.6256 74.6901 22.9724 75.1291 23.1875C75.5681 23.4026 76.0633 23.4753 76.5456 23.3954C77.7421 23.1538 78.5876 22.0849 78.5489 20.8656L78.5398 20.8793ZM61.7227 28.7055C61.5478 28.6007 61.382 28.4814 61.227 28.3489C61.1505 28.2648 61.0918 28.1662 61.0544 28.0589C61.017 27.9516 61.0017 27.8378 61.0094 27.7244C61.0094 24.3059 61.0094 20.8949 61.0094 17.4915C61.0023 17.2663 61.0721 17.0454 61.2074 16.8652C61.3426 16.685 61.5353 16.5562 61.7535 16.5001C61.9896 16.4474 62.2368 16.4829 62.4486 16.5998C62.6603 16.7167 62.822 16.907 62.9033 17.1348V17.185C64.077 16.4044 65.5583 16.2506 66.8688 16.7691C67.7277 17.1063 68.4523 17.7159 68.9313 18.5045C69.9945 20.1683 69.8452 22.3288 68.5644 23.8295C67.8972 24.6298 66.9511 25.147 65.9173 25.2767C64.8761 25.4311 63.8148 25.1905 62.942 24.6021V24.83C62.942 25.769 62.942 26.711 62.942 27.6561C62.9508 27.8774 62.8852 28.0952 62.7557 28.2749C62.6262 28.4546 62.4402 28.5857 62.2275 28.6474H61.7216L61.7227 28.7055ZM67.671 20.9511C67.6661 20.4533 67.5255 19.9664 67.2642 19.5427C67.0904 19.2569 66.8564 19.0125 66.5786 18.8264C66.3007 18.6403 65.9856 18.517 65.6553 18.4651C65.3249 18.4131 64.9872 18.4338 64.6656 18.5256C64.344 18.6175 64.0463 18.7782 63.7932 18.9968C63.2866 19.4743 62.9849 20.1296 62.9515 20.825C62.9182 21.5203 63.1558 22.2015 63.6143 22.7253C63.8966 23.035 64.2588 23.2608 64.661 23.378C65.0633 23.4952 65.4901 23.4992 65.8945 23.3897C66.421 23.2401 66.8833 22.9209 67.2097 22.4816C67.5361 22.0423 67.7083 21.5074 67.6995 20.9602L67.671 20.9511ZM120.286 12.9482C120.557 12.9961 120.825 13.0588 121.09 13.1363C121.802 13.3456 122.436 13.7652 122.906 14.3401C123.377 14.915 123.663 15.6186 123.728 16.3588C123.834 17.314 123.571 18.2737 122.992 19.0409C122.413 19.808 121.562 20.3244 120.614 20.4839C120.385 20.5241 120.153 20.5473 119.92 20.5534H117.748V24.4107C117.737 24.6289 117.654 24.8373 117.512 25.0034C117.37 25.1695 117.177 25.2841 116.964 25.3293C116.75 25.3745 116.527 25.3479 116.33 25.2535C116.133 25.159 115.973 25.0022 115.874 24.8072C115.822 24.6851 115.795 24.5538 115.794 24.4209C115.794 20.9241 115.794 17.4273 115.794 13.9305C115.801 13.7211 115.873 13.519 116.002 13.3534C116.13 13.1878 116.307 13.0671 116.509 13.0086H120.296L120.286 12.9482ZM117.747 16.7258V18.4214C117.747 18.5205 117.747 18.59 117.876 18.5809H120.196C120.639 18.5356 121.049 18.3245 121.343 17.9897C121.638 17.655 121.794 17.2214 121.782 16.7759C121.777 16.2887 121.579 15.8235 121.231 15.4817C120.884 15.14 120.416 14.9494 119.928 14.9515H117.946C117.797 14.9515 117.777 15.0017 117.777 15.1304L117.747 16.7258ZM127 24.4745C127 24.5543 127 24.6226 126.941 24.7024C126.851 24.8934 126.702 25.0508 126.517 25.1515C126.331 25.2522 126.118 25.291 125.909 25.2622C125.7 25.2335 125.505 25.1387 125.354 24.9917C125.202 24.8447 125.102 24.6531 125.066 24.4449C125.066 22.1309 125.066 19.8139 125.066 17.4938C125.118 17.2877 125.234 17.1034 125.398 16.9683C125.562 16.8331 125.765 16.7542 125.977 16.7431C126.189 16.732 126.399 16.7893 126.576 16.9066C126.753 17.0239 126.888 17.195 126.96 17.3947C126.958 17.414 126.958 17.4345 126.96 17.4539V24.4642L127 24.4745ZM127 14.3305C126.972 14.4581 126.935 14.5846 126.891 14.7065C126.797 14.9023 126.641 15.0617 126.447 15.1603C126.254 15.2589 126.033 15.2913 125.82 15.2524C125.614 15.1997 125.431 15.0827 125.297 14.9184C125.163 14.7542 125.086 14.5513 125.076 14.3396C125.053 14.1254 125.053 13.9089 125.076 13.6946C125.12 13.5126 125.216 13.3471 125.351 13.2172C125.486 13.0873 125.655 12.9984 125.839 12.9608H126.206C126.357 12.9965 126.498 13.0671 126.616 13.1671C126.735 13.267 126.829 13.3935 126.89 13.5362C126.89 13.6456 126.949 13.7641 126.989 13.8838V14.3305H127ZM110.677 25.0158C110.293 25.1373 109.902 25.2366 109.506 25.3132C108.967 25.39 108.418 25.3404 107.902 25.1683C107.385 24.9962 106.916 24.7064 106.531 24.3218C106.144 23.9661 105.837 23.5316 105.632 23.0474C105.427 22.5633 105.328 22.0408 105.341 21.5152C105.341 20.1477 105.341 18.7826 105.341 17.4197C105.348 17.2144 105.419 17.0164 105.543 16.8528C105.667 16.6893 105.839 16.5685 106.035 16.507C106.235 16.4485 106.449 16.461 106.64 16.5425C106.832 16.6239 106.989 16.7692 107.086 16.9537C107.166 17.1382 107.206 17.3373 107.204 17.5382V21.6132C107.179 22.4108 107.685 23.1253 108.444 23.368C108.818 23.4765 109.216 23.465 109.582 23.3352C109.949 23.2053 110.265 22.9637 110.487 22.6444C110.688 22.3529 110.796 22.0071 110.795 21.653C110.795 20.2583 110.795 18.8635 110.795 17.4687C110.784 17.2613 110.842 17.056 110.96 16.8853C111.079 16.7147 111.251 16.5884 111.449 16.5263C111.654 16.4734 111.87 16.4872 112.066 16.5657C112.262 16.6442 112.428 16.7833 112.54 16.9628C112.617 17.1131 112.657 17.2794 112.658 17.4482V24.2204C112.65 24.9294 112.462 25.6247 112.113 26.2417C111.763 26.8587 111.264 27.3774 110.66 27.7494C110.057 28.1215 109.369 28.3349 108.661 28.3697C107.952 28.4046 107.247 28.2599 106.61 27.9489C106.415 27.869 106.254 27.7242 106.154 27.5392C106.054 27.3541 106.021 27.1401 106.061 26.9335C106.1 26.7269 106.21 26.5404 106.372 26.4057C106.533 26.2709 106.737 26.1961 106.947 26.194C107.112 26.1929 107.275 26.2304 107.423 26.3034C108.59 26.855 109.983 26.3581 110.536 25.1924L110.677 25.0158ZM48.6832 17.2625C48.7614 17.117 48.8509 16.9779 48.951 16.8465C49.0658 16.7015 49.223 16.5958 49.4007 16.5443C49.5784 16.4928 49.7678 16.4981 49.9423 16.5594C50.1231 16.6264 50.2803 16.7447 50.3949 16.8997C50.5094 17.0548 50.5763 17.2398 50.5873 17.4323V17.5211C50.5873 19.8002 50.5873 22.0876 50.5873 24.3833C50.6036 24.6226 50.5273 24.859 50.3741 25.0435C50.221 25.228 50.0027 25.3466 49.7646 25.3747C49.5783 25.3982 49.3892 25.3644 49.2227 25.2776C49.0561 25.1909 48.92 25.0554 48.8325 24.8893C48.8325 24.8095 48.7527 24.7298 48.7139 24.6318C48.187 25.0036 47.5802 25.2467 46.9423 25.3416C46.3043 25.4364 45.6531 25.3804 45.0407 25.1779C44.4284 24.9754 43.872 24.6322 43.4164 24.1758C42.9607 23.7194 42.6184 23.1625 42.4169 22.5499C42.1261 21.8296 42.027 21.0462 42.1295 20.2763C42.2319 19.5063 42.5324 18.7761 43.0015 18.157C43.4235 17.5597 44.0025 17.0908 44.6743 16.802C45.3462 16.5132 46.0849 16.4158 46.8087 16.5206C47.4128 16.5956 47.9905 16.8132 48.494 17.1554L48.6832 17.2625ZM43.9918 21.13C44.0152 21.3604 44.0548 21.5889 44.1103 21.8137C44.2118 22.2084 44.4216 22.5669 44.7159 22.8488C45.0103 23.1306 45.3775 23.3247 45.7763 23.4091C46.1642 23.508 46.5716 23.5003 46.9555 23.3868C47.3395 23.2732 47.6856 23.0581 47.9573 22.7641C48.396 22.2633 48.6378 21.6202 48.6378 20.9545C48.6378 20.2888 48.396 19.6457 47.9573 19.145C47.2132 18.3188 45.978 18.1627 45.0515 18.778C44.3142 19.325 43.912 20.2138 43.9918 21.1277V21.13ZM84.0733 21.5858C84.1335 21.9209 84.2681 22.2382 84.467 22.5145C84.666 22.7908 84.9244 23.019 85.2231 23.1823C85.6304 23.4176 86.0892 23.5497 86.5594 23.567C87.0295 23.5843 87.4968 23.4862 87.9203 23.2814C88.0526 23.2185 88.176 23.1385 88.2873 23.0433C88.4061 22.9336 88.5522 22.8579 88.7104 22.8242C88.8686 22.7906 89.0329 22.8001 89.1861 22.8519C89.3393 22.9036 89.4757 22.9957 89.581 23.1184C89.6863 23.2411 89.7566 23.3899 89.7846 23.5492C89.8091 23.6711 89.7998 23.7974 89.7578 23.9145C89.7159 24.0315 89.6428 24.1349 89.5464 24.2136C88.9586 24.7634 88.2328 25.1438 87.4462 25.3143C86.6595 25.4847 85.8414 25.4389 85.0787 25.1817C84.316 24.9245 83.6372 24.4654 83.1145 23.8533C82.5918 23.2413 82.2446 22.499 82.1099 21.7055C81.9244 20.6826 82.1024 19.6271 82.6131 18.7217C83.1238 17.8162 83.935 17.1178 84.9063 16.7474C85.4959 16.5223 86.1284 16.4321 86.7574 16.4834C87.3864 16.5347 87.996 16.7261 88.5414 17.0437C89.6467 17.6864 90.4045 18.794 90.5982 20.0589C90.6324 20.2224 90.6556 20.388 90.6677 20.5545C90.7042 20.828 90.6107 21.1015 90.417 21.2952C90.2233 21.489 89.9612 21.5824 89.6763 21.5459H84.0744L84.0733 21.5858ZM89.0302 20.0703C88.8314 19.4974 88.4549 19.003 87.9557 18.6589C87.4564 18.3148 86.8604 18.139 86.2543 18.157C85.1695 18.2003 84.2488 18.9638 84.0038 20.0213H88.9607L89.0302 20.0703ZM55.9818 16.499C56.7214 16.5056 57.445 16.7149 58.074 17.1041L58.6494 17.471C58.8491 17.6247 58.9827 17.8487 59.0231 18.0974C59.0635 18.3461 59.0077 18.6009 58.8671 18.8099C58.7144 19.0017 58.496 19.13 58.2542 19.1702C58.0124 19.2104 57.7643 19.1596 57.5578 19.0276C57.192 18.7581 56.7827 18.5534 56.3476 18.4225C55.8348 18.2915 55.2913 18.3929 54.8605 18.7005C54.8053 18.7407 54.7552 18.7874 54.7112 18.8396C54.6666 18.8738 54.6318 18.9193 54.6104 18.9713C54.589 19.0233 54.5817 19.0801 54.5893 19.1358C54.6041 19.2498 54.6759 19.3467 54.7808 19.3934C55.121 19.6001 55.4985 19.7383 55.8918 19.8002C56.6662 19.9258 57.4159 20.1735 58.1127 20.534C58.4503 20.7063 58.7412 20.9578 58.9605 21.267C59.1798 21.5761 59.3209 21.9338 59.3719 22.3094C59.4222 22.6704 59.3865 23.0382 59.2677 23.3827C59.1488 23.7273 58.9503 24.0389 58.6882 24.2922C58.1542 24.8316 57.4573 25.18 56.7054 25.2836C55.9975 25.3948 55.2737 25.3456 54.5873 25.1397C53.901 24.9338 53.2696 24.5764 52.7399 24.0939C52.5823 23.9338 52.4838 23.725 52.4604 23.5017C52.437 23.2783 52.4901 23.0536 52.6111 22.8644C52.6766 22.7591 52.7627 22.6681 52.8641 22.5968C52.9656 22.5255 53.0803 22.4754 53.2016 22.4495C53.3228 22.4235 53.4481 22.4223 53.5698 22.4458C53.6915 22.4693 53.8073 22.5171 53.9102 22.5863C53.9902 22.633 54.0664 22.686 54.1381 22.7447C54.6359 23.1602 55.2475 23.4159 55.8929 23.4786C56.3421 23.5105 56.7906 23.4073 57.1806 23.1823C57.2551 23.1368 57.322 23.0799 57.3789 23.0136C57.4459 22.9674 57.4989 22.9036 57.5321 22.8292C57.5653 22.7549 57.5775 22.6729 57.5673 22.5921C57.557 22.5113 57.5248 22.4349 57.4741 22.3712C57.4234 22.3074 57.3562 22.2589 57.2797 22.2308C56.798 21.9605 56.2701 21.7823 55.7231 21.7055C55.0443 21.5965 54.394 21.3536 53.8099 20.991C53.2116 20.6104 52.8299 19.9688 52.7786 19.2612C52.7273 18.5535 53.0145 17.8641 53.5535 17.4015C54.1009 16.9027 54.7982 16.5994 55.5363 16.5389L55.9818 16.499ZM94.1763 17.5109C94.6262 17.0633 95.1989 16.7595 95.8218 16.638C96.1477 16.5692 96.4801 16.536 96.8131 16.5389C97.0429 16.5535 97.2579 16.6568 97.4131 16.8268C97.5682 16.9968 97.6514 17.2204 97.645 17.4505C97.6458 17.6803 97.5609 17.9021 97.4068 18.0726C97.2528 18.2431 97.0407 18.35 96.812 18.3724C96.4484 18.3749 96.091 18.4666 95.7712 18.6395C95.4513 18.8123 95.1787 19.061 94.9774 19.3637C94.6549 19.782 94.4076 20.2469 94.2139 20.7312C94.1299 20.9462 94.0863 21.1749 94.0851 21.4058V24.4301C94.0487 24.6377 93.947 24.8283 93.7948 24.9742C93.6426 25.1201 93.4479 25.2137 93.2389 25.2414C93.03 25.2691 92.8176 25.2294 92.6327 25.1282C92.4477 25.027 92.2999 24.8694 92.2106 24.6785C92.1986 24.5831 92.1986 24.4867 92.2106 24.3913C92.2106 22.091 92.2106 19.774 92.2106 17.4402C92.1973 17.2267 92.2595 17.0153 92.3864 16.843C92.5133 16.6707 92.6967 16.5485 92.9046 16.4979C93.1042 16.4474 93.3146 16.4603 93.5066 16.5348C93.6985 16.6093 93.8625 16.7418 93.9757 16.9138C94.0613 17.0983 94.1278 17.2911 94.174 17.4892L94.1763 17.5109ZM101.048 17.5291C101.549 17.0072 102.208 16.6597 102.922 16.5377C103.25 16.4841 103.585 16.4841 103.914 16.5377C104.115 16.5876 104.292 16.7083 104.412 16.8777C104.532 17.0471 104.587 17.254 104.568 17.4607C104.552 17.6923 104.452 17.91 104.285 18.0714C104.118 18.2327 103.897 18.3262 103.665 18.3336C102.949 18.3541 102.29 18.7256 101.899 19.325C101.547 19.7742 101.275 20.2807 101.095 20.8223C101.05 20.9563 101.027 21.0968 101.027 21.2383V24.315C101.042 24.564 100.963 24.8095 100.805 25.0025C100.647 25.1956 100.422 25.322 100.175 25.3565C100.051 25.3743 99.9255 25.367 99.805 25.3349C99.6845 25.3028 99.5718 25.2466 99.4736 25.1697C99.3754 25.0928 99.2938 24.9968 99.2337 24.8875C99.1737 24.7782 99.1364 24.6579 99.1241 24.5338C99.1241 22.1278 99.1241 19.725 99.1241 17.3251C99.1309 16.9924 99.3452 16.6984 99.6597 16.5913C99.8139 16.5238 99.9828 16.4967 100.15 16.5125C100.318 16.5283 100.479 16.5866 100.618 16.6818C100.757 16.777 100.869 16.906 100.944 17.0566C101.019 17.2073 101.055 17.3746 101.048 17.5428V17.5291Z" fill="#4B5563"/>
</svg>
