<svg width="152" height="24" viewBox="0 0 152 24" fill="none" xmlns="http://www.w3.org/2000/svg">
<path d="M23.9961 3.88612C22.7993 -0.726996 9.73004 -1.40107 1.42727 2.79988C1.15598 2.93657 0.763643 3.22143 0.693731 3.5783C0.693731 3.5783 0.582079 4.28785 0.576864 4.32124C0.538254 4.57584 0.799117 4.52367 0.901375 4.46106C1.99283 3.80264 3.20532 3.20787 4.31556 2.87396C9.57666 1.28687 16.2454 1.23261 17.4172 4.67288C18.2321 7.06969 14.8743 9.03765 13.0002 9.93293C12.2792 10.2783 12.0277 10.5966 11.9839 10.9482C11.9463 11.2592 12.0528 11.7162 12.4712 12.3339C15.1393 16.2771 22.9788 21.965 30.6795 23.9517C30.9842 24.031 31.1511 23.9914 31.2836 23.9225C31.3515 23.885 31.4328 23.8276 31.3035 23.7597C26.1697 21.0864 21.2727 16.5662 18.8571 13.0727C18.3083 12.2797 18.134 11.7506 18.1799 11.3239C18.2196 10.9378 18.5733 10.6174 19.2943 10.2794C22.0125 9.00739 24.8236 7.08848 23.9961 3.88612ZM1.63597 18.6635H8.67616V11.6254H1.63597V18.6635ZM145.706 11.0724L140.696 9.42894C138.636 8.74965 138.005 8.45018 138.005 7.66655C138.005 7.04361 138.415 6.47075 140.993 6.47075H148.489C148.856 6.47075 149.127 6.36223 149.308 6.02102L150.203 4.32332L139.023 4.32437C133.952 4.32437 132.054 5.90937 132.054 8.11106C132.054 9.38303 132.78 11.0818 137.534 12.6407L142.543 14.2862C144.603 14.9655 145.234 15.2535 145.234 16.0361C145.234 16.6611 144.827 17.234 142.247 17.234L132.045 17.2329L124.153 4.32332H121.159C118.827 4.32332 117.635 4.96817 116.545 6.74518L108.828 19.3825H114.069L120.442 8.11315C120.597 7.83976 120.723 7.84394 120.854 7.84394L126.167 17.2329H120.391C120.024 17.2329 119.756 17.3425 119.571 17.6827L118.677 19.3814L133.352 19.3825L133.358 19.3835V19.3825H144.218C149.288 19.3825 151.184 17.7964 151.184 15.5947C151.184 14.3207 150.462 12.6323 145.706 11.0724ZM100.421 14.2862C102.482 14.9655 103.111 15.2535 103.111 16.0361C103.111 16.7164 102.703 17.234 100.123 17.234L91.2635 17.2329C90.8951 17.2329 90.628 17.3425 90.4464 17.6827L89.5522 19.3814L102.096 19.3825C107.165 19.3825 109.062 17.7964 109.062 15.5947C109.062 14.3207 108.339 12.6323 103.585 11.0724L98.5739 9.42894C96.5141 8.74965 95.8839 8.45018 95.8839 7.66655C95.8839 7.04361 96.2386 6.47075 98.8713 6.47075H106.367C106.735 6.47075 107.004 6.36223 107.187 6.02102L108.081 4.32332L96.9012 4.32437C91.8301 4.32437 89.9331 5.90937 89.9331 8.11106C89.9331 9.38303 90.6562 11.0818 95.4112 12.6407L100.421 14.2862ZM78.4488 6.47075H86.1077C86.4771 6.47075 86.7463 6.36223 86.93 6.02102L87.8242 4.32332H76.8836C72.0149 4.32332 69.6493 6.08885 69.6493 9.71798V13.8741C69.6493 17.7401 72.0848 19.3804 76.8836 19.3804L86.3801 19.3814C86.7484 19.3814 87.0187 19.2718 87.2002 18.9317L88.0945 17.2329H78.4467C75.9215 17.2329 75.0169 16.3731 75.0169 14.6733V12.625L85.0173 12.6261C85.3867 12.6261 85.6559 12.5155 85.8364 12.1764L86.7317 10.4776L75.0169 10.4797V9.23173C75.0169 7.79594 75.3414 6.47075 78.4488 6.47075ZM34.9566 6.47075H42.6155C42.9839 6.47075 43.2531 6.36223 43.4367 6.02102L44.331 4.32332H33.3904C28.5206 4.32332 26.1519 6.08885 26.1519 9.71798V13.8741C26.1519 17.7401 28.5894 19.3804 33.3935 19.3804L42.8879 19.3814C43.2573 19.3814 43.5244 19.2718 43.707 18.9317L44.6002 17.2329H34.9545C32.4273 17.2329 31.5247 16.3731 31.5247 14.6733V12.625L41.5241 12.6261C41.8914 12.6261 42.1627 12.5155 42.3442 12.1764L43.2395 10.4776L31.5247 10.4797V9.23173C31.5247 7.79594 31.8502 6.47075 34.9566 6.47075ZM49.9458 4.32332C53.1409 4.32332 53.8514 4.81688 55.0713 6.23702L62.9055 15.4215C63.0172 15.5509 63.0808 15.5864 63.2071 15.5864V4.32332H66.2331L66.232 19.3814H62.9911C60.8478 19.3783 59.9598 19.2113 58.6566 17.6795L50.576 8.19662C50.4665 8.06202 50.3955 8.0255 50.2714 8.0255L50.2735 19.3814L47.2474 19.3825V4.32541L49.9458 4.32332Z" fill="#4B5563"/>
</svg>
