<svg width="146" height="24" viewBox="0 0 146 24" fill="none" xmlns="http://www.w3.org/2000/svg">
<g clip-path="url(#clip0_1740_13897)">
<path d="M128.988 15.1698L129.094 15.2735H132.319L132.421 15.1698V0.236434L132.319 0.130859H129.094L128.988 0.236434V15.1698Z" fill="#374151"/>
<path d="M90.4883 15.1698L90.592 15.2735H93.8193L93.9213 15.1698V0.236434L93.8193 0.130859H90.592L90.4883 0.236434V15.1698Z" fill="#374151"/>
<path d="M54.1162 15.1698L54.2218 15.2735H57.4491L57.551 15.1698V0.236434L57.4491 0.130859H54.2218L54.1162 0.236434V15.1698Z" fill="#374151"/>
<path d="M13.1113 15.1698L13.2169 15.2735H16.4442L16.5461 15.1698V0.236434L16.4442 0.130859H13.2169L13.1113 0.236434V15.1698Z" fill="#374151"/>
<path d="M0 15.1698L0.103754 15.2735H3.33106L3.43299 15.1698V0.236434L3.33106 0.130859H0.103754L0 0.236434V15.1698Z" fill="#374151"/>
<path d="M82.3101 15.1698L82.4156 15.2735H85.6411L85.743 15.1698V3.87511L85.6411 3.76953H82.4156L82.3101 3.87511V15.1698Z" fill="#374151"/>
<path d="M89.7381 2.98501L89.8419 2.87944V0.232793L89.7381 0.130859H78.4435L78.3379 0.232793V2.87944L78.4435 2.98501H89.7381Z" fill="#374151"/>
<path d="M65.4725 15.2301L65.5762 15.1227V12.4761L65.4725 12.376H58.2643L58.1587 12.4761V15.1227L58.2643 15.2301H65.4725Z" fill="#374151"/>
<path d="M24.1529 15.2741L24.2567 15.1685V12.5219L24.1529 12.4199H17.2032L17.0977 12.5219V15.1685L17.2032 15.2741H24.1529Z" fill="#374151"/>
<path d="M24.129 2.98501L24.2328 2.87944V0.232793L24.129 0.130859H17.1793L17.0737 0.232793V2.87944L17.1793 2.98501H24.129Z" fill="#374151"/>
<path d="M23.0972 8.88345L23.1991 8.7797V6.13123L23.0972 6.0293H17.154L17.0503 6.13123V8.7797L17.154 8.88345H23.0972Z" fill="#374151"/>
<path d="M113.071 15.2741L113.123 15.2213V6.97196C113.123 6.71895 109.807 1.34375 109.807 1.34375H109.688V15.1722L109.807 15.2759H113.071V15.2741Z" fill="#374151"/>
<path d="M141.61 15.1698L141.715 15.2735H144.943L145.045 15.1698V0.236434L144.943 0.130859H141.715L141.61 0.236434V15.1698Z" fill="#374151"/>
<path d="M32.0767 9.4666V15.2732H33.2252L38.7279 0.179688H35.4605L32.0767 9.4666Z" fill="#374151"/>
<path d="M24.8135 0.149414L30.327 15.2611H31.4319V9.33986L28.079 0.149414H24.8135Z" fill="#374151"/>
<path d="M135.399 0.0859375H133.08L132.971 0.189692V2.77263L133.08 2.88912C133.08 2.88912 135.399 2.86364 135.399 2.94191C136.45 2.94191 137.098 3.52985 137.34 4.70937V4.98423C137.34 6.06546 136.799 6.78264 135.725 7.13395C135.725 7.13395 135.317 7.18673 135.132 7.18673H133.08L132.971 7.30323V9.94077L133.08 10.0463H134.322C136.843 10.0463 140.784 9.42928 140.784 5.09163V4.88048C140.784 0.562843 137.427 0.0859375 135.399 0.0859375Z" fill="#374151"/>
<path d="M74.099 0.0820312V10.1498C74.099 11.2638 73.6876 11.8263 72.661 11.8263C72.2988 11.8427 72.2041 11.8317 72.2041 11.8317V15.2593L72.9267 15.2556C75.3368 15.2556 77.5338 14.1034 77.5338 10.4957V0.305922L77.3354 0.0856718L74.1008 0.0820312H74.099Z" fill="#374151"/>
<path d="M113.092 0.162109H109.938L118.86 15.2738H121.958L113.092 0.162109Z" fill="#374151"/>
<path d="M118.638 0.15625L118.587 0.210857L118.589 8.46387L121.904 14.0903H122.022V0.263645L121.904 0.15625H118.638Z" fill="#374151"/>
<path d="M11.4929 11.5735L11.1106 9.68588C10.5864 8.58099 10.0148 8.0331 9.39594 8.0331V7.97849C9.82005 7.90204 10.1422 7.70545 10.1422 7.70545C11.3654 7.05744 11.9789 5.93071 11.9789 4.32161C11.9789 1.60761 10.0439 0.138672 6.98228 0.138672H4.08263L3.97887 0.246067V2.87997L4.08263 2.98554H5.74997C7.80504 2.98554 8.59503 3.67906 8.59503 4.65107V5.08065C8.59503 6.3348 7.53564 6.95733 5.42051 6.95733H4.0808L3.97705 7.06472V9.63674L4.0808 9.75323H4.23917C4.23917 9.75323 5.9502 9.69135 7.08422 9.9116C7.53382 10.1755 7.82142 10.5359 7.94884 10.9837C8.24554 12.8804 8.48763 13.9853 8.48763 13.9853C8.79525 14.8445 9.01186 15.2741 9.132 15.2741H12.5122V15.0738L11.4965 11.5753L11.4929 11.5735Z" fill="#374151"/>
<path d="M69.6681 0.0820312V10.1498C69.6681 11.2638 70.0813 11.8263 71.1061 11.8263C71.4683 11.8427 71.563 11.8317 71.563 11.8317V15.2593L70.8403 15.2556C68.4321 15.2556 66.2314 14.1034 66.2314 10.4957V0.305922L66.4335 0.0856718L69.6681 0.0820312Z" fill="#374151"/>
<path d="M41.9859 7.75607C41.9859 5.31511 43.5494 3.30738 45.5645 3.03252V0.120117C41.6873 0.369491 38.6147 3.69145 38.6147 7.75607C38.6147 11.8207 41.6855 15.1463 45.5645 15.3902V12.476C43.5494 12.2048 41.9859 10.197 41.9859 7.75607Z" fill="#374151"/>
<path d="M53.4427 7.75607C53.4427 3.68053 50.3556 0.353109 46.4639 0.120117V3.0307C48.4916 3.28553 50.0734 5.30601 50.0734 7.75607C50.0734 10.2061 48.4916 12.2248 46.4639 12.4796V15.392C50.3556 15.159 53.4427 11.8298 53.4427 7.75607Z" fill="#374151"/>
<path d="M97.7746 7.63622C97.7746 5.19526 99.34 3.18752 101.355 2.91631V0.00390625C97.4779 0.24964 94.4053 3.5716 94.4053 7.63804C94.4053 11.7045 97.4779 15.0264 101.355 15.274V12.3598C99.34 12.0885 97.7746 10.079 97.7746 7.63622Z" fill="#374151"/>
<path d="M109.231 7.63595C109.231 3.56223 106.144 0.232992 102.254 0V2.9124C104.28 3.16724 105.862 5.18589 105.862 7.63595C105.862 10.086 104.28 12.1065 102.254 12.3631V15.2719C106.144 15.0389 109.231 11.7097 109.231 7.63595Z" fill="#374151"/>
<path d="M91.8679 20.2793C92.1191 20.2793 92.3303 20.3121 92.5032 20.3776C92.6761 20.4431 92.8145 20.5341 92.92 20.6543C93.0256 20.7726 93.1002 20.9146 93.1457 21.0784C93.1912 21.2422 93.2131 21.4224 93.2131 21.6208V23.8069C93.1585 23.816 93.0838 23.8288 92.9874 23.8433C92.8909 23.8579 92.7817 23.8743 92.6615 23.887C92.5396 23.8998 92.4085 23.9125 92.2684 23.9234C92.1264 23.9344 91.9862 23.9398 91.8479 23.9398C91.6513 23.9398 91.4693 23.9198 91.3036 23.8798C91.138 23.8397 90.9942 23.776 90.8722 23.6886C90.7503 23.6013 90.6575 23.4866 90.5901 23.3428C90.5228 23.199 90.49 23.0261 90.49 22.824C90.49 22.622 90.53 22.4654 90.6083 22.3271C90.6866 22.1887 90.794 22.0759 90.9287 21.9903C91.0634 21.9048 91.2199 21.8429 91.4001 21.8028C91.5785 21.7628 91.7678 21.7428 91.9644 21.7428C92.0281 21.7428 92.0918 21.7464 92.1592 21.7537C92.2265 21.761 92.2902 21.7701 92.3503 21.781C92.4104 21.7919 92.4631 21.8028 92.5086 21.8119C92.5542 21.821 92.5851 21.8283 92.6033 21.832V21.6572C92.6033 21.5535 92.5924 21.4515 92.5705 21.3514C92.5487 21.2513 92.5068 21.1603 92.4486 21.082C92.3903 21.0038 92.3102 20.94 92.2101 20.8927C92.11 20.8454 91.979 20.8217 91.817 20.8217C91.6113 20.8217 91.4311 20.8363 91.2745 20.8654C91.1198 20.8945 91.0033 20.9255 90.9287 20.9564L90.854 20.4377C90.9341 20.4013 91.0688 20.3667 91.2581 20.3339C91.4474 20.2993 91.6513 20.2829 91.8697 20.2829L91.8679 20.2793ZM91.9225 23.4138C92.07 23.4138 92.201 23.4101 92.3157 23.4028C92.4304 23.3956 92.525 23.3846 92.6015 23.3664V22.3234C92.556 22.3016 92.4832 22.2816 92.383 22.267C92.2829 22.2524 92.1592 22.2433 92.0172 22.2433C91.9225 22.2433 91.8224 22.2506 91.7168 22.2634C91.6113 22.2761 91.5148 22.3052 91.4274 22.3471C91.34 22.389 91.2672 22.4472 91.209 22.5218C91.1507 22.5965 91.1216 22.6929 91.1216 22.8149C91.1216 23.0388 91.1926 23.1953 91.3364 23.2827C91.4802 23.3701 91.675 23.4138 91.9225 23.4138Z" fill="#9CA3AF"/>
<path d="M97.0139 18.7919V20.8833H97.0266L98.6212 18.7919H100.256L98.2371 21.1928L100.438 23.8631H98.7286L97.0266 21.6624H97.0139V23.8631H95.696V18.79H97.0139V18.7919Z" fill="#9CA3AF"/>
<path d="M102.007 18.792V21.5096C102.007 22.1631 102.081 22.842 102.902 22.842C103.723 22.842 103.798 22.1831 103.798 21.5169V18.792H105.116V21.7044C105.116 22.2905 105.061 22.68 104.894 23.0168C104.597 23.6084 103.905 23.9997 102.902 23.9997C102.371 23.9997 101.685 23.8851 101.22 23.4355C100.816 23.0386 100.689 22.5617 100.689 21.7062V18.7938H102.007V18.792Z" fill="#9CA3AF"/>
<path d="M107.268 18.792L109.683 21.8937H109.696V18.792H111.014V23.865H109.696L107.28 20.756H107.268V23.865H105.95V18.792H107.268Z" fill="#9CA3AF"/>
<path d="M113.78 18.7919C114.749 18.7919 115.268 19.2233 115.268 20.1097C115.268 20.6212 115.08 20.958 114.709 21.1454V21.1582C115.402 21.2456 115.744 21.7024 115.744 22.4506C115.744 23.3661 115.038 23.8631 113.928 23.8631H111.876V18.79H113.78V18.7919ZM113.194 20.7832H113.336C113.861 20.7832 114.057 20.6212 114.057 20.2917C114.057 19.9623 113.875 19.8003 113.324 19.8003H113.196V20.7832H113.194ZM113.194 22.8547H113.362C113.846 22.8547 114.412 22.8419 114.412 22.3159C114.412 21.7643 113.861 21.7643 113.578 21.7643H113.194V22.8547Z" fill="#9CA3AF"/>
<path d="M117.723 18.792V21.5096C117.723 22.1631 117.798 22.842 118.618 22.842C119.439 22.842 119.514 22.1831 119.514 21.5169V18.792H120.832V21.7044C120.832 22.2905 120.777 22.68 120.61 23.0168C120.313 23.6084 119.621 23.9997 118.618 23.9997C118.087 23.9997 117.401 23.8851 116.937 23.4355C116.532 23.0386 116.405 22.5617 116.405 21.7062V18.7938H117.723V18.792Z" fill="#9CA3AF"/>
<path d="M124.975 19.0739L124.451 20.0969C124.201 19.8876 123.892 19.7602 123.577 19.7602C123.28 19.7602 123.013 19.9349 123.013 20.1843C123.013 20.4136 123.215 20.5611 123.706 20.7031C123.963 20.7777 124.198 20.845 124.4 20.9451C124.884 21.18 125.186 21.5367 125.186 22.1556C125.186 22.7745 124.997 23.2459 124.662 23.5208C124.238 23.863 123.734 23.9977 123.215 23.9977C122.589 23.9977 121.957 23.7829 121.438 23.4189L122.003 22.3558C122.427 22.7254 122.796 22.8801 123.166 22.8801C123.535 22.8801 123.812 22.6853 123.812 22.3686C123.812 21.9918 123.3 21.8771 123.011 21.7897C122.337 21.575 121.638 21.453 121.638 20.3572C121.638 19.3215 122.372 18.6553 123.38 18.6553C123.885 18.6553 124.498 18.81 124.975 19.0721V19.0739Z" fill="#9CA3AF"/>
<path d="M128.85 20.5213C128.927 20.4722 129.041 20.4212 129.196 20.3666C129.351 20.312 129.529 20.2865 129.731 20.2865C129.982 20.2865 130.206 20.332 130.401 20.4212C130.596 20.5104 130.761 20.636 130.896 20.798C131.031 20.96 131.133 21.153 131.202 21.3769C131.271 21.6008 131.306 21.8483 131.306 22.1177C131.306 22.3998 131.264 22.6547 131.182 22.8822C131.1 23.1097 130.982 23.3009 130.829 23.4574C130.676 23.6139 130.492 23.7359 130.277 23.8215C130.062 23.907 129.82 23.9489 129.551 23.9489C129.26 23.9489 129.001 23.9289 128.777 23.8888C128.553 23.8488 128.37 23.8087 128.226 23.7668V18.7539L128.852 18.6465V20.5232L128.85 20.5213ZM128.85 23.3209C128.912 23.3391 129.001 23.3555 129.116 23.3719C129.231 23.3882 129.373 23.3955 129.544 23.3955C129.88 23.3955 130.15 23.2845 130.35 23.0624C130.552 22.8403 130.652 22.5254 130.652 22.1177C130.652 21.9393 130.634 21.77 130.598 21.6135C130.561 21.4569 130.503 21.3204 130.423 21.2058C130.343 21.0911 130.237 21.0019 130.11 20.9364C129.982 20.8708 129.828 20.8381 129.649 20.8381C129.471 20.8381 129.322 20.8672 129.178 20.9254C129.034 20.9837 128.925 21.0438 128.848 21.1075V23.3209H128.85Z" fill="#9CA3AF"/>
<path d="M133.479 20.292C133.533 20.292 133.593 20.2956 133.664 20.3029C133.734 20.3102 133.803 20.3193 133.87 20.3302C133.937 20.3411 133.999 20.3521 134.056 20.363C134.112 20.3739 134.154 20.3848 134.18 20.3939L134.072 20.9382C134.023 20.92 133.941 20.8981 133.826 20.8745C133.712 20.8508 133.564 20.8381 133.386 20.8381C133.269 20.8381 133.155 20.8508 133.04 20.8745C132.925 20.9 132.851 20.9163 132.814 20.9254V23.8651H132.188V20.5141C132.336 20.4595 132.52 20.4103 132.74 20.363C132.96 20.3157 133.206 20.292 133.481 20.292H133.479Z" fill="#9CA3AF"/>
<path d="M135.914 20.2793C136.166 20.2793 136.377 20.3121 136.55 20.3776C136.722 20.4431 136.861 20.5341 136.966 20.6543C137.072 20.7726 137.147 20.9146 137.192 21.0784C137.238 21.2422 137.259 21.4224 137.259 21.6208V23.8069C137.205 23.816 137.13 23.8288 137.034 23.8433C136.937 23.8579 136.828 23.8743 136.708 23.887C136.586 23.8998 136.455 23.9125 136.315 23.9234C136.173 23.9344 136.033 23.9398 135.894 23.9398C135.698 23.9398 135.516 23.9198 135.35 23.8798C135.184 23.8397 135.041 23.776 134.919 23.6886C134.797 23.6013 134.704 23.4866 134.636 23.3428C134.569 23.199 134.536 23.0261 134.536 22.824C134.536 22.622 134.576 22.4654 134.655 22.3271C134.733 22.1887 134.84 22.0759 134.975 21.9903C135.11 21.9048 135.266 21.8429 135.447 21.8028C135.625 21.7628 135.814 21.7428 136.011 21.7428C136.074 21.7428 136.138 21.7464 136.206 21.7537C136.273 21.761 136.337 21.7701 136.397 21.781C136.457 21.7919 136.51 21.8028 136.555 21.8119C136.601 21.821 136.631 21.8283 136.65 21.832V21.6572C136.65 21.5535 136.639 21.4515 136.617 21.3514C136.595 21.2513 136.553 21.1603 136.495 21.082C136.437 21.0038 136.357 20.94 136.257 20.8927C136.156 20.8454 136.025 20.8217 135.863 20.8217C135.658 20.8217 135.477 20.8363 135.321 20.8654C135.166 20.8945 135.05 20.9255 134.975 20.9564L134.9 20.4377C134.981 20.4013 135.115 20.3667 135.305 20.3339C135.494 20.2993 135.698 20.2829 135.916 20.2829L135.914 20.2793ZM135.969 23.4138C136.116 23.4138 136.247 23.4101 136.362 23.4028C136.477 23.3956 136.571 23.3846 136.648 23.3664V22.3234C136.602 22.3016 136.53 22.2816 136.429 22.267C136.329 22.2524 136.206 22.2433 136.064 22.2433C135.969 22.2433 135.869 22.2506 135.763 22.2634C135.658 22.2761 135.561 22.3052 135.474 22.3471C135.386 22.389 135.314 22.4472 135.255 22.5218C135.197 22.5965 135.168 22.6929 135.168 22.8149C135.168 23.0388 135.239 23.1953 135.383 23.2827C135.527 23.3701 135.721 23.4138 135.969 23.4138Z" fill="#9CA3AF"/>
<path d="M138.295 20.4667C138.439 20.4303 138.63 20.3921 138.867 20.3521C139.105 20.312 139.378 20.292 139.688 20.292C139.966 20.292 140.197 20.332 140.381 20.4103C140.565 20.4886 140.712 20.5978 140.822 20.7398C140.931 20.8818 141.009 21.051 141.053 21.2476C141.098 21.4442 141.12 21.6626 141.12 21.9011V23.8651H140.494V22.0358C140.494 21.821 140.479 21.6372 140.45 21.4843C140.421 21.3314 140.372 21.2076 140.305 21.1147C140.237 21.0201 140.148 20.9527 140.035 20.9091C139.922 20.8672 139.784 20.8453 139.618 20.8453C139.551 20.8453 139.482 20.8472 139.409 20.8526C139.338 20.8581 139.269 20.8636 139.203 20.869C139.138 20.8763 139.08 20.8836 139.029 20.8927C138.978 20.9018 138.94 20.9091 138.918 20.9127V23.867H138.292V20.4686L138.295 20.4667Z" fill="#9CA3AF"/>
<path d="M144.419 18.7519L145.045 18.6445V23.7649C144.901 23.8049 144.717 23.845 144.493 23.8869C144.27 23.9269 144.011 23.9469 143.72 23.9469C143.45 23.9469 143.208 23.9051 142.994 23.8195C142.779 23.734 142.595 23.6138 142.442 23.4555C142.289 23.2989 142.171 23.106 142.089 22.8803C142.007 22.6545 141.965 22.3997 141.965 22.1157C141.965 21.8318 142 21.6006 142.069 21.3749C142.138 21.151 142.24 20.9581 142.375 20.7961C142.509 20.6341 142.675 20.5085 142.87 20.4193C143.065 20.3301 143.288 20.2846 143.54 20.2846C143.742 20.2846 143.92 20.3119 144.075 20.3647C144.229 20.4193 144.344 20.4702 144.421 20.5194V18.7501L144.419 18.7519ZM144.419 21.1073C144.342 21.0454 144.233 20.9836 144.089 20.9253C143.946 20.8671 143.789 20.8379 143.618 20.8379C143.438 20.8379 143.285 20.8707 143.157 20.9362C143.03 21.0018 142.926 21.0909 142.844 21.2056C142.764 21.3203 142.706 21.455 142.67 21.6134C142.633 21.7699 142.615 21.9392 142.615 22.1176C142.615 22.5253 142.715 22.8402 142.917 23.0623C143.119 23.2843 143.389 23.3954 143.723 23.3954C143.895 23.3954 144.037 23.3881 144.151 23.3717C144.266 23.3553 144.353 23.339 144.417 23.3208V21.1073H144.419Z" fill="#9CA3AF"/>
</g>
<defs>
<clipPath id="clip0_1740_13897">
<rect width="145.045" height="24" fill="white"/>
</clipPath>
</defs>
</svg>
