<svg width="114" height="19" viewBox="0 0 114 19" fill="none" xmlns="http://www.w3.org/2000/svg">
<g clip-path="url(#clip0_1649_10639)">
<path fill-rule="evenodd" clip-rule="evenodd" d="M111.999 0.941766V4.38697C110.253 3.71322 108.699 3.37242 107.339 3.37242C106.533 3.37242 105.892 3.52512 105.409 3.82012C104.927 4.11743 104.681 4.48368 104.681 4.91588C104.681 5.49049 105.225 6.00158 106.322 6.45935L109.49 8.03567C112.051 9.28414 113.321 10.9419 113.321 13.0243C113.321 14.7559 112.648 16.1365 111.287 17.1587C109.937 18.191 108.12 18.702 105.857 18.702C104.813 18.702 103.875 18.6563 103.042 18.5597C102.209 18.4681 101.252 18.2799 100.19 18.0105V14.405C102.137 15.0788 103.91 15.4196 105.506 15.4196C107.411 15.4196 108.358 14.855 108.358 13.7159C108.358 13.149 107.97 12.6913 107.182 12.3328L103.664 10.7995C102.366 10.1994 101.401 9.47224 100.769 8.61039C100.148 7.74079 99.832 6.74405 99.832 5.6049C99.832 4.01077 100.488 2.72667 101.786 1.75029C103.094 0.781543 104.83 0.295898 106.988 0.295898C107.689 0.295898 108.498 0.359525 109.393 0.476367C110.295 0.601075 111.163 0.753547 111.999 0.941766ZM12.3477 0.941766V4.38697C10.602 3.71322 9.05052 3.37242 7.69033 3.37242C6.88222 3.37242 6.24324 3.52512 5.76084 3.82012C5.27844 4.11743 5.03227 4.48368 5.03227 4.91588C5.03227 5.49049 5.58436 6.00158 6.68084 6.45935L9.84868 8.03567C12.3998 9.28414 13.673 10.9419 13.673 13.0243C13.673 14.7559 12.9967 16.1365 11.6465 17.1587C10.2864 18.191 8.47864 18.702 6.2084 18.702C5.16407 18.702 4.22404 18.6563 3.39116 18.5597C2.55816 18.4681 1.61078 18.2799 0.541565 18.0105V14.405C2.49605 15.0788 4.26896 15.4196 5.85542 15.4196C7.76002 15.4196 8.70751 14.855 8.70751 13.7159C8.70751 13.149 8.32195 12.6913 7.5411 12.3328L4.02267 10.7995C2.71485 10.1994 1.75005 9.47224 1.12839 8.61039C0.496764 7.74079 0.188477 6.74405 0.188477 5.6049C0.188477 4.01077 0.84001 2.72667 2.14534 1.75029C3.44343 0.781543 5.18149 0.295898 7.33984 0.295898C8.04851 0.295898 8.84666 0.359525 9.75184 0.476367C10.6469 0.601075 11.5147 0.753547 12.3477 0.941766ZM21.1377 0.618774V18.3792H15.978V0.618659L21.1377 0.618774ZM37.9169 18.3792H25.1286V0.618659H37.7603V3.90133H30.0941V7.83981H36.7431V10.7994H30.0941V14.9338H37.9167L37.9169 18.3792ZM40.7689 18.3792V0.618659H47.0674L51.3666 11.4911L55.8647 0.618659H61.8474V18.379H57.0307V6.66527L52.033 18.5417H49.0591L44.2527 6.66527V18.3792H40.7689ZM78.6194 18.3792H65.8312V0.618659H78.4627V3.90133H70.8386V7.83981H77.4876V10.7994H70.8386V14.9338H78.6194V18.3792ZM96.5671 18.3792H91.0944L84.9528 6.98814V18.3792H81.4714V0.618659H87.1036L93.0862 11.8139V0.618774H96.5671V18.3792Z" fill="#4B5563"/>
</g>
<defs>
<clipPath id="clip0_1649_10639">
<rect width="113.133" height="18.417" fill="white" transform="translate(0.188477 0.291016)"/>
</clipPath>
</defs>
</svg>
