<svg width="104" height="31" viewBox="0 0 104 31" fill="none" xmlns="http://www.w3.org/2000/svg">
<path d="M45.0641 22.8119V8.29136H49.7728L50.1522 5.71876H37.1302V8.29136H41.9768V22.8119H45.0641ZM59.6557 23.0363C63.5019 23.0363 65.5716 21.3098 65.5716 17.2523V5.71876H62.5015V17.2005C62.5015 19.1515 62.0876 20.5501 59.466 20.5501H58.776C56.1544 20.5501 55.7232 19.1688 55.7232 17.2005V5.71876H52.6531V17.2523C52.6531 21.3098 54.7573 23.0363 58.5863 23.0363H59.6557ZM80.922 22.8119V20.2565H72.9536V5.71876H69.8835V22.8291H80.922V22.8119ZM87.3209 22.8119V5.70149H84.2508V22.8119H87.3209ZM94.9271 22.8119V16.0955H98.3422C102.137 16.0955 103.706 14.8006 103.706 11.6582V10.3633C103.706 6.77197 102.292 5.70149 98.187 5.70149H91.8398V22.8119H94.9271ZM100.602 11.6237C100.602 13.1603 100.222 13.6092 98.0317 13.6092H94.9271V8.23956H98.0317C100.274 8.23956 100.602 8.75753 100.602 10.3978V11.6237ZM25.6605 7.84245V19.117L14.3805 30.4088V19.117L25.6605 7.84245ZM11.5002 19.117V30.4088L0.220215 19.117V7.82518L11.5002 19.117ZM20.9347 8.56761L12.949 16.5444L4.98057 8.56761L12.9662 0.59082L20.9347 8.56761Z" fill="#4B5563"/>
</svg>
