<svg width="91" height="91" viewBox="0 0 91 91" fill="none" xmlns="http://www.w3.org/2000/svg">
<path d="M83.4312 0.00878906H7.58261C3.40227 0.00878906 0.00688014 3.40418 0.00688014 7.58452V68.2451C0.00688014 72.4437 3.40227 75.8391 7.58261 75.8391H28.6121L23.5555 81.8997H9.09775C8.75091 81.8997 8.42233 82.0092 8.1485 82.2283L0.572778 88.2888C0.0616444 88.6904 -0.120903 89.3659 0.0798992 89.9683C0.298956 90.5707 0.864854 90.9905 1.50377 90.9905H89.4735C90.1124 90.9905 90.6965 90.5889 90.8974 89.9683C91.1164 89.3659 90.9156 88.6904 90.4045 88.2888L82.8287 82.2283C82.5549 82.0092 82.2263 81.8997 81.8795 81.8997H67.4217L62.3652 75.8391H83.3946C87.575 75.8391 90.9704 72.4437 90.9704 68.2634V7.58452C90.9704 3.40418 87.575 0.00878906 83.3946 0.00878906H83.4312ZM85.1654 87.9785H5.8484L9.6454 84.9482H81.3866L85.1836 87.9785H85.1654ZM63.4969 81.9179H27.5168L32.5734 75.8573H58.4586L63.5152 81.9179H63.4969ZM87.9766 68.2634C87.9766 70.7643 85.9321 72.8088 83.4312 72.8088H7.58261C5.0817 72.8088 3.03717 70.7643 3.03717 68.2634V7.58452C3.03717 5.08361 5.0817 3.03908 7.58261 3.03908H83.4129C85.9138 3.03908 87.9583 5.08361 87.9583 7.58452V68.2451L87.9766 68.2634Z" fill="#1C1C23"/>
<path d="M83.4311 6.06934H7.58253C6.74281 6.06934 6.06738 6.74476 6.06738 7.58448V62.1845C6.06738 63.0242 6.74281 63.6996 7.58253 63.6996H83.4128C84.2525 63.6996 84.928 63.0242 84.928 62.1845V7.58448C84.928 6.74476 84.2525 6.06934 83.4128 6.06934H83.4311ZM81.9159 60.6693H9.11593V9.11788H81.9159V60.6876V60.6693Z" fill="#1C1C23"/>
<path d="M53.0916 66.748H37.9219V69.7783H53.0916V66.748Z" fill="#1C1C23"/>
<path d="M30.3462 24.2693H77.3705C78.2102 24.2693 78.8856 23.5939 78.8856 22.7542V13.645C78.8856 12.8053 78.2102 12.1299 77.3705 12.1299H30.3462C29.5065 12.1299 28.8311 12.8053 28.8311 13.645V22.7542C28.8311 23.5939 29.5065 24.2693 30.3462 24.2693ZM31.8613 15.1784H75.8371V21.239H31.8613V15.1784Z" fill="#1C1C23"/>
<path d="M30.3462 39.4392H77.3705C78.2102 39.4392 78.8856 38.7638 78.8856 37.9241V28.815C78.8856 27.9752 78.2102 27.2998 77.3705 27.2998H30.3462C29.5065 27.2998 28.8311 27.9752 28.8311 28.815V37.9241C28.8311 38.7638 29.5065 39.4392 30.3462 39.4392ZM31.8613 30.3484H75.8371V36.4089H31.8613V30.3484Z" fill="#1C1C23"/>
<path d="M18.2069 24.2696C18.2069 24.2696 18.2617 24.2696 18.2982 24.2696C18.7363 24.2514 19.1379 24.0323 19.3935 23.7037L25.4541 16.128L23.081 14.2295L18.0791 20.4909L16.2354 18.6471L14.0996 20.783L17.1299 23.8132C17.422 24.1053 17.8053 24.2514 18.2069 24.2514V24.2696Z" fill="#1C1C23"/>
<path d="M18.2069 39.4395C18.2069 39.4395 18.2617 39.4395 18.2982 39.4395C18.7363 39.4213 19.1379 39.2022 19.3935 38.8736L25.4541 31.2979L23.081 29.3994L18.0791 35.6608L16.2354 33.8171L14.0996 35.9529L17.1299 38.9832C17.422 39.2752 17.8053 39.4213 18.2069 39.4213V39.4395Z" fill="#1C1C23"/>
<path d="M30.3462 54.6091H77.3705C78.2102 54.6091 78.8856 53.9337 78.8856 53.094V43.9849C78.8856 43.1452 78.2102 42.4697 77.3705 42.4697H30.3462C29.5065 42.4697 28.8311 43.1452 28.8311 43.9849V53.094C28.8311 53.9337 29.5065 54.6091 30.3462 54.6091ZM31.8613 45.5183H75.8371V51.5789H31.8613V45.5183Z" fill="#1C1C23"/>
<path d="M83.4312 0.00878906H7.58261C3.40227 0.00878906 0.00688014 3.40418 0.00688014 7.58452V68.2451C0.00688014 72.4437 3.40227 75.8391 7.58261 75.8391H28.6121L23.5555 81.8997H9.09775C8.75091 81.8997 8.42233 82.0092 8.1485 82.2283L0.572778 88.2888C0.0616444 88.6904 -0.120903 89.3659 0.0798992 89.9683C0.298956 90.5707 0.864854 90.9905 1.50377 90.9905H89.4735C90.1124 90.9905 90.6965 90.5889 90.8974 89.9683C91.1164 89.3659 90.9156 88.6904 90.4045 88.2888L82.8287 82.2283C82.5549 82.0092 82.2263 81.8997 81.8795 81.8997H67.4217L62.3652 75.8391H83.3946C87.575 75.8391 90.9704 72.4437 90.9704 68.2634V7.58452C90.9704 3.40418 87.575 0.00878906 83.3946 0.00878906H83.4312ZM85.1654 87.9785H5.8484L9.6454 84.9482H81.3866L85.1836 87.9785H85.1654ZM63.4969 81.9179H27.5168L32.5734 75.8573H58.4586L63.5152 81.9179H63.4969ZM87.9766 68.2634C87.9766 70.7643 85.9321 72.8088 83.4312 72.8088H7.58261C5.0817 72.8088 3.03717 70.7643 3.03717 68.2634V7.58452C3.03717 5.08361 5.0817 3.03908 7.58261 3.03908H83.4129C85.9138 3.03908 87.9583 5.08361 87.9583 7.58452V68.2451L87.9766 68.2634Z" fill="#818CF8"/>
<path d="M83.4311 6.06934H7.58253C6.74281 6.06934 6.06738 6.74476 6.06738 7.58448V62.1845C6.06738 63.0242 6.74281 63.6996 7.58253 63.6996H83.4128C84.2525 63.6996 84.928 63.0242 84.928 62.1845V7.58448C84.928 6.74476 84.2525 6.06934 83.4128 6.06934H83.4311ZM81.9159 60.6693H9.11593V9.11788H81.9159V60.6876V60.6693Z" fill="#818CF8"/>
<path d="M53.0916 66.748H37.9219V69.7783H53.0916V66.748Z" fill="#818CF8"/>
<path d="M30.3462 24.2693H77.3705C78.2102 24.2693 78.8856 23.5939 78.8856 22.7542V13.645C78.8856 12.8053 78.2102 12.1299 77.3705 12.1299H30.3462C29.5065 12.1299 28.8311 12.8053 28.8311 13.645V22.7542C28.8311 23.5939 29.5065 24.2693 30.3462 24.2693ZM31.8613 15.1784H75.8371V21.239H31.8613V15.1784Z" fill="#818CF8"/>
<path d="M30.3462 39.4392H77.3705C78.2102 39.4392 78.8856 38.7638 78.8856 37.9241V28.815C78.8856 27.9752 78.2102 27.2998 77.3705 27.2998H30.3462C29.5065 27.2998 28.8311 27.9752 28.8311 28.815V37.9241C28.8311 38.7638 29.5065 39.4392 30.3462 39.4392ZM31.8613 30.3484H75.8371V36.4089H31.8613V30.3484Z" fill="#818CF8"/>
<path d="M18.2069 24.2696C18.2069 24.2696 18.2617 24.2696 18.2982 24.2696C18.7363 24.2514 19.1379 24.0323 19.3935 23.7037L25.4541 16.128L23.081 14.2295L18.0791 20.4909L16.2354 18.6471L14.0996 20.783L17.1299 23.8132C17.422 24.1053 17.8053 24.2514 18.2069 24.2514V24.2696Z" fill="#818CF8"/>
<path d="M18.2069 39.4395C18.2069 39.4395 18.2617 39.4395 18.2982 39.4395C18.7363 39.4213 19.1379 39.2022 19.3935 38.8736L25.4541 31.2979L23.081 29.3994L18.0791 35.6608L16.2354 33.8171L14.0996 35.9529L17.1299 38.9832C17.422 39.2752 17.8053 39.4213 18.2069 39.4213V39.4395Z" fill="#818CF8"/>
<path d="M30.3462 54.6091H77.3705C78.2102 54.6091 78.8856 53.9337 78.8856 53.094V43.9849C78.8856 43.1452 78.2102 42.4697 77.3705 42.4697H30.3462C29.5065 42.4697 28.8311 43.1452 28.8311 43.9849V53.094C28.8311 53.9337 29.5065 54.6091 30.3462 54.6091ZM31.8613 45.5183H75.8371V51.5789H31.8613V45.5183Z" fill="#818CF8"/>
</svg>
