<svg width="94" height="95" viewBox="0 0 94 95" fill="none" xmlns="http://www.w3.org/2000/svg">
<g clip-path="url(#clip0_5477_2954)">
<path d="M84.596 59.0089H65.7887V48.0537C65.7887 47.1816 65.0794 46.4912 64.2245 46.4912H51.6924C50.8193 46.4912 50.1281 47.1998 50.1281 48.0537V59.0089H43.853V48.0537C43.853 47.1816 43.1436 46.4912 42.2887 46.4912H29.7566C28.8835 46.4912 28.1924 47.1998 28.1924 48.0537V59.0089H21.9172V48.0537C21.9172 47.1816 21.2078 46.4912 20.353 46.4912H7.82084C6.94778 46.4912 6.2566 47.1998 6.2566 48.0537V59.5539C2.61883 60.8439 -0.0185547 64.3139 -0.0185547 68.4017C-0.0185547 73.0527 3.38276 76.9043 7.82084 77.6492V87.1873H6.2566C5.72912 87.1873 5.23802 87.4417 4.947 87.8777L1.81852 92.565C1.49112 93.0374 1.47293 93.6551 1.74576 94.1638C2.0186 94.6725 2.54607 94.9995 3.12812 94.9995H15.6602C16.2423 94.9995 16.7698 94.6907 17.0426 94.1638C17.3154 93.6551 17.279 93.0374 16.9698 92.565L13.8414 87.8777C13.5503 87.4417 13.0592 87.1873 12.5318 87.1873H10.9675V77.7945H83.0318V87.1873H81.4675C80.94 87.1873 80.4489 87.4417 80.1579 87.8777L77.0294 92.565C76.702 93.0374 76.6838 93.6551 76.9567 94.1638C77.2295 94.6725 77.757 94.9995 78.339 94.9995H90.8711C91.4532 94.9995 91.9807 94.6907 92.2535 94.1638C92.5263 93.6551 92.49 93.0374 92.1807 92.565L89.0523 87.8777C88.7612 87.4417 88.2701 87.1873 87.7427 87.1873H86.1784V77.6492C90.6165 76.9043 94.0178 73.0527 94.0178 68.4017C94.0178 63.2239 89.798 59.0089 84.6142 59.0089H84.596ZM12.7318 91.8746H6.05652L7.09329 90.3122H11.6769L12.7136 91.8746H12.7318ZM87.9427 91.8746H81.2674L82.3042 90.3122H86.8878L87.9246 91.8746H87.9427ZM79.9033 73.089C77.3205 73.089 75.2105 70.9816 75.2105 68.4017C75.2105 65.8219 77.3205 63.7144 79.9033 63.7144C82.4861 63.7144 84.596 65.8219 84.596 68.4017C84.596 70.9816 82.4861 73.089 79.9033 73.089ZM72.0639 68.4017C72.0639 70.9634 73.3189 73.2344 75.2469 74.6696H62.6239C64.5519 73.2344 65.8069 70.9816 65.8069 68.4017C65.8069 65.8219 64.5519 63.569 62.6239 62.1338H75.2469C73.3189 63.569 72.0639 65.8219 72.0639 68.4017ZM14.096 63.6962C16.6788 63.6962 18.7887 65.8037 18.7887 68.3835C18.7887 70.9634 16.6788 73.0709 14.096 73.0709C11.5132 73.0709 9.40327 70.9634 9.40327 68.3835C9.40327 65.8037 11.5132 63.6962 14.096 63.6962ZM21.9354 68.4017C21.9354 65.84 20.6804 63.569 18.7523 62.1338H31.3754C29.4474 63.569 28.1924 65.8219 28.1924 68.4017C28.1924 70.9816 29.4474 73.2344 31.3754 74.6696H18.7523C20.6804 73.2344 21.9354 70.9816 21.9354 68.4017ZM40.7427 68.4017C40.7427 70.9816 38.6328 73.089 36.0499 73.089C33.4671 73.089 31.3572 70.9816 31.3572 68.4017C31.3572 65.8219 33.4671 63.7144 36.0499 63.7144C38.6328 63.7144 40.7427 65.8219 40.7427 68.4017ZM43.8712 68.4017C43.8712 65.84 42.6161 63.569 40.6881 62.1338H53.3112C51.3831 63.569 50.1281 65.8219 50.1281 68.4017C50.1281 70.9816 51.3831 73.2344 53.3112 74.6696H40.6881C42.6161 73.2344 43.8712 70.9816 43.8712 68.4017ZM62.6784 68.4017C62.6784 70.9816 60.5685 73.089 57.9857 73.089C55.4029 73.089 53.293 70.9816 53.293 68.4017C53.293 65.8219 55.4029 63.7144 57.9857 63.7144C60.5685 63.7144 62.6784 65.8219 62.6784 68.4017ZM53.2748 49.6161H56.4033V54.3034H59.5318V49.6161H62.6602V59.0089H53.2566V49.6161H53.2748ZM31.339 49.6161H34.4675V54.3034H37.596V49.6161H40.7245V59.0089H31.3208V49.6161H31.339ZM9.40327 49.6161H12.5318V54.3034H15.6602V49.6161H18.7887V59.0089H9.38508V49.6161H9.40327ZM3.12812 68.4017C3.12812 64.9498 5.94739 62.1338 9.40327 62.1338H9.45784C7.52982 63.569 6.27479 65.8219 6.27479 68.4017C6.27479 70.9816 7.52982 73.2344 9.45784 74.6696H9.40327C5.94739 74.6696 3.12812 71.8536 3.12812 68.4017ZM84.596 74.6515H84.5414C86.4694 73.2162 87.7245 70.9634 87.7245 68.3835C87.7245 65.8037 86.4694 63.5509 84.5414 62.1156H84.596C88.0519 62.1156 90.8711 64.9316 90.8711 68.3835C90.8711 71.8354 88.0519 74.6515 84.596 74.6515Z" fill="#818CF8"/>
<path d="M42.3067 10.5011V5.81373H61.2776C61.696 5.81373 62.0961 5.65022 62.3871 5.35953L65.5156 2.23465L63.2966 0.0181679L60.6228 2.68885H5.3469L2.67314 0L0.454102 2.21648L3.58258 5.34137C3.87361 5.63205 4.27376 5.79556 4.6921 5.79556H10.9673V10.4829C10.9673 13.0627 13.0772 15.1702 15.66 15.1702H21.2258L29.92 24.7265C29.8109 25.1807 29.7382 25.6531 29.7382 26.1255C29.7382 27.7061 30.3384 29.1232 31.3024 30.2132V35.5001H29.7382C28.8651 35.5001 28.1739 36.2086 28.1739 37.0625V40.1874C28.1739 40.6053 28.3376 41.005 28.6286 41.2957L31.7571 44.4205L33.9762 42.2041L31.3024 39.5334V38.625H40.706V39.5334L38.0323 42.2041L40.2513 44.4205L43.3798 41.2957C43.6708 41.005 43.8345 40.6053 43.8345 40.1874V37.0625C43.8345 36.1905 43.1252 35.5001 42.2703 35.5001H40.706V30.2132C41.67 29.105 42.2703 27.6879 42.2703 26.1255C42.2703 23.4003 40.506 21.1111 38.0868 20.2391L34.3945 15.1702H37.5776C40.1604 15.1702 42.2703 13.0627 42.2703 10.4829L42.3067 10.5011ZM39.16 10.5011C39.16 11.3549 38.4506 12.0635 37.5957 12.0635H32.03C32.5756 11.1369 32.903 10.0832 32.903 8.93861C32.903 7.79403 32.5756 6.74029 32.03 5.81373H39.16V10.5011ZM23.4994 8.93861C23.4994 7.21266 24.8999 5.81373 26.6279 5.81373C28.3558 5.81373 29.7563 7.21266 29.7563 8.93861C29.7563 10.6646 28.3558 12.0635 26.6279 12.0635C24.8999 12.0635 23.4994 10.6646 23.4994 8.93861ZM14.0957 10.5011V5.81373H21.2258C20.6801 6.74029 20.3527 7.79403 20.3527 8.93861C20.3527 10.0832 20.6801 11.1369 21.2258 12.0635H15.66C14.8051 12.0635 14.0957 11.3549 14.0957 10.5011ZM34.4673 35.5364V32.2117C34.4673 32.2117 34.5764 32.2299 34.631 32.248C34.7401 32.2662 34.831 32.2844 34.9402 32.3025C35.2858 32.357 35.6313 32.4116 35.9951 32.4116C35.9951 32.4116 36.0133 32.4116 36.0315 32.4116C36.0497 32.4116 36.0497 32.4116 36.0679 32.4116C36.4135 32.4116 36.7772 32.3752 37.1228 32.3025C37.232 32.2844 37.3411 32.2662 37.432 32.248C37.4866 32.248 37.5412 32.248 37.5957 32.2117V35.5364H34.4673ZM38.1596 28.4328C38.1596 28.4328 38.1414 28.4328 38.1232 28.4509C37.8322 28.7053 37.3957 28.996 36.8318 29.1595C36.7772 29.1595 36.7409 29.1958 36.6863 29.1958C36.4862 29.2322 36.268 29.2685 36.0315 29.2685C35.795 29.2685 35.5768 29.2322 35.3767 29.1958C35.3221 29.1958 35.2858 29.1595 35.2312 29.1595C34.6673 28.996 34.2308 28.7235 33.9398 28.4509C33.9398 28.4509 33.9216 28.4509 33.9034 28.4328C33.285 27.8696 32.8848 27.052 32.8848 26.1436C32.8848 25.7258 32.9758 25.3079 33.1213 24.9445C33.2304 24.6902 33.3759 24.454 33.5396 24.236C33.576 24.1815 33.6306 24.127 33.6669 24.0725C33.8488 23.8726 34.0307 23.691 34.249 23.5456C34.2672 23.5456 34.2854 23.5274 34.3036 23.5093C34.5036 23.3821 34.7401 23.2731 34.9765 23.2004C35.0493 23.1823 35.1039 23.1641 35.1766 23.1459C35.4313 23.0732 35.7041 23.0187 35.9951 23.0187C36.2134 23.0187 36.4498 23.0551 36.7409 23.1277C36.7409 23.1277 36.7409 23.1277 36.7591 23.1277C38.1232 23.4729 39.1418 24.6902 39.1418 26.1618C39.1418 27.0702 38.7416 27.8877 38.1232 28.4509L38.1596 28.4328ZM34.158 20.1664C33.9943 20.2209 33.8488 20.2754 33.6851 20.3481C33.6306 20.3662 33.5942 20.3844 33.5396 20.4026C33.194 20.5479 32.8666 20.7296 32.5574 20.9294C32.521 20.9476 32.4847 20.9839 32.4483 21.0021C32.1573 21.202 31.8844 21.4381 31.6298 21.6743C31.6298 21.6743 31.5934 21.7107 31.5752 21.7107C31.557 21.7288 31.5207 21.7652 31.4843 21.7833L25.4456 15.1702H30.5021L34.1217 20.1482L34.158 20.1664Z" fill="#818CF8"/>
</g>
<defs>
<clipPath id="clip0_5477_2954">
<rect width="94" height="95" fill="white"/>
</clipPath>
</defs>
</svg>
