<svg width="100%" height="auto" viewBox="0 0 95 92" fill="none" xmlns="http://www.w3.org/2000/svg">
<path d="M2.16602 39.3285V75.1618C2.16602 83.0809 15.0015 89.4951 30.8327 89.4951C46.6639 89.4951 59.4994 83.0809 59.4994 75.1618V39.3285M2.16602 39.3285C2.16602 47.2476 15.0015 53.6618 30.8327 53.6618C46.6639 53.6618 59.4994 47.2476 59.4994 39.3285M2.16602 39.3285C2.16602 31.4093 15.0015 24.9951 30.8327 24.9951C46.6639 24.9951 59.4994 31.4093 59.4994 39.3285M59.4994 57.2451C59.4994 65.1643 46.6639 71.5784 30.8327 71.5784C15.0015 71.5784 2.16602 65.1643 2.16602 57.2451" stroke="#818CF8" stroke-width="4.33333" stroke-linecap="round" stroke-linejoin="round"/>
<path d="M66.8259 66.595C81.3259 65.885 92.6659 59.775 92.6659 52.335V16.495C92.6659 8.57504 79.8259 2.16504 63.9959 2.16504C48.1659 2.16504 35.3359 8.57504 35.3359 16.495V18.545" stroke="#818CF8" stroke-width="4.33" stroke-linecap="round" stroke-linejoin="round"/>
<path d="M66.8262 48.675C81.3262 47.965 92.6662 41.855 92.6662 34.415" stroke="#818CF8" stroke-width="4.33" stroke-linecap="round" stroke-linejoin="round"/>
<path d="M66.8262 30.095C81.3262 29.385 92.6662 23.275 92.6662 15.835" stroke="#818CF8" stroke-width="4.33" stroke-linecap="round" stroke-linejoin="round"/>
</svg>
