<svg width="100%" height="auto" viewBox="0 0 92 77" fill="none" xmlns="http://www.w3.org/2000/svg">
<path d="M77.7066 19.2532C80.8023 21.3522 83.7029 23.735 86.3531 26.3797C86.8876 26.9197 87.6114 27.2204 88.3742 27.226C89.1314 27.226 89.8552 26.9253 90.3953 26.3908C90.9298 25.8563 91.2304 25.127 91.2304 24.3697C91.2249 23.607 90.9242 22.8831 90.3841 22.3486C87.4722 19.4479 84.2932 16.8256 80.8858 14.5261C79.3881 13.5295 77.8737 12.6276 76.3537 11.7868L83.2576 4.88295C83.7977 4.34846 84.1095 3.62467 84.1095 2.86186C84.115 2.09909 83.8144 1.36971 83.2743 0.835219C82.7398 0.295156 82.0105 -0.00548296 81.2477 7.57341e-05C80.4849 7.57341e-05 79.7611 0.311861 79.2266 0.851924L7.9613 72.1172C7.42124 72.6517 7.10945 73.3755 7.10945 74.1383C7.10388 74.9011 7.40453 75.6305 7.94459 76.165C8.47908 76.705 9.20844 77.0057 9.97124 77.0001C10.734 77.0001 11.4578 76.6883 11.9923 76.1482L39.3625 48.7781C46.3666 46.3618 54.1386 48.1601 59.3666 53.4103C60.4857 54.5183 62.2841 54.5072 63.392 53.3936C64.4999 52.2745 64.4944 50.4762 63.3809 49.3627C58.8155 44.7194 52.5742 42.097 46.0605 42.0803L57.5521 30.5887C59.8013 31.2847 61.9728 32.1978 64.0383 33.3169C67.2786 35.0708 70.2407 37.281 72.8408 39.8923C73.9543 41.0058 75.7582 41.0058 76.8717 39.8923C77.9851 38.7788 77.9852 36.9748 76.8717 35.8614C73.8874 32.866 70.4856 30.3216 66.7665 28.3061C65.241 27.471 63.6653 26.7304 62.0452 26.0902L72.1225 16.0128C74.0434 16.9872 75.9082 18.0673 77.7066 19.2532Z" fill="#818CF8"/>
<path d="M2.85016 27.2084C3.60735 27.2139 4.33119 26.9133 4.86568 26.3732C18.2279 13.0723 37.2358 7.1202 55.8033 10.4326C57.351 10.7054 58.832 9.67542 59.1048 8.12205C59.3777 6.57431 58.3477 5.09327 56.7943 4.82047C36.3996 1.17368 15.5103 7.71555 0.833918 22.3418C0.0210519 23.1602 -0.22393 24.3851 0.21592 25.4485C0.655755 26.5175 1.69765 27.2084 2.85016 27.2084Z" fill="#818CF8"/>
<path d="M18.3778 39.8872C23.6893 34.5589 30.4651 30.9177 37.8474 29.4368C39.3896 29.125 40.3919 27.6218 40.08 26.0795C39.7683 24.5373 38.2651 23.5351 36.7227 23.8469C28.2377 25.5506 20.4543 29.7319 14.3469 35.8563C13.2333 36.9698 13.2333 38.7793 14.3469 39.8872C15.4604 41.0007 17.2643 41.0007 18.3778 39.8872Z" fill="#818CF8"/>
<path d="M41.3466 62.8637C39.6207 64.5896 39.1028 67.1841 40.0382 69.439C40.9735 71.694 43.1727 73.1638 45.6114 73.1638C48.0501 73.1638 50.2492 71.694 51.1846 69.439C52.1201 67.1841 51.6022 64.5897 49.8762 62.8637C47.5212 60.5142 43.7017 60.5142 41.3466 62.8637Z" fill="#818CF8"/>
</svg>
