<svg width="100%" height="auto" viewBox="0 0 95 83" fill="none" xmlns="http://www.w3.org/2000/svg">
<path d="M43.2991 16.5H37.9991C37.3991 16.5 36.8991 17 36.8991 17.6V22.4C30.3991 22.9 25.2991 28.7 26.1991 35.6C26.8991 41.6 32.2991 45.9 38.3991 45.9H43.4991C45.9991 45.9 47.9991 48 47.6991 50.6C47.4991 52.8 45.4991 54.4 43.1991 54.4H37.7991C35.7991 54.4 33.9991 52.9 33.5991 51C33.4991 50.5 32.9991 50.1 32.4991 50.1H27.0991C26.3991 50.1 25.8991 50.7 25.9991 51.4C26.5991 57 31.0991 61.3 36.7991 61.8V66.6C36.7991 67.2 37.2991 67.7 37.8991 67.7H43.1991C43.7991 67.7 44.2991 67.2 44.2991 66.6V61.8C50.7991 61.3 55.8991 55.5 54.9991 48.6C54.4991 42.7 49.0991 38.4 42.9991 38.4H38.0991C35.8991 38.4 33.8991 36.8 33.5991 34.6C33.2991 32.1 35.2991 29.9 37.7991 29.9H43.4991C45.4991 29.9 47.2991 31.4 47.6991 33.3C47.7991 33.8 48.2991 34.2 48.7991 34.2H54.1991C54.8991 34.2 55.3991 33.6 55.2991 32.9C54.5991 27.3 50.0991 22.9 44.4991 22.4V17.6C44.4991 17 43.9991 16.5 43.2991 16.5Z" fill="#818CF8"/>
<path d="M40.7 6.6C21.1 6.6 5.1 22.5 5.1 42.2C5.1 61.9 21 77.8 40.7 77.8C58.8 77.8 73.9 64.1 76 46.5H81.2C79 66.9 61.7 82.9 40.7 82.9C18.3 82.9 0 64.6 0 42.2C0 19.8 18.3 1.5 40.7 1.5C49.1 1.5 57 4.1 63.5 8.5L60.1 12.4C54.5 8.7 47.9 6.6 40.7 6.6Z" fill="#818CF8"/>
<path d="M92.4001 20.9H87.2001V38.8C87.2001 40.2 86.0001 41.4 84.6001 41.4H73.0001C71.6001 41.4 70.4001 40.2 70.4001 38.8V20.9H65.2001C63.0001 20.9 61.8001 18.3 63.3001 16.6L76.9001 0.9C77.9001 -0.3 79.8001 -0.3 80.8001 0.9L94.4001 16.7C95.8001 18.3 94.6001 20.9 92.4001 20.9Z" fill="#818CF8"/>
</svg>
