<svg width="100%" height="auto" viewBox="0 0 88 77" fill="none" xmlns="http://www.w3.org/2000/svg">
<g clip-path="url(#clip0_5970_5207)">
<path d="M9.98634 52.7188H1.04335C0.467123 52.7188 0 53.1859 0 53.7621V75.9556C0 76.5319 0.467123 76.999 1.04335 76.999H9.98634C10.5626 76.999 11.0297 76.5319 11.0297 75.9556V53.7621C11.0297 53.1859 10.5626 52.7188 9.98634 52.7188Z" fill="#818CF8"/>
<path d="M36.7855 71.0371C36.1744 71.0371 35.6677 71.5439 35.6677 72.155V74.7634H33.0593C32.4482 74.7634 31.9414 75.2701 31.9414 75.8812C31.9414 76.4923 32.4482 76.9991 33.0593 76.9991H36.7855C37.3966 76.9991 37.9034 76.4923 37.9034 75.8812V72.155C37.9034 71.5439 37.3966 71.0371 36.7855 71.0371Z" fill="#818CF8"/>
<path d="M27.2445 74.7634H24.6361V72.155C24.6361 71.5439 24.1294 71.0371 23.5183 71.0371C22.9072 71.0371 22.4004 71.5439 22.4004 72.155V75.8812C22.4004 76.4923 22.9072 76.9991 23.5183 76.9991H27.2445C27.8556 76.9991 28.3624 76.4923 28.3624 75.8812C28.3624 75.2701 27.8556 74.7634 27.2445 74.7634Z" fill="#818CF8"/>
<path d="M23.5183 50.6615C24.1294 50.6615 24.6361 50.1547 24.6361 49.5436V42.0017C24.6361 41.3906 24.1294 40.8838 23.5183 40.8838C22.9072 40.8838 22.4004 41.3906 22.4004 42.0017V49.5436C22.4004 50.1547 22.9072 50.6615 23.5183 50.6615Z" fill="#818CF8"/>
<path d="M22.4004 64.6129C22.4004 65.224 22.9072 65.7308 23.5183 65.7308C24.1294 65.7308 24.6361 65.224 24.6361 64.6129V57.071C24.6361 56.4599 24.1294 55.9531 23.5183 55.9531C22.9072 55.9531 22.4004 56.4599 22.4004 57.071V64.6129Z" fill="#818CF8"/>
<path d="M27.2445 29.6309H23.5183C22.9072 29.6309 22.4004 30.1376 22.4004 30.7487V34.475C22.4004 35.0861 22.9072 35.5929 23.5183 35.5929C24.1294 35.5929 24.6361 35.0861 24.6361 34.475V31.8666H27.2445C27.8556 31.8666 28.3624 31.3598 28.3624 30.7487C28.3624 30.1376 27.8556 29.6309 27.2445 29.6309Z" fill="#818CF8"/>
<path d="M36.7855 29.6309H33.0593C32.4482 29.6309 31.9414 30.1376 31.9414 30.7487C31.9414 31.3598 32.4482 31.8666 33.0593 31.8666H35.6677V34.475C35.6677 35.0861 36.1744 35.5929 36.7855 35.5929C37.3966 35.5929 37.9034 35.0861 37.9034 34.475V30.7487C37.9034 30.1376 37.3966 29.6309 36.7855 29.6309Z" fill="#818CF8"/>
<path d="M36.7858 40.8838C36.1747 40.8838 35.668 41.3906 35.668 42.0017V49.5436C35.668 50.1547 36.1747 50.6615 36.7858 50.6615C37.3969 50.6615 37.9037 50.1547 37.9037 49.5436V42.0017C37.9037 41.3906 37.3969 40.8838 36.7858 40.8838Z" fill="#818CF8"/>
<path d="M36.7858 55.9678C36.1747 55.9678 35.668 56.4745 35.668 57.0856V64.6276C35.668 65.2387 36.1747 65.7454 36.7858 65.7454C37.3969 65.7454 37.9037 65.2387 37.9037 64.6276V57.0856C37.9037 56.4745 37.3969 55.9678 36.7858 55.9678Z" fill="#818CF8"/>
<path d="M59.2481 45.8477H50.3051C49.7288 45.8477 49.2617 46.3148 49.2617 46.891V75.9557C49.2617 76.532 49.7288 76.9991 50.3051 76.9991H59.2481C59.8243 76.9991 60.2914 76.532 60.2914 75.9557V46.891C60.2914 46.3148 59.8243 45.8477 59.2481 45.8477Z" fill="#818CF8"/>
<path d="M83.8848 24.7725H74.9418C74.3656 24.7725 73.8984 25.2396 73.8984 25.8158V75.9562C73.8984 76.5324 74.3656 76.9995 74.9418 76.9995H83.8848C84.461 76.9995 84.9281 76.5324 84.9281 75.9562V25.8158C84.9281 25.2396 84.461 24.7725 83.8848 24.7725Z" fill="#818CF8"/>
<path d="M86.8959 0.402435C86.6873 0.14905 86.3742 0 86.0463 0H77.312C76.7009 0 76.1941 0.50677 76.1941 1.11787C76.1941 1.72898 76.7009 2.23575 77.312 2.23575H83.3187L58.4125 22.119C56.0724 20.1068 52.5548 20.3602 50.5278 22.7003C50.3638 22.8941 50.1998 23.1027 50.0657 23.3263L37.2325 17.8562C37.4114 17.2004 37.5157 16.5296 37.5157 15.8589C37.4859 11.3427 33.7894 7.70588 29.2732 7.73569C24.8017 7.7655 21.1798 11.3874 21.15 15.8589C21.1351 17.2153 21.463 18.5567 22.1188 19.7491L2.5933 34.2219C2.10144 34.5945 1.99711 35.295 2.35483 35.8018C2.5635 36.085 2.90631 36.2489 3.26403 36.2489C3.50251 36.2489 3.72608 36.1744 3.91985 36.0254L23.4603 21.5377C25.0104 23.1624 27.1418 24.1014 29.3925 24.1014C32.3139 24.1014 35.0117 22.5065 36.3978 19.9429L49.2161 25.3832C48.6199 28.4685 50.6321 31.4644 53.7174 32.0606C56.8028 32.6568 59.7987 30.6447 60.3949 27.5593C60.4694 27.2165 60.4992 26.8588 60.4992 26.5011C60.4992 25.577 60.2756 24.6529 59.8285 23.848L84.3323 4.29264L83.1548 10.7763C83.0355 11.3725 83.4231 11.9538 84.0193 12.073C84.0193 12.073 84.0342 12.073 84.0491 12.073C84.1236 12.073 84.1832 12.0879 84.2577 12.0879C84.7943 12.0879 85.2564 11.7004 85.3458 11.1787L87.1493 1.31164C87.2089 0.983729 87.1195 0.65582 86.8959 0.402435ZM31.9412 16.9619C32.3735 17.3792 32.3884 18.0798 31.971 18.512C31.971 18.512 31.9561 18.5269 31.9412 18.5418C31.7326 18.7505 31.4494 18.8697 31.1513 18.8697C30.8532 18.8697 30.57 18.7505 30.3613 18.5418L29.3329 17.4985L28.3044 18.5418C28.0957 18.7505 27.8125 18.8697 27.5144 18.8697C27.2163 18.8697 26.9332 18.7505 26.7245 18.5418C26.2922 18.1245 26.2773 17.4239 26.6947 16.9917C26.6947 16.9917 26.7096 16.9768 26.7245 16.9619L27.7529 15.9185L26.7245 14.8901C26.2922 14.4578 26.2922 13.7424 26.7245 13.3102C27.1567 12.8779 27.8722 12.8779 28.3044 13.3102L29.3329 14.3386L30.3613 13.3102C30.7935 12.8779 31.509 12.8779 31.9412 13.3102C32.3735 13.7424 32.3735 14.4578 31.9412 14.8901L30.9128 15.9185L31.9412 16.9619Z" fill="#818CF8"/>
</g>
<defs>
<clipPath id="clip0_5970_5207">
<rect width="87.1644" height="76.9992" fill="white"/>
</clipPath>
</defs>
</svg>
