<svg width="91" height="95" viewBox="0 0 91 95" fill="none" xmlns="http://www.w3.org/2000/svg">
<g clip-path="url(#clip0_5477_2943)">
<path d="M87.3486 29.2869C86.7644 27.9606 83.3873 21.6382 82.0547 21.4928C80.9594 21.3657 80.8134 22.2559 80.284 22.6193C80.5578 24.0727 81.7991 24.9992 82.5476 26.1983C90.5614 39.2247 89.6304 56.4116 81.5618 69.1836C71.1384 85.6619 49.6342 93.6558 31.1604 86.6066C31.4708 86.2978 32.8216 84.3175 33.0589 84.2811C33.2232 84.263 35.6328 85.1532 36.1622 85.2622C72.0876 92.3659 98.5935 54.8673 78.0204 24.1454C77.418 23.2551 74.3877 19.0583 73.7123 18.6586C73.1099 18.2953 72.3249 18.2953 71.8138 18.804C70.3899 20.1666 72.9638 21.947 73.7853 23.0916C74.6433 24.2725 75.5378 25.5079 76.3227 26.7434C94.9243 55.9755 67.7612 90.8034 35.0304 82.0283C34.7201 81.8285 34.9757 81.6468 35.1035 81.3924C35.7606 80.1025 38.5536 76.8868 39.6124 75.4879C49.9263 62.0073 60.8244 48.9446 70.9558 35.3005C71.0836 34.065 70.5907 33.193 69.4772 32.7024L56.5528 32.4844C60.1307 26.5254 63.5626 20.4754 66.9945 14.4255C68.3636 12.0274 73.0551 5.01455 73.621 2.97974C74.0044 1.63531 73.4932 0.599744 72.2884 -0.0361328H51.405C50.1819 0.436233 49.9628 1.67165 49.2874 2.63455C17.0312 -0.726513 -8.23336 30.7403 2.5187 61.4622C6.11489 71.7271 13.8001 80.5567 23.1283 86.0434L20.737 91.3121C20.2258 93.2742 21.5949 95.2546 23.7672 94.9639C24.9903 94.8004 26.9071 91.8935 27.7833 90.8943C28.0206 90.6217 29.0976 89.0956 29.2619 89.0593L34.7019 90.7489C38.4623 90.9851 41.9307 92.0752 46.0563 92.0207C49.5247 91.9662 52.6828 90.9669 55.8591 90.7489C82.5111 84.4628 98.63 54.7946 87.3303 29.2869H87.3486ZM6.18791 30.5586C12.4128 15.879 28.0024 5.03271 44.2308 5.19622C44.6142 5.19622 47.1699 5.30523 47.2611 5.41424C47.681 5.86844 46.7682 8.03042 46.4762 8.15759C46.1476 8.30294 40.4521 8.28477 39.2838 8.43011C5.64026 12.6632 -5.93326 55.703 20.3719 77.2683C21.1386 77.886 25.4832 80.5385 25.5197 80.8474C25.538 80.9927 24.4062 83.0457 24.3149 83.4454C5.93234 72.7445 -2.26405 50.4343 6.18791 30.5586ZM27.4182 51.4154C28.477 51.6152 37.9512 51.1065 38.079 51.6334L26.7793 77.9042C26.4872 78.2312 26.469 78.0859 26.1404 77.9769C25.4832 77.7589 22.4529 75.3425 21.8322 74.743C6.51649 62.3161 4.14337 39.8243 16.4653 24.3815C23.0736 16.097 34.2455 10.4286 44.9793 11.1735C44.3039 12.4089 43.5006 13.6443 42.8617 14.8979C37.1115 26.2347 31.1787 37.4624 25.5014 48.8174C25.4102 49.9983 26.2134 51.1974 27.3999 51.4154H27.4182ZM24.9538 89.6952L24.5339 89.8405C25.3372 88.5869 25.7388 87.1153 26.5055 85.8436L42.0403 49.6713C41.949 48.9446 41.6934 48.6357 40.9815 48.4722L28.9881 48.6175L28.9151 48.2723L52.336 3.01608C52.8106 2.63455 54.7456 2.8344 55.4393 2.79806C59.291 2.68905 63.161 2.87073 67.0128 2.9434C67.4509 2.9434 70.2621 2.50737 70.4082 3.01608L52.7558 33.5018C52.5002 34.2467 52.628 35.0824 53.4678 35.3913C54.6361 35.8273 60.3863 35.5185 62.084 35.5366C63.7452 35.5366 65.4246 35.5366 67.1041 35.5366L67.031 36.0272L24.9721 89.6952H24.9538Z" fill="#1C1C23"/>
<path d="M87.3486 29.2869C86.7644 27.9606 83.3873 21.6382 82.0547 21.4928C80.9594 21.3657 80.8134 22.2559 80.284 22.6193C80.5578 24.0727 81.7991 24.9992 82.5476 26.1983C90.5614 39.2247 89.6304 56.4116 81.5618 69.1836C71.1384 85.6619 49.6342 93.6558 31.1604 86.6066C31.4708 86.2978 32.8216 84.3175 33.0589 84.2811C33.2232 84.263 35.6328 85.1532 36.1622 85.2622C72.0876 92.3659 98.5935 54.8673 78.0204 24.1454C77.418 23.2551 74.3877 19.0583 73.7123 18.6586C73.1099 18.2953 72.3249 18.2953 71.8138 18.804C70.3899 20.1666 72.9638 21.947 73.7853 23.0916C74.6433 24.2725 75.5378 25.5079 76.3227 26.7434C94.9243 55.9755 67.7612 90.8034 35.0304 82.0283C34.7201 81.8285 34.9757 81.6468 35.1035 81.3924C35.7606 80.1025 38.5536 76.8868 39.6124 75.4879C49.9263 62.0073 60.8244 48.9446 70.9558 35.3005C71.0836 34.065 70.5907 33.193 69.4772 32.7024L56.5528 32.4844C60.1307 26.5254 63.5626 20.4754 66.9945 14.4255C68.3636 12.0274 73.0551 5.01455 73.621 2.97974C74.0044 1.63531 73.4932 0.599744 72.2884 -0.0361328H51.405C50.1819 0.436233 49.9628 1.67165 49.2874 2.63455C17.0312 -0.726513 -8.23336 30.7403 2.5187 61.4622C6.11489 71.7271 13.8001 80.5567 23.1283 86.0434L20.737 91.3121C20.2258 93.2742 21.5949 95.2546 23.7672 94.9639C24.9903 94.8004 26.9071 91.8935 27.7833 90.8943C28.0206 90.6217 29.0976 89.0956 29.2619 89.0593L34.7019 90.7489C38.4623 90.9851 41.9307 92.0752 46.0563 92.0207C49.5247 91.9662 52.6828 90.9669 55.8591 90.7489C82.5111 84.4628 98.63 54.7946 87.3303 29.2869H87.3486ZM6.18791 30.5586C12.4128 15.879 28.0024 5.03271 44.2308 5.19622C44.6142 5.19622 47.1699 5.30523 47.2611 5.41424C47.681 5.86844 46.7682 8.03042 46.4762 8.15759C46.1476 8.30294 40.4521 8.28477 39.2838 8.43011C5.64026 12.6632 -5.93326 55.703 20.3719 77.2683C21.1386 77.886 25.4832 80.5385 25.5197 80.8474C25.538 80.9927 24.4062 83.0457 24.3149 83.4454C5.93234 72.7445 -2.26405 50.4343 6.18791 30.5586ZM27.4182 51.4154C28.477 51.6152 37.9512 51.1065 38.079 51.6334L26.7793 77.9042C26.4872 78.2312 26.469 78.0859 26.1404 77.9769C25.4832 77.7589 22.4529 75.3425 21.8322 74.743C6.51649 62.3161 4.14337 39.8243 16.4653 24.3815C23.0736 16.097 34.2455 10.4286 44.9793 11.1735C44.3039 12.4089 43.5006 13.6443 42.8617 14.8979C37.1115 26.2347 31.1787 37.4624 25.5014 48.8174C25.4102 49.9983 26.2134 51.1974 27.3999 51.4154H27.4182ZM24.9538 89.6952L24.5339 89.8405C25.3372 88.5869 25.7388 87.1153 26.5055 85.8436L42.0403 49.6713C41.949 48.9446 41.6934 48.6357 40.9815 48.4722L28.9881 48.6175L28.9151 48.2723L52.336 3.01608C52.8106 2.63455 54.7456 2.8344 55.4393 2.79806C59.291 2.68905 63.161 2.87073 67.0128 2.9434C67.4509 2.9434 70.2621 2.50737 70.4082 3.01608L52.7558 33.5018C52.5002 34.2467 52.628 35.0824 53.4678 35.3913C54.6361 35.8273 60.3863 35.5185 62.084 35.5366C63.7452 35.5366 65.4246 35.5366 67.1041 35.5366L67.031 36.0272L24.9721 89.6952H24.9538Z" fill="#818CF8"/>
</g>
<defs>
<clipPath id="clip0_5477_2943">
<rect width="91" height="95" fill="white"/>
</clipPath>
</defs>
</svg>
