<svg width="104" height="95" viewBox="0 0 104 95" fill="none" xmlns="http://www.w3.org/2000/svg">
<path d="M103.625 63.9142C103.102 63.0017 102.165 62.4543 101.138 62.4543H96.0392V21.9433C96.0392 20.3375 94.7419 19.0236 93.1564 19.0236H84.1293C82.5437 16.8704 80.76 14.8083 78.7419 12.874C69.6428 4.11488 57.4627 -0.337672 44.85 0.00904357C23.787 0.592985 4.09329 16.6514 0.615812 37.9652C-2.95176 59.8996 9.3005 79.6806 29.1023 88.02L1.62482 88.093C-0.357161 88.4397 0.0212173 90.7572 1.89509 90.9579C28.5257 90.7937 55.2645 91.1952 81.8591 90.8485L83.3906 93.5492C83.9131 94.4616 84.85 95.009 85.8771 95.009C86.9221 95.009 87.841 94.4616 88.3636 93.5492L89.9672 90.739C90.6699 90.739 91.3726 90.7207 92.0753 90.7025C93.0663 89.8996 92.9041 88.5674 91.6789 88.1112H91.4807L103.607 66.8521C104.129 65.9397 104.129 64.8448 103.607 63.9324L103.625 63.9142ZM7.49869 64.5711C-0.249053 49.3156 2.14734 31.1404 13.1744 18.2755C31.2645 -2.83767 63.9491 -1.32307 80.3636 19.0236H78.6338C77.1744 19.0236 75.9672 20.1368 75.787 21.5601C68.1113 12.8193 56.3996 7.34481 43.3365 8.22072C13.6609 10.1915 -3.14995 45.5382 16.6879 69.2791C30.9401 86.3229 56.3816 87.2718 72.0573 73.6222L74.6338 78.1477C73.823 78.8412 72.9942 79.5163 72.1113 80.155C50.6518 95.5565 19.5347 88.2572 7.49869 64.5711ZM75.769 44.4981C74.1654 44.2791 68.3636 44.2609 68.0753 44.4616C67.9491 44.5528 67.8771 47.3813 68.0753 47.4725L75.769 47.2718V62.4543H72.2735C72.7059 61.7974 73.1744 60.9762 73.1203 60.7937C72.5798 60.3375 71.9311 60.0273 71.3726 59.6258C70.6879 59.1514 65.7149 55.8485 65.3545 55.9397C65.1744 55.9762 64.0573 58.093 63.6609 58.3302C65.5888 59.3521 67.3365 60.8485 69.1924 61.9616C69.3185 62.0346 69.6969 62.2718 70.1113 62.5273C69.3005 62.6733 68.5798 63.166 68.1473 63.9142C67.6248 64.8266 67.6248 65.9215 68.1473 66.8339L70.5257 71.0127C55.805 84.2974 31.5167 83.093 18.3996 66.8339C0.327524 44.3339 17.2825 12.2353 44.85 11.0857C57.823 10.5565 69.1203 16.8704 75.769 26.2682V44.4798V44.4981ZM76.8681 82.0528C76.0392 82.0711 75.2645 82.0528 74.6158 81.9981C75.1383 81.5966 75.6248 81.1769 76.1293 80.7572L76.8681 82.0528ZM64.0933 88.02C65.9672 87.4361 68.2735 85.4652 70.1113 85.082C71.6068 84.7718 75.0843 84.8631 78.5437 84.9725L80.3095 88.0747L64.1113 88.0382L64.0933 88.02ZM86.0572 92.1623H85.7509L70.5257 65.4652L70.6699 65.1915H78.4717V21.9433C78.4717 21.8521 78.5437 21.7609 78.6518 21.7609H93.1564C93.2464 21.7609 93.3365 21.8339 93.3365 21.9433V65.1915H101.138L101.3 65.4652L86.0753 92.1623H86.0572Z" fill="#818CF8"/>
<path d="M33.4983 63.0561C33.192 63.1291 30.2551 67.9101 29.9127 68.5305C29.6605 68.9867 28.7235 70.775 28.9037 71.1218C28.9578 71.2312 31.0298 72.3809 31.192 72.3444C31.3722 72.3079 32.4352 70.7203 32.6154 70.4283C33.7325 68.6583 34.5073 66.4137 35.8587 64.7531C35.9307 64.3882 33.6424 63.0013 33.4983 63.0378V63.0561Z" fill="#818CF8"/>
<path d="M26.3451 55.8116C24.7055 57.1985 22.6514 57.9649 20.8677 59.0963C19.4442 60.0087 18.3271 60.2277 19.5163 62.0343C20.5073 63.5489 21.1559 62.5817 22.4893 61.8335C24.3632 60.7751 26.0929 59.3518 27.9668 58.2751C28.1289 57.8919 26.6695 55.7934 26.3451 55.8116Z" fill="#818CF8"/>
<path d="M47.5521 66.7605C47.1017 66.505 44.8134 66.578 44.6512 66.9612C44.6873 68.8043 44.6152 70.6656 44.6512 72.5086C44.6512 73.0196 44.5071 75.6291 44.8494 75.7933L47.6782 75.6656C47.8044 75.5743 47.7503 74.6437 47.7503 74.4429C47.7683 71.9247 47.5161 69.3152 47.5521 66.7787V66.7605Z" fill="#818CF8"/>
<path d="M23.2459 47.1983C23.6603 44.3699 24.0567 44.2786 21.354 44.0596C20.363 43.9866 15.8044 43.8042 15.0657 43.9319C14.1468 44.0961 14.5432 46.2494 14.6693 47.0158C14.9936 47.4173 16.6693 47.0888 17.2278 47.0888C19.2278 47.0888 21.2459 46.9976 23.2459 47.2166V47.1983Z" fill="#818CF8"/>
<path d="M59.0295 63.8777C58.8674 63.8412 56.9395 65.2098 56.9395 65.447C57.9665 66.9616 58.7953 68.6039 59.7683 70.1733C60.0025 70.5565 61.1917 72.7463 61.462 72.7645C64.471 71.1952 63.7322 70.8485 62.2007 68.385C61.8764 67.8558 59.2998 63.9324 59.0295 63.8777Z" fill="#818CF8"/>
<path d="M20.8142 27.9102L19.2646 30.4467C20.0935 30.9941 26.2196 35.0087 26.616 34.8992C26.7421 34.8627 28.0935 32.7642 28.0394 32.5087C27.9493 32.0525 21.607 28.6218 20.8142 27.9284V27.9102Z" fill="#818CF8"/>
<path d="M32.0212 19.6984C31.8771 19.6802 29.5888 21.0305 29.6608 21.4138C30.3455 22.1619 33.9852 28.2386 34.5978 28.1838C34.7239 28.1838 36.5077 26.87 36.5618 26.4685C35.841 25.7933 32.4356 19.7532 32.0392 19.6984H32.0212Z" fill="#818CF8"/>
<path d="M66.0391 36.1222C66.7598 35.4105 73.0481 31.9616 73.1201 31.5419C73.1381 31.3959 71.8048 29.4251 71.5706 29.1514L64.7598 33.4579L66.0391 36.1222Z" fill="#818CF8"/>
<path d="M62.8674 21.5421C62.5972 21.3962 61.0296 20.356 60.9035 20.3743C60.5431 20.4473 57.4981 25.8852 56.7773 26.4692C56.7773 26.6334 58.471 27.8925 58.5972 27.9108C59.1197 27.9108 62.2368 22.2356 62.8494 21.5421H62.8674Z" fill="#818CF8"/>
<path d="M48.0214 40.7028L47.8952 26.8889C47.661 26.0313 47.1925 25.2284 46.2016 25.3196C45.2646 25.4108 44.8862 26.378 44.7781 27.1627C44.2376 31.1225 45.1925 36.3415 44.7781 40.4291C40.1115 42.1809 39.3367 49.2247 44.3097 51.0313C51.4628 53.6225 54.8862 43.3123 48.0214 40.7028Z" fill="#818CF8"/>
<path d="M45.0482 22.7831C45.1923 23.0203 47.1563 23.0933 47.4806 22.7831V15.8123L45.1203 15.7393C45.1923 16.6882 44.814 22.3816 45.0482 22.7831Z" fill="#818CF8"/>
</svg>
