<?xml version="1.0" standalone="no"?>
<!DOCTYPE svg PUBLIC "-//W3C//DTD SVG 20010904//EN"
 "http://www.w3.org/TR/2001/REC-SVG-20010904/DTD/svg10.dtd">
<svg version="1.0" xmlns="http://www.w3.org/2000/svg"
 width="1024.000000pt" height="1024.000000pt" viewBox="0 0 1024.000000 1024.000000"
 preserveAspectRatio="xMidYMid meet">
<metadata>
Created by potrace 1.11, written by Peter Selinger 2001-2013
</metadata>
<g transform="translate(0.000000,1024.000000) scale(0.100000,-0.100000)"
fill="#000000" stroke="none">
<path d="M682 10229 c-314 -53 -564 -283 -654 -604 l-23 -80 -3 -2299 -2
-2298 1147 5 c1063 5 1282 10 1669 37 566 40 1154 190 1879 480 223 89 451
187 890 382 668 298 1234 531 1639 677 955 345 1957 529 2889 531 l128 0 -4
1258 c-3 1401 3 1287 -73 1450 -99 215 -280 371 -516 444 l-73 23 -4420 1
c-2545 1 -4443 -2 -4473 -7z"/>
<path d="M9735 5429 c-662 -21 -1255 -151 -2035 -444 -267 -101 -535 -213
-1145 -480 -286 -125 -607 -263 -713 -308 -106 -44 -191 -81 -190 -82 2 -2 81
-35 177 -75 95 -39 390 -166 655 -282 1160 -507 1600 -672 2165 -812 297 -74
815 -130 1404 -152 l187 -7 0 1326 0 1327 -137 -2 c-76 -1 -241 -5 -368 -9z"/>
<path d="M2 1998 c3 -1298 4 -1303 25 -1379 43 -153 102 -257 207 -368 112
-117 261 -199 420 -232 88 -18 231 -19 4461 -19 2936 0 4391 4 4435 10 265 42
490 207 605 445 72 148 77 177 82 461 l5 252 -114 6 c-62 3 -189 8 -283 11
-553 19 -1194 108 -1730 241 -328 82 -518 141 -895 281 -607 224 -715 269
-1755 728 -994 438 -1542 629 -2156 750 -489 96 -866 115 -2347 115 l-963 0 3
-1302z"/>
</g>
</svg>
