<?xml version="1.0" standalone="no"?>
<!DOCTYPE svg PUBLIC "-//W3C//DTD SVG 20010904//EN"
 "http://www.w3.org/TR/2001/REC-SVG-20010904/DTD/svg10.dtd">
<svg version="1.0" xmlns="http://www.w3.org/2000/svg"
 width="700.000000pt" height="700.000000pt" viewBox="0 0 700.000000 700.000000"
 preserveAspectRatio="xMidYMid meet">
<metadata>
Created by potrace 1.14, written by Peter Selinger 2001-2017
</metadata>
<g transform="translate(0.000000,700.000000) scale(0.100000,-0.100000)"
fill="#000000" stroke="none">
<path d="M423 6986 c-196 -48 -370 -226 -412 -421 -7 -34 -10 -561 -11 -1632
l0 -1582 127 -3 c182 -4 1487 0 1553 6 30 2 107 7 170 11 63 4 129 8 145 10
67 6 161 17 180 21 11 2 40 7 65 10 25 3 47 8 50 9 3 2 26 6 50 10 204 29 703
191 1015 330 51 22 116 51 205 89 47 21 108 48 135 60 28 13 66 31 85 39 19 8
94 42 167 76 191 87 345 154 538 233 94 38 184 75 200 83 70 31 392 147 530
190 129 40 438 123 515 139 180 35 392 72 475 81 33 4 69 9 80 11 11 2 56 7
100 10 44 3 91 7 105 10 19 3 438 15 498 14 19 0 17 1701 -2 1782 -49 204
-214 371 -409 413 -89 19 -6074 20 -6154 1z"/>
<path d="M6707 3684 c-1 -1 -65 -4 -142 -8 -77 -4 -153 -8 -170 -11 -16 -2
-55 -7 -85 -10 -30 -4 -62 -8 -71 -10 -9 -2 -34 -6 -54 -9 -323 -52 -860 -218
-1212 -377 -24 -10 -45 -19 -48 -19 -5 0 -286 -122 -380 -165 -99 -46 -491
-219 -632 -280 -40 -18 -56 -35 -32 -35 5 0 35 -11 65 -25 30 -14 82 -37 117
-51 34 -15 95 -42 135 -60 41 -19 75 -34 78 -34 2 0 37 -15 76 -33 547 -251
1079 -461 1378 -544 221 -61 329 -84 460 -98 30 -3 66 -8 80 -10 14 -2 50 -7
80 -9 81 -7 179 -16 225 -21 22 -2 126 -7 231 -10 l190 -7 0 911 c0 501 -2
911 -5 912 -11 1 -283 4 -284 3z"/>
<path d="M0 1347 c1 -807 2 -880 19 -939 52 -188 197 -334 388 -388 66 -19
131 -20 3088 -20 3329 0 3066 -5 3205 62 81 39 194 150 232 228 53 112 62 154
62 315 l1 150 -84 2 c-132 2 -412 13 -456 18 -61 6 -143 14 -215 20 -54 5
-193 23 -300 39 -277 42 -580 116 -820 200 -201 71 -582 216 -685 261 -316
138 -557 246 -765 342 -381 177 -842 355 -1096 423 -150 41 -347 84 -434 95
-19 3 -68 9 -110 15 -77 10 -144 15 -330 26 -58 3 -132 8 -165 11 -33 2 -392
7 -798 10 l-737 5 0 -875z"/>
</g>
</svg>
