<svg fill="none" height="29" viewBox="0 0 146 29" width="146" xmlns="http://www.w3.org/2000/svg"><path d="m124.414 28.962c-1.091-.075-2.239-.37-3.013-.774-.398-.208-.793-.58-.938-.882a1.659 1.659 0 0 1 .013-1.376c.126-.259.393-.522.694-.683l.197-.106.198.151c.356.271.917.545 1.554.76.606.205.993.27 1.766.293 1.029.031 1.629-.068 2.263-.377.599-.29.949-.73 1.139-1.433.062-.23.078-.42.092-1.108l.016-.83-.23.105c-1.516.689-3.935.617-5.535-.166-1.067-.52-1.848-1.316-2.395-2.44-.518-1.065-.715-2.027-.715-3.502 0-1.186.146-2.035.5-2.92.975-2.434 3.254-3.755 6.305-3.66.974.032 1.65.152 2.501.448 1.396.484 2.295 1.223 2.464 2.023.032.15.039 1.714.029 6.167-.013 5.927-.013 5.972-.09 6.314-.225 1.013-.581 1.707-1.203 2.346-.82.845-2.007 1.368-3.581 1.578-.429.058-1.609.097-2.031.068zm2.286-8.429c.174-.03.415-.089.536-.13.246-.083.718-.343.979-.539l.174-.13v-6.596l-.267-.122a6.03 6.03 0 0 0 -1.058-.353c-.149-.034-.464-.05-.998-.048-.731.003-.803.009-1.134.1-1.37.38-2.113 1.273-2.392 2.873-.06.343-.06 1.554-.001 1.952.302 2.033 1.407 3.031 3.369 3.045.279.002.607-.02.793-.053zm-69.82 3.357c-2.077-.158-3.657-1.005-4.742-2.54-.453-.643-.878-1.64-1.048-2.462-.25-1.208-.252-2.688-.004-3.816.564-2.562 2.191-4.285 4.596-4.874 1.032-.252 2.434-.25 3.429.004 1.289.329 2.392 1.001 3.12 1.9.558.69.977 1.479 1.25 2.35.455 1.453.462 3.518.015 4.986-.756 2.493-2.587 4.078-5.076 4.395-.343.044-1.262.077-1.543.056h.004zm1.453-2.675c1.275-.34 2.065-1.277 2.376-2.813.16-.79.16-2.097 0-2.886-.28-1.38-1.022-2.359-2.068-2.723-.81-.283-1.955-.26-2.668.052-.92.404-1.601 1.264-1.881 2.38-.135.533-.169.8-.194 1.517-.056 1.539.3 2.791 1.014 3.576.652.717 1.416 1.01 2.566.986.43-.009.632-.03.854-.089zm42.464 2.675c-1.672-.127-2.926-.647-3.992-1.655-1.06-1.005-1.738-2.45-1.946-4.146-.064-.524-.056-1.803.014-2.318.12-.878.32-1.568.661-2.292.796-1.683 2.174-2.807 4.011-3.278.405-.103.869-.163 1.453-.186 3.597-.145 6.164 2.07 6.667 5.754.07.514.078 1.794.013 2.318-.265 2.166-1.282 3.909-2.842 4.868a6.52 6.52 0 0 1 -2.497.88c-.311.04-1.272.074-1.542.053zm1.161-2.623c.585-.105 1.101-.335 1.478-.656.603-.516.996-1.286 1.215-2.376.053-.267.065-.507.065-1.296 0-.875-.007-1.004-.084-1.365-.213-1.002-.52-1.605-1.099-2.159-.442-.422-.805-.61-1.442-.747-.327-.07-.451-.078-.944-.062-.43.013-.639.037-.858.098-1.274.352-2.103 1.386-2.404 2.995-.093.505-.093 2.109.001 2.555.226 1.067.474 1.58 1.04 2.157.479.486.853.686 1.562.837a4.75 4.75 0 0 0 1.47.02zm37.979 2.603c-1.581-.142-2.949-.672-4.001-1.553-1.149-.961-1.833-2.273-2.084-3.998-.09-.622-.11-1.87-.039-2.482.12-1.043.312-1.71.736-2.563a5.78 5.78 0 0 1 3.391-2.935c1.644-.534 3.546-.415 4.99.312 1.889.951 3.069 2.935 3.067 5.153 0 .276-.02.535-.051.651-.13.492-.458.802-.992.94-.115.03-1.972.3-4.125.602-2.155.3-3.925.556-3.935.566-.031.03.213.64.361.904a3.3 3.3 0 0 0 1.597 1.458c1.042.462 2.613.518 3.753.134a6.102 6.102 0 0 0 1.459-.74c.184-.133.345-.241.359-.241s.161.09.326.201c1.016.68.967 1.859-.108 2.626-1.035.738-2.915 1.124-4.701.965zm-.1-8.227c1.66-.23 3.08-.43 3.154-.441.128-.02.133-.027.113-.137a4.242 4.242 0 0 0 -.342-.967c-.404-.76-.985-1.234-1.757-1.432-.417-.107-1.136-.133-1.572-.056-1.132.198-2.02.943-2.444 2.046-.112.291-.26.9-.3 1.234-.019.158-.014.173.054.173.041 0 1.434-.189 3.093-.42zm-70.074 8.05c-.525-.083-.928-.303-1.146-.625-.563-.83-2.043-5.942-3.135-10.82l-.302-1.35.187-.179c.43-.41.78-.57 1.302-.598.662-.034 1.072.182 1.347.71.17.327.183.378.609 2.31.59 2.682 1.53 6.699 1.577 6.747.01.009.025-.006.034-.034l.53-1.657c.281-.883.872-2.698 1.312-4.033.634-1.924.817-2.443.887-2.502.15-.128.598-.28 1.001-.34.451-.066.882-.03 1.235.103.24.09.535.341.665.564.141.242 1.428 4.171 2.195 6.701.357 1.178.388 1.268.411 1.205.068-.183 1.333-5.108 1.511-5.876.204-.886.448-2.074.63-3.065l.083-.454.208-.122a2.072 2.072 0 0 1 1.15-.255c.597.032.943.23 1.162.663.122.24.127.267.124.62-.006.575-.228 1.635-.761 3.643-.973 3.662-2.381 8.031-2.664 8.271-.118.099-.408.23-.68.307-.227.065-.376.08-.755.08-.864-.001-1.367-.212-1.594-.667-.282-.564-1.27-3.528-2.16-6.484-.182-.602-.34-1.12-.352-1.15-.011-.031-.05.046-.092.183-.667 2.205-.92 2.99-1.471 4.58-.41 1.181-1.04 2.893-1.122 3.055-.06.117-.468.33-.79.412-.261.066-.883.099-1.134.058h-.002zm-34.257-.053c-.478-.11-.755-.308-.932-.67l-.12-.244-.01-6.772c-.008-4.797.001-6.876.03-7.135.194-1.758.96-2.884 2.4-3.532.893-.4 2.015-.571 3.298-.501.955.052 1.47.166 2.058.454.487.239.793.503.946.815.09.185.1.244.097.554-.005.532-.18.902-.606 1.278l-.171.152-.336-.165c-.835-.411-1.919-.601-2.869-.503-.955.098-1.404.348-1.682.936-.203.43-.236.654-.256 1.742l-.018.976h5.118l.149.287c.189.366.259.639.259 1.014 0 .748-.331 1.168-.986 1.254-.147.02-1.218.035-2.381.036l-2.115.001v9.75l-.168.072c-.5.215-1.253.305-1.703.202zm10.783.002c-.478-.102-.747-.294-.911-.652l-.106-.23-.018-17.278.136-.058c.65-.274 1.597-.325 2.064-.11.418.192.64.511.704 1.015.02.159.035 3.624.036 8.652v8.387l-.167.072c-.497.214-1.267.305-1.738.204zm40.492-.002c-.628-.128-.983-.493-1.07-1.098-.047-.333-.049-12.612-.002-13.342.144-2.228 1.056-3.49 2.978-4.116.657-.215 1.324-.305 2.251-.304 1.37 0 2.367.24 3.021.727.404.3.579.622.579 1.064 0 .509-.129.812-.52 1.226-.18.191-.27.263-.3.238-.114-.095-.671-.34-.99-.435a5.14 5.14 0 0 0 -1.663-.239c-1.463.001-2.078.357-2.349 1.36-.065.242-.078.413-.092 1.292l-.016 1.013h5.108l.132.265c.2.4.258.62.262.993.009.803-.302 1.205-1 1.296-.147.02-1.218.036-2.382.036l-2.114.001v9.769l-.284.1c-.547.19-1.096.245-1.549.153zm24.534 0c-.344-.082-.487-.159-.708-.38-.377-.38-.344.137-.355-5.454-.01-5.36-.017-5.172.207-5.63.382-.778 1.554-1.466 3.232-1.898.895-.23 2.421-.34 3.267-.235 1.057.13 1.664.567 1.754 1.261.057.438-.129 1.048-.419 1.373l-.12.135-.345-.07c-1.396-.28-3.044-.114-4.383.445l-.263.11v10.069l-.169.072c-.485.21-1.272.302-1.701.201h.003zm-109.303-22.682c-1.112 0-2.007.9-2.007 2.02l-.005 11.084c2.386.015 4.774.07 7.154-.101 3.317-.305 6.237-2.096 9.294-3.272 2.78-1.183 5.767-1.9 8.798-1.837v-5.878a2.008 2.008 0 0 0 -2.008-2.019zm23.236 11.895c-.335.006-.671.015-1.007.029-3.702-.014-6.985 1.91-10.325 3.26 2.581 1.05 5.073 2.383 7.81 3.002a27.23 27.23 0 0 0 3.523.29v-6.58zm-22.625 5.3c-.874.002-1.748.012-2.62.016 0 2.052.002 4.104.005 6.157a2.01 2.01 0 0 0 2.007 2.02h21.226c1.112 0 2.007-.901 2.007-2.02v-.888c-2.609-.018-5.216-.418-7.646-1.4-3.76-1.319-7.269-3.662-11.35-3.819a73.033 73.033 0 0 0 -3.629-.066z" fill="#fff"/></svg>