<svg width="443" height="289" viewBox="0 0 443 289" fill="none" xmlns="http://www.w3.org/2000/svg">
<rect x="26.4727" y="206.271" width="82.729" height="82.729" rx="8.82443" fill="#EEF2FF"/>
<path d="M81.8969 228.655C81.8969 227.492 80.9509 226.546 79.7879 226.546H55.8863C54.7234 226.546 53.7773 227.492 53.7773 228.655V258.18C53.7773 259.343 54.7234 260.289 55.8863 260.289H70.6491V268.022C70.6491 268.306 70.8204 268.563 71.083 268.672C71.3455 268.781 71.6476 268.72 71.8491 268.519L75.57 264.798L79.2909 268.519C79.4255 268.654 79.605 268.725 79.7879 268.725C79.8786 268.725 79.9699 268.708 80.057 268.672C80.3196 268.563 80.4909 268.306 80.4909 268.022V258.63C81.396 257.505 81.8969 256.111 81.8969 254.665C81.8969 254.476 81.8848 254.289 81.8684 254.104C81.8783 254.056 81.8969 254.013 81.8969 253.962V228.655ZM79.0849 266.325L76.067 263.307C75.9297 263.17 75.7499 263.101 75.57 263.101C75.3901 263.101 75.2103 263.17 75.073 263.307L72.0551 266.325V259.926C72.0904 259.95 72.1298 259.966 72.1656 259.989C72.3552 260.11 72.5503 260.221 72.7513 260.321C72.8025 260.347 72.8516 260.376 72.9035 260.4C73.1521 260.515 73.4082 260.614 73.6702 260.696C73.7323 260.716 73.7957 260.73 73.8584 260.748C74.0689 260.807 74.2823 260.855 74.499 260.892C74.5764 260.906 74.653 260.919 74.731 260.93C75.0079 260.967 75.2872 260.992 75.57 260.992C75.8528 260.992 76.1321 260.967 76.409 260.93C76.487 260.919 76.5636 260.906 76.641 260.892C76.8577 260.855 77.0711 260.807 77.2816 260.748C77.3443 260.73 77.4077 260.716 77.4697 260.696C77.7318 260.614 77.9879 260.515 78.2365 260.4C78.2884 260.376 78.3375 260.347 78.3887 260.321C78.5897 260.221 78.7848 260.11 78.9744 259.989C79.0102 259.966 79.0496 259.95 79.0849 259.926V266.325ZM79.26 257.92C78.3287 258.979 76.9839 259.586 75.57 259.586C74.1561 259.586 72.8112 258.979 71.88 257.92C71.086 257.017 70.6491 255.862 70.6491 254.665C70.6491 251.952 72.8566 249.745 75.57 249.745C78.2834 249.745 80.4909 251.952 80.4909 254.665C80.4909 255.862 80.054 257.017 79.26 257.92ZM75.57 248.339C72.0815 248.339 69.2431 251.177 69.2431 254.665C69.2431 256.111 69.744 257.505 70.6491 258.63V258.883H55.8863C55.4988 258.883 55.1833 258.568 55.1833 258.18V228.655C55.1833 228.267 55.4988 227.952 55.8863 227.952H79.7879C80.1755 227.952 80.4909 228.267 80.4909 228.655V250.697C79.3301 249.261 77.5566 248.339 75.57 248.339Z" fill="#4F46E5"/>
<path d="M77.1817 252.763L74.8668 255.078L73.9578 254.169C73.6832 253.894 73.2384 253.894 72.9638 254.169C72.6892 254.443 72.6892 254.888 72.9638 255.163L74.3697 256.569C74.507 256.706 74.6869 256.775 74.8668 256.775C75.0466 256.775 75.2265 256.706 75.3638 256.569L78.1758 253.757C78.4504 253.482 78.4504 253.037 78.1758 252.763C77.9012 252.488 77.4563 252.488 77.1817 252.763Z" fill="#4F46E5"/>
<path d="M76.9768 232.17H58.6991C58.3109 232.17 57.9961 232.485 57.9961 232.873C57.9961 233.261 58.3109 233.576 58.6991 233.576H76.9768C77.365 233.576 77.6798 233.261 77.6798 232.873C77.6798 232.485 77.365 232.17 76.9768 232.17Z" fill="#4F46E5"/>
<path d="M75.5711 237.793H60.1053C59.7171 237.793 59.4023 238.108 59.4023 238.496C59.4023 238.884 59.7171 239.199 60.1053 239.199H75.5711C75.9593 239.199 76.2741 238.884 76.2741 238.496C76.2741 238.108 75.9593 237.793 75.5711 237.793Z" fill="#4F46E5"/>
<path d="M74.1615 243.418H61.5077C61.1195 243.418 60.8047 243.733 60.8047 244.121C60.8047 244.509 61.1195 244.824 61.5077 244.824H74.1615C74.5497 244.824 74.8645 244.509 74.8645 244.121C74.8645 243.733 74.5497 243.418 74.1615 243.418Z" fill="#4F46E5"/>
<rect x="329.812" width="82.729" height="82.729" rx="8.82443" fill="#EEF2FF"/>
<path d="M361.433 43.8001V41.3642M371.177 43.8001V36.4924M380.921 43.8001V31.6206M361.433 63.2874L371.177 53.5438L380.921 63.2874M349.254 21.877H393.1M351.69 21.877H390.664V51.1079C390.664 51.7539 390.408 52.3735 389.951 52.8303C389.494 53.2871 388.875 53.5438 388.228 53.5438H354.126C353.48 53.5438 352.86 53.2871 352.403 52.8303C351.946 52.3735 351.69 51.7539 351.69 51.1079V21.877Z" stroke="#4F46E5" stroke-width="2" stroke-linecap="round" stroke-linejoin="round"/>
<rect x="26.4727" width="82.729" height="82.729" rx="8.82443" fill="#EEF2FF"/>
<mask id="path-10-inside-1_7119_4558" fill="white">
<path fill-rule="evenodd" clip-rule="evenodd" d="M48.205 44.3703H51.7779C52.14 44.3703 52.4316 44.6645 52.4316 45.024V50.4903C52.4316 50.8524 52.1375 51.144 51.7779 51.144H48.205C47.8429 51.144 47.5512 50.8498 47.5512 50.4903V45.024C47.5512 44.6645 47.8429 44.3703 48.205 44.3703ZM72.6398 29.1131H46.0151C45.638 29.1131 45.2885 29.2866 45.0346 29.5657C44.7655 29.8624 44.5971 30.2747 44.5971 30.7298V55.444H63.3617H63.3793H63.3969H63.4145L63.4321 55.4466C63.4371 55.4466 63.4422 55.4466 63.4497 55.4491L63.4673 55.4516L63.5126 55.4591L63.6333 55.4994L63.6785 55.522C63.6835 55.5245 63.6886 55.527 63.6936 55.5295L63.7313 55.5522L63.8193 55.6226L63.8294 55.6326C63.8319 55.6351 63.8369 55.6402 63.8394 55.6427L63.9098 55.7307L63.9325 55.7684L63.9702 55.8438L64.0054 55.9494L64.0154 56.0098L64.0205 56.045V57.9811H71.6591V56.0802V56.0626V56.045L71.6641 56.0098L71.6742 55.9494L71.6993 55.874H71.6968L71.7068 55.8438L71.7446 55.7684L71.7672 55.7307L71.8175 55.6678L71.815 55.6703L71.8351 55.6452L71.8552 55.6251L71.9432 55.5547H71.9457L71.9834 55.5321L72.0438 55.5019L72.1041 55.4818C72.1091 55.4792 72.1142 55.4792 72.1192 55.4767L72.1645 55.4616L72.1946 55.4566L72.2122 55.4541L72.2273 55.4516L72.2625 55.4466H72.2801H91.0802L91.0777 30.7304C91.0777 30.2728 90.9092 29.8629 90.6402 29.5663C90.3862 29.2872 90.0392 29.1137 89.6596 29.1137H89.2547V29.9007C89.2547 30.2628 88.9606 30.5544 88.601 30.5544H87.017C86.9742 30.6776 86.929 30.7983 86.8812 30.914C86.8309 31.0322 86.7781 31.1503 86.7228 31.266L87.8442 32.3874C88.1007 32.6439 88.1007 33.0588 87.8442 33.3127L85.805 35.3519C85.5486 35.6084 85.1337 35.6084 84.8797 35.3519L83.7583 34.2305C83.6427 34.2858 83.527 34.3386 83.4063 34.3889C83.2906 34.4367 83.1699 34.4819 83.0467 34.5247V36.1087C83.0467 36.4708 82.7526 36.7624 82.393 36.7624H79.509C79.1469 36.7624 78.8553 36.4682 78.8553 36.1087L78.8502 34.5272C78.727 34.4844 78.6063 34.4392 78.4907 34.3914C78.3725 34.3411 78.2543 34.2883 78.1387 34.233L77.0173 35.3544C76.7608 35.6109 76.3459 35.6109 76.092 35.3544L74.0528 33.3152C73.7963 33.0588 73.7963 32.6439 74.0528 32.3899L75.1742 31.2685C75.1189 31.1528 75.0661 31.0372 75.0158 30.919C74.968 30.8033 74.9228 30.6827 74.88 30.5595H73.296C72.9339 30.5595 72.6422 30.2653 72.6422 29.9057L72.6398 29.1131ZM89.2546 27.8031V27.016C89.2546 26.654 88.9604 26.3623 88.6008 26.3623H87.0143C86.9715 26.2391 86.9263 26.1184 86.8785 26.0027C86.8282 25.8846 86.7754 25.7664 86.7201 25.6507L87.8415 24.5293C88.098 24.2728 88.098 23.8579 87.8415 23.604L85.8023 21.5648C85.5459 21.3083 85.131 21.3083 84.877 21.5648L83.7556 22.6862C83.64 22.6309 83.5243 22.5781 83.4036 22.5278C83.2879 22.4801 83.1673 22.4348 83.0441 22.3921V20.808C83.0441 20.4459 82.7499 20.1543 82.3903 20.1543H79.5063C79.1442 20.1543 78.8526 20.4485 78.8526 20.808V22.3921C78.7294 22.4348 78.6087 22.4801 78.493 22.5278C78.3749 22.5781 78.2567 22.6309 78.141 22.6862L77.0196 21.5648C76.7631 21.3083 76.3482 21.3083 76.0943 21.5648L74.0551 23.604C73.7986 23.8605 73.7986 24.2754 74.0551 24.5293L75.1765 25.6507C75.1212 25.7664 75.0684 25.8821 75.0181 26.0027C74.9703 26.1184 74.9251 26.2391 74.8823 26.3623H73.2983C72.9362 26.3623 72.6446 26.6565 72.6446 27.016V27.8031H46.0148C45.2529 27.8031 44.564 28.14 44.0687 28.6856C43.5859 29.2136 43.2892 29.9378 43.2892 30.7298V55.444H41.6498C41.2877 55.444 40.9961 55.7382 40.9961 56.0977V58.3859C40.9961 59.5173 41.4009 60.5533 42.0546 61.3101C42.731 62.092 43.6689 62.5748 44.7048 62.5748H90.9721C92.0106 62.5748 92.9484 62.0895 93.6223 61.3101C94.276 60.5558 94.6808 59.5199 94.6808 58.3859V56.0977C94.6808 55.7357 94.3866 55.444 94.0271 55.444H92.3877L92.3852 30.7298C92.3852 29.9378 92.086 29.2136 91.6057 28.6856C91.1079 28.1425 90.4189 27.8031 89.6571 27.8031H89.2546ZM91.7338 56.754H93.3707V58.3884C93.3707 59.2005 93.089 59.9322 92.634 60.4577C92.2015 60.958 91.6131 61.2673 90.9695 61.2673H44.7047C44.0636 61.2673 43.4727 60.958 43.0402 60.4577C42.5851 59.9322 42.3035 59.2005 42.3035 58.3884V56.754H62.7077V58.6373C62.7077 58.9993 63.0018 59.291 63.3614 59.291H72.3099C72.6719 59.291 72.9636 58.9968 72.9636 58.6373V56.754H91.7338ZM47.0757 53.3671C46.7136 53.3671 46.422 53.0729 46.422 52.7134C46.422 52.3513 46.7161 52.0597 47.0757 52.0597H70.7709C71.133 52.0597 71.4247 52.3539 71.4247 52.7134C71.4247 53.0755 71.1305 53.3671 70.7709 53.3671H47.0757ZM77.1904 28.4598C77.1904 27.4239 77.6103 26.4835 78.2917 25.8046C78.9706 25.1257 79.9109 24.7033 80.9469 24.7033C81.9853 24.7033 82.9232 25.1232 83.6021 25.8046C84.281 26.4835 84.7033 27.4239 84.7033 28.4598C84.7033 29.4983 84.2834 30.4361 83.6021 31.115C82.9232 31.7939 81.9828 32.2163 80.9469 32.2163C79.9084 32.2163 78.9706 31.7964 78.2917 31.115C77.6103 30.4361 77.1904 29.4957 77.1904 28.4598ZM79.2145 26.7274C79.657 26.2849 80.2705 26.0108 80.9444 26.0108C81.6207 26.0108 82.2317 26.2848 82.6743 26.7274C83.1168 27.1699 83.3909 27.7809 83.3909 28.4573C83.3909 29.1337 83.1168 29.7447 82.6743 30.1872C82.2317 30.6297 81.6207 30.9038 80.9444 30.9038C80.268 30.9038 79.657 30.6297 79.2145 30.1872C78.7719 29.7446 78.4978 29.1337 78.4978 28.4573C78.4978 27.7834 78.7719 27.1699 79.2145 26.7274ZM82.194 41.7535V37.806C82.194 37.4439 82.4882 37.1522 82.8477 37.1522C83.2098 37.1522 83.5014 37.4464 83.5014 37.806V41.7535C83.7755 41.8516 84.0194 42.0075 84.2206 42.2086C84.5726 42.5607 84.7888 43.0459 84.7888 43.584C84.7888 44.1196 84.5701 44.6073 84.2206 44.9594C83.8686 45.3114 83.3833 45.5276 82.8452 45.5276C82.3096 45.5276 81.8219 45.3089 81.4699 44.9594C81.1178 44.6073 80.9016 44.122 80.9016 43.584C80.9016 43.0484 81.1204 42.5607 81.4699 42.2086C81.676 42.0075 81.9224 41.8491 82.194 41.7535ZM82.4002 43.1339C82.5158 43.0182 82.6742 42.9478 82.8477 42.9478C83.0237 42.9478 83.1822 43.0182 83.2953 43.1339C83.411 43.2496 83.4814 43.408 83.4814 43.5815C83.4814 43.7575 83.411 43.9159 83.2953 44.029C83.1796 44.1447 83.0212 44.2151 82.8477 44.2151C82.6717 44.2151 82.5133 44.1447 82.4002 44.029C82.2845 43.9134 82.2141 43.755 82.2141 43.5815C82.2166 43.408 82.287 43.2496 82.4002 43.1339ZM84.5349 36.5664C84.5349 36.2043 84.8291 35.9127 85.1886 35.9127C85.5507 35.9127 85.8423 36.2069 85.8423 36.5664V38.9652L86.491 39.893C86.6545 39.8477 86.8255 39.8251 87.004 39.8251C87.5395 39.8251 88.0273 40.0438 88.3793 40.3933C88.7314 40.7453 88.9476 41.2306 88.9476 41.7687C88.9476 42.3042 88.7313 42.792 88.3793 43.144C88.0273 43.4961 87.542 43.7123 87.004 43.7123C86.4684 43.7123 85.9807 43.4961 85.6286 43.144C85.2766 42.792 85.0604 42.3067 85.0604 41.7687C85.0604 41.3488 85.1936 40.9591 85.4224 40.6397L84.6883 39.5887C84.5927 39.4756 84.5349 39.3272 84.5349 39.1663L84.5349 36.5664ZM86.5564 41.3211C86.6721 41.2054 86.8305 41.135 87.004 41.135C87.18 41.135 87.3384 41.2054 87.4516 41.3211C87.5672 41.4368 87.6376 41.5952 87.6376 41.7687C87.6376 41.9447 87.5672 42.1031 87.4516 42.2162C87.3359 42.3319 87.1775 42.4023 87.004 42.4023C86.828 42.4023 86.6696 42.3319 86.5564 42.2162C86.4408 42.1006 86.3704 41.9422 86.3704 41.7687C86.3704 41.5952 86.4408 41.4343 86.5564 41.3211ZM76.2401 46.2569C76.2401 45.7213 76.4589 45.2335 76.8084 44.8815C77.0095 44.6804 77.2534 44.522 77.5275 44.4264V41.6908H77.53C77.53 41.5625 77.5677 41.4318 77.6482 41.3186L79.3756 38.8444V37.8085C79.3756 37.4464 79.6698 37.1548 80.0293 37.1548C80.3914 37.1548 80.683 37.449 80.683 37.8085V39.0456C80.683 39.2065 80.6252 39.3523 80.5297 39.468L78.8375 41.8919V44.4264C79.1115 44.5244 79.3554 44.6803 79.5566 44.8815C79.9086 45.2335 80.1248 45.7188 80.1248 46.2568C80.1248 46.7924 79.9061 47.2802 79.5566 47.6322C79.2046 47.9842 78.7193 48.2004 78.1812 48.2004C77.6457 48.2004 77.1579 47.9842 76.8059 47.6322C76.4589 47.2777 76.2401 46.7924 76.2401 46.2569ZM77.7362 45.8068C77.8518 45.6911 78.0102 45.6207 78.1837 45.6207C78.3597 45.6207 78.5181 45.6911 78.6313 45.8068C78.747 45.9225 78.8174 46.0809 78.8174 46.2544C78.8174 46.4304 78.747 46.5888 78.6313 46.7019C78.5156 46.8176 78.3572 46.888 78.1837 46.888C78.0077 46.888 77.8493 46.8176 77.7362 46.7019C77.6205 46.5862 77.5501 46.4278 77.5501 46.2544C77.5501 46.0809 77.6205 45.9225 77.7362 45.8068ZM72.9438 40.7956C72.9438 40.26 73.1625 39.7723 73.512 39.4202C73.864 39.0682 74.3493 38.852 74.8874 38.852C75.0659 38.852 75.2369 38.8771 75.4003 38.9199L76.0792 37.9493V36.5664C76.0792 36.2044 76.3734 35.9127 76.7329 35.9127C77.095 35.9127 77.3867 36.2069 77.3867 36.5664V38.1505C77.3867 38.3114 77.3288 38.4572 77.2333 38.5729L76.4689 39.6692C76.6952 39.9885 76.831 40.3757 76.831 40.7981C76.831 41.3337 76.6122 41.8214 76.2627 42.1735C75.9107 42.5255 75.4254 42.7417 74.8874 42.7417C74.3518 42.7417 73.864 42.523 73.512 42.1735C73.1625 41.8189 72.9438 41.3336 72.9438 40.7956ZM74.4398 40.348C74.5555 40.2324 74.7139 40.162 74.8874 40.162C75.0634 40.162 75.2218 40.2324 75.3349 40.348C75.4506 40.4637 75.521 40.6221 75.521 40.7956C75.521 40.9716 75.4506 41.13 75.3349 41.2431C75.2193 41.3588 75.0609 41.4292 74.8874 41.4292C74.7114 41.4292 74.553 41.3588 74.4398 41.2431C74.3241 41.1275 74.2537 40.9691 74.2537 40.7956C74.2537 40.6196 74.3242 40.4612 74.4398 40.348ZM82.2824 33.3956C81.9707 33.4459 81.7343 33.7175 81.7343 34.0418V35.4574H80.1578V34.0418H80.1553C80.1553 33.7501 79.9592 33.4861 79.665 33.4107C79.4412 33.3529 79.2174 33.2774 78.9911 33.1844C78.7799 33.0964 78.5788 32.9958 78.3826 32.8827C78.1287 32.7117 77.7792 32.7394 77.5554 32.9631L76.5546 33.9639L75.4407 32.85L76.4415 31.8492C76.6477 31.6431 76.6979 31.3162 76.5421 31.0547C76.4214 30.851 76.3158 30.6373 76.2227 30.416C76.1372 30.2098 76.0643 30.0011 76.009 29.795C75.9587 29.4857 75.6872 29.2468 75.3628 29.2468H73.9472V27.6728H75.3628V27.6703C75.6545 27.6703 75.9185 27.4742 75.9939 27.18C76.0518 26.9562 76.1272 26.7299 76.2202 26.5061C76.3082 26.2949 76.4088 26.0938 76.5219 25.8977C76.6929 25.6437 76.6653 25.2967 76.4415 25.0704L75.4408 24.0697L76.5546 22.9558L77.5554 23.9565C77.7616 24.1627 78.0884 24.213 78.3499 24.0571C78.5536 23.9364 78.7673 23.8283 78.9886 23.7378C79.1948 23.6523 79.4035 23.5794 79.6096 23.524C79.9214 23.4737 80.1578 23.2022 80.1578 22.8778V21.4623H81.7343V22.8778H81.7368C81.7368 23.1695 81.9329 23.4335 82.2271 23.509C82.4509 23.5668 82.6772 23.6422 82.901 23.7352C83.1122 23.8233 83.3133 23.9238 83.5095 24.037C83.7634 24.208 84.1104 24.1803 84.3367 23.9565L85.3375 22.9558L86.4514 24.0697L85.4506 25.0679C85.2444 25.2741 85.1941 25.6009 85.35 25.8625C85.4707 26.0661 85.5763 26.2799 85.6694 26.5011C85.7549 26.7073 85.8278 26.916 85.8831 27.1222C85.9334 27.434 86.2049 27.6703 86.5293 27.6703H87.9449V29.2443H86.5318V29.2468C86.2401 29.2468 85.9761 29.4429 85.9007 29.7371C85.8429 29.9609 85.7674 30.1847 85.6744 30.411C85.5864 30.6222 85.4858 30.8233 85.3727 31.0195C85.2017 31.2734 85.2293 31.6204 85.4531 31.8467L86.4539 32.8475L85.34 33.9614L84.3392 32.9606C84.1331 32.7545 83.8062 32.7042 83.5447 32.8601C83.341 32.9807 83.1273 33.0889 82.906 33.1794C82.6948 33.2699 82.4886 33.3403 82.2824 33.3956ZM51.0007 38.3364L54.2267 35.8497C54.1538 35.651 54.1135 35.4373 54.1135 35.2135C54.1135 34.7081 54.3197 34.2505 54.6491 33.9186C54.981 33.5867 55.4386 33.3831 55.944 33.3831C56.4494 33.3831 56.907 33.5892 57.2389 33.9186C57.5708 34.2505 57.7745 34.7082 57.7745 35.2135C57.7745 35.2889 57.7694 35.3619 57.7619 35.4348L60.5277 36.6819C60.5529 36.6543 60.578 36.6266 60.6032 36.6015C60.9351 36.2696 61.3927 36.0659 61.8981 36.0659C62.2425 36.0659 62.5644 36.1614 62.8409 36.3274L66.1851 33.3453C66.0794 33.114 66.0216 32.8575 66.0216 32.5885C66.0216 32.0831 66.2278 31.6255 66.5572 31.2936C66.8891 30.9617 67.3467 30.758 67.8521 30.758C68.3575 30.758 68.8151 30.9642 69.147 31.2936C69.4789 31.6255 69.6825 32.0831 69.6825 32.5885C69.6825 33.0939 69.4764 33.5515 69.147 33.8834C68.8151 34.2153 68.3574 34.419 67.8521 34.419C67.5076 34.419 67.1857 34.3234 66.9092 34.1575L63.5651 37.1395C63.6707 37.3708 63.7285 37.6273 63.7285 37.8964C63.7285 38.4017 63.5223 38.8594 63.193 39.1913C62.8611 39.5231 62.4034 39.7268 61.8981 39.7268C61.3927 39.7268 60.935 39.5206 60.6032 39.1913C60.2713 38.8594 60.0676 38.4017 60.0676 37.8964C60.0676 37.8209 60.0726 37.748 60.0802 37.6751L57.3143 36.428C57.2892 36.4556 57.264 36.4808 57.2389 36.5084C56.907 36.8403 56.4494 37.044 55.944 37.044C55.5518 37.044 55.1897 36.9208 54.8905 36.7096L51.6896 39.1762C51.7751 39.3874 51.8229 39.6187 51.8229 39.8626C51.8229 40.368 51.6167 40.8256 51.2873 41.1575C50.9554 41.4894 50.4978 41.693 49.9924 41.693C49.4871 41.693 49.0294 41.4869 48.6975 41.1575C48.3656 40.8256 48.162 40.3679 48.162 39.8626C48.162 39.3572 48.3682 38.8996 48.6975 38.5677C49.0294 38.2358 49.4871 38.0321 49.9924 38.0321C50.3646 38.0321 50.7116 38.1428 51.0007 38.3364ZM67.8549 33.109C67.7116 33.109 67.5809 33.0511 67.4853 32.9556C67.3898 32.8601 67.3319 32.7318 67.3319 32.586C67.3319 32.4427 67.3898 32.3119 67.4853 32.2164C67.5809 32.1208 67.7091 32.063 67.8549 32.063C67.9983 32.063 68.129 32.1208 68.2246 32.2164C68.3201 32.3119 68.3779 32.4427 68.3779 32.586C68.3779 32.7293 68.3201 32.8601 68.2246 32.9556C68.129 33.0512 67.9983 33.109 67.8549 33.109ZM61.9009 38.4169C61.7575 38.4169 61.6268 38.359 61.5313 38.2635C61.4357 38.1679 61.3779 38.0397 61.3779 37.8939C61.3779 37.7505 61.4357 37.6198 61.5313 37.5242C61.6268 37.4312 61.755 37.3709 61.9009 37.3709C62.0442 37.3709 62.1749 37.4287 62.2705 37.5242C62.3635 37.6173 62.4239 37.7505 62.4239 37.8939C62.4239 38.0372 62.366 38.1679 62.2705 38.2635C62.1749 38.359 62.0442 38.4169 61.9009 38.4169ZM55.9468 35.734C55.8035 35.734 55.6727 35.6762 55.5772 35.5806C55.4816 35.4851 55.4238 35.3543 55.4238 35.211C55.4238 35.0677 55.4816 34.9369 55.5772 34.8414C55.6727 34.7458 55.801 34.688 55.9468 34.688C56.0901 34.688 56.2209 34.7458 56.3164 34.8414C56.412 34.9344 56.4698 35.0652 56.4698 35.211C56.4698 35.3543 56.412 35.4851 56.3164 35.5806C56.2209 35.6762 56.0901 35.734 55.9468 35.734ZM49.9927 40.3856C49.8494 40.3856 49.7187 40.3278 49.6231 40.2322C49.5276 40.1367 49.4697 40.0085 49.4697 39.8626C49.4697 39.7193 49.5276 39.5886 49.6231 39.493C49.7187 39.3975 49.8469 39.3396 49.9927 39.3396C50.1361 39.3396 50.2668 39.3975 50.3623 39.493C50.4579 39.5886 50.5157 39.7168 50.5157 39.8626C50.5157 40.006 50.4579 40.1367 50.3623 40.2322C50.2668 40.3278 50.1361 40.3856 49.9927 40.3856ZM66.07 36.8429H69.643C70.005 36.8429 70.2967 37.137 70.2967 37.4966V50.4913C70.2967 50.8533 70.0025 51.145 69.643 51.145H66.07C65.7079 51.145 65.4163 50.8508 65.4163 50.4913L65.4138 37.4992C65.4138 37.1371 65.708 36.8429 66.07 36.8429ZM68.9867 38.1529V49.837H66.7237V38.1529H68.9867ZM60.1135 42.2614H63.6864C64.0485 42.2614 64.3402 42.5556 64.3402 42.9151L64.3427 50.4913C64.3427 50.8533 64.0485 51.145 63.689 51.145H60.116C59.7539 51.145 59.4623 50.8508 59.4623 50.4913L59.4598 42.9151C59.4598 42.553 59.7539 42.2614 60.1135 42.2614ZM63.0327 43.5688V49.8372H60.7698V43.5688H63.0327ZM54.1595 40.1668H57.7325C58.0946 40.1668 58.3862 40.461 58.3862 40.8206L58.3887 50.4906C58.3887 50.8527 58.0946 51.1443 57.735 51.1443H54.1621C53.8 51.1443 53.5083 50.8501 53.5083 50.4906L53.5058 40.8225C53.5058 40.4604 53.7975 40.1668 54.1595 40.1668ZM57.0788 41.4769V49.837H54.8158V41.4769H57.0788ZM51.1247 45.6809H48.8618V49.8371H51.1247V45.6809Z"/>
</mask>
<path fill-rule="evenodd" clip-rule="evenodd" d="M48.205 44.3703H51.7779C52.14 44.3703 52.4316 44.6645 52.4316 45.024V50.4903C52.4316 50.8524 52.1375 51.144 51.7779 51.144H48.205C47.8429 51.144 47.5512 50.8498 47.5512 50.4903V45.024C47.5512 44.6645 47.8429 44.3703 48.205 44.3703ZM72.6398 29.1131H46.0151C45.638 29.1131 45.2885 29.2866 45.0346 29.5657C44.7655 29.8624 44.5971 30.2747 44.5971 30.7298V55.444H63.3617H63.3793H63.3969H63.4145L63.4321 55.4466C63.4371 55.4466 63.4422 55.4466 63.4497 55.4491L63.4673 55.4516L63.5126 55.4591L63.6333 55.4994L63.6785 55.522C63.6835 55.5245 63.6886 55.527 63.6936 55.5295L63.7313 55.5522L63.8193 55.6226L63.8294 55.6326C63.8319 55.6351 63.8369 55.6402 63.8394 55.6427L63.9098 55.7307L63.9325 55.7684L63.9702 55.8438L64.0054 55.9494L64.0154 56.0098L64.0205 56.045V57.9811H71.6591V56.0802V56.0626V56.045L71.6641 56.0098L71.6742 55.9494L71.6993 55.874H71.6968L71.7068 55.8438L71.7446 55.7684L71.7672 55.7307L71.8175 55.6678L71.815 55.6703L71.8351 55.6452L71.8552 55.6251L71.9432 55.5547H71.9457L71.9834 55.5321L72.0438 55.5019L72.1041 55.4818C72.1091 55.4792 72.1142 55.4792 72.1192 55.4767L72.1645 55.4616L72.1946 55.4566L72.2122 55.4541L72.2273 55.4516L72.2625 55.4466H72.2801H91.0802L91.0777 30.7304C91.0777 30.2728 90.9092 29.8629 90.6402 29.5663C90.3862 29.2872 90.0392 29.1137 89.6596 29.1137H89.2547V29.9007C89.2547 30.2628 88.9606 30.5544 88.601 30.5544H87.017C86.9742 30.6776 86.929 30.7983 86.8812 30.914C86.8309 31.0322 86.7781 31.1503 86.7228 31.266L87.8442 32.3874C88.1007 32.6439 88.1007 33.0588 87.8442 33.3127L85.805 35.3519C85.5486 35.6084 85.1337 35.6084 84.8797 35.3519L83.7583 34.2305C83.6427 34.2858 83.527 34.3386 83.4063 34.3889C83.2906 34.4367 83.1699 34.4819 83.0467 34.5247V36.1087C83.0467 36.4708 82.7526 36.7624 82.393 36.7624H79.509C79.1469 36.7624 78.8553 36.4682 78.8553 36.1087L78.8502 34.5272C78.727 34.4844 78.6063 34.4392 78.4907 34.3914C78.3725 34.3411 78.2543 34.2883 78.1387 34.233L77.0173 35.3544C76.7608 35.6109 76.3459 35.6109 76.092 35.3544L74.0528 33.3152C73.7963 33.0588 73.7963 32.6439 74.0528 32.3899L75.1742 31.2685C75.1189 31.1528 75.0661 31.0372 75.0158 30.919C74.968 30.8033 74.9228 30.6827 74.88 30.5595H73.296C72.9339 30.5595 72.6422 30.2653 72.6422 29.9057L72.6398 29.1131ZM89.2546 27.8031V27.016C89.2546 26.654 88.9604 26.3623 88.6008 26.3623H87.0143C86.9715 26.2391 86.9263 26.1184 86.8785 26.0027C86.8282 25.8846 86.7754 25.7664 86.7201 25.6507L87.8415 24.5293C88.098 24.2728 88.098 23.8579 87.8415 23.604L85.8023 21.5648C85.5459 21.3083 85.131 21.3083 84.877 21.5648L83.7556 22.6862C83.64 22.6309 83.5243 22.5781 83.4036 22.5278C83.2879 22.4801 83.1673 22.4348 83.0441 22.3921V20.808C83.0441 20.4459 82.7499 20.1543 82.3903 20.1543H79.5063C79.1442 20.1543 78.8526 20.4485 78.8526 20.808V22.3921C78.7294 22.4348 78.6087 22.4801 78.493 22.5278C78.3749 22.5781 78.2567 22.6309 78.141 22.6862L77.0196 21.5648C76.7631 21.3083 76.3482 21.3083 76.0943 21.5648L74.0551 23.604C73.7986 23.8605 73.7986 24.2754 74.0551 24.5293L75.1765 25.6507C75.1212 25.7664 75.0684 25.8821 75.0181 26.0027C74.9703 26.1184 74.9251 26.2391 74.8823 26.3623H73.2983C72.9362 26.3623 72.6446 26.6565 72.6446 27.016V27.8031H46.0148C45.2529 27.8031 44.564 28.14 44.0687 28.6856C43.5859 29.2136 43.2892 29.9378 43.2892 30.7298V55.444H41.6498C41.2877 55.444 40.9961 55.7382 40.9961 56.0977V58.3859C40.9961 59.5173 41.4009 60.5533 42.0546 61.3101C42.731 62.092 43.6689 62.5748 44.7048 62.5748H90.9721C92.0106 62.5748 92.9484 62.0895 93.6223 61.3101C94.276 60.5558 94.6808 59.5199 94.6808 58.3859V56.0977C94.6808 55.7357 94.3866 55.444 94.0271 55.444H92.3877L92.3852 30.7298C92.3852 29.9378 92.086 29.2136 91.6057 28.6856C91.1079 28.1425 90.4189 27.8031 89.6571 27.8031H89.2546ZM91.7338 56.754H93.3707V58.3884C93.3707 59.2005 93.089 59.9322 92.634 60.4577C92.2015 60.958 91.6131 61.2673 90.9695 61.2673H44.7047C44.0636 61.2673 43.4727 60.958 43.0402 60.4577C42.5851 59.9322 42.3035 59.2005 42.3035 58.3884V56.754H62.7077V58.6373C62.7077 58.9993 63.0018 59.291 63.3614 59.291H72.3099C72.6719 59.291 72.9636 58.9968 72.9636 58.6373V56.754H91.7338ZM47.0757 53.3671C46.7136 53.3671 46.422 53.0729 46.422 52.7134C46.422 52.3513 46.7161 52.0597 47.0757 52.0597H70.7709C71.133 52.0597 71.4247 52.3539 71.4247 52.7134C71.4247 53.0755 71.1305 53.3671 70.7709 53.3671H47.0757ZM77.1904 28.4598C77.1904 27.4239 77.6103 26.4835 78.2917 25.8046C78.9706 25.1257 79.9109 24.7033 80.9469 24.7033C81.9853 24.7033 82.9232 25.1232 83.6021 25.8046C84.281 26.4835 84.7033 27.4239 84.7033 28.4598C84.7033 29.4983 84.2834 30.4361 83.6021 31.115C82.9232 31.7939 81.9828 32.2163 80.9469 32.2163C79.9084 32.2163 78.9706 31.7964 78.2917 31.115C77.6103 30.4361 77.1904 29.4957 77.1904 28.4598ZM79.2145 26.7274C79.657 26.2849 80.2705 26.0108 80.9444 26.0108C81.6207 26.0108 82.2317 26.2848 82.6743 26.7274C83.1168 27.1699 83.3909 27.7809 83.3909 28.4573C83.3909 29.1337 83.1168 29.7447 82.6743 30.1872C82.2317 30.6297 81.6207 30.9038 80.9444 30.9038C80.268 30.9038 79.657 30.6297 79.2145 30.1872C78.7719 29.7446 78.4978 29.1337 78.4978 28.4573C78.4978 27.7834 78.7719 27.1699 79.2145 26.7274ZM82.194 41.7535V37.806C82.194 37.4439 82.4882 37.1522 82.8477 37.1522C83.2098 37.1522 83.5014 37.4464 83.5014 37.806V41.7535C83.7755 41.8516 84.0194 42.0075 84.2206 42.2086C84.5726 42.5607 84.7888 43.0459 84.7888 43.584C84.7888 44.1196 84.5701 44.6073 84.2206 44.9594C83.8686 45.3114 83.3833 45.5276 82.8452 45.5276C82.3096 45.5276 81.8219 45.3089 81.4699 44.9594C81.1178 44.6073 80.9016 44.122 80.9016 43.584C80.9016 43.0484 81.1204 42.5607 81.4699 42.2086C81.676 42.0075 81.9224 41.8491 82.194 41.7535ZM82.4002 43.1339C82.5158 43.0182 82.6742 42.9478 82.8477 42.9478C83.0237 42.9478 83.1822 43.0182 83.2953 43.1339C83.411 43.2496 83.4814 43.408 83.4814 43.5815C83.4814 43.7575 83.411 43.9159 83.2953 44.029C83.1796 44.1447 83.0212 44.2151 82.8477 44.2151C82.6717 44.2151 82.5133 44.1447 82.4002 44.029C82.2845 43.9134 82.2141 43.755 82.2141 43.5815C82.2166 43.408 82.287 43.2496 82.4002 43.1339ZM84.5349 36.5664C84.5349 36.2043 84.8291 35.9127 85.1886 35.9127C85.5507 35.9127 85.8423 36.2069 85.8423 36.5664V38.9652L86.491 39.893C86.6545 39.8477 86.8255 39.8251 87.004 39.8251C87.5395 39.8251 88.0273 40.0438 88.3793 40.3933C88.7314 40.7453 88.9476 41.2306 88.9476 41.7687C88.9476 42.3042 88.7313 42.792 88.3793 43.144C88.0273 43.4961 87.542 43.7123 87.004 43.7123C86.4684 43.7123 85.9807 43.4961 85.6286 43.144C85.2766 42.792 85.0604 42.3067 85.0604 41.7687C85.0604 41.3488 85.1936 40.9591 85.4224 40.6397L84.6883 39.5887C84.5927 39.4756 84.5349 39.3272 84.5349 39.1663L84.5349 36.5664ZM86.5564 41.3211C86.6721 41.2054 86.8305 41.135 87.004 41.135C87.18 41.135 87.3384 41.2054 87.4516 41.3211C87.5672 41.4368 87.6376 41.5952 87.6376 41.7687C87.6376 41.9447 87.5672 42.1031 87.4516 42.2162C87.3359 42.3319 87.1775 42.4023 87.004 42.4023C86.828 42.4023 86.6696 42.3319 86.5564 42.2162C86.4408 42.1006 86.3704 41.9422 86.3704 41.7687C86.3704 41.5952 86.4408 41.4343 86.5564 41.3211ZM76.2401 46.2569C76.2401 45.7213 76.4589 45.2335 76.8084 44.8815C77.0095 44.6804 77.2534 44.522 77.5275 44.4264V41.6908H77.53C77.53 41.5625 77.5677 41.4318 77.6482 41.3186L79.3756 38.8444V37.8085C79.3756 37.4464 79.6698 37.1548 80.0293 37.1548C80.3914 37.1548 80.683 37.449 80.683 37.8085V39.0456C80.683 39.2065 80.6252 39.3523 80.5297 39.468L78.8375 41.8919V44.4264C79.1115 44.5244 79.3554 44.6803 79.5566 44.8815C79.9086 45.2335 80.1248 45.7188 80.1248 46.2568C80.1248 46.7924 79.9061 47.2802 79.5566 47.6322C79.2046 47.9842 78.7193 48.2004 78.1812 48.2004C77.6457 48.2004 77.1579 47.9842 76.8059 47.6322C76.4589 47.2777 76.2401 46.7924 76.2401 46.2569ZM77.7362 45.8068C77.8518 45.6911 78.0102 45.6207 78.1837 45.6207C78.3597 45.6207 78.5181 45.6911 78.6313 45.8068C78.747 45.9225 78.8174 46.0809 78.8174 46.2544C78.8174 46.4304 78.747 46.5888 78.6313 46.7019C78.5156 46.8176 78.3572 46.888 78.1837 46.888C78.0077 46.888 77.8493 46.8176 77.7362 46.7019C77.6205 46.5862 77.5501 46.4278 77.5501 46.2544C77.5501 46.0809 77.6205 45.9225 77.7362 45.8068ZM72.9438 40.7956C72.9438 40.26 73.1625 39.7723 73.512 39.4202C73.864 39.0682 74.3493 38.852 74.8874 38.852C75.0659 38.852 75.2369 38.8771 75.4003 38.9199L76.0792 37.9493V36.5664C76.0792 36.2044 76.3734 35.9127 76.7329 35.9127C77.095 35.9127 77.3867 36.2069 77.3867 36.5664V38.1505C77.3867 38.3114 77.3288 38.4572 77.2333 38.5729L76.4689 39.6692C76.6952 39.9885 76.831 40.3757 76.831 40.7981C76.831 41.3337 76.6122 41.8214 76.2627 42.1735C75.9107 42.5255 75.4254 42.7417 74.8874 42.7417C74.3518 42.7417 73.864 42.523 73.512 42.1735C73.1625 41.8189 72.9438 41.3336 72.9438 40.7956ZM74.4398 40.348C74.5555 40.2324 74.7139 40.162 74.8874 40.162C75.0634 40.162 75.2218 40.2324 75.3349 40.348C75.4506 40.4637 75.521 40.6221 75.521 40.7956C75.521 40.9716 75.4506 41.13 75.3349 41.2431C75.2193 41.3588 75.0609 41.4292 74.8874 41.4292C74.7114 41.4292 74.553 41.3588 74.4398 41.2431C74.3241 41.1275 74.2537 40.9691 74.2537 40.7956C74.2537 40.6196 74.3242 40.4612 74.4398 40.348ZM82.2824 33.3956C81.9707 33.4459 81.7343 33.7175 81.7343 34.0418V35.4574H80.1578V34.0418H80.1553C80.1553 33.7501 79.9592 33.4861 79.665 33.4107C79.4412 33.3529 79.2174 33.2774 78.9911 33.1844C78.7799 33.0964 78.5788 32.9958 78.3826 32.8827C78.1287 32.7117 77.7792 32.7394 77.5554 32.9631L76.5546 33.9639L75.4407 32.85L76.4415 31.8492C76.6477 31.6431 76.6979 31.3162 76.5421 31.0547C76.4214 30.851 76.3158 30.6373 76.2227 30.416C76.1372 30.2098 76.0643 30.0011 76.009 29.795C75.9587 29.4857 75.6872 29.2468 75.3628 29.2468H73.9472V27.6728H75.3628V27.6703C75.6545 27.6703 75.9185 27.4742 75.9939 27.18C76.0518 26.9562 76.1272 26.7299 76.2202 26.5061C76.3082 26.2949 76.4088 26.0938 76.5219 25.8977C76.6929 25.6437 76.6653 25.2967 76.4415 25.0704L75.4408 24.0697L76.5546 22.9558L77.5554 23.9565C77.7616 24.1627 78.0884 24.213 78.3499 24.0571C78.5536 23.9364 78.7673 23.8283 78.9886 23.7378C79.1948 23.6523 79.4035 23.5794 79.6096 23.524C79.9214 23.4737 80.1578 23.2022 80.1578 22.8778V21.4623H81.7343V22.8778H81.7368C81.7368 23.1695 81.9329 23.4335 82.2271 23.509C82.4509 23.5668 82.6772 23.6422 82.901 23.7352C83.1122 23.8233 83.3133 23.9238 83.5095 24.037C83.7634 24.208 84.1104 24.1803 84.3367 23.9565L85.3375 22.9558L86.4514 24.0697L85.4506 25.0679C85.2444 25.2741 85.1941 25.6009 85.35 25.8625C85.4707 26.0661 85.5763 26.2799 85.6694 26.5011C85.7549 26.7073 85.8278 26.916 85.8831 27.1222C85.9334 27.434 86.2049 27.6703 86.5293 27.6703H87.9449V29.2443H86.5318V29.2468C86.2401 29.2468 85.9761 29.4429 85.9007 29.7371C85.8429 29.9609 85.7674 30.1847 85.6744 30.411C85.5864 30.6222 85.4858 30.8233 85.3727 31.0195C85.2017 31.2734 85.2293 31.6204 85.4531 31.8467L86.4539 32.8475L85.34 33.9614L84.3392 32.9606C84.1331 32.7545 83.8062 32.7042 83.5447 32.8601C83.341 32.9807 83.1273 33.0889 82.906 33.1794C82.6948 33.2699 82.4886 33.3403 82.2824 33.3956ZM51.0007 38.3364L54.2267 35.8497C54.1538 35.651 54.1135 35.4373 54.1135 35.2135C54.1135 34.7081 54.3197 34.2505 54.6491 33.9186C54.981 33.5867 55.4386 33.3831 55.944 33.3831C56.4494 33.3831 56.907 33.5892 57.2389 33.9186C57.5708 34.2505 57.7745 34.7082 57.7745 35.2135C57.7745 35.2889 57.7694 35.3619 57.7619 35.4348L60.5277 36.6819C60.5529 36.6543 60.578 36.6266 60.6032 36.6015C60.9351 36.2696 61.3927 36.0659 61.8981 36.0659C62.2425 36.0659 62.5644 36.1614 62.8409 36.3274L66.1851 33.3453C66.0794 33.114 66.0216 32.8575 66.0216 32.5885C66.0216 32.0831 66.2278 31.6255 66.5572 31.2936C66.8891 30.9617 67.3467 30.758 67.8521 30.758C68.3575 30.758 68.8151 30.9642 69.147 31.2936C69.4789 31.6255 69.6825 32.0831 69.6825 32.5885C69.6825 33.0939 69.4764 33.5515 69.147 33.8834C68.8151 34.2153 68.3574 34.419 67.8521 34.419C67.5076 34.419 67.1857 34.3234 66.9092 34.1575L63.5651 37.1395C63.6707 37.3708 63.7285 37.6273 63.7285 37.8964C63.7285 38.4017 63.5223 38.8594 63.193 39.1913C62.8611 39.5231 62.4034 39.7268 61.8981 39.7268C61.3927 39.7268 60.935 39.5206 60.6032 39.1913C60.2713 38.8594 60.0676 38.4017 60.0676 37.8964C60.0676 37.8209 60.0726 37.748 60.0802 37.6751L57.3143 36.428C57.2892 36.4556 57.264 36.4808 57.2389 36.5084C56.907 36.8403 56.4494 37.044 55.944 37.044C55.5518 37.044 55.1897 36.9208 54.8905 36.7096L51.6896 39.1762C51.7751 39.3874 51.8229 39.6187 51.8229 39.8626C51.8229 40.368 51.6167 40.8256 51.2873 41.1575C50.9554 41.4894 50.4978 41.693 49.9924 41.693C49.4871 41.693 49.0294 41.4869 48.6975 41.1575C48.3656 40.8256 48.162 40.3679 48.162 39.8626C48.162 39.3572 48.3682 38.8996 48.6975 38.5677C49.0294 38.2358 49.4871 38.0321 49.9924 38.0321C50.3646 38.0321 50.7116 38.1428 51.0007 38.3364ZM67.8549 33.109C67.7116 33.109 67.5809 33.0511 67.4853 32.9556C67.3898 32.8601 67.3319 32.7318 67.3319 32.586C67.3319 32.4427 67.3898 32.3119 67.4853 32.2164C67.5809 32.1208 67.7091 32.063 67.8549 32.063C67.9983 32.063 68.129 32.1208 68.2246 32.2164C68.3201 32.3119 68.3779 32.4427 68.3779 32.586C68.3779 32.7293 68.3201 32.8601 68.2246 32.9556C68.129 33.0512 67.9983 33.109 67.8549 33.109ZM61.9009 38.4169C61.7575 38.4169 61.6268 38.359 61.5313 38.2635C61.4357 38.1679 61.3779 38.0397 61.3779 37.8939C61.3779 37.7505 61.4357 37.6198 61.5313 37.5242C61.6268 37.4312 61.755 37.3709 61.9009 37.3709C62.0442 37.3709 62.1749 37.4287 62.2705 37.5242C62.3635 37.6173 62.4239 37.7505 62.4239 37.8939C62.4239 38.0372 62.366 38.1679 62.2705 38.2635C62.1749 38.359 62.0442 38.4169 61.9009 38.4169ZM55.9468 35.734C55.8035 35.734 55.6727 35.6762 55.5772 35.5806C55.4816 35.4851 55.4238 35.3543 55.4238 35.211C55.4238 35.0677 55.4816 34.9369 55.5772 34.8414C55.6727 34.7458 55.801 34.688 55.9468 34.688C56.0901 34.688 56.2209 34.7458 56.3164 34.8414C56.412 34.9344 56.4698 35.0652 56.4698 35.211C56.4698 35.3543 56.412 35.4851 56.3164 35.5806C56.2209 35.6762 56.0901 35.734 55.9468 35.734ZM49.9927 40.3856C49.8494 40.3856 49.7187 40.3278 49.6231 40.2322C49.5276 40.1367 49.4697 40.0085 49.4697 39.8626C49.4697 39.7193 49.5276 39.5886 49.6231 39.493C49.7187 39.3975 49.8469 39.3396 49.9927 39.3396C50.1361 39.3396 50.2668 39.3975 50.3623 39.493C50.4579 39.5886 50.5157 39.7168 50.5157 39.8626C50.5157 40.006 50.4579 40.1367 50.3623 40.2322C50.2668 40.3278 50.1361 40.3856 49.9927 40.3856ZM66.07 36.8429H69.643C70.005 36.8429 70.2967 37.137 70.2967 37.4966V50.4913C70.2967 50.8533 70.0025 51.145 69.643 51.145H66.07C65.7079 51.145 65.4163 50.8508 65.4163 50.4913L65.4138 37.4992C65.4138 37.1371 65.708 36.8429 66.07 36.8429ZM68.9867 38.1529V49.837H66.7237V38.1529H68.9867ZM60.1135 42.2614H63.6864C64.0485 42.2614 64.3402 42.5556 64.3402 42.9151L64.3427 50.4913C64.3427 50.8533 64.0485 51.145 63.689 51.145H60.116C59.7539 51.145 59.4623 50.8508 59.4623 50.4913L59.4598 42.9151C59.4598 42.553 59.7539 42.2614 60.1135 42.2614ZM63.0327 43.5688V49.8372H60.7698V43.5688H63.0327ZM54.1595 40.1668H57.7325C58.0946 40.1668 58.3862 40.461 58.3862 40.8206L58.3887 50.4906C58.3887 50.8527 58.0946 51.1443 57.735 51.1443H54.1621C53.8 51.1443 53.5083 50.8501 53.5083 50.4906L53.5058 40.8225C53.5058 40.4604 53.7975 40.1668 54.1595 40.1668ZM57.0788 41.4769V49.837H54.8158V41.4769H57.0788ZM51.1247 45.6809H48.8618V49.8371H51.1247V45.6809Z" fill="#4F46E5" stroke="#4F46E5" stroke-width="2" mask="url(#path-10-inside-1_7119_4558)"/>
<rect x="329.812" y="206.271" width="82.729" height="82.729" rx="8.82443" fill="#EEF2FF"/>
<path d="M354.126 245.2C352.834 245.2 351.594 245.713 350.681 246.627C349.767 247.541 349.254 248.78 349.254 250.072V264.687C349.254 265.98 349.767 267.219 350.681 268.132C351.594 269.046 352.834 269.559 354.126 269.559H388.228C389.521 269.559 390.76 269.046 391.673 268.132C392.587 267.219 393.1 265.98 393.1 264.687V250.072C393.1 248.78 392.587 247.541 391.673 246.627C390.76 245.713 389.521 245.2 388.228 245.2H354.126ZM388.228 245.2V240.328C388.228 239.036 387.715 237.797 386.802 236.883C385.888 235.97 384.649 235.457 383.357 235.457M354.126 245.2V240.328C354.126 239.036 354.639 237.797 355.553 236.883C356.466 235.97 357.705 235.457 358.998 235.457M383.357 235.457V230.585C383.357 229.293 382.843 228.053 381.93 227.14C381.016 226.226 379.777 225.713 378.485 225.713H363.869C362.577 225.713 361.338 226.226 360.424 227.14C359.511 228.053 358.998 229.293 358.998 230.585V235.457M383.357 235.457H358.998" stroke="#4F46E5" stroke-width="2" stroke-linecap="round" stroke-linejoin="round"/>
<rect x="359.594" y="103.688" width="82.729" height="82.729" rx="8.82443" fill="#EEF2FF"/>
<path d="M393.651 145.052L398.522 149.924L408.266 140.18M421.951 130.397C414.249 130.806 406.699 128.143 400.958 122.992C395.218 128.143 387.668 130.806 379.966 130.397C379.346 132.797 379.033 135.266 379.035 137.744C379.035 151.363 388.35 162.81 400.958 166.054C413.567 162.81 422.882 151.366 422.882 137.744C422.882 135.206 422.558 132.746 421.951 130.397Z" stroke="#4F46E5" stroke-width="2" stroke-linecap="round" stroke-linejoin="round"/>
<rect y="103.688" width="82.729" height="82.729" rx="8.82443" fill="#EEF2FF"/>
<path d="M45.8955 159.331C38.8707 159.331 31.8496 159.364 24.8249 159.3C23.4778 159.289 22.921 159.677 23.1279 161.024C23.1655 161.268 23.1317 161.524 23.1317 161.776C23.1317 166.16 23.1317 166.137 27.4587 166.111C32.0378 166.084 36.6131 166.103 41.1922 166.103C46.7721 166.103 52.3559 166.051 57.9358 166.141C59.3393 166.163 59.6666 165.622 59.6403 164.41C59.5989 162.593 59.6215 160.772 59.6327 158.954C59.6403 157.927 59.3468 157.389 58.1239 157.419C54.7414 157.506 51.3512 157.479 47.9649 157.434C46.4599 157.412 46.1664 158.461 46.1137 159.519C46.0083 161.584 46.0836 163.658 46.0836 165.727" stroke="#4F46E5" stroke-width="1.68718" stroke-linecap="round" stroke-linejoin="round"/>
<path d="M42.5086 135.626C42.5726 132.804 42.772 129.975 42.6478 127.164C42.565 125.237 40.7778 123.962 38.746 123.962C37.6812 123.962 36.6126 123.962 35.5478 123.962C33.5084 123.962 32.0824 125.298 31.9808 127.348C31.8905 129.166 31.8491 130.987 31.7852 132.804" stroke="#4F46E5" stroke-width="1.68718" stroke-linecap="round" stroke-linejoin="round"/>
<path d="M36.4883 127.349V132.616" stroke="#4F46E5" stroke-width="1.68718" stroke-linecap="round" stroke-linejoin="round"/>
<path d="M37.3219 132.797H31.1512C30.4572 132.797 29.8945 133.36 29.8945 134.054V140.785C29.8945 141.479 30.4572 142.042 31.1512 142.042H37.3219C38.016 142.042 38.5786 141.479 38.5786 140.785V134.054C38.5786 133.36 38.016 132.797 37.3219 132.797Z" stroke="#4F46E5" stroke-width="1.68718" stroke-linecap="round" stroke-linejoin="round"/>
<path d="M31.3358 142.041H37.1227V146.598C37.1227 147.29 36.5583 147.854 35.866 147.854H32.5887C31.8964 147.854 31.332 147.29 31.332 146.598V142.041H31.3358Z" stroke="#4F46E5" stroke-width="1.68718" stroke-linecap="round" stroke-linejoin="round"/>
<path d="M57.1836 157.419H48.7177V155.319C48.7177 154.627 49.2821 154.063 49.9744 154.063H55.9269C56.6192 154.063 57.1836 154.627 57.1836 155.319V157.419Z" stroke="#4F46E5" stroke-width="1.68718" stroke-linecap="round" stroke-linejoin="round"/>
<path d="M32.3164 147.854H36.1543V149.668C36.1543 150.36 35.5899 150.925 34.8976 150.925H33.5731C32.8808 150.925 32.3164 150.36 32.3164 149.668V147.854Z" stroke="#4F46E5" stroke-width="1.68718" stroke-linecap="round" stroke-linejoin="round"/>
<path d="M35.0797 155.149L34.2294 156.684L33.3828 155.149V151.052H35.0797V155.149Z" stroke="#4F46E5" stroke-width="1.68718" stroke-linecap="round" stroke-linejoin="round"/>
<path d="M54.3602 139.02V154.062H51.9258V139.02" stroke="#4F46E5" stroke-width="1.68718" stroke-linecap="round" stroke-linejoin="round"/>
<path d="M51.13 137.42C51.13 137.879 51.2843 138.301 51.5439 138.639H38.5742V136.201H51.5439C51.2843 136.54 51.13 136.961 51.13 137.42Z" stroke="#4F46E5" stroke-width="1.68718" stroke-linecap="round" stroke-linejoin="round"/>
<path d="M51.5391 138.64C51.904 139.122 52.4872 139.434 53.1382 139.434C54.2519 139.434 55.1549 138.535 55.1549 137.421C55.1549 136.307 54.2519 135.404 53.1382 135.404C52.4835 135.404 51.904 135.717 51.5391 136.202" stroke="#4F46E5" stroke-width="1.68718" stroke-linecap="round" stroke-linejoin="round"/>
<path d="M117.005 49.5369C116.704 49.4912 116.423 49.6982 116.377 49.9993C116.331 50.3005 116.538 50.5817 116.84 50.6275L116.922 50.0822L117.005 49.5369ZM197.211 99.7902C197.513 99.8255 197.787 99.609 197.822 99.3064L198.399 94.3763C198.434 94.0737 198.218 93.7998 197.915 93.7644C197.613 93.7291 197.339 93.9456 197.303 94.2482L196.791 98.6305L192.409 98.1182C192.106 98.0828 191.832 98.2994 191.797 98.6019C191.761 98.9045 191.978 99.1784 192.28 99.2138L197.211 99.7902ZM116.922 50.0822L116.84 50.6275C135.94 53.5301 149.685 57.8827 161.77 65.4315C173.861 72.9841 184.331 83.7612 196.842 99.5844L197.275 99.2424L197.707 98.9003C185.169 83.0425 174.606 72.1486 162.354 64.4959C150.097 56.8394 136.191 52.4525 117.005 49.5369L116.922 50.0822Z" fill="#F9FAFB"/>
<path d="M113.699 248.162C113.397 248.208 113.116 248.001 113.07 247.7C113.025 247.399 113.232 247.118 113.533 247.072L113.616 247.617L113.699 248.162ZM200.963 193.59C201.265 193.555 201.539 193.771 201.575 194.074L202.151 199.004C202.187 199.307 201.97 199.581 201.667 199.616C201.365 199.651 201.091 199.435 201.056 199.132L200.543 194.75L196.161 195.262C195.858 195.298 195.584 195.081 195.549 194.779C195.514 194.476 195.73 194.202 196.033 194.167L200.963 193.59ZM113.616 247.617L113.533 247.072C134.314 243.914 149.275 239.177 162.429 230.96C175.589 222.74 186.983 211.011 200.594 193.796L201.027 194.138L201.46 194.48C187.821 211.73 176.334 223.575 163.013 231.896C149.686 240.22 134.565 244.991 113.699 248.162L113.616 247.617Z" fill="#F9FAFB"/>
<path d="M90.608 141.72C90.3157 141.635 90.1482 141.328 90.2339 141.036C90.3195 140.744 90.6259 140.576 90.9182 140.662L90.7631 141.191L90.608 141.72ZM174.108 145.771C174.35 145.956 174.397 146.302 174.212 146.544L171.203 150.492C171.018 150.734 170.672 150.781 170.43 150.596C170.188 150.411 170.141 150.065 170.326 149.823L173.001 146.314L169.492 143.639C169.25 143.455 169.203 143.108 169.388 142.866C169.573 142.624 169.919 142.577 170.161 142.762L174.108 145.771ZM90.7631 141.191L90.9182 140.662C123.523 150.218 141.711 149.976 173.7 145.664L173.774 146.21L173.847 146.757C141.75 151.084 123.4 151.331 90.608 141.72L90.7631 141.191Z" fill="#F9FAFB"/>
<path d="M318.476 52.6431C318.721 52.8237 318.774 53.1689 318.593 53.4142L315.651 57.4116C315.47 57.6569 315.125 57.7094 314.879 57.5288C314.634 57.3483 314.582 57.003 314.762 56.7577L317.378 53.2045L313.825 50.5887C313.579 50.4081 313.527 50.0629 313.708 49.8176C313.888 49.5723 314.233 49.5198 314.479 49.7004L318.476 52.6431ZM240.869 100.975C240.68 101.214 240.333 101.254 240.094 101.065C239.855 100.876 239.815 100.53 240.004 100.291L240.436 100.633L240.869 100.975ZM318.149 53.0873L318.232 53.6325C299.761 56.4396 286.469 60.6487 274.784 67.9478C263.093 75.2506 252.968 85.6718 240.869 100.975L240.436 100.633L240.004 100.291C252.13 84.9532 262.348 74.4152 274.2 67.0122C286.058 59.6054 299.51 55.362 318.066 52.542L318.149 53.0873Z" fill="#F9FAFB"/>
<path d="M323.864 238.115C324.109 237.935 324.161 237.59 323.981 237.344L321.038 233.347C320.858 233.102 320.512 233.049 320.267 233.23C320.022 233.41 319.969 233.756 320.15 234.001L322.766 237.554L319.212 240.17C318.967 240.35 318.915 240.696 319.095 240.941C319.276 241.186 319.621 241.239 319.866 241.058L323.864 238.115ZM247.406 190.487C247.217 190.248 246.87 190.207 246.631 190.396C246.392 190.585 246.352 190.932 246.54 191.171L246.973 190.829L247.406 190.487ZM323.537 237.671L323.62 237.126C305.422 234.361 292.329 230.214 280.817 223.024C269.3 215.83 259.326 205.563 247.406 190.487L246.973 190.829L246.54 191.171C258.488 206.282 268.555 216.665 280.233 223.959C291.917 231.257 305.171 235.438 323.454 238.217L323.537 237.671Z" fill="#F9FAFB"/>
<path d="M347.571 140.353C347.717 140.085 347.619 139.75 347.351 139.604L342.996 137.223C342.729 137.077 342.394 137.175 342.247 137.442C342.101 137.71 342.2 138.045 342.467 138.191L346.338 140.307L344.222 144.179C344.076 144.446 344.174 144.781 344.441 144.927C344.708 145.073 345.043 144.975 345.19 144.708L347.571 140.353ZM263.703 144.587C263.402 144.547 263.124 144.758 263.083 145.06C263.042 145.362 263.254 145.64 263.556 145.681L263.63 145.134L263.703 144.587ZM347.087 140.088L346.932 139.559C314.151 149.166 295.865 148.923 263.703 144.587L263.63 145.134L263.556 145.681C295.826 150.031 314.274 150.279 347.242 140.617L347.087 140.088Z" fill="#F9FAFB"/>
<g clip-path="url(#clip0_7119_4558)">
<path d="M223.781 153.134C230.097 155.805 236.163 158.977 242.702 160.452C245.624 160.925 248.573 161.175 251.467 161.175V145.093H249.046C240.087 145.093 231.795 149.74 223.781 153.134Z" fill="#DA3D0B"/>
<path d="M205.114 158.253C202.192 158.003 199.27 158.003 196.377 158.003H189.727V172.778C189.727 175.449 191.897 177.592 194.54 177.592H246.656C249.327 177.592 251.47 175.421 251.47 172.778V170.914C245.154 170.914 238.587 170.107 232.744 167.658C223.561 164.514 215.075 158.504 205.114 158.253Z" fill="#DA3D0B"/>
<path d="M246.684 115.821H194.54C191.897 115.821 189.727 117.992 189.727 120.663V148.042C195.57 148.042 201.719 148.293 207.534 147.792C215.548 147.069 222.588 142.672 230.1 139.751C236.89 136.829 244.207 135.132 251.498 135.354V120.663C251.498 117.992 249.327 115.821 246.684 115.821Z" fill="#DA3D0B"/>
<path d="M251.498 145.093V135.354C244.207 135.104 236.917 136.829 230.1 139.75C222.56 142.672 215.548 147.068 207.534 147.792C201.719 148.293 195.57 148.042 189.727 148.042V158.031H196.377C199.27 158.031 202.192 158.031 205.114 158.282C215.075 158.532 223.561 164.542 232.771 167.686C238.615 170.135 245.181 170.942 251.498 170.942V161.203C248.604 161.203 245.627 160.953 242.733 160.48C236.166 159.005 230.128 155.861 223.812 153.162C231.825 149.739 240.117 145.121 249.077 145.121L251.498 145.093Z" fill="white"/>
</g>
<defs>
<clipPath id="clip0_7119_4558">
<rect width="61.771" height="61.771" fill="white" transform="translate(189.727 115.82)"/>
</clipPath>
</defs>
</svg>
