<svg width="443" height="289" viewBox="0 0 443 289" fill="none" xmlns="http://www.w3.org/2000/svg">
<rect x="26.4727" y="206.271" width="82.729" height="82.729" rx="8.82443" fill="#EEF2FF"/>
<path d="M76.0048 266.418C75.9901 266.418 75.9772 266.404 75.9772 266.389C75.9772 264.262 75.979 262.642 75.9808 261.537C75.9808 260.972 75.9422 260.657 75.5056 260.405C75.3472 260.343 75.1777 260.316 75.0083 260.33H71.339C71.3187 260.33 71.3021 260.313 71.3021 260.292C71.2929 258.882 71.2911 257.911 71.2966 257.38H71.2984C71.3224 256.734 71.2855 256.088 71.1861 255.449C70.7072 253.14 68.9425 251.341 66.6878 250.863C66.6565 250.855 66.6289 250.835 66.6123 250.804L61.8029 241.644V241.646C61.7826 241.604 61.7955 241.555 61.8324 241.53L65.8406 238.979C65.8572 238.97 65.8756 238.968 65.8922 238.976C67.2129 239.518 68.6755 239.586 70.0404 239.168C70.0662 239.161 70.0939 239.168 70.1123 239.187L76.1944 245.476H76.1963C76.2294 245.512 76.2497 245.559 76.2497 245.608C76.2663 247.329 77.1707 248.913 78.6278 249.769C79.7864 250.443 81.1661 250.598 82.4389 250.192C82.4813 250.181 82.5255 250.2 82.5494 250.237C83.2383 251.369 83.8241 252.352 84.3067 253.181C84.793 254.015 85.9738 253.433 85.8227 252.558C85.7822 252.359 85.7066 252.17 85.6016 251.998C85.1909 251.284 84.6732 250.4 84.0488 249.344C84.0285 249.31 84.0359 249.268 84.0635 249.243C85.0398 248.433 85.6514 247.248 85.7545 245.965C85.8577 244.682 85.445 243.41 84.6106 242.447C83.7264 241.415 82.4573 240.816 81.1181 240.797C81.0979 240.797 81.0795 240.788 81.0666 240.773L74.3412 233.823C74.3265 233.81 74.3191 233.791 74.3191 233.772V233.237V233.235C74.297 231.514 73.5768 229.881 72.3316 228.727C71.0845 227.574 69.4267 227.007 67.756 227.16C66.2363 227.285 64.8161 227.977 63.7625 229.105C63.5746 229.301 63.4272 229.526 63.2522 229.734C63.2283 229.764 63.2007 229.789 63.1675 229.808C60.3676 231.538 57.0665 233.596 53.2648 235.979V235.981C52.7435 236.287 52.2461 236.635 51.7765 237.02C50.8813 237.806 50.2531 238.86 49.9805 240.036C49.8534 240.669 49.8092 241.315 49.8515 241.959C50.0671 244.794 52.2996 247.023 55.0679 247.169C55.0882 247.171 55.1084 247.182 55.1177 247.203L59.6361 255.806V255.804C59.6472 255.825 59.6509 255.846 59.649 255.869C59.6048 256.288 59.5845 256.711 59.5901 257.133C59.5956 258.54 59.5956 259.597 59.5901 260.3C59.5901 260.313 59.579 260.324 59.5661 260.324C59.2696 260.33 58.0133 260.33 55.801 260.324C55.5487 260.301 55.2945 260.339 55.0587 260.434C54.7511 260.621 54.5871 260.982 54.6461 261.343C54.6498 262.214 54.6498 263.897 54.6461 266.392C54.6461 266.409 54.6332 266.42 54.6184 266.42C53.784 266.424 53.1393 266.424 52.6843 266.42C52.3012 266.36 51.9199 266.543 51.7191 266.883C51.6067 267.095 51.5846 267.344 51.6601 267.573C51.7356 267.801 51.8996 267.986 52.1151 268.085C52.2643 268.124 52.419 268.14 52.5719 268.13H77.7597C78.0084 268.149 78.2589 268.121 78.4965 268.043C78.7728 267.884 78.9405 267.578 78.9276 267.253C78.9147 266.928 78.7249 266.639 78.4357 266.503C78.246 266.428 78.0415 266.397 77.8371 266.414C77.3324 266.433 76.7208 266.433 76.0043 266.418L76.0048 266.418ZM72.516 233.018C72.621 234.79 71.6761 236.453 70.1196 237.23C68.5649 238.006 66.7063 237.745 65.4113 236.568C64.1164 235.391 63.6393 233.53 64.2048 231.852C64.7703 230.174 66.266 229.012 67.9939 228.906C70.348 228.763 72.3724 230.603 72.5142 233.018H72.516ZM62.2724 232.345C61.9445 234.195 62.4897 236.096 63.7441 237.468C63.8528 237.591 64.0149 237.761 64.2341 237.976H64.236C64.2433 237.984 64.247 237.993 64.2452 238.004C64.2433 238.014 64.2378 238.023 64.2286 238.029L60.97 240.064C60.959 240.072 60.9443 240.068 60.9369 240.057C60.6532 239.611 60.4267 239.236 60.2535 238.928H60.2554C59.4264 237.432 58.0026 236.379 56.3558 236.049C56.3484 236.047 56.3429 236.041 56.3411 236.034C56.3392 236.026 56.3429 236.019 56.3503 236.015L62.2504 232.33C62.2615 232.323 62.2742 232.332 62.2724 232.345ZM71.7035 238.314C72.0001 238.055 72.3243 237.812 72.5987 237.519C73.0813 237.005 73.4737 236.41 73.761 235.762C73.7665 235.75 73.7758 235.743 73.7868 235.741C73.7997 235.739 73.8108 235.743 73.8181 235.75L79.0586 241.167V241.169C79.0751 241.185 79.0696 241.211 79.0493 241.22C78.0362 241.689 77.2221 242.519 76.7634 243.558C76.756 243.575 76.7339 243.579 76.721 243.565L71.7013 238.376H71.6994C71.6921 238.369 71.6884 238.358 71.6884 238.344C71.6884 238.333 71.6921 238.322 71.7013 238.314L71.7035 238.314ZM51.5242 241.547C51.5242 239.972 52.4489 238.552 53.8673 237.95C55.2856 237.349 56.9177 237.681 58.0026 238.794C59.0875 239.907 59.4136 241.581 58.826 243.036C58.2384 244.491 56.855 245.44 55.3206 245.44C54.313 245.44 53.3478 245.03 52.6349 244.3C51.9239 243.569 51.5242 242.579 51.5242 241.547ZM78.0234 244.986C78.2444 243.745 79.1728 242.762 80.3775 242.5C81.5803 242.239 82.82 242.747 83.5126 243.79C84.2052 244.833 84.2163 246.203 83.5384 247.256C82.8624 248.31 81.63 248.839 80.4235 248.595C78.7897 248.28 77.7157 246.664 78.0234 244.986ZM64.6448 250.785L64.6429 250.783C62.8856 250.999 61.3236 252.032 60.4063 253.586C60.4026 253.591 60.3952 253.595 60.386 253.595C60.3786 253.595 60.3713 253.591 60.3676 253.584L56.9101 247.001V246.999C56.8991 246.976 56.9101 246.948 56.9341 246.938C58.4721 246.466 59.7266 245.315 60.351 243.798C60.4579 243.569 60.5315 243.327 60.5721 243.078C60.5776 243.034 60.6347 243.023 60.6568 243.063L64.6761 250.717C64.6834 250.731 64.6834 250.746 64.6761 250.759C64.6687 250.772 64.6558 250.782 64.6411 250.785L64.6448 250.785ZM69.5466 260.331L61.3311 260.329C61.2961 260.329 61.2685 260.301 61.2685 260.267V256.796C61.263 255.654 61.6977 254.558 62.4787 253.748C63.2597 252.937 64.3244 252.478 65.4351 252.471H65.4388C66.5496 252.478 67.6124 252.937 68.3934 253.748C69.1744 254.558 69.611 255.654 69.6036 256.796V260.267C69.6036 260.301 69.576 260.329 69.5428 260.329L69.5466 260.331ZM56.3284 262.077H56.3265C56.3265 262.052 56.3449 262.034 56.3671 262.034H74.2863C74.3102 262.034 74.3286 262.052 74.3286 262.077V266.381C74.3286 266.404 74.3102 266.423 74.2863 266.423H56.3671C56.3449 266.423 56.3265 266.404 56.3265 266.381L56.3284 262.077Z" fill="#4F46E5"/>
<path d="M51.526 241.547H51.5242M51.5242 241.547C51.5242 239.972 52.4489 238.552 53.8673 237.95C55.2856 237.349 56.9177 237.681 58.0026 238.794C59.0875 239.907 59.4136 241.581 58.826 243.036C58.2384 244.491 56.855 245.44 55.3206 245.44C54.313 245.44 53.3478 245.03 52.6349 244.3C51.9239 243.569 51.5242 242.579 51.5242 241.547ZM78.0252 244.988L78.0234 244.986M78.0234 244.986C78.2444 243.745 79.1728 242.762 80.3775 242.5C81.5803 242.239 82.82 242.747 83.5126 243.79C84.2052 244.833 84.2163 246.203 83.5384 247.256C82.8624 248.31 81.63 248.839 80.4235 248.595C78.7897 248.28 77.7157 246.664 78.0234 244.986ZM76.0048 266.418C75.9901 266.418 75.9772 266.404 75.9772 266.389C75.9772 264.262 75.979 262.642 75.9808 261.537C75.9808 260.972 75.9422 260.657 75.5056 260.405C75.3472 260.343 75.1777 260.316 75.0083 260.33H71.339C71.3187 260.33 71.3021 260.313 71.3021 260.292C71.2929 258.882 71.2911 257.911 71.2966 257.38H71.2984C71.3224 256.734 71.2855 256.088 71.1861 255.449C70.7072 253.14 68.9425 251.341 66.6878 250.863C66.6565 250.855 66.6289 250.835 66.6123 250.804L61.8029 241.644V241.646C61.7826 241.604 61.7955 241.555 61.8324 241.53L65.8406 238.979C65.8572 238.97 65.8756 238.968 65.8922 238.976C67.2129 239.518 68.6755 239.586 70.0404 239.168C70.0662 239.161 70.0939 239.168 70.1123 239.187L76.1944 245.476H76.1963C76.2294 245.512 76.2497 245.559 76.2497 245.608C76.2663 247.329 77.1707 248.913 78.6278 249.769C79.7864 250.443 81.1661 250.598 82.4389 250.192C82.4813 250.181 82.5255 250.2 82.5494 250.237C83.2383 251.369 83.8241 252.352 84.3067 253.181C84.793 254.015 85.9738 253.433 85.8227 252.558C85.7822 252.359 85.7066 252.17 85.6016 251.998C85.1909 251.284 84.6732 250.4 84.0488 249.344C84.0285 249.31 84.0359 249.268 84.0635 249.243C85.0398 248.433 85.6514 247.248 85.7545 245.965C85.8577 244.682 85.445 243.41 84.6106 242.447C83.7264 241.415 82.4573 240.816 81.1181 240.797C81.0979 240.797 81.0795 240.788 81.0666 240.773L74.3412 233.823C74.3265 233.81 74.3191 233.791 74.3191 233.772V233.237V233.235C74.297 231.514 73.5768 229.881 72.3316 228.727C71.0845 227.574 69.4267 227.007 67.756 227.16C66.2363 227.285 64.8161 227.977 63.7625 229.105C63.5746 229.301 63.4272 229.526 63.2522 229.734C63.2283 229.764 63.2007 229.789 63.1675 229.808C60.3676 231.538 57.0665 233.596 53.2648 235.979V235.981C52.7435 236.287 52.2461 236.635 51.7765 237.02C50.8813 237.806 50.2531 238.86 49.9805 240.036C49.8534 240.669 49.8092 241.315 49.8515 241.959C50.0671 244.794 52.2996 247.023 55.0679 247.169C55.0882 247.171 55.1084 247.182 55.1177 247.203L59.6361 255.806V255.804C59.6472 255.825 59.6509 255.846 59.649 255.869C59.6048 256.288 59.5845 256.711 59.5901 257.133C59.5956 258.54 59.5956 259.597 59.5901 260.3C59.5901 260.313 59.579 260.324 59.5661 260.324C59.2696 260.33 58.0133 260.33 55.801 260.324C55.5487 260.301 55.2945 260.339 55.0587 260.434C54.7511 260.621 54.5871 260.982 54.6461 261.343C54.6498 262.214 54.6498 263.897 54.6461 266.392C54.6461 266.409 54.6332 266.42 54.6184 266.42C53.784 266.424 53.1393 266.424 52.6843 266.42C52.3012 266.36 51.9199 266.543 51.7191 266.883C51.6067 267.095 51.5846 267.344 51.6601 267.573C51.7356 267.801 51.8996 267.986 52.1151 268.085C52.2643 268.124 52.419 268.14 52.5719 268.13H77.7597C78.0084 268.149 78.2589 268.121 78.4965 268.043C78.7728 267.884 78.9405 267.578 78.9276 267.253C78.9147 266.928 78.7249 266.639 78.4357 266.503C78.246 266.428 78.0415 266.397 77.8371 266.414C77.3324 266.433 76.7208 266.433 76.0043 266.418L76.0048 266.418ZM72.516 233.018C72.621 234.79 71.6761 236.453 70.1196 237.23C68.5649 238.006 66.7063 237.745 65.4113 236.568C64.1164 235.391 63.6393 233.53 64.2048 231.852C64.7703 230.174 66.266 229.012 67.9939 228.906C70.348 228.763 72.3724 230.603 72.5142 233.018H72.516ZM62.2724 232.345C61.9445 234.195 62.4897 236.096 63.7441 237.468C63.8528 237.591 64.0149 237.761 64.2341 237.976H64.236C64.2433 237.984 64.247 237.993 64.2452 238.004C64.2433 238.014 64.2378 238.023 64.2286 238.029L60.97 240.064C60.959 240.072 60.9443 240.068 60.9369 240.057C60.6532 239.611 60.4267 239.236 60.2535 238.928H60.2554C59.4264 237.432 58.0026 236.379 56.3558 236.049C56.3484 236.047 56.3429 236.041 56.3411 236.034C56.3392 236.026 56.3429 236.019 56.3503 236.015L62.2504 232.33C62.2615 232.323 62.2742 232.332 62.2724 232.345ZM71.7035 238.314C72.0001 238.055 72.3243 237.812 72.5987 237.519C73.0813 237.005 73.4737 236.41 73.761 235.762C73.7665 235.75 73.7758 235.743 73.7868 235.741C73.7997 235.739 73.8108 235.743 73.8181 235.75L79.0586 241.167V241.169C79.0751 241.185 79.0696 241.211 79.0493 241.22C78.0362 241.689 77.2221 242.519 76.7634 243.558C76.756 243.575 76.7339 243.579 76.721 243.565L71.7013 238.376H71.6994C71.6921 238.369 71.6884 238.358 71.6884 238.344C71.6884 238.333 71.6921 238.322 71.7013 238.314L71.7035 238.314ZM64.6448 250.785L64.6429 250.783C62.8856 250.999 61.3236 252.032 60.4063 253.586C60.4026 253.591 60.3952 253.595 60.386 253.595C60.3786 253.595 60.3713 253.591 60.3676 253.584L56.9101 247.001V246.999C56.8991 246.976 56.9101 246.948 56.9341 246.938C58.4721 246.466 59.7266 245.315 60.351 243.798C60.4579 243.569 60.5315 243.327 60.5721 243.078C60.5776 243.034 60.6347 243.023 60.6568 243.063L64.6761 250.717C64.6834 250.731 64.6834 250.746 64.6761 250.759C64.6687 250.772 64.6558 250.782 64.6411 250.785L64.6448 250.785ZM69.5466 260.331L61.3311 260.329C61.2961 260.329 61.2685 260.301 61.2685 260.267V256.796C61.263 255.654 61.6977 254.558 62.4787 253.748C63.2597 252.937 64.3244 252.478 65.4351 252.471H65.4388C66.5496 252.478 67.6124 252.937 68.3934 253.748C69.1744 254.558 69.611 255.654 69.6036 256.796V260.267C69.6036 260.301 69.576 260.329 69.5428 260.329L69.5466 260.331ZM56.3284 262.077H56.3265C56.3265 262.052 56.3449 262.034 56.3671 262.034H74.2863C74.3102 262.034 74.3286 262.052 74.3286 262.077V266.381C74.3286 266.404 74.3102 266.423 74.2863 266.423H56.3671C56.3449 266.423 56.3265 266.404 56.3265 266.381L56.3284 262.077Z" stroke="#4F46E5"/>
<rect x="329.812" width="82.729" height="82.729" rx="8.82443" fill="#EEF2FF"/>
<path d="M352.108 55.5621C350.28 53.7348 349.254 51.2565 349.254 48.6723C349.254 46.4603 350.006 44.3141 351.387 42.5864C352.768 40.8586 354.696 39.652 356.854 39.165C356.483 37.5877 356.431 35.9524 356.7 34.3548C356.97 32.7571 357.555 31.2292 358.421 29.8604C359.288 28.4915 360.419 27.3093 361.748 26.3829C363.077 25.4564 364.578 24.8044 366.162 24.4649C367.746 24.1254 369.382 24.1052 370.974 24.4056C372.567 24.7059 374.083 25.3208 375.434 26.2142C376.786 27.1076 377.946 28.2616 378.846 29.6086C379.746 30.9557 380.369 32.4688 380.677 34.0593C382.287 34.0271 383.886 34.3142 385.384 34.9041C386.882 35.494 388.248 36.3749 389.403 37.4959C390.558 38.617 391.479 39.9559 392.114 41.4352C392.749 42.9145 393.084 44.505 393.1 46.1146C393.116 47.7242 392.813 49.321 392.208 50.8128C391.603 52.3045 390.708 53.6616 389.576 54.8055C388.443 55.9494 387.095 56.8574 385.61 57.4771C384.124 58.0969 382.53 58.416 380.921 58.416H358.998C356.413 58.416 353.935 57.3894 352.108 55.5621Z" stroke="#4F46E5" stroke-width="3.30916" stroke-linecap="round" stroke-linejoin="round"/>
<rect x="26.4727" width="82.729" height="82.729" rx="8.82443" fill="#EEF2FF"/>
<path d="M63.6816 32.3193C63.6787 31.9654 63.8828 31.6646 64.1631 31.5381H64.1641C64.4408 31.4128 64.7681 31.4628 65.002 31.6836L65.0146 31.6963L65.0283 31.709L74.2783 39.9932L76.6191 42.0889V24.2695H84.9316L84.9277 58.46H50.7402L50.7441 32.333V32.3076L50.7432 32.2812C50.7302 31.9259 50.9289 31.6179 51.2119 31.4863L51.2129 31.4873C51.4901 31.3592 51.8203 31.4117 52.0508 31.6357L52.0918 31.6748L61.3408 39.958L63.6816 42.0537V32.3193Z" stroke="#4F46E5" stroke-width="2.80774"/>
<rect x="329.812" y="206.271" width="82.729" height="82.729" rx="8.82443" fill="#EEF2FF"/>
<path d="M356.27 252.604H386.082M386.082 252.604C387.839 252.604 389.524 251.907 390.767 250.664C392.009 249.422 392.707 247.737 392.707 245.979C392.707 243.829 392.01 241.737 390.72 240.017L385.007 232.398C383.598 230.521 381.389 229.417 379.044 229.417H363.307C362.15 229.417 361.009 229.686 359.974 230.204C358.939 230.721 358.039 231.473 357.345 232.398L351.632 240.017C350.342 241.737 349.645 243.829 349.645 245.979C349.645 247.737 350.343 249.422 351.585 250.664C352.827 251.907 354.512 252.604 356.27 252.604M356.27 252.604C354.512 252.604 352.827 253.302 351.585 254.545C350.343 255.787 349.645 257.472 349.645 259.229C349.645 260.987 350.343 262.672 351.585 263.914C352.827 265.157 354.512 265.854 356.27 265.854H386.082C387.839 265.854 389.524 265.157 390.767 263.914C392.009 262.672 392.707 260.987 392.707 259.229C392.707 257.472 392.009 255.787 390.767 254.545C389.524 253.302 387.839 252.604 386.082 252.604M349.645 245.979C349.645 244.222 350.343 242.537 351.585 241.295C352.827 240.052 354.512 239.354 356.27 239.354H386.082C387.839 239.354 389.524 240.052 390.767 241.295C392.009 242.537 392.707 244.222 392.707 245.979M386.082 259.229H386.1V259.247H386.082V259.229ZM386.082 245.979H386.1V245.997H386.082V245.979ZM379.457 259.229H379.475V259.247H379.457V259.229ZM379.457 245.979H379.475V245.997H379.457V245.979Z" stroke="#4F46E5" stroke-width="3.30916" stroke-linecap="round" stroke-linejoin="round"/>
<rect x="359.594" y="103.688" width="82.729" height="82.729" rx="8.82443" fill="#EEF2FF"/>
<path d="M410.7 135.308V154.795M400.956 142.616V154.795M391.212 149.924V154.795M386.341 164.539H415.571C416.864 164.539 418.103 164.026 419.016 163.112C419.93 162.198 420.443 160.959 420.443 159.667V130.436C420.443 129.144 419.93 127.905 419.016 126.991C418.103 126.078 416.864 125.564 415.571 125.564H386.341C385.048 125.564 383.809 126.078 382.896 126.991C381.982 127.905 381.469 129.144 381.469 130.436V159.667C381.469 160.959 381.982 162.198 382.896 163.112C383.809 164.026 385.048 164.539 386.341 164.539Z" stroke="#4F46E5" stroke-width="3.30916" stroke-linecap="round" stroke-linejoin="round"/>
<rect y="103.688" width="82.729" height="82.729" rx="8.82443" fill="#EEF2FF"/>
<path d="M26.8908 161.052H29.1741C30.897 161.052 32.2991 159.65 32.2991 157.927V155.718H50.4325V157.927C50.4325 159.65 51.8345 161.052 53.5575 161.052H55.8408C57.5637 161.052 58.9658 159.65 58.9658 157.927V144.193C58.9658 142.241 57.7116 140.583 55.9679 139.975L54.0428 133.554C53.2366 130.86 50.8054 129.052 47.9949 129.052H34.3842C31.4821 129.052 28.9591 131.021 28.2573 133.835L26.7156 139.989C24.9989 140.614 23.7656 142.262 23.7656 144.191V157.925C23.7656 159.648 25.1677 161.05 26.8906 161.05L26.8908 161.052ZM55.766 157.852H53.6327V155.718H54.491C54.9327 155.718 55.3598 155.65 55.766 155.531V157.852ZM31.3596 134.61C31.7054 133.223 32.9492 132.252 34.3846 132.252H47.9953C49.3828 132.252 50.5828 133.143 50.9828 134.471L52.5557 139.718H30.0805L31.3555 134.61H31.3596ZM26.9658 148.785V144.193C26.9658 143.489 27.5367 142.918 28.2408 142.918H54.4867C55.1909 142.918 55.7617 143.489 55.7617 144.193V151.244C55.7617 151.948 55.1909 152.519 54.4867 152.519H28.2408C27.5367 152.519 26.9658 151.948 26.9658 151.244V148.785ZM26.9658 155.531C27.3721 155.654 27.7971 155.718 28.2408 155.718H29.0992V157.852H26.9658V155.531Z" fill="#4F46E5"/>
<path d="M34.7005 147.718C34.7005 151.274 29.3672 151.274 29.3672 147.718C29.3672 144.162 34.7005 144.162 34.7005 147.718Z" fill="#4F46E5"/>
<path d="M53.3646 147.718C53.3646 151.274 48.0312 151.274 48.0312 147.718C48.0312 144.162 53.3646 144.162 53.3646 147.718Z" fill="#4F46E5"/>
<path d="M117.005 49.5369C116.704 49.4912 116.423 49.6982 116.377 49.9993C116.331 50.3005 116.538 50.5817 116.84 50.6275L116.922 50.0822L117.005 49.5369ZM197.211 99.7902C197.513 99.8255 197.787 99.609 197.822 99.3064L198.399 94.3763C198.434 94.0737 198.218 93.7998 197.915 93.7644C197.613 93.7291 197.339 93.9456 197.303 94.2482L196.791 98.6305L192.409 98.1182C192.106 98.0828 191.832 98.2994 191.797 98.6019C191.761 98.9045 191.978 99.1784 192.28 99.2138L197.211 99.7902ZM116.922 50.0822L116.84 50.6275C135.94 53.5301 149.685 57.8827 161.77 65.4315C173.861 72.9841 184.331 83.7612 196.842 99.5844L197.275 99.2424L197.707 98.9003C185.169 83.0425 174.606 72.1486 162.354 64.4959C150.097 56.8394 136.191 52.4525 117.005 49.5369L116.922 50.0822Z" fill="#F9FAFB"/>
<path d="M113.699 248.162C113.397 248.208 113.116 248.001 113.07 247.7C113.025 247.399 113.232 247.118 113.533 247.072L113.616 247.617L113.699 248.162ZM200.963 193.59C201.265 193.555 201.539 193.771 201.575 194.074L202.151 199.004C202.187 199.307 201.97 199.581 201.667 199.616C201.365 199.651 201.091 199.435 201.056 199.132L200.543 194.75L196.161 195.262C195.858 195.298 195.584 195.081 195.549 194.779C195.514 194.476 195.73 194.202 196.033 194.167L200.963 193.59ZM113.616 247.617L113.533 247.072C134.314 243.914 149.275 239.177 162.429 230.96C175.589 222.74 186.983 211.011 200.594 193.796L201.027 194.138L201.46 194.48C187.821 211.73 176.334 223.575 163.013 231.896C149.686 240.22 134.565 244.991 113.699 248.162L113.616 247.617Z" fill="#F9FAFB"/>
<path d="M90.608 141.72C90.3157 141.635 90.1482 141.328 90.2339 141.036C90.3195 140.744 90.6259 140.576 90.9182 140.662L90.7631 141.191L90.608 141.72ZM174.108 145.771C174.35 145.956 174.397 146.302 174.212 146.544L171.203 150.492C171.018 150.734 170.672 150.781 170.43 150.596C170.188 150.411 170.141 150.065 170.326 149.823L173.001 146.314L169.492 143.639C169.25 143.455 169.203 143.108 169.388 142.866C169.573 142.624 169.919 142.577 170.161 142.762L174.108 145.771ZM90.7631 141.191L90.9182 140.662C123.523 150.218 141.711 149.976 173.7 145.664L173.774 146.21L173.847 146.757C141.75 151.084 123.4 151.331 90.608 141.72L90.7631 141.191Z" fill="#F9FAFB"/>
<path d="M318.476 52.6431C318.721 52.8237 318.774 53.1689 318.593 53.4142L315.651 57.4116C315.47 57.6569 315.125 57.7094 314.879 57.5288C314.634 57.3483 314.582 57.003 314.762 56.7577L317.378 53.2045L313.825 50.5887C313.579 50.4081 313.527 50.0629 313.708 49.8176C313.888 49.5723 314.233 49.5198 314.479 49.7004L318.476 52.6431ZM240.869 100.975C240.68 101.214 240.333 101.254 240.094 101.065C239.855 100.876 239.815 100.53 240.004 100.291L240.436 100.633L240.869 100.975ZM318.149 53.0873L318.232 53.6325C299.761 56.4396 286.469 60.6487 274.784 67.9478C263.093 75.2506 252.968 85.6718 240.869 100.975L240.436 100.633L240.004 100.291C252.13 84.9532 262.348 74.4152 274.2 67.0122C286.058 59.6054 299.51 55.362 318.066 52.542L318.149 53.0873Z" fill="#F9FAFB"/>
<path d="M323.864 238.115C324.109 237.935 324.161 237.59 323.981 237.344L321.038 233.347C320.858 233.102 320.512 233.049 320.267 233.23C320.022 233.41 319.969 233.756 320.15 234.001L322.766 237.554L319.212 240.17C318.967 240.35 318.915 240.696 319.095 240.941C319.276 241.186 319.621 241.239 319.866 241.058L323.864 238.115ZM247.406 190.487C247.217 190.248 246.87 190.207 246.631 190.396C246.392 190.585 246.352 190.932 246.54 191.171L246.973 190.829L247.406 190.487ZM323.537 237.671L323.62 237.126C305.422 234.361 292.329 230.214 280.817 223.024C269.3 215.83 259.326 205.563 247.406 190.487L246.973 190.829L246.54 191.171C258.488 206.282 268.555 216.665 280.233 223.959C291.917 231.257 305.171 235.438 323.454 238.217L323.537 237.671Z" fill="#F9FAFB"/>
<path d="M347.571 140.353C347.717 140.085 347.619 139.75 347.351 139.604L342.996 137.223C342.729 137.077 342.394 137.175 342.247 137.442C342.101 137.71 342.2 138.045 342.467 138.191L346.338 140.307L344.222 144.179C344.076 144.446 344.174 144.781 344.441 144.927C344.708 145.073 345.043 144.975 345.19 144.708L347.571 140.353ZM263.703 144.587C263.402 144.547 263.124 144.758 263.083 145.06C263.042 145.362 263.254 145.64 263.556 145.681L263.63 145.134L263.703 144.587ZM347.087 140.088L346.932 139.559C314.151 149.166 295.865 148.923 263.703 144.587L263.63 145.134L263.556 145.681C295.826 150.031 314.274 150.279 347.242 140.617L347.087 140.088Z" fill="#F9FAFB"/>
<g clip-path="url(#clip0_7036_5446)">
<path d="M223.781 153.134C230.097 155.805 236.163 158.977 242.702 160.452C245.624 160.925 248.573 161.175 251.467 161.175V145.093H249.046C240.087 145.093 231.795 149.74 223.781 153.134Z" fill="#DA3D0B"/>
<path d="M205.114 158.253C202.192 158.003 199.27 158.003 196.377 158.003H189.727V172.778C189.727 175.449 191.897 177.592 194.54 177.592H246.656C249.327 177.592 251.47 175.421 251.47 172.778V170.914C245.154 170.914 238.587 170.107 232.744 167.658C223.561 164.514 215.075 158.504 205.114 158.253Z" fill="#DA3D0B"/>
<path d="M246.684 115.82H194.54C191.897 115.82 189.727 117.991 189.727 120.662V148.041C195.57 148.041 201.719 148.292 207.534 147.791C215.548 147.068 222.588 142.671 230.1 139.75C236.89 136.828 244.207 135.131 251.498 135.353V120.662C251.498 117.991 249.327 115.82 246.684 115.82Z" fill="#DA3D0B"/>
<path d="M251.498 145.093V135.354C244.207 135.104 236.917 136.829 230.1 139.75C222.56 142.672 215.548 147.068 207.534 147.792C201.719 148.293 195.57 148.042 189.727 148.042V158.031H196.377C199.27 158.031 202.192 158.031 205.114 158.282C215.075 158.532 223.561 164.542 232.771 167.686C238.615 170.135 245.181 170.942 251.498 170.942V161.203C248.604 161.203 245.627 160.953 242.733 160.48C236.166 159.005 230.128 155.861 223.812 153.162C231.825 149.739 240.117 145.121 249.077 145.121L251.498 145.093Z" fill="white"/>
</g>
<defs>
<clipPath id="clip0_7036_5446">
<rect width="61.771" height="61.771" fill="white" transform="translate(189.727 115.82)"/>
</clipPath>
</defs>
</svg>
