<svg width="426" height="413" viewBox="0 0 426 413" fill="none" xmlns="http://www.w3.org/2000/svg">
<path d="M215.416 106.913L215.416 106.31L214.209 106.31L214.209 106.913L214.812 106.913L215.416 106.913ZM214.386 190.959C214.621 191.195 215.004 191.195 215.239 190.959L219.08 187.118C219.316 186.883 219.316 186.501 219.08 186.265C218.844 186.029 218.462 186.029 218.226 186.265L214.812 189.679L211.399 186.265C211.163 186.029 210.781 186.029 210.545 186.265C210.309 186.501 210.309 186.883 210.545 187.118L214.386 190.959ZM214.812 106.913L214.209 106.913L214.209 109.236L214.812 109.236L215.416 109.236L215.416 106.913L214.812 106.913ZM214.812 113.881L214.209 113.881L214.209 118.527L214.812 118.527L215.416 118.527L215.416 113.881L214.812 113.881ZM214.812 123.172L214.209 123.172L214.209 127.818L214.812 127.818L215.416 127.818L215.416 123.172L214.812 123.172ZM214.812 132.463L214.209 132.463L214.209 137.109L214.812 137.109L215.416 137.109L215.416 132.463L214.812 132.463ZM214.812 141.754L214.209 141.754L214.209 146.4L214.812 146.4L215.416 146.4L215.416 141.754L214.812 141.754ZM214.812 151.046L214.209 151.046L214.209 155.691L214.812 155.691L215.416 155.691L215.416 151.046L214.812 151.046ZM214.812 160.337L214.209 160.337L214.209 164.982L214.812 164.982L215.416 164.982L215.416 160.337L214.812 160.337ZM214.812 169.628L214.209 169.628L214.209 174.273L214.812 174.273L215.416 174.273L215.416 169.628L214.812 169.628ZM214.812 178.919L214.209 178.919L214.209 183.564L214.812 183.564L215.416 183.564L215.416 178.919L214.812 178.919ZM214.812 188.21L214.209 188.21L214.209 190.532L214.812 190.532L215.416 190.532L215.416 188.21L214.812 188.21Z" fill="#FF8A7B"/>
<path d="M216.01 307.683L216.01 307.079L214.803 307.079L214.803 307.683L215.406 307.683L216.01 307.683ZM214.979 339.581C215.215 339.817 215.597 339.817 215.833 339.581L219.674 335.741C219.909 335.505 219.909 335.123 219.674 334.887C219.438 334.651 219.056 334.651 218.82 334.887L215.406 338.301L211.992 334.887C211.757 334.651 211.374 334.651 211.139 334.887C210.903 335.123 210.903 335.505 211.139 335.741L214.979 339.581ZM215.406 307.683L214.803 307.683L214.803 339.154L215.406 339.154L216.01 339.154L216.01 307.683L215.406 307.683Z" fill="#4B5563"/>
<path d="M62.0371 110.635V110.031H60.8301V110.635H61.4336H62.0371ZM192.225 190.821C192.461 191.057 192.843 191.057 193.078 190.821L196.919 186.981C197.155 186.745 197.155 186.363 196.919 186.127C196.683 185.892 196.301 185.892 196.066 186.127L192.652 189.541L189.238 186.127C189.002 185.892 188.62 185.892 188.384 186.127C188.148 186.363 188.148 186.745 188.384 186.981L192.225 190.821ZM60.8301 113.408V114.011H62.0371V113.408H61.4336H60.8301ZM62.0371 118.954V118.35H60.8301V118.954H61.4336H62.0371ZM60.8301 124.5V125.103H62.0371V124.5H61.4336H60.8301ZM62.0371 130.046V129.443H60.8301V130.046H61.4336H62.0371ZM60.8301 135.592V136.196H62.0371V135.592H61.4336H60.8301ZM62.0371 141.138V140.535H60.8301V141.138H61.4336H62.0371ZM61.459 147.083L61.6902 147.64L62.8051 147.178L62.5739 146.62L62.0165 146.852L61.459 147.083ZM66.4058 150.452L65.8483 150.221L65.386 151.336L65.9434 151.567L66.1746 151.01L66.4058 150.452ZM71.5286 152.196H72.1321V150.989H71.5286V151.593V152.196ZM76.3559 150.989H75.7524V152.196H76.3559V151.593V150.989ZM81.1832 152.196H81.7867V150.989H81.1832V151.593V152.196ZM86.0105 150.989H85.407V152.196H86.0105V151.593V150.989ZM90.8378 152.196H91.4413V150.989H90.8378V151.593V152.196ZM95.6651 150.989H95.0616V152.196H95.6651V151.593V150.989ZM100.492 152.196H101.096V150.989H100.492V151.593V152.196ZM105.32 150.989H104.716V152.196H105.32V151.593V150.989ZM110.147 152.196H110.751V150.989H110.147V151.593V152.196ZM114.974 150.989H114.371V152.196H114.974V151.593V150.989ZM119.802 152.196H120.405V150.989H119.802V151.593V152.196ZM124.629 150.989H124.025V152.196H124.629V151.593V150.989ZM129.456 152.196H130.06V150.989H129.456V151.593V152.196ZM134.284 150.989H133.68V152.196H134.284V151.593V150.989ZM139.111 152.196H139.714V150.989H139.111V151.593V152.196ZM143.938 150.989H143.335V152.196H143.938V151.593V150.989ZM148.765 152.196H149.369V150.989H148.765V151.593V152.196ZM153.593 150.989H152.989V152.196H153.593V151.593V150.989ZM158.42 152.196H159.024V150.989H158.42V151.593V152.196ZM163.247 150.989H162.644V152.196H163.247V151.593V150.989ZM168.075 152.196H168.678V150.989H168.075V151.593V152.196ZM172.902 150.989H172.299V152.196H172.902V151.593V150.989ZM177.729 152.196H178.333V150.989H177.729V151.593V152.196ZM182.557 150.989H181.953V152.196H182.557V151.593V150.989ZM187.679 152.733L188.237 152.964L188.699 151.849L188.142 151.618L187.911 152.175L187.679 152.733ZM192.626 156.102L192.395 155.545L191.28 156.007L191.511 156.565L192.069 156.334L192.626 156.102ZM192.048 161.867V162.471H193.255V161.867H192.652H192.048ZM193.255 167.054V166.451H192.048V167.054H192.652H193.255ZM192.048 172.241V172.844H193.255V172.241H192.652H192.048ZM193.255 177.428V176.824H192.048V177.428H192.652H193.255ZM192.048 182.615V183.218H193.255V182.615H192.652H192.048ZM193.255 187.801V187.198H192.048V187.801H192.652H193.255ZM61.4336 110.635H60.8301V113.408H61.4336H62.0371V110.635H61.4336ZM61.4336 118.954H60.8301V124.5H61.4336H62.0371V118.954H61.4336ZM61.4336 130.046H60.8301V135.592H61.4336H62.0371V130.046H61.4336ZM61.4336 141.138H60.8301V143.911H61.4336H62.0371V141.138H61.4336ZM61.4336 143.911H60.8301C60.8301 145.033 61.0535 146.105 61.459 147.083L62.0165 146.852L62.5739 146.62C62.2282 145.787 62.0371 144.872 62.0371 143.911H61.4336ZM66.1746 151.01L65.9434 151.567C66.9211 151.973 67.9927 152.196 69.1149 152.196V151.593V150.989C68.1541 150.989 67.2395 150.798 66.4058 150.452L66.1746 151.01ZM69.1149 151.593V152.196H71.5286V151.593V150.989H69.1149V151.593ZM76.3559 151.593V152.196H81.1832V151.593V150.989H76.3559V151.593ZM86.0105 151.593V152.196H90.8378V151.593V150.989H86.0105V151.593ZM95.6651 151.593V152.196H100.492V151.593V150.989H95.6651V151.593ZM105.32 151.593V152.196H110.147V151.593V150.989H105.32V151.593ZM114.974 151.593V152.196H119.802V151.593V150.989H114.974V151.593ZM124.629 151.593V152.196H129.456V151.593V150.989H124.629V151.593ZM134.284 151.593V152.196H139.111V151.593V150.989H134.284V151.593ZM143.938 151.593V152.196H148.765V151.593V150.989H143.938V151.593ZM153.593 151.593V152.196H158.42V151.593V150.989H153.593V151.593ZM163.247 151.593V152.196H168.075V151.593V150.989H163.247V151.593ZM172.902 151.593V152.196H177.729V151.593V150.989H172.902V151.593ZM182.557 151.593V152.196H184.97V151.593V150.989H182.557V151.593ZM184.97 151.593V152.196C185.931 152.196 186.846 152.387 187.679 152.733L187.911 152.175L188.142 151.618C187.164 151.213 186.093 150.989 184.97 150.989V151.593ZM192.069 156.334L191.511 156.565C191.857 157.398 192.048 158.313 192.048 159.274H192.652H193.255C193.255 158.152 193.032 157.08 192.626 156.102L192.069 156.334ZM192.652 159.274H192.048V161.867H192.652H193.255V159.274H192.652ZM192.652 167.054H192.048V172.241H192.652H193.255V167.054H192.652ZM192.652 177.428H192.048V182.615H192.652H193.255V177.428H192.652ZM192.652 187.801H192.048V190.395H192.652H193.255V187.801H192.652Z" fill="#FF8A7B"/>
<path d="M364.432 110.635V110.031H365.639V110.635H365.035H364.432ZM234.244 190.821C234.008 191.057 233.626 191.057 233.39 190.821L229.55 186.981C229.314 186.745 229.314 186.363 229.55 186.127C229.785 185.892 230.167 185.892 230.403 186.127L233.817 189.541L237.231 186.127C237.467 185.892 237.849 185.892 238.085 186.127C238.32 186.363 238.32 186.745 238.085 186.981L234.244 190.821ZM365.639 113.408V114.011H364.432V113.408H365.035H365.639ZM364.432 118.954V118.35H365.639V118.954H365.035H364.432ZM365.639 124.5V125.103H364.432V124.5H365.035H365.639ZM364.432 130.046V129.443H365.639V130.046H365.035H364.432ZM365.639 135.592V136.196H364.432V135.592H365.035H365.639ZM364.432 141.138V140.535H365.639V141.138H365.035H364.432ZM365.01 147.083L364.779 147.64L363.664 147.178L363.895 146.62L364.452 146.852L365.01 147.083ZM360.063 150.452L360.62 150.221L361.083 151.336L360.525 151.567L360.294 151.01L360.063 150.452ZM354.94 152.196H354.337V150.989H354.94V151.593V152.196ZM350.113 150.989H350.716V152.196H350.113V151.593V150.989ZM345.286 152.196H344.682V150.989H345.286V151.593V152.196ZM340.458 150.989H341.062V152.196H340.458V151.593V150.989ZM335.631 152.196H335.027V150.989H335.631V151.593V152.196ZM330.804 150.989H331.407V152.196H330.804V151.593V150.989ZM325.976 152.196H325.373V150.989H325.976V151.593V152.196ZM321.149 150.989H321.753V152.196H321.149V151.593V150.989ZM316.322 152.196H315.718V150.989H316.322V151.593V152.196ZM311.494 150.989H312.098V152.196H311.494V151.593V150.989ZM306.667 152.196H306.064V150.989H306.667V151.593V152.196ZM301.84 150.989H302.443V152.196H301.84V151.593V150.989ZM297.012 152.196H296.409V150.989H297.012V151.593V152.196ZM292.185 150.989H292.789V152.196H292.185V151.593V150.989ZM287.358 152.196H286.754V150.989H287.358V151.593V152.196ZM282.531 150.989H283.134V152.196H282.531V151.593V150.989ZM277.703 152.196H277.1V150.989H277.703V151.593V152.196ZM272.876 150.989H273.479V152.196H272.876V151.593V150.989ZM268.049 152.196H267.445V150.989H268.049V151.593V152.196ZM263.221 150.989H263.825V152.196H263.221V151.593V150.989ZM258.394 152.196H257.791V150.989H258.394V151.593V152.196ZM253.567 150.989H254.17V152.196H253.567V151.593V150.989ZM248.739 152.196H248.136V150.989H248.739V151.593V152.196ZM243.912 150.989H244.516V152.196H243.912V151.593V150.989ZM238.789 152.733L238.232 152.964L237.769 151.849L238.327 151.618L238.558 152.175L238.789 152.733ZM233.843 156.102L234.074 155.545L235.189 156.007L234.957 156.565L234.4 156.334L233.843 156.102ZM234.421 161.867V162.471H233.214V161.867H233.817H234.421ZM233.214 167.054V166.451H234.421V167.054H233.817H233.214ZM234.421 172.241V172.844H233.214V172.241H233.817H234.421ZM233.214 177.428V176.824H234.421V177.428H233.817H233.214ZM234.421 182.615V183.218H233.214V182.615H233.817H234.421ZM233.214 187.801V187.198H234.421V187.801H233.817H233.214ZM365.035 110.635H365.639V113.408H365.035H364.432V110.635H365.035ZM365.035 118.954H365.639V124.5H365.035H364.432V118.954H365.035ZM365.035 130.046H365.639V135.592H365.035H364.432V130.046H365.035ZM365.035 141.138H365.639V143.911H365.035H364.432V141.138H365.035ZM365.035 143.911H365.639C365.639 145.033 365.415 146.105 365.01 147.083L364.452 146.852L363.895 146.62C364.241 145.787 364.432 144.872 364.432 143.911H365.035ZM360.294 151.01L360.525 151.567C359.548 151.973 358.476 152.196 357.354 152.196V151.593V150.989C358.315 150.989 359.229 150.798 360.063 150.452L360.294 151.01ZM357.354 151.593V152.196H354.94V151.593V150.989H357.354V151.593ZM350.113 151.593V152.196H345.286V151.593V150.989H350.113V151.593ZM340.458 151.593V152.196H335.631V151.593V150.989H340.458V151.593ZM330.804 151.593V152.196H325.976V151.593V150.989H330.804V151.593ZM321.149 151.593V152.196H316.322V151.593V150.989H321.149V151.593ZM311.494 151.593V152.196H306.667V151.593V150.989H311.494V151.593ZM301.84 151.593V152.196H297.012V151.593V150.989H301.84V151.593ZM292.185 151.593V152.196H287.358V151.593V150.989H292.185V151.593ZM282.531 151.593V152.196H277.703V151.593V150.989H282.531V151.593ZM272.876 151.593V152.196H268.049V151.593V150.989H272.876V151.593ZM263.221 151.593V152.196H258.394V151.593V150.989H263.221V151.593ZM253.567 151.593V152.196H248.739V151.593V150.989H253.567V151.593ZM243.912 151.593V152.196H241.498V151.593V150.989H243.912V151.593ZM241.498 151.593V152.196C240.538 152.196 239.623 152.387 238.789 152.733L238.558 152.175L238.327 151.618C239.305 151.213 240.376 150.989 241.498 150.989V151.593ZM234.4 156.334L234.957 156.565C234.612 157.398 234.421 158.313 234.421 159.274H233.817H233.214C233.214 158.152 233.437 157.08 233.843 156.102L234.4 156.334ZM233.817 159.274H234.421V161.867H233.817H233.214V159.274H233.817ZM233.817 167.054H234.421V172.241H233.817H233.214V167.054H233.817ZM233.817 177.428H234.421V182.615H233.817H233.214V177.428H233.817ZM233.817 187.801H234.421V190.395H233.817H233.214V187.801H233.817Z" fill="#FF8A7B"/>
<rect x="0.352201" y="0.352201" width="122.795" height="107.358" rx="8.10063" fill="#F3F4F6"/>
<rect x="0.352201" y="0.352201" width="122.795" height="107.358" rx="8.10063" stroke="#E5E7EB" stroke-width="0.704402"/>
<path d="M45.2286 45.4873H38.1068C37.6192 45.4873 37.2109 45.8842 37.2109 46.3832C37.2109 46.8822 37.6079 47.2791 38.1068 47.2791H45.2173C45.7049 47.2791 46.1132 46.8822 46.1132 46.3832C46.1132 45.8842 45.7163 45.4873 45.2286 45.4873Z" fill="#6B7280"/>
<path d="M38.1068 43.7967H45.2173C45.7049 43.7967 46.1132 43.3998 46.1132 42.9008C46.1132 42.4018 45.7163 42.0049 45.2173 42.0049H38.1068C37.6192 42.0049 37.2109 42.4018 37.2109 42.9008C37.2223 43.3998 37.6192 43.7967 38.1068 43.7967Z" fill="#6B7280"/>
<path d="M38.1068 40.325H45.2173C45.7049 40.325 46.1132 39.9281 46.1132 39.4291C46.1132 38.9301 45.7163 38.5332 45.2173 38.5332H38.1068C37.6192 38.5332 37.2109 38.9301 37.2109 39.4291C37.2223 39.9281 37.6192 40.325 38.1068 40.325Z" fill="#6B7280"/>
<path d="M89.201 42.016H79.8337V41.7778C79.8337 40.9387 79.2327 40.2355 78.4048 40.1108L76.545 39.8273V39.7933C76.545 38.2623 75.445 36.9808 73.9367 36.754L66.8376 35.688C66.0551 34.3272 64.5921 33.4199 62.9138 33.4199H37.9307C36.7173 33.4199 35.5832 33.8962 34.7214 34.7468C33.8708 35.6086 33.3945 36.754 33.3945 37.9674V47.8337C33.3945 49.0471 33.8708 50.1925 34.7214 51.0543C35.5832 51.9162 36.7173 52.3925 37.9307 52.3925H38.1122L33.576 68.2125C33.5646 68.2578 33.5533 68.3145 33.542 68.3712C33.5306 68.496 33.4399 69.5733 34.2224 70.4465C34.7894 71.0703 35.6173 71.3878 36.6946 71.3878H47.0371C47.1392 71.3991 47.3093 71.4105 47.5247 71.4105C48.0691 71.4105 48.8856 71.3084 49.4753 70.7981C49.7928 70.5146 50.1784 70.0156 50.1784 69.1651V64.8217C50.1784 64.6402 50.1671 63.6536 49.4866 62.9618C49.2031 62.667 48.6928 62.3154 47.865 62.3154C47.5928 62.3154 47.3433 62.1907 47.1732 61.9639C47.0144 61.7484 46.9577 61.4649 47.0371 61.2041L47.9557 58.1762H54.0682C54.4311 58.1762 54.76 57.9607 54.8961 57.6205C55.0321 57.2916 54.9528 56.906 54.7033 56.6452C54.0342 55.9761 53.6713 55.0915 53.6713 54.1503C53.6713 53.5152 53.8414 52.9028 54.1589 52.3698H62.9251C64.6035 52.3698 66.0664 51.4513 66.8489 50.0904L74.0274 48.7976C75.4336 48.5481 76.477 47.346 76.545 45.9285L78.4615 45.5882C79.2667 45.4408 79.8451 44.749 79.8451 43.9325V43.7964H89.2123C89.6999 43.7964 90.1082 43.3995 90.1082 42.9006C90.1082 42.4016 89.6999 42.016 89.201 42.016ZM47.865 64.1072C48.1031 64.1072 48.1712 64.1753 48.1938 64.2093C48.3413 64.3567 48.3866 64.6742 48.3866 64.799C48.3866 64.8103 48.3866 64.8217 48.3866 64.8217V69.1651C48.3866 69.3692 48.3299 69.4146 48.2959 69.4372C48.0918 69.6187 47.5361 69.6414 47.2186 69.596C47.1732 69.5847 47.1278 69.5847 47.0825 69.5847H36.6946C36.3204 69.5847 35.8214 69.528 35.5492 69.2331C35.3451 69.0176 35.3111 68.7001 35.3111 68.5867L39.972 52.3925H47.865L45.336 60.6937C45.0865 61.4989 45.234 62.3608 45.7443 63.0412C46.2433 63.7103 47.0258 64.1072 47.865 64.1072ZM52.3785 56.3957H48.5114L49.7248 52.3925H52.197C51.9929 52.9595 51.8908 53.5492 51.8908 54.173C51.8908 54.9555 52.0609 55.7039 52.3785 56.3957ZM62.9251 50.6007H37.9307C37.1936 50.6007 36.5018 50.3172 35.9802 49.7956C35.4585 49.2739 35.175 48.5821 35.175 47.845V37.9788C35.175 37.2417 35.4585 36.5499 35.9802 36.0282C36.5018 35.5066 37.1936 35.2231 37.9307 35.2231H62.9138C64.4334 35.2231 65.6695 36.4592 65.6695 37.9901V42.7985V47.8563C65.6808 49.3646 64.4447 50.6007 62.9251 50.6007ZM73.7099 47.0738L67.4613 48.1965V37.6046L73.6759 38.5458C74.2996 38.6365 74.7645 39.1809 74.7645 39.8159V45.8264C74.7645 46.4274 74.3223 46.9604 73.7099 47.0738ZM78.0533 43.8645L76.545 44.1367V41.6418L78.0533 41.8686V43.8645Z" fill="#6B7280"/>
<path d="M23.0649 89.9736H21.9978V81.8818H23.0649V89.9736ZM25.6603 82.7543H19.408V81.8818H25.6603V82.7543ZM25.3324 86.9058C25.3324 86.3242 25.4436 85.8036 25.6659 85.3442C25.8882 84.8847 26.2031 84.5216 26.6106 84.2549C27.0182 83.9844 27.5017 83.8492 28.0612 83.8492C28.628 83.8492 29.1171 83.9844 29.5284 84.2549C29.9396 84.5216 30.2546 84.8847 30.4732 85.3442C30.6955 85.8036 30.8066 86.3242 30.8066 86.9058V87.0337C30.8066 87.6117 30.6955 88.1322 30.4732 88.5954C30.2546 89.0548 29.9396 89.4179 29.5284 89.6846C29.1208 89.9514 28.6355 90.0848 28.0723 90.0848C27.5091 90.0848 27.0219 89.9514 26.6106 89.6846C26.2031 89.4179 25.8882 89.0548 25.6659 88.5954C25.4436 88.1322 25.3324 87.6117 25.3324 87.0337V86.9058ZM26.3717 87.0337C26.3717 87.4301 26.4347 87.7969 26.5606 88.1341C26.6866 88.4712 26.8737 88.7417 27.1219 88.9455C27.3739 89.1493 27.6907 89.2511 28.0723 89.2511C28.4502 89.2511 28.7633 89.1493 29.0115 88.9455C29.2635 88.7417 29.4524 88.4712 29.5784 88.1341C29.7044 87.7969 29.7674 87.4301 29.7674 87.0337V86.9058C29.7674 86.5094 29.7044 86.1426 29.5784 85.8054C29.4524 85.4683 29.2635 85.1978 29.0115 84.994C28.7596 84.7866 28.4428 84.6828 28.0612 84.6828C27.687 84.6828 27.3739 84.7866 27.1219 84.994C26.87 85.1978 26.681 85.4683 26.5551 85.8054C26.4328 86.1426 26.3717 86.5094 26.3717 86.9058V87.0337ZM33.1408 89.9736H32.1015V83.9603H33.113L33.1408 84.9051V89.9736ZM35.0137 84.8773C34.9248 84.8588 34.8414 84.8477 34.7636 84.844C34.6895 84.8366 34.6043 84.8329 34.508 84.8329C34.193 84.8329 33.9263 84.8977 33.7077 85.0274C33.4928 85.1571 33.3261 85.3368 33.2075 85.5665C33.0889 85.7925 33.0148 86.0518 32.9852 86.3445L32.6906 86.5113C32.6906 86.0259 32.7555 85.5831 32.8852 85.183C33.0148 84.7791 33.2168 84.4568 33.4909 84.216C33.7688 83.9714 34.1245 83.8492 34.558 83.8492C34.6284 83.8492 34.7118 83.8584 34.8081 83.877C34.9081 83.8918 34.9767 83.9085 35.0137 83.927V84.8773ZM38.0926 90.0848C37.5998 90.0848 37.1738 89.9533 36.8144 89.6902C36.4587 89.4234 36.1845 89.0603 35.9919 88.6009C35.8029 88.1415 35.7084 87.6191 35.7084 87.0337V86.917C35.7084 86.3056 35.8029 85.7702 35.9919 85.3108C36.1845 84.8477 36.4587 84.4883 36.8144 84.2326C37.1738 83.977 37.6036 83.8492 38.1037 83.8492C38.6113 83.8492 39.0356 83.9659 39.3764 84.1993C39.721 84.429 39.9896 84.7569 40.1823 85.183C40.3786 85.6091 40.5046 86.1167 40.5602 86.7058V87.2449C40.5194 87.6821 40.4398 88.0748 40.3212 88.4231C40.2026 88.7713 40.0415 89.0696 39.8377 89.3178C39.6376 89.5661 39.3912 89.7569 39.0985 89.8903C38.8095 90.0199 38.4742 90.0848 38.0926 90.0848ZM38.3538 89.2511C38.6947 89.2511 38.9763 89.177 39.1986 89.0288C39.4246 88.8769 39.6061 88.6806 39.7432 88.4397C39.884 88.1952 39.9915 87.934 40.0656 87.6561V86.3056C40.0211 86.1018 39.9563 85.9036 39.871 85.711C39.7858 85.5183 39.6747 85.3442 39.5376 85.1885C39.4005 85.0329 39.2338 84.9107 39.0374 84.8217C38.8447 84.7291 38.6206 84.6828 38.3649 84.6828C37.9907 84.6828 37.6832 84.7866 37.4424 84.994C37.2053 85.1978 37.0293 85.4701 36.9144 85.811C36.8033 86.1482 36.7477 86.5168 36.7477 86.917V87.0337C36.7477 87.4338 36.8033 87.8025 36.9144 88.1396C37.0293 88.4731 37.2053 88.7417 37.4424 88.9455C37.6795 89.1493 37.9833 89.2511 38.3538 89.2511ZM39.7432 92.2856V85.1163L39.8321 83.9603H40.7825V92.2856H39.7432ZM46.1178 83.9603H47.157V89.9736H46.1678L46.1178 88.5842V83.9603ZM46.7458 87.306C46.7458 87.8395 46.6698 88.3156 46.5179 88.7343C46.366 89.153 46.1178 89.4827 45.7732 89.7235C45.4286 89.9644 44.9674 90.0848 44.3894 90.0848C43.8003 90.0848 43.3242 89.9106 42.9611 89.5624C42.598 89.2141 42.4164 88.6398 42.4164 87.8395V83.9603H43.4557V87.8506C43.4557 88.2137 43.5076 88.4953 43.6113 88.6954C43.7188 88.8918 43.8558 89.0288 44.0226 89.1066C44.193 89.1808 44.3708 89.2178 44.5561 89.2178C44.9933 89.2178 45.3397 89.1344 45.5954 88.9677C45.851 88.7973 46.0344 88.5676 46.1456 88.2786C46.2567 87.9896 46.3123 87.6691 46.3123 87.3171L46.7458 87.306ZM51.2196 90.0848C50.6602 90.0848 50.173 89.9607 49.758 89.7124C49.3467 89.4605 49.0262 89.1159 48.7965 88.6787C48.5705 88.2415 48.4575 87.7413 48.4575 87.1782V86.9392C48.4575 86.2871 48.5816 85.7313 48.8299 85.2719C49.0818 84.8088 49.4079 84.4568 49.808 84.216C50.2119 83.9714 50.6379 83.8492 51.0863 83.8492C51.6643 83.8492 52.1348 83.9788 52.4979 84.2382C52.8647 84.4939 53.1333 84.844 53.3037 85.2886C53.4779 85.7295 53.5649 86.2297 53.5649 86.7891V87.2504H49.0744V86.4168H52.5257V86.339C52.5109 86.0722 52.4571 85.8129 52.3645 85.5609C52.2719 85.3053 52.1237 85.0959 51.9199 84.9329C51.7161 84.7662 51.4382 84.6828 51.0863 84.6828C50.775 84.6828 50.499 84.7717 50.2582 84.9496C50.0211 85.1237 49.834 85.3794 49.6969 85.7165C49.5635 86.05 49.4968 86.4575 49.4968 86.9392V87.1782C49.4968 87.5598 49.5672 87.9081 49.708 88.223C49.8488 88.5342 50.0525 88.7843 50.3193 88.9733C50.5861 89.1585 50.9047 89.2511 51.2752 89.2511C51.6383 89.2511 51.9458 89.177 52.1978 89.0288C52.4497 88.8806 52.6702 88.6824 52.8591 88.4342L53.4871 88.9232C53.2945 89.2197 53.0166 89.4883 52.6535 89.7291C52.2941 89.9662 51.8162 90.0848 51.2196 90.0848ZM60.423 89.9736H59.356V81.8818H60.423V89.9736ZM63.0184 82.7543H56.7661V81.8818H63.0184V82.7543ZM62.6905 86.9058C62.6905 86.3242 62.8017 85.8036 63.024 85.3442C63.2463 84.8847 63.5612 84.5216 63.9688 84.2549C64.3763 83.9844 64.8598 83.8492 65.4193 83.8492C65.9862 83.8492 66.4752 83.9844 66.8865 84.2549C67.2977 84.5216 67.6127 84.8847 67.8313 85.3442C68.0536 85.8036 68.1647 86.3242 68.1647 86.9058V87.0337C68.1647 87.6117 68.0536 88.1322 67.8313 88.5954C67.6127 89.0548 67.2977 89.4179 66.8865 89.6846C66.4789 89.9514 65.9936 90.0848 65.4304 90.0848C64.8672 90.0848 64.38 89.9514 63.9688 89.6846C63.5612 89.4179 63.2463 89.0548 63.024 88.5954C62.8017 88.1322 62.6905 87.6117 62.6905 87.0337V86.9058ZM63.7298 87.0337C63.7298 87.4301 63.7928 87.7969 63.9187 88.1341C64.0447 88.4712 64.2318 88.7417 64.48 88.9455C64.732 89.1493 65.0488 89.2511 65.4304 89.2511C65.8083 89.2511 66.1214 89.1493 66.3696 88.9455C66.6216 88.7417 66.8105 88.4712 66.9365 88.1341C67.0625 87.7969 67.1255 87.4301 67.1255 87.0337V86.9058C67.1255 86.5094 67.0625 86.1426 66.9365 85.8054C66.8105 85.4683 66.6216 85.1978 66.3696 84.994C66.1177 84.7866 65.8009 84.6828 65.4193 84.6828C65.0451 84.6828 64.732 84.7866 64.48 84.994C64.2281 85.1978 64.0391 85.4683 63.9132 85.8054C63.7909 86.1426 63.7298 86.5094 63.7298 86.9058V87.0337ZM69.1929 86.9058C69.1929 86.3242 69.304 85.8036 69.5263 85.3442C69.7486 84.8847 70.0636 84.5216 70.4711 84.2549C70.8787 83.9844 71.3622 83.8492 71.9217 83.8492C72.4885 83.8492 72.9776 83.9844 73.3889 84.2549C73.8001 84.5216 74.115 84.8847 74.3336 85.3442C74.5559 85.8036 74.6671 86.3242 74.6671 86.9058V87.0337C74.6671 87.6117 74.5559 88.1322 74.3336 88.5954C74.115 89.0548 73.8001 89.4179 73.3889 89.6846C72.9813 89.9514 72.4959 90.0848 71.9328 90.0848C71.3696 90.0848 70.8824 89.9514 70.4711 89.6846C70.0636 89.4179 69.7486 89.0548 69.5263 88.5954C69.304 88.1322 69.1929 87.6117 69.1929 87.0337V86.9058ZM70.2321 87.0337C70.2321 87.4301 70.2951 87.7969 70.4211 88.1341C70.5471 88.4712 70.7342 88.7417 70.9824 88.9455C71.2344 89.1493 71.5511 89.2511 71.9328 89.2511C72.3107 89.2511 72.6238 89.1493 72.872 88.9455C73.1239 88.7417 73.3129 88.4712 73.4389 88.1341C73.5648 87.7969 73.6278 87.4301 73.6278 87.0337V86.9058C73.6278 86.5094 73.5648 86.1426 73.4389 85.8054C73.3129 85.4683 73.1239 85.1978 72.872 84.994C72.6201 84.7866 72.3033 84.6828 71.9217 84.6828C71.5474 84.6828 71.2344 84.7866 70.9824 84.994C70.7305 85.1978 70.5415 85.4683 70.4155 85.8054C70.2933 86.1426 70.2321 86.5094 70.2321 86.9058V87.0337ZM77.0902 89.9736H76.0509V81.4372H77.0902V89.9736ZM82.2143 89.9736V89.1066H83.9038C84.4781 89.1066 84.9579 88.9862 85.3432 88.7454C85.7286 88.5009 86.0176 88.16 86.2102 87.7228C86.4066 87.2819 86.5048 86.7651 86.5048 86.1722V85.6721C86.5048 85.0533 86.4066 84.5272 86.2102 84.0937C86.0176 83.6602 85.7341 83.3286 85.3599 83.0989C84.9857 82.8692 84.5318 82.7543 83.9983 82.7543H82.181V81.8818H83.9983C84.7097 81.8818 85.3321 82.0374 85.8656 82.3486C86.4029 82.6561 86.8216 83.0952 87.1217 83.6658C87.4218 84.2326 87.5718 84.9051 87.5718 85.6832V86.1722C87.5718 86.954 87.4218 87.6283 87.1217 88.1952C86.8216 88.7621 86.3973 89.2011 85.849 89.5124C85.3006 89.8199 84.6522 89.9736 83.9038 89.9736H82.2143ZM82.7923 89.9736H81.7141V81.8818H82.7923V89.9736ZM92.5681 85.8499C92.5681 85.4905 92.4606 85.2052 92.2458 84.994C92.0346 84.7791 91.7215 84.6717 91.3065 84.6717C91.0509 84.6717 90.8249 84.7162 90.6285 84.8051C90.4358 84.894 90.2858 85.0107 90.1783 85.1552C90.0709 85.2997 90.0172 85.4572 90.0172 85.6276H88.9779C88.9779 85.3386 89.0761 85.0589 89.2724 84.7884C89.4688 84.5142 89.7448 84.2901 90.1005 84.1159C90.4599 83.9381 90.8823 83.8492 91.3677 83.8492C91.8049 83.8492 92.192 83.9233 92.5292 84.0715C92.8664 84.2197 93.1294 84.4438 93.3184 84.7439C93.511 85.0403 93.6074 85.4127 93.6074 85.861V88.662C93.6074 88.8621 93.624 89.0752 93.6574 89.3012C93.6944 89.5272 93.7482 89.7217 93.8186 89.8847V89.9736H92.7348C92.683 89.8551 92.6422 89.6976 92.6126 89.5012C92.5829 89.3012 92.5681 89.1159 92.5681 88.9455V85.8499ZM92.7459 87.0503H91.7233C91.1379 87.0503 90.6859 87.143 90.3673 87.3282C90.0487 87.5135 89.8893 87.7914 89.8893 88.1619C89.8893 88.4509 89.9857 88.6954 90.1783 88.8955C90.3747 89.0955 90.66 89.1956 91.0342 89.1956C91.3491 89.1956 91.627 89.1289 91.8678 88.9955C92.1087 88.8621 92.2995 88.6972 92.4403 88.5009C92.5811 88.3045 92.657 88.1155 92.6681 87.934L93.1127 88.4286C93.0868 88.5842 93.0164 88.7565 92.9016 88.9455C92.7867 89.1344 92.6329 89.316 92.4403 89.4901C92.2513 89.6606 92.0253 89.8032 91.7622 89.9181C91.5029 90.0292 91.2102 90.0848 90.8841 90.0848C90.4766 90.0848 90.1191 90.007 89.8115 89.8514C89.5077 89.692 89.2706 89.4772 89.1002 89.2067C88.9334 88.9362 88.8501 88.6361 88.8501 88.3064C88.8501 87.658 89.0946 87.1671 89.5837 86.8336C90.0727 86.4964 90.7304 86.3279 91.5566 86.3279H92.7459V87.0503ZM97.7533 84.7439H94.4966V83.9603H97.7533V84.7439ZM96.6307 82.4987V88.4842C96.6307 88.6917 96.6622 88.8473 96.7252 88.951C96.7882 89.0548 96.8697 89.1233 96.9697 89.1567C97.0697 89.19 97.1772 89.2067 97.292 89.2067C97.3773 89.2067 97.4662 89.1993 97.5588 89.1845C97.6551 89.1696 97.7255 89.1567 97.77 89.1456V89.9736C97.6885 89.9996 97.5829 90.0237 97.4532 90.0459C97.3235 90.0718 97.1661 90.0848 96.9808 90.0848C96.7289 90.0848 96.4973 90.0348 96.2861 89.9347C96.0749 89.8347 95.9064 89.668 95.7804 89.4345C95.6544 89.1974 95.5914 88.8788 95.5914 88.4786V82.4987H96.6307ZM102.494 85.8499C102.494 85.4905 102.387 85.2052 102.172 84.994C101.96 84.7791 101.647 84.6717 101.232 84.6717C100.977 84.6717 100.751 84.7162 100.554 84.8051C100.362 84.894 100.212 85.0107 100.104 85.1552C99.9967 85.2997 99.943 85.4572 99.943 85.6276H98.9038C98.9038 85.3386 99.0019 85.0589 99.1983 84.7884C99.3947 84.5142 99.6707 84.2901 100.026 84.1159C100.386 83.9381 100.808 83.8492 101.294 83.8492C101.731 83.8492 102.118 83.9233 102.455 84.0715C102.792 84.2197 103.055 84.4438 103.244 84.7439C103.437 85.0403 103.533 85.4127 103.533 85.861V88.662C103.533 88.8621 103.55 89.0752 103.583 89.3012C103.62 89.5272 103.674 89.7217 103.744 89.8847V89.9736H102.661C102.609 89.8551 102.568 89.6976 102.538 89.5012C102.509 89.3012 102.494 89.1159 102.494 88.9455V85.8499ZM102.672 87.0503H101.649C101.064 87.0503 100.612 87.143 100.293 87.3282C99.9745 87.5135 99.8152 87.7914 99.8152 88.1619C99.8152 88.4509 99.9115 88.6954 100.104 88.8955C100.301 89.0955 100.586 89.1956 100.96 89.1956C101.275 89.1956 101.553 89.1289 101.794 88.9955C102.035 88.8621 102.225 88.6972 102.366 88.5009C102.507 88.3045 102.583 88.1155 102.594 87.934L103.039 88.4286C103.013 88.5842 102.942 88.7565 102.827 88.9455C102.713 89.1344 102.559 89.316 102.366 89.4901C102.177 89.6606 101.951 89.8032 101.688 89.9181C101.429 90.0292 101.136 90.0848 100.81 90.0848C100.402 90.0848 100.045 90.007 99.7374 89.8514C99.4336 89.692 99.1965 89.4772 99.026 89.2067C98.8593 88.9362 98.7759 88.6361 98.7759 88.3064C98.7759 87.658 99.0205 87.1671 99.5095 86.8336C99.9986 86.4964 100.656 86.3279 101.482 86.3279H102.672V87.0503Z" fill="#6B7280"/>
<rect x="150.872" y="0.352201" width="122.795" height="108.644" rx="8.10063" fill="#F3F4F6"/>
<rect x="150.872" y="0.352201" width="122.795" height="108.644" rx="8.10063" stroke="#E5E7EB" stroke-width="0.704402"/>
<path d="M238.447 50.5023H222.585L214.418 72.6972L210.119 28.3076L201.952 50.5023H201.995H186.09" stroke="#6B7280" stroke-width="2.27639" stroke-linecap="round" stroke-linejoin="round"/>
<path d="M187.933 91.2598H186.85L182.787 85.0019V91.2598H181.709V83.1679H182.787L186.866 89.4424V83.1679H187.933V91.2598ZM190.334 91.2598V90.3928H192.024C192.598 90.3928 193.078 90.2724 193.463 90.0315C193.848 89.787 194.137 89.4461 194.33 89.0089C194.526 88.568 194.625 88.0512 194.625 87.4584V86.9582C194.625 86.3394 194.526 85.8133 194.33 85.3798C194.137 84.9463 193.854 84.6147 193.48 84.385C193.106 84.1553 192.652 84.0405 192.118 84.0405H190.301V83.1679H192.118C192.829 83.1679 193.452 83.3235 193.985 83.6348C194.523 83.9423 194.941 84.3813 195.241 84.9519C195.542 85.5188 195.692 86.1912 195.692 86.9693V87.4584C195.692 88.2401 195.542 88.9145 195.241 89.4813C194.941 90.0482 194.517 90.4873 193.969 90.7985C193.42 91.106 192.772 91.2598 192.024 91.2598H190.334ZM190.912 91.2598H189.834V83.1679H190.912V91.2598ZM200.299 91.2598H199.232V83.1679H200.299V91.2598ZM202.894 84.0405H196.642V83.1679H202.894V84.0405ZM209.274 83.1679C209.882 83.1679 210.397 83.2605 210.819 83.4458C211.242 83.6311 211.562 83.9052 211.781 84.2683C212.003 84.6277 212.114 85.0705 212.114 85.5966C212.114 85.9671 212.038 86.3042 211.886 86.6081C211.738 86.9119 211.523 87.1712 211.242 87.3861C210.96 87.601 210.625 87.7603 210.236 87.8641L209.936 87.9808H207.424V87.1138H209.302C209.688 87.1138 210.008 87.0453 210.264 86.9082C210.519 86.7711 210.71 86.5877 210.836 86.358C210.966 86.1283 211.031 85.8745 211.031 85.5966C211.031 85.126 210.892 84.75 210.614 84.4684C210.336 84.1831 209.889 84.0405 209.274 84.0405H207.674V91.2598H206.596V83.1679H209.274ZM209.352 87.5918H210.48L212.47 91.1931V91.2598H211.314L209.352 87.5918ZM215.949 91.3709C215.39 91.3709 214.902 91.2468 214.487 90.9986C214.076 90.7466 213.756 90.402 213.526 89.9648C213.3 89.5277 213.187 89.0275 213.187 88.4643V88.2253C213.187 87.5732 213.311 87.0175 213.559 86.558C213.811 86.0949 214.137 85.7429 214.537 85.5021C214.941 85.2576 215.367 85.1353 215.816 85.1353C216.394 85.1353 216.864 85.265 217.227 85.5243C217.594 85.78 217.863 86.1301 218.033 86.5747C218.207 87.0156 218.294 87.5158 218.294 88.0753V88.5365H213.804V87.7029H217.255V87.6251C217.24 87.3583 217.187 87.099 217.094 86.847C217.001 86.5914 216.853 86.3821 216.649 86.219C216.446 86.0523 216.168 85.9689 215.816 85.9689C215.504 85.9689 215.228 86.0579 214.988 86.2357C214.75 86.4098 214.563 86.6655 214.426 87.0027C214.293 87.3361 214.226 87.7437 214.226 88.2253V88.4643C214.226 88.8459 214.297 89.1942 214.437 89.5091C214.578 89.8204 214.782 90.0704 215.049 90.2594C215.315 90.4447 215.634 90.5373 216.005 90.5373C216.368 90.5373 216.675 90.4632 216.927 90.315C217.179 90.1668 217.4 89.9686 217.589 89.7203L218.217 90.2094C218.024 90.5058 217.746 90.7744 217.383 91.0152C217.024 91.2524 216.546 91.3709 215.949 91.3709ZM221.707 91.3709C221.177 91.3709 220.729 91.2764 220.362 91.0875C219.995 90.8985 219.717 90.6558 219.528 90.3594C219.339 90.0593 219.245 89.7425 219.245 89.4091H220.284C220.303 89.6907 220.384 89.9148 220.529 90.0816C220.677 90.2446 220.856 90.3613 221.068 90.4317C221.282 90.5021 221.496 90.5373 221.707 90.5373C221.988 90.5373 222.224 90.5002 222.413 90.4261C222.605 90.3483 222.75 90.2446 222.846 90.1149C222.946 89.9815 222.996 89.8315 222.996 89.6647C222.996 89.5165 222.963 89.3794 222.896 89.2535C222.833 89.1238 222.703 89.0071 222.507 88.9033C222.311 88.7959 222.014 88.7014 221.618 88.6199C221.173 88.5273 220.788 88.4106 220.462 88.2698C220.139 88.1253 219.889 87.9419 219.712 87.7196C219.537 87.4973 219.45 87.2213 219.45 86.8915C219.45 86.5729 219.541 86.282 219.723 86.019C219.908 85.7522 220.167 85.5392 220.501 85.3798C220.838 85.2168 221.231 85.1353 221.679 85.1353C222.161 85.1353 222.572 85.2205 222.913 85.391C223.257 85.5577 223.52 85.7837 223.702 86.069C223.883 86.3506 223.974 86.6636 223.974 87.0082H222.935C222.935 86.76 222.826 86.5247 222.607 86.3024C222.392 86.0801 222.083 85.9689 221.679 85.9689C221.397 85.9689 221.168 86.0134 220.99 86.1023C220.816 86.1875 220.688 86.2987 220.606 86.4358C220.529 86.5692 220.49 86.71 220.49 86.8582C220.49 87.0064 220.527 87.136 220.601 87.2472C220.675 87.3546 220.81 87.451 221.006 87.5362C221.207 87.6214 221.496 87.7066 221.873 87.7918C222.366 87.903 222.772 88.0364 223.091 88.192C223.409 88.3476 223.646 88.5384 223.802 88.7644C223.958 88.9904 224.035 89.2664 224.035 89.5925C224.035 89.9408 223.939 90.2501 223.746 90.5206C223.554 90.7874 223.283 90.9967 222.935 91.1486C222.587 91.2968 222.177 91.3709 221.707 91.3709ZM229.054 85.2465H230.093V91.2598H229.104L229.054 89.8704V85.2465ZM229.682 88.5921C229.682 89.1257 229.606 89.6018 229.454 90.0204C229.302 90.4391 229.054 90.7688 228.709 91.0097C228.365 91.2505 227.903 91.3709 227.325 91.3709C226.736 91.3709 226.26 91.1968 225.897 90.8485C225.534 90.5002 225.353 89.9259 225.353 89.1257V85.2465H226.392V89.1368C226.392 89.4999 226.444 89.7814 226.547 89.9815C226.655 90.1779 226.792 90.315 226.959 90.3928C227.129 90.4669 227.307 90.5039 227.492 90.5039C227.929 90.5039 228.276 90.4206 228.531 90.2538C228.787 90.0834 228.97 89.8537 229.082 89.5647C229.193 89.2757 229.248 88.9552 229.248 88.6032L229.682 88.5921ZM232.783 91.2598H231.744V82.7233H232.783V91.2598ZM236.951 86.0301H233.694V85.2465H236.951V86.0301ZM235.829 83.7848V89.7703C235.829 89.9778 235.86 90.1334 235.923 90.2372C235.986 90.3409 236.068 90.4095 236.168 90.4428C236.268 90.4761 236.375 90.4928 236.49 90.4928C236.575 90.4928 236.664 90.4854 236.757 90.4706C236.853 90.4558 236.923 90.4428 236.968 90.4317V91.2598C236.886 91.2857 236.781 91.3098 236.651 91.332C236.521 91.3579 236.364 91.3709 236.179 91.3709C235.927 91.3709 235.695 91.3209 235.484 91.2209C235.273 91.1208 235.104 90.9541 234.978 90.7207C234.852 90.4836 234.789 90.1649 234.789 89.7648V83.7848H235.829ZM240.358 91.3709C239.828 91.3709 239.38 91.2764 239.013 91.0875C238.646 90.8985 238.368 90.6558 238.179 90.3594C237.99 90.0593 237.896 89.7425 237.896 89.4091H238.935C238.954 89.6907 239.035 89.9148 239.18 90.0816C239.328 90.2446 239.508 90.3613 239.719 90.4317C239.934 90.5021 240.147 90.5373 240.358 90.5373C240.64 90.5373 240.875 90.5002 241.064 90.4261C241.256 90.3483 241.401 90.2446 241.497 90.1149C241.597 89.9815 241.647 89.8315 241.647 89.6647C241.647 89.5165 241.614 89.3794 241.547 89.2535C241.484 89.1238 241.355 89.0071 241.158 88.9033C240.962 88.7959 240.666 88.7014 240.269 88.6199C239.824 88.5273 239.439 88.4106 239.113 88.2698C238.791 88.1253 238.541 87.9419 238.363 87.7196C238.189 87.4973 238.102 87.2213 238.102 86.8915C238.102 86.5729 238.192 86.282 238.374 86.019C238.559 85.7522 238.819 85.5392 239.152 85.3798C239.489 85.2168 239.882 85.1353 240.33 85.1353C240.812 85.1353 241.223 85.2205 241.564 85.391C241.909 85.5577 242.172 85.7837 242.353 86.069C242.535 86.3506 242.625 86.6636 242.625 87.0082H241.586C241.586 86.76 241.477 86.5247 241.258 86.3024C241.043 86.0801 240.734 85.9689 240.33 85.9689C240.049 85.9689 239.819 86.0134 239.641 86.1023C239.467 86.1875 239.339 86.2987 239.258 86.4358C239.18 86.5692 239.141 86.71 239.141 86.8582C239.141 87.0064 239.178 87.136 239.252 87.2472C239.326 87.3546 239.461 87.451 239.658 87.5362C239.858 87.6214 240.147 87.7066 240.525 87.7918C241.017 87.903 241.423 88.0364 241.742 88.192C242.06 88.3476 242.298 88.5384 242.453 88.7644C242.609 88.9904 242.687 89.2664 242.687 89.5925C242.687 89.9408 242.59 90.2501 242.398 90.5206C242.205 90.7874 241.934 90.9967 241.586 91.1486C241.238 91.2968 240.829 91.3709 240.358 91.3709Z" fill="#6B7280"/>
<rect x="302.669" y="0.352201" width="122.795" height="107.358" rx="8.10063" fill="#F3F4F6"/>
<rect x="302.669" y="0.352201" width="122.795" height="107.358" rx="8.10063" stroke="#E5E7EB" stroke-width="0.704402"/>
<path fill-rule="evenodd" clip-rule="evenodd" d="M366.208 44.5605C366.208 45.0001 365.865 45.3476 365.435 45.3476C365.007 45.3476 364.659 45.0001 364.659 44.5605C364.659 44.1301 365.007 43.7849 365.435 43.7849C365.863 43.7849 366.208 44.1301 366.208 44.5605ZM346.323 57.6425C346.251 57.2259 346.537 56.8208 346.956 56.7495C347.377 56.6781 347.777 56.9635 347.849 57.387L348.64 62.05C348.719 62.5034 348.38 62.9476 347.876 62.9476C347.506 62.9476 347.179 62.6806 347.115 62.3031L346.323 57.6425ZM341.738 60.8071C341.464 61.1316 341.508 61.6219 341.837 61.8958L345.701 65.1249C345.846 65.2423 346.021 65.2998 346.196 65.2998C346.926 65.2998 347.241 64.3953 346.691 63.9327L342.827 60.7082C342.498 60.4366 342.01 60.4826 341.738 60.8071ZM338.896 58.4365C339.17 58.1051 339.658 58.066 339.987 58.3399L340.946 59.1408C341.508 59.608 341.156 60.5079 340.452 60.5079C340.277 60.5079 340.099 60.4504 339.957 60.3261L338.997 59.5252C338.666 59.2513 338.622 58.7634 338.896 58.4365ZM353.637 64.5907L358.998 63.0418C359.41 62.9175 359.838 63.1591 359.958 63.5688C360.075 63.9785 359.84 64.4089 359.43 64.5263L354.07 66.0752C353.651 66.1926 353.23 65.9601 353.113 65.5481C352.991 65.1385 353.228 64.7081 353.637 64.5907ZM361.037 63.2558C360.92 62.8461 361.155 62.4157 361.564 62.2915L364.25 61.5159C364.662 61.3985 365.09 61.6332 365.21 62.0429C365.327 62.4526 365.093 62.883 364.681 63.0004L361.995 63.7806C361.613 63.891 361.161 63.6816 361.037 63.2558ZM382.331 69.866H340.082V68.3171L382.331 68.3148V69.866ZM383.105 66.7727H339.308C338.88 66.7727 338.535 67.118 338.535 67.5415V70.6416C338.535 71.0651 338.88 71.4104 339.308 71.4104L383.105 71.4081C383.533 71.4081 383.878 71.0628 383.878 70.6393V67.5392C383.878 67.118 383.533 66.7727 383.105 66.7727ZM353.198 60.3517L354.575 59.7924L354.22 61.2377L352.105 62.6578L353.198 60.3517ZM350.197 65.6384C350.347 65.6384 350.496 65.5992 350.627 65.5072L355.329 62.3494C355.488 62.2459 355.603 62.0824 355.649 61.8937L356.436 58.6831C356.584 58.0731 355.981 57.5438 355.392 57.7855L352.333 59.0352C352.153 59.1066 352.008 59.2447 351.925 59.4196L349.495 64.5382C349.26 65.0377 349.61 65.6384 350.197 65.6384ZM387.926 47.854L386.75 49.6838C386.518 50.0428 386.025 50.1487 385.659 49.9185L375.323 43.2694L377.795 40.3971L387.689 46.7657C388.055 47.0028 388.161 47.4904 387.926 47.854ZM369.085 48.1348L378.794 36.8688C379.132 36.4706 379.091 35.8676 378.695 35.527L375.01 32.3485C374.612 32.0033 374.009 32.0493 373.668 32.4452L363.96 43.7136L363.815 46.8851L365.974 48.7471L369.085 48.1348ZM358.188 56.3217C357.969 56.5473 357.732 56.2411 357.509 56.0547C357.405 55.9696 357.389 55.8131 357.472 55.7026L363.138 48.3447L364.63 49.6267L358.188 56.3217ZM383.772 25.2645L384.409 25.8123L379.044 33.7824L376.678 31.7432L383.772 25.2645ZM388.527 45.4651L378.817 39.2144L379.968 37.8795C380.693 37.0371 380.766 35.8081 380.17 34.8829L386.078 26.105C386.297 25.7851 386.239 25.3432 385.94 25.09L384.262 23.6446C383.965 23.3915 383.523 23.3984 383.236 23.6584L375.424 30.8001C374.439 30.3513 373.235 30.5792 372.494 31.4376L362.613 42.9063C362.5 43.0375 362.434 43.2055 362.427 43.3759L362.263 46.9433L356.249 54.7572C355.665 55.5191 355.775 56.6008 356.5 57.2245C356.965 57.6273 357.297 57.9402 358.001 57.9402C358.477 57.9402 358.949 57.7584 359.304 57.3856L366.144 50.2875L369.649 49.597C369.819 49.5648 369.973 49.4727 370.086 49.3438L374.305 44.4461L384.823 51.2196C385.903 51.91 387.353 51.6062 388.05 50.5153L389.226 48.6855C389.924 47.6084 389.608 46.1631 388.527 45.4657L388.527 45.4651Z" fill="#6B7280"/>
<path d="M342.735 81.8818H343.524L343.068 84.0659L341.345 89.9736H340.562L341.134 87.5339L342.735 81.8818ZM340.756 87.4283L341.134 89.9736H340.362L338.405 81.8818H339.484L340.756 87.4283ZM346.836 81.8818H347.92L345.964 89.9736H345.191L345.591 87.4227L346.836 81.8818ZM345.197 87.5339L345.764 89.9736H344.98L343.318 84.0659L342.868 81.8818H343.641L345.197 87.5339ZM351.449 90.0848C350.89 90.0848 350.402 89.9607 349.987 89.7124C349.576 89.4605 349.256 89.1159 349.026 88.6787C348.8 88.2415 348.687 87.7413 348.687 87.1782V86.9392C348.687 86.2871 348.811 85.7313 349.059 85.2719C349.311 84.8088 349.637 84.4568 350.037 84.216C350.441 83.9714 350.867 83.8492 351.316 83.8492C351.894 83.8492 352.364 83.9788 352.727 84.2382C353.094 84.4939 353.363 84.844 353.533 85.2886C353.707 85.7295 353.794 86.2297 353.794 86.7891V87.2504H349.304V86.4168H352.755V86.339C352.74 86.0722 352.687 85.8129 352.594 85.5609C352.501 85.3053 352.353 85.0959 352.149 84.9329C351.946 84.7662 351.668 84.6828 351.316 84.6828C351.004 84.6828 350.728 84.7717 350.488 84.9496C350.25 85.1237 350.063 85.3794 349.926 85.7165C349.793 86.05 349.726 86.4575 349.726 86.9392V87.1782C349.726 87.5598 349.797 87.9081 349.937 88.223C350.078 88.5342 350.282 88.7843 350.549 88.9733C350.816 89.1585 351.134 89.2511 351.505 89.2511C351.868 89.2511 352.175 89.177 352.427 89.0288C352.679 88.8806 352.9 88.6824 353.089 88.4342L353.717 88.9232C353.524 89.2197 353.246 89.4883 352.883 89.7291C352.524 89.9662 352.046 90.0848 351.449 90.0848ZM356.123 89.9736H355.084V81.4372H356.123V89.9736ZM359.88 90.0848C359.409 90.0848 358.996 89.9533 358.641 89.6902C358.285 89.4234 358.007 89.0603 357.807 88.6009C357.611 88.1415 357.512 87.6191 357.512 87.0337V86.917C357.512 86.3056 357.611 85.7702 357.807 85.3108C358.007 84.8477 358.285 84.4883 358.641 84.2326C358.996 83.977 359.413 83.8492 359.891 83.8492C360.395 83.8492 360.815 83.9659 361.153 84.1993C361.49 84.429 361.753 84.7569 361.942 85.183C362.134 85.6091 362.259 86.1167 362.314 86.7058V87.2449C362.259 87.8266 362.136 88.3304 361.947 88.7565C361.758 89.1789 361.493 89.5068 361.153 89.7402C360.815 89.9699 360.391 90.0848 359.88 90.0848ZM360.136 89.2178C360.476 89.2178 360.756 89.1456 360.975 89.0011C361.197 88.8566 361.375 88.6657 361.508 88.4286C361.642 88.1915 361.745 87.934 361.82 87.6561V86.3056C361.775 86.1018 361.71 85.9055 361.625 85.7165C361.544 85.5239 361.436 85.3534 361.303 85.2052C361.173 85.0533 361.012 84.9329 360.819 84.844C360.63 84.7551 360.406 84.7106 360.147 84.7106C359.772 84.7106 359.467 84.8106 359.23 85.0107C358.996 85.2108 358.824 85.4794 358.713 85.8166C358.605 86.15 358.552 86.5168 358.552 86.917V87.0337C358.552 87.4338 358.605 87.7988 358.713 88.1285C358.824 88.4583 358.996 88.7232 359.23 88.9232C359.463 89.1196 359.765 89.2178 360.136 89.2178ZM361.642 89.9736L361.553 88.8065V81.4372H362.592V89.9736H361.642ZM367.672 89.9736V89.1066H369.361C369.935 89.1066 370.415 88.9862 370.801 88.7454C371.186 88.5009 371.475 88.16 371.668 87.7228C371.864 87.2819 371.962 86.7651 371.962 86.1722V85.6721C371.962 85.0533 371.864 84.5272 371.668 84.0937C371.475 83.6602 371.191 83.3286 370.817 83.0989C370.443 82.8692 369.989 82.7543 369.456 82.7543H367.638V81.8818H369.456C370.167 81.8818 370.789 82.0374 371.323 82.3486C371.86 82.6561 372.279 83.0952 372.579 83.6658C372.879 84.2326 373.029 84.9051 373.029 85.6832V86.1722C373.029 86.954 372.879 87.6283 372.579 88.1952C372.279 88.7621 371.855 89.2011 371.306 89.5124C370.758 89.8199 370.11 89.9736 369.361 89.9736H367.672ZM368.25 89.9736H367.171V81.8818H368.25V89.9736ZM378.025 85.8499C378.025 85.4905 377.918 85.2052 377.703 84.994C377.492 84.7791 377.179 84.6717 376.764 84.6717C376.508 84.6717 376.282 84.7162 376.086 84.8051C375.893 84.894 375.743 85.0107 375.636 85.1552C375.528 85.2997 375.475 85.4572 375.475 85.6276H374.435C374.435 85.3386 374.533 85.0589 374.73 84.7884C374.926 84.5142 375.202 84.2901 375.558 84.1159C375.917 83.9381 376.34 83.8492 376.825 83.8492C377.262 83.8492 377.649 83.9233 377.987 84.0715C378.324 84.2197 378.587 84.4438 378.776 84.7439C378.968 85.0403 379.065 85.4127 379.065 85.861V88.662C379.065 88.8621 379.081 89.0752 379.115 89.3012C379.152 89.5272 379.206 89.7217 379.276 89.8847V89.9736H378.192C378.14 89.8551 378.1 89.6976 378.07 89.5012C378.04 89.3012 378.025 89.1159 378.025 88.9455V85.8499ZM378.203 87.0503H377.181C376.595 87.0503 376.143 87.143 375.825 87.3282C375.506 87.5135 375.347 87.7914 375.347 88.1619C375.347 88.4509 375.443 88.6954 375.636 88.8955C375.832 89.0955 376.117 89.1956 376.492 89.1956C376.806 89.1956 377.084 89.1289 377.325 88.9955C377.566 88.8621 377.757 88.6972 377.898 88.5009C378.038 88.3045 378.114 88.1155 378.126 87.934L378.57 88.4286C378.544 88.5842 378.474 88.7565 378.359 88.9455C378.244 89.1344 378.09 89.316 377.898 89.4901C377.709 89.6606 377.483 89.8032 377.22 89.9181C376.96 90.0292 376.668 90.0848 376.342 90.0848C375.934 90.0848 375.576 90.007 375.269 89.8514C374.965 89.692 374.728 89.4772 374.558 89.2067C374.391 88.9362 374.307 88.6361 374.307 88.3064C374.307 87.658 374.552 87.1671 375.041 86.8336C375.53 86.4964 376.188 86.3279 377.014 86.3279H378.203V87.0503ZM383.211 84.7439H379.954V83.9603H383.211V84.7439ZM382.088 82.4987V88.4842C382.088 88.6917 382.12 88.8473 382.183 88.951C382.246 89.0548 382.327 89.1233 382.427 89.1567C382.527 89.19 382.635 89.2067 382.749 89.2067C382.835 89.2067 382.924 89.1993 383.016 89.1845C383.113 89.1696 383.183 89.1567 383.227 89.1456V89.9736C383.146 89.9996 383.04 90.0237 382.911 90.0459C382.781 90.0718 382.623 90.0848 382.438 90.0848C382.186 90.0848 381.955 90.0348 381.743 89.9347C381.532 89.8347 381.364 89.668 381.238 89.4345C381.112 89.1974 381.049 88.8788 381.049 88.4786V82.4987H382.088ZM387.951 85.8499C387.951 85.4905 387.844 85.2052 387.629 84.994C387.418 84.7791 387.105 84.6717 386.69 84.6717C386.434 84.6717 386.208 84.7162 386.012 84.8051C385.819 84.894 385.669 85.0107 385.562 85.1552C385.454 85.2997 385.4 85.4572 385.4 85.6276H384.361C384.361 85.3386 384.459 85.0589 384.656 84.7884C384.852 84.5142 385.128 84.2901 385.484 84.1159C385.843 83.9381 386.266 83.8492 386.751 83.8492C387.188 83.8492 387.575 83.9233 387.912 84.0715C388.25 84.2197 388.513 84.4438 388.702 84.7439C388.894 85.0403 388.991 85.4127 388.991 85.861V88.662C388.991 88.8621 389.007 89.0752 389.041 89.3012C389.078 89.5272 389.131 89.7217 389.202 89.8847V89.9736H388.118C388.066 89.8551 388.025 89.6976 387.996 89.5012C387.966 89.3012 387.951 89.1159 387.951 88.9455V85.8499ZM388.129 87.0503H387.107C386.521 87.0503 386.069 87.143 385.751 87.3282C385.432 87.5135 385.273 87.7914 385.273 88.1619C385.273 88.4509 385.369 88.6954 385.562 88.8955C385.758 89.0955 386.043 89.1956 386.417 89.1956C386.732 89.1956 387.01 89.1289 387.251 88.9955C387.492 88.8621 387.683 88.6972 387.823 88.5009C387.964 88.3045 388.04 88.1155 388.051 87.934L388.496 88.4286C388.47 88.5842 388.4 88.7565 388.285 88.9455C388.17 89.1344 388.016 89.316 387.823 89.4901C387.635 89.6606 387.409 89.8032 387.145 89.9181C386.886 90.0292 386.593 90.0848 386.267 90.0848C385.86 90.0848 385.502 90.007 385.195 89.8514C384.891 89.692 384.654 89.4772 384.483 89.2067C384.317 88.9362 384.233 88.6361 384.233 88.3064C384.233 87.658 384.478 87.1671 384.967 86.8336C385.456 86.4964 386.114 86.3279 386.94 86.3279H388.129V87.0503Z" fill="#6B7280"/>
<path d="M154.007 296.893H152.08L146.255 287.765V296.893H144.328V284.53H146.255L152.097 293.675V284.53H154.007V296.893ZM156.087 292.206C156.087 291.317 156.257 290.522 156.597 289.82C156.937 289.118 157.42 288.563 158.049 288.156C158.683 287.743 159.436 287.536 160.307 287.536C161.196 287.536 161.957 287.743 162.591 288.156C163.225 288.563 163.709 289.118 164.043 289.82C164.383 290.522 164.553 291.317 164.553 292.206V292.401C164.553 293.284 164.383 294.079 164.043 294.787C163.709 295.489 163.225 296.044 162.591 296.451C161.963 296.859 161.207 297.062 160.324 297.062C159.447 297.062 158.691 296.859 158.057 296.451C157.423 296.044 156.937 295.489 156.597 294.787C156.257 294.079 156.087 293.284 156.087 292.401V292.206ZM157.947 292.401C157.947 292.973 158.032 293.499 158.202 293.98C158.371 294.461 158.632 294.849 158.983 295.144C159.334 295.432 159.781 295.577 160.324 295.577C160.868 295.577 161.315 295.432 161.666 295.144C162.017 294.849 162.277 294.461 162.447 293.98C162.617 293.499 162.702 292.973 162.702 292.401V292.206C162.702 291.64 162.617 291.116 162.447 290.635C162.277 290.148 162.014 289.758 161.657 289.463C161.306 289.169 160.856 289.022 160.307 289.022C159.775 289.022 159.331 289.169 158.974 289.463C158.623 289.758 158.363 290.148 158.193 290.635C158.029 291.116 157.947 291.64 157.947 292.206V292.401ZM171.795 296.893H169.791L174.478 284.53H175.735L175.667 285.957L171.795 296.893ZM175.013 285.957L174.936 284.53H176.193L180.897 296.893H178.893L175.013 285.957ZM178.723 293.87H171.88V292.308H178.723V293.87ZM187.672 287.706H189.523V296.893H187.774L187.672 294.744V287.706ZM188.649 292.8C188.649 293.621 188.53 294.351 188.292 294.991C188.054 295.63 187.675 296.137 187.154 296.511C186.634 296.878 185.949 297.062 185.1 297.062C184.194 297.062 183.461 296.796 182.901 296.264C182.346 295.732 182.069 294.858 182.069 293.641V287.706H183.928V293.658C183.928 294.144 183.999 294.527 184.14 294.804C184.287 295.076 184.48 295.265 184.718 295.373C184.961 295.48 185.219 295.534 185.49 295.534C186.107 295.534 186.597 295.415 186.959 295.177C187.321 294.934 187.579 294.606 187.732 294.193C187.89 293.779 187.969 293.321 187.969 292.817L188.649 292.8ZM195.806 289.081H190.703V287.706H195.806V289.081ZM194.134 285.464V294.456C194.134 294.756 194.176 294.982 194.261 295.135C194.352 295.288 194.47 295.39 194.618 295.441C194.77 295.492 194.937 295.517 195.119 295.517C195.254 295.517 195.39 295.509 195.526 295.492C195.668 295.469 195.775 295.449 195.849 295.432V296.876C195.696 296.927 195.515 296.969 195.305 297.003C195.096 297.043 194.847 297.062 194.558 297.062C194.128 297.062 193.74 296.983 193.395 296.825C193.05 296.661 192.778 296.394 192.58 296.027C192.382 295.653 192.283 295.155 192.283 294.532V285.464H194.134ZM196.876 292.206C196.876 291.317 197.046 290.522 197.386 289.82C197.725 289.118 198.209 288.563 198.837 288.156C199.471 287.743 200.224 287.536 201.096 287.536C201.985 287.536 202.746 287.743 203.38 288.156C204.014 288.563 204.498 289.118 204.832 289.82C205.171 290.522 205.341 291.317 205.341 292.206V292.401C205.341 293.284 205.171 294.079 204.832 294.787C204.498 295.489 204.014 296.044 203.38 296.451C202.752 296.859 201.996 297.062 201.113 297.062C200.236 297.062 199.48 296.859 198.846 296.451C198.212 296.044 197.725 295.489 197.386 294.787C197.046 294.079 196.876 293.284 196.876 292.401V292.206ZM198.736 292.401C198.736 292.973 198.82 293.499 198.99 293.98C199.16 294.461 199.42 294.849 199.771 295.144C200.122 295.432 200.569 295.577 201.113 295.577C201.656 295.577 202.103 295.432 202.454 295.144C202.805 294.849 203.066 294.461 203.236 293.98C203.405 293.499 203.49 292.973 203.49 292.401V292.206C203.49 291.64 203.405 291.116 203.236 290.635C203.066 290.148 202.802 289.758 202.446 289.463C202.095 289.169 201.645 289.022 201.096 289.022C200.564 289.022 200.119 289.169 199.763 289.463C199.412 289.758 199.152 290.148 198.982 290.635C198.818 291.116 198.736 291.64 198.736 292.206V292.401ZM209.026 296.893H207.175V287.706H208.924L209.026 289.557V296.893ZM207.965 291.943C207.965 291.099 208.103 290.346 208.381 289.684C208.664 289.022 209.077 288.498 209.62 288.113C210.169 287.728 210.852 287.536 211.667 287.536C212.516 287.536 213.212 287.788 213.755 288.292C214.304 288.795 214.579 289.622 214.579 290.771V296.893H212.728V290.907C212.728 290.454 212.654 290.092 212.507 289.82C212.36 289.548 212.153 289.353 211.887 289.234C211.621 289.115 211.304 289.056 210.936 289.056C210.523 289.056 210.172 289.132 209.884 289.285C209.601 289.438 209.371 289.65 209.196 289.922C209.02 290.188 208.893 290.496 208.814 290.847C208.735 291.193 208.695 291.563 208.695 291.96L207.965 291.943ZM213.484 291.544C213.489 290.83 213.628 290.171 213.9 289.565C214.177 288.954 214.585 288.464 215.122 288.096C215.66 287.723 216.319 287.536 217.101 287.536C217.74 287.536 218.286 287.652 218.739 287.884C219.192 288.111 219.537 288.473 219.775 288.971C220.019 289.463 220.14 290.109 220.14 290.907V296.893H218.281V290.898C218.281 290.417 218.207 290.044 218.06 289.777C217.919 289.511 217.715 289.325 217.449 289.217C217.183 289.11 216.869 289.056 216.506 289.056C216.178 289.056 215.889 289.115 215.64 289.234C215.391 289.347 215.182 289.509 215.012 289.718C214.848 289.922 214.72 290.157 214.63 290.423C214.545 290.689 214.502 290.975 214.502 291.28L213.484 291.544ZM227.637 290.644C227.637 290.128 227.49 289.721 227.196 289.421C226.907 289.115 226.471 288.962 225.888 288.962C225.532 288.962 225.22 289.025 224.954 289.149C224.688 289.268 224.482 289.429 224.335 289.633C224.187 289.837 224.114 290.063 224.114 290.312H222.263C222.263 289.843 222.416 289.398 222.721 288.979C223.027 288.555 223.46 288.21 224.02 287.944C224.581 287.672 225.237 287.536 225.99 287.536C226.669 287.536 227.272 287.652 227.799 287.884C228.331 288.111 228.747 288.456 229.047 288.92C229.347 289.384 229.497 289.964 229.497 290.661V294.821C229.497 295.189 229.525 295.543 229.582 295.882C229.638 296.216 229.72 296.508 229.828 296.757V296.893H227.926C227.835 296.689 227.765 296.426 227.714 296.103C227.663 295.775 227.637 295.461 227.637 295.161V290.644ZM227.926 292.511H226.44C225.619 292.511 224.994 292.653 224.564 292.936C224.134 293.213 223.919 293.61 223.919 294.125C223.919 294.527 224.054 294.863 224.326 295.135C224.598 295.407 224.988 295.543 225.498 295.543C225.945 295.543 226.338 295.452 226.678 295.271C227.018 295.084 227.284 294.855 227.476 294.583C227.669 294.311 227.77 294.051 227.782 293.802L228.461 294.651C228.404 294.889 228.291 295.146 228.121 295.424C227.957 295.695 227.736 295.956 227.459 296.205C227.182 296.454 226.853 296.661 226.474 296.825C226.095 296.983 225.662 297.062 225.175 297.062C224.564 297.062 224.023 296.944 223.553 296.706C223.089 296.468 222.724 296.143 222.458 295.729C222.198 295.311 222.068 294.846 222.068 294.337C222.068 293.352 222.435 292.602 223.171 292.087C223.913 291.566 224.935 291.306 226.236 291.306H227.926V292.511ZM235.848 289.081H230.745V287.706H235.848V289.081ZM234.175 285.464V294.456C234.175 294.756 234.218 294.982 234.302 295.135C234.393 295.288 234.512 295.39 234.659 295.441C234.812 295.492 234.979 295.517 235.16 295.517C235.296 295.517 235.432 295.509 235.568 295.492C235.709 295.469 235.817 295.449 235.89 295.432V296.876C235.737 296.927 235.556 296.969 235.347 297.003C235.137 297.043 234.888 297.062 234.6 297.062C234.169 297.062 233.782 296.983 233.436 296.825C233.091 296.661 232.819 296.394 232.621 296.027C232.423 295.653 232.324 295.155 232.324 294.532V285.464H234.175ZM238.633 284.276C238.978 284.276 239.244 284.375 239.431 284.573C239.618 284.765 239.711 285.003 239.711 285.286C239.711 285.569 239.618 285.807 239.431 285.999C239.244 286.192 238.978 286.288 238.633 286.288C238.293 286.288 238.03 286.192 237.843 285.999C237.662 285.807 237.571 285.569 237.571 285.286C237.571 285.003 237.662 284.765 237.843 284.573C238.03 284.375 238.293 284.276 238.633 284.276ZM239.567 296.893H237.716V287.706H239.567V296.893ZM245.714 297.062C244.78 297.062 244.007 296.853 243.396 296.434C242.785 296.015 242.326 295.458 242.02 294.761C241.72 294.06 241.57 293.293 241.57 292.461V292.138C241.57 291.3 241.723 290.533 242.029 289.837C242.335 289.141 242.793 288.583 243.404 288.164C244.016 287.745 244.783 287.536 245.705 287.536C246.435 287.536 247.075 287.683 247.624 287.977C248.179 288.266 248.612 288.668 248.923 289.183C249.235 289.693 249.401 290.278 249.424 290.941H247.675C247.652 290.59 247.559 290.27 247.395 289.981C247.231 289.687 247.004 289.455 246.716 289.285C246.427 289.11 246.087 289.022 245.697 289.022C245.108 289.022 244.647 289.175 244.313 289.48C243.985 289.786 243.752 290.177 243.617 290.652C243.486 291.127 243.421 291.623 243.421 292.138V292.461C243.421 292.976 243.486 293.474 243.617 293.955C243.747 294.43 243.976 294.821 244.304 295.127C244.638 295.427 245.102 295.577 245.697 295.577C246.048 295.577 246.368 295.506 246.656 295.364C246.951 295.217 247.188 295.019 247.369 294.77C247.551 294.515 247.652 294.227 247.675 293.904H249.424C249.401 294.481 249.22 295.011 248.881 295.492C248.541 295.967 248.094 296.349 247.539 296.638C246.99 296.921 246.382 297.062 245.714 297.062ZM263.264 296.893H257.083V295.347H263.264V296.893ZM257.55 296.893H255.622V284.53H257.55V296.893ZM265.887 284.276C266.233 284.276 266.499 284.375 266.685 284.573C266.872 284.765 266.966 285.003 266.966 285.286C266.966 285.569 266.872 285.807 266.685 285.999C266.499 286.192 266.233 286.288 265.887 286.288C265.548 286.288 265.284 286.192 265.098 285.999C264.917 285.807 264.826 285.569 264.826 285.286C264.826 285.003 264.917 284.765 265.098 284.573C265.284 284.375 265.548 284.276 265.887 284.276ZM266.821 296.893H264.97V287.706H266.821V296.893ZM271.067 296.893H269.216V287.706H270.956L271.067 289.667V296.893ZM270.022 291.943C270.034 291.082 270.192 290.321 270.498 289.659C270.809 288.996 271.239 288.478 271.788 288.105C272.343 287.726 272.988 287.536 273.724 287.536C274.324 287.536 274.842 287.649 275.278 287.876C275.714 288.096 276.053 288.456 276.297 288.954C276.54 289.446 276.662 290.103 276.662 290.924V296.893H274.802V290.907C274.802 290.454 274.737 290.092 274.607 289.82C274.477 289.548 274.284 289.353 274.03 289.234C273.775 289.115 273.461 289.056 273.087 289.056C272.719 289.056 272.388 289.132 272.094 289.285C271.8 289.438 271.548 289.65 271.338 289.922C271.129 290.188 270.968 290.496 270.854 290.847C270.747 291.193 270.693 291.563 270.693 291.96L270.022 291.943ZM280.729 296.893H278.878V283.851H280.729V296.893ZM282.401 292.07L280.168 294.362L279.82 292.647L281.459 290.652L284.142 287.706H286.384L282.401 292.07ZM281.518 292.554L282.597 291.127L286.766 296.893H284.609L281.518 292.554Z" fill="#FF3B27"/>
<rect x="178.512" y="201.329" width="72.7109" height="72.7109" rx="36.3554" fill="#FFE8E5"/>
<path d="M214.864 230.186V234.958M214.864 244.501H214.889M197.943 254.045H231.786C235.547 254.045 237.897 250.068 236.016 246.887L219.095 218.257C217.214 215.077 212.515 215.077 210.634 218.257L193.713 246.887C191.832 250.068 194.182 254.045 197.943 254.045Z" stroke="#FF604F" stroke-width="3.62108" stroke-linecap="round" stroke-linejoin="round"/>
<rect x="107.234" y="346.145" width="216.114" height="66.3245" rx="7.20127" fill="#FFE8E5" fill-opacity="0.5"/>
<rect x="107.234" y="346.145" width="216.114" height="66.3245" rx="7.20127" stroke="#FF604F" stroke-width="0.960169"/>
<path d="M149.951 373.546V379.307M149.951 385.068H149.965M162.913 379.307C162.913 381.009 162.578 382.695 161.926 384.267C161.275 385.84 160.32 387.269 159.116 388.473C157.913 389.676 156.484 390.631 154.911 391.283C153.338 391.934 151.653 392.269 149.951 392.269C148.248 392.269 146.563 391.934 144.99 391.283C143.417 390.631 141.989 389.676 140.785 388.473C139.581 387.269 138.626 385.84 137.975 384.267C137.324 382.695 136.988 381.009 136.988 379.307C136.988 375.869 138.354 372.572 140.785 370.141C143.216 367.71 146.513 366.345 149.951 366.345C153.388 366.345 156.685 367.71 159.116 370.141C161.547 372.572 162.913 375.869 162.913 379.307Z" stroke="#FF3B27" stroke-width="1.92034" stroke-linecap="round" stroke-linejoin="round"/>
<path d="M177.874 373.751L180.789 381.293L183.703 373.751H185.075L181.327 383.308H180.244L176.496 373.751H177.874ZM177.211 373.751L177.428 379.914V383.308H175.945V373.751H177.211ZM185.626 373.751V383.308H184.143V379.914L184.359 373.751H185.626ZM188.383 373.554C188.65 373.554 188.855 373.631 189 373.784C189.144 373.933 189.216 374.116 189.216 374.335C189.216 374.554 189.144 374.738 189 374.886C188.855 375.035 188.65 375.11 188.383 375.11C188.12 375.11 187.917 375.035 187.772 374.886C187.632 374.738 187.562 374.554 187.562 374.335C187.562 374.116 187.632 373.933 187.772 373.784C187.917 373.631 188.12 373.554 188.383 373.554ZM189.105 383.308H187.674V376.206H189.105V383.308ZM193.607 383.439C192.968 383.439 192.428 383.325 191.986 383.098C191.549 382.87 191.216 382.579 190.988 382.225C190.761 381.866 190.647 381.489 190.647 381.096H192.052C192.069 381.402 192.157 381.647 192.314 381.831C192.472 382.015 192.667 382.146 192.898 382.225C193.135 382.303 193.373 382.343 193.614 382.343C193.92 382.343 194.176 382.303 194.382 382.225C194.588 382.141 194.743 382.03 194.848 381.89C194.957 381.745 195.012 381.581 195.012 381.398C195.012 381.236 194.973 381.087 194.894 380.951C194.819 380.811 194.668 380.684 194.441 380.571C194.218 380.457 193.883 380.354 193.437 380.262C192.925 380.157 192.476 380.019 192.091 379.849C191.71 379.674 191.415 379.453 191.205 379.186C190.995 378.914 190.89 378.582 190.89 378.188C190.89 377.807 190.999 377.457 191.218 377.138C191.437 376.818 191.748 376.562 192.15 376.37C192.557 376.173 193.034 376.074 193.581 376.074C194.163 376.074 194.662 376.175 195.078 376.376C195.498 376.573 195.817 376.84 196.036 377.177C196.259 377.514 196.371 377.893 196.371 378.313H194.94C194.94 378.024 194.824 377.761 194.592 377.525C194.36 377.289 194.023 377.171 193.581 377.171C193.284 377.171 193.038 377.217 192.846 377.308C192.658 377.4 192.518 377.521 192.426 377.669C192.338 377.814 192.295 377.969 192.295 378.135C192.295 378.297 192.338 378.44 192.426 378.562C192.513 378.68 192.667 378.787 192.885 378.884C193.109 378.976 193.426 379.067 193.837 379.159C194.397 379.282 194.87 379.433 195.255 379.612C195.64 379.787 195.931 380.013 196.128 380.288C196.329 380.564 196.43 380.908 196.43 381.319C196.43 381.73 196.312 382.098 196.075 382.422C195.843 382.741 195.515 382.99 195.091 383.17C194.671 383.349 194.176 383.439 193.607 383.439ZM200.539 383.439C199.9 383.439 199.359 383.325 198.917 383.098C198.48 382.87 198.147 382.579 197.92 382.225C197.692 381.866 197.578 381.489 197.578 381.096H198.983C199 381.402 199.088 381.647 199.246 381.831C199.403 382.015 199.598 382.146 199.83 382.225C200.066 382.303 200.304 382.343 200.545 382.343C200.851 382.343 201.107 382.303 201.313 382.225C201.519 382.141 201.674 382.03 201.779 381.89C201.888 381.745 201.943 381.581 201.943 381.398C201.943 381.236 201.904 381.087 201.825 380.951C201.751 380.811 201.6 380.684 201.372 380.571C201.149 380.457 200.814 380.354 200.368 380.262C199.856 380.157 199.407 380.019 199.022 379.849C198.642 379.674 198.346 379.453 198.136 379.186C197.926 378.914 197.821 378.582 197.821 378.188C197.821 377.807 197.931 377.457 198.149 377.138C198.368 376.818 198.679 376.562 199.081 376.37C199.488 376.173 199.965 376.074 200.512 376.074C201.094 376.074 201.593 376.175 202.009 376.376C202.429 376.573 202.748 376.84 202.967 377.177C203.19 377.514 203.302 377.893 203.302 378.313H201.871C201.871 378.024 201.755 377.761 201.523 377.525C201.291 377.289 200.954 377.171 200.512 377.171C200.215 377.171 199.97 377.217 199.777 377.308C199.589 377.4 199.449 377.521 199.357 377.669C199.27 377.814 199.226 377.969 199.226 378.135C199.226 378.297 199.27 378.44 199.357 378.562C199.445 378.68 199.598 378.787 199.817 378.884C200.04 378.976 200.357 379.067 200.768 379.159C201.328 379.282 201.801 379.433 202.186 379.612C202.571 379.787 202.862 380.013 203.059 380.288C203.26 380.564 203.361 380.908 203.361 381.319C203.361 381.73 203.243 382.098 203.006 382.422C202.775 382.741 202.446 382.99 202.022 383.17C201.602 383.349 201.107 383.439 200.539 383.439ZM205.671 373.554C205.938 373.554 206.144 373.631 206.288 373.784C206.433 373.933 206.505 374.116 206.505 374.335C206.505 374.554 206.433 374.738 206.288 374.886C206.144 375.035 205.938 375.11 205.671 375.11C205.409 375.11 205.205 375.035 205.061 374.886C204.921 374.738 204.851 374.554 204.851 374.335C204.851 374.116 204.921 373.933 205.061 373.784C205.205 373.631 205.409 373.554 205.671 373.554ZM206.393 383.308H204.962V376.206H206.393V383.308ZM209.675 383.308H208.244V376.206H209.59L209.675 377.722V383.308ZM208.868 379.481C208.877 378.816 208.999 378.227 209.235 377.715C209.476 377.203 209.809 376.803 210.233 376.514C210.662 376.221 211.161 376.074 211.73 376.074C212.193 376.074 212.594 376.162 212.931 376.337C213.268 376.508 213.53 376.786 213.718 377.171C213.907 377.551 214.001 378.059 214.001 378.693V383.308H212.563V378.68C212.563 378.33 212.513 378.05 212.412 377.84C212.312 377.63 212.163 377.479 211.966 377.387C211.769 377.295 211.526 377.249 211.237 377.249C210.953 377.249 210.697 377.308 210.469 377.427C210.242 377.545 210.047 377.709 209.885 377.919C209.723 378.125 209.599 378.363 209.511 378.634C209.428 378.901 209.386 379.188 209.386 379.494L208.868 379.481ZM218.444 386.11C218.186 386.11 217.891 386.071 217.558 385.992C217.23 385.913 216.908 385.786 216.593 385.611C216.278 385.436 216.016 385.202 215.806 384.909L216.508 384.062C216.779 384.386 217.072 384.618 217.387 384.758C217.707 384.903 218.029 384.975 218.352 384.975C218.904 384.975 219.339 384.819 219.658 384.509C219.982 384.202 220.144 383.756 220.144 383.17V377.794L220.275 376.206H221.582V383.13C221.582 383.761 221.448 384.299 221.181 384.745C220.914 385.191 220.545 385.531 220.072 385.762C219.604 385.994 219.061 386.11 218.444 386.11ZM218.241 383.439C217.668 383.439 217.169 383.284 216.744 382.973C216.324 382.658 215.998 382.229 215.766 381.686C215.539 381.144 215.425 380.527 215.425 379.835V379.698C215.425 378.976 215.539 378.343 215.766 377.801C215.994 377.254 216.32 376.829 216.744 376.527C217.169 376.225 217.672 376.074 218.254 376.074C218.709 376.074 219.101 376.155 219.429 376.317C219.761 376.479 220.039 376.711 220.262 377.013C220.49 377.315 220.669 377.678 220.801 378.103C220.932 378.523 221.026 378.993 221.083 379.514V380.039C221.013 380.717 220.866 381.312 220.643 381.824C220.424 382.332 220.118 382.728 219.724 383.012C219.33 383.297 218.836 383.439 218.241 383.439ZM218.602 382.257C218.982 382.257 219.295 382.176 219.54 382.015C219.785 381.848 219.98 381.63 220.125 381.358C220.269 381.087 220.374 380.785 220.44 380.452V379.107C220.4 378.853 220.337 378.615 220.249 378.391C220.166 378.168 220.05 377.971 219.901 377.801C219.753 377.63 219.571 377.497 219.357 377.4C219.147 377.3 218.899 377.249 218.615 377.249C218.204 377.249 217.869 377.361 217.611 377.584C217.352 377.803 217.162 378.098 217.04 378.47C216.917 378.842 216.856 379.251 216.856 379.698V379.835C216.856 380.282 216.915 380.689 217.033 381.056C217.156 381.419 217.346 381.71 217.604 381.929C217.862 382.148 218.195 382.257 218.602 382.257ZM230.022 383.439C229.423 383.439 228.926 383.297 228.533 383.012C228.139 382.723 227.832 382.323 227.614 381.811C227.395 381.299 227.248 380.704 227.174 380.026V379.501C227.248 378.809 227.395 378.208 227.614 377.696C227.832 377.184 228.137 376.786 228.526 376.501C228.92 376.217 229.414 376.074 230.009 376.074C230.613 376.074 231.121 376.228 231.532 376.534C231.943 376.836 232.254 377.26 232.464 377.807C232.674 378.35 232.779 378.978 232.779 379.691V379.829C232.779 380.525 232.674 381.146 232.464 381.693C232.254 382.236 231.943 382.662 231.532 382.973C231.121 383.284 230.618 383.439 230.022 383.439ZM226.642 383.308V373.226H228.073V381.85L227.948 383.308H226.642ZM229.661 382.257C230.073 382.257 230.401 382.15 230.646 381.936C230.895 381.717 231.075 381.424 231.184 381.056C231.294 380.689 231.348 380.28 231.348 379.829V379.691C231.348 379.249 231.296 378.844 231.191 378.477C231.086 378.105 230.909 377.807 230.659 377.584C230.414 377.361 230.077 377.249 229.648 377.249C229.36 377.249 229.11 377.3 228.9 377.4C228.69 377.497 228.511 377.63 228.362 377.801C228.217 377.971 228.102 378.168 228.014 378.391C227.931 378.615 227.87 378.849 227.83 379.094V380.439C227.887 380.759 227.986 381.058 228.126 381.339C228.266 381.614 228.46 381.837 228.71 382.008C228.964 382.174 229.281 382.257 229.661 382.257ZM238.503 376.206H239.934V383.308H238.582L238.503 381.647V376.206ZM239.258 380.144C239.258 380.778 239.166 381.343 238.982 381.837C238.798 382.332 238.505 382.723 238.102 383.012C237.7 383.297 237.17 383.439 236.514 383.439C235.814 383.439 235.247 383.233 234.814 382.822C234.385 382.411 234.171 381.735 234.171 380.794V376.206H235.608V380.807C235.608 381.183 235.663 381.479 235.772 381.693C235.886 381.903 236.035 382.05 236.219 382.133C236.407 382.216 236.606 382.257 236.816 382.257C237.293 382.257 237.671 382.166 237.951 381.982C238.231 381.794 238.431 381.54 238.549 381.22C238.671 380.901 238.732 380.547 238.732 380.157L239.258 380.144ZM242.493 373.554C242.76 373.554 242.966 373.631 243.11 373.784C243.255 373.933 243.327 374.116 243.327 374.335C243.327 374.554 243.255 374.738 243.11 374.886C242.966 375.035 242.76 375.11 242.493 375.11C242.231 375.11 242.027 375.035 241.883 374.886C241.743 374.738 241.673 374.554 241.673 374.335C241.673 374.116 241.743 373.933 241.883 373.784C242.027 373.631 242.231 373.554 242.493 373.554ZM243.215 383.308H241.785V376.206H243.215V383.308ZM246.609 383.308H245.178V373.226H246.609V383.308ZM250.928 383.439C250.363 383.439 249.871 383.284 249.451 382.973C249.035 382.658 248.711 382.229 248.479 381.686C248.252 381.144 248.138 380.527 248.138 379.835V379.698C248.138 378.976 248.252 378.343 248.479 377.801C248.711 377.254 249.035 376.829 249.451 376.527C249.871 376.225 250.368 376.074 250.941 376.074C251.527 376.074 252.015 376.217 252.405 376.501C252.798 376.786 253.107 377.186 253.33 377.702C253.553 378.214 253.7 378.818 253.77 379.514V380.039C253.7 380.717 253.553 381.312 253.33 381.824C253.111 382.332 252.805 382.728 252.411 383.012C252.017 383.297 251.523 383.439 250.928 383.439ZM251.289 382.257C251.665 382.257 251.976 382.176 252.221 382.015C252.466 381.848 252.658 381.63 252.798 381.358C252.943 381.087 253.05 380.785 253.12 380.452V379.107C253.081 378.853 253.015 378.615 252.923 378.391C252.836 378.168 252.72 377.971 252.575 377.801C252.431 377.63 252.254 377.497 252.044 377.4C251.834 377.3 251.586 377.249 251.302 377.249C250.891 377.249 250.558 377.361 250.304 377.584C250.05 377.803 249.864 378.098 249.746 378.47C249.628 378.842 249.569 379.251 249.569 379.698V379.835C249.569 380.282 249.628 380.689 249.746 381.056C249.864 381.419 250.048 381.71 250.298 381.929C250.551 382.148 250.882 382.257 251.289 382.257ZM252.956 383.308L252.825 381.877V373.226H254.262V383.308H252.956ZM260.799 383.308H259.369V376.206H260.747L260.799 377.459V383.308ZM262.979 377.499C262.874 377.481 262.771 377.468 262.67 377.459C262.569 377.451 262.464 377.446 262.355 377.446C261.987 377.446 261.679 377.518 261.43 377.663C261.185 377.803 260.996 378 260.865 378.254C260.734 378.503 260.655 378.796 260.629 379.133L260.268 379.232C260.268 378.645 260.344 378.114 260.498 377.637C260.655 377.16 260.894 376.781 261.213 376.501C261.532 376.217 261.939 376.074 262.434 376.074C262.521 376.074 262.622 376.083 262.736 376.101C262.85 376.118 262.933 376.14 262.985 376.166L262.979 377.499ZM267.081 383.439C266.398 383.439 265.808 383.29 265.309 382.993C264.81 382.691 264.423 382.281 264.147 381.765C263.876 381.244 263.74 380.658 263.74 380.006V379.73C263.74 378.978 263.882 378.328 264.167 377.781C264.455 377.234 264.84 376.814 265.322 376.521C265.808 376.223 266.337 376.074 266.91 376.074C267.593 376.074 268.153 376.225 268.591 376.527C269.032 376.825 269.361 377.236 269.575 377.761C269.789 378.282 269.897 378.879 269.897 379.553V380.177H264.495V379.1H268.472V378.989C268.459 378.691 268.4 378.409 268.295 378.142C268.195 377.871 268.033 377.65 267.809 377.479C267.586 377.308 267.284 377.223 266.904 377.223C266.549 377.223 266.241 377.324 265.978 377.525C265.72 377.726 265.521 378.015 265.381 378.391C265.241 378.763 265.171 379.21 265.171 379.73V380.006C265.171 380.431 265.25 380.816 265.407 381.161C265.565 381.507 265.792 381.783 266.09 381.988C266.392 382.19 266.751 382.29 267.166 382.29C267.569 382.29 267.917 382.209 268.21 382.047C268.507 381.885 268.766 381.66 268.984 381.371L269.785 382.093C269.562 382.435 269.232 382.745 268.794 383.025C268.356 383.301 267.785 383.439 267.081 383.439ZM274.104 383.439C273.382 383.439 272.785 383.277 272.312 382.953C271.84 382.629 271.485 382.198 271.249 381.66C271.017 381.118 270.901 380.525 270.901 379.881V379.632C270.901 378.984 271.019 378.391 271.255 377.853C271.492 377.315 271.846 376.884 272.319 376.56C272.791 376.236 273.384 376.074 274.097 376.074C274.662 376.074 275.156 376.188 275.581 376.416C276.01 376.639 276.344 376.95 276.585 377.348C276.826 377.742 276.955 378.195 276.972 378.706H275.62C275.603 378.435 275.53 378.188 275.404 377.965C275.277 377.737 275.102 377.558 274.879 377.427C274.655 377.291 274.393 377.223 274.091 377.223C273.636 377.223 273.279 377.341 273.021 377.578C272.767 377.814 272.588 378.116 272.483 378.483C272.382 378.851 272.332 379.234 272.332 379.632V379.881C272.332 380.28 272.382 380.665 272.483 381.037C272.583 381.404 272.761 381.706 273.014 381.942C273.273 382.174 273.631 382.29 274.091 382.29C274.362 382.29 274.609 382.236 274.833 382.126C275.06 382.012 275.244 381.859 275.384 381.667C275.524 381.47 275.603 381.247 275.62 380.997H276.972C276.955 381.444 276.815 381.853 276.552 382.225C276.29 382.592 275.944 382.888 275.515 383.111C275.091 383.329 274.62 383.439 274.104 383.439ZM277.937 379.684C277.937 378.997 278.068 378.383 278.331 377.84C278.594 377.297 278.968 376.869 279.453 376.554C279.943 376.234 280.525 376.074 281.199 376.074C281.886 376.074 282.475 376.234 282.965 376.554C283.455 376.869 283.829 377.297 284.087 377.84C284.35 378.383 284.481 378.997 284.481 379.684V379.835C284.481 380.518 284.35 381.133 284.087 381.68C283.829 382.222 283.455 382.651 282.965 382.966C282.479 383.281 281.895 383.439 281.212 383.439C280.534 383.439 279.95 383.281 279.46 382.966C278.97 382.651 278.594 382.222 278.331 381.68C278.068 381.133 277.937 380.518 277.937 379.835V379.684ZM279.375 379.835C279.375 380.277 279.44 380.684 279.572 381.056C279.703 381.428 279.904 381.728 280.175 381.956C280.447 382.179 280.792 382.29 281.212 382.29C281.633 382.29 281.978 382.179 282.249 381.956C282.521 381.728 282.722 381.428 282.853 381.056C282.985 380.684 283.05 380.277 283.05 379.835V379.684C283.05 379.247 282.985 378.842 282.853 378.47C282.722 378.094 282.519 377.792 282.243 377.564C281.972 377.337 281.624 377.223 281.199 377.223C280.788 377.223 280.444 377.337 280.169 377.564C279.898 377.792 279.696 378.094 279.565 378.47C279.438 378.842 279.375 379.247 279.375 379.684V379.835ZM287.33 383.308H285.899V376.206H287.277L287.33 377.459V383.308ZM289.509 377.499C289.404 377.481 289.301 377.468 289.2 377.459C289.1 377.451 288.995 377.446 288.885 377.446C288.518 377.446 288.209 377.518 287.96 377.663C287.715 377.803 287.527 378 287.395 378.254C287.264 378.503 287.185 378.796 287.159 379.133L286.798 379.232C286.798 378.645 286.875 378.114 287.028 377.637C287.185 377.16 287.424 376.781 287.743 376.501C288.063 376.217 288.47 376.074 288.964 376.074C289.052 376.074 289.152 376.083 289.266 376.101C289.38 376.118 289.463 376.14 289.515 376.166L289.509 377.499ZM293.053 383.439C292.489 383.439 291.997 383.284 291.576 382.973C291.161 382.658 290.837 382.229 290.605 381.686C290.377 381.144 290.264 380.527 290.264 379.835V379.698C290.264 378.976 290.377 378.343 290.605 377.801C290.837 377.254 291.161 376.829 291.576 376.527C291.997 376.225 292.493 376.074 293.066 376.074C293.653 376.074 294.141 376.217 294.53 376.501C294.924 376.786 295.232 377.186 295.456 377.702C295.679 378.214 295.825 378.818 295.895 379.514V380.039C295.825 380.717 295.679 381.312 295.456 381.824C295.237 382.332 294.93 382.728 294.537 383.012C294.143 383.297 293.648 383.439 293.053 383.439ZM293.414 382.257C293.791 382.257 294.101 382.176 294.346 382.015C294.591 381.848 294.784 381.63 294.924 381.358C295.068 381.087 295.176 380.785 295.246 380.452V379.107C295.206 378.853 295.141 378.615 295.049 378.391C294.961 378.168 294.845 377.971 294.701 377.801C294.556 377.63 294.379 377.497 294.169 377.4C293.959 377.3 293.712 377.249 293.427 377.249C293.016 377.249 292.684 377.361 292.43 377.584C292.176 377.803 291.99 378.098 291.872 378.47C291.754 378.842 291.695 379.251 291.695 379.698V379.835C291.695 380.282 291.754 380.689 291.872 381.056C291.99 381.419 292.174 381.71 292.423 381.929C292.677 382.148 293.007 382.257 293.414 382.257ZM295.081 383.308L294.95 381.877V373.226H296.388V383.308H295.081Z" fill="#374151"/>
</svg>
