<svg width="443" height="290" viewBox="0 0 443 290" fill="none" xmlns="http://www.w3.org/2000/svg">
<rect x="26" y="207" width="82.729" height="82.729" rx="8.82443" fill="#EEF2FF"/>
<path d="M75.9766 263.404H83.2633" stroke="#4F46E5" stroke-width="1.5" stroke-linecap="round" stroke-linejoin="round"/>
<path d="M96.6369 245.115H80.3508C79.5983 245.115 78.9883 245.725 78.9883 246.478V257.567C78.9883 258.319 79.5983 258.929 80.3508 258.929H96.6369C97.3894 258.929 97.9995 258.319 97.9995 257.567V246.478C97.9995 245.725 97.3894 245.115 96.6369 245.115Z" stroke="#4F46E5" stroke-width="1.5" stroke-linecap="round" stroke-linejoin="round"/>
<path d="M93.7231 263.728L91.542 261.493C91.3588 261.304 91.2511 261.051 91.2511 260.782V258.924H85.7363V260.782C85.7363 261.046 85.6339 261.299 85.4455 261.493L83.2643 263.728C82.9627 264.035 83.1835 264.552 83.6143 264.552H93.3731C93.8039 264.552 94.0247 264.035 93.7231 263.728Z" stroke="#4F46E5" stroke-width="1.5" stroke-linecap="round" stroke-linejoin="round"/>
<path d="M75.9768 261.357H36.7266V266.829H75.9768V261.357Z" stroke="#4F46E5" stroke-width="1.5" stroke-linecap="round" stroke-linejoin="round"/>
<path d="M68.8849 229.9H43.8203V235.372H68.8849V229.9Z" stroke="#4F46E5" stroke-width="1.5" stroke-linecap="round" stroke-linejoin="round"/>
<path d="M60.1754 235.367V244.151C60.1754 244.679 59.7445 245.11 59.2167 245.11H53.6696C53.1418 245.11 52.7109 244.679 52.7109 244.151V235.367" stroke="#4F46E5" stroke-width="1.5" stroke-linecap="round" stroke-linejoin="round"/>
<path d="M46.0391 235.367V243.553" stroke="#4F46E5" stroke-width="1.5" stroke-linecap="round" stroke-linejoin="round"/>
<path d="M46.0391 248.885V253.425" stroke="#4F46E5" stroke-width="1.5" stroke-linecap="round" stroke-linejoin="round"/>
<path d="M56.4414 251.152V254.766" stroke="#4F46E5" stroke-width="1.5" stroke-linecap="round" stroke-linejoin="round"/>
<path d="M46.8917 243.553H45.2544C44.7429 243.553 44.3281 243.967 44.3281 244.479V247.958C44.3281 248.47 44.7429 248.884 45.2544 248.884H46.8917C47.4033 248.884 47.818 248.47 47.818 247.958V244.479C47.818 243.967 47.4033 243.553 46.8917 243.553Z" stroke="#4F46E5" stroke-width="1.5" stroke-linecap="round" stroke-linejoin="round"/>
<path d="M67.1094 235.367V243.553" stroke="#4F46E5" stroke-width="1.5" stroke-linecap="round" stroke-linejoin="round"/>
<path d="M67.1094 248.885V253.425" stroke="#4F46E5" stroke-width="1.5" stroke-linecap="round" stroke-linejoin="round"/>
<path d="M67.962 243.553H66.3248C65.8132 243.553 65.3984 243.967 65.3984 244.479V247.958C65.3984 248.47 65.8132 248.884 66.3248 248.884H67.962C68.4736 248.884 68.8883 248.47 68.8883 247.958V244.479C68.8883 243.967 68.4736 243.553 67.962 243.553Z" stroke="#4F46E5" stroke-width="1.5" stroke-linecap="round" stroke-linejoin="round"/>
<path d="M58.2814 249.343L56.4395 251.152L54.5977 249.343V245.115H58.2814V249.343Z" stroke="#4F46E5" stroke-width="1.5" stroke-linecap="round" stroke-linejoin="round"/>
<path d="M38.2773 260.965L41.5087 252.02H71.4796L74.7109 260.965" stroke="#4F46E5" stroke-width="1.5" stroke-linecap="round" stroke-linejoin="round"/>
<path d="M86.0703 249.559L91.122 254.616" stroke="#4F46E5" stroke-width="1.5" stroke-linecap="round" stroke-linejoin="round"/>
<path d="M91.122 249.559L86.0703 254.616" stroke="#4F46E5" stroke-width="1.5" stroke-linecap="round" stroke-linejoin="round"/>
<rect x="26.4727" width="82.729" height="82.729" rx="8.82443" fill="#EEF2FF"/>
<path d="M74.1632 24.1035H39.62C37.4423 24.1035 35.6758 25.87 35.6758 28.0477V54.6823C35.6758 56.86 37.4423 58.6265 39.62 58.6265H45.0261V56.1087H68.7571V58.6265H74.1632C76.3409 58.6265 78.1074 56.86 78.1074 54.6823V28.0477C78.1074 25.87 76.3409 24.1035 74.1632 24.1035Z" stroke="#4F46E5" stroke-width="1.5" stroke-linecap="round" stroke-linejoin="round"/>
<path d="M70.7701 30.3311H43.3741C42.6087 30.3311 41.9883 30.9515 41.9883 31.7168V37.9707C41.9883 38.736 42.6087 39.3565 43.3741 39.3565H70.7701C71.5354 39.3565 72.1559 38.736 72.1559 37.9707V31.7168C72.1559 30.9515 71.5354 30.3311 70.7701 30.3311Z" stroke="#4F46E5" stroke-width="1.5" stroke-linecap="round" stroke-linejoin="round"/>
<path d="M98.7166 28.0117H83.3663C82.657 28.0117 82.082 28.5867 82.082 29.296V39.7478C82.082 40.4571 82.657 41.0321 83.3663 41.0321H98.7166C99.4259 41.0321 100.001 40.4571 100.001 39.7478V29.296C100.001 28.5867 99.4259 28.0117 98.7166 28.0117Z" stroke="#4F46E5" stroke-width="1.5" stroke-linecap="round" stroke-linejoin="round"/>
<path d="M69.8919 43.6104H44.2472C43.58 43.6104 43.0391 44.1512 43.0391 44.8185V49.7627C43.0391 50.4299 43.58 50.9708 44.2472 50.9708H69.8919C70.5592 50.9708 71.1001 50.4299 71.1001 49.7627V44.8185C71.1001 44.1512 70.5592 43.6104 69.8919 43.6104Z" fill="#4F46E5"/>
<path d="M35.6758 45.9307H78.1074" stroke="#4F46E5" stroke-width="1.5" stroke-linecap="round" stroke-linejoin="round"/>
<path d="M78.6172 44.9863H86.536" stroke="#4F46E5" stroke-width="1.5" stroke-linecap="round" stroke-linejoin="round"/>
<path d="M45.3359 39.3564V43.6103" stroke="#4F46E5" stroke-width="1.5" stroke-linecap="round" stroke-linejoin="round"/>
<path d="M47.8906 39.3564V43.6103" stroke="#4F46E5" stroke-width="1.5" stroke-linecap="round" stroke-linejoin="round"/>
<path d="M50.4453 39.3564V43.6103" stroke="#4F46E5" stroke-width="1.5" stroke-linecap="round" stroke-linejoin="round"/>
<path d="M53.0039 39.3564V43.6103" stroke="#4F46E5" stroke-width="1.5" stroke-linecap="round" stroke-linejoin="round"/>
<path d="M55.5547 39.3564V43.6103" stroke="#4F46E5" stroke-width="1.5" stroke-linecap="round" stroke-linejoin="round"/>
<path d="M58.1094 39.3564V43.6103" stroke="#4F46E5" stroke-width="1.5" stroke-linecap="round" stroke-linejoin="round"/>
<path d="M60.6641 39.3564V43.6103" stroke="#4F46E5" stroke-width="1.5" stroke-linecap="round" stroke-linejoin="round"/>
<path d="M63.2188 39.3564V43.6103" stroke="#4F46E5" stroke-width="1.5" stroke-linecap="round" stroke-linejoin="round"/>
<path d="M65.7773 39.3564V43.6103" stroke="#4F46E5" stroke-width="1.5" stroke-linecap="round" stroke-linejoin="round"/>
<path d="M68.3281 39.3564V43.6103" stroke="#4F46E5" stroke-width="1.5" stroke-linecap="round" stroke-linejoin="round"/>
<path d="M95.9618 45.5602L93.906 43.4536C93.7334 43.2759 93.6319 43.0373 93.6319 42.7835V41.0322H88.4339V42.7835C88.4339 43.0322 88.3374 43.2708 88.1598 43.4536L86.1039 45.5602C85.8197 45.8495 86.0278 46.3368 86.4339 46.3368H95.6319C96.038 46.3368 96.2461 45.8495 95.9618 45.5602Z" stroke="#4F46E5" stroke-width="1.5" stroke-linecap="round" stroke-linejoin="round"/>
<path d="M91.0391 31.4883V35.27" stroke="#4F46E5" stroke-width="1.5" stroke-linecap="round" stroke-linejoin="round"/>
<path d="M91.0391 37.2354V37.3021" stroke="#4F46E5" stroke-width="1.5" stroke-linecap="round" stroke-linejoin="round"/>
<rect y="103.688" width="82.729" height="82.729" rx="8.82443" fill="#EEF2FF"/>
<path fill-rule="evenodd" clip-rule="evenodd" d="M43.5051 142.178C43.5051 142.617 43.1622 142.965 42.7318 142.965C42.3037 142.965 41.9562 142.617 41.9562 142.178C41.9562 141.747 42.3037 141.402 42.7318 141.402C43.1599 141.402 43.5051 141.747 43.5051 142.178ZM23.6197 155.26C23.5483 154.843 23.8337 154.438 24.2526 154.367C24.6738 154.295 25.0742 154.581 25.1456 155.004L25.9374 159.667C26.0156 160.121 25.6773 160.565 25.1732 160.565C24.8027 160.565 24.4759 160.298 24.4114 159.92L23.6197 155.26ZM19.035 158.424C18.7611 158.749 18.8049 159.239 19.134 159.513L22.9983 162.742C23.1433 162.859 23.3182 162.917 23.4931 162.917C24.2227 162.917 24.538 162.012 23.988 161.55L20.1237 158.325C19.7945 158.054 19.3066 158.1 19.035 158.424ZM16.1926 156.054C16.4665 155.722 16.9545 155.683 17.2836 155.957L18.2433 156.758C18.8049 157.225 18.4528 158.125 17.7485 158.125C17.5736 158.125 17.3964 158.068 17.2537 157.943L16.2939 157.142C15.9625 156.868 15.9187 156.381 16.1926 156.054ZM30.9343 162.208L36.2947 160.659C36.7067 160.535 37.1348 160.776 37.2544 161.186C37.3718 161.596 37.1371 162.026 36.7274 162.143L31.367 163.692C30.9481 163.81 30.527 163.577 30.4096 163.165C30.2876 162.756 30.5247 162.325 30.9343 162.208ZM38.3341 160.873C38.2167 160.463 38.4515 160.033 38.8611 159.909L41.547 159.133C41.959 159.016 42.3871 159.25 42.5068 159.66C42.6242 160.07 42.3894 160.5 41.9774 160.618L39.2915 161.398C38.9095 161.508 38.4583 161.299 38.3341 160.873ZM59.6283 167.483H17.3787V165.934L59.6283 165.932V167.483ZM60.4016 164.39H16.6054C16.1773 164.39 15.832 164.735 15.832 165.159V168.259C15.832 168.682 16.1773 169.028 16.6054 169.028L60.4016 169.025C60.8297 169.025 61.1749 168.68 61.1749 168.257V165.156C61.1749 164.735 60.8297 164.39 60.4016 164.39ZM30.4951 157.969L31.8714 157.41L31.517 158.855L29.4019 160.275L30.4951 157.969ZM27.4938 163.256C27.6434 163.256 27.793 163.216 27.9242 163.124L32.6263 159.967C32.7851 159.863 32.9002 159.7 32.9462 159.511L33.7334 156.3C33.8806 155.69 33.2776 155.161 32.6885 155.403L29.6297 156.652C29.4502 156.724 29.3052 156.862 29.2223 157.037L26.7919 162.155C26.5571 162.655 26.9069 163.256 27.4938 163.256ZM65.2231 145.471L64.047 147.301C63.8146 147.66 63.322 147.766 62.9561 147.536L52.6198 140.887L55.0916 138.014L64.986 144.383C65.352 144.62 65.4579 145.108 65.2231 145.471ZM46.3823 145.752L56.0905 134.486C56.4289 134.088 56.3874 133.485 55.9916 133.144L52.3068 129.966C51.9086 129.621 51.3056 129.667 50.965 130.062L41.2568 141.331L41.1118 144.502L43.2707 146.364L46.3823 145.752ZM35.4845 153.939C35.2659 154.164 35.0288 153.858 34.8056 153.672C34.702 153.587 34.6859 153.43 34.7688 153.32L40.4352 145.962L41.9266 147.244L35.4845 153.939ZM61.0687 122.882L61.7062 123.429L56.3412 131.4L53.9753 129.36L61.0687 122.882ZM65.8237 143.082L56.1137 136.832L57.2645 135.497C57.9895 134.654 58.0631 133.425 57.467 132.5L63.3749 123.722C63.5935 123.402 63.536 122.96 63.2368 122.707L61.5589 121.262C61.262 121.009 60.8201 121.016 60.5324 121.276L52.7208 128.417C51.7358 127.968 50.5321 128.196 49.7909 129.055L39.9101 140.524C39.7973 140.655 39.7306 140.823 39.7237 140.993L39.5603 144.56L33.5463 152.374C32.9617 153.136 33.0722 154.218 33.7972 154.842C34.2621 155.244 34.5936 155.557 35.2978 155.557C35.7742 155.557 36.2461 155.376 36.6005 155.003L43.4405 147.905L46.9457 147.214C47.116 147.182 47.2702 147.09 47.383 146.961L51.6018 142.063L62.1202 148.837C63.1996 149.527 64.6496 149.223 65.347 148.132L66.523 146.303C67.2204 145.226 66.9051 143.78 65.8234 143.083L65.8237 143.082Z" fill="#4F46E5"/>
<path d="M117.005 49.5369C116.704 49.4912 116.423 49.6982 116.377 49.9993C116.331 50.3005 116.538 50.5817 116.84 50.6275L116.922 50.0822L117.005 49.5369ZM197.211 99.7902C197.513 99.8255 197.787 99.609 197.822 99.3064L198.399 94.3763C198.434 94.0737 198.218 93.7998 197.915 93.7644C197.613 93.7291 197.339 93.9456 197.303 94.2482L196.791 98.6305L192.409 98.1182C192.106 98.0828 191.832 98.2994 191.797 98.6019C191.761 98.9045 191.978 99.1784 192.28 99.2138L197.211 99.7902ZM116.922 50.0822L116.84 50.6275C135.94 53.5301 149.685 57.8827 161.77 65.4315C173.861 72.9841 184.331 83.7612 196.842 99.5844L197.275 99.2424L197.707 98.9003C185.169 83.0425 174.606 72.1486 162.354 64.4959C150.097 56.8394 136.191 52.4525 117.005 49.5369L116.922 50.0822Z" fill="#F9FAFB"/>
<path d="M113.699 248.162C113.397 248.208 113.116 248.001 113.07 247.7C113.025 247.399 113.232 247.118 113.533 247.072L113.616 247.617L113.699 248.162ZM200.963 193.59C201.265 193.555 201.539 193.771 201.575 194.074L202.151 199.004C202.187 199.307 201.97 199.581 201.667 199.616C201.365 199.651 201.091 199.435 201.056 199.132L200.543 194.75L196.161 195.262C195.858 195.298 195.584 195.081 195.549 194.779C195.514 194.476 195.73 194.202 196.033 194.167L200.963 193.59ZM113.616 247.617L113.533 247.072C134.314 243.914 149.275 239.177 162.429 230.96C175.589 222.74 186.983 211.011 200.594 193.796L201.027 194.138L201.46 194.48C187.821 211.73 176.334 223.575 163.013 231.896C149.686 240.22 134.565 244.991 113.699 248.162L113.616 247.617Z" fill="#F9FAFB"/>
<path d="M90.608 141.72C90.3157 141.635 90.1482 141.328 90.2339 141.036C90.3195 140.744 90.6259 140.576 90.9182 140.662L90.7631 141.191L90.608 141.72ZM174.108 145.771C174.35 145.956 174.397 146.302 174.212 146.544L171.203 150.492C171.018 150.734 170.672 150.781 170.43 150.596C170.188 150.411 170.141 150.065 170.326 149.823L173.001 146.314L169.492 143.639C169.25 143.455 169.203 143.108 169.388 142.866C169.573 142.624 169.919 142.577 170.161 142.762L174.108 145.771ZM90.7631 141.191L90.9182 140.662C123.523 150.218 141.711 149.976 173.7 145.664L173.774 146.21L173.847 146.757C141.75 151.084 123.4 151.331 90.608 141.72L90.7631 141.191Z" fill="#F9FAFB"/>
<path d="M318.476 52.6431C318.721 52.8237 318.774 53.1689 318.593 53.4142L315.651 57.4116C315.47 57.6569 315.125 57.7094 314.879 57.5288C314.634 57.3483 314.582 57.003 314.762 56.7577L317.378 53.2045L313.825 50.5887C313.579 50.4081 313.527 50.0629 313.708 49.8176C313.888 49.5723 314.233 49.5198 314.479 49.7004L318.476 52.6431ZM240.869 100.975C240.68 101.214 240.333 101.254 240.094 101.065C239.855 100.876 239.815 100.53 240.004 100.291L240.436 100.633L240.869 100.975ZM318.149 53.0873L318.232 53.6325C299.761 56.4396 286.469 60.6487 274.784 67.9478C263.093 75.2506 252.968 85.6718 240.869 100.975L240.436 100.633L240.004 100.291C252.13 84.9532 262.348 74.4152 274.2 67.0122C286.058 59.6054 299.51 55.362 318.066 52.542L318.149 53.0873Z" fill="#F9FAFB"/>
<path d="M323.864 238.115C324.109 237.935 324.161 237.59 323.981 237.344L321.038 233.347C320.858 233.102 320.512 233.049 320.267 233.23C320.022 233.41 319.969 233.756 320.15 234.001L322.766 237.554L319.212 240.17C318.967 240.35 318.915 240.696 319.095 240.941C319.276 241.186 319.621 241.239 319.866 241.058L323.864 238.115ZM247.406 190.487C247.217 190.248 246.87 190.207 246.631 190.396C246.392 190.585 246.352 190.932 246.54 191.171L246.973 190.829L247.406 190.487ZM323.537 237.671L323.62 237.126C305.422 234.361 292.329 230.214 280.817 223.024C269.3 215.83 259.326 205.563 247.406 190.487L246.973 190.829L246.54 191.171C258.488 206.282 268.555 216.665 280.233 223.959C291.917 231.257 305.171 235.438 323.454 238.217L323.537 237.671Z" fill="#F9FAFB"/>
<path d="M347.571 140.353C347.717 140.085 347.619 139.75 347.351 139.604L342.996 137.223C342.729 137.077 342.394 137.175 342.247 137.442C342.101 137.71 342.2 138.045 342.467 138.191L346.338 140.307L344.222 144.179C344.076 144.446 344.174 144.781 344.441 144.927C344.708 145.073 345.043 144.975 345.19 144.708L347.571 140.353ZM263.703 144.587C263.402 144.547 263.124 144.758 263.083 145.06C263.042 145.362 263.254 145.64 263.556 145.681L263.63 145.134L263.703 144.587ZM347.087 140.088L346.932 139.559C314.151 149.166 295.865 148.923 263.703 144.587L263.63 145.134L263.556 145.681C295.826 150.031 314.274 150.279 347.242 140.617L347.087 140.088Z" fill="#F9FAFB"/>
<rect x="329.812" width="82.729" height="82.729" rx="8.82443" fill="#EEF2FF"/>
<path d="M361.433 43.8001V41.3642M371.177 43.8001V36.4924M380.921 43.8001V31.6206M361.433 63.2874L371.177 53.5438L380.921 63.2874M349.254 21.877H393.1M351.69 21.877H390.664V51.1079C390.664 51.7539 390.408 52.3735 389.951 52.8303C389.494 53.2871 388.875 53.5438 388.228 53.5438H354.126C353.48 53.5438 352.86 53.2871 352.403 52.8303C351.946 52.3735 351.69 51.7539 351.69 51.1079V21.877Z" stroke="#4F46E5" stroke-width="2" stroke-linecap="round" stroke-linejoin="round"/>
<rect x="329.812" y="206.271" width="82.729" height="82.729" rx="8.82443" fill="#EEF2FF"/>
<path d="M354.126 245.2C352.834 245.2 351.594 245.713 350.681 246.627C349.767 247.541 349.254 248.78 349.254 250.072V264.687C349.254 265.98 349.767 267.219 350.681 268.132C351.594 269.046 352.834 269.559 354.126 269.559H388.228C389.521 269.559 390.76 269.046 391.673 268.132C392.587 267.219 393.1 265.98 393.1 264.687V250.072C393.1 248.78 392.587 247.541 391.673 246.627C390.76 245.713 389.521 245.2 388.228 245.2H354.126ZM388.228 245.2V240.328C388.228 239.036 387.715 237.797 386.802 236.883C385.888 235.97 384.649 235.457 383.357 235.457M354.126 245.2V240.328C354.126 239.036 354.639 237.797 355.553 236.883C356.466 235.97 357.705 235.457 358.998 235.457M383.357 235.457V230.585C383.357 229.293 382.843 228.053 381.93 227.14C381.016 226.226 379.777 225.713 378.485 225.713H363.869C362.577 225.713 361.338 226.226 360.424 227.14C359.511 228.053 358.998 229.293 358.998 230.585V235.457M383.357 235.457H358.998" stroke="#4F46E5" stroke-width="2" stroke-linecap="round" stroke-linejoin="round"/>
<rect x="359.594" y="103.688" width="82.729" height="82.729" rx="8.82443" fill="#EEF2FF"/>
<path d="M403.392 123.129V140.18H420.443L398.52 166.975V149.924H381.469L403.392 123.129Z" stroke="#4F46E5" stroke-width="2" stroke-linecap="round" stroke-linejoin="round"/>
<g clip-path="url(#clip0_7137_4502)">
<path d="M223.781 153.134C230.097 155.805 236.163 158.977 242.702 160.452C245.624 160.925 248.573 161.175 251.467 161.175V145.093H249.046C240.087 145.093 231.795 149.74 223.781 153.134Z" fill="#DA3D0B"/>
<path d="M205.114 158.253C202.192 158.003 199.27 158.003 196.377 158.003H189.727V172.778C189.727 175.449 191.897 177.592 194.54 177.592H246.656C249.327 177.592 251.47 175.421 251.47 172.778V170.914C245.154 170.914 238.587 170.107 232.744 167.658C223.561 164.514 215.075 158.504 205.114 158.253Z" fill="#DA3D0B"/>
<path d="M246.684 115.821H194.54C191.897 115.821 189.727 117.992 189.727 120.663V148.042C195.57 148.042 201.719 148.293 207.534 147.792C215.548 147.069 222.588 142.672 230.1 139.751C236.89 136.829 244.207 135.132 251.498 135.354V120.663C251.498 117.992 249.327 115.821 246.684 115.821Z" fill="#DA3D0B"/>
<path d="M251.498 145.093V135.354C244.207 135.104 236.917 136.829 230.1 139.75C222.56 142.672 215.548 147.068 207.534 147.792C201.719 148.293 195.57 148.042 189.727 148.042V158.031H196.377C199.27 158.031 202.192 158.031 205.114 158.282C215.075 158.532 223.561 164.542 232.771 167.686C238.615 170.135 245.181 170.942 251.498 170.942V161.203C248.604 161.203 245.627 160.953 242.733 160.48C236.166 159.005 230.128 155.861 223.812 153.162C231.825 149.739 240.117 145.121 249.077 145.121L251.498 145.093Z" fill="white"/>
</g>
<defs>
<clipPath id="clip0_7137_4502">
<rect width="61.771" height="61.771" fill="white" transform="translate(189.727 115.82)"/>
</clipPath>
</defs>
</svg>
