<svg width="416" height="338" viewBox="0 0 416 338" fill="none" xmlns="http://www.w3.org/2000/svg">
<rect x="26.4727" y="206.271" width="66.1832" height="66.1832" rx="7.05954" fill="#EEF2FF"/>
<path d="M67.9357 224.643H65.5526V223.329C65.5495 221.301 63.907 219.657 61.8793 219.654H57.246C55.2184 219.657 53.5743 221.301 53.5727 223.329V224.643H51.1896C49.5064 224.644 47.8937 225.315 46.7039 226.505C45.5155 227.693 44.8453 229.307 44.8438 230.989V245.242C44.8453 246.688 45.3417 248.089 46.2482 249.215C47.1548 250.341 48.4184 251.123 49.8307 251.434V258.069C49.8307 258.622 50.2801 259.071 50.8328 259.071C51.3871 259.071 51.8349 258.622 51.8349 258.069V256.576H67.2908V258.069C67.2908 258.622 67.7386 259.071 68.2929 259.071C68.8456 259.071 69.295 258.622 69.295 258.069V251.434C70.7057 251.124 71.9709 250.341 72.8774 249.215C73.784 248.089 74.2804 246.688 74.2819 245.242V230.989C74.2804 229.307 73.6102 227.693 72.4203 226.505C71.2319 225.315 69.6176 224.644 67.9357 224.643ZM55.5771 223.329C55.5771 222.407 56.324 221.66 57.2462 221.658H61.8795C62.8002 221.66 63.5471 222.407 63.5487 223.329V224.643H55.5772L55.5771 223.329ZM67.2908 254.571H51.8349V251.588H67.2908V254.571ZM72.2776 245.242C72.2745 247.639 70.3329 249.581 67.9357 249.584H51.19C48.7928 249.581 46.8513 247.639 46.8481 245.242V230.989C46.8512 228.592 48.7928 226.65 51.19 226.647H67.9357C70.3329 226.65 72.2744 228.592 72.2776 230.989V245.242Z" fill="#4F46E5"/>
<path d="M64.3406 237.295L61.4893 232.043C61.1073 231.34 60.3714 230.903 59.5697 230.903C58.7696 230.903 58.0337 231.34 57.6516 232.043L54.78 237.296V237.298C53.8656 238.983 53.9047 241.026 54.8864 242.673C55.8666 244.322 57.6422 245.332 59.5602 245.332C61.4782 245.332 63.2538 244.322 64.2339 242.673C65.2157 241.026 65.2548 238.982 64.3404 237.298L64.3406 237.295ZM62.5807 241.53C61.6757 243.198 59.5901 243.816 57.9226 242.911C56.255 242.008 55.6365 239.922 56.54 238.255L59.4789 232.928L59.4805 232.926C59.504 232.914 59.5322 232.908 59.5603 232.911C59.6292 232.909 59.6934 232.942 59.7326 233L62.5854 238.252C63.1413 239.274 63.1381 240.509 62.5807 241.53Z" fill="#4F46E5"/>
<rect x="319.812" width="66.1832" height="66.1832" rx="7.05954" fill="#EEF2FF"/>
<path d="M339.265 33.0918H366.547M339.265 33.0918C338.231 33.0918 337.24 32.6811 336.509 31.9502C335.778 31.2193 335.367 30.228 335.367 29.1943V21.3994C335.367 20.3657 335.778 19.3744 336.509 18.6435C337.24 17.9126 338.231 17.502 339.265 17.502H366.547C367.58 17.502 368.572 17.9126 369.303 18.6435C370.034 19.3744 370.444 20.3657 370.444 21.3994V29.1943C370.444 30.228 370.034 31.2193 369.303 31.9502C368.572 32.6811 367.58 33.0918 366.547 33.0918M339.265 33.0918C338.231 33.0918 337.24 33.5024 336.509 34.2333C335.778 34.9642 335.367 35.9556 335.367 36.9892V44.7841C335.367 45.8178 335.778 46.8091 336.509 47.5401C337.24 48.271 338.231 48.6816 339.265 48.6816H366.547C367.58 48.6816 368.572 48.271 369.303 47.5401C370.034 46.8091 370.444 45.8178 370.444 44.7841V36.9892C370.444 35.9556 370.034 34.9642 369.303 34.2333C368.572 33.5024 367.58 33.0918 366.547 33.0918M362.649 25.2969H362.669M362.649 40.8867H362.669" stroke="#4F46E5" stroke-width="2.64733" stroke-linecap="round" stroke-linejoin="round"/>
<rect x="26.4727" width="66.1832" height="66.1832" rx="7.05954" fill="#EEF2FF"/>
<path d="M48.1233 21.1112V19.8712C48.4433 19.7512 48.6433 19.4712 48.6433 19.1112V18.0312C48.6433 17.7112 48.4433 17.3912 48.1233 17.3112V16.6712C48.1233 16.3112 47.8033 15.9912 47.4433 15.9912H44.4833C44.1233 15.9912 43.8033 16.3112 43.8033 16.6712V17.3512C43.4833 17.4712 43.2833 17.7512 43.2833 18.0712V19.1512C43.2833 19.5512 43.5633 19.8712 43.9233 19.9112V21.0312C43.9233 23.4712 43.2833 25.9512 42.0033 28.3512C40.9233 30.3912 40.3633 33.4712 40.3633 34.9112V48.8312C40.3633 49.5912 40.9633 50.1912 41.7233 50.1912H50.2033C50.9633 50.1912 51.5633 49.5912 51.5633 48.8312V34.9112C51.5633 33.3112 50.9233 30.2712 49.9633 28.4312C48.7233 26.0312 48.1233 23.5512 48.1233 21.1112ZM44.3233 19.1112C44.2833 19.1112 44.2833 19.1112 44.3233 19.1112H44.0833V18.0712H47.8833V19.1112H45.7233H44.3233ZM44.7233 19.9112H47.3233V21.1112C47.3233 22.3512 47.4833 23.5512 47.7633 24.7912H44.2433C44.5633 23.5512 44.7233 22.3112 44.7233 21.0312V19.9112ZM47.3233 16.7912V17.2712H44.6033V16.7912H47.3233ZM50.7633 48.8312C50.7633 49.1512 50.5233 49.3912 50.2033 49.3912H41.7233C41.4033 49.3912 41.1633 49.1512 41.1633 48.8312V34.9112C41.1633 33.3912 41.8033 30.4712 42.7233 28.7512C43.2833 27.7112 43.6833 26.6712 44.0433 25.5912H47.9633C47.9633 25.5912 47.9633 25.5912 48.0033 25.5912C48.3233 26.6712 48.7233 27.7512 49.2833 28.7912C50.2433 30.6712 50.8033 33.6312 50.8033 34.9112V48.8312H50.7633Z" fill="#4F46E5"/>
<path d="M44.3233 19.1112C44.2833 19.1112 44.2833 19.1112 44.3233 19.1112ZM44.3233 19.1112H44.0833V18.0712H47.8833V19.1112H45.7233H44.3233ZM48.1233 21.1112V19.8712C48.4433 19.7512 48.6433 19.4712 48.6433 19.1112V18.0312C48.6433 17.7112 48.4433 17.3912 48.1233 17.3112V16.6712C48.1233 16.3112 47.8033 15.9912 47.4433 15.9912H44.4833C44.1233 15.9912 43.8033 16.3112 43.8033 16.6712V17.3512C43.4833 17.4712 43.2833 17.7512 43.2833 18.0712V19.1512C43.2833 19.5512 43.5633 19.8712 43.9233 19.9112V21.0312C43.9233 23.4712 43.2833 25.9512 42.0033 28.3512C40.9233 30.3912 40.3633 33.4712 40.3633 34.9112V48.8312C40.3633 49.5912 40.9633 50.1912 41.7233 50.1912H50.2033C50.9633 50.1912 51.5633 49.5912 51.5633 48.8312V34.9112C51.5633 33.3112 50.9233 30.2712 49.9633 28.4312C48.7233 26.0312 48.1233 23.5512 48.1233 21.1112ZM44.7233 19.9112H47.3233V21.1112C47.3233 22.3512 47.4833 23.5512 47.7633 24.7912H44.2433C44.5633 23.5512 44.7233 22.3112 44.7233 21.0312V19.9112ZM47.3233 16.7912V17.2712H44.6033V16.7912H47.3233ZM50.7633 48.8312C50.7633 49.1512 50.5233 49.3912 50.2033 49.3912H41.7233C41.4033 49.3912 41.1633 49.1512 41.1633 48.8312V34.9112C41.1633 33.3912 41.8033 30.4712 42.7233 28.7512C43.2833 27.7112 43.6833 26.6712 44.0433 25.5912H47.9633C47.9633 25.5912 47.9633 25.5912 48.0033 25.5912C48.3233 26.6712 48.7233 27.7512 49.2833 28.7912C50.2433 30.6712 50.8033 33.6312 50.8033 34.9112V48.8312H50.7633Z" stroke="#4F46E5" stroke-width="0.882443"/>
<path d="M61.7248 21.1112V19.8712C62.0448 19.7512 62.2448 19.4712 62.2448 19.1112V18.0312C62.2448 17.7112 62.0448 17.3912 61.7248 17.3112V16.6712C61.7248 16.3112 61.4048 15.9912 61.0448 15.9912H58.0848C57.7248 15.9912 57.4048 16.3112 57.4048 16.6712V17.3512C57.0848 17.4712 56.8848 17.7512 56.8848 18.0712V19.1512C56.8848 19.5512 57.1648 19.8712 57.5248 19.9112V21.0312C57.5248 23.4712 56.8848 25.9512 55.6048 28.3512C54.5248 30.3912 53.9648 33.4712 53.9648 34.9112V48.8312C53.9648 49.5912 54.5648 50.1912 55.3248 50.1912H63.8048C64.5648 50.1912 65.1648 49.5912 65.1648 48.8312V34.9112C65.1648 33.3112 64.5248 30.2712 63.5648 28.4312C62.3248 26.0312 61.7248 23.5512 61.7248 21.1112ZM57.9248 19.1112C57.8848 19.1112 57.8848 19.1112 57.9248 19.1112H57.6848V18.0712H61.4848V19.1112H59.3248H57.9248ZM58.3248 19.9112H60.9248V21.1112C60.9248 22.3512 61.0848 23.5512 61.3648 24.7912H57.8448C58.1648 23.5512 58.3248 22.3112 58.3248 21.0312V19.9112ZM60.9248 16.7912V17.2712H58.2048V16.7912H60.9248ZM64.3648 48.8312C64.3648 49.1512 64.1248 49.3912 63.8048 49.3912H55.3248C55.0048 49.3912 54.7648 49.1512 54.7648 48.8312V34.9112C54.7648 33.3912 55.4048 30.4712 56.3248 28.7512C56.8848 27.7112 57.2848 26.6712 57.6448 25.5912H61.5648C61.5648 25.5912 61.5648 25.5912 61.6048 25.5912C61.9248 26.6712 62.3248 27.7512 62.8848 28.7912C63.8448 30.6712 64.4048 33.6312 64.4048 34.9112V48.8312H64.3648Z" fill="#4F46E5"/>
<path d="M57.9248 19.1112C57.8848 19.1112 57.8848 19.1112 57.9248 19.1112ZM57.9248 19.1112H57.6848V18.0712H61.4848V19.1112H59.3248H57.9248ZM61.7248 21.1112V19.8712C62.0448 19.7512 62.2448 19.4712 62.2448 19.1112V18.0312C62.2448 17.7112 62.0448 17.3912 61.7248 17.3112V16.6712C61.7248 16.3112 61.4048 15.9912 61.0448 15.9912H58.0848C57.7248 15.9912 57.4048 16.3112 57.4048 16.6712V17.3512C57.0848 17.4712 56.8848 17.7512 56.8848 18.0712V19.1512C56.8848 19.5512 57.1648 19.8712 57.5248 19.9112V21.0312C57.5248 23.4712 56.8848 25.9512 55.6048 28.3512C54.5248 30.3912 53.9648 33.4712 53.9648 34.9112V48.8312C53.9648 49.5912 54.5648 50.1912 55.3248 50.1912H63.8048C64.5648 50.1912 65.1648 49.5912 65.1648 48.8312V34.9112C65.1648 33.3112 64.5248 30.2712 63.5648 28.4312C62.3248 26.0312 61.7248 23.5512 61.7248 21.1112ZM58.3248 19.9112H60.9248V21.1112C60.9248 22.3512 61.0848 23.5512 61.3648 24.7912H57.8448C58.1648 23.5512 58.3248 22.3112 58.3248 21.0312V19.9112ZM60.9248 16.7912V17.2712H58.2048V16.7912H60.9248ZM64.3648 48.8312C64.3648 49.1512 64.1248 49.3912 63.8048 49.3912H55.3248C55.0048 49.3912 54.7648 49.1512 54.7648 48.8312V34.9112C54.7648 33.3912 55.4048 30.4712 56.3248 28.7512C56.8848 27.7112 57.2848 26.6712 57.6448 25.5912H61.5648C61.5648 25.5912 61.5648 25.5912 61.6048 25.5912C61.9248 26.6712 62.3248 27.7512 62.8848 28.7912C63.8448 30.6712 64.4048 33.6312 64.4048 34.9112V48.8312H64.3648Z" stroke="#4F46E5" stroke-width="0.882443"/>
<path d="M75.3225 21.1112V19.8712C75.6425 19.7512 75.8425 19.4712 75.8425 19.1112V18.0312C75.8425 17.7112 75.6425 17.3912 75.3225 17.3112V16.6712C75.3225 16.3112 75.0025 15.9912 74.6425 15.9912H71.6825C71.3225 15.9912 71.0025 16.3112 71.0025 16.6712V17.3512C70.6825 17.4712 70.4825 17.7512 70.4825 18.0712V19.1512C70.4825 19.5512 70.7625 19.8712 71.1225 19.9112V21.0312C71.1225 23.4712 70.4825 25.9512 69.2025 28.3512C68.1225 30.3912 67.5625 33.4712 67.5625 34.9112V48.8312C67.5625 49.5912 68.1625 50.1912 68.9225 50.1912H77.4025C78.1625 50.1912 78.7625 49.5912 78.7625 48.8312V34.9112C78.7625 33.3112 78.1225 30.2712 77.1625 28.4312C75.9225 26.0312 75.3225 23.5512 75.3225 21.1112ZM71.5225 19.1112C71.4825 19.1112 71.4825 19.1112 71.5225 19.1112H71.2825V18.0712H75.0825V19.1112H72.9225H71.5225ZM71.9225 19.9112H74.5225V21.1112C74.5225 22.3512 74.6825 23.5512 74.9625 24.7912H71.4425C71.7625 23.5512 71.9225 22.3112 71.9225 21.0312V19.9112ZM74.5225 16.7912V17.2712H71.8025V16.7912H74.5225ZM77.9625 48.8312C77.9625 49.1512 77.7225 49.3912 77.4025 49.3912H68.9225C68.6025 49.3912 68.3625 49.1512 68.3625 48.8312V34.9112C68.3625 33.3912 69.0025 30.4712 69.9225 28.7512C70.4825 27.7112 70.8825 26.6712 71.2425 25.5912H75.1625C75.1625 25.5912 75.1625 25.5912 75.2025 25.5912C75.5225 26.6712 75.9225 27.7512 76.4825 28.7912C77.4425 30.6712 78.0025 33.6312 78.0025 34.9112V48.8312H77.9625Z" fill="#4F46E5"/>
<path d="M71.5225 19.1112C71.4825 19.1112 71.4825 19.1112 71.5225 19.1112ZM71.5225 19.1112H71.2825V18.0712H75.0825V19.1112H72.9225H71.5225ZM75.3225 21.1112V19.8712C75.6425 19.7512 75.8425 19.4712 75.8425 19.1112V18.0312C75.8425 17.7112 75.6425 17.3912 75.3225 17.3112V16.6712C75.3225 16.3112 75.0025 15.9912 74.6425 15.9912H71.6825C71.3225 15.9912 71.0025 16.3112 71.0025 16.6712V17.3512C70.6825 17.4712 70.4825 17.7512 70.4825 18.0712V19.1512C70.4825 19.5512 70.7625 19.8712 71.1225 19.9112V21.0312C71.1225 23.4712 70.4825 25.9512 69.2025 28.3512C68.1225 30.3912 67.5625 33.4712 67.5625 34.9112V48.8312C67.5625 49.5912 68.1625 50.1912 68.9225 50.1912H77.4025C78.1625 50.1912 78.7625 49.5912 78.7625 48.8312V34.9112C78.7625 33.3112 78.1225 30.2712 77.1625 28.4312C75.9225 26.0312 75.3225 23.5512 75.3225 21.1112ZM71.9225 19.9112H74.5225V21.1112C74.5225 22.3512 74.6825 23.5512 74.9625 24.7912H71.4425C71.7625 23.5512 71.9225 22.3112 71.9225 21.0312V19.9112ZM74.5225 16.7912V17.2712H71.8025V16.7912H74.5225ZM77.9625 48.8312C77.9625 49.1512 77.7225 49.3912 77.4025 49.3912H68.9225C68.6025 49.3912 68.3625 49.1512 68.3625 48.8312V34.9112C68.3625 33.3912 69.0025 30.4712 69.9225 28.7512C70.4825 27.7112 70.8825 26.6712 71.2425 25.5912H75.1625C75.1625 25.5912 75.1625 25.5912 75.2025 25.5912C75.5225 26.6712 75.9225 27.7512 76.4825 28.7912C77.4425 30.6712 78.0025 33.6312 78.0025 34.9112V48.8312H77.9625Z" stroke="#4F46E5" stroke-width="0.882443"/>
<rect x="319.812" y="206.271" width="66.1832" height="66.1832" rx="7.05954" fill="#EEF2FF"/>
<path d="M364.057 234.486H350.576C350.056 234.486 349.633 234.909 349.633 235.43C349.633 235.951 350.056 236.374 350.576 236.374H364.057C364.578 236.374 365.001 235.951 365.001 235.43C364.999 234.909 364.578 234.486 364.057 234.486Z" fill="#4F46E5" stroke="#4F46E5" stroke-width="0.8"/>
<path d="M341.075 234.994L343.191 237.112C343.368 237.289 343.608 237.388 343.86 237.388C344.111 237.388 344.349 237.291 344.526 237.112L348.192 233.446C348.561 233.079 348.561 232.479 348.192 232.112C347.824 231.744 347.227 231.744 346.858 232.112L343.86 235.109L342.413 233.66C342.044 233.292 341.446 233.294 341.077 233.659C340.709 234.029 340.709 234.626 341.075 234.994Z" fill="#4F46E5" stroke="#4F46E5" stroke-width="0.8"/>
<path d="M364.057 243.776H350.576C350.056 243.776 349.633 244.199 349.633 244.72C349.633 245.241 350.056 245.664 350.576 245.664H364.057C364.578 245.664 365.001 245.241 365.001 244.72C364.999 244.199 364.578 243.776 364.057 243.776Z" fill="#4F46E5" stroke="#4F46E5" stroke-width="0.8"/>
<path d="M348.194 241.403C347.825 241.034 347.227 241.036 346.858 241.401L343.859 244.398L342.411 242.951C342.042 242.582 341.446 242.582 341.077 242.951C340.709 243.318 340.709 243.918 341.077 244.285L343.193 246.4C343.376 246.583 343.618 246.677 343.859 246.677C344.101 246.677 344.341 246.585 344.526 246.402L348.192 242.739C348.562 242.368 348.562 241.771 348.194 241.403Z" fill="#4F46E5" stroke="#4F46E5" stroke-width="0.8"/>
<path d="M364.057 253.065H350.576C350.056 253.065 349.633 253.489 349.633 254.009C349.633 254.53 350.056 254.953 350.576 254.953H364.057C364.578 254.953 365.001 254.53 365.001 254.009C364.999 253.487 364.578 253.065 364.057 253.065Z" fill="#4F46E5" stroke="#4F46E5" stroke-width="0.8"/>
<path d="M346.858 250.692L343.859 253.689L342.411 252.242C342.042 251.873 341.446 251.873 341.077 252.242C340.709 252.609 340.709 253.209 341.077 253.576L343.193 255.691C343.376 255.874 343.618 255.968 343.859 255.968C344.101 255.968 344.341 255.876 344.526 255.691L348.192 252.026C348.56 251.659 348.56 251.058 348.192 250.692C347.821 250.321 347.227 250.321 346.858 250.692Z" fill="#4F46E5" stroke="#4F46E5" stroke-width="0.8"/>
<path d="M365.635 222.178H365.414C364.894 222.178 364.471 222.601 364.471 223.121C364.471 223.642 364.894 224.065 365.414 224.065H365.635C367.536 224.065 369.08 225.611 369.08 227.51V257.757C369.08 259.649 367.534 261.187 365.635 261.187L340.171 261.185C338.27 261.185 336.725 259.647 336.725 257.755V227.51C336.725 225.609 338.272 224.065 340.171 224.065H340.391C340.912 224.065 341.335 223.642 341.335 223.121C341.335 222.601 340.912 222.178 340.391 222.178H340.171C337.23 222.178 334.84 224.568 334.84 227.509V257.756C334.84 260.688 337.23 263.073 340.171 263.073H365.637C368.577 263.073 370.967 260.688 370.967 257.756V227.511C370.967 224.57 368.575 222.178 365.635 222.178Z" fill="#4F46E5" stroke="#4F46E5" stroke-width="0.8"/>
<path d="M346.645 227.189H359.154C360.954 227.189 362.42 225.723 362.42 223.921V222.264C362.42 220.462 360.954 218.996 359.154 218.996H357.023C356.622 217.091 354.925 215.654 352.9 215.654C350.891 215.654 349.205 217.066 348.79 218.998H346.645C344.845 218.998 343.379 220.464 343.379 222.266V223.923C343.379 225.725 344.845 227.189 346.645 227.189ZM345.265 222.266C345.265 221.506 345.883 220.886 346.643 220.886H349.634C350.155 220.886 350.57 220.39 350.57 219.87C350.57 218.585 351.615 217.542 352.898 217.542C354.181 217.542 355.226 218.587 355.234 219.757C355.226 219.805 355.218 219.891 355.218 219.942C355.218 220.462 355.641 220.886 356.162 220.886H359.153C359.913 220.886 360.531 221.506 360.531 222.266V223.923C360.531 224.684 359.913 225.304 359.153 225.304H346.645C345.884 225.304 345.266 224.684 345.266 223.923V222.266L345.265 222.266Z" fill="#4F46E5" stroke="#4F46E5" stroke-width="0.8"/>
<rect x="349.594" y="103.688" width="66.1832" height="66.1832" rx="7.05954" fill="#EEF2FF"/>
<path d="M390.478 128.984V144.574M382.684 134.831V144.574M374.889 140.677V144.574M370.991 152.369H394.376C395.41 152.369 396.401 151.958 397.132 151.228C397.863 150.497 398.273 149.505 398.273 148.472V125.087C398.273 124.053 397.863 123.062 397.132 122.331C396.401 121.6 395.41 121.189 394.376 121.189H370.991C369.958 121.189 368.966 121.6 368.235 122.331C367.504 123.062 367.094 124.053 367.094 125.087V148.472C367.094 149.505 367.504 150.497 368.235 151.228C368.966 151.958 369.958 152.369 370.991 152.369Z" stroke="#4F46E5" stroke-width="2.64733" stroke-linecap="round" stroke-linejoin="round"/>
<rect x="179" y="271" width="66.1832" height="66.1832" rx="7.05954" fill="#EEF2FF"/>
<path d="M227.68 319.682H219.885M196.5 296.297V288.502V296.297ZM196.5 288.502H204.295H196.5ZM196.5 288.502L206.244 298.246L196.5 288.502ZM227.68 296.297V288.502V296.297ZM227.68 288.502H219.885H227.68ZM227.68 288.502L217.936 298.246L227.68 288.502ZM196.5 311.887V319.682V311.887ZM196.5 319.682H204.295H196.5ZM196.5 319.682L206.244 309.938L196.5 319.682ZM227.68 319.682L217.936 309.938L227.68 319.682ZM227.68 319.682V311.887V319.682Z" stroke="#4F46E5" stroke-width="2.64733" stroke-linecap="round" stroke-linejoin="round"/>
<rect y="103.688" width="66.1832" height="66.1832" rx="7.05954" fill="#EEF2FF"/>
<path d="M27.4709 116.742C27.3703 116.746 27.2705 116.769 27.1777 116.808L12.2521 123.631C11.7723 123.85 11.6582 124.548 11.9589 124.964L16.5965 130.388L11.9589 135.798C11.6798 136.19 11.7723 136.913 12.2521 137.131L16.8764 139.25V149.152C16.8788 149.477 17.0853 149.792 17.3828 149.924L32.7215 156.748C32.9389 156.844 33.1972 156.844 33.4145 156.748L48.7799 149.924C49.0774 149.792 49.2839 149.477 49.2863 149.152V139.25L53.9106 137.131C54.3904 136.913 54.5476 136.198 54.2038 135.798L49.5662 130.388L54.2038 124.964C54.5476 124.564 54.3904 123.85 53.9106 123.631L38.985 116.808C38.8516 116.75 38.7033 116.727 38.5585 116.742C38.3476 116.757 38.1437 116.854 37.9988 117.008L33.0814 122.299L28.1639 117.008C27.9887 116.821 27.7261 116.72 27.4709 116.742ZM27.3376 118.621L31.6421 123.258L17.9691 129.348L13.9978 124.724L27.3376 118.621ZM38.8251 118.621L52.1649 124.724L48.1936 129.348L34.5206 123.258L38.8251 118.621ZM33.0814 124.498L46.3279 130.388L33.0814 136.265L19.8348 130.388L33.0814 124.498ZM17.9691 131.414L31.6421 137.504L27.3376 142.142L13.9978 136.038L17.9691 131.414ZM48.1936 131.414L52.1649 136.038L38.8251 142.142L34.5206 137.504L48.1936 131.414ZM32.2285 139.383V154.655L18.5822 148.592V140.023L27.1777 143.954C27.5037 144.104 27.922 144.019 28.1639 143.754L32.2285 139.383ZM33.9342 139.383L37.9988 143.754C38.2407 144.019 38.659 144.104 38.985 143.954L47.5806 140.023V148.592L33.9342 154.642V139.383Z" fill="#4F46E5"/>
<path d="M103.732 41.2645C103.431 41.2187 103.15 41.4257 103.104 41.7269C103.058 42.028 103.265 42.3092 103.566 42.355L103.649 41.8097L103.732 41.2645ZM183.937 91.5177C184.24 91.5531 184.514 91.3365 184.549 91.034L185.125 86.1038C185.161 85.8013 184.944 85.5273 184.642 85.492C184.339 85.4566 184.065 85.6732 184.03 85.9757L183.517 90.3581L179.135 89.8457C178.833 89.8104 178.559 90.0269 178.523 90.3295C178.488 90.632 178.704 90.9059 179.007 90.9413L183.937 91.5177ZM103.649 41.8097L103.566 42.355C122.666 45.2576 136.412 49.6103 148.497 57.159C160.588 64.7116 171.058 75.4887 183.569 91.312L184.001 90.9699L184.434 90.6279C171.896 74.7701 161.332 63.8762 149.081 56.2235C136.823 48.567 122.917 44.18 103.732 41.2645L103.649 41.8097Z" fill="#F9FAFB"/>
<path d="M100.425 239.89C100.124 239.936 99.8427 239.729 99.7969 239.428C99.7512 239.126 99.9582 238.845 100.259 238.799L100.342 239.345L100.425 239.89ZM187.69 185.318C187.992 185.282 188.266 185.499 188.301 185.802L188.878 190.732C188.913 191.034 188.697 191.308 188.394 191.344C188.091 191.379 187.818 191.162 187.782 190.86L187.27 186.477L182.887 186.99C182.585 187.025 182.311 186.809 182.276 186.506C182.24 186.204 182.457 185.93 182.759 185.894L187.69 185.318ZM100.342 239.345L100.259 238.799C121.041 235.641 136.001 230.905 149.155 222.688C162.316 214.467 173.71 202.738 187.321 185.524L187.754 185.866L188.186 186.208C174.548 203.457 163.061 215.303 149.74 223.624C136.413 231.948 121.292 236.719 100.425 239.89L100.342 239.345Z" fill="#F9FAFB"/>
<path d="M210.02 192.905C210.073 192.605 210.359 192.404 210.659 192.457C210.959 192.51 211.16 192.796 211.107 193.096L210.564 193L210.02 192.905ZM212.797 258.283C212.628 258.536 212.285 258.604 212.032 258.434L207.907 255.673C207.654 255.504 207.586 255.161 207.756 254.908C207.925 254.655 208.268 254.587 208.521 254.756L212.187 257.211L214.642 253.544C214.811 253.291 215.154 253.224 215.407 253.393C215.66 253.562 215.728 253.905 215.558 254.158L212.797 258.283ZM210.564 193L211.107 193.096C206.791 217.64 207.669 231.551 212.88 257.869L212.339 257.976L211.798 258.083C206.567 231.667 205.676 217.615 210.02 192.905L210.564 193Z" fill="#F9FAFB"/>
<path d="M77.3346 133.448C77.0423 133.362 76.8748 133.056 76.9604 132.763C77.0461 132.471 77.3525 132.304 77.6448 132.389L77.4897 132.919L77.3346 133.448ZM160.835 137.499C161.077 137.684 161.124 138.03 160.939 138.272L157.929 142.219C157.745 142.462 157.399 142.508 157.156 142.324C156.914 142.139 156.868 141.793 157.052 141.551L159.727 138.042L156.219 135.367C155.976 135.182 155.93 134.836 156.114 134.594C156.299 134.352 156.645 134.305 156.887 134.49L160.835 137.499ZM77.4897 132.919L77.6448 132.389C110.25 141.945 128.437 141.704 160.427 137.391L160.5 137.938L160.574 138.484C128.476 142.811 110.126 143.058 77.3346 133.448L77.4897 132.919Z" fill="#F9FAFB"/>
<path d="M305.203 44.3707C305.448 44.5512 305.5 44.8965 305.32 45.1418L302.377 49.1392C302.196 49.3845 301.851 49.437 301.606 49.2564C301.361 49.0758 301.308 48.7305 301.489 48.4852L304.104 44.932L300.551 42.3163C300.306 42.1357 300.253 41.7904 300.434 41.5451C300.615 41.2998 300.96 41.2474 301.205 41.428L305.203 44.3707ZM227.227 92.908C226.924 92.9434 226.65 92.7268 226.615 92.4243L226.039 87.4941C226.003 87.1916 226.22 86.9177 226.522 86.8823C226.825 86.8469 227.099 87.0635 227.134 87.366L227.647 91.7484L232.029 91.2361C232.331 91.2007 232.605 91.4173 232.641 91.7198C232.676 92.0224 232.459 92.2963 232.157 92.3316L227.227 92.908ZM304.876 44.8148L304.958 45.3601C286.487 48.1671 273.196 52.3763 261.511 59.6753C249.819 66.9782 239.695 77.3993 227.595 92.7023L227.163 92.3602L226.73 92.0182C238.857 76.6807 249.075 66.1427 260.926 58.7397C272.784 51.333 286.236 47.0896 304.793 44.2696L304.876 44.8148Z" fill="#F9FAFB"/>
<path d="M310.59 232.843C310.836 232.662 310.888 232.317 310.707 232.072L307.765 228.074C307.584 227.829 307.239 227.777 306.994 227.957C306.748 228.138 306.696 228.483 306.876 228.728L309.492 232.282L305.939 234.897C305.694 235.078 305.641 235.423 305.822 235.668C306.002 235.914 306.348 235.966 306.593 235.786L310.59 232.843ZM233.764 185.009C233.461 184.973 233.187 185.19 233.152 185.492L232.575 190.423C232.54 190.725 232.757 190.999 233.059 191.034C233.362 191.07 233.636 190.853 233.671 190.551L234.183 186.168L238.566 186.681C238.868 186.716 239.142 186.499 239.178 186.197C239.213 185.894 238.996 185.62 238.694 185.585L233.764 185.009ZM310.263 232.399L310.346 231.854C292.149 229.088 279.055 224.941 267.544 217.751C256.027 210.557 246.052 200.291 234.132 185.214L233.7 185.557L233.267 185.899C245.214 201.009 255.282 211.393 266.96 218.687C278.643 225.985 291.898 230.166 310.18 232.944L310.263 232.399Z" fill="#F9FAFB"/>
<path d="M334.297 132.08C334.443 131.813 334.345 131.478 334.078 131.332L329.723 128.95C329.455 128.804 329.12 128.903 328.974 129.17C328.828 129.437 328.926 129.772 329.193 129.918L333.065 132.035L330.948 135.906C330.802 136.174 330.9 136.509 331.168 136.655C331.435 136.801 331.77 136.703 331.916 136.435L334.297 132.08ZM250.022 136.423C249.78 136.608 249.733 136.954 249.918 137.196L252.927 141.143C253.112 141.385 253.458 141.432 253.7 141.247C253.942 141.063 253.989 140.717 253.804 140.474L251.129 136.966L254.638 134.291C254.88 134.106 254.927 133.76 254.742 133.518C254.558 133.275 254.211 133.229 253.969 133.413L250.022 136.423ZM333.813 131.815L333.658 131.286C300.877 140.893 282.592 140.651 250.43 136.315L250.356 136.862L250.283 137.408C282.553 141.758 301.001 142.007 333.968 132.345L333.813 131.815Z" fill="#F9FAFB"/>
<g clip-path="url(#clip0_7173_5032)">
<path d="M210.508 144.862C216.824 147.533 222.89 150.705 229.429 152.18C232.35 152.653 235.3 152.903 238.193 152.903V136.82H235.773C226.813 136.82 218.521 141.467 210.508 144.862Z" fill="#DA3D0B"/>
<path d="M191.84 149.981C188.919 149.73 185.997 149.73 183.103 149.73H176.453V164.505C176.453 167.177 178.623 169.319 181.267 169.319H233.383C236.054 169.319 238.196 167.149 238.196 164.505V162.641C231.88 162.641 225.313 161.834 219.47 159.386C210.288 156.241 201.801 150.231 191.84 149.981Z" fill="#DA3D0B"/>
<path d="M233.41 107.549H181.267C178.623 107.549 176.453 109.719 176.453 112.39V139.77C182.296 139.77 188.446 140.02 194.261 139.519C202.275 138.796 209.314 134.4 216.827 131.478C223.616 128.557 230.934 126.859 238.224 127.082V112.39C238.224 109.719 236.054 107.549 233.41 107.549Z" fill="#DA3D0B"/>
<path d="M238.224 136.82V127.082C230.934 126.831 223.644 128.556 216.827 131.478C209.286 134.4 202.275 138.796 194.261 139.519C188.446 140.02 182.296 139.77 176.453 139.77V149.759H183.103C185.997 149.759 188.919 149.759 191.84 150.009C201.801 150.26 210.288 156.27 219.498 159.414C225.341 161.863 231.908 162.67 238.224 162.67V152.931C235.33 152.931 232.353 152.68 229.459 152.207C222.893 150.733 216.855 147.588 210.538 144.889C218.552 141.467 226.844 136.848 235.803 136.848L238.224 136.82Z" fill="white"/>
</g>
<defs>
<clipPath id="clip0_7173_5032">
<rect width="61.771" height="61.771" fill="white" transform="translate(176.453 107.548)"/>
</clipPath>
</defs>
</svg>
