<svg width="408" height="392" viewBox="0 0 408 392" fill="none" xmlns="http://www.w3.org/2000/svg">
<path d="M205.51 96.5645L205.51 95.9609L204.303 95.9609L204.303 96.5645L204.906 96.5645L205.51 96.5645ZM204.479 180.611C204.715 180.846 205.097 180.846 205.333 180.611L209.174 176.77C209.409 176.534 209.409 176.152 209.174 175.916C208.938 175.681 208.556 175.681 208.32 175.916L204.906 179.33L201.492 175.916C201.257 175.681 200.874 175.681 200.639 175.916C200.403 176.152 200.403 176.534 200.639 176.77L204.479 180.611ZM204.906 96.5645L204.303 96.5645L204.303 98.8872L204.906 98.8872L205.51 98.8872L205.51 96.5645L204.906 96.5645ZM204.906 103.533L204.303 103.533L204.303 108.178L204.906 108.178L205.51 108.178L205.51 103.533L204.906 103.533ZM204.906 112.824L204.303 112.824L204.303 117.469L204.906 117.469L205.51 117.469L205.51 112.824L204.906 112.824ZM204.906 122.115L204.303 122.115L204.303 126.76L204.906 126.76L205.51 126.76L205.51 122.115L204.906 122.115ZM204.906 131.406L204.303 131.406L204.303 136.051L204.906 136.051L205.51 136.051L205.51 131.406L204.906 131.406ZM204.906 140.697L204.303 140.697L204.303 145.342L204.906 145.342L205.51 145.342L205.51 140.697L204.906 140.697ZM204.906 149.988L204.303 149.988L204.303 154.633L204.906 154.633L205.51 154.633L205.51 149.988L204.906 149.988ZM204.906 159.279L204.303 159.279L204.303 163.924L204.906 163.924L205.51 163.924L205.51 159.279L204.906 159.279ZM204.906 168.57L204.303 168.57L204.303 173.216L204.906 173.216L205.51 173.216L205.51 168.57L204.906 168.57ZM204.906 177.861L204.303 177.861L204.303 180.184L204.906 180.184L205.51 180.184L205.51 177.861L204.906 177.861Z" fill="#FF8A7B"/>
<path d="M206.104 297.334L206.104 296.73L204.896 296.73L204.896 297.334L205.5 297.334L206.104 297.334ZM205.073 329.233C205.309 329.468 205.691 329.468 205.927 329.233L209.767 325.392C210.003 325.156 210.003 324.774 209.767 324.538C209.532 324.303 209.15 324.303 208.914 324.538L205.5 327.952L202.086 324.538C201.85 324.303 201.468 324.303 201.233 324.538C200.997 324.774 200.997 325.156 201.233 325.392L205.073 329.233ZM205.5 297.334L204.896 297.334L204.896 328.806L205.5 328.806L206.104 328.806L206.104 297.334L205.5 297.334Z" fill="#4B5563"/>
<rect x="17.4218" y="340.074" width="377.131" height="51.459" rx="6.32692" fill="#FFE8E5" fill-opacity="0.5"/>
<rect x="17.4218" y="340.074" width="377.131" height="51.459" rx="6.32692" stroke="#FF604F" stroke-width="0.84359"/>
<path d="M43.9939 360.742V365.804M43.9939 370.865H44.0066M55.3824 365.804C55.3824 367.299 55.0878 368.78 54.5155 370.162C53.9432 371.543 53.1043 372.799 52.0468 373.856C50.9893 374.914 49.7338 375.753 48.3521 376.325C46.9704 376.897 45.4895 377.192 43.9939 377.192C42.4984 377.192 41.0175 376.897 39.6358 376.325C38.254 375.753 36.9986 374.914 35.9411 373.856C34.8836 372.799 34.0447 371.543 33.4724 370.162C32.9 368.78 32.6055 367.299 32.6055 365.804C32.6055 362.783 33.8053 359.886 35.9411 357.751C38.0768 355.615 40.9735 354.415 43.9939 354.415C47.0143 354.415 49.911 355.615 52.0468 357.751C54.1825 359.886 55.3824 362.783 55.3824 365.804Z" stroke="#FF3B27" stroke-width="1.68718" stroke-linecap="round" stroke-linejoin="round"/>
<path d="M69.7145 360.407C70.3527 360.407 70.8948 360.503 71.3407 360.696C71.7867 360.888 72.1269 361.172 72.3614 361.549C72.596 361.922 72.7132 362.383 72.7132 362.933C72.7132 363.337 72.6344 363.698 72.4768 364.017C72.323 364.333 72.1019 364.602 71.8136 364.825C71.5291 365.044 71.1889 365.209 70.7929 365.321L70.4123 365.499H67.7827V364.45H69.7376C70.1067 364.45 70.4142 364.384 70.6603 364.254C70.9063 364.123 71.0908 363.946 71.2139 363.723C71.3369 363.5 71.3984 363.25 71.3984 362.974C71.3984 362.516 71.2638 362.151 70.9947 361.878C70.7295 361.601 70.3027 361.463 69.7145 361.463H68.1402V368.804H66.8312V360.407H69.7145ZM69.6626 365.015H71.0409L73.065 368.729V368.804H71.6637L69.6626 365.015ZM76.7211 368.919C76.1214 368.919 75.6023 368.788 75.1641 368.527C74.7258 368.262 74.3856 367.902 74.1434 367.449C73.905 366.991 73.7858 366.476 73.7858 365.903V365.661C73.7858 365 73.9108 364.429 74.1607 363.948C74.4144 363.468 74.7527 363.098 75.1756 362.841C75.6023 362.579 76.0675 362.449 76.5712 362.449C77.1709 362.449 77.663 362.581 78.0474 362.847C78.4357 363.108 78.7241 363.469 78.9124 363.931C79.1008 364.388 79.195 364.913 79.195 365.505V366.053H74.449V365.107H77.9436V365.009C77.9321 364.748 77.8802 364.5 77.7879 364.265C77.6995 364.027 77.5573 363.833 77.3612 363.683C77.1651 363.533 76.8999 363.458 76.5654 363.458C76.254 363.458 75.983 363.546 75.7523 363.723C75.5255 363.9 75.3505 364.154 75.2275 364.484C75.1045 364.811 75.043 365.203 75.043 365.661V365.903C75.043 366.276 75.1122 366.614 75.2506 366.918C75.389 367.222 75.5889 367.464 75.8503 367.645C76.1156 367.821 76.4308 367.91 76.7961 367.91C77.1498 367.91 77.4554 367.839 77.713 367.696C77.9744 367.554 78.2012 367.356 78.3934 367.103L79.097 367.737C78.9009 368.037 78.6107 368.31 78.2262 368.556C77.8418 368.798 77.3401 368.919 76.7211 368.919ZM82.8915 368.919C82.2572 368.919 81.7324 368.777 81.3172 368.492C80.902 368.208 80.5906 367.829 80.383 367.356C80.1792 366.88 80.0773 366.359 80.0773 365.793V365.574C80.0773 365.005 80.1811 364.484 80.3887 364.012C80.5963 363.539 80.9077 363.16 81.3229 362.876C81.7381 362.591 82.2591 362.449 82.8857 362.449C83.3817 362.449 83.8161 362.549 84.189 362.749C84.5658 362.945 84.8599 363.218 85.0713 363.568C85.2828 363.914 85.3962 364.311 85.4116 364.761H84.2236C84.2082 364.523 84.1448 364.306 84.0333 364.11C83.9218 363.91 83.768 363.752 83.572 363.637C83.3759 363.518 83.1452 363.458 82.88 363.458C82.4801 363.458 82.1668 363.562 81.94 363.769C81.717 363.977 81.5594 364.242 81.4671 364.565C81.3787 364.888 81.3345 365.224 81.3345 365.574V365.793C81.3345 366.143 81.3787 366.482 81.4671 366.808C81.5555 367.131 81.7112 367.397 81.9342 367.604C82.161 367.808 82.4763 367.91 82.88 367.91C83.1183 367.91 83.3355 367.862 83.5316 367.766C83.7315 367.666 83.893 367.531 84.016 367.362C84.139 367.189 84.2082 366.993 84.2236 366.774H85.4116C85.3962 367.166 85.2731 367.525 85.0425 367.852C84.8118 368.175 84.5081 368.435 84.1313 368.631C83.7584 368.823 83.3451 368.919 82.8915 368.919ZM90.1172 364.559C90.1172 364.21 90.0172 363.933 89.8173 363.729C89.6213 363.521 89.3252 363.418 88.9293 363.418C88.6871 363.418 88.4756 363.46 88.2949 363.544C88.1142 363.625 87.9739 363.735 87.8739 363.873C87.774 364.012 87.724 364.165 87.724 364.334H86.4669C86.4669 364.015 86.5707 363.714 86.7783 363.429C86.9859 363.141 87.28 362.906 87.6606 362.726C88.0412 362.541 88.4871 362.449 88.9985 362.449C89.4598 362.449 89.8692 362.528 90.2268 362.685C90.5881 362.839 90.8707 363.074 91.0745 363.389C91.2782 363.704 91.3801 364.098 91.3801 364.571V367.397C91.3801 367.647 91.3993 367.887 91.4378 368.117C91.4762 368.344 91.532 368.542 91.605 368.711V368.804H90.3133C90.2518 368.665 90.2037 368.487 90.1691 368.267C90.1345 368.044 90.1172 367.831 90.1172 367.627V364.559ZM90.3133 365.828H89.3041C88.7466 365.828 88.3218 365.924 88.0296 366.116C87.7375 366.305 87.5914 366.574 87.5914 366.924C87.5914 367.197 87.6836 367.425 87.8682 367.61C88.0527 367.795 88.318 367.887 88.664 367.887C88.9677 367.887 89.2349 367.825 89.4656 367.702C89.6962 367.575 89.8769 367.42 90.0076 367.235C90.1383 367.051 90.2075 366.874 90.2152 366.705L90.6766 367.281C90.6381 367.443 90.5612 367.618 90.4459 367.806C90.3344 367.991 90.1845 368.167 89.9961 368.337C89.8077 368.506 89.5847 368.646 89.3272 368.758C89.0696 368.865 88.7755 368.919 88.4448 368.919C88.0296 368.919 87.6625 368.838 87.3434 368.677C87.0282 368.515 86.7802 368.294 86.5995 368.014C86.4227 367.729 86.3342 367.414 86.3342 367.068C86.3342 366.399 86.5841 365.89 87.0839 365.54C87.5875 365.186 88.2815 365.009 89.1657 365.009H90.3133V365.828ZM94.2808 368.804H93.0236V359.946H94.2808V368.804ZM97.2333 368.804H95.9762V359.946H97.2333V368.804ZM104.811 360.407C105.449 360.407 105.991 360.503 106.437 360.696C106.883 360.888 107.223 361.172 107.458 361.549C107.692 361.922 107.81 362.383 107.81 362.933C107.81 363.337 107.731 363.698 107.573 364.017C107.419 364.333 107.198 364.602 106.91 364.825C106.625 365.044 106.285 365.209 105.889 365.321L105.509 365.499H102.879V364.45H104.834C105.203 364.45 105.511 364.384 105.757 364.254C106.003 364.123 106.187 363.946 106.31 363.723C106.433 363.5 106.495 363.25 106.495 362.974C106.495 362.516 106.36 362.151 106.091 361.878C105.826 361.601 105.399 361.463 104.811 361.463H103.237V368.804H101.927V360.407H104.811ZM104.759 365.015H106.137L108.161 368.729V368.804H106.76L104.759 365.015ZM109.88 360.234C110.114 360.234 110.295 360.302 110.422 360.436C110.549 360.567 110.612 360.728 110.612 360.921C110.612 361.113 110.549 361.274 110.422 361.405C110.295 361.536 110.114 361.601 109.88 361.601C109.649 361.601 109.47 361.536 109.343 361.405C109.22 361.274 109.159 361.113 109.159 360.921C109.159 360.728 109.22 360.567 109.343 360.436C109.47 360.302 109.649 360.234 109.88 360.234ZM110.514 368.804H109.257V362.564H110.514V368.804ZM114.47 368.919C113.909 368.919 113.434 368.819 113.046 368.619C112.661 368.419 112.369 368.164 112.169 367.852C111.969 367.537 111.869 367.206 111.869 366.86H113.103C113.119 367.129 113.196 367.345 113.334 367.506C113.472 367.668 113.644 367.783 113.847 367.852C114.055 367.921 114.264 367.956 114.476 367.956C114.745 367.956 114.97 367.921 115.151 367.852C115.331 367.779 115.468 367.681 115.56 367.558C115.656 367.431 115.704 367.287 115.704 367.126C115.704 366.983 115.67 366.853 115.6 366.733C115.535 366.61 115.402 366.499 115.202 366.399C115.006 366.299 114.712 366.209 114.32 366.128C113.87 366.036 113.476 365.915 113.138 365.765C112.803 365.611 112.544 365.417 112.359 365.182C112.175 364.944 112.083 364.652 112.083 364.306C112.083 363.971 112.179 363.664 112.371 363.383C112.563 363.102 112.836 362.877 113.19 362.708C113.547 362.535 113.966 362.449 114.447 362.449C114.958 362.449 115.397 362.537 115.762 362.714C116.131 362.887 116.412 363.122 116.604 363.418C116.8 363.714 116.898 364.046 116.898 364.415H115.641C115.641 364.161 115.539 363.931 115.335 363.723C115.131 363.516 114.835 363.412 114.447 363.412C114.186 363.412 113.97 363.452 113.801 363.533C113.636 363.614 113.513 363.719 113.432 363.85C113.355 363.977 113.317 364.113 113.317 364.26C113.317 364.402 113.355 364.527 113.432 364.634C113.509 364.738 113.644 364.832 113.836 364.917C114.032 364.998 114.311 365.078 114.672 365.159C115.164 365.267 115.579 365.399 115.918 365.557C116.256 365.711 116.512 365.909 116.685 366.151C116.861 366.393 116.95 366.695 116.95 367.056C116.95 367.418 116.846 367.741 116.638 368.025C116.435 368.306 116.146 368.525 115.773 368.683C115.404 368.84 114.97 368.919 114.47 368.919ZM119.499 368.804H118.242V359.946H119.499V368.804ZM120.635 365.528L119.118 367.085L118.882 365.92L119.995 364.565L121.817 362.564H123.339L120.635 365.528ZM120.035 365.857L120.767 364.888L123.599 368.804H122.134L120.035 365.857Z" fill="#374151"/>
<path d="M158.115 360.742V365.804L161.911 369.6M169.503 365.804C169.503 367.299 169.209 368.78 168.637 370.162C168.064 371.543 167.225 372.799 166.168 373.856C165.11 374.914 163.855 375.753 162.473 376.325C161.091 376.897 159.611 377.192 158.115 377.192C156.619 377.192 155.139 376.897 153.757 376.325C152.375 375.753 151.12 374.914 150.062 373.856C149.005 372.799 148.166 371.543 147.593 370.162C147.021 368.78 146.727 367.299 146.727 365.804C146.727 362.783 147.926 359.886 150.062 357.751C152.198 355.615 155.095 354.415 158.115 354.415C161.135 354.415 164.032 355.615 166.168 357.751C168.304 359.886 169.503 362.783 169.503 365.804Z" stroke="#FF3B27" stroke-width="1.68718" stroke-linecap="round" stroke-linejoin="round"/>
<path d="M183.732 368.919C183.336 368.919 182.946 368.865 182.561 368.758C182.181 368.65 181.833 368.487 181.517 368.267C181.206 368.048 180.958 367.775 180.773 367.449C180.589 367.122 180.497 366.741 180.497 366.307H181.8C181.8 366.584 181.85 366.822 181.95 367.022C182.054 367.218 182.194 367.379 182.371 367.506C182.552 367.633 182.757 367.727 182.988 367.789C183.222 367.846 183.47 367.875 183.732 367.875C184.093 367.875 184.395 367.825 184.637 367.725C184.883 367.622 185.07 367.479 185.197 367.299C185.323 367.114 185.387 366.901 185.387 366.658C185.387 366.412 185.335 366.205 185.231 366.036C185.131 365.863 184.945 365.705 184.672 365.563C184.399 365.417 184.009 365.269 183.501 365.119C183.094 365 182.723 364.863 182.388 364.709C182.058 364.556 181.769 364.381 181.523 364.185C181.277 363.985 181.087 363.754 180.952 363.493C180.822 363.231 180.756 362.931 180.756 362.593C180.756 362.147 180.879 361.751 181.125 361.405C181.371 361.059 181.713 360.788 182.152 360.592C182.59 360.392 183.099 360.292 183.68 360.292C184.31 360.292 184.851 360.409 185.3 360.644C185.75 360.878 186.092 361.19 186.327 361.578C186.565 361.966 186.684 362.389 186.684 362.847H185.375C185.375 362.555 185.314 362.295 185.191 362.068C185.068 361.841 184.879 361.665 184.626 361.538C184.376 361.407 184.059 361.342 183.674 361.342C183.309 361.342 183.007 361.397 182.769 361.509C182.53 361.616 182.354 361.764 182.238 361.953C182.123 362.137 182.065 362.349 182.065 362.587C182.065 362.806 182.131 363 182.261 363.17C182.396 363.339 182.602 363.493 182.878 363.631C183.155 363.766 183.507 363.896 183.934 364.023C184.56 364.2 185.077 364.408 185.485 364.646C185.896 364.884 186.2 365.167 186.396 365.494C186.596 365.82 186.696 366.205 186.696 366.647C186.696 367.108 186.573 367.51 186.327 367.852C186.085 368.194 185.741 368.458 185.295 368.642C184.852 368.827 184.332 368.919 183.732 368.919ZM189.245 368.804H187.988V359.946H189.245V368.804ZM190.577 365.62C190.577 365.017 190.692 364.477 190.923 364C191.154 363.523 191.482 363.147 191.909 362.87C192.34 362.589 192.851 362.449 193.443 362.449C194.047 362.449 194.564 362.589 194.994 362.87C195.425 363.147 195.754 363.523 195.98 364C196.211 364.477 196.326 365.017 196.326 365.62V365.753C196.326 366.353 196.211 366.893 195.98 367.374C195.754 367.85 195.425 368.227 194.994 368.504C194.567 368.781 194.054 368.919 193.455 368.919C192.859 368.919 192.345 368.781 191.915 368.504C191.484 368.227 191.154 367.85 190.923 367.374C190.692 366.893 190.577 366.353 190.577 365.753V365.62ZM191.84 365.753C191.84 366.141 191.897 366.499 192.013 366.826C192.128 367.153 192.305 367.416 192.543 367.616C192.782 367.812 193.085 367.91 193.455 367.91C193.824 367.91 194.127 367.812 194.366 367.616C194.604 367.416 194.781 367.153 194.896 366.826C195.012 366.499 195.069 366.141 195.069 365.753V365.62C195.069 365.236 195.012 364.88 194.896 364.554C194.781 364.223 194.602 363.958 194.36 363.758C194.122 363.558 193.816 363.458 193.443 363.458C193.082 363.458 192.78 363.558 192.538 363.758C192.299 363.958 192.122 364.223 192.007 364.554C191.896 364.88 191.84 365.236 191.84 365.62V365.753ZM200.726 362.564H201.539L201.349 363.844L199.809 368.804H199.066L199.21 367.529L200.726 362.564ZM199.515 367.57L199.602 368.804H198.783L197.036 362.564H198.275L199.515 367.57ZM204.152 362.564H205.386L203.639 368.804H202.825L202.964 367.518L204.152 362.564ZM203.189 367.466L203.362 368.804H202.612L201.038 363.839L200.853 362.564H201.701L203.189 367.466ZM212.369 360.407C213.008 360.407 213.55 360.503 213.996 360.696C214.442 360.888 214.782 361.172 215.016 361.549C215.251 361.922 215.368 362.383 215.368 362.933C215.368 363.337 215.289 363.698 215.132 364.017C214.978 364.333 214.757 364.602 214.468 364.825C214.184 365.044 213.844 365.209 213.448 365.321L213.067 365.499H210.438V364.45H212.392C212.762 364.45 213.069 364.384 213.315 364.254C213.561 364.123 213.746 363.946 213.869 363.723C213.992 363.5 214.053 363.25 214.053 362.974C214.053 362.516 213.919 362.151 213.65 361.878C213.384 361.601 212.958 361.463 212.369 361.463H210.795V368.804H209.486V360.407H212.369ZM212.317 365.015H213.696L215.72 368.729V368.804H214.319L212.317 365.015ZM219.376 368.919C218.776 368.919 218.257 368.788 217.819 368.527C217.381 368.262 217.04 367.902 216.798 367.449C216.56 366.991 216.441 366.476 216.441 365.903V365.661C216.441 365 216.566 364.429 216.816 363.948C217.069 363.468 217.408 363.098 217.83 362.841C218.257 362.579 218.722 362.449 219.226 362.449C219.826 362.449 220.318 362.581 220.702 362.847C221.091 363.108 221.379 363.469 221.567 363.931C221.756 364.388 221.85 364.913 221.85 365.505V366.053H217.104V365.107H220.598V365.009C220.587 364.748 220.535 364.5 220.443 364.265C220.354 364.027 220.212 363.833 220.016 363.683C219.82 363.533 219.555 363.458 219.22 363.458C218.909 363.458 218.638 363.546 218.407 363.723C218.18 363.9 218.005 364.154 217.882 364.484C217.759 364.811 217.698 365.203 217.698 365.661V365.903C217.698 366.276 217.767 366.614 217.905 366.918C218.044 367.222 218.244 367.464 218.505 367.645C218.77 367.821 219.086 367.91 219.451 367.91C219.805 367.91 220.11 367.839 220.368 367.696C220.629 367.554 220.856 367.356 221.048 367.103L221.752 367.737C221.556 368.037 221.266 368.31 220.881 368.556C220.497 368.798 219.995 368.919 219.376 368.919ZM225.546 368.919C224.912 368.919 224.387 368.777 223.972 368.492C223.557 368.208 223.245 367.829 223.038 367.356C222.834 366.88 222.732 366.359 222.732 365.793V365.574C222.732 365.005 222.836 364.484 223.044 364.012C223.251 363.539 223.563 363.16 223.978 362.876C224.393 362.591 224.914 362.449 225.541 362.449C226.037 362.449 226.471 362.549 226.844 362.749C227.221 362.945 227.515 363.218 227.726 363.568C227.938 363.914 228.051 364.311 228.066 364.761H226.878C226.863 364.523 226.8 364.306 226.688 364.11C226.577 363.91 226.423 363.752 226.227 363.637C226.031 363.518 225.8 363.458 225.535 363.458C225.135 363.458 224.822 363.562 224.595 363.769C224.372 363.977 224.214 364.242 224.122 364.565C224.034 364.888 223.989 365.224 223.989 365.574V365.793C223.989 366.143 224.034 366.482 224.122 366.808C224.21 367.131 224.366 367.397 224.589 367.604C224.816 367.808 225.131 367.91 225.535 367.91C225.773 367.91 225.99 367.862 226.186 367.766C226.386 367.666 226.548 367.531 226.671 367.362C226.794 367.189 226.863 366.993 226.878 366.774H228.066C228.051 367.166 227.928 367.525 227.697 367.852C227.467 368.175 227.163 368.435 226.786 368.631C226.413 368.823 226 368.919 225.546 368.919ZM232.772 364.559C232.772 364.21 232.672 363.933 232.472 363.729C232.276 363.521 231.98 363.418 231.584 363.418C231.342 363.418 231.13 363.46 230.95 363.544C230.769 363.625 230.629 363.735 230.529 363.873C230.429 364.012 230.379 364.165 230.379 364.334H229.122C229.122 364.015 229.226 363.714 229.433 363.429C229.641 363.141 229.935 362.906 230.315 362.726C230.696 362.541 231.142 362.449 231.653 362.449C232.115 362.449 232.524 362.528 232.882 362.685C233.243 362.839 233.526 363.074 233.729 363.389C233.933 363.704 234.035 364.098 234.035 364.571V367.397C234.035 367.647 234.054 367.887 234.093 368.117C234.131 368.344 234.187 368.542 234.26 368.711V368.804H232.968C232.907 368.665 232.859 368.487 232.824 368.267C232.789 368.044 232.772 367.831 232.772 367.627V364.559ZM232.968 365.828H231.959C231.401 365.828 230.977 365.924 230.685 366.116C230.392 366.305 230.246 366.574 230.246 366.924C230.246 367.197 230.338 367.425 230.523 367.61C230.708 367.795 230.973 367.887 231.319 367.887C231.623 367.887 231.89 367.825 232.12 367.702C232.351 367.575 232.532 367.42 232.662 367.235C232.793 367.051 232.862 366.874 232.87 366.705L233.331 367.281C233.293 367.443 233.216 367.618 233.101 367.806C232.989 367.991 232.839 368.167 232.651 368.337C232.463 368.506 232.24 368.646 231.982 368.758C231.724 368.865 231.43 368.919 231.1 368.919C230.685 368.919 230.317 368.838 229.998 368.677C229.683 368.515 229.435 368.294 229.254 368.014C229.078 367.729 228.989 367.414 228.989 367.068C228.989 366.399 229.239 365.89 229.739 365.54C230.242 365.186 230.936 365.009 231.821 365.009H232.968V365.828ZM236.936 368.804H235.678V359.946H236.936V368.804ZM239.888 368.804H238.631V359.946H239.888V368.804ZM243.815 368.919C243.254 368.919 242.779 368.819 242.391 368.619C242.007 368.419 241.714 368.164 241.514 367.852C241.314 367.537 241.215 367.206 241.215 366.86H242.449C242.464 367.129 242.541 367.345 242.679 367.506C242.818 367.668 242.989 367.783 243.193 367.852C243.4 367.921 243.61 367.956 243.821 367.956C244.09 367.956 244.315 367.921 244.496 367.852C244.677 367.779 244.813 367.681 244.905 367.558C245.001 367.431 245.049 367.287 245.049 367.126C245.049 366.983 245.015 366.853 244.946 366.733C244.88 366.61 244.748 366.499 244.548 366.399C244.352 366.299 244.058 366.209 243.665 366.128C243.216 366.036 242.822 365.915 242.483 365.765C242.149 365.611 241.889 365.417 241.705 365.182C241.52 364.944 241.428 364.652 241.428 364.306C241.428 363.971 241.524 363.664 241.716 363.383C241.908 363.102 242.181 362.877 242.535 362.708C242.893 362.535 243.312 362.449 243.792 362.449C244.304 362.449 244.742 362.537 245.107 362.714C245.476 362.887 245.757 363.122 245.949 363.418C246.145 363.714 246.243 364.046 246.243 364.415H244.986C244.986 364.161 244.884 363.931 244.68 363.723C244.477 363.516 244.181 363.412 243.792 363.412C243.531 363.412 243.316 363.452 243.146 363.533C242.981 363.614 242.858 363.719 242.777 363.85C242.7 363.977 242.662 364.113 242.662 364.26C242.662 364.402 242.7 364.527 242.777 364.634C242.854 364.738 242.989 364.832 243.181 364.917C243.377 364.998 243.656 365.078 244.017 365.159C244.509 365.267 244.924 365.399 245.263 365.557C245.601 365.711 245.857 365.909 246.03 366.151C246.207 366.393 246.295 366.695 246.295 367.056C246.295 367.418 246.191 367.741 245.984 368.025C245.78 368.306 245.492 368.525 245.119 368.683C244.75 368.84 244.315 368.919 243.815 368.919Z" fill="#374151"/>
<path d="M281.232 362.008V364.539M281.232 369.6H281.245M292.137 358.191C288.136 358.404 284.214 357.021 281.232 354.345C278.25 357.021 274.328 358.404 270.327 358.191C270.005 359.438 269.843 360.72 269.844 362.008C269.844 369.083 274.683 375.029 281.232 376.714C287.782 375.029 292.621 369.084 292.621 362.008C292.621 360.689 292.452 359.411 292.137 358.191Z" stroke="#FF3B27" stroke-width="1.68718" stroke-linecap="round" stroke-linejoin="round"/>
<path d="M304.652 368.804H303.291L306.474 360.407H307.328L307.282 361.376L304.652 368.804ZM306.837 361.376L306.786 360.407H307.639L310.834 368.804H309.473L306.837 361.376ZM309.358 366.751H304.71V365.69H309.358V366.751ZM315.436 362.564H316.693V368.804H315.505L315.436 367.345V362.564ZM316.099 366.024C316.099 366.582 316.018 367.078 315.857 367.512C315.695 367.946 315.438 368.29 315.084 368.544C314.73 368.794 314.265 368.919 313.688 368.919C313.073 368.919 312.575 368.738 312.195 368.377C311.818 368.016 311.63 367.422 311.63 366.595V362.564H312.893V366.607C312.893 366.937 312.941 367.197 313.037 367.385C313.137 367.57 313.267 367.698 313.429 367.771C313.594 367.845 313.769 367.881 313.954 367.881C314.373 367.881 314.705 367.8 314.951 367.639C315.197 367.474 315.372 367.251 315.476 366.97C315.584 366.689 315.637 366.378 315.637 366.036L316.099 366.024ZM320.389 368.919C319.893 368.919 319.461 368.783 319.092 368.51C318.727 368.233 318.442 367.856 318.238 367.379C318.038 366.903 317.938 366.361 317.938 365.753V365.632C317.938 364.998 318.038 364.442 318.238 363.965C318.442 363.485 318.727 363.112 319.092 362.847C319.461 362.581 319.897 362.449 320.401 362.449C320.916 362.449 321.345 362.574 321.687 362.824C322.033 363.074 322.304 363.425 322.5 363.879C322.696 364.329 322.825 364.859 322.886 365.471V365.932C322.825 366.528 322.696 367.051 322.5 367.5C322.308 367.946 322.039 368.294 321.693 368.544C321.347 368.794 320.912 368.919 320.389 368.919ZM320.706 367.881C321.037 367.881 321.31 367.81 321.525 367.668C321.741 367.522 321.91 367.329 322.033 367.091C322.16 366.853 322.254 366.587 322.315 366.295V365.113C322.281 364.89 322.223 364.681 322.142 364.484C322.065 364.288 321.964 364.115 321.837 363.965C321.71 363.815 321.554 363.698 321.37 363.614C321.185 363.525 320.968 363.481 320.718 363.481C320.357 363.481 320.064 363.579 319.841 363.775C319.618 363.967 319.455 364.227 319.351 364.554C319.247 364.88 319.196 365.24 319.196 365.632V365.753C319.196 366.145 319.247 366.503 319.351 366.826C319.455 367.145 319.617 367.4 319.836 367.593C320.059 367.785 320.349 367.881 320.706 367.881ZM322.171 368.804L322.056 367.547V359.946H323.319V368.804H322.171ZM325.608 360.234C325.843 360.234 326.023 360.302 326.15 360.436C326.277 360.567 326.341 360.728 326.341 360.921C326.341 361.113 326.277 361.274 326.15 361.405C326.023 361.536 325.843 361.601 325.608 361.601C325.377 361.601 325.199 361.536 325.072 361.405C324.949 361.274 324.887 361.113 324.887 360.921C324.887 360.728 324.949 360.567 325.072 360.436C325.199 360.302 325.377 360.234 325.608 360.234ZM326.243 368.804H324.985V362.564H326.243V368.804ZM330.637 363.498H327.171V362.564H330.637V363.498ZM329.501 361.042V367.149C329.501 367.352 329.53 367.506 329.587 367.61C329.649 367.714 329.729 367.783 329.829 367.818C329.933 367.852 330.047 367.87 330.17 367.87C330.262 367.87 330.354 367.864 330.446 367.852C330.543 367.837 330.616 367.823 330.666 367.812V368.792C330.562 368.827 330.439 368.856 330.297 368.879C330.154 368.906 329.985 368.919 329.789 368.919C329.497 368.919 329.234 368.865 328.999 368.758C328.764 368.646 328.58 368.465 328.445 368.216C328.311 367.962 328.244 367.623 328.244 367.201V361.042H329.501ZM340.302 368.804H335.867V367.754H340.302V368.804ZM336.184 368.804H334.875V360.407H336.184V368.804ZM339.714 364.992H335.867V363.954H339.714V364.992ZM340.256 361.463H335.867V360.407H340.256V361.463ZM343.6 364.715L344.875 362.564H346.293L344.333 365.638L346.357 368.804H344.95L343.612 366.572L342.286 368.804H340.861L342.891 365.638L340.93 362.564H342.343L343.6 364.715ZM350.284 368.919C349.888 368.919 349.54 368.85 349.24 368.711C348.944 368.573 348.694 368.375 348.491 368.117C348.287 367.86 348.123 367.554 348 367.201C347.877 366.843 347.791 366.447 347.741 366.013V365.465C347.806 364.854 347.939 364.323 348.139 363.873C348.339 363.423 348.614 363.074 348.963 362.824C349.313 362.574 349.748 362.449 350.267 362.449C350.793 362.449 351.237 362.581 351.599 362.847C351.96 363.112 352.233 363.483 352.418 363.96C352.606 364.436 352.7 364.992 352.7 365.626V365.747C352.7 366.355 352.606 366.897 352.418 367.374C352.233 367.85 351.96 368.227 351.599 368.504C351.241 368.781 350.803 368.919 350.284 368.919ZM347.32 371.203V362.564H348.473L348.577 363.764V371.203H347.32ZM349.921 367.91C350.278 367.91 350.568 367.812 350.791 367.616C351.018 367.416 351.184 367.153 351.287 366.826C351.391 366.499 351.443 366.139 351.443 365.747V365.626C351.443 365.234 351.389 364.877 351.282 364.554C351.178 364.227 351.013 363.967 350.786 363.775C350.559 363.579 350.267 363.481 349.909 363.481C349.655 363.481 349.436 363.525 349.252 363.614C349.071 363.698 348.917 363.815 348.79 363.965C348.664 364.112 348.562 364.283 348.485 364.479C348.408 364.675 348.352 364.884 348.318 365.107V366.376C348.379 366.649 348.469 366.903 348.589 367.137C348.712 367.368 348.881 367.554 349.096 367.696C349.311 367.839 349.586 367.91 349.921 367.91ZM353.692 365.62C353.692 365.017 353.807 364.477 354.038 364C354.269 363.523 354.597 363.147 355.024 362.87C355.455 362.589 355.966 362.449 356.558 362.449C357.162 362.449 357.679 362.589 358.109 362.87C358.54 363.147 358.869 363.523 359.096 364C359.326 364.477 359.442 365.017 359.442 365.62V365.753C359.442 366.353 359.326 366.893 359.096 367.374C358.869 367.85 358.54 368.227 358.109 368.504C357.683 368.781 357.169 368.919 356.57 368.919C355.974 368.919 355.461 368.781 355.03 368.504C354.599 368.227 354.269 367.85 354.038 367.374C353.807 366.893 353.692 366.353 353.692 365.753V365.62ZM354.955 365.753C354.955 366.141 355.013 366.499 355.128 366.826C355.243 367.153 355.42 367.416 355.659 367.616C355.897 367.812 356.201 367.91 356.57 367.91C356.939 367.91 357.243 367.812 357.481 367.616C357.719 367.416 357.896 367.153 358.011 366.826C358.127 366.499 358.184 366.141 358.184 365.753V365.62C358.184 365.236 358.127 364.88 358.011 364.554C357.896 364.223 357.717 363.958 357.475 363.758C357.237 363.558 356.931 363.458 356.558 363.458C356.197 363.458 355.895 363.558 355.653 363.758C355.414 363.958 355.238 364.223 355.122 364.554C355.011 364.88 354.955 365.236 354.955 365.62V365.753ZM363.011 368.919C362.45 368.919 361.975 368.819 361.587 368.619C361.202 368.419 360.91 368.164 360.71 367.852C360.51 367.537 360.41 367.206 360.41 366.86H361.644C361.66 367.129 361.737 367.345 361.875 367.506C362.014 367.668 362.185 367.783 362.388 367.852C362.596 367.921 362.805 367.956 363.017 367.956C363.286 367.956 363.511 367.921 363.692 367.852C363.872 367.779 364.009 367.681 364.101 367.558C364.197 367.431 364.245 367.287 364.245 367.126C364.245 366.983 364.211 366.853 364.141 366.733C364.076 366.61 363.943 366.499 363.744 366.399C363.547 366.299 363.253 366.209 362.861 366.128C362.411 366.036 362.017 365.915 361.679 365.765C361.345 365.611 361.085 365.417 360.901 365.182C360.716 364.944 360.624 364.652 360.624 364.306C360.624 363.971 360.72 363.664 360.912 363.383C361.104 363.102 361.377 362.877 361.731 362.708C362.088 362.535 362.508 362.449 362.988 362.449C363.499 362.449 363.938 362.537 364.303 362.714C364.672 362.887 364.953 363.122 365.145 363.418C365.341 363.714 365.439 364.046 365.439 364.415H364.182C364.182 364.161 364.08 363.931 363.876 363.723C363.672 363.516 363.376 363.412 362.988 363.412C362.727 363.412 362.511 363.452 362.342 363.533C362.177 363.614 362.054 363.719 361.973 363.85C361.896 363.977 361.858 364.113 361.858 364.26C361.858 364.402 361.896 364.527 361.973 364.634C362.05 364.738 362.185 364.832 362.377 364.917C362.573 364.998 362.852 365.078 363.213 365.159C363.705 365.267 364.12 365.399 364.459 365.557C364.797 365.711 365.053 365.909 365.226 366.151C365.402 366.393 365.491 366.695 365.491 367.056C365.491 367.418 365.387 367.741 365.179 368.025C364.976 368.306 364.687 368.525 364.314 368.683C363.945 368.84 363.511 368.919 363.011 368.919ZM370.554 362.564H371.811V368.804H370.623L370.554 367.345V362.564ZM371.217 366.024C371.217 366.582 371.136 367.078 370.975 367.512C370.814 367.946 370.556 368.29 370.202 368.544C369.849 368.794 369.383 368.919 368.807 368.919C368.192 368.919 367.694 368.738 367.313 368.377C366.936 368.016 366.748 367.422 366.748 366.595V362.564H368.011V366.607C368.011 366.937 368.059 367.197 368.155 367.385C368.255 367.57 368.386 367.698 368.547 367.771C368.713 367.845 368.887 367.881 369.072 367.881C369.491 367.881 369.824 367.8 370.07 367.639C370.316 367.474 370.491 367.251 370.594 366.97C370.702 366.689 370.756 366.378 370.756 366.036L371.217 366.024ZM374.573 368.804H373.316V362.564H374.527L374.573 363.666V368.804ZM376.488 363.7C376.396 363.685 376.305 363.673 376.217 363.666C376.129 363.658 376.036 363.654 375.94 363.654C375.617 363.654 375.346 363.717 375.127 363.844C374.912 363.967 374.746 364.14 374.631 364.363C374.516 364.582 374.447 364.84 374.424 365.136L374.106 365.223C374.106 364.707 374.174 364.24 374.308 363.821C374.447 363.402 374.656 363.07 374.937 362.824C375.217 362.574 375.575 362.449 376.009 362.449C376.086 362.449 376.175 362.456 376.275 362.472C376.375 362.487 376.448 362.506 376.494 362.53L376.488 363.7ZM380.092 368.919C379.492 368.919 378.973 368.788 378.535 368.527C378.097 368.262 377.757 367.902 377.514 367.449C377.276 366.991 377.157 366.476 377.157 365.903V365.661C377.157 365 377.282 364.429 377.532 363.948C377.786 363.468 378.124 363.098 378.547 362.841C378.973 362.579 379.439 362.449 379.942 362.449C380.542 362.449 381.034 362.581 381.419 362.847C381.807 363.108 382.095 363.469 382.284 363.931C382.472 364.388 382.566 364.913 382.566 365.505V366.053H377.82V365.107H381.315V365.009C381.303 364.748 381.251 364.5 381.159 364.265C381.071 364.027 380.928 363.833 380.732 363.683C380.536 363.533 380.271 363.458 379.936 363.458C379.625 363.458 379.354 363.546 379.123 363.723C378.897 363.9 378.722 364.154 378.599 364.484C378.476 364.811 378.414 365.203 378.414 365.661V365.903C378.414 366.276 378.483 366.614 378.622 366.918C378.76 367.222 378.96 367.464 379.221 367.645C379.487 367.821 379.802 367.91 380.167 367.91C380.521 367.91 380.826 367.839 381.084 367.696C381.345 367.554 381.572 367.356 381.765 367.103L382.468 367.737C382.272 368.037 381.982 368.31 381.597 368.556C381.213 368.798 380.711 368.919 380.092 368.919Z" fill="#374151"/>
<path d="M52.1309 100.287V99.6836H50.9238V100.287H51.5273H52.1309ZM182.319 180.474C182.554 180.71 182.936 180.71 183.172 180.474L187.013 176.633C187.249 176.397 187.249 176.015 187.013 175.78C186.777 175.544 186.395 175.544 186.159 175.78L182.745 179.194L179.331 175.78C179.096 175.544 178.714 175.544 178.478 175.78C178.242 176.015 178.242 176.397 178.478 176.633L182.319 180.474ZM50.9238 103.06V103.664H52.1309V103.06H51.5273H50.9238ZM52.1309 108.606V108.003H50.9238V108.606H51.5273H52.1309ZM50.9238 114.152V114.756H52.1309V114.152H51.5273H50.9238ZM52.1309 119.698V119.095H50.9238V119.698H51.5273H52.1309ZM50.9238 125.244V125.848H52.1309V125.244H51.5273H50.9238ZM52.1309 130.791V130.187H50.9238V130.791H51.5273H52.1309ZM51.5527 136.735L51.7839 137.293L52.8989 136.83L52.6677 136.273L52.1102 136.504L51.5527 136.735ZM56.4995 140.105L55.9421 139.873L55.4797 140.988L56.0372 141.22L56.2684 140.662L56.4995 140.105ZM61.6223 141.848H62.2259V140.641H61.6223V141.245V141.848ZM66.4497 140.641H65.8461V141.848H66.4497V141.245V140.641ZM71.277 141.848H71.8805V140.641H71.277V141.245V141.848ZM76.1043 140.641H75.5007V141.848H76.1043V141.245V140.641ZM80.9316 141.848H81.5351V140.641H80.9316V141.245V141.848ZM85.7589 140.641H85.1554V141.848H85.7589V141.245V140.641ZM90.5862 141.848H91.1897V140.641H90.5862V141.245V141.848ZM95.4135 140.641H94.81V141.848H95.4135V141.245V140.641ZM100.241 141.848H100.844V140.641H100.241V141.245V141.848ZM105.068 140.641H104.465V141.848H105.068V141.245V140.641ZM109.895 141.848H110.499V140.641H109.895V141.245V141.848ZM114.723 140.641H114.119V141.848H114.723V141.245V140.641ZM119.55 141.848H120.154V140.641H119.55V141.245V141.848ZM124.377 140.641H123.774V141.848H124.377V141.245V140.641ZM129.205 141.848H129.808V140.641H129.205V141.245V141.848ZM134.032 140.641H133.428V141.848H134.032V141.245V140.641ZM138.859 141.848H139.463V140.641H138.859V141.245V141.848ZM143.687 140.641H143.083V141.848H143.687V141.245V140.641ZM148.514 141.848H149.117V140.641H148.514V141.245V141.848ZM153.341 140.641H152.738V141.848H153.341V141.245V140.641ZM158.168 141.848H158.772V140.641H158.168V141.245V141.848ZM162.996 140.641H162.392V141.848H162.996V141.245V140.641ZM167.823 141.848H168.427V140.641H167.823V141.245V141.848ZM172.65 140.641H172.047V141.848H172.65V141.245V140.641ZM177.773 142.385L178.331 142.616L178.793 141.501L178.236 141.27L178.004 141.828L177.773 142.385ZM182.72 145.755L182.489 145.197L181.374 145.66L181.605 146.217L182.163 145.986L182.72 145.755ZM182.142 151.52V152.123H183.349V151.52H182.745H182.142ZM183.349 156.706V156.103H182.142V156.706H182.745H183.349ZM182.142 161.893V162.497H183.349V161.893H182.745H182.142ZM183.349 167.08V166.477H182.142V167.08H182.745H183.349ZM182.142 172.267V172.87H183.349V172.267H182.745H182.142ZM183.349 177.454V176.85H182.142V177.454H182.745H183.349ZM51.5273 100.287H50.9238V103.06H51.5273H52.1309V100.287H51.5273ZM51.5273 108.606H50.9238V114.152H51.5273H52.1309V108.606H51.5273ZM51.5273 119.698H50.9238V125.244H51.5273H52.1309V119.698H51.5273ZM51.5273 130.791H50.9238V133.564H51.5273H52.1309V130.791H51.5273ZM51.5273 133.564H50.9238C50.9238 134.686 51.1473 135.757 51.5527 136.735L52.1102 136.504L52.6677 136.273C52.322 135.439 52.1309 134.524 52.1309 133.564H51.5273ZM56.2684 140.662L56.0372 141.22C57.0149 141.625 58.0864 141.848 59.2087 141.848V141.245V140.641C58.2479 140.641 57.3332 140.45 56.4995 140.105L56.2684 140.662ZM59.2087 141.245V141.848H61.6223V141.245V140.641H59.2087V141.245ZM66.4497 141.245V141.848H71.277V141.245V140.641H66.4497V141.245ZM76.1043 141.245V141.848H80.9316V141.245V140.641H76.1043V141.245ZM85.7589 141.245V141.848H90.5862V141.245V140.641H85.7589V141.245ZM95.4135 141.245V141.848H100.241V141.245V140.641H95.4135V141.245ZM105.068 141.245V141.848H109.895V141.245V140.641H105.068V141.245ZM114.723 141.245V141.848H119.55V141.245V140.641H114.723V141.245ZM124.377 141.245V141.848H129.205V141.245V140.641H124.377V141.245ZM134.032 141.245V141.848H138.859V141.245V140.641H134.032V141.245ZM143.687 141.245V141.848H148.514V141.245V140.641H143.687V141.245ZM153.341 141.245V141.848H158.168V141.245V140.641H153.341V141.245ZM162.996 141.245V141.848H167.823V141.245V140.641H162.996V141.245ZM172.65 141.245V141.848H175.064V141.245V140.641H172.65V141.245ZM175.064 141.245V141.848C176.025 141.848 176.939 142.04 177.773 142.385L178.004 141.828L178.236 141.27C177.258 140.865 176.186 140.641 175.064 140.641V141.245ZM182.163 145.986L181.605 146.217C181.951 147.051 182.142 147.965 182.142 148.926H182.745H183.349C183.349 147.804 183.125 146.732 182.72 145.755L182.163 145.986ZM182.745 148.926H182.142V151.52H182.745H183.349V148.926H182.745ZM182.745 156.706H182.142V161.893H182.745H183.349V156.706H182.745ZM182.745 167.08H182.142V172.267H182.745H183.349V167.08H182.745ZM182.745 177.454H182.142V180.047H182.745H183.349V177.454H182.745Z" fill="#FF8A7B"/>
<path d="M354.525 100.287V99.6836H355.732V100.287H355.129H354.525ZM224.338 180.474C224.102 180.71 223.72 180.71 223.484 180.474L219.643 176.633C219.408 176.397 219.408 176.015 219.643 175.78C219.879 175.544 220.261 175.544 220.497 175.78L223.911 179.194L227.325 175.78C227.561 175.544 227.943 175.544 228.178 175.78C228.414 176.015 228.414 176.397 228.178 176.633L224.338 180.474ZM355.732 103.06V103.664H354.525V103.06H355.129H355.732ZM354.525 108.606V108.003H355.732V108.606H355.129H354.525ZM355.732 114.152V114.756H354.525V114.152H355.129H355.732ZM354.525 119.698V119.095H355.732V119.698H355.129H354.525ZM355.732 125.244V125.848H354.525V125.244H355.129H355.732ZM354.525 130.791V130.187H355.732V130.791H355.129H354.525ZM355.104 136.735L354.872 137.293L353.757 136.83L353.989 136.273L354.546 136.504L355.104 136.735ZM350.157 140.105L350.714 139.873L351.177 140.988L350.619 141.22L350.388 140.662L350.157 140.105ZM345.034 141.848H344.43V140.641H345.034V141.245V141.848ZM340.207 140.641H340.81V141.848H340.207V141.245V140.641ZM335.379 141.848H334.776V140.641H335.379V141.245V141.848ZM330.552 140.641H331.156V141.848H330.552V141.245V140.641ZM325.725 141.848H325.121V140.641H325.725V141.245V141.848ZM320.897 140.641H321.501V141.848H320.897V141.245V140.641ZM316.07 141.848H315.467V140.641H316.07V141.245V141.848ZM311.243 140.641H311.846V141.848H311.243V141.245V140.641ZM306.415 141.848H305.812V140.641H306.415V141.245V141.848ZM301.588 140.641H302.192V141.848H301.588V141.245V140.641ZM296.761 141.848H296.157V140.641H296.761V141.245V141.848ZM291.934 140.641H292.537V141.848H291.934V141.245V140.641ZM287.106 141.848H286.503V140.641H287.106V141.245V141.848ZM282.279 140.641H282.882V141.848H282.279V141.245V140.641ZM277.452 141.848H276.848V140.641H277.452V141.245V141.848ZM272.624 140.641H273.228V141.848H272.624V141.245V140.641ZM267.797 141.848H267.193V140.641H267.797V141.245V141.848ZM262.97 140.641H263.573V141.848H262.97V141.245V140.641ZM258.142 141.848H257.539V140.641H258.142V141.245V141.848ZM253.315 140.641H253.919V141.848H253.315V141.245V140.641ZM248.488 141.848H247.884V140.641H248.488V141.245V141.848ZM243.66 140.641H244.264V141.848H243.66V141.245V140.641ZM238.833 141.848H238.23V140.641H238.833V141.245V141.848ZM234.006 140.641H234.609V141.848H234.006V141.245V140.641ZM228.883 142.385L228.326 142.616L227.863 141.501L228.421 141.27L228.652 141.828L228.883 142.385ZM223.936 145.755L224.167 145.197L225.282 145.66L225.051 146.217L224.494 145.986L223.936 145.755ZM224.514 151.52V152.123H223.307V151.52H223.911H224.514ZM223.307 156.706V156.103H224.514V156.706H223.911H223.307ZM224.514 161.893V162.497H223.307V161.893H223.911H224.514ZM223.307 167.08V166.477H224.514V167.08H223.911H223.307ZM224.514 172.267V172.87H223.307V172.267H223.911H224.514ZM223.307 177.454V176.85H224.514V177.454H223.911H223.307ZM355.129 100.287H355.732V103.06H355.129H354.525V100.287H355.129ZM355.129 108.606H355.732V114.152H355.129H354.525V108.606H355.129ZM355.129 119.698H355.732V125.244H355.129H354.525V119.698H355.129ZM355.129 130.791H355.732V133.564H355.129H354.525V130.791H355.129ZM355.129 133.564H355.732C355.732 134.686 355.509 135.757 355.104 136.735L354.546 136.504L353.989 136.273C354.334 135.439 354.525 134.524 354.525 133.564H355.129ZM350.388 140.662L350.619 141.22C349.641 141.625 348.57 141.848 347.448 141.848V141.245V140.641C348.408 140.641 349.323 140.45 350.157 140.105L350.388 140.662ZM347.448 141.245V141.848H345.034V141.245V140.641H347.448V141.245ZM340.207 141.245V141.848H335.379V141.245V140.641H340.207V141.245ZM330.552 141.245V141.848H325.725V141.245V140.641H330.552V141.245ZM320.897 141.245V141.848H316.07V141.245V140.641H320.897V141.245ZM311.243 141.245V141.848H306.415V141.245V140.641H311.243V141.245ZM301.588 141.245V141.848H296.761V141.245V140.641H301.588V141.245ZM291.934 141.245V141.848H287.106V141.245V140.641H291.934V141.245ZM282.279 141.245V141.848H277.452V141.245V140.641H282.279V141.245ZM272.624 141.245V141.848H267.797V141.245V140.641H272.624V141.245ZM262.97 141.245V141.848H258.142V141.245V140.641H262.97V141.245ZM253.315 141.245V141.848H248.488V141.245V140.641H253.315V141.245ZM243.66 141.245V141.848H238.833V141.245V140.641H243.66V141.245ZM234.006 141.245V141.848H231.592V141.245V140.641H234.006V141.245ZM231.592 141.245V141.848C230.631 141.848 229.717 142.04 228.883 142.385L228.652 141.828L228.421 141.27C229.398 140.865 230.47 140.641 231.592 140.641V141.245ZM224.494 145.986L225.051 146.217C224.706 147.051 224.514 147.965 224.514 148.926H223.911H223.307C223.307 147.804 223.531 146.732 223.936 145.755L224.494 145.986ZM223.911 148.926H224.514V151.52H223.911H223.307V148.926H223.911ZM223.911 156.706H224.514V161.893H223.911H223.307V156.706H223.911ZM223.911 167.08H224.514V172.267H223.911H223.307V167.08H223.911ZM223.911 177.454H224.514V180.047H223.911H223.307V177.454H223.911Z" fill="#FF8A7B"/>
<path d="M139.44 274.183L143.21 283.938L146.979 274.183H148.754L143.906 286.545H142.505L137.657 274.183H139.44ZM138.582 274.183L138.862 282.155V286.545H136.943V274.183H138.582ZM149.467 274.183V286.545H147.548V282.155L147.828 274.183H149.467ZM157.219 280.296C157.219 279.781 157.072 279.373 156.777 279.073C156.489 278.768 156.053 278.615 155.47 278.615C155.113 278.615 154.802 278.677 154.536 278.802C154.27 278.92 154.063 279.082 153.916 279.285C153.769 279.489 153.695 279.716 153.695 279.965H151.844C151.844 279.495 151.997 279.051 152.303 278.632C152.609 278.207 153.042 277.862 153.602 277.596C154.162 277.324 154.819 277.188 155.572 277.188C156.251 277.188 156.854 277.304 157.38 277.536C157.912 277.763 158.328 278.108 158.628 278.572C158.928 279.036 159.078 279.617 159.078 280.313V284.473C159.078 284.841 159.107 285.195 159.163 285.535C159.22 285.869 159.302 286.16 159.409 286.409V286.545H157.508C157.417 286.341 157.346 286.078 157.295 285.755C157.244 285.427 157.219 285.113 157.219 284.813V280.296ZM157.508 282.164H156.022C155.201 282.164 154.576 282.305 154.145 282.588C153.715 282.866 153.5 283.262 153.5 283.777C153.5 284.179 153.636 284.516 153.908 284.787C154.179 285.059 154.57 285.195 155.079 285.195C155.526 285.195 155.92 285.104 156.26 284.923C156.599 284.736 156.865 284.507 157.058 284.235C157.25 283.964 157.352 283.703 157.363 283.454L158.043 284.303C157.986 284.541 157.873 284.799 157.703 285.076C157.539 285.348 157.318 285.608 157.041 285.857C156.763 286.106 156.435 286.313 156.056 286.477C155.676 286.635 155.243 286.715 154.757 286.715C154.145 286.715 153.605 286.596 153.135 286.358C152.671 286.12 152.306 285.795 152.04 285.382C151.779 284.963 151.649 284.499 151.649 283.989C151.649 283.004 152.017 282.254 152.753 281.739C153.494 281.219 154.516 280.958 155.818 280.958H157.508V282.164ZM163.205 286.545H161.354V277.358H163.094L163.205 279.319V286.545ZM162.16 281.595C162.172 280.735 162.33 279.973 162.636 279.311C162.947 278.649 163.377 278.131 163.926 277.757C164.481 277.378 165.126 277.188 165.862 277.188C166.462 277.188 166.98 277.302 167.416 277.528C167.852 277.749 168.192 278.108 168.435 278.606C168.678 279.099 168.8 279.755 168.8 280.576V286.545H166.941V280.559C166.941 280.106 166.876 279.744 166.745 279.472C166.615 279.201 166.423 279.005 166.168 278.886C165.913 278.768 165.599 278.708 165.226 278.708C164.858 278.708 164.526 278.785 164.232 278.937C163.938 279.09 163.686 279.302 163.476 279.574C163.267 279.84 163.106 280.149 162.993 280.5C162.885 280.845 162.831 281.216 162.831 281.612L162.16 281.595ZM176.569 277.358H178.42V286.545H176.671L176.569 284.397V277.358ZM177.545 282.452C177.545 283.273 177.426 284.003 177.189 284.643C176.951 285.283 176.572 285.789 176.051 286.163C175.53 286.531 174.845 286.715 173.996 286.715C173.091 286.715 172.358 286.449 171.797 285.917C171.243 285.385 170.965 284.51 170.965 283.293V277.358H172.825V283.31C172.825 283.797 172.895 284.179 173.037 284.456C173.184 284.728 173.376 284.918 173.614 285.025C173.858 285.133 174.115 285.186 174.387 285.186C175.004 285.186 175.493 285.068 175.856 284.83C176.218 284.586 176.476 284.258 176.628 283.845C176.787 283.432 176.866 282.973 176.866 282.469L177.545 282.452ZM185.917 280.296C185.917 279.781 185.77 279.373 185.476 279.073C185.187 278.768 184.751 278.615 184.168 278.615C183.811 278.615 183.5 278.677 183.234 278.802C182.968 278.92 182.761 279.082 182.614 279.285C182.467 279.489 182.393 279.716 182.393 279.965H180.542C180.542 279.495 180.695 279.051 181.001 278.632C181.307 278.207 181.74 277.862 182.3 277.596C182.86 277.324 183.517 277.188 184.27 277.188C184.949 277.188 185.552 277.304 186.078 277.536C186.61 277.763 187.026 278.108 187.326 278.572C187.626 279.036 187.776 279.617 187.776 280.313V284.473C187.776 284.841 187.805 285.195 187.861 285.535C187.918 285.869 188 286.16 188.108 286.409V286.545H186.206C186.115 286.341 186.044 286.078 185.993 285.755C185.942 285.427 185.917 285.113 185.917 284.813V280.296ZM186.206 282.164H184.72C183.899 282.164 183.274 282.305 182.843 282.588C182.413 282.866 182.198 283.262 182.198 283.777C182.198 284.179 182.334 284.516 182.606 284.787C182.877 285.059 183.268 285.195 183.777 285.195C184.225 285.195 184.618 285.104 184.958 284.923C185.297 284.736 185.563 284.507 185.756 284.235C185.948 283.964 186.05 283.703 186.061 283.454L186.741 284.303C186.684 284.541 186.571 284.799 186.401 285.076C186.237 285.348 186.016 285.608 185.739 285.857C185.461 286.106 185.133 286.313 184.754 286.477C184.375 286.635 183.942 286.715 183.455 286.715C182.843 286.715 182.303 286.596 181.833 286.358C181.369 286.12 181.004 285.795 180.738 285.382C180.477 284.963 180.347 284.499 180.347 283.989C180.347 283.004 180.715 282.254 181.451 281.739C182.192 281.219 183.214 280.958 184.516 280.958H186.206V282.164ZM192.047 286.545H190.196V273.503H192.047V286.545ZM203.204 274.183C204.143 274.183 204.942 274.324 205.598 274.607C206.255 274.89 206.756 275.309 207.101 275.864C207.446 276.413 207.619 277.092 207.619 277.902C207.619 278.496 207.503 279.028 207.271 279.498C207.044 279.962 206.719 280.358 206.294 280.686C205.875 281.009 205.375 281.252 204.792 281.417L204.231 281.68H200.359V280.135H203.238C203.781 280.135 204.234 280.038 204.596 279.846C204.958 279.653 205.23 279.393 205.411 279.065C205.592 278.736 205.683 278.369 205.683 277.961C205.683 277.287 205.485 276.75 205.089 276.348C204.698 275.94 204.07 275.736 203.204 275.736H200.886V286.545H198.959V274.183H203.204ZM203.127 280.967H205.157L208.137 286.435V286.545H206.074L203.127 280.967ZM213.52 286.715C212.637 286.715 211.873 286.522 211.227 286.137C210.582 285.747 210.081 285.218 209.725 284.55C209.374 283.876 209.198 283.118 209.198 282.274V281.918C209.198 280.944 209.382 280.103 209.75 279.396C210.124 278.688 210.622 278.145 211.244 277.766C211.873 277.381 212.558 277.188 213.299 277.188C214.182 277.188 214.907 277.384 215.473 277.774C216.044 278.159 216.469 278.691 216.746 279.37C217.024 280.044 217.162 280.817 217.162 281.688V282.495H210.175V281.102H215.32V280.958C215.303 280.573 215.226 280.208 215.091 279.863C214.96 279.512 214.751 279.226 214.462 279.005C214.174 278.785 213.783 278.674 213.291 278.674C212.832 278.674 212.433 278.804 212.093 279.065C211.759 279.325 211.502 279.699 211.321 280.185C211.14 280.667 211.049 281.244 211.049 281.918V282.274C211.049 282.823 211.151 283.321 211.355 283.769C211.558 284.216 211.853 284.572 212.238 284.838C212.628 285.099 213.092 285.229 213.63 285.229C214.151 285.229 214.601 285.124 214.98 284.915C215.365 284.705 215.699 284.414 215.982 284.04L217.018 284.974C216.729 285.416 216.302 285.818 215.736 286.18C215.17 286.536 214.431 286.715 213.52 286.715ZM222.282 286.715C221.456 286.715 220.757 286.568 220.185 286.273C219.619 285.979 219.189 285.602 218.894 285.144C218.6 284.68 218.453 284.193 218.453 283.684H220.27C220.292 284.08 220.406 284.397 220.609 284.635C220.813 284.872 221.065 285.042 221.365 285.144C221.671 285.246 221.979 285.297 222.291 285.297C222.687 285.297 223.018 285.246 223.284 285.144C223.55 285.036 223.751 284.892 223.887 284.711C224.028 284.524 224.099 284.312 224.099 284.074C224.099 283.865 224.048 283.672 223.946 283.497C223.85 283.316 223.655 283.152 223.36 283.004C223.072 282.857 222.639 282.724 222.061 282.605C221.399 282.469 220.819 282.291 220.321 282.07C219.828 281.844 219.446 281.558 219.175 281.213C218.903 280.862 218.767 280.432 218.767 279.922C218.767 279.43 218.908 278.977 219.191 278.564C219.475 278.151 219.876 277.819 220.397 277.57C220.924 277.316 221.541 277.188 222.248 277.188C223.001 277.188 223.646 277.319 224.184 277.579C224.727 277.834 225.141 278.179 225.424 278.615C225.712 279.051 225.857 279.54 225.857 280.084H224.006C224.006 279.71 223.856 279.37 223.556 279.065C223.256 278.759 222.82 278.606 222.248 278.606C221.863 278.606 221.546 278.666 221.297 278.785C221.054 278.903 220.873 279.059 220.754 279.252C220.641 279.438 220.584 279.639 220.584 279.854C220.584 280.064 220.641 280.248 220.754 280.406C220.867 280.559 221.065 280.698 221.348 280.822C221.637 280.941 222.047 281.06 222.579 281.179C223.304 281.337 223.915 281.533 224.413 281.765C224.911 281.991 225.288 282.283 225.542 282.639C225.803 282.996 225.933 283.44 225.933 283.972C225.933 284.504 225.78 284.98 225.475 285.399C225.175 285.812 224.75 286.135 224.201 286.367C223.658 286.599 223.018 286.715 222.282 286.715ZM232.191 286.715C231.608 286.715 231.095 286.613 230.654 286.409C230.218 286.205 229.85 285.914 229.55 285.535C229.25 285.155 229.009 284.705 228.828 284.185C228.647 283.658 228.52 283.075 228.446 282.435V281.629C228.542 280.729 228.738 279.948 229.032 279.285C229.326 278.623 229.731 278.108 230.246 277.74C230.761 277.372 231.401 277.188 232.165 277.188C232.941 277.188 233.594 277.384 234.126 277.774C234.658 278.165 235.06 278.711 235.332 279.413C235.609 280.115 235.748 280.933 235.748 281.867V282.045C235.748 282.939 235.609 283.737 235.332 284.439C235.06 285.141 234.658 285.696 234.126 286.103C233.6 286.511 232.955 286.715 232.191 286.715ZM227.826 290.077V277.358H229.525L229.677 279.124V290.077H227.826ZM231.656 285.229C232.182 285.229 232.609 285.085 232.938 284.796C233.272 284.502 233.515 284.114 233.668 283.633C233.821 283.152 233.897 282.622 233.897 282.045V281.867C233.897 281.289 233.818 280.763 233.659 280.287C233.507 279.806 233.263 279.424 232.929 279.141C232.595 278.852 232.165 278.708 231.639 278.708C231.265 278.708 230.942 278.773 230.671 278.903C230.405 279.028 230.178 279.201 229.991 279.421C229.805 279.636 229.655 279.888 229.541 280.177C229.428 280.466 229.346 280.774 229.295 281.102V282.97C229.386 283.372 229.519 283.746 229.694 284.091C229.875 284.431 230.124 284.705 230.441 284.915C230.758 285.124 231.163 285.229 231.656 285.229ZM237.208 281.858C237.208 280.969 237.378 280.174 237.718 279.472C238.058 278.77 238.541 278.216 239.17 277.808C239.804 277.395 240.557 277.188 241.428 277.188C242.317 277.188 243.078 277.395 243.712 277.808C244.346 278.216 244.83 278.77 245.164 279.472C245.504 280.174 245.674 280.969 245.674 281.858V282.053C245.674 282.936 245.504 283.732 245.164 284.439C244.83 285.141 244.346 285.696 243.712 286.103C243.084 286.511 242.328 286.715 241.445 286.715C240.568 286.715 239.812 286.511 239.178 286.103C238.544 285.696 238.058 285.141 237.718 284.439C237.378 283.732 237.208 282.936 237.208 282.053V281.858ZM239.068 282.053C239.068 282.625 239.153 283.152 239.323 283.633C239.492 284.114 239.753 284.502 240.104 284.796C240.455 285.085 240.902 285.229 241.445 285.229C241.989 285.229 242.436 285.085 242.787 284.796C243.138 284.502 243.398 284.114 243.568 283.633C243.738 283.152 243.823 282.625 243.823 282.053V281.858C243.823 281.292 243.738 280.769 243.568 280.287C243.398 279.801 243.135 279.41 242.778 279.116C242.427 278.821 241.977 278.674 241.428 278.674C240.896 278.674 240.452 278.821 240.095 279.116C239.744 279.41 239.484 279.801 239.314 280.287C239.15 280.769 239.068 281.292 239.068 281.858V282.053ZM249.35 286.545H247.499V277.358H249.24L249.35 279.319V286.545ZM248.306 281.595C248.317 280.735 248.475 279.973 248.781 279.311C249.092 278.649 249.523 278.131 250.072 277.757C250.626 277.378 251.272 277.188 252.007 277.188C252.607 277.188 253.125 277.302 253.561 277.528C253.997 277.749 254.337 278.108 254.58 278.606C254.824 279.099 254.945 279.755 254.945 280.576V286.545H253.086V280.559C253.086 280.106 253.021 279.744 252.891 279.472C252.76 279.201 252.568 279.005 252.313 278.886C252.058 278.768 251.744 278.708 251.371 278.708C251.003 278.708 250.672 278.785 250.377 278.937C250.083 279.09 249.831 279.302 249.622 279.574C249.412 279.84 249.251 280.149 249.138 280.5C249.03 280.845 248.976 281.216 248.976 281.612L248.306 281.595ZM260.574 286.715C259.748 286.715 259.049 286.568 258.477 286.273C257.911 285.979 257.481 285.602 257.187 285.144C256.892 284.68 256.745 284.193 256.745 283.684H258.562C258.585 284.08 258.698 284.397 258.902 284.635C259.106 284.872 259.357 285.042 259.657 285.144C259.963 285.246 260.272 285.297 260.583 285.297C260.979 285.297 261.31 285.246 261.576 285.144C261.842 285.036 262.043 284.892 262.179 284.711C262.321 284.524 262.391 284.312 262.391 284.074C262.391 283.865 262.34 283.672 262.239 283.497C262.142 283.316 261.947 283.152 261.653 283.004C261.364 282.857 260.931 282.724 260.354 282.605C259.691 282.469 259.111 282.291 258.613 282.07C258.121 281.844 257.739 281.558 257.467 281.213C257.195 280.862 257.059 280.432 257.059 279.922C257.059 279.43 257.201 278.977 257.484 278.564C257.767 278.151 258.169 277.819 258.69 277.57C259.216 277.316 259.833 277.188 260.54 277.188C261.293 277.188 261.939 277.319 262.476 277.579C263.02 277.834 263.433 278.179 263.716 278.615C264.005 279.051 264.149 279.54 264.149 280.084H262.298C262.298 279.71 262.148 279.37 261.848 279.065C261.548 278.759 261.112 278.606 260.54 278.606C260.156 278.606 259.839 278.666 259.59 278.785C259.346 278.903 259.165 279.059 259.046 279.252C258.933 279.438 258.876 279.639 258.876 279.854C258.876 280.064 258.933 280.248 259.046 280.406C259.159 280.559 259.357 280.698 259.64 280.822C259.929 280.941 260.34 281.06 260.872 281.179C261.596 281.337 262.207 281.533 262.706 281.765C263.204 281.991 263.58 282.283 263.835 282.639C264.095 282.996 264.225 283.44 264.225 283.972C264.225 284.504 264.073 284.98 263.767 285.399C263.467 285.812 263.042 286.135 262.493 286.367C261.95 286.599 261.31 286.715 260.574 286.715ZM270.067 286.715C269.184 286.715 268.42 286.522 267.774 286.137C267.129 285.747 266.628 285.218 266.272 284.55C265.921 283.876 265.745 283.118 265.745 282.274V281.918C265.745 280.944 265.929 280.103 266.297 279.396C266.671 278.688 267.169 278.145 267.791 277.766C268.42 277.381 269.105 277.188 269.846 277.188C270.729 277.188 271.454 277.384 272.02 277.774C272.591 278.159 273.016 278.691 273.293 279.37C273.571 280.044 273.709 280.817 273.709 281.688V282.495H266.722V281.102H271.867V280.958C271.85 280.573 271.774 280.208 271.638 279.863C271.507 279.512 271.298 279.226 271.009 279.005C270.721 278.785 270.33 278.674 269.838 278.674C269.379 278.674 268.98 278.804 268.64 279.065C268.307 279.325 268.049 279.699 267.868 280.185C267.687 280.667 267.596 281.244 267.596 281.918V282.274C267.596 282.823 267.698 283.321 267.902 283.769C268.106 284.216 268.4 284.572 268.785 284.838C269.175 285.099 269.64 285.229 270.177 285.229C270.698 285.229 271.148 285.124 271.527 284.915C271.912 284.705 272.246 284.414 272.529 284.04L273.565 284.974C273.276 285.416 272.849 285.818 272.283 286.18C271.717 286.536 270.978 286.715 270.067 286.715Z" fill="#FF3B27"/>
<rect x="168.605" y="190.98" width="72.7109" height="72.7109" rx="36.3554" fill="#FFE8E5"/>
<path d="M204.958 219.838V224.609M204.958 234.153H204.983M188.037 243.696H221.879C225.641 243.696 227.99 239.719 226.11 236.539L209.188 207.909C207.308 204.728 202.609 204.728 200.728 207.909L183.807 236.539C181.926 239.719 184.276 243.696 188.037 243.696Z" stroke="#FF604F" stroke-width="3.62108" stroke-linecap="round" stroke-linejoin="round"/>
<rect x="0.309439" y="0.309439" width="106.381" height="91.3811" rx="7.11709" fill="#F3F4F6"/>
<rect x="0.309439" y="0.309439" width="106.381" height="91.3811" rx="7.11709" stroke="#E5E7EB" stroke-width="0.618877"/>
<path d="M62.5009 46.3778V47.7111M62.5009 50.3778H62.5076M57.8823 53.0444H67.1196C68.1463 53.0444 68.7876 51.9331 68.2743 51.0444L63.6556 43.0444C63.1423 42.1558 61.8596 42.1558 61.3463 43.0444L56.7276 51.0444C56.2143 51.9331 56.8556 53.0444 57.8823 53.0444Z" stroke="#6B7280" stroke-width="1.3" stroke-linecap="round" stroke-linejoin="round"/>
<path d="M52.1973 35.2432H57.9209C57.9289 35.2432 57.9353 35.2445 57.9404 35.2451C57.941 35.2502 57.9434 35.2565 57.9434 35.2646V35.2686C57.9433 35.2777 57.9402 35.2845 57.9395 35.29C57.934 35.2907 57.9268 35.293 57.918 35.293H52.1973C52.1879 35.293 52.1804 35.2908 52.1748 35.29C52.1741 35.2846 52.1719 35.2776 52.1719 35.2686C52.1719 35.2592 52.174 35.2517 52.1748 35.2461L52.1973 35.2432Z" fill="#6B7280" stroke="#6B7280"/>
<path d="M52.1973 31.0947H55.084C55.0928 31.0947 55.1 31.097 55.1055 31.0977C55.1062 31.1033 55.1094 31.1107 55.1094 31.1201C55.1094 31.1292 55.1062 31.1361 55.1055 31.1416C55.1 31.1423 55.0928 31.1445 55.084 31.1445H52.1973C52.1873 31.1445 52.1794 31.1425 52.1738 31.1416C52.1731 31.1362 52.1719 31.1292 52.1719 31.1201C52.1719 31.1108 52.174 31.1032 52.1748 31.0977C52.1804 31.0969 52.1879 31.0947 52.1973 31.0947Z" fill="#6B7280" stroke="#6B7280"/>
<path d="M52.1973 26.8945H57.9209C57.929 26.8945 57.9354 26.8958 57.9404 26.8965C57.9411 26.9015 57.9434 26.9078 57.9434 26.916V26.9199C57.9433 26.929 57.9402 26.9359 57.9395 26.9414C57.934 26.9421 57.9268 26.9443 57.918 26.9443H52.1973C52.1879 26.9443 52.1804 26.9422 52.1748 26.9414C52.1741 26.9359 52.1719 26.929 52.1719 26.9199C52.1719 26.9106 52.174 26.9031 52.1748 26.8975L52.1973 26.8945Z" fill="#6B7280" stroke="#6B7280"/>
<path d="M52.1973 22.748H55.084C55.0928 22.748 55.1 22.7503 55.1055 22.751C55.1062 22.7566 55.1094 22.764 55.1094 22.7734C55.1094 22.7826 55.1062 22.7894 55.1055 22.7949C55.1 22.7956 55.0928 22.7979 55.084 22.7979H52.1973C52.1871 22.7979 52.1793 22.7958 52.1738 22.7949C52.173 22.7896 52.1719 22.7826 52.1719 22.7734C52.1719 22.7641 52.174 22.7566 52.1748 22.751C52.1804 22.7502 52.1879 22.748 52.1973 22.748Z" fill="#6B7280" stroke="#6B7280"/>
<path d="M45.4248 12.8779C47.0639 12.8779 48.4551 13.8866 49.0166 15.3203C48.4583 13.9142 47.091 12.9277 45.4785 12.9277C43.3598 12.9278 41.6711 14.6804 41.6709 16.7354V38.0518C41.6709 38.0615 41.6696 38.0669 41.6689 38.0693C41.6684 38.0715 41.6679 38.0736 41.667 38.0752C41.6653 38.078 41.6567 38.0868 41.6357 38.1016C38.8704 39.5578 37.1551 42.394 37.1572 45.5068C37.1574 50.0871 40.898 53.828 45.4785 53.8281C50.057 53.8281 53.8005 50.089 53.8027 45.5576L53.7969 45.2646C53.693 42.2668 51.9987 39.5632 49.3193 38.1514C49.2997 38.1373 49.2916 38.1286 49.29 38.126C49.2892 38.1245 49.2886 38.123 49.2881 38.1211C49.2875 38.1189 49.2861 38.1128 49.2861 38.1025V38.085L49.54 38.2266C52.2184 39.715 53.8496 42.4371 53.8496 45.5068C53.8494 50.1112 50.0831 53.8779 45.4785 53.8779C40.8772 53.8779 37.1047 50.1169 37 45.5068C37 42.489 38.6329 39.7142 41.3096 38.2266L41.5674 38.084V16.7363C41.5674 14.5967 43.2852 12.878 45.4248 12.8779Z" fill="#6B7280" stroke="#6B7280"/>
<path d="M45.4766 14.9775C46.454 14.9775 47.2343 15.7959 47.2344 16.7354V39.3574L47.5107 39.4951L48.3525 39.916C50.3912 40.988 51.7509 43.179 51.751 45.5059C51.751 48.9557 48.9295 51.7772 45.4795 51.7773C42.0274 51.7773 39.2051 48.956 39.2031 45.5059L39.207 45.2871C39.2862 43.0343 40.5831 40.9484 42.6055 39.9141L42.6045 39.9131L43.4424 39.4951L43.7188 39.3574V16.7354C43.7188 15.7507 44.4934 14.9777 45.4766 14.9775ZM43.7715 39.3623C43.7714 39.3723 43.7701 39.3777 43.7695 39.3799C43.769 39.3819 43.7684 39.3833 43.7676 39.3848C43.7661 39.3873 43.7586 39.3952 43.7412 39.4082L42.6299 39.9648C40.5639 40.9981 39.2605 43.1673 39.2051 45.4941V45.5059C39.2051 48.9317 42 51.7274 45.4258 51.7275C48.8517 51.7275 51.6475 48.932 51.6475 45.5059C51.6474 43.2183 50.3371 41.0539 48.2842 39.9717L48.2744 39.9668L47.1631 39.4102C47.1462 39.3974 47.1392 39.3892 47.1377 39.3867C47.1369 39.3852 47.1363 39.3838 47.1357 39.3818C47.1352 39.3797 47.1338 39.3743 47.1338 39.3643V22.7979H43.7715V39.3623ZM45.4795 15.0273C44.5062 15.0273 43.7715 15.844 43.7715 16.7354V17.2354H43.8223L43.8242 22.248L43.8252 22.748H47.1875V16.7354C47.1875 15.7764 46.4384 15.0275 45.4795 15.0273Z" fill="#6B7280" stroke="#6B7280"/>
<path d="M52.1973 18.5488H57.9209C57.9289 18.5488 57.9353 18.5501 57.9404 18.5508C57.941 18.5558 57.9434 18.5621 57.9434 18.5703V18.5742C57.9433 18.5833 57.9402 18.5902 57.9395 18.5957C57.934 18.5964 57.9268 18.5986 57.918 18.5986H52.1973C52.1879 18.5986 52.1804 18.5965 52.1748 18.5957C52.1741 18.5902 52.1719 18.5833 52.1719 18.5742C52.1719 18.5649 52.174 18.5573 52.1748 18.5518L52.1973 18.5488Z" fill="#6B7280" stroke="#6B7280"/>
<path d="M25.6789 73.8565C25.613 74.4585 25.4394 75.0011 25.1582 75.4844C24.877 75.9633 24.4794 76.3412 23.9653 76.618C23.4513 76.8948 22.8076 77.0332 22.0343 77.0332C21.283 77.0332 20.6261 76.8508 20.0637 76.4862C19.5013 76.1171 19.0642 75.5986 18.7522 74.9308C18.4403 74.263 18.2843 73.4831 18.2843 72.5912V71.6223C18.2843 70.726 18.4403 69.9461 18.7522 69.2827C19.0685 68.6149 19.5167 68.0964 20.0967 67.7273C20.6766 67.3583 21.3621 67.1737 22.1529 67.1737C22.8779 67.1737 23.4908 67.3099 23.9917 67.5823C24.4926 67.8504 24.8814 68.226 25.1582 68.7093C25.4394 69.1926 25.613 69.7506 25.6789 70.3833H24.4003C24.3036 69.7111 24.0883 69.1816 23.7544 68.795C23.4249 68.404 22.8911 68.2084 22.1529 68.2084C21.5861 68.2084 21.1116 68.3512 20.7294 68.6368C20.3471 68.918 20.0571 69.3135 19.8594 69.8231C19.6661 70.3328 19.5694 70.9281 19.5694 71.6092V72.5912C19.5694 73.2194 19.6573 73.7928 19.8331 74.3113C20.0088 74.8253 20.2768 75.2362 20.6371 75.5437C21.0018 75.8513 21.4675 76.0051 22.0343 76.0051C22.5747 76.0051 23.0031 75.9194 23.3195 75.748C23.6402 75.5767 23.8818 75.3306 24.0444 75.0099C24.2114 74.6891 24.33 74.3047 24.4003 73.8565H25.6789ZM34.4707 73.8565C34.4047 74.4585 34.2312 75.0011 33.95 75.4844C33.6688 75.9633 33.2712 76.3412 32.7571 76.618C32.243 76.8948 31.5994 77.0332 30.8261 77.0332C30.0748 77.0332 29.4179 76.8508 28.8555 76.4862C28.2931 76.1171 27.8559 75.5986 27.544 74.9308C27.232 74.263 27.0761 73.4831 27.0761 72.5912V71.6223C27.0761 70.726 27.232 69.9461 27.544 69.2827C27.8603 68.6149 28.3085 68.0964 28.8885 67.7273C29.4684 67.3583 30.1538 67.1737 30.9447 67.1737C31.6697 67.1737 32.2826 67.3099 32.7835 67.5823C33.2844 67.8504 33.6732 68.226 33.95 68.7093C34.2312 69.1926 34.4047 69.7506 34.4707 70.3833H33.1921C33.0954 69.7111 32.8801 69.1816 32.5462 68.795C32.2167 68.404 31.6829 68.2084 30.9447 68.2084C30.3779 68.2084 29.9034 68.3512 29.5212 68.6368C29.1389 68.918 28.8489 69.3135 28.6512 69.8231C28.4579 70.3328 28.3612 70.9281 28.3612 71.6092V72.5912C28.3612 73.2194 28.4491 73.7928 28.6248 74.3113C28.8006 74.8253 29.0686 75.2362 29.4289 75.5437C29.7936 75.8513 30.2593 76.0051 30.8261 76.0051C31.3665 76.0051 31.7949 75.9194 32.1112 75.748C32.432 75.5767 32.6736 75.3306 32.8362 75.0099C33.0032 74.6891 33.1218 74.3047 33.1921 73.8565H34.4707ZM37.186 73.1382V72.11H39.7431C40.2396 72.11 40.6394 72.031 40.9426 71.8728C41.2501 71.7102 41.4742 71.4883 41.6148 71.2071C41.7598 70.9259 41.8323 70.6052 41.8323 70.2449C41.8323 69.9154 41.7598 69.6056 41.6148 69.3157C41.4742 69.0257 41.2501 68.7906 40.9426 68.6105C40.6394 68.4303 40.2396 68.3402 39.7431 68.3402H37.4759V76.9014H36.1974V67.3055H39.7431C40.468 67.3055 41.081 67.4308 41.5818 67.6812C42.0827 67.9316 42.4628 68.2765 42.722 68.7159C42.9812 69.1553 43.1109 69.6606 43.1109 70.2317C43.1109 70.8469 42.9812 71.3719 42.722 71.8069C42.4628 72.2419 42.0827 72.5736 41.5818 72.802C41.081 73.0261 40.468 73.1382 39.7431 73.1382H37.186ZM49.0687 72.4066V71.3983H51.2568C51.8016 71.3983 52.241 71.2621 52.5749 70.9896C52.9088 70.7172 53.0758 70.3372 53.0758 69.8495C53.0758 69.3222 52.922 68.94 52.6144 68.7027C52.3113 68.4611 51.8477 68.3402 51.2238 68.3402H49.3521V76.9014H48.0735V67.3055H51.2238C52.2036 67.3055 52.9703 67.5098 53.5239 67.9185C54.0775 68.3227 54.3543 68.9707 54.3543 69.8627C54.3543 70.2581 54.2533 70.6162 54.0512 70.9369C53.8491 71.2533 53.5657 71.5125 53.201 71.7146C52.8407 71.9167 52.4211 72.0463 51.9422 72.1035L51.494 72.4066H49.0687ZM48.5612 76.9014L49.2928 75.8732H51.4347C52.0367 75.8732 52.5024 75.7173 52.8319 75.4053C53.1614 75.0934 53.3262 74.6738 53.3262 74.1465C53.3262 73.7906 53.2625 73.4831 53.1351 73.2238C53.0077 72.9602 52.8099 72.7581 52.5419 72.6175C52.2739 72.4769 51.9246 72.4066 51.494 72.4066H49.6816V71.3983H52.1729L52.4431 71.7673C52.9044 71.8069 53.2954 71.9365 53.6162 72.1562C53.9369 72.3759 54.1808 72.6571 54.3477 72.9998C54.5191 73.3425 54.6048 73.7203 54.6048 74.1333C54.6048 75.034 54.3148 75.7217 53.7348 76.1962C53.1592 76.6663 52.3925 76.9014 51.4347 76.9014H48.5612ZM57.5244 76.9014H56.2919V69.7704H57.4914L57.5244 70.8908V76.9014ZM59.7454 70.8578C59.6399 70.8359 59.5411 70.8227 59.4488 70.8183C59.3609 70.8095 59.2599 70.8051 59.1457 70.8051C58.7722 70.8051 58.4558 70.882 58.1966 71.0358C57.9418 71.1896 57.7441 71.4027 57.6035 71.6751C57.4629 71.9431 57.375 72.2506 57.3398 72.5977L56.9905 72.7955C56.9905 72.2199 57.0674 71.6948 57.2212 71.2203C57.375 70.7414 57.6144 70.3592 57.9396 70.0736C58.2691 69.7836 58.6909 69.6386 59.205 69.6386C59.2884 69.6386 59.3873 69.6496 59.5015 69.6715C59.6202 69.6891 59.7015 69.7089 59.7454 69.7309V70.8578ZM63.8315 77.0332C63.1681 77.0332 62.5903 76.886 62.0982 76.5916C61.6105 76.2928 61.2305 75.8842 60.9581 75.3658C60.69 74.8473 60.556 74.2542 60.556 73.5863V73.3029C60.556 72.5296 60.7032 71.8706 60.9976 71.3258C61.2964 70.7766 61.683 70.3592 62.1575 70.0736C62.6364 69.7836 63.1417 69.6386 63.6734 69.6386C64.3588 69.6386 64.9168 69.7924 65.3474 70.0999C65.7823 70.4031 66.1009 70.8183 66.303 71.3455C66.5095 71.8684 66.6127 72.4615 66.6127 73.125V73.672H61.2876V72.6834H65.3803V72.5912C65.3627 72.2748 65.299 71.9672 65.1892 71.6685C65.0793 71.3653 64.9036 71.1171 64.6619 70.9237C64.4203 70.726 64.0908 70.6272 63.6734 70.6272C63.3043 70.6272 62.977 70.7326 62.6914 70.9435C62.4102 71.15 62.1883 71.4532 62.0257 71.853C61.8675 72.2484 61.7885 72.7317 61.7885 73.3029V73.5863C61.7885 74.0389 61.8719 74.4519 62.0389 74.8253C62.2059 75.1944 62.4475 75.491 62.7639 75.7151C63.0802 75.9348 63.4581 76.0446 63.8974 76.0446C64.328 76.0446 64.6927 75.9567 64.9915 75.781C65.2902 75.6052 65.5517 75.3702 65.7757 75.0758L66.5205 75.6558C66.292 76.0072 65.9625 76.3258 65.5319 76.6114C65.1057 76.8926 64.5389 77.0332 63.8315 77.0332ZM72.2411 72.0112C72.2411 71.585 72.1136 71.2467 71.8588 70.9962C71.6084 70.7414 71.2371 70.614 70.745 70.614C70.4418 70.614 70.1738 70.6667 69.941 70.7722C69.7125 70.8776 69.5345 71.016 69.4071 71.1874C69.2797 71.3587 69.216 71.5455 69.216 71.7476H67.9836C67.9836 71.4049 68.1 71.0731 68.3329 70.7524C68.5657 70.4273 68.8931 70.1614 69.3149 69.9549C69.7411 69.744 70.2419 69.6386 70.8175 69.6386C71.336 69.6386 71.7951 69.7265 72.1949 69.9022C72.5948 70.078 72.9067 70.3438 73.1308 70.6997C73.3593 71.0512 73.4735 71.4927 73.4735 72.0244V75.346C73.4735 75.5833 73.4933 75.8359 73.5328 76.1039C73.5767 76.3719 73.6405 76.6026 73.7239 76.7959V76.9014H72.4388C72.3773 76.7608 72.3289 76.574 72.2938 76.3412C72.2586 76.1039 72.2411 75.8842 72.2411 75.6821V72.0112ZM72.452 73.4347H71.2393C70.5451 73.4347 70.0091 73.5446 69.6312 73.7643C69.2534 73.984 69.0644 74.3135 69.0644 74.7528C69.0644 75.0956 69.1787 75.3855 69.4071 75.6228C69.64 75.8601 69.9783 75.9787 70.4221 75.9787C70.7955 75.9787 71.1251 75.8996 71.4107 75.7414C71.6962 75.5833 71.9225 75.3877 72.0895 75.1549C72.2564 74.922 72.3465 74.6979 72.3597 74.4826L72.8869 75.0692C72.8562 75.2537 72.7727 75.458 72.6365 75.6821C72.5003 75.9062 72.318 76.1215 72.0895 76.328C71.8654 76.5301 71.5974 76.6993 71.2854 76.8355C70.9779 76.9673 70.6308 77.0332 70.2441 77.0332C69.7608 77.0332 69.3368 76.9409 68.9722 76.7564C68.6119 76.5674 68.3307 76.3126 68.1286 75.9919C67.9308 75.6711 67.832 75.3152 67.832 74.9242C67.832 74.1553 68.122 73.5731 68.7019 73.1777C69.2819 72.7779 70.0618 72.578 71.0416 72.578H72.452V73.4347ZM78.2516 77.0332C77.5355 77.0332 76.9423 76.8706 76.4722 76.5455C76.0021 76.216 75.6506 75.781 75.4177 75.2405C75.1892 74.7001 75.075 74.1114 75.075 73.4743V73.1975C75.075 72.556 75.1914 71.9672 75.4243 71.4312C75.6572 70.8908 76.0087 70.458 76.4788 70.1329C76.9489 69.8034 77.5399 69.6386 78.2516 69.6386C78.8096 69.6386 79.2973 69.7528 79.7147 69.9813C80.1365 70.2054 80.4661 70.5129 80.7033 70.904C80.945 71.2906 81.0768 71.73 81.0988 72.2221H79.9322C79.9103 71.9277 79.8268 71.6597 79.6818 71.418C79.5412 71.1764 79.3479 70.9853 79.1018 70.8447C78.8602 70.6997 78.5768 70.6272 78.2516 70.6272C77.7552 70.6272 77.3641 70.7546 77.0785 71.0094C76.7973 71.2643 76.5974 71.5894 76.4788 71.9848C76.3645 72.3759 76.3074 72.7801 76.3074 73.1975V73.4743C76.3074 73.8917 76.3645 74.2981 76.4788 74.6935C76.593 75.089 76.7907 75.4141 77.0719 75.6689C77.3575 75.9194 77.7508 76.0446 78.2516 76.0446C78.5416 76.0446 78.8096 75.9853 79.0557 75.8667C79.3017 75.7436 79.5038 75.5767 79.662 75.3658C79.8202 75.1549 79.9103 74.9154 79.9322 74.6474H81.0988C81.0768 75.0692 80.934 75.4624 80.6704 75.8271C80.4067 76.1874 80.064 76.4796 79.6422 76.7037C79.2204 76.9233 78.7569 77.0332 78.2516 77.0332ZM83.702 76.9014H82.4696V66.7783H83.702V76.9014ZM82.898 73.0393C82.9068 72.389 83.032 71.8091 83.2736 71.2994C83.5153 70.7853 83.8514 70.3811 84.282 70.0867C84.717 69.788 85.2222 69.6386 85.7978 69.6386C86.2679 69.6386 86.6722 69.7265 87.0105 69.9022C87.3532 70.0736 87.6168 70.3482 87.8013 70.726C87.9903 71.1039 88.0847 71.6048 88.0847 72.2287V76.9014H86.8523V72.2155C86.8523 71.842 86.7974 71.5411 86.6875 71.3126C86.5821 71.0841 86.4239 70.9193 86.213 70.8183C86.0021 70.7128 85.7429 70.6601 85.4353 70.6601C85.1322 70.6601 84.8576 70.7238 84.6115 70.8512C84.3655 70.9787 84.1524 71.1544 83.9722 71.3785C83.7921 71.6026 83.6537 71.8596 83.557 72.1496C83.4604 72.4352 83.412 72.7383 83.412 73.0591L82.898 73.0393Z" fill="#6B7280"/>
<rect x="151.208" y="0.309439" width="106.381" height="92.3811" rx="7.11709" fill="#F3F4F6"/>
<rect x="151.208" y="0.309439" width="106.381" height="92.3811" rx="7.11709" stroke="#E5E7EB" stroke-width="0.618877"/>
<path d="M199.275 33.3779H209.525M199.275 40.3779H209.525M212.941 49.1279H195.858C194.952 49.1279 194.083 48.7592 193.442 48.1028C192.801 47.4464 192.441 46.5562 192.441 45.6279V21.1279C192.441 20.1997 192.801 19.3094 193.442 18.6531C194.083 17.9967 194.952 17.6279 195.858 17.6279H205.401C205.854 17.628 206.288 17.8125 206.609 18.1407L215.858 27.6152C216.178 27.9433 216.358 28.3883 216.358 28.8524V45.6279C216.358 46.5562 215.998 47.4464 215.357 48.1028C214.717 48.7592 213.848 49.1279 212.941 49.1279Z" stroke="#6B7280" stroke-width="1.68718" stroke-linecap="round" stroke-linejoin="round"/>
<path d="M164.189 65.3055C164.909 65.3055 165.52 65.4154 166.021 65.6351C166.522 65.8547 166.902 66.1799 167.161 66.6105C167.425 67.0367 167.557 67.5617 167.557 68.1856C167.557 68.625 167.467 69.0248 167.286 69.3851C167.111 69.7454 166.856 70.0529 166.522 70.3078C166.188 70.5626 165.79 70.7515 165.329 70.8745L164.973 71.0129H161.994V69.9848H164.222C164.679 69.9848 165.059 69.9035 165.362 69.741C165.665 69.5784 165.891 69.3609 166.041 69.0885C166.195 68.8161 166.271 68.5151 166.271 68.1856C166.271 67.6276 166.107 67.1816 165.777 66.8477C165.448 66.5094 164.918 66.3402 164.189 66.3402H162.291V74.9014H161.012V65.3055H164.189ZM164.281 70.5516H165.619L167.978 74.8223V74.9014H166.608L164.281 70.5516ZM172.104 75.0332C171.441 75.0332 170.863 74.886 170.371 74.5916C169.883 74.2928 169.503 73.8842 169.231 73.3658C168.963 72.8473 168.829 72.2542 168.829 71.5863V71.3029C168.829 70.5296 168.976 69.8706 169.27 69.3258C169.569 68.7766 169.956 68.3592 170.43 68.0736C170.909 67.7836 171.414 67.6386 171.946 67.6386C172.631 67.6386 173.189 67.7924 173.62 68.0999C174.055 68.4031 174.373 68.8183 174.576 69.3455C174.782 69.8684 174.885 70.4615 174.885 71.125V71.672H169.56V70.6834H173.653V70.5912C173.635 70.2748 173.572 69.9672 173.462 69.6685C173.352 69.3653 173.176 69.1171 172.935 68.9237C172.693 68.726 172.363 68.6272 171.946 68.6272C171.577 68.6272 171.25 68.7326 170.964 68.9435C170.683 69.15 170.461 69.4532 170.298 69.853C170.14 70.2484 170.061 70.7317 170.061 71.3029V71.5863C170.061 72.0389 170.145 72.4519 170.311 72.8253C170.478 73.1944 170.72 73.491 171.036 73.7151C171.353 73.9348 171.731 74.0446 172.17 74.0446C172.601 74.0446 172.965 73.9567 173.264 73.781C173.563 73.6052 173.824 73.3702 174.048 73.0758L174.793 73.6558C174.565 74.0072 174.235 74.3258 173.804 74.6114C173.378 74.8926 172.812 75.0332 172.104 75.0332ZM179.169 75.0332C178.453 75.0332 177.86 74.8706 177.39 74.5455C176.92 74.216 176.568 73.781 176.335 73.2405C176.107 72.7001 175.993 72.1114 175.993 71.4743V71.1975C175.993 70.556 176.109 69.9672 176.342 69.4312C176.575 68.8908 176.926 68.458 177.396 68.1329C177.866 67.8034 178.457 67.6386 179.169 67.6386C179.727 67.6386 180.215 67.7528 180.632 67.9813C181.054 68.2054 181.384 68.5129 181.621 68.904C181.863 69.2906 181.994 69.73 182.016 70.2221H180.85C180.828 69.9277 180.744 69.6597 180.599 69.418C180.459 69.1764 180.265 68.9853 180.019 68.8447C179.778 68.6997 179.494 68.6272 179.169 68.6272C178.673 68.6272 178.282 68.7546 177.996 69.0094C177.715 69.2643 177.515 69.5894 177.396 69.9848C177.282 70.3759 177.225 70.7801 177.225 71.1975V71.4743C177.225 71.8917 177.282 72.2981 177.396 72.6935C177.511 73.089 177.708 73.4141 177.989 73.6689C178.275 73.9194 178.668 74.0446 179.169 74.0446C179.459 74.0446 179.727 73.9853 179.973 73.8667C180.219 73.7436 180.421 73.5767 180.58 73.3658C180.738 73.1549 180.828 72.9154 180.85 72.6474H182.016C181.994 73.0692 181.852 73.4624 181.588 73.8271C181.324 74.1874 180.982 74.4796 180.56 74.7037C180.138 74.9233 179.674 75.0332 179.169 75.0332ZM184.145 65.1803C184.382 65.1803 184.562 65.2484 184.685 65.3846C184.813 65.5208 184.877 65.6856 184.877 65.8789C184.877 66.0678 184.813 66.2304 184.685 66.3666C184.562 66.4984 184.382 66.5643 184.145 66.5643C183.908 66.5643 183.728 66.4984 183.605 66.3666C183.486 66.2304 183.427 66.0678 183.427 65.8789C183.427 65.6856 183.486 65.5208 183.605 65.3846C183.728 65.2484 183.908 65.1803 184.145 65.1803ZM184.765 74.9014H183.539V67.7704H184.765V74.9014ZM190.03 75.0332C189.573 75.0332 189.171 74.9585 188.824 74.8091C188.477 74.6597 188.183 74.4444 187.941 74.1632C187.7 73.8776 187.506 73.5371 187.361 73.1417C187.221 72.7419 187.124 72.2915 187.071 71.7906V71.0261C187.142 70.3275 187.293 69.7256 187.526 69.2203C187.763 68.715 188.086 68.3262 188.495 68.0538C188.908 67.777 189.413 67.6386 190.011 67.6386C190.608 67.6386 191.113 67.7902 191.526 68.0933C191.939 68.3965 192.254 68.8227 192.469 69.3719C192.684 69.9167 192.792 70.5516 192.792 71.2766V71.415C192.792 72.1092 192.684 72.7287 192.469 73.2735C192.254 73.8183 191.939 74.2489 191.526 74.5652C191.118 74.8772 190.619 75.0332 190.03 75.0332ZM186.761 77.643V67.7704H187.882L187.994 69.1412V77.643H186.761ZM189.655 74.0446C190.094 74.0446 190.454 73.9238 190.736 73.6821C191.017 73.4405 191.223 73.1219 191.355 72.7265C191.491 72.3267 191.559 71.8895 191.559 71.415V71.2766C191.559 70.802 191.491 70.3671 191.355 69.9716C191.223 69.5718 191.015 69.2533 190.729 69.016C190.448 68.7788 190.085 68.6601 189.642 68.6601C189.338 68.6601 189.075 68.7128 188.851 68.8183C188.627 68.9237 188.435 69.0665 188.277 69.2467C188.119 69.4224 187.99 69.6245 187.888 69.853C187.792 70.0771 187.719 70.31 187.671 70.5516V72.2717C187.759 72.5793 187.88 72.8693 188.033 73.1417C188.192 73.4097 188.4 73.6272 188.66 73.7942C188.923 73.9611 189.255 74.0446 189.655 74.0446ZM197.306 75.0332C196.643 75.0332 196.065 74.886 195.573 74.5916C195.085 74.2928 194.705 73.8842 194.433 73.3658C194.165 72.8473 194.031 72.2542 194.031 71.5863V71.3029C194.031 70.5296 194.178 69.8706 194.472 69.3258C194.771 68.7766 195.158 68.3592 195.632 68.0736C196.111 67.7836 196.617 67.6386 197.148 67.6386C197.834 67.6386 198.392 67.7924 198.822 68.0999C199.257 68.4031 199.576 68.8183 199.778 69.3455C199.984 69.8684 200.088 70.4615 200.088 71.125V71.672H194.762V70.6834H198.855V70.5912C198.838 70.2748 198.774 69.9672 198.664 69.6685C198.554 69.3653 198.378 69.1171 198.137 68.9237C197.895 68.726 197.566 68.6272 197.148 68.6272C196.779 68.6272 196.452 68.7326 196.166 68.9435C195.885 69.15 195.663 69.4532 195.501 69.853C195.342 70.2484 195.263 70.7317 195.263 71.3029V71.5863C195.263 72.0389 195.347 72.4519 195.514 72.8253C195.681 73.1944 195.922 73.491 196.239 73.7151C196.555 73.9348 196.933 74.0446 197.372 74.0446C197.803 74.0446 198.168 73.9567 198.466 73.781C198.765 73.6052 199.027 73.3702 199.251 73.0758L199.995 73.6558C199.767 74.0072 199.437 74.3258 199.007 74.6114C198.581 74.8926 198.014 75.0332 197.306 75.0332ZM207.719 75.0332C207.003 75.0332 206.41 74.8706 205.94 74.5455C205.47 74.216 205.118 73.781 204.885 73.2405C204.657 72.7001 204.543 72.1114 204.543 71.4743V71.1975C204.543 70.556 204.659 69.9672 204.892 69.4312C205.125 68.8908 205.476 68.458 205.947 68.1329C206.417 67.8034 207.008 67.6386 207.719 67.6386C208.277 67.6386 208.765 67.7528 209.183 67.9813C209.604 68.2054 209.934 68.5129 210.171 68.904C210.413 69.2906 210.545 69.73 210.567 70.2221H209.4C209.378 69.9277 209.295 69.6597 209.15 69.418C209.009 69.1764 208.816 68.9853 208.57 68.8447C208.328 68.6997 208.045 68.6272 207.719 68.6272C207.223 68.6272 206.832 68.7546 206.546 69.0094C206.265 69.2643 206.065 69.5894 205.947 69.9848C205.832 70.3759 205.775 70.7801 205.775 71.1975V71.4743C205.775 71.8917 205.832 72.2981 205.947 72.6935C206.061 73.089 206.259 73.4141 206.54 73.6689C206.825 73.9194 207.219 74.0446 207.719 74.0446C208.009 74.0446 208.277 73.9853 208.523 73.8667C208.77 73.7436 208.972 73.5767 209.13 73.3658C209.288 73.1549 209.378 72.9154 209.4 72.6474H210.567C210.545 73.0692 210.402 73.4624 210.138 73.8271C209.875 74.1874 209.532 74.4796 209.11 74.7037C208.688 74.9233 208.225 75.0332 207.719 75.0332ZM213.17 74.9014H211.937V64.7783H213.17V74.9014ZM212.366 71.0393C212.375 70.389 212.5 69.8091 212.741 69.2994C212.983 68.7853 213.319 68.3811 213.75 68.0867C214.185 67.788 214.69 67.6386 215.266 67.6386C215.736 67.6386 216.14 67.7265 216.478 67.9022C216.821 68.0736 217.085 68.3482 217.269 68.726C217.458 69.1039 217.553 69.6048 217.553 70.2287V74.9014H216.32V70.2155C216.32 69.842 216.265 69.5411 216.155 69.3126C216.05 69.0841 215.892 68.9193 215.681 68.8183C215.47 68.7128 215.211 68.6601 214.903 68.6601C214.6 68.6601 214.325 68.7238 214.079 68.8512C213.833 68.9787 213.62 69.1544 213.44 69.3785C213.26 69.6026 213.121 69.8596 213.025 70.1496C212.928 70.4352 212.88 70.7383 212.88 71.0591L212.366 71.0393ZM223.576 70.0112C223.576 69.585 223.449 69.2467 223.194 68.9962C222.944 68.7414 222.572 68.614 222.08 68.614C221.777 68.614 221.509 68.6667 221.276 68.7722C221.048 68.8776 220.87 69.016 220.742 69.1874C220.615 69.3587 220.551 69.5455 220.551 69.7476H219.319C219.319 69.4049 219.435 69.0731 219.668 68.7524C219.901 68.4273 220.228 68.1614 220.65 67.9549C221.076 67.744 221.577 67.6386 222.153 67.6386C222.671 67.6386 223.13 67.7265 223.53 67.9022C223.93 68.078 224.242 68.3438 224.466 68.6997C224.694 69.0512 224.809 69.4927 224.809 70.0244V73.346C224.809 73.5833 224.828 73.8359 224.868 74.1039C224.912 74.3719 224.976 74.6026 225.059 74.7959V74.9014H223.774C223.712 74.7608 223.664 74.574 223.629 74.3412C223.594 74.1039 223.576 73.8842 223.576 73.6821V70.0112ZM223.787 71.4347H222.575C221.88 71.4347 221.344 71.5446 220.966 71.7643C220.589 71.984 220.4 72.3135 220.4 72.7528C220.4 73.0956 220.514 73.3855 220.742 73.6228C220.975 73.8601 221.314 73.9787 221.757 73.9787C222.131 73.9787 222.46 73.8996 222.746 73.7414C223.031 73.5833 223.258 73.3877 223.425 73.1549C223.592 72.922 223.682 72.6979 223.695 72.4826L224.222 73.0692C224.191 73.2537 224.108 73.458 223.972 73.6821C223.836 73.9062 223.653 74.1215 223.425 74.328C223.201 74.5301 222.933 74.6993 222.621 74.8355C222.313 74.9673 221.966 75.0332 221.579 75.0332C221.096 75.0332 220.672 74.9409 220.307 74.7564C219.947 74.5674 219.666 74.3126 219.464 73.9919C219.266 73.6711 219.167 73.3152 219.167 72.9242C219.167 72.1553 219.457 71.5731 220.037 71.1777C220.617 70.7779 221.397 70.578 222.377 70.578H223.787V71.4347ZM227.959 74.9014H226.727V67.7704H227.893L227.959 69.2928V74.9014ZM227.155 71.0393C227.164 70.389 227.289 69.8091 227.531 69.2994C227.772 68.7853 228.108 68.3811 228.539 68.0867C228.974 67.788 229.479 67.6386 230.055 67.6386C230.525 67.6386 230.929 67.7265 231.267 67.9022C231.61 68.0736 231.874 68.3482 232.058 68.726C232.247 69.1039 232.342 69.6048 232.342 70.2287V74.9014H231.109V70.2155C231.109 69.842 231.054 69.5411 230.945 69.3126C230.839 69.0841 230.681 68.9193 230.47 68.8183C230.259 68.7128 230 68.6601 229.692 68.6601C229.389 68.6601 229.115 68.7238 228.868 68.8512C228.622 68.9787 228.409 69.1544 228.229 69.3785C228.049 69.6026 227.911 69.8596 227.814 70.1496C227.717 70.4352 227.669 70.7383 227.669 71.0591L227.155 71.0393ZM236.902 77.7155C236.656 77.7155 236.366 77.676 236.032 77.5969C235.703 77.5222 235.378 77.3926 235.057 77.2081C234.741 77.0279 234.475 76.7841 234.26 76.4765L234.899 75.7581C235.198 76.1184 235.51 76.3689 235.835 76.5095C236.164 76.6545 236.489 76.7269 236.81 76.7269C237.386 76.7269 237.843 76.5622 238.181 76.2327C238.524 75.9075 238.695 75.433 238.695 74.8091V69.3389L238.807 67.7704H239.927V74.7498C239.927 75.3781 239.798 75.9141 239.539 76.3579C239.284 76.8016 238.928 77.1378 238.471 77.3662C238.018 77.5991 237.496 77.7155 236.902 77.7155ZM236.705 75.0332C236.133 75.0332 235.637 74.8772 235.215 74.5652C234.798 74.2489 234.473 73.8183 234.24 73.2735C234.011 72.7287 233.897 72.1092 233.897 71.415V71.2766C233.897 70.5516 234.011 69.9167 234.24 69.3719C234.468 68.8227 234.793 68.3965 235.215 68.0933C235.637 67.7902 236.138 67.6386 236.718 67.6386C237.166 67.6386 237.557 67.7177 237.891 67.8758C238.229 68.0296 238.515 68.2537 238.748 68.5481C238.985 68.8425 239.172 69.1983 239.308 69.6158C239.449 70.0332 239.545 70.5033 239.598 71.0261V71.6654C239.532 72.3552 239.385 72.9528 239.156 73.458C238.932 73.9589 238.618 74.3478 238.214 74.6246C237.81 74.897 237.307 75.0332 236.705 75.0332ZM237.008 74.0051C237.412 74.0051 237.744 73.9194 238.003 73.748C238.262 73.5767 238.471 73.3504 238.629 73.0692C238.787 72.788 238.91 72.4826 238.998 72.1531V70.5516C238.945 70.31 238.871 70.0771 238.774 69.853C238.677 69.6245 238.55 69.4224 238.392 69.2467C238.234 69.0665 238.04 68.9237 237.812 68.8183C237.588 68.7128 237.324 68.6601 237.021 68.6601C236.577 68.6601 236.215 68.7788 235.934 69.016C235.657 69.2533 235.452 69.5718 235.321 69.9716C235.193 70.3671 235.13 70.802 235.13 71.2766V71.415C235.13 71.8895 235.193 72.3223 235.321 72.7133C235.452 73.1043 235.657 73.4185 235.934 73.6558C236.21 73.8886 236.568 74.0051 237.008 74.0051ZM244.732 75.0332C244.068 75.0332 243.491 74.886 242.999 74.5916C242.511 74.2928 242.131 73.8842 241.858 73.3658C241.59 72.8473 241.456 72.2542 241.456 71.5863V71.3029C241.456 70.5296 241.604 69.8706 241.898 69.3258C242.197 68.7766 242.583 68.3592 243.058 68.0736C243.537 67.7836 244.042 67.6386 244.574 67.6386C245.259 67.6386 245.817 67.7924 246.248 68.0999C246.683 68.4031 247.001 68.8183 247.203 69.3455C247.41 69.8684 247.513 70.4615 247.513 71.125V71.672H242.188V70.6834H246.281V70.5912C246.263 70.2748 246.199 69.9672 246.09 69.6685C245.98 69.3653 245.804 69.1171 245.562 68.9237C245.321 68.726 244.991 68.6272 244.574 68.6272C244.205 68.6272 243.877 68.7326 243.592 68.9435C243.311 69.15 243.089 69.4532 242.926 69.853C242.768 70.2484 242.689 70.7317 242.689 71.3029V71.5863C242.689 72.0389 242.772 72.4519 242.939 72.8253C243.106 73.1944 243.348 73.491 243.664 73.7151C243.981 73.9348 244.358 74.0446 244.798 74.0446C245.228 74.0446 245.593 73.9567 245.892 73.781C246.191 73.6052 246.452 73.3702 246.676 73.0758L247.421 73.6558C247.192 74.0072 246.863 74.3258 246.432 74.6114C246.006 74.8926 245.439 75.0332 244.732 75.0332Z" fill="#6B7280"/>
<rect x="301.309" y="0.309439" width="106.381" height="92.3811" rx="7.11709" fill="#F3F4F6"/>
<rect x="301.309" y="0.309439" width="106.381" height="92.3811" rx="7.11709" stroke="#E5E7EB" stroke-width="0.618877"/>
<path d="M354.499 19.3779V21.1279M364.749 40.3779H368.165M357.915 40.3779H354.499V47.3779M361.349 33.3779H354.499V28.1279M354.499 33.3779H354.516M361.332 47.3779H368.165M340.832 33.3779H347.665M368.165 33.3779H368.182M342.54 26.3779H345.957C346.41 26.3779 346.845 26.1936 347.165 25.8654C347.485 25.5372 347.665 25.0921 347.665 24.6279V21.1279C347.665 20.6638 347.485 20.2187 347.165 19.8905C346.845 19.5623 346.41 19.3779 345.957 19.3779H342.54C342.087 19.3779 341.653 19.5623 341.332 19.8905C341.012 20.2187 340.832 20.6638 340.832 21.1279V24.6279C340.832 25.0921 341.012 25.5372 341.332 25.8654C341.653 26.1936 342.087 26.3779 342.54 26.3779ZM363.04 26.3779H366.457C366.91 26.3779 367.345 26.1936 367.665 25.8654C367.985 25.5372 368.165 25.0921 368.165 24.6279V21.1279C368.165 20.6638 367.985 20.2187 367.665 19.8905C367.345 19.5623 366.91 19.3779 366.457 19.3779H363.04C362.587 19.3779 362.153 19.5623 361.832 19.8905C361.512 20.2187 361.332 20.6638 361.332 21.1279V24.6279C361.332 25.0921 361.512 25.5372 361.832 25.8654C362.153 26.1936 362.587 26.3779 363.04 26.3779ZM342.54 47.3779H345.957C346.41 47.3779 346.845 47.1936 347.165 46.8654C347.485 46.5372 347.665 46.0921 347.665 45.6279V42.1279C347.665 41.6638 347.485 41.2187 347.165 40.8905C346.845 40.5623 346.41 40.3779 345.957 40.3779H342.54C342.087 40.3779 341.653 40.5623 341.332 40.8905C341.012 41.2187 340.832 41.6638 340.832 42.1279V45.6279C340.832 46.0921 341.012 46.5372 341.332 46.8654C341.653 47.1936 342.087 47.3779 342.54 47.3779Z" stroke="#6B7280" stroke-width="1.68718" stroke-linecap="round" stroke-linejoin="round"/>
<path d="M324.94 74.9014H320.142V73.8732H324.94V74.9014ZM320.392 74.9014H319.114V65.3055H320.392V74.9014ZM325.882 71.2634C325.882 70.5736 326.014 69.9563 326.278 69.4114C326.541 68.8666 326.915 68.436 327.398 68.1197C327.881 67.799 328.455 67.6386 329.118 67.6386C329.79 67.6386 330.37 67.799 330.858 68.1197C331.346 68.436 331.719 68.8666 331.979 69.4114C332.242 69.9563 332.374 70.5736 332.374 71.2634V71.415C332.374 72.1004 332.242 72.7177 331.979 73.2669C331.719 73.8117 331.346 74.2423 330.858 74.5587C330.375 74.875 329.799 75.0332 329.131 75.0332C328.464 75.0332 327.886 74.875 327.398 74.5587C326.915 74.2423 326.541 73.8117 326.278 73.2669C326.014 72.7177 325.882 72.1004 325.882 71.415V71.2634ZM327.115 71.415C327.115 71.8851 327.189 72.3201 327.339 72.7199C327.488 73.1197 327.71 73.4405 328.004 73.6821C328.303 73.9238 328.679 74.0446 329.131 74.0446C329.58 74.0446 329.951 73.9238 330.245 73.6821C330.544 73.4405 330.768 73.1197 330.917 72.7199C331.067 72.3201 331.142 71.8851 331.142 71.415V71.2634C331.142 70.7933 331.067 70.3583 330.917 69.9585C330.768 69.5586 330.544 69.2379 330.245 68.9962C329.946 68.7502 329.571 68.6272 329.118 68.6272C328.674 68.6272 328.303 68.7502 328.004 68.9962C327.706 69.2379 327.482 69.5586 327.332 69.9585C327.187 70.3583 327.115 70.7933 327.115 71.2634V71.415ZM336.908 68.6997H333.046V67.7704H336.908V68.6997ZM335.577 66.0371V73.1351C335.577 73.3811 335.614 73.5657 335.689 73.6887C335.764 73.8117 335.86 73.893 335.979 73.9326C336.098 73.9721 336.225 73.9919 336.361 73.9919C336.462 73.9919 336.568 73.9831 336.678 73.9655C336.792 73.9479 336.875 73.9326 336.928 73.9194V74.9014C336.831 74.9321 336.706 74.9607 336.552 74.987C336.399 75.0178 336.212 75.0332 335.992 75.0332C335.693 75.0332 335.419 74.9739 335.168 74.8552C334.918 74.7366 334.718 74.5389 334.569 74.2621C334.419 73.9809 334.345 73.603 334.345 73.1285V66.0371H335.577ZM345.041 65.3055C345.762 65.3055 346.372 65.4154 346.873 65.6351C347.374 65.8547 347.754 66.1799 348.013 66.6105C348.277 67.0367 348.409 67.5617 348.409 68.1856C348.409 68.625 348.319 69.0248 348.139 69.3851C347.963 69.7454 347.708 70.0529 347.374 70.3078C347.04 70.5626 346.643 70.7515 346.181 70.8745L345.825 71.0129H342.846V69.9848H345.074C345.531 69.9848 345.911 69.9035 346.214 69.741C346.517 69.5784 346.744 69.3609 346.893 69.0885C347.047 68.8161 347.124 68.5151 347.124 68.1856C347.124 67.6276 346.959 67.1816 346.629 66.8477C346.3 66.5094 345.77 66.3402 345.041 66.3402H343.143V74.9014H341.864V65.3055H345.041ZM345.133 70.5516H346.471L348.831 74.8223V74.9014H347.46L345.133 70.5516ZM352.956 75.0332C352.293 75.0332 351.715 74.886 351.223 74.5916C350.735 74.2928 350.355 73.8842 350.083 73.3658C349.815 72.8473 349.681 72.2542 349.681 71.5863V71.3029C349.681 70.5296 349.828 69.8706 350.122 69.3258C350.421 68.7766 350.808 68.3592 351.282 68.0736C351.761 67.7836 352.266 67.6386 352.798 67.6386C353.483 67.6386 354.041 67.7924 354.472 68.0999C354.907 68.4031 355.226 68.8183 355.428 69.3455C355.634 69.8684 355.737 70.4615 355.737 71.125V71.672H350.412V70.6834H354.505V70.5912C354.487 70.2748 354.424 69.9672 354.314 69.6685C354.204 69.3653 354.028 69.1171 353.787 68.9237C353.545 68.726 353.215 68.6272 352.798 68.6272C352.429 68.6272 352.102 68.7326 351.816 68.9435C351.535 69.15 351.313 69.4532 351.15 69.853C350.992 70.2484 350.913 70.7317 350.913 71.3029V71.5863C350.913 72.0389 350.997 72.4519 351.164 72.8253C351.331 73.1944 351.572 73.491 351.889 73.7151C352.205 73.9348 352.583 74.0446 353.022 74.0446C353.453 74.0446 353.817 73.9567 354.116 73.781C354.415 73.6052 354.676 73.3702 354.9 73.0758L355.645 73.6558C355.417 74.0072 355.087 74.3258 354.657 74.6114C354.23 74.8926 353.664 75.0332 352.956 75.0332ZM360.021 75.0332C359.305 75.0332 358.712 74.8706 358.242 74.5455C357.772 74.216 357.42 73.781 357.187 73.2405C356.959 72.7001 356.845 72.1114 356.845 71.4743V71.1975C356.845 70.556 356.961 69.9672 357.194 69.4312C357.427 68.8908 357.778 68.458 358.248 68.1329C358.719 67.8034 359.31 67.6386 360.021 67.6386C360.579 67.6386 361.067 67.7528 361.484 67.9813C361.906 68.2054 362.236 68.5129 362.473 68.904C362.715 69.2906 362.846 69.73 362.868 70.2221H361.702C361.68 69.9277 361.596 69.6597 361.451 69.418C361.311 69.1764 361.118 68.9853 360.871 68.8447C360.63 68.6997 360.346 68.6272 360.021 68.6272C359.525 68.6272 359.134 68.7546 358.848 69.0094C358.567 69.2643 358.367 69.5894 358.248 69.9848C358.134 70.3759 358.077 70.7801 358.077 71.1975V71.4743C358.077 71.8917 358.134 72.2981 358.248 72.6935C358.363 73.089 358.56 73.4141 358.842 73.6689C359.127 73.9194 359.52 74.0446 360.021 74.0446C360.311 74.0446 360.579 73.9853 360.825 73.8667C361.071 73.7436 361.274 73.5767 361.432 73.3658C361.59 73.1549 361.68 72.9154 361.702 72.6474H362.868C362.846 73.0692 362.704 73.4624 362.44 73.8271C362.176 74.1874 361.834 74.4796 361.412 74.7037C360.99 74.9233 360.527 75.0332 360.021 75.0332ZM363.923 71.2634C363.923 70.5736 364.055 69.9563 364.318 69.4114C364.582 68.8666 364.955 68.436 365.439 68.1197C365.922 67.799 366.495 67.6386 367.159 67.6386C367.831 67.6386 368.411 67.799 368.899 68.1197C369.386 68.436 369.76 68.8666 370.019 69.4114C370.283 69.9563 370.415 70.5736 370.415 71.2634V71.415C370.415 72.1004 370.283 72.7177 370.019 73.2669C369.76 73.8117 369.386 74.2423 368.899 74.5587C368.415 74.875 367.84 75.0332 367.172 75.0332C366.504 75.0332 365.926 74.875 365.439 74.5587C364.955 74.2423 364.582 73.8117 364.318 73.2669C364.055 72.7177 363.923 72.1004 363.923 71.415V71.2634ZM365.155 71.415C365.155 71.8851 365.23 72.3201 365.379 72.7199C365.529 73.1197 365.751 73.4405 366.045 73.6821C366.344 73.9238 366.72 74.0446 367.172 74.0446C367.62 74.0446 367.991 73.9238 368.286 73.6821C368.585 73.4405 368.809 73.1197 368.958 72.7199C369.107 72.3201 369.182 71.8851 369.182 71.415V71.2634C369.182 70.7933 369.107 70.3583 368.958 69.9585C368.809 69.5586 368.585 69.2379 368.286 68.9962C367.987 68.7502 367.611 68.6272 367.159 68.6272C366.715 68.6272 366.344 68.7502 366.045 68.9962C365.746 69.2379 365.522 69.5586 365.373 69.9585C365.228 70.3583 365.155 70.7933 365.155 71.2634V71.415ZM373.183 74.9014H371.95V67.7704H373.15L373.183 68.8908V74.9014ZM375.404 68.8578C375.298 68.8359 375.199 68.8227 375.107 68.8183C375.019 68.8095 374.918 68.8051 374.804 68.8051C374.43 68.8051 374.114 68.882 373.855 69.0358C373.6 69.1896 373.402 69.4027 373.262 69.6751C373.121 69.9431 373.033 70.2506 372.998 70.5977L372.649 70.7955C372.649 70.2199 372.726 69.6948 372.879 69.2203C373.033 68.7414 373.273 68.3592 373.598 68.0736C373.927 67.7836 374.349 67.6386 374.863 67.6386C374.947 67.6386 375.046 67.6496 375.16 67.6715C375.278 67.6891 375.36 67.7089 375.404 67.7309V68.8578ZM379.035 75.0332C378.477 75.0332 377.987 74.8772 377.565 74.5652C377.144 74.2489 376.814 73.8183 376.577 73.2735C376.344 72.7287 376.227 72.1092 376.227 71.415V71.2766C376.227 70.5516 376.344 69.9167 376.577 69.3719C376.814 68.8227 377.144 68.3965 377.565 68.0933C377.987 67.7902 378.481 67.6386 379.048 67.6386C379.646 67.6386 380.144 67.777 380.544 68.0538C380.944 68.3262 381.256 68.715 381.48 69.2203C381.709 69.7256 381.856 70.3275 381.922 71.0261V71.6654C381.856 72.3552 381.711 72.9528 381.487 73.458C381.263 73.9589 380.948 74.3478 380.544 74.6246C380.144 74.897 379.641 75.0332 379.035 75.0332ZM379.338 74.0051C379.742 74.0051 380.074 73.9194 380.333 73.748C380.597 73.5767 380.808 73.3504 380.966 73.0692C381.124 72.788 381.247 72.4826 381.335 72.1531V70.5516C381.282 70.31 381.206 70.0771 381.104 69.853C381.008 69.6245 380.88 69.4224 380.722 69.2467C380.568 69.0665 380.377 68.9237 380.149 68.8183C379.925 68.7128 379.659 68.6601 379.351 68.6601C378.908 68.6601 378.545 68.7788 378.264 69.016C377.987 69.2533 377.783 69.5718 377.651 69.9716C377.524 70.3671 377.46 70.802 377.46 71.2766V71.415C377.46 71.8895 377.524 72.3223 377.651 72.7133C377.783 73.1043 377.987 73.4185 378.264 73.6558C378.541 73.8886 378.899 74.0051 379.338 74.0051ZM381.124 74.9014L381.019 73.5174V64.7783H382.251V74.9014H381.124ZM386.766 75.0332C386.137 75.0332 385.606 74.9211 385.171 74.6971C384.736 74.473 384.406 74.1852 384.182 73.8337C383.958 73.4778 383.846 73.1021 383.846 72.7067H385.079C385.101 73.0406 385.197 73.3065 385.369 73.5042C385.544 73.6975 385.757 73.8359 386.008 73.9194C386.263 74.0029 386.515 74.0446 386.766 74.0446C387.1 74.0446 387.379 74.0007 387.603 73.9128C387.831 73.8205 388.003 73.6975 388.117 73.5437C388.235 73.3855 388.295 73.2076 388.295 73.0099C388.295 72.8341 388.255 72.6716 388.176 72.5222C388.101 72.3684 387.948 72.23 387.715 72.107C387.482 71.9796 387.13 71.8675 386.66 71.7709C386.133 71.661 385.676 71.5226 385.289 71.3557C384.907 71.1843 384.611 70.9668 384.4 70.7032C384.193 70.4396 384.09 70.1122 384.09 69.7212C384.09 69.3433 384.198 68.9984 384.413 68.6865C384.633 68.3701 384.94 68.1175 385.336 67.9286C385.735 67.7352 386.201 67.6386 386.733 67.6386C387.304 67.6386 387.792 67.7396 388.196 67.9418C388.605 68.1395 388.916 68.4075 389.132 68.7458C389.347 69.0797 389.455 69.451 389.455 69.8596H388.222C388.222 69.5652 388.093 69.2862 387.833 69.0226C387.579 68.759 387.212 68.6272 386.733 68.6272C386.399 68.6272 386.126 68.6799 385.916 68.7853C385.709 68.8864 385.557 69.0182 385.461 69.1808C385.369 69.3389 385.322 69.5059 385.322 69.6817C385.322 69.8574 385.366 70.0112 385.454 70.143C385.542 70.2704 385.702 70.3846 385.935 70.4857C386.173 70.5868 386.515 70.6878 386.963 70.7889C387.548 70.9207 388.029 71.0789 388.407 71.2634C388.785 71.4479 389.066 71.6742 389.25 71.9422C389.435 72.2102 389.527 72.5376 389.527 72.9242C389.527 73.3372 389.413 73.7041 389.184 74.0248C388.956 74.3412 388.635 74.5894 388.222 74.7696C387.809 74.9453 387.324 75.0332 386.766 75.0332Z" fill="#6B7280"/>
</svg>
