<svg width="471" height="392" viewBox="0 0 471 392" fill="none" xmlns="http://www.w3.org/2000/svg">
<path d="M235.51 96.5645L235.51 95.9609L234.303 95.9609L234.303 96.5645L234.906 96.5645L235.51 96.5645ZM234.479 180.611C234.715 180.846 235.097 180.846 235.333 180.611L239.174 176.77C239.409 176.534 239.409 176.152 239.174 175.916C238.938 175.681 238.556 175.681 238.32 175.916L234.906 179.33L231.492 175.916C231.257 175.681 230.874 175.681 230.639 175.916C230.403 176.152 230.403 176.534 230.639 176.77L234.479 180.611ZM234.906 96.5645L234.303 96.5645L234.303 98.8872L234.906 98.8872L235.51 98.8872L235.51 96.5645L234.906 96.5645ZM234.906 103.533L234.303 103.533L234.303 108.178L234.906 108.178L235.51 108.178L235.51 103.533L234.906 103.533ZM234.906 112.824L234.303 112.824L234.303 117.469L234.906 117.469L235.51 117.469L235.51 112.824L234.906 112.824ZM234.906 122.115L234.303 122.115L234.303 126.76L234.906 126.76L235.51 126.76L235.51 122.115L234.906 122.115ZM234.906 131.406L234.303 131.406L234.303 136.051L234.906 136.051L235.51 136.051L235.51 131.406L234.906 131.406ZM234.906 140.697L234.303 140.697L234.303 145.342L234.906 145.342L235.51 145.342L235.51 140.697L234.906 140.697ZM234.906 149.988L234.303 149.988L234.303 154.633L234.906 154.633L235.51 154.633L235.51 149.988L234.906 149.988ZM234.906 159.279L234.303 159.279L234.303 163.924L234.906 163.924L235.51 163.924L235.51 159.279L234.906 159.279ZM234.906 168.57L234.303 168.57L234.303 173.216L234.906 173.216L235.51 173.216L235.51 168.57L234.906 168.57ZM234.906 177.861L234.303 177.861L234.303 180.184L234.906 180.184L235.51 180.184L235.51 177.861L234.906 177.861Z" fill="#FF8A7B"/>
<path d="M236.104 297.334L236.104 296.73L234.896 296.73L234.896 297.334L235.5 297.334L236.104 297.334ZM235.073 329.233C235.309 329.468 235.691 329.468 235.927 329.233L239.767 325.392C240.003 325.156 240.003 324.774 239.767 324.538C239.532 324.303 239.15 324.303 238.914 324.538L235.5 327.952L232.086 324.538C231.85 324.303 231.468 324.303 231.233 324.538C230.997 324.774 230.997 325.156 231.233 325.392L235.073 329.233ZM235.5 297.334L234.896 297.334L234.896 328.806L235.5 328.806L236.104 328.806L236.104 297.334L235.5 297.334Z" fill="#4B5563"/>
<rect x="0.421795" y="340.074" width="470.131" height="51.459" rx="6.32692" fill="#FFE8E5" fill-opacity="0.5"/>
<rect x="0.421795" y="340.074" width="470.131" height="51.459" rx="6.32692" stroke="#FF604F" stroke-width="0.84359"/>
<path d="M16.8711 355.681V362.008H17.6075M17.6075 362.008C18.4476 359.93 19.9532 358.19 21.8884 357.06C23.8236 355.93 26.079 355.474 28.3013 355.764C30.5235 356.053 32.5869 357.071 34.1681 358.66C35.7493 360.248 36.7589 362.315 37.0388 364.539M17.6075 362.008H23.198M37.1172 375.927V369.6H36.3821M36.3821 369.6C35.5408 371.677 34.0348 373.416 32.0998 374.545C30.1648 375.674 27.91 376.129 25.6884 375.84C23.4669 375.55 21.404 374.533 19.8226 372.946C18.2413 371.359 17.2309 369.292 16.9495 367.07M36.3821 369.6H30.7903" stroke="#FF3B27" stroke-width="1.68718" stroke-linecap="round" stroke-linejoin="round"/>
<path d="M53.6487 360.407H54.508L54.2369 362.328L52.455 368.804H51.5785L51.9879 366.658L53.6487 360.407ZM51.8668 366.584L52.109 368.804H51.2094L49.2314 360.407H50.5347L51.8668 366.584ZM57.8181 360.407H59.1271L57.1491 368.804H56.2495L56.509 366.566L57.8181 360.407ZM56.3764 366.664L56.7858 368.804H55.9093L54.1677 362.328L53.9025 360.407H54.7502L56.3764 366.664ZM59.6634 365.62C59.6634 365.017 59.7788 364.477 60.0094 364C60.2401 363.523 60.5688 363.147 60.9955 362.87C61.4261 362.589 61.9374 362.449 62.5295 362.449C63.1331 362.449 63.6502 362.589 64.0807 362.87C64.5113 363.147 64.84 363.523 65.0668 364C65.2975 364.477 65.4129 365.017 65.4129 365.62V365.753C65.4129 366.353 65.2975 366.893 65.0668 367.374C64.84 367.85 64.5113 368.227 64.0807 368.504C63.654 368.781 63.1408 368.919 62.541 368.919C61.9451 368.919 61.4319 368.781 61.0013 368.504C60.5707 368.227 60.2401 367.85 60.0094 367.374C59.7788 366.893 59.6634 366.353 59.6634 365.753V365.62ZM60.9263 365.753C60.9263 366.141 60.984 366.499 61.0993 366.826C61.2147 367.153 61.3915 367.416 61.6299 367.616C61.8682 367.812 62.172 367.91 62.541 367.91C62.9101 367.91 63.2138 367.812 63.4522 367.616C63.6905 367.416 63.8674 367.153 63.9827 366.826C64.098 366.499 64.1557 366.141 64.1557 365.753V365.62C64.1557 365.236 64.098 364.88 63.9827 364.554C63.8674 364.223 63.6886 363.958 63.4464 363.758C63.208 363.558 62.9024 363.458 62.5295 363.458C62.1681 363.458 61.8663 363.558 61.6241 363.758C61.3858 363.958 61.2089 364.223 61.0936 364.554C60.9821 364.88 60.9263 365.236 60.9263 365.62V365.753ZM67.9156 368.804H66.6585V362.564H67.8695L67.9156 363.666V368.804ZM69.8302 363.7C69.7379 363.685 69.6476 363.673 69.5591 363.666C69.4707 363.658 69.3784 363.654 69.2823 363.654C68.9594 363.654 68.6884 363.717 68.4692 363.844C68.2539 363.967 68.0886 364.14 67.9733 364.363C67.8579 364.582 67.7887 364.84 67.7657 365.136L67.4485 365.223C67.4485 364.707 67.5158 364.24 67.6503 363.821C67.7887 363.402 67.9983 363.07 68.2789 362.824C68.5596 362.574 68.9171 362.449 69.3515 362.449C69.4284 362.449 69.5168 362.456 69.6168 362.472C69.7168 362.487 69.7898 362.506 69.8359 362.53L69.8302 363.7ZM72.0158 368.804H70.7586V359.946H72.0158V368.804ZM73.1518 365.528L71.6352 367.085L71.3987 365.92L72.5117 364.565L74.334 362.564H75.8564L73.1518 365.528ZM72.5521 365.857L73.2844 364.888L76.1159 368.804H74.6511L72.5521 365.857ZM77.35 368.804V361.964C77.35 361.272 77.548 360.744 77.9439 360.379C78.3399 360.009 78.8993 359.825 79.6221 359.825C79.7643 359.825 79.9315 359.835 80.1238 359.854C80.3198 359.873 80.5294 359.898 80.7523 359.929C80.9792 359.956 81.206 359.986 81.4328 360.021C81.6635 360.056 81.8826 360.09 82.0902 360.125L81.5309 361.076C81.1656 361.011 80.8331 360.961 80.5332 360.926C80.2372 360.888 79.9758 360.869 79.7489 360.869C79.3799 360.869 79.0973 360.963 78.9012 361.151C78.7052 361.34 78.6071 361.611 78.6071 361.964V368.804H77.35ZM80.8273 360.125H82.0902V368.804H80.8273V360.125ZM79.9046 363.498H76.3812V362.564H79.9046V363.498ZM83.4454 365.62C83.4454 365.017 83.5607 364.477 83.7914 364C84.0221 363.523 84.3508 363.147 84.7775 362.87C85.2081 362.589 85.7194 362.449 86.3115 362.449C86.9151 362.449 87.4321 362.589 87.8627 362.87C88.2933 363.147 88.622 363.523 88.8488 364C89.0795 364.477 89.1948 365.017 89.1948 365.62V365.753C89.1948 366.353 89.0795 366.893 88.8488 367.374C88.622 367.85 88.2933 368.227 87.8627 368.504C87.436 368.781 86.9227 368.919 86.323 368.919C85.7271 368.919 85.2139 368.781 84.7833 368.504C84.3527 368.227 84.0221 367.85 83.7914 367.374C83.5607 366.893 83.4454 366.353 83.4454 365.753V365.62ZM84.7083 365.753C84.7083 366.141 84.766 366.499 84.8813 366.826C84.9967 367.153 85.1735 367.416 85.4119 367.616C85.6502 367.812 85.9539 367.91 86.323 367.91C86.6921 367.91 86.9958 367.812 87.2341 367.616C87.4725 367.416 87.6494 367.153 87.7647 366.826C87.88 366.499 87.9377 366.141 87.9377 365.753V365.62C87.9377 365.236 87.88 364.88 87.7647 364.554C87.6494 364.223 87.4706 363.958 87.2284 363.758C86.99 363.558 86.6844 363.458 86.3115 363.458C85.9501 363.458 85.6483 363.558 85.4061 363.758C85.1677 363.958 84.9909 364.223 84.8756 364.554C84.7641 364.88 84.7083 365.236 84.7083 365.62V365.753ZM93.5948 362.564H94.408L94.2177 363.844L92.6779 368.804H91.934L92.0782 367.529L93.5948 362.564ZM92.3838 367.57L92.4703 368.804H91.6515L89.9041 362.564H91.144L92.3838 367.57ZM97.0203 362.564H98.2544L96.507 368.804H95.6939L95.8323 367.518L97.0203 362.564ZM96.0572 367.466L96.2302 368.804H95.4806L93.9062 363.839L93.7217 362.564H94.5694L96.0572 367.466ZM105.238 360.407C105.876 360.407 106.418 360.503 106.864 360.696C107.31 360.888 107.65 361.172 107.885 361.549C108.119 361.922 108.237 362.383 108.237 362.933C108.237 363.337 108.158 363.698 108 364.017C107.846 364.333 107.625 364.602 107.337 364.825C107.052 365.044 106.712 365.209 106.316 365.321L105.936 365.499H103.306V364.45H105.261C105.63 364.45 105.938 364.384 106.184 364.254C106.43 364.123 106.614 363.946 106.737 363.723C106.86 363.5 106.922 363.25 106.922 362.974C106.922 362.516 106.787 362.151 106.518 361.878C106.253 361.601 105.826 361.463 105.238 361.463H103.664V368.804H102.355V360.407H105.238ZM105.186 365.015H106.564L108.588 368.729V368.804H107.187L105.186 365.015ZM112.244 368.919C111.645 368.919 111.126 368.788 110.687 368.527C110.249 368.262 109.909 367.902 109.667 367.449C109.428 366.991 109.309 366.476 109.309 365.903V365.661C109.309 365 109.434 364.429 109.684 363.948C109.938 363.468 110.276 363.098 110.699 362.841C111.126 362.579 111.591 362.449 112.095 362.449C112.694 362.449 113.186 362.581 113.571 362.847C113.959 363.108 114.247 363.469 114.436 363.931C114.624 364.388 114.718 364.913 114.718 365.505V366.053H109.972V365.107H113.467V365.009C113.455 364.748 113.404 364.5 113.311 364.265C113.223 364.027 113.081 363.833 112.885 363.683C112.688 363.533 112.423 363.458 112.089 363.458C111.777 363.458 111.506 363.546 111.276 363.723C111.049 363.9 110.874 364.154 110.751 364.484C110.628 364.811 110.566 365.203 110.566 365.661V365.903C110.566 366.276 110.636 366.614 110.774 366.918C110.912 367.222 111.112 367.464 111.374 367.645C111.639 367.821 111.954 367.91 112.319 367.91C112.673 367.91 112.979 367.839 113.236 367.696C113.498 367.554 113.725 367.356 113.917 367.103L114.62 367.737C114.424 368.037 114.134 368.31 113.75 368.556C113.365 368.798 112.863 368.919 112.244 368.919ZM118.842 368.919C118.315 368.919 117.879 368.794 117.533 368.544C117.187 368.29 116.917 367.939 116.725 367.489C116.533 367.039 116.404 366.516 116.339 365.92V365.459C116.404 364.852 116.533 364.323 116.725 363.873C116.917 363.423 117.185 363.074 117.527 362.824C117.873 362.574 118.307 362.449 118.83 362.449C119.361 362.449 119.807 362.583 120.168 362.852C120.529 363.118 120.802 363.491 120.987 363.971C121.171 364.448 121.264 365 121.264 365.626V365.747C121.264 366.359 121.171 366.905 120.987 367.385C120.802 367.862 120.529 368.237 120.168 368.51C119.807 368.783 119.364 368.919 118.842 368.919ZM115.872 368.804V359.946H117.129V367.523L117.019 368.804H115.872ZM118.524 367.881C118.886 367.881 119.174 367.787 119.389 367.598C119.609 367.406 119.766 367.149 119.862 366.826C119.958 366.503 120.006 366.143 120.006 365.747V365.626C120.006 365.238 119.96 364.882 119.868 364.559C119.776 364.233 119.62 363.971 119.401 363.775C119.186 363.579 118.89 363.481 118.513 363.481C118.259 363.481 118.04 363.525 117.855 363.614C117.671 363.698 117.513 363.815 117.383 363.965C117.256 364.115 117.154 364.288 117.077 364.484C117.004 364.681 116.95 364.886 116.915 365.101V366.284C116.965 366.564 117.052 366.828 117.175 367.074C117.298 367.316 117.469 367.512 117.688 367.662C117.911 367.808 118.19 367.881 118.524 367.881ZM126.292 362.564H127.549V368.804H126.361L126.292 367.345V362.564ZM126.955 366.024C126.955 366.582 126.875 367.078 126.713 367.512C126.552 367.946 126.294 368.29 125.94 368.544C125.587 368.794 125.122 368.919 124.545 368.919C123.93 368.919 123.432 368.738 123.051 368.377C122.675 368.016 122.486 367.422 122.486 366.595V362.564H123.749V366.607C123.749 366.937 123.797 367.197 123.893 367.385C123.993 367.57 124.124 367.698 124.285 367.771C124.451 367.845 124.626 367.881 124.81 367.881C125.229 367.881 125.562 367.8 125.808 367.639C126.054 367.474 126.229 367.251 126.333 366.97C126.44 366.689 126.494 366.378 126.494 366.036L126.955 366.024ZM129.798 360.234C130.033 360.234 130.214 360.302 130.34 360.436C130.467 360.567 130.531 360.728 130.531 360.921C130.531 361.113 130.467 361.274 130.34 361.405C130.214 361.536 130.033 361.601 129.798 361.601C129.568 361.601 129.389 361.536 129.262 361.405C129.139 361.274 129.078 361.113 129.078 360.921C129.078 360.728 129.139 360.567 129.262 360.436C129.389 360.302 129.568 360.234 129.798 360.234ZM130.433 368.804H129.176V362.564H130.433V368.804ZM133.414 368.804H132.157V359.946H133.414V368.804ZM137.209 368.919C136.713 368.919 136.28 368.783 135.911 368.51C135.546 368.233 135.261 367.856 135.058 367.379C134.858 366.903 134.758 366.361 134.758 365.753V365.632C134.758 364.998 134.858 364.442 135.058 363.965C135.261 363.485 135.546 363.112 135.911 362.847C136.28 362.581 136.717 362.449 137.22 362.449C137.735 362.449 138.164 362.574 138.506 362.824C138.852 363.074 139.123 363.425 139.319 363.879C139.515 364.329 139.644 364.859 139.706 365.471V365.932C139.644 366.528 139.515 367.051 139.319 367.5C139.127 367.946 138.858 368.294 138.512 368.544C138.166 368.794 137.731 368.919 137.209 368.919ZM137.526 367.881C137.856 367.881 138.129 367.81 138.345 367.668C138.56 367.522 138.729 367.329 138.852 367.091C138.979 366.853 139.073 366.587 139.135 366.295V365.113C139.1 364.89 139.042 364.681 138.962 364.484C138.885 364.288 138.783 364.115 138.656 363.965C138.529 363.815 138.373 363.698 138.189 363.614C138.004 363.525 137.787 363.481 137.537 363.481C137.176 363.481 136.884 363.579 136.661 363.775C136.438 363.967 136.274 364.227 136.171 364.554C136.067 364.88 136.015 365.24 136.015 365.632V365.753C136.015 366.145 136.067 366.503 136.171 366.826C136.274 367.145 136.436 367.4 136.655 367.593C136.878 367.785 137.168 367.881 137.526 367.881ZM138.991 368.804L138.875 367.547V359.946H140.138V368.804H138.991Z" fill="#374151"/>
<path d="M176.115 360.742V365.804L179.911 369.6M187.503 365.804C187.503 367.299 187.209 368.78 186.637 370.162C186.064 371.543 185.225 372.799 184.168 373.856C183.11 374.914 181.855 375.753 180.473 376.325C179.091 376.897 177.611 377.192 176.115 377.192C174.619 377.192 173.139 376.897 171.757 376.325C170.375 375.753 169.12 374.914 168.062 373.856C167.005 372.799 166.166 371.543 165.593 370.162C165.021 368.78 164.727 367.299 164.727 365.804C164.727 362.783 165.926 359.886 168.062 357.751C170.198 355.615 173.095 354.415 176.115 354.415C179.135 354.415 182.032 355.615 184.168 357.751C186.304 359.886 187.503 362.783 187.503 365.804Z" stroke="#FF3B27" stroke-width="1.68718" stroke-linecap="round" stroke-linejoin="round"/>
<path d="M199.91 364.952V363.965H201.789C202.262 363.965 202.633 363.856 202.902 363.637C203.175 363.418 203.312 363.108 203.312 362.708C203.312 362.27 203.185 361.953 202.931 361.757C202.678 361.561 202.289 361.463 201.766 361.463H200.261V368.804H198.952V360.407H201.766C202.658 360.407 203.356 360.588 203.86 360.949C204.367 361.311 204.621 361.882 204.621 362.662C204.621 363.008 204.534 363.323 204.361 363.608C204.192 363.892 203.946 364.125 203.623 364.306C203.3 364.483 202.912 364.59 202.458 364.629L202.032 364.952H199.91ZM199.454 368.804L200.111 367.754H201.98C202.48 367.754 202.86 367.627 203.122 367.374C203.387 367.12 203.519 366.785 203.519 366.37C203.519 366.078 203.468 365.826 203.364 365.615C203.264 365.403 203.104 365.24 202.885 365.125C202.67 365.009 202.385 364.952 202.032 364.952H200.423V363.965H202.58L202.862 364.34C203.3 364.359 203.664 364.465 203.952 364.657C204.244 364.846 204.463 365.09 204.609 365.39C204.756 365.686 204.829 366.011 204.829 366.364C204.829 367.16 204.573 367.766 204.062 368.181C203.55 368.596 202.856 368.804 201.98 368.804H199.454ZM209.805 364.559C209.805 364.21 209.705 363.933 209.505 363.729C209.309 363.521 209.013 363.418 208.617 363.418C208.375 363.418 208.164 363.46 207.983 363.544C207.802 363.625 207.662 363.735 207.562 363.873C207.462 364.012 207.412 364.165 207.412 364.334H206.155C206.155 364.015 206.259 363.714 206.466 363.429C206.674 363.141 206.968 362.906 207.349 362.726C207.729 362.541 208.175 362.449 208.686 362.449C209.148 362.449 209.557 362.528 209.915 362.685C210.276 362.839 210.559 363.074 210.763 363.389C210.966 363.704 211.068 364.098 211.068 364.571V367.397C211.068 367.647 211.087 367.887 211.126 368.117C211.164 368.344 211.22 368.542 211.293 368.711V368.804H210.001C209.94 368.665 209.892 368.487 209.857 368.267C209.823 368.044 209.805 367.831 209.805 367.627V364.559ZM210.001 365.828H208.992C208.435 365.828 208.01 365.924 207.718 366.116C207.425 366.305 207.279 366.574 207.279 366.924C207.279 367.197 207.372 367.425 207.556 367.61C207.741 367.795 208.006 367.887 208.352 367.887C208.656 367.887 208.923 367.825 209.154 367.702C209.384 367.575 209.565 367.42 209.696 367.235C209.826 367.051 209.896 366.874 209.903 366.705L210.365 367.281C210.326 367.443 210.249 367.618 210.134 367.806C210.022 367.991 209.873 368.167 209.684 368.337C209.496 368.506 209.273 368.646 209.015 368.758C208.758 368.865 208.464 368.919 208.133 368.919C207.718 368.919 207.351 368.838 207.031 368.677C206.716 368.515 206.468 368.294 206.288 368.014C206.111 367.729 206.022 367.414 206.022 367.068C206.022 366.399 206.272 365.89 206.772 365.54C207.276 365.186 207.969 365.009 208.854 365.009H210.001V365.828ZM215.382 363.498H211.916V362.564H215.382V363.498ZM214.246 361.042V367.149C214.246 367.352 214.274 367.506 214.332 367.61C214.394 367.714 214.474 367.783 214.574 367.818C214.678 367.852 214.792 367.87 214.915 367.87C215.007 367.87 215.099 367.864 215.191 367.852C215.287 367.837 215.361 367.823 215.41 367.812V368.792C215.307 368.827 215.184 368.856 215.041 368.879C214.899 368.906 214.73 368.919 214.534 368.919C214.242 368.919 213.978 368.865 213.744 368.758C213.509 368.646 213.325 368.465 213.19 368.216C213.056 367.962 212.988 367.623 212.988 367.201V361.042H214.246ZM219.072 368.919C218.438 368.919 217.913 368.777 217.498 368.492C217.083 368.208 216.771 367.829 216.564 367.356C216.36 366.88 216.258 366.359 216.258 365.793V365.574C216.258 365.005 216.362 364.484 216.57 364.012C216.777 363.539 217.089 363.16 217.504 362.876C217.919 362.591 218.44 362.449 219.067 362.449C219.563 362.449 219.997 362.549 220.37 362.749C220.747 362.945 221.041 363.218 221.252 363.568C221.464 363.914 221.577 364.311 221.592 364.761H220.404C220.389 364.523 220.326 364.306 220.214 364.11C220.103 363.91 219.949 363.752 219.753 363.637C219.557 363.518 219.326 363.458 219.061 363.458C218.661 363.458 218.348 363.562 218.121 363.769C217.898 363.977 217.74 364.242 217.648 364.565C217.56 364.888 217.515 365.224 217.515 365.574V365.793C217.515 366.143 217.56 366.482 217.648 366.808C217.736 367.131 217.892 367.397 218.115 367.604C218.342 367.808 218.657 367.91 219.061 367.91C219.299 367.91 219.516 367.862 219.712 367.766C219.912 367.666 220.074 367.531 220.197 367.362C220.32 367.189 220.389 366.993 220.404 366.774H221.592C221.577 367.166 221.454 367.525 221.223 367.852C220.993 368.175 220.689 368.435 220.312 368.631C219.939 368.823 219.526 368.919 219.072 368.919ZM223.963 368.804H222.7V359.946H223.963V368.804ZM223.253 365.442C223.257 364.869 223.363 364.358 223.57 363.908C223.778 363.458 224.066 363.102 224.435 362.841C224.808 362.579 225.243 362.449 225.739 362.449C226.15 362.449 226.506 362.526 226.806 362.679C227.109 362.833 227.344 363.079 227.509 363.418C227.678 363.756 227.763 364.204 227.763 364.761V368.804H226.5V364.75C226.5 364.442 226.456 364.196 226.367 364.012C226.279 363.823 226.148 363.689 225.975 363.608C225.802 363.523 225.589 363.481 225.335 363.481C225.077 363.481 224.849 363.533 224.649 363.637C224.449 363.741 224.278 363.885 224.136 364.069C223.997 364.25 223.891 364.459 223.818 364.698C223.745 364.932 223.709 365.184 223.709 365.453L223.253 365.442ZM235.225 360.407C235.863 360.407 236.405 360.503 236.851 360.696C237.297 360.888 237.637 361.172 237.872 361.549C238.106 361.922 238.224 362.383 238.224 362.933C238.224 363.337 238.145 363.698 237.987 364.017C237.833 364.333 237.612 364.602 237.324 364.825C237.04 365.044 236.699 365.209 236.303 365.321L235.923 365.499H233.293V364.45H235.248C235.617 364.45 235.925 364.384 236.171 364.254C236.417 364.123 236.601 363.946 236.724 363.723C236.847 363.5 236.909 363.25 236.909 362.974C236.909 362.516 236.774 362.151 236.505 361.878C236.24 361.601 235.813 361.463 235.225 361.463H233.651V368.804H232.342V360.407H235.225ZM235.173 365.015H236.551L238.575 368.729V368.804H237.174L235.173 365.015ZM242.232 368.919C241.632 368.919 241.113 368.788 240.675 368.527C240.236 368.262 239.896 367.902 239.654 367.449C239.415 366.991 239.296 366.476 239.296 365.903V365.661C239.296 365 239.421 364.429 239.671 363.948C239.925 363.468 240.263 363.098 240.686 362.841C241.113 362.579 241.578 362.449 242.082 362.449C242.681 362.449 243.173 362.581 243.558 362.847C243.946 363.108 244.235 363.469 244.423 363.931C244.611 364.388 244.705 364.913 244.705 365.505V366.053H239.959V365.107H243.454V365.009C243.443 364.748 243.391 364.5 243.298 364.265C243.21 364.027 243.068 363.833 242.872 363.683C242.676 363.533 242.41 363.458 242.076 363.458C241.764 363.458 241.493 363.546 241.263 363.723C241.036 363.9 240.861 364.154 240.738 364.484C240.615 364.811 240.553 365.203 240.553 365.661V365.903C240.553 366.276 240.623 366.614 240.761 366.918C240.899 367.222 241.099 367.464 241.361 367.645C241.626 367.821 241.941 367.91 242.306 367.91C242.66 367.91 242.966 367.839 243.223 367.696C243.485 367.554 243.712 367.356 243.904 367.103L244.607 367.737C244.411 368.037 244.121 368.31 243.737 368.556C243.352 368.798 242.85 368.919 242.232 368.919ZM247.208 368.804H245.951V359.946H247.208V368.804ZM251.493 368.919C250.893 368.919 250.374 368.788 249.936 368.527C249.498 368.262 249.157 367.902 248.915 367.449C248.677 366.991 248.558 366.476 248.558 365.903V365.661C248.558 365 248.683 364.429 248.932 363.948C249.186 363.468 249.525 363.098 249.947 362.841C250.374 362.579 250.839 362.449 251.343 362.449C251.943 362.449 252.435 362.581 252.819 362.847C253.208 363.108 253.496 363.469 253.684 363.931C253.873 364.388 253.967 364.913 253.967 365.505V366.053H249.221V365.107H252.715V365.009C252.704 364.748 252.652 364.5 252.56 364.265C252.471 364.027 252.329 363.833 252.133 363.683C251.937 363.533 251.672 363.458 251.337 363.458C251.026 363.458 250.755 363.546 250.524 363.723C250.297 363.9 250.122 364.154 249.999 364.484C249.876 364.811 249.815 365.203 249.815 365.661V365.903C249.815 366.276 249.884 366.614 250.022 366.918C250.161 367.222 250.361 367.464 250.622 367.645C250.887 367.821 251.203 367.91 251.568 367.91C251.922 367.91 252.227 367.839 252.485 367.696C252.746 367.554 252.973 367.356 253.165 367.103L253.869 367.737C253.673 368.037 253.382 368.31 252.998 368.556C252.614 368.798 252.112 368.919 251.493 368.919ZM258.707 364.559C258.707 364.21 258.607 363.933 258.407 363.729C258.211 363.521 257.915 363.418 257.519 363.418C257.277 363.418 257.065 363.46 256.885 363.544C256.704 363.625 256.564 363.735 256.464 363.873C256.364 364.012 256.314 364.165 256.314 364.334H255.057C255.057 364.015 255.161 363.714 255.368 363.429C255.576 363.141 255.87 362.906 256.25 362.726C256.631 362.541 257.077 362.449 257.588 362.449C258.05 362.449 258.459 362.528 258.817 362.685C259.178 362.839 259.461 363.074 259.664 363.389C259.868 363.704 259.97 364.098 259.97 364.571V367.397C259.97 367.647 259.989 367.887 260.028 368.117C260.066 368.344 260.122 368.542 260.195 368.711V368.804H258.903C258.842 368.665 258.794 368.487 258.759 368.267C258.724 368.044 258.707 367.831 258.707 367.627V364.559ZM258.903 365.828H257.894C257.337 365.828 256.912 365.924 256.62 366.116C256.327 366.305 256.181 366.574 256.181 366.924C256.181 367.197 256.274 367.425 256.458 367.61C256.643 367.795 256.908 367.887 257.254 367.887C257.558 367.887 257.825 367.825 258.055 367.702C258.286 367.575 258.467 367.42 258.598 367.235C258.728 367.051 258.797 366.874 258.805 366.705L259.266 367.281C259.228 367.443 259.151 367.618 259.036 367.806C258.924 367.991 258.774 368.167 258.586 368.337C258.398 368.506 258.175 368.646 257.917 368.758C257.659 368.865 257.365 368.919 257.035 368.919C256.62 368.919 256.252 368.838 255.933 368.677C255.618 368.515 255.37 368.294 255.189 368.014C255.013 367.729 254.924 367.414 254.924 367.068C254.924 366.399 255.174 365.89 255.674 365.54C256.177 365.186 256.871 365.009 257.756 365.009H258.903V365.828ZM263.845 368.919C263.284 368.919 262.809 368.819 262.421 368.619C262.036 368.419 261.744 368.164 261.544 367.852C261.344 367.537 261.244 367.206 261.244 366.86H262.479C262.494 367.129 262.571 367.345 262.709 367.506C262.848 367.668 263.019 367.783 263.222 367.852C263.43 367.921 263.64 367.956 263.851 367.956C264.12 367.956 264.345 367.921 264.526 367.852C264.706 367.779 264.843 367.681 264.935 367.558C265.031 367.431 265.079 367.287 265.079 367.126C265.079 366.983 265.045 366.853 264.976 366.733C264.91 366.61 264.778 366.499 264.578 366.399C264.382 366.299 264.087 366.209 263.695 366.128C263.245 366.036 262.851 365.915 262.513 365.765C262.179 365.611 261.919 365.417 261.735 365.182C261.55 364.944 261.458 364.652 261.458 364.306C261.458 363.971 261.554 363.664 261.746 363.383C261.938 363.102 262.211 362.877 262.565 362.708C262.923 362.535 263.342 362.449 263.822 362.449C264.333 362.449 264.772 362.537 265.137 362.714C265.506 362.887 265.787 363.122 265.979 363.418C266.175 363.714 266.273 364.046 266.273 364.415H265.016C265.016 364.161 264.914 363.931 264.71 363.723C264.506 363.516 264.21 363.412 263.822 363.412C263.561 363.412 263.345 363.452 263.176 363.533C263.011 363.614 262.888 363.719 262.807 363.85C262.73 363.977 262.692 364.113 262.692 364.26C262.692 364.402 262.73 364.527 262.807 364.634C262.884 364.738 263.019 364.832 263.211 364.917C263.407 364.998 263.686 365.078 264.047 365.159C264.539 365.267 264.954 365.399 265.293 365.557C265.631 365.711 265.887 365.909 266.06 366.151C266.236 366.393 266.325 366.695 266.325 367.056C266.325 367.418 266.221 367.741 266.014 368.025C265.81 368.306 265.521 368.525 265.149 368.683C264.779 368.84 264.345 368.919 263.845 368.919ZM270.292 368.919C269.693 368.919 269.174 368.788 268.735 368.527C268.297 368.262 267.957 367.902 267.715 367.449C267.476 366.991 267.357 366.476 267.357 365.903V365.661C267.357 365 267.482 364.429 267.732 363.948C267.986 363.468 268.324 363.098 268.747 362.841C269.174 362.579 269.639 362.449 270.142 362.449C270.742 362.449 271.234 362.581 271.619 362.847C272.007 363.108 272.295 363.469 272.484 363.931C272.672 364.388 272.766 364.913 272.766 365.505V366.053H268.02V365.107H271.515V365.009C271.503 364.748 271.452 364.5 271.359 364.265C271.271 364.027 271.129 363.833 270.933 363.683C270.736 363.533 270.471 363.458 270.137 363.458C269.825 363.458 269.554 363.546 269.324 363.723C269.097 363.9 268.922 364.154 268.799 364.484C268.676 364.811 268.614 365.203 268.614 365.661V365.903C268.614 366.276 268.684 366.614 268.822 366.918C268.96 367.222 269.16 367.464 269.422 367.645C269.687 367.821 270.002 367.91 270.367 367.91C270.721 367.91 271.027 367.839 271.284 367.696C271.546 367.554 271.773 367.356 271.965 367.103L272.668 367.737C272.472 368.037 272.182 368.31 271.798 368.556C271.413 368.798 270.911 368.919 270.292 368.919ZM277.605 368.804V367.754H279.375C279.929 367.754 280.392 367.635 280.765 367.397C281.138 367.158 281.418 366.822 281.607 366.387C281.795 365.953 281.889 365.438 281.889 364.842V364.363C281.889 363.744 281.795 363.22 281.607 362.789C281.418 362.358 281.142 362.03 280.776 361.803C280.411 361.576 279.967 361.463 279.444 361.463H277.57V360.407H279.444C280.19 360.407 280.844 360.571 281.405 360.898C281.966 361.22 282.404 361.68 282.72 362.276C283.035 362.868 283.193 363.568 283.193 364.375V364.842C283.193 365.649 283.035 366.349 282.72 366.941C282.404 367.533 281.96 367.993 281.388 368.319C280.819 368.642 280.148 368.804 279.375 368.804H277.605ZM278.32 368.804H277.011V360.407H278.32V368.804ZM287.27 368.919C286.67 368.919 286.151 368.788 285.713 368.527C285.274 368.262 284.934 367.902 284.692 367.449C284.454 366.991 284.334 366.476 284.334 365.903V365.661C284.334 365 284.459 364.429 284.709 363.948C284.963 363.468 285.301 363.098 285.724 362.841C286.151 362.579 286.616 362.449 287.12 362.449C287.719 362.449 288.212 362.581 288.596 362.847C288.984 363.108 289.273 363.469 289.461 363.931C289.649 364.388 289.744 364.913 289.744 365.505V366.053H284.998V365.107H288.492V365.009C288.481 364.748 288.429 364.5 288.337 364.265C288.248 364.027 288.106 363.833 287.91 363.683C287.714 363.533 287.448 363.458 287.114 363.458C286.803 363.458 286.532 363.546 286.301 363.723C286.074 363.9 285.899 364.154 285.776 364.484C285.653 364.811 285.592 365.203 285.592 365.661V365.903C285.592 366.276 285.661 366.614 285.799 366.918C285.938 367.222 286.137 367.464 286.399 367.645C286.664 367.821 286.979 367.91 287.345 367.91C287.698 367.91 288.004 367.839 288.262 367.696C288.523 367.554 288.75 367.356 288.942 367.103L289.646 367.737C289.449 368.037 289.159 368.31 288.775 368.556C288.39 368.798 287.889 368.919 287.27 368.919ZM292.246 368.804H290.989V359.946H292.246V368.804ZM297.436 364.559C297.436 364.21 297.336 363.933 297.137 363.729C296.94 363.521 296.644 363.418 296.248 363.418C296.006 363.418 295.795 363.46 295.614 363.544C295.433 363.625 295.293 363.735 295.193 363.873C295.093 364.012 295.043 364.165 295.043 364.334H293.786C293.786 364.015 293.89 363.714 294.097 363.429C294.305 363.141 294.599 362.906 294.98 362.726C295.36 362.541 295.806 362.449 296.318 362.449C296.779 362.449 297.188 362.528 297.546 362.685C297.907 362.839 298.19 363.074 298.394 363.389C298.597 363.704 298.699 364.098 298.699 364.571V367.397C298.699 367.647 298.719 367.887 298.757 368.117C298.795 368.344 298.851 368.542 298.924 368.711V368.804H297.632C297.571 368.665 297.523 368.487 297.488 368.267C297.454 368.044 297.436 367.831 297.436 367.627V364.559ZM297.632 365.828H296.623C296.066 365.828 295.641 365.924 295.349 366.116C295.057 366.305 294.911 366.574 294.911 366.924C294.911 367.197 295.003 367.425 295.187 367.61C295.372 367.795 295.637 367.887 295.983 367.887C296.287 367.887 296.554 367.825 296.785 367.702C297.015 367.575 297.196 367.42 297.327 367.235C297.458 367.051 297.527 366.874 297.534 366.705L297.996 367.281C297.957 367.443 297.88 367.618 297.765 367.806C297.654 367.991 297.504 368.167 297.315 368.337C297.127 368.506 296.904 368.646 296.646 368.758C296.389 368.865 296.095 368.919 295.764 368.919C295.349 368.919 294.982 368.838 294.663 368.677C294.347 368.515 294.099 368.294 293.919 368.014C293.742 367.729 293.653 367.414 293.653 367.068C293.653 366.399 293.903 365.89 294.403 365.54C294.907 365.186 295.601 365.009 296.485 365.009H297.632V365.828ZM303.739 362.564H305.077L302.58 369.761C302.523 369.915 302.446 370.08 302.35 370.257C302.257 370.438 302.138 370.609 301.992 370.77C301.846 370.935 301.665 371.068 301.45 371.168C301.239 371.272 300.983 371.324 300.683 371.324C300.614 371.324 300.539 371.318 300.458 371.306C300.377 371.299 300.301 371.287 300.227 371.272C300.154 371.256 300.091 371.241 300.037 371.226V370.245C300.072 370.249 300.12 370.253 300.181 370.257C300.243 370.265 300.289 370.268 300.32 370.268C300.67 370.268 300.939 370.199 301.127 370.061C301.319 369.926 301.471 369.69 301.583 369.352L302.032 368.141L303.739 362.564ZM302.482 367.293L302.748 368.636L301.865 368.936L299.587 362.564H300.954L302.482 367.293Z" fill="#374151"/>
<path d="M340.232 362.008V364.539M340.232 369.6H340.245M351.137 358.191C347.136 358.404 343.214 357.021 340.232 354.345C337.25 357.021 333.328 358.404 329.327 358.191C329.005 359.438 328.843 360.72 328.844 362.008C328.844 369.083 333.683 375.029 340.232 376.714C346.782 375.029 351.621 369.084 351.621 362.008C351.621 360.689 351.452 359.411 351.137 358.191Z" stroke="#FF3B27" stroke-width="1.68718" stroke-linecap="round" stroke-linejoin="round"/>
<path d="M363.663 368.804V367.754H365.434C365.987 367.754 366.451 367.635 366.824 367.397C367.196 367.158 367.477 366.822 367.666 366.387C367.854 365.953 367.948 365.438 367.948 364.842V364.363C367.948 363.744 367.854 363.22 367.666 362.789C367.477 362.358 367.2 362.03 366.835 361.803C366.47 361.576 366.026 361.463 365.503 361.463H363.629V360.407H365.503C366.249 360.407 366.902 360.571 367.464 360.898C368.025 361.22 368.463 361.68 368.778 362.276C369.094 362.868 369.251 363.568 369.251 364.375V364.842C369.251 365.649 369.094 366.349 368.778 366.941C368.463 367.533 368.019 367.993 367.446 368.319C366.877 368.642 366.207 368.804 365.434 368.804H363.663ZM364.378 368.804H363.069V360.407H364.378V368.804ZM374.234 364.559C374.234 364.21 374.134 363.933 373.934 363.729C373.738 363.521 373.442 363.418 373.046 363.418C372.804 363.418 372.592 363.46 372.412 363.544C372.231 363.625 372.091 363.735 371.991 363.873C371.891 364.012 371.841 364.165 371.841 364.334H370.583C370.583 364.015 370.687 363.714 370.895 363.429C371.102 363.141 371.397 362.906 371.777 362.726C372.158 362.541 372.604 362.449 373.115 362.449C373.576 362.449 373.986 362.528 374.343 362.685C374.705 362.839 374.987 363.074 375.191 363.389C375.395 363.704 375.497 364.098 375.497 364.571V367.397C375.497 367.647 375.516 367.887 375.554 368.117C375.593 368.344 375.649 368.542 375.722 368.711V368.804H374.43C374.368 368.665 374.32 368.487 374.286 368.267C374.251 368.044 374.234 367.831 374.234 367.627V364.559ZM374.43 365.828H373.421C372.863 365.828 372.438 365.924 372.146 366.116C371.854 366.305 371.708 366.574 371.708 366.924C371.708 367.197 371.8 367.425 371.985 367.61C372.169 367.795 372.435 367.887 372.781 367.887C373.084 367.887 373.352 367.825 373.582 367.702C373.813 367.575 373.994 367.42 374.124 367.235C374.255 367.051 374.324 366.874 374.332 366.705L374.793 367.281C374.755 367.443 374.678 367.618 374.563 367.806C374.451 367.991 374.301 368.167 374.113 368.337C373.924 368.506 373.701 368.646 373.444 368.758C373.186 368.865 372.892 368.919 372.561 368.919C372.146 368.919 371.779 368.838 371.46 368.677C371.145 368.515 370.897 368.294 370.716 368.014C370.539 367.729 370.451 367.414 370.451 367.068C370.451 366.399 370.701 365.89 371.201 365.54C371.704 365.186 372.398 365.009 373.282 365.009H374.43V365.828ZM379.81 363.498H376.344V362.564H379.81V363.498ZM378.674 361.042V367.149C378.674 367.352 378.703 367.506 378.761 367.61C378.822 367.714 378.903 367.783 379.003 367.818C379.107 367.852 379.22 367.87 379.343 367.87C379.435 367.87 379.528 367.864 379.62 367.852C379.716 367.837 379.789 367.823 379.839 367.812V368.792C379.735 368.827 379.612 368.856 379.47 368.879C379.328 368.906 379.159 368.919 378.963 368.919C378.67 368.919 378.407 368.865 378.172 368.758C377.938 368.646 377.753 368.465 377.619 368.216C377.484 367.962 377.417 367.623 377.417 367.201V361.042H378.674ZM384.545 364.559C384.545 364.21 384.445 363.933 384.245 363.729C384.049 363.521 383.753 363.418 383.357 363.418C383.115 363.418 382.903 363.46 382.722 363.544C382.542 363.625 382.401 363.735 382.301 363.873C382.202 364.012 382.152 364.165 382.152 364.334H380.894C380.894 364.015 380.998 363.714 381.206 363.429C381.413 363.141 381.707 362.906 382.088 362.726C382.469 362.541 382.915 362.449 383.426 362.449C383.887 362.449 384.297 362.528 384.654 362.685C385.016 362.839 385.298 363.074 385.502 363.389C385.706 363.704 385.808 364.098 385.808 364.571V367.397C385.808 367.647 385.827 367.887 385.865 368.117C385.904 368.344 385.959 368.542 386.033 368.711V368.804H384.741C384.679 368.665 384.631 368.487 384.597 368.267C384.562 368.044 384.545 367.831 384.545 367.627V364.559ZM384.741 365.828H383.732C383.174 365.828 382.749 365.924 382.457 366.116C382.165 366.305 382.019 366.574 382.019 366.924C382.019 367.197 382.111 367.425 382.296 367.61C382.48 367.795 382.746 367.887 383.092 367.887C383.395 367.887 383.662 367.825 383.893 367.702C384.124 367.575 384.304 367.42 384.435 367.235C384.566 367.051 384.635 366.874 384.643 366.705L385.104 367.281C385.066 367.443 384.989 367.618 384.873 367.806C384.762 367.991 384.612 368.167 384.424 368.337C384.235 368.506 384.012 368.646 383.755 368.758C383.497 368.865 383.203 368.919 382.872 368.919C382.457 368.919 382.09 368.838 381.771 368.677C381.456 368.515 381.208 368.294 381.027 368.014C380.85 367.729 380.762 367.414 380.762 367.068C380.762 366.399 381.012 365.89 381.511 365.54C382.015 365.186 382.709 365.009 383.593 365.009H384.741V365.828ZM391.845 368.804H390.542V360.407H391.845V368.804ZM394.838 368.804H393.581V362.564H394.763L394.838 363.896V368.804ZM394.129 365.442C394.137 364.857 394.244 364.34 394.452 363.89C394.663 363.441 394.956 363.089 395.329 362.835C395.705 362.578 396.144 362.449 396.643 362.449C397.051 362.449 397.403 362.526 397.699 362.679C397.995 362.829 398.225 363.074 398.391 363.412C398.556 363.746 398.639 364.192 398.639 364.75V368.804H397.376V364.738C397.376 364.431 397.331 364.185 397.243 364C397.155 363.815 397.024 363.683 396.851 363.602C396.678 363.521 396.465 363.481 396.211 363.481C395.961 363.481 395.736 363.533 395.536 363.637C395.336 363.741 395.165 363.885 395.023 364.069C394.881 364.25 394.771 364.459 394.694 364.698C394.621 364.932 394.585 365.184 394.585 365.453L394.129 365.442ZM402.9 363.498H399.434V362.564H402.9V363.498ZM401.764 361.042V367.149C401.764 367.352 401.793 367.506 401.851 367.61C401.912 367.714 401.993 367.783 402.093 367.818C402.197 367.852 402.31 367.87 402.433 367.87C402.525 367.87 402.618 367.864 402.71 367.852C402.806 367.837 402.879 367.823 402.929 367.812V368.792C402.825 368.827 402.702 368.856 402.56 368.879C402.418 368.906 402.249 368.919 402.053 368.919C401.76 368.919 401.497 368.865 401.262 368.758C401.028 368.646 400.843 368.465 400.709 368.216C400.574 367.962 400.507 367.623 400.507 367.201V361.042H401.764ZM406.729 368.919C406.13 368.919 405.611 368.788 405.172 368.527C404.734 368.262 404.394 367.902 404.152 367.449C403.913 366.991 403.794 366.476 403.794 365.903V365.661C403.794 365 403.919 364.429 404.169 363.948C404.423 363.468 404.761 363.098 405.184 362.841C405.611 362.579 406.076 362.449 406.579 362.449C407.179 362.449 407.671 362.581 408.056 362.847C408.444 363.108 408.732 363.469 408.921 363.931C409.109 364.388 409.203 364.913 409.203 365.505V366.053H404.457V365.107H407.952V365.009C407.94 364.748 407.888 364.5 407.796 364.265C407.708 364.027 407.565 363.833 407.369 363.683C407.173 363.533 406.908 363.458 406.574 363.458C406.262 363.458 405.991 363.546 405.761 363.723C405.534 363.9 405.359 364.154 405.236 364.484C405.113 364.811 405.051 365.203 405.051 365.661V365.903C405.051 366.276 405.12 366.614 405.259 366.918C405.397 367.222 405.597 367.464 405.859 367.645C406.124 367.821 406.439 367.91 406.804 367.91C407.158 367.91 407.464 367.839 407.721 367.696C407.983 367.554 408.209 367.356 408.402 367.103L409.105 367.737C408.909 368.037 408.619 368.31 408.234 368.556C407.85 368.798 407.348 368.919 406.729 368.919ZM412.761 371.266C412.534 371.266 412.275 371.232 411.983 371.162C411.694 371.093 411.412 370.982 411.135 370.828C410.858 370.674 410.628 370.468 410.443 370.211L411.06 369.467C411.298 369.751 411.556 369.955 411.833 370.078C412.114 370.205 412.396 370.268 412.681 370.268C413.165 370.268 413.548 370.132 413.828 369.859C414.113 369.59 414.255 369.198 414.255 368.683V363.96L414.37 362.564H415.518V368.648C415.518 369.202 415.401 369.674 415.166 370.067C414.932 370.459 414.607 370.757 414.191 370.96C413.78 371.164 413.303 371.266 412.761 371.266ZM412.583 368.919C412.079 368.919 411.641 368.783 411.268 368.51C410.899 368.233 410.612 367.856 410.408 367.379C410.209 366.903 410.109 366.361 410.109 365.753V365.632C410.109 364.998 410.209 364.442 410.408 363.965C410.608 363.485 410.895 363.112 411.268 362.847C411.641 362.581 412.083 362.449 412.594 362.449C412.994 362.449 413.338 362.52 413.626 362.662C413.919 362.804 414.163 363.008 414.359 363.273C414.559 363.539 414.716 363.858 414.832 364.231C414.947 364.6 415.03 365.013 415.08 365.471V365.932C415.018 366.528 414.889 367.051 414.693 367.5C414.501 367.946 414.232 368.294 413.886 368.544C413.54 368.794 413.105 368.919 412.583 368.919ZM412.9 367.881C413.234 367.881 413.509 367.81 413.724 367.668C413.94 367.522 414.111 367.329 414.238 367.091C414.364 366.853 414.457 366.587 414.514 366.295V365.113C414.48 364.89 414.424 364.681 414.347 364.484C414.274 364.288 414.172 364.115 414.042 363.965C413.911 363.815 413.751 363.698 413.563 363.614C413.378 363.525 413.161 363.481 412.911 363.481C412.55 363.481 412.256 363.579 412.029 363.775C411.802 363.967 411.635 364.227 411.527 364.554C411.42 364.88 411.366 365.24 411.366 365.632V365.753C411.366 366.145 411.418 366.503 411.521 366.826C411.629 367.145 411.796 367.4 412.023 367.593C412.25 367.785 412.542 367.881 412.9 367.881ZM418.28 368.804H417.023V362.564H418.234L418.28 363.666V368.804ZM420.195 363.7C420.102 363.685 420.012 363.673 419.924 363.666C419.835 363.658 419.743 363.654 419.647 363.654C419.324 363.654 419.053 363.717 418.834 363.844C418.618 363.967 418.453 364.14 418.338 364.363C418.222 364.582 418.153 364.84 418.13 365.136L417.813 365.223C417.813 364.707 417.88 364.24 418.015 363.821C418.153 363.402 418.363 363.07 418.643 362.824C418.924 362.574 419.282 362.449 419.716 362.449C419.793 362.449 419.881 362.456 419.981 362.472C420.081 362.487 420.154 362.506 420.2 362.53L420.195 363.7ZM421.861 360.234C422.096 360.234 422.276 360.302 422.403 360.436C422.53 360.567 422.594 360.728 422.594 360.921C422.594 361.113 422.53 361.274 422.403 361.405C422.276 361.536 422.096 361.601 421.861 361.601C421.631 361.601 421.452 361.536 421.325 361.405C421.202 361.274 421.14 361.113 421.14 360.921C421.14 360.728 421.202 360.567 421.325 360.436C421.452 360.302 421.631 360.234 421.861 360.234ZM422.496 368.804H421.238V362.564H422.496V368.804ZM426.89 363.498H423.424V362.564H426.89V363.498ZM425.754 361.042V367.149C425.754 367.352 425.783 367.506 425.84 367.61C425.902 367.714 425.983 367.783 426.082 367.818C426.186 367.852 426.3 367.87 426.423 367.87C426.515 367.87 426.607 367.864 426.699 367.852C426.796 367.837 426.869 367.823 426.919 367.812V368.792C426.815 368.827 426.692 368.856 426.55 368.879C426.407 368.906 426.238 368.919 426.042 368.919C425.75 368.919 425.487 368.865 425.252 368.758C425.018 368.646 424.833 368.465 424.698 368.216C424.564 367.962 424.497 367.623 424.497 367.201V361.042H425.754ZM431.526 362.564H432.864L430.367 369.761C430.309 369.915 430.233 370.08 430.136 370.257C430.044 370.438 429.925 370.609 429.779 370.77C429.633 370.935 429.452 371.068 429.237 371.168C429.025 371.272 428.77 371.324 428.47 371.324C428.401 371.324 428.326 371.318 428.245 371.306C428.164 371.299 428.087 371.287 428.014 371.272C427.941 371.256 427.878 371.241 427.824 371.226V370.245C427.859 370.249 427.907 370.253 427.968 370.257C428.03 370.265 428.076 370.268 428.107 370.268C428.456 370.268 428.726 370.199 428.914 370.061C429.106 369.926 429.258 369.69 429.369 369.352L429.819 368.141L431.526 362.564ZM430.269 367.293L430.534 368.636L429.652 368.936L427.374 362.564H428.741L430.269 367.293ZM439.709 360.407C440.347 360.407 440.889 360.503 441.335 360.696C441.781 360.888 442.122 361.172 442.356 361.549C442.591 361.922 442.708 362.383 442.708 362.933C442.708 363.337 442.629 363.698 442.471 364.017C442.318 364.333 442.097 364.602 441.808 364.825C441.524 365.044 441.184 365.209 440.788 365.321L440.407 365.499H437.777V364.45H439.732C440.101 364.45 440.409 364.384 440.655 364.254C440.901 364.123 441.086 363.946 441.209 363.723C441.332 363.5 441.393 363.25 441.393 362.974C441.393 362.516 441.259 362.151 440.989 361.878C440.724 361.601 440.297 361.463 439.709 361.463H438.135V368.804H436.826V360.407H439.709ZM439.657 365.015H441.036L443.06 368.729V368.804H441.658L439.657 365.015ZM444.778 360.234C445.013 360.234 445.193 360.302 445.32 360.436C445.447 360.567 445.511 360.728 445.511 360.921C445.511 361.113 445.447 361.274 445.32 361.405C445.193 361.536 445.013 361.601 444.778 361.601C444.548 361.601 444.369 361.536 444.242 361.405C444.119 361.274 444.057 361.113 444.057 360.921C444.057 360.728 444.119 360.567 444.242 360.436C444.369 360.302 444.548 360.234 444.778 360.234ZM445.413 368.804H444.155V362.564H445.413V368.804ZM449.369 368.919C448.807 368.919 448.332 368.819 447.944 368.619C447.56 368.419 447.267 368.164 447.068 367.852C446.868 367.537 446.768 367.206 446.768 366.86H448.002C448.017 367.129 448.094 367.345 448.232 367.506C448.371 367.668 448.542 367.783 448.746 367.852C448.953 367.921 449.163 367.956 449.374 367.956C449.643 367.956 449.868 367.921 450.049 367.852C450.23 367.779 450.366 367.681 450.458 367.558C450.555 367.431 450.603 367.287 450.603 367.126C450.603 366.983 450.568 366.853 450.499 366.733C450.433 366.61 450.301 366.499 450.101 366.399C449.905 366.299 449.611 366.209 449.219 366.128C448.769 366.036 448.375 365.915 448.036 365.765C447.702 365.611 447.442 365.417 447.258 365.182C447.073 364.944 446.981 364.652 446.981 364.306C446.981 363.971 447.077 363.664 447.269 363.383C447.462 363.102 447.735 362.877 448.088 362.708C448.446 362.535 448.865 362.449 449.345 362.449C449.857 362.449 450.295 362.537 450.66 362.714C451.029 362.887 451.31 363.122 451.502 363.418C451.698 363.714 451.796 364.046 451.796 364.415H450.539C450.539 364.161 450.437 363.931 450.234 363.723C450.03 363.516 449.734 363.412 449.345 363.412C449.084 363.412 448.869 363.452 448.7 363.533C448.534 363.614 448.411 363.719 448.33 363.85C448.254 363.977 448.215 364.113 448.215 364.26C448.215 364.402 448.254 364.527 448.33 364.634C448.407 364.738 448.542 364.832 448.734 364.917C448.93 364.998 449.209 365.078 449.57 365.159C450.062 365.267 450.478 365.399 450.816 365.557C451.154 365.711 451.41 365.909 451.583 366.151C451.76 366.393 451.848 366.695 451.848 367.056C451.848 367.418 451.744 367.741 451.537 368.025C451.333 368.306 451.045 368.525 450.672 368.683C450.303 368.84 449.868 368.919 449.369 368.919ZM454.397 368.804H453.14V359.946H454.397V368.804ZM455.533 365.528L454.016 367.085L453.78 365.92L454.893 364.565L456.715 362.564H458.238L455.533 365.528ZM454.933 365.857L455.666 364.888L458.497 368.804H457.032L454.933 365.857Z" fill="#374151"/>
<path d="M82.1309 100.287V99.6836H80.9238V100.287H81.5273H82.1309ZM212.319 180.474C212.554 180.71 212.936 180.71 213.172 180.474L217.013 176.633C217.249 176.397 217.249 176.015 217.013 175.78C216.777 175.544 216.395 175.544 216.159 175.78L212.745 179.194L209.331 175.78C209.096 175.544 208.714 175.544 208.478 175.78C208.242 176.015 208.242 176.397 208.478 176.633L212.319 180.474ZM80.9238 103.06V103.664H82.1309V103.06H81.5273H80.9238ZM82.1309 108.606V108.003H80.9238V108.606H81.5273H82.1309ZM80.9238 114.152V114.756H82.1309V114.152H81.5273H80.9238ZM82.1309 119.698V119.095H80.9238V119.698H81.5273H82.1309ZM80.9238 125.244V125.848H82.1309V125.244H81.5273H80.9238ZM82.1309 130.791V130.187H80.9238V130.791H81.5273H82.1309ZM81.5527 136.735L81.7839 137.293L82.8989 136.83L82.6677 136.273L82.1102 136.504L81.5527 136.735ZM86.4995 140.105L85.9421 139.873L85.4797 140.988L86.0372 141.22L86.2684 140.662L86.4995 140.105ZM91.6223 141.848H92.2259V140.641H91.6223V141.245V141.848ZM96.4497 140.641H95.8461V141.848H96.4497V141.245V140.641ZM101.277 141.848H101.88V140.641H101.277V141.245V141.848ZM106.104 140.641H105.501V141.848H106.104V141.245V140.641ZM110.932 141.848H111.535V140.641H110.932V141.245V141.848ZM115.759 140.641H115.155V141.848H115.759V141.245V140.641ZM120.586 141.848H121.19V140.641H120.586V141.245V141.848ZM125.413 140.641H124.81V141.848H125.413V141.245V140.641ZM130.241 141.848H130.844V140.641H130.241V141.245V141.848ZM135.068 140.641H134.465V141.848H135.068V141.245V140.641ZM139.895 141.848H140.499V140.641H139.895V141.245V141.848ZM144.723 140.641H144.119V141.848H144.723V141.245V140.641ZM149.55 141.848H150.154V140.641H149.55V141.245V141.848ZM154.377 140.641H153.774V141.848H154.377V141.245V140.641ZM159.205 141.848H159.808V140.641H159.205V141.245V141.848ZM164.032 140.641H163.428V141.848H164.032V141.245V140.641ZM168.859 141.848H169.463V140.641H168.859V141.245V141.848ZM173.687 140.641H173.083V141.848H173.687V141.245V140.641ZM178.514 141.848H179.117V140.641H178.514V141.245V141.848ZM183.341 140.641H182.738V141.848H183.341V141.245V140.641ZM188.168 141.848H188.772V140.641H188.168V141.245V141.848ZM192.996 140.641H192.392V141.848H192.996V141.245V140.641ZM197.823 141.848H198.427V140.641H197.823V141.245V141.848ZM202.65 140.641H202.047V141.848H202.65V141.245V140.641ZM207.773 142.385L208.331 142.616L208.793 141.501L208.236 141.27L208.004 141.828L207.773 142.385ZM212.72 145.755L212.489 145.197L211.374 145.66L211.605 146.217L212.163 145.986L212.72 145.755ZM212.142 151.52V152.123H213.349V151.52H212.745H212.142ZM213.349 156.706V156.103H212.142V156.706H212.745H213.349ZM212.142 161.893V162.497H213.349V161.893H212.745H212.142ZM213.349 167.08V166.477H212.142V167.08H212.745H213.349ZM212.142 172.267V172.87H213.349V172.267H212.745H212.142ZM213.349 177.454V176.85H212.142V177.454H212.745H213.349ZM81.5273 100.287H80.9238V103.06H81.5273H82.1309V100.287H81.5273ZM81.5273 108.606H80.9238V114.152H81.5273H82.1309V108.606H81.5273ZM81.5273 119.698H80.9238V125.244H81.5273H82.1309V119.698H81.5273ZM81.5273 130.791H80.9238V133.564H81.5273H82.1309V130.791H81.5273ZM81.5273 133.564H80.9238C80.9238 134.686 81.1473 135.757 81.5527 136.735L82.1102 136.504L82.6677 136.273C82.322 135.439 82.1309 134.524 82.1309 133.564H81.5273ZM86.2684 140.662L86.0372 141.22C87.0149 141.625 88.0864 141.848 89.2087 141.848V141.245V140.641C88.2479 140.641 87.3332 140.45 86.4995 140.105L86.2684 140.662ZM89.2087 141.245V141.848H91.6223V141.245V140.641H89.2087V141.245ZM96.4497 141.245V141.848H101.277V141.245V140.641H96.4497V141.245ZM106.104 141.245V141.848H110.932V141.245V140.641H106.104V141.245ZM115.759 141.245V141.848H120.586V141.245V140.641H115.759V141.245ZM125.413 141.245V141.848H130.241V141.245V140.641H125.413V141.245ZM135.068 141.245V141.848H139.895V141.245V140.641H135.068V141.245ZM144.723 141.245V141.848H149.55V141.245V140.641H144.723V141.245ZM154.377 141.245V141.848H159.205V141.245V140.641H154.377V141.245ZM164.032 141.245V141.848H168.859V141.245V140.641H164.032V141.245ZM173.687 141.245V141.848H178.514V141.245V140.641H173.687V141.245ZM183.341 141.245V141.848H188.168V141.245V140.641H183.341V141.245ZM192.996 141.245V141.848H197.823V141.245V140.641H192.996V141.245ZM202.65 141.245V141.848H205.064V141.245V140.641H202.65V141.245ZM205.064 141.245V141.848C206.025 141.848 206.939 142.04 207.773 142.385L208.004 141.828L208.236 141.27C207.258 140.865 206.186 140.641 205.064 140.641V141.245ZM212.163 145.986L211.605 146.217C211.951 147.051 212.142 147.965 212.142 148.926H212.745H213.349C213.349 147.804 213.125 146.732 212.72 145.755L212.163 145.986ZM212.745 148.926H212.142V151.52H212.745H213.349V148.926H212.745ZM212.745 156.706H212.142V161.893H212.745H213.349V156.706H212.745ZM212.745 167.08H212.142V172.267H212.745H213.349V167.08H212.745ZM212.745 177.454H212.142V180.047H212.745H213.349V177.454H212.745Z" fill="#FF8A7B"/>
<path d="M384.525 100.287V99.6836H385.732V100.287H385.129H384.525ZM254.338 180.474C254.102 180.71 253.72 180.71 253.484 180.474L249.643 176.633C249.408 176.397 249.408 176.015 249.643 175.78C249.879 175.544 250.261 175.544 250.497 175.78L253.911 179.194L257.325 175.78C257.561 175.544 257.943 175.544 258.178 175.78C258.414 176.015 258.414 176.397 258.178 176.633L254.338 180.474ZM385.732 103.06V103.664H384.525V103.06H385.129H385.732ZM384.525 108.606V108.003H385.732V108.606H385.129H384.525ZM385.732 114.152V114.756H384.525V114.152H385.129H385.732ZM384.525 119.698V119.095H385.732V119.698H385.129H384.525ZM385.732 125.244V125.848H384.525V125.244H385.129H385.732ZM384.525 130.791V130.187H385.732V130.791H385.129H384.525ZM385.104 136.735L384.872 137.293L383.757 136.83L383.989 136.273L384.546 136.504L385.104 136.735ZM380.157 140.105L380.714 139.873L381.177 140.988L380.619 141.22L380.388 140.662L380.157 140.105ZM375.034 141.848H374.43V140.641H375.034V141.245V141.848ZM370.207 140.641H370.81V141.848H370.207V141.245V140.641ZM365.379 141.848H364.776V140.641H365.379V141.245V141.848ZM360.552 140.641H361.156V141.848H360.552V141.245V140.641ZM355.725 141.848H355.121V140.641H355.725V141.245V141.848ZM350.897 140.641H351.501V141.848H350.897V141.245V140.641ZM346.07 141.848H345.467V140.641H346.07V141.245V141.848ZM341.243 140.641H341.846V141.848H341.243V141.245V140.641ZM336.415 141.848H335.812V140.641H336.415V141.245V141.848ZM331.588 140.641H332.192V141.848H331.588V141.245V140.641ZM326.761 141.848H326.157V140.641H326.761V141.245V141.848ZM321.934 140.641H322.537V141.848H321.934V141.245V140.641ZM317.106 141.848H316.503V140.641H317.106V141.245V141.848ZM312.279 140.641H312.882V141.848H312.279V141.245V140.641ZM307.452 141.848H306.848V140.641H307.452V141.245V141.848ZM302.624 140.641H303.228V141.848H302.624V141.245V140.641ZM297.797 141.848H297.193V140.641H297.797V141.245V141.848ZM292.97 140.641H293.573V141.848H292.97V141.245V140.641ZM288.142 141.848H287.539V140.641H288.142V141.245V141.848ZM283.315 140.641H283.919V141.848H283.315V141.245V140.641ZM278.488 141.848H277.884V140.641H278.488V141.245V141.848ZM273.66 140.641H274.264V141.848H273.66V141.245V140.641ZM268.833 141.848H268.23V140.641H268.833V141.245V141.848ZM264.006 140.641H264.609V141.848H264.006V141.245V140.641ZM258.883 142.385L258.326 142.616L257.863 141.501L258.421 141.27L258.652 141.828L258.883 142.385ZM253.936 145.755L254.167 145.197L255.282 145.66L255.051 146.217L254.494 145.986L253.936 145.755ZM254.514 151.52V152.123H253.307V151.52H253.911H254.514ZM253.307 156.706V156.103H254.514V156.706H253.911H253.307ZM254.514 161.893V162.497H253.307V161.893H253.911H254.514ZM253.307 167.08V166.477H254.514V167.08H253.911H253.307ZM254.514 172.267V172.87H253.307V172.267H253.911H254.514ZM253.307 177.454V176.85H254.514V177.454H253.911H253.307ZM385.129 100.287H385.732V103.06H385.129H384.525V100.287H385.129ZM385.129 108.606H385.732V114.152H385.129H384.525V108.606H385.129ZM385.129 119.698H385.732V125.244H385.129H384.525V119.698H385.129ZM385.129 130.791H385.732V133.564H385.129H384.525V130.791H385.129ZM385.129 133.564H385.732C385.732 134.686 385.509 135.757 385.104 136.735L384.546 136.504L383.989 136.273C384.334 135.439 384.525 134.524 384.525 133.564H385.129ZM380.388 140.662L380.619 141.22C379.641 141.625 378.57 141.848 377.448 141.848V141.245V140.641C378.408 140.641 379.323 140.45 380.157 140.105L380.388 140.662ZM377.448 141.245V141.848H375.034V141.245V140.641H377.448V141.245ZM370.207 141.245V141.848H365.379V141.245V140.641H370.207V141.245ZM360.552 141.245V141.848H355.725V141.245V140.641H360.552V141.245ZM350.897 141.245V141.848H346.07V141.245V140.641H350.897V141.245ZM341.243 141.245V141.848H336.415V141.245V140.641H341.243V141.245ZM331.588 141.245V141.848H326.761V141.245V140.641H331.588V141.245ZM321.934 141.245V141.848H317.106V141.245V140.641H321.934V141.245ZM312.279 141.245V141.848H307.452V141.245V140.641H312.279V141.245ZM302.624 141.245V141.848H297.797V141.245V140.641H302.624V141.245ZM292.97 141.245V141.848H288.142V141.245V140.641H292.97V141.245ZM283.315 141.245V141.848H278.488V141.245V140.641H283.315V141.245ZM273.66 141.245V141.848H268.833V141.245V140.641H273.66V141.245ZM264.006 141.245V141.848H261.592V141.245V140.641H264.006V141.245ZM261.592 141.245V141.848C260.631 141.848 259.717 142.04 258.883 142.385L258.652 141.828L258.421 141.27C259.398 140.865 260.47 140.641 261.592 140.641V141.245ZM254.494 145.986L255.051 146.217C254.706 147.051 254.514 147.965 254.514 148.926H253.911H253.307C253.307 147.804 253.531 146.732 253.936 145.755L254.494 145.986ZM253.911 148.926H254.514V151.52H253.911H253.307V148.926H253.911ZM253.911 156.706H254.514V161.893H253.911H253.307V156.706H253.911ZM253.911 167.08H254.514V172.267H253.911H253.307V167.08H253.911ZM253.911 177.454H254.514V180.047H253.911H253.307V177.454H253.911Z" fill="#FF8A7B"/>
<path d="M155.71 274.183L159.48 283.938L163.25 274.183H165.025L160.177 286.545H158.776L153.927 274.183H155.71ZM154.853 274.183L155.133 282.155V286.545H153.214V274.183H154.853ZM165.738 274.183V286.545H163.819V282.155L164.099 274.183H165.738ZM173.49 280.296C173.49 279.781 173.343 279.373 173.048 279.073C172.76 278.768 172.324 278.615 171.741 278.615C171.384 278.615 171.073 278.677 170.807 278.802C170.541 278.92 170.334 279.082 170.187 279.285C170.04 279.489 169.966 279.716 169.966 279.965H168.115C168.115 279.495 168.268 279.051 168.574 278.632C168.879 278.207 169.312 277.862 169.873 277.596C170.433 277.324 171.09 277.188 171.843 277.188C172.522 277.188 173.125 277.304 173.651 277.536C174.183 277.763 174.599 278.108 174.899 278.572C175.199 279.036 175.349 279.617 175.349 280.313V284.473C175.349 284.841 175.377 285.195 175.434 285.535C175.491 285.869 175.573 286.16 175.68 286.409V286.545H173.778C173.688 286.341 173.617 286.078 173.566 285.755C173.515 285.427 173.49 285.113 173.49 284.813V280.296ZM173.778 282.164H172.293C171.472 282.164 170.846 282.305 170.416 282.588C169.986 282.866 169.771 283.262 169.771 283.777C169.771 284.179 169.907 284.516 170.178 284.787C170.45 285.059 170.841 285.195 171.35 285.195C171.797 285.195 172.191 285.104 172.53 284.923C172.87 284.736 173.136 284.507 173.328 284.235C173.521 283.964 173.623 283.703 173.634 283.454L174.313 284.303C174.257 284.541 174.143 284.799 173.974 285.076C173.81 285.348 173.589 285.608 173.311 285.857C173.034 286.106 172.706 286.313 172.327 286.477C171.947 286.635 171.514 286.715 171.027 286.715C170.416 286.715 169.876 286.596 169.406 286.358C168.942 286.12 168.577 285.795 168.31 285.382C168.05 284.963 167.92 284.499 167.92 283.989C167.92 283.004 168.288 282.254 169.024 281.739C169.765 281.219 170.787 280.958 172.089 280.958H173.778V282.164ZM179.476 286.545H177.625V277.358H179.365L179.476 279.319V286.545ZM178.431 281.595C178.443 280.735 178.601 279.973 178.907 279.311C179.218 278.649 179.648 278.131 180.197 277.757C180.752 277.378 181.397 277.188 182.133 277.188C182.733 277.188 183.251 277.302 183.687 277.528C184.123 277.749 184.462 278.108 184.706 278.606C184.949 279.099 185.071 279.755 185.071 280.576V286.545H183.211V280.559C183.211 280.106 183.146 279.744 183.016 279.472C182.886 279.201 182.693 279.005 182.439 278.886C182.184 278.768 181.87 278.708 181.496 278.708C181.128 278.708 180.797 278.785 180.503 278.937C180.209 279.09 179.957 279.302 179.747 279.574C179.538 279.84 179.376 280.149 179.263 280.5C179.156 280.845 179.102 281.216 179.102 281.612L178.431 281.595ZM192.84 277.358H194.691V286.545H192.942L192.84 284.397V277.358ZM193.816 282.452C193.816 283.273 193.697 284.003 193.459 284.643C193.222 285.283 192.843 285.789 192.322 286.163C191.801 286.531 191.116 286.715 190.267 286.715C189.361 286.715 188.628 286.449 188.068 285.917C187.513 285.385 187.236 284.51 187.236 283.293V277.358H189.095V283.31C189.095 283.797 189.166 284.179 189.308 284.456C189.455 284.728 189.647 284.918 189.885 285.025C190.128 285.133 190.386 285.186 190.658 285.186C191.275 285.186 191.764 285.068 192.126 284.83C192.489 284.586 192.746 284.258 192.899 283.845C193.058 283.432 193.137 282.973 193.137 282.469L193.816 282.452ZM202.188 280.296C202.188 279.781 202.041 279.373 201.746 279.073C201.458 278.768 201.022 278.615 200.439 278.615C200.082 278.615 199.771 278.677 199.505 278.802C199.239 278.92 199.032 279.082 198.885 279.285C198.738 279.489 198.664 279.716 198.664 279.965H196.813C196.813 279.495 196.966 279.051 197.272 278.632C197.577 278.207 198.01 277.862 198.571 277.596C199.131 277.324 199.788 277.188 200.541 277.188C201.22 277.188 201.823 277.304 202.349 277.536C202.881 277.763 203.297 278.108 203.597 278.572C203.897 279.036 204.047 279.617 204.047 280.313V284.473C204.047 284.841 204.076 285.195 204.132 285.535C204.189 285.869 204.271 286.16 204.378 286.409V286.545H202.476C202.386 286.341 202.315 286.078 202.264 285.755C202.213 285.427 202.188 285.113 202.188 284.813V280.296ZM202.476 282.164H200.991C200.17 282.164 199.544 282.305 199.114 282.588C198.684 282.866 198.469 283.262 198.469 283.777C198.469 284.179 198.605 284.516 198.876 284.787C199.148 285.059 199.539 285.195 200.048 285.195C200.495 285.195 200.889 285.104 201.228 284.923C201.568 284.736 201.834 284.507 202.026 284.235C202.219 283.964 202.321 283.703 202.332 283.454L203.011 284.303C202.955 284.541 202.842 284.799 202.672 285.076C202.508 285.348 202.287 285.608 202.009 285.857C201.732 286.106 201.404 286.313 201.025 286.477C200.645 286.635 200.212 286.715 199.726 286.715C199.114 286.715 198.574 286.596 198.104 286.358C197.64 286.12 197.275 285.795 197.009 285.382C196.748 284.963 196.618 284.499 196.618 283.989C196.618 283.004 196.986 282.254 197.722 281.739C198.463 281.219 199.485 280.958 200.787 280.958H202.476V282.164ZM208.318 286.545H206.467V273.503H208.318V286.545ZM216.639 280.873V279.421H219.407C220.103 279.421 220.649 279.26 221.045 278.937C221.447 278.615 221.648 278.159 221.648 277.57C221.648 276.925 221.461 276.458 221.088 276.169C220.714 275.881 220.142 275.736 219.373 275.736H217.157V286.545H215.229V274.183H219.373C220.686 274.183 221.713 274.449 222.455 274.981C223.202 275.513 223.575 276.353 223.575 277.502C223.575 278.012 223.448 278.476 223.193 278.895C222.944 279.314 222.582 279.656 222.107 279.922C221.631 280.183 221.059 280.341 220.392 280.398L219.763 280.873H216.639ZM215.968 286.545L216.936 285H219.687C220.423 285 220.983 284.813 221.368 284.439C221.759 284.066 221.954 283.573 221.954 282.962C221.954 282.532 221.877 282.161 221.725 281.85C221.577 281.538 221.342 281.298 221.02 281.128C220.703 280.958 220.284 280.873 219.763 280.873H217.394V279.421H220.57L220.986 279.973C221.631 280.002 222.166 280.157 222.591 280.44C223.021 280.718 223.343 281.077 223.559 281.519C223.774 281.954 223.881 282.433 223.881 282.953C223.881 284.125 223.505 285.017 222.752 285.628C221.999 286.239 220.977 286.545 219.687 286.545H215.968ZM231.209 280.296C231.209 279.781 231.061 279.373 230.767 279.073C230.478 278.768 230.042 278.615 229.459 278.615C229.103 278.615 228.792 278.677 228.525 278.802C228.259 278.92 228.053 279.082 227.906 279.285C227.759 279.489 227.685 279.716 227.685 279.965H225.834C225.834 279.495 225.987 279.051 226.292 278.632C226.598 278.207 227.031 277.862 227.592 277.596C228.152 277.324 228.809 277.188 229.561 277.188C230.241 277.188 230.843 277.304 231.37 277.536C231.902 277.763 232.318 278.108 232.618 278.572C232.918 279.036 233.068 279.617 233.068 280.313V284.473C233.068 284.841 233.096 285.195 233.153 285.535C233.209 285.869 233.292 286.16 233.399 286.409V286.545H231.497C231.407 286.341 231.336 286.078 231.285 285.755C231.234 285.427 231.209 285.113 231.209 284.813V280.296ZM231.497 282.164H230.011C229.191 282.164 228.565 282.305 228.135 282.588C227.705 282.866 227.49 283.262 227.49 283.777C227.49 284.179 227.625 284.516 227.897 284.787C228.169 285.059 228.559 285.195 229.069 285.195C229.516 285.195 229.909 285.104 230.249 284.923C230.589 284.736 230.855 284.507 231.047 284.235C231.24 283.964 231.342 283.703 231.353 283.454L232.032 284.303C231.975 284.541 231.862 284.799 231.692 285.076C231.528 285.348 231.308 285.608 231.03 285.857C230.753 286.106 230.425 286.313 230.045 286.477C229.666 286.635 229.233 286.715 228.746 286.715C228.135 286.715 227.594 286.596 227.125 286.358C226.66 286.12 226.295 285.795 226.029 285.382C225.769 284.963 225.639 284.499 225.639 283.989C225.639 283.004 226.007 282.254 226.742 281.739C227.484 281.219 228.506 280.958 229.808 280.958H231.497V282.164ZM239.419 278.734H234.316V277.358H239.419V278.734ZM237.746 275.117V284.108C237.746 284.408 237.789 284.635 237.874 284.787C237.964 284.94 238.083 285.042 238.23 285.093C238.383 285.144 238.55 285.169 238.731 285.169C238.867 285.169 239.003 285.161 239.139 285.144C239.28 285.121 239.388 285.102 239.461 285.085V286.528C239.308 286.579 239.127 286.621 238.918 286.655C238.708 286.695 238.459 286.715 238.171 286.715C237.741 286.715 237.353 286.635 237.008 286.477C236.662 286.313 236.391 286.047 236.192 285.679C235.994 285.305 235.895 284.807 235.895 284.185V275.117H237.746ZM244.853 286.715C243.919 286.715 243.146 286.505 242.535 286.086C241.924 285.668 241.465 285.11 241.159 284.414C240.859 283.712 240.709 282.945 240.709 282.113V281.79C240.709 280.952 240.862 280.185 241.168 279.489C241.474 278.793 241.932 278.235 242.543 277.817C243.155 277.398 243.922 277.188 244.844 277.188C245.575 277.188 246.214 277.335 246.763 277.63C247.318 277.919 247.751 278.32 248.062 278.835C248.374 279.345 248.541 279.931 248.563 280.593H246.814C246.791 280.242 246.698 279.922 246.534 279.634C246.37 279.339 246.143 279.107 245.855 278.937C245.566 278.762 245.226 278.674 244.836 278.674C244.247 278.674 243.786 278.827 243.452 279.133C243.124 279.438 242.892 279.829 242.756 280.304C242.625 280.78 242.56 281.275 242.56 281.79V282.113C242.56 282.628 242.625 283.126 242.756 283.607C242.886 284.083 243.115 284.473 243.443 284.779C243.777 285.079 244.242 285.229 244.836 285.229C245.187 285.229 245.507 285.158 245.795 285.017C246.09 284.869 246.327 284.671 246.508 284.422C246.69 284.168 246.791 283.879 246.814 283.556H248.563C248.541 284.134 248.359 284.663 248.02 285.144C247.68 285.619 247.233 286.002 246.678 286.29C246.129 286.573 245.521 286.715 244.853 286.715ZM252.053 286.545H250.193V273.503H252.053V286.545ZM251.008 281.595C251.014 280.752 251.17 279.999 251.475 279.336C251.781 278.674 252.206 278.151 252.749 277.766C253.298 277.381 253.938 277.188 254.668 277.188C255.274 277.188 255.797 277.302 256.239 277.528C256.686 277.754 257.031 278.117 257.275 278.615C257.524 279.113 257.648 279.772 257.648 280.593V286.545H255.789V280.576C255.789 280.123 255.724 279.761 255.593 279.489C255.463 279.212 255.271 279.014 255.016 278.895C254.761 278.77 254.447 278.708 254.074 278.708C253.694 278.708 253.358 278.785 253.063 278.937C252.769 279.09 252.517 279.302 252.308 279.574C252.104 279.84 251.948 280.149 251.841 280.5C251.733 280.845 251.679 281.216 251.679 281.612L251.008 281.595ZM268.635 274.183C269.574 274.183 270.373 274.324 271.029 274.607C271.686 274.89 272.187 275.309 272.532 275.864C272.877 276.413 273.05 277.092 273.05 277.902C273.05 278.496 272.934 279.028 272.702 279.498C272.475 279.962 272.15 280.358 271.725 280.686C271.307 281.009 270.806 281.252 270.223 281.417L269.662 281.68H265.791V280.135H268.669C269.212 280.135 269.665 280.038 270.027 279.846C270.39 279.653 270.661 279.393 270.842 279.065C271.024 278.736 271.114 278.369 271.114 277.961C271.114 277.287 270.916 276.75 270.52 276.348C270.129 275.94 269.501 275.736 268.635 275.736H266.317V286.545H264.39V274.183H268.635ZM268.558 280.967H270.588L273.568 286.435V286.545H271.505L268.558 280.967ZM278.951 286.715C278.068 286.715 277.304 286.522 276.658 286.137C276.013 285.747 275.512 285.218 275.156 284.55C274.805 283.876 274.629 283.118 274.629 282.274V281.918C274.629 280.944 274.813 280.103 275.181 279.396C275.555 278.688 276.053 278.145 276.675 277.766C277.304 277.381 277.989 277.188 278.73 277.188C279.613 277.188 280.338 277.384 280.904 277.774C281.475 278.159 281.9 278.691 282.177 279.37C282.455 280.044 282.593 280.817 282.593 281.688V282.495H275.606V281.102H280.751V280.958C280.734 280.573 280.657 280.208 280.522 279.863C280.391 279.512 280.182 279.226 279.893 279.005C279.605 278.785 279.214 278.674 278.722 278.674C278.263 278.674 277.864 278.804 277.524 279.065C277.191 279.325 276.933 279.699 276.752 280.185C276.571 280.667 276.48 281.244 276.48 281.918V282.274C276.48 282.823 276.582 283.321 276.786 283.769C276.99 284.216 277.284 284.572 277.669 284.838C278.059 285.099 278.524 285.229 279.061 285.229C279.582 285.229 280.032 285.124 280.411 284.915C280.796 284.705 281.13 284.414 281.413 284.04L282.449 284.974C282.16 285.416 281.733 285.818 281.167 286.18C280.601 286.536 279.862 286.715 278.951 286.715ZM288.036 286.715C287.102 286.715 286.329 286.505 285.718 286.086C285.107 285.668 284.648 285.11 284.342 284.414C284.042 283.712 283.892 282.945 283.892 282.113V281.79C283.892 280.952 284.045 280.185 284.351 279.489C284.657 278.793 285.115 278.235 285.726 277.817C286.338 277.398 287.105 277.188 288.027 277.188C288.757 277.188 289.397 277.335 289.946 277.63C290.501 277.919 290.934 278.32 291.245 278.835C291.557 279.345 291.724 279.931 291.746 280.593H289.997C289.974 280.242 289.881 279.922 289.717 279.634C289.553 279.339 289.326 279.107 289.038 278.937C288.749 278.762 288.409 278.674 288.019 278.674C287.43 278.674 286.969 278.827 286.635 279.133C286.307 279.438 286.074 279.829 285.939 280.304C285.808 280.78 285.743 281.275 285.743 281.79V282.113C285.743 282.628 285.808 283.126 285.939 283.607C286.069 284.083 286.298 284.473 286.626 284.779C286.96 285.079 287.424 285.229 288.019 285.229C288.37 285.229 288.69 285.158 288.978 285.017C289.273 284.869 289.51 284.671 289.691 284.422C289.873 284.168 289.974 283.879 289.997 283.556H291.746C291.724 284.134 291.542 284.663 291.203 285.144C290.863 285.619 290.416 286.002 289.861 286.29C289.312 286.573 288.704 286.715 288.036 286.715ZM292.994 281.858C292.994 280.969 293.164 280.174 293.504 279.472C293.843 278.77 294.327 278.216 294.956 277.808C295.59 277.395 296.342 277.188 297.214 277.188C298.103 277.188 298.864 277.395 299.498 277.808C300.132 278.216 300.616 278.77 300.95 279.472C301.29 280.174 301.459 280.969 301.459 281.858V282.053C301.459 282.936 301.29 283.732 300.95 284.439C300.616 285.141 300.132 285.696 299.498 286.103C298.87 286.511 298.114 286.715 297.231 286.715C296.354 286.715 295.598 286.511 294.964 286.103C294.33 285.696 293.843 285.141 293.504 284.439C293.164 283.732 292.994 282.936 292.994 282.053V281.858ZM294.854 282.053C294.854 282.625 294.939 283.152 295.108 283.633C295.278 284.114 295.539 284.502 295.89 284.796C296.24 285.085 296.688 285.229 297.231 285.229C297.774 285.229 298.222 285.085 298.573 284.796C298.924 284.502 299.184 284.114 299.354 283.633C299.524 283.152 299.608 282.625 299.608 282.053V281.858C299.608 281.292 299.524 280.769 299.354 280.287C299.184 279.801 298.921 279.41 298.564 279.116C298.213 278.821 297.763 278.674 297.214 278.674C296.682 278.674 296.238 278.821 295.881 279.116C295.53 279.41 295.27 279.801 295.1 280.287C294.936 280.769 294.854 281.292 294.854 281.858V282.053ZM305.144 286.545H303.293V277.358H305.076L305.144 278.98V286.545ZM307.963 279.031C307.827 279.008 307.694 278.991 307.564 278.98C307.434 278.969 307.298 278.963 307.157 278.963C306.681 278.963 306.282 279.056 305.959 279.243C305.642 279.424 305.399 279.679 305.229 280.007C305.059 280.33 304.957 280.709 304.924 281.145L304.457 281.272C304.457 280.514 304.556 279.826 304.754 279.209C304.957 278.592 305.266 278.102 305.679 277.74C306.092 277.372 306.619 277.188 307.258 277.188C307.372 277.188 307.502 277.2 307.649 277.222C307.796 277.245 307.904 277.273 307.972 277.307L307.963 279.031ZM312.548 286.715C311.818 286.715 311.181 286.514 310.638 286.112C310.1 285.704 309.681 285.15 309.381 284.448C309.087 283.746 308.94 282.948 308.94 282.053V281.875C308.94 280.941 309.087 280.123 309.381 279.421C309.681 278.714 310.1 278.165 310.638 277.774C311.181 277.384 311.823 277.188 312.565 277.188C313.323 277.188 313.955 277.372 314.458 277.74C314.968 278.108 315.367 278.626 315.656 279.294C315.944 279.956 316.134 280.737 316.224 281.637V282.317C316.134 283.194 315.944 283.964 315.656 284.626C315.373 285.283 314.976 285.795 314.467 286.163C313.957 286.531 313.318 286.715 312.548 286.715ZM313.015 285.186C313.502 285.186 313.904 285.082 314.221 284.872C314.538 284.657 314.787 284.374 314.968 284.023C315.155 283.672 315.293 283.282 315.384 282.852V281.111C315.333 280.783 315.248 280.474 315.129 280.185C315.016 279.897 314.866 279.642 314.679 279.421C314.492 279.201 314.263 279.028 313.991 278.903C313.72 278.773 313.4 278.708 313.032 278.708C312.5 278.708 312.07 278.852 311.741 279.141C311.413 279.424 311.173 279.806 311.02 280.287C310.867 280.769 310.79 281.298 310.79 281.875V282.053C310.79 282.631 310.867 283.157 311.02 283.633C311.173 284.102 311.41 284.479 311.733 284.762C312.061 285.045 312.489 285.186 313.015 285.186ZM315.172 286.545L315.002 284.694V273.503H316.861V286.545H315.172Z" fill="#FF3B27"/>
<rect x="198.605" y="190.98" width="72.7109" height="72.7109" rx="36.3554" fill="#FFE8E5"/>
<path d="M234.958 219.838V224.609M234.958 234.153H234.983M218.037 243.696H251.879C255.641 243.696 257.99 239.719 256.11 236.539L239.188 207.909C237.308 204.728 232.609 204.728 230.728 207.909L213.807 236.539C211.926 239.719 214.276 243.696 218.037 243.696Z" stroke="#FF604F" stroke-width="3.62108" stroke-linecap="round" stroke-linejoin="round"/>
<rect x="30.3094" y="0.309439" width="106.381" height="91.3811" rx="7.11709" fill="#F3F4F6"/>
<rect x="30.3094" y="0.309439" width="106.381" height="91.3811" rx="7.11709" stroke="#E5E7EB" stroke-width="0.618877"/>
<path d="M92.3407 17.6455H89.8243V16.2584C89.821 14.1173 88.0866 12.3812 85.9455 12.3779H81.0531C78.912 12.3812 77.1759 14.1173 77.1743 16.2584V17.6455H74.6579C72.8805 17.6472 71.1776 18.3548 69.9212 19.6113C68.6663 20.8662 67.9587 22.5708 67.957 24.3468V39.3974C67.9587 40.9235 68.4828 42.4032 69.4401 43.592C70.3974 44.7807 71.7317 45.6074 73.223 45.9348V52.9419C73.223 53.5255 73.6975 54 74.2811 54C74.8664 54 75.3393 53.5255 75.3393 52.9419V51.3645H91.6597V52.9419C91.6597 53.5255 92.1325 54 92.7178 54C93.3015 54 93.776 53.5255 93.776 52.9419V45.9348C95.2656 45.6074 96.6016 44.7807 97.5589 43.592C98.5161 42.4032 99.0403 40.9235 99.0419 39.3974V24.3468C99.0403 22.5711 98.3326 20.8664 97.0761 19.6113C95.8212 18.3548 94.1166 17.6472 92.3407 17.6455ZM79.2908 16.2584C79.2908 15.2845 80.0795 14.4959 81.0533 14.4942H85.9457C86.9179 14.4959 87.7066 15.2845 87.7082 16.2584V17.6455H79.2909L79.2908 16.2584ZM91.6597 49.2476H75.3393V46.0979H91.6597V49.2476ZM96.9254 39.3971C96.9221 41.9284 94.872 43.9784 92.3407 43.9818H74.6582C72.1269 43.9785 70.0769 41.9283 70.0735 39.3971V24.3464C70.0768 21.8151 72.127 19.7651 74.6582 19.7617H92.3407C94.872 19.765 96.9221 21.8152 96.9254 24.3464V39.3971Z" fill="#6B7280"/>
<rect x="80.2578" y="28.2383" width="5.72491" height="11.4498" rx="2.86245" stroke="#6B7280" stroke-width="2"/>
<path d="M69.2852 23.9443H97.9097" stroke="#6B7280" stroke-width="2"/>
<path d="M54.109 70.0287V69.0203H56.297C56.8419 69.0203 57.2812 68.8841 57.6151 68.6117C57.9491 68.3393 58.116 67.9593 58.116 67.4716C58.116 66.9443 57.9622 66.5621 57.6547 66.3248C57.3515 66.0831 56.888 65.9623 56.2641 65.9623H54.3924V74.5234H53.1138V64.9276H56.2641C57.2439 64.9276 58.0106 65.1319 58.5642 65.5405C59.1178 65.9447 59.3946 66.5928 59.3946 67.4847C59.3946 67.8802 59.2935 68.2383 59.0914 68.559C58.8893 68.8753 58.6059 69.1346 58.2412 69.3367C57.881 69.5388 57.4614 69.6684 56.9825 69.7255L56.5343 70.0287H54.109ZM53.6015 74.5234L54.3331 73.4953H56.475C57.0769 73.4953 57.5426 73.3393 57.8722 73.0274C58.2017 72.7154 58.3665 72.2958 58.3665 71.7686C58.3665 71.4127 58.3028 71.1051 58.1753 70.8459C58.0479 70.5823 57.8502 70.3802 57.5822 70.2396C57.3142 70.099 56.9649 70.0287 56.5343 70.0287H54.7219V69.0203H57.2131L57.4833 69.3894C57.9447 69.4289 58.3357 69.5586 58.6565 69.7782C58.9772 69.9979 59.221 70.2791 59.388 70.6218C59.5594 70.9645 59.645 71.3424 59.645 71.7554C59.645 72.6561 59.355 73.3437 58.7751 73.8182C58.1995 74.2884 57.4328 74.5234 56.475 74.5234H53.6015ZM62.0901 64.8024C62.3274 64.8024 62.5075 64.8705 62.6305 65.0067C62.758 65.1429 62.8217 65.3077 62.8217 65.501C62.8217 65.6899 62.758 65.8525 62.6305 65.9887C62.5075 66.1205 62.3274 66.1864 62.0901 66.1864C61.8529 66.1864 61.6727 66.1205 61.5497 65.9887C61.4311 65.8525 61.3718 65.6899 61.3718 65.501C61.3718 65.3077 61.4311 65.1429 61.5497 65.0067C61.6727 64.8705 61.8529 64.8024 62.0901 64.8024ZM62.7096 74.5234H61.4838V67.3925H62.7096V74.5234ZM64.3902 70.8855C64.3902 70.1956 64.522 69.5783 64.7857 69.0335C65.0493 68.4887 65.4227 68.0581 65.906 67.7418C66.3894 67.421 66.9627 67.2607 67.6262 67.2607C68.2984 67.2607 68.8784 67.421 69.3661 67.7418C69.8538 68.0581 70.2273 68.4887 70.4865 69.0335C70.7501 69.5783 70.8819 70.1956 70.8819 70.8855V71.037C70.8819 71.7225 70.7501 72.3398 70.4865 72.889C70.2273 73.4338 69.8538 73.8644 69.3661 74.1807C68.8828 74.4971 68.3072 74.6552 67.6394 74.6552C66.9715 74.6552 66.3938 74.4971 65.906 74.1807C65.4227 73.8644 65.0493 73.4338 64.7857 72.889C64.522 72.3398 64.3902 71.7225 64.3902 71.037V70.8855ZM65.6227 71.037C65.6227 71.5072 65.6973 71.9421 65.8467 72.342C65.9961 72.7418 66.218 73.0625 66.5124 73.3042C66.8112 73.5458 67.1868 73.6667 67.6394 73.6667C68.0875 73.6667 68.4588 73.5458 68.7532 73.3042C69.0519 73.0625 69.276 72.7418 69.4254 72.342C69.5748 71.9421 69.6495 71.5072 69.6495 71.037V70.8855C69.6495 70.4153 69.5748 69.9804 69.4254 69.5805C69.276 69.1807 69.0519 68.86 68.7532 68.6183C68.4544 68.3723 68.0787 68.2492 67.6262 68.2492C67.1824 68.2492 66.8112 68.3723 66.5124 68.6183C66.2136 68.86 65.9895 69.1807 65.8401 69.5805C65.6952 69.9804 65.6227 70.4153 65.6227 70.8855V71.037ZM73.6499 74.5234H72.4175V67.3925H73.617L73.6499 68.5129V74.5234ZM75.871 68.4799C75.7655 68.4579 75.6666 68.4448 75.5744 68.4404C75.4865 68.4316 75.3854 68.4272 75.2712 68.4272C74.8977 68.4272 74.5814 68.5041 74.3222 68.6579C74.0673 68.8116 73.8696 69.0247 73.729 69.2971C73.5884 69.5652 73.5006 69.8727 73.4654 70.2198L73.1161 70.4175C73.1161 69.842 73.193 69.3169 73.3468 68.8424C73.5006 68.3635 73.74 67.9812 74.0651 67.6956C74.3947 67.4056 74.8165 67.2607 75.3305 67.2607C75.414 67.2607 75.5129 67.2716 75.6271 67.2936C75.7457 67.3112 75.827 67.331 75.871 67.3529V68.4799ZM79.9571 74.6552C79.2936 74.6552 78.7159 74.5081 78.2238 74.2137C77.7361 73.9149 77.356 73.5063 77.0836 72.9878C76.8156 72.4694 76.6816 71.8762 76.6816 71.2084V70.925C76.6816 70.1517 76.8288 69.4927 77.1232 68.9478C77.4219 68.3986 77.8086 67.9812 78.2831 67.6956C78.762 67.4056 79.2673 67.2607 79.7989 67.2607C80.4843 67.2607 81.0423 67.4144 81.4729 67.722C81.9079 68.0252 82.2264 68.4404 82.4285 68.9676C82.635 69.4905 82.7383 70.0836 82.7383 70.7471V71.2941H77.4131V70.3055H81.5059V70.2132C81.4883 69.8969 81.4246 69.5893 81.3147 69.2905C81.2049 68.9874 81.0292 68.7391 80.7875 68.5458C80.5458 68.3481 80.2163 68.2492 79.7989 68.2492C79.4298 68.2492 79.1025 68.3547 78.8169 68.5656C78.5357 68.7721 78.3138 69.0753 78.1513 69.4751C77.9931 69.8705 77.914 70.3538 77.914 70.925V71.2084C77.914 71.6609 77.9975 72.074 78.1645 72.4474C78.3314 72.8165 78.5731 73.1131 78.8894 73.3371C79.2058 73.5568 79.5836 73.6667 80.023 73.6667C80.4536 73.6667 80.8183 73.5788 81.117 73.403C81.4158 73.2273 81.6772 72.9922 81.9013 72.6979L82.646 73.2778C82.4176 73.6293 82.088 73.9479 81.6575 74.2335C81.2313 74.5147 80.6645 74.6552 79.9571 74.6552ZM88.3666 69.6333C88.3666 69.2071 88.2392 68.8688 87.9844 68.6183C87.7339 68.3635 87.3627 68.2361 86.8706 68.2361C86.5674 68.2361 86.2994 68.2888 86.0665 68.3942C85.8381 68.4997 85.6601 68.6381 85.5327 68.8094C85.4053 68.9808 85.3416 69.1675 85.3416 69.3696H84.1091C84.1091 69.0269 84.2256 68.6952 84.4584 68.3745C84.6913 68.0493 85.0186 67.7835 85.4404 67.577C85.8666 67.3661 86.3675 67.2607 86.9431 67.2607C87.4615 67.2607 87.9207 67.3485 88.3205 67.5243C88.7203 67.7 89.0323 67.9658 89.2564 68.3217C89.4848 68.6732 89.5991 69.1148 89.5991 69.6464V72.9681C89.5991 73.2053 89.6188 73.458 89.6584 73.726C89.7023 73.994 89.766 74.2247 89.8495 74.418V74.5234H88.5643C88.5028 74.3828 88.4545 74.1961 88.4194 73.9632C88.3842 73.726 88.3666 73.5063 88.3666 73.3042V69.6333ZM88.5775 71.0568H87.3649C86.6707 71.0568 86.1346 71.1667 85.7568 71.3863C85.3789 71.606 85.19 71.9356 85.19 72.3749C85.19 72.7176 85.3042 73.0076 85.5327 73.2449C85.7656 73.4821 86.1039 73.6008 86.5476 73.6008C86.9211 73.6008 87.2506 73.5217 87.5362 73.3635C87.8218 73.2053 88.0481 73.0098 88.215 72.7769C88.382 72.5441 88.4721 72.32 88.4853 72.1047L89.0125 72.6913C88.9817 72.8758 88.8983 73.0801 88.7621 73.3042C88.6259 73.5283 88.4435 73.7436 88.215 73.9501C87.991 74.1522 87.723 74.3213 87.411 74.4575C87.1034 74.5893 86.7563 74.6552 86.3697 74.6552C85.8864 74.6552 85.4624 74.563 85.0977 74.3784C84.7374 74.1895 84.4562 73.9347 84.2541 73.6139C84.0564 73.2932 83.9576 72.9373 83.9576 72.5463C83.9576 71.7774 84.2475 71.1952 84.8275 70.7998C85.4075 70.4 86.1874 70.2 87.1671 70.2H88.5775V71.0568ZM94.3772 74.6552C93.661 74.6552 93.0679 74.4927 92.5978 74.1675C92.1276 73.838 91.7761 73.403 91.5433 72.8626C91.3148 72.3222 91.2006 71.7334 91.2006 71.0964V70.8196C91.2006 70.1781 91.317 69.5893 91.5499 69.0533C91.7827 68.5129 92.1342 68.0801 92.6043 67.7549C93.0745 67.4254 93.6654 67.2607 94.3772 67.2607C94.9352 67.2607 95.4229 67.3749 95.8403 67.6034C96.2621 67.8274 96.5916 68.135 96.8289 68.526C97.0705 68.9127 97.2024 69.3521 97.2243 69.8442H96.0578C96.0358 69.5498 95.9523 69.2818 95.8074 69.0401C95.6668 68.7985 95.4734 68.6073 95.2274 68.4667C94.9857 68.3217 94.7023 68.2492 94.3772 68.2492C93.8807 68.2492 93.4897 68.3767 93.2041 68.6315C92.9229 68.8863 92.723 69.2115 92.6043 69.6069C92.4901 69.9979 92.433 70.4022 92.433 70.8196V71.0964C92.433 71.5138 92.4901 71.9202 92.6043 72.3156C92.7186 72.711 92.9163 73.0362 93.1975 73.291C93.4831 73.5414 93.8763 73.6667 94.3772 73.6667C94.6672 73.6667 94.9352 73.6074 95.1812 73.4887C95.4273 73.3657 95.6294 73.1987 95.7876 72.9878C95.9458 72.7769 96.0358 72.5375 96.0578 72.2695H97.2243C97.2024 72.6913 97.0596 73.0845 96.7959 73.4492C96.5323 73.8095 96.1896 74.1016 95.7678 74.3257C95.346 74.5454 94.8825 74.6552 94.3772 74.6552ZM101.594 68.3217H97.7318V67.3925H101.594V68.3217ZM100.263 65.6592V72.7572C100.263 73.0032 100.3 73.1878 100.375 73.3108C100.449 73.4338 100.546 73.5151 100.665 73.5546C100.783 73.5942 100.911 73.6139 101.047 73.6139C101.148 73.6139 101.253 73.6052 101.363 73.5876C101.477 73.57 101.561 73.5546 101.614 73.5414V74.5234C101.517 74.5542 101.392 74.5828 101.238 74.6091C101.084 74.6399 100.897 74.6552 100.678 74.6552C100.379 74.6552 100.104 74.5959 99.8539 74.4773C99.6035 74.3587 99.4036 74.161 99.2542 73.8842C99.1048 73.603 99.0301 73.2251 99.0301 72.7506V65.6592H100.263ZM102.51 70.8855C102.51 70.1956 102.642 69.5783 102.905 69.0335C103.169 68.4887 103.542 68.0581 104.026 67.7418C104.509 67.421 105.082 67.2607 105.746 67.2607C106.418 67.2607 106.998 67.421 107.486 67.7418C107.973 68.0581 108.347 68.4887 108.606 69.0335C108.87 69.5783 109.002 70.1956 109.002 70.8855V71.037C109.002 71.7225 108.87 72.3398 108.606 72.889C108.347 73.4338 107.973 73.8644 107.486 74.1807C107.002 74.4971 106.427 74.6552 105.759 74.6552C105.091 74.6552 104.513 74.4971 104.026 74.1807C103.542 73.8644 103.169 73.4338 102.905 72.889C102.642 72.3398 102.51 71.7225 102.51 71.037V70.8855ZM103.742 71.037C103.742 71.5072 103.817 71.9421 103.966 72.342C104.116 72.7418 104.338 73.0625 104.632 73.3042C104.931 73.5458 105.307 73.6667 105.759 73.6667C106.207 73.6667 106.578 73.5458 106.873 73.3042C107.172 73.0625 107.396 72.7418 107.545 72.342C107.694 71.9421 107.769 71.5072 107.769 71.037V70.8855C107.769 70.4153 107.694 69.9804 107.545 69.5805C107.396 69.1807 107.172 68.86 106.873 68.6183C106.574 68.3723 106.198 68.2492 105.746 68.2492C105.302 68.2492 104.931 68.3723 104.632 68.6183C104.333 68.86 104.109 69.1807 103.96 69.5805C103.815 69.9804 103.742 70.4153 103.742 70.8855V71.037ZM111.77 74.5234H110.537V67.3925H111.737L111.77 68.5129V74.5234ZM113.991 68.4799C113.885 68.4579 113.786 68.4448 113.694 68.4404C113.606 68.4316 113.505 68.4272 113.391 68.4272C113.017 68.4272 112.701 68.5041 112.442 68.6579C112.187 68.8116 111.989 69.0247 111.849 69.2971C111.708 69.5652 111.62 69.8727 111.585 70.2198L111.236 70.4175C111.236 69.842 111.313 69.3169 111.466 68.8424C111.62 68.3635 111.86 67.9812 112.185 67.6956C112.514 67.4056 112.936 67.2607 113.45 67.2607C113.534 67.2607 113.633 67.2716 113.747 67.2936C113.865 67.3112 113.947 67.331 113.991 67.3529V68.4799Z" fill="#6B7280"/>
<rect x="181.208" y="0.309439" width="106.381" height="92.3811" rx="7.11709" fill="#F3F4F6"/>
<rect x="181.208" y="0.309439" width="106.381" height="92.3811" rx="7.11709" stroke="#E5E7EB" stroke-width="0.618877"/>
<path d="M244.323 29.0039C244.856 29.0041 245.285 29.4366 245.287 29.9678V29.9688C245.287 30.5005 244.855 30.9324 244.323 30.9326H232.332C231.8 30.9326 231.367 30.5007 231.367 29.9688C231.367 29.4367 231.8 29.0039 232.332 29.0039H244.323Z" fill="#6B7280" stroke="#6B7280" stroke-width="0.25"/>
<path d="M228.933 26.9287C229.309 26.5522 229.919 26.5522 230.296 26.9287L230.362 27.002C230.671 27.3796 230.649 27.9406 230.296 28.292L227.035 31.5527C226.854 31.736 226.61 31.8359 226.354 31.8359C226.097 31.8359 225.852 31.7338 225.671 31.5527L223.789 29.6689H223.788C223.414 29.2923 223.414 28.6828 223.79 28.3047L223.791 28.3037C224.167 27.9316 224.778 27.929 225.155 28.3057L226.354 29.5059L228.933 26.9287Z" fill="#6B7280" stroke="#6B7280" stroke-width="0.25"/>
<path d="M244.323 37.2676L244.422 37.2725C244.908 37.3221 245.285 37.7335 245.287 38.2314V38.2324C245.287 38.7642 244.855 39.1961 244.323 39.1963H232.332C231.8 39.1963 231.367 38.7643 231.367 38.2324C231.367 37.7003 231.8 37.2676 232.332 37.2676H244.323Z" fill="#6B7280" stroke="#6B7280" stroke-width="0.25"/>
<path d="M229.006 35.126C229.384 34.82 229.944 34.8399 230.298 35.1934C230.674 35.5701 230.674 36.1795 230.296 36.5576L227.035 39.8164L227.034 39.8174C226.845 40.0041 226.6 40.0977 226.354 40.0977C226.106 40.0976 225.859 40.0025 225.672 39.8154L223.79 37.9336C223.413 37.5588 223.414 36.9452 223.79 36.5703C224.167 36.1937 224.777 36.1937 225.153 36.5703L226.353 37.7695L228.933 35.1914L229.006 35.126Z" fill="#6B7280" stroke="#6B7280" stroke-width="0.25"/>
<path d="M244.323 45.5303L244.422 45.5352C244.908 45.5846 245.285 45.9944 245.287 46.4941V46.4951C245.287 47.0269 244.855 47.4588 244.323 47.459H232.332C231.8 47.459 231.367 47.027 231.367 46.4951C231.367 45.963 231.8 45.5303 232.332 45.5303H244.323Z" fill="#6B7280" stroke="#6B7280" stroke-width="0.25"/>
<path d="M228.933 43.4561C229.309 43.0775 229.917 43.0775 230.295 43.4551C230.672 43.83 230.673 44.4444 230.296 44.8193L227.035 48.0791C226.846 48.2682 226.601 48.3623 226.354 48.3623C226.106 48.3623 225.859 48.2663 225.672 48.0791L223.79 46.1973C223.414 45.8223 223.413 45.2088 223.79 44.834C224.167 44.4576 224.777 44.4577 225.153 44.834L226.353 46.0332L228.933 43.4561Z" fill="#6B7280" stroke="#6B7280" stroke-width="0.25"/>
<path d="M223.27 18.0557C223.802 18.0557 224.234 18.4884 224.234 19.0205C224.234 19.5524 223.802 19.9844 223.27 19.9844H223.074C221.454 19.9844 220.135 21.302 220.135 22.9238V49.8271C220.135 51.4399 221.452 52.7529 223.074 52.7529L245.725 52.7549C247.345 52.7549 248.664 51.4418 248.664 49.8291V22.9238C248.664 21.3037 247.346 19.9844 245.725 19.9844H245.528C244.996 19.9842 244.565 19.5523 244.564 19.0205C244.564 18.4885 244.996 18.0558 245.528 18.0557H245.725C248.409 18.0557 250.593 20.2404 250.593 22.9248V49.8281C250.593 52.5055 248.41 54.6815 245.727 54.6816H223.074C220.39 54.6816 218.207 52.5057 218.207 49.8281V22.9229C218.207 20.2383 220.39 18.0557 223.074 18.0557H223.27Z" fill="#6B7280" stroke="#6B7280" stroke-width="0.25"/>
<path d="M234.398 12.2529C236.225 12.2529 237.757 13.5245 238.163 15.2256H239.962C241.632 15.2256 242.992 16.5863 242.992 18.2578V19.7314C242.992 21.403 241.632 22.7637 239.962 22.7637H228.835C227.165 22.7637 225.805 21.405 225.805 19.7334V18.2588C225.805 16.5874 227.165 15.2275 228.835 15.2275H230.646C231.062 13.5038 232.586 12.253 234.398 12.2529ZM234.397 14.1816C233.325 14.1816 232.451 15.0541 232.451 16.1279C232.451 16.6463 232.039 17.156 231.494 17.1562H228.833C228.234 17.1564 227.746 17.6393 227.733 18.2363V19.7334C227.733 20.3409 228.228 20.8359 228.835 20.8359H239.961C240.568 20.8359 241.061 20.3409 241.062 19.7334V18.2588C241.061 17.6514 240.568 17.1563 239.961 17.1562H237.301C236.769 17.1562 236.336 16.7235 236.336 16.1914C236.336 16.1453 236.343 16.0765 236.35 16.0273C236.343 15.0593 235.473 14.1819 234.397 14.1816Z" fill="#6B7280" stroke="#6B7280" stroke-width="0.25"/>
<path d="M204.001 71.3169V70.2888H206.558C207.054 70.2888 207.454 70.2097 207.757 70.0515C208.065 69.8889 208.289 69.667 208.43 69.3858C208.575 69.1047 208.647 68.7839 208.647 68.4236C208.647 68.0941 208.575 67.7843 208.43 67.4944C208.289 67.2044 208.065 66.9693 207.757 66.7892C207.454 66.609 207.054 66.519 206.558 66.519H204.291V75.0801H203.012V65.4842H206.558C207.283 65.4842 207.896 65.6095 208.397 65.8599C208.898 66.1103 209.278 66.4553 209.537 66.8946C209.796 67.334 209.926 67.8393 209.926 68.4104C209.926 69.0256 209.796 69.5506 209.537 69.9856C209.278 70.4206 208.898 70.7523 208.397 70.9808C207.896 71.2048 207.283 71.3169 206.558 71.3169H204.001ZM215.488 70.1899C215.488 69.7637 215.361 69.4254 215.106 69.175C214.855 68.9201 214.484 68.7927 213.992 68.7927C213.689 68.7927 213.421 68.8454 213.188 68.9509C212.96 69.0563 212.782 69.1947 212.654 69.3661C212.527 69.5374 212.463 69.7242 212.463 69.9263H211.231C211.231 69.5836 211.347 69.2518 211.58 68.9311C211.813 68.606 212.14 68.3401 212.562 68.1336C212.988 67.9227 213.489 67.8173 214.065 67.8173C214.583 67.8173 215.042 67.9052 215.442 68.0809C215.842 68.2567 216.154 68.5225 216.378 68.8784C216.606 69.2299 216.721 69.6714 216.721 70.2031V73.5247C216.721 73.762 216.74 74.0146 216.78 74.2826C216.824 74.5506 216.888 74.7813 216.971 74.9746V75.0801H215.686C215.624 74.9395 215.576 74.7527 215.541 74.5199C215.506 74.2826 215.488 74.0629 215.488 73.8608V70.1899ZM215.699 71.6135H214.486C213.792 71.6135 213.256 71.7233 212.878 71.943C212.5 72.1627 212.311 72.4922 212.311 72.9316C212.311 73.2743 212.426 73.5643 212.654 73.8015C212.887 74.0388 213.225 74.1574 213.669 74.1574C214.043 74.1574 214.372 74.0783 214.658 73.9201C214.943 73.762 215.17 73.5664 215.337 73.3336C215.504 73.1007 215.594 72.8766 215.607 72.6613L216.134 73.2479C216.103 73.4324 216.02 73.6367 215.884 73.8608C215.747 74.0849 215.565 74.3002 215.337 74.5067C215.112 74.7088 214.844 74.878 214.533 75.0142C214.225 75.146 213.878 75.2119 213.491 75.2119C213.008 75.2119 212.584 75.1196 212.219 74.9351C211.859 74.7462 211.578 74.4913 211.376 74.1706C211.178 73.8498 211.079 73.494 211.079 73.1029C211.079 72.334 211.369 71.7519 211.949 71.3564C212.529 70.9566 213.309 70.7567 214.289 70.7567H215.699V71.6135ZM221.907 75.2119C221.45 75.2119 221.048 75.1372 220.701 74.9878C220.354 74.8384 220.06 74.6231 219.818 74.3419C219.576 74.0563 219.383 73.7158 219.238 73.3204C219.098 72.9206 219.001 72.4702 218.948 71.9693V71.2048C219.018 70.5062 219.17 69.9043 219.403 69.399C219.64 68.8938 219.963 68.5049 220.372 68.2325C220.785 67.9557 221.29 67.8173 221.888 67.8173C222.485 67.8173 222.99 67.9689 223.403 68.272C223.816 68.5752 224.131 69.0014 224.346 69.5506C224.561 70.0954 224.669 70.7303 224.669 71.4553V71.5937C224.669 72.2879 224.561 72.9074 224.346 73.4522C224.131 73.997 223.816 74.4276 223.403 74.744C222.995 75.0559 222.496 75.2119 221.907 75.2119ZM218.638 77.8217V67.9491H219.759L219.871 69.3199V77.8217H218.638ZM221.532 74.2233C221.971 74.2233 222.331 74.1025 222.613 73.8608C222.894 73.6192 223.1 73.3006 223.232 72.9052C223.368 72.5054 223.436 72.0682 223.436 71.5937V71.4553C223.436 70.9808 223.368 70.5458 223.232 70.1504C223.1 69.7505 222.892 69.432 222.606 69.1947C222.325 68.9575 221.962 68.8388 221.518 68.8388C221.215 68.8388 220.952 68.8916 220.728 68.997C220.504 69.1025 220.312 69.2452 220.154 69.4254C219.996 69.6011 219.866 69.8032 219.765 70.0317C219.669 70.2558 219.596 70.4887 219.548 70.7303V72.4505C219.636 72.758 219.757 73.048 219.91 73.3204C220.069 73.5884 220.277 73.8059 220.536 73.9729C220.8 74.1398 221.132 74.2233 221.532 74.2233ZM229.183 75.2119C228.52 75.2119 227.942 75.0647 227.45 74.7703C226.962 74.4716 226.582 74.0629 226.31 73.5445C226.042 73.026 225.908 72.4329 225.908 71.765V71.4816C225.908 70.7084 226.055 70.0493 226.349 69.5045C226.648 68.9553 227.035 68.5379 227.509 68.2523C227.988 67.9623 228.493 67.8173 229.025 67.8173C229.711 67.8173 230.269 67.9711 230.699 68.2786C231.134 68.5818 231.453 68.997 231.655 69.5242C231.861 70.0471 231.965 70.6402 231.965 71.3037V71.8507H226.639V70.8621H230.732V70.7699C230.714 70.4535 230.651 70.146 230.541 69.8472C230.431 69.544 230.255 69.2958 230.014 69.1025C229.772 68.9047 229.443 68.8059 229.025 68.8059C228.656 68.8059 228.329 68.9113 228.043 69.1222C227.762 69.3287 227.54 69.6319 227.377 70.0317C227.219 70.4272 227.14 70.9105 227.14 71.4816V71.765C227.14 72.2176 227.224 72.6306 227.391 73.0041C227.558 73.3731 227.799 73.6697 228.116 73.8938C228.432 74.1135 228.81 74.2233 229.249 74.2233C229.68 74.2233 230.044 74.1354 230.343 73.9597C230.642 73.7839 230.903 73.5489 231.128 73.2545L231.872 73.8345C231.644 74.186 231.314 74.5045 230.884 74.7901C230.457 75.0713 229.891 75.2119 229.183 75.2119ZM234.62 75.0801H233.388V67.9491H234.588L234.62 69.0695V75.0801ZM236.842 69.0365C236.736 69.0146 236.637 69.0014 236.545 68.997C236.457 68.9882 236.356 68.9838 236.242 68.9838C235.868 68.9838 235.552 69.0607 235.293 69.2145C235.038 69.3683 234.84 69.5814 234.7 69.8538C234.559 70.1218 234.471 70.4294 234.436 70.7765L234.087 70.9742C234.087 70.3986 234.164 69.8735 234.317 69.399C234.471 68.9201 234.711 68.5379 235.036 68.2523C235.365 67.9623 235.787 67.8173 236.301 67.8173C236.385 67.8173 236.483 67.8283 236.598 67.8503C236.716 67.8678 236.798 67.8876 236.842 67.9096V69.0365ZM242.648 75.0801H241.415V64.957H242.648V75.0801ZM244.276 71.4421C244.276 70.7523 244.407 70.135 244.671 69.5902C244.935 69.0453 245.308 68.6148 245.791 68.2984C246.275 67.9777 246.848 67.8173 247.512 67.8173C248.184 67.8173 248.764 67.9777 249.252 68.2984C249.739 68.6148 250.113 69.0453 250.372 69.5902C250.636 70.135 250.767 70.7523 250.767 71.4421V71.5937C250.767 72.2791 250.636 72.8964 250.372 73.4456C250.113 73.9904 249.739 74.421 249.252 74.7374C248.768 75.0537 248.193 75.2119 247.525 75.2119C246.857 75.2119 246.279 75.0537 245.791 74.7374C245.308 74.421 244.935 73.9904 244.671 73.4456C244.407 72.8964 244.276 72.2791 244.276 71.5937V71.4421ZM245.508 71.5937C245.508 72.0638 245.583 72.4988 245.732 72.8986C245.882 73.2984 246.103 73.6192 246.398 73.8608C246.697 74.1025 247.072 74.2233 247.525 74.2233C247.973 74.2233 248.344 74.1025 248.639 73.8608C248.937 73.6192 249.161 73.2984 249.311 72.8986C249.46 72.4988 249.535 72.0638 249.535 71.5937V71.4421C249.535 70.972 249.46 70.537 249.311 70.1372C249.161 69.7373 248.937 69.4166 248.639 69.175C248.34 68.9289 247.964 68.8059 247.512 68.8059C247.068 68.8059 246.697 68.9289 246.398 69.175C246.099 69.4166 245.875 69.7373 245.726 70.1372C245.581 70.537 245.508 70.972 245.508 71.4421V71.5937ZM255.018 77.8942C254.772 77.8942 254.482 77.8547 254.148 77.7756C253.819 77.7009 253.494 77.5713 253.173 77.3868C252.857 77.2066 252.591 76.9628 252.375 76.6552L253.015 75.9368C253.313 76.2971 253.625 76.5476 253.951 76.6882C254.28 76.8332 254.605 76.9057 254.926 76.9057C255.502 76.9057 255.958 76.7409 256.297 76.4114C256.64 76.0862 256.811 75.6117 256.811 74.9878V69.5177L256.923 67.9491H258.043V74.9285C258.043 75.5568 257.914 76.0928 257.654 76.5366C257.4 76.9804 257.044 77.3165 256.587 77.5449C256.134 77.7778 255.611 77.8942 255.018 77.8942ZM254.821 75.2119C254.249 75.2119 253.753 75.0559 253.331 74.744C252.914 74.4276 252.589 73.997 252.356 73.4522C252.127 72.9074 252.013 72.2879 252.013 71.5937V71.4553C252.013 70.7303 252.127 70.0954 252.356 69.5506C252.584 69.0014 252.909 68.5752 253.331 68.272C253.753 67.9689 254.254 67.8173 254.834 67.8173C255.282 67.8173 255.673 67.8964 256.007 68.0546C256.345 68.2083 256.631 68.4324 256.864 68.7268C257.101 69.0212 257.288 69.3771 257.424 69.7945C257.564 70.2119 257.661 70.682 257.714 71.2048V71.8441C257.648 72.5339 257.501 73.1315 257.272 73.6367C257.048 74.1376 256.734 74.5265 256.33 74.8033C255.926 75.0757 255.422 75.2119 254.821 75.2119ZM255.124 74.1838C255.528 74.1838 255.86 74.0981 256.119 73.9267C256.378 73.7554 256.587 73.5291 256.745 73.2479C256.903 72.9667 257.026 72.6613 257.114 72.3318V70.7303C257.061 70.4887 256.987 70.2558 256.89 70.0317C256.793 69.8032 256.666 69.6011 256.508 69.4254C256.35 69.2452 256.156 69.1025 255.928 68.997C255.704 68.8916 255.44 68.8388 255.137 68.8388C254.693 68.8388 254.331 68.9575 254.049 69.1947C253.773 69.432 253.568 69.7505 253.436 70.1504C253.309 70.5458 253.245 70.9808 253.245 71.4553V71.5937C253.245 72.0682 253.309 72.501 253.436 72.892C253.568 73.2831 253.773 73.5972 254.049 73.8345C254.326 74.0673 254.684 74.1838 255.124 74.1838ZM262.505 75.2119C261.877 75.2119 261.345 75.0998 260.91 74.8758C260.475 74.6517 260.146 74.3639 259.922 74.0124C259.698 73.6565 259.585 73.2809 259.585 72.8854H260.818C260.84 73.2193 260.937 73.4852 261.108 73.6829C261.284 73.8762 261.497 74.0146 261.747 74.0981C262.002 74.1816 262.255 74.2233 262.505 74.2233C262.839 74.2233 263.118 74.1794 263.342 74.0915C263.571 73.9992 263.742 73.8762 263.856 73.7224C263.975 73.5643 264.034 73.3863 264.034 73.1886C264.034 73.0128 263.995 72.8503 263.915 72.7009C263.841 72.5471 263.687 72.4087 263.454 72.2857C263.221 72.1583 262.87 72.0462 262.4 71.9496C261.872 71.8397 261.415 71.7013 261.029 71.5344C260.647 71.363 260.35 71.1455 260.139 70.8819C259.933 70.6183 259.829 70.2909 259.829 69.8999C259.829 69.5221 259.937 69.1771 260.152 68.8652C260.372 68.5488 260.68 68.2962 261.075 68.1073C261.475 67.914 261.94 67.8173 262.472 67.8173C263.043 67.8173 263.531 67.9184 263.935 68.1205C264.344 68.3182 264.656 68.5862 264.871 68.9245C265.086 69.2584 265.194 69.6297 265.194 70.0383H263.962C263.962 69.7439 263.832 69.4649 263.573 69.2013C263.318 68.9377 262.951 68.8059 262.472 68.8059C262.138 68.8059 261.866 68.8586 261.655 68.9641C261.448 69.0651 261.297 69.1969 261.2 69.3595C261.108 69.5177 261.062 69.6846 261.062 69.8604C261.062 70.0361 261.106 70.1899 261.194 70.3217C261.281 70.4491 261.442 70.5634 261.675 70.6644C261.912 70.7655 262.255 70.8665 262.703 70.9676C263.287 71.0994 263.768 71.2576 264.146 71.4421C264.524 71.6266 264.805 71.8529 264.99 72.1209C265.174 72.3889 265.267 72.7163 265.267 73.1029C265.267 73.5159 265.152 73.8828 264.924 74.2035C264.695 74.5199 264.375 74.7681 263.962 74.9483C263.549 75.124 263.063 75.2119 262.505 75.2119Z" fill="#6B7280"/>
<rect x="331.309" y="0.309439" width="106.381" height="92.3811" rx="7.11709" fill="#F3F4F6"/>
<rect x="331.309" y="0.309439" width="106.381" height="92.3811" rx="7.11709" stroke="#E5E7EB" stroke-width="0.618877"/>
<path d="M392 28.3779V44.3779M384.5 34.3779V44.3779M377 40.3779V44.3779M373.25 52.3779H395.75C396.745 52.3779 397.698 51.9565 398.402 51.2064C399.105 50.4562 399.5 49.4388 399.5 48.3779V24.3779C399.5 23.3171 399.105 22.2996 398.402 21.5495C397.698 20.7994 396.745 20.3779 395.75 20.3779H373.25C372.255 20.3779 371.302 20.7994 370.598 21.5495C369.895 22.2996 369.5 23.3171 369.5 24.3779V48.3779C369.5 49.4388 369.895 50.4562 370.598 51.2064C371.302 51.9565 372.255 52.3779 373.25 52.3779Z" stroke="#6B7280" stroke-width="2" stroke-linecap="round" stroke-linejoin="round"/>
<path d="M373.261 66.7821L376.392 74.6248L379.522 66.7821H380.768L376.873 76.3779H375.904L372.016 66.7821H373.261ZM372.708 66.7821L372.886 72.6279V76.3779H371.614V66.7821H372.708ZM381.17 66.7821V76.3779H379.898V72.6279L380.076 66.7821H381.17ZM389.507 76.3779H384.439V75.3498H389.507V76.3779ZM384.689 76.3779H383.411V66.7821H384.689V76.3779ZM388.835 71.9359H384.439V70.9078H388.835V71.9359ZM389.441 67.8168H384.439V66.7821H389.441V67.8168ZM394.127 76.5097C393.683 76.5097 393.246 76.4482 392.816 76.3252C392.389 76.2022 392.001 76.0176 391.649 75.7716C391.302 75.5256 391.023 75.2224 390.812 74.8621C390.606 74.4974 390.502 74.0756 390.502 73.5967H391.781C391.781 73.9262 391.845 74.2096 391.972 74.4469C392.099 74.6842 392.273 74.8797 392.493 75.0335C392.712 75.1872 392.963 75.3015 393.244 75.3762C393.525 75.4465 393.82 75.4816 394.127 75.4816C394.571 75.4816 394.944 75.4201 395.247 75.2971C395.555 75.1697 395.788 74.9917 395.946 74.7632C396.109 74.5348 396.19 74.2646 396.19 73.9526C396.19 73.6494 396.126 73.3924 395.999 73.1815C395.871 72.9706 395.643 72.7795 395.313 72.6081C394.984 72.4368 394.516 72.2632 393.91 72.0875C393.435 71.9513 393.007 71.7975 392.624 71.6261C392.247 71.4504 391.921 71.2505 391.649 71.0264C391.377 70.8023 391.168 70.5453 391.023 70.2553C390.878 69.9653 390.805 69.6336 390.805 69.2601C390.805 68.7593 390.939 68.3133 391.207 67.9223C391.48 67.5268 391.86 67.2171 392.348 66.993C392.835 66.7645 393.407 66.6503 394.061 66.6503C394.786 66.6503 395.401 66.7887 395.907 67.0655C396.412 67.3379 396.796 67.696 397.06 68.1397C397.324 68.5791 397.455 69.0492 397.455 69.5501H396.17C396.17 69.1898 396.093 68.8691 395.94 68.5879C395.79 68.3067 395.559 68.087 395.247 67.9289C394.936 67.7663 394.54 67.685 394.061 67.685C393.613 67.685 393.242 67.7531 392.947 67.8893C392.657 68.0255 392.442 68.21 392.302 68.4429C392.161 68.6758 392.091 68.9416 392.091 69.2404C392.091 69.5084 392.168 69.7478 392.321 69.9587C392.475 70.1652 392.717 70.352 393.046 70.5189C393.376 70.6859 393.802 70.8441 394.325 70.9935C395.05 71.1956 395.645 71.4306 396.111 71.6986C396.577 71.9667 396.919 72.283 397.139 72.6477C397.363 73.0124 397.475 73.4429 397.475 73.9394C397.475 74.4579 397.337 74.9104 397.06 75.2971C396.783 75.6837 396.394 75.9825 395.893 76.1934C395.392 76.4043 394.804 76.5097 394.127 76.5097Z" fill="#6B7280"/>
</svg>
