<svg width="443" height="289" viewBox="0 0 443 289" fill="none" xmlns="http://www.w3.org/2000/svg">
<rect x="26.4727" y="206.271" width="82.729" height="82.729" rx="8.82443" fill="#EEF2FF"/>
<path d="M77.7607 243.173C78.2931 243.173 78.7226 243.606 78.7246 244.137V244.138C78.7244 244.669 78.2926 245.101 77.7607 245.102H65.7695C65.2376 245.102 64.8049 244.67 64.8047 244.138C64.8047 243.606 65.2374 243.173 65.7695 243.173H77.7607Z" fill="#4F46E5" stroke="#4F46E5" stroke-width="0.25"/>
<path d="M62.3701 241.098C62.7467 240.721 63.3568 240.721 63.7334 241.098L63.7998 241.171C64.1086 241.549 64.0864 242.11 63.7334 242.461L60.4727 245.722C60.291 245.905 60.0473 246.005 59.791 246.005C59.5344 246.005 59.2896 245.903 59.1084 245.722L57.2266 243.838H57.2256C56.8511 243.461 56.8517 242.852 57.2275 242.474L57.2285 242.473C57.6047 242.101 58.2159 242.098 58.5928 242.475L59.791 243.675L62.3701 241.098Z" fill="#4F46E5" stroke="#4F46E5" stroke-width="0.25"/>
<path d="M77.7607 251.437L77.8594 251.441C78.3452 251.491 78.7227 251.902 78.7246 252.4V252.401C78.7244 252.933 78.2926 253.365 77.7607 253.365H65.7695C65.2376 253.365 64.8049 252.933 64.8047 252.401C64.8047 251.869 65.2374 251.437 65.7695 251.437H77.7607Z" fill="#4F46E5" stroke="#4F46E5" stroke-width="0.25"/>
<path d="M62.4434 249.295C62.8219 248.989 63.3819 249.009 63.7354 249.362C64.1117 249.739 64.1111 250.348 63.7334 250.727L60.4727 253.985L60.4717 253.986C60.2828 254.173 60.0378 254.267 59.791 254.267C59.5439 254.267 59.2965 254.171 59.1094 253.984L57.2275 252.103C56.851 251.728 56.8511 251.114 57.2275 250.739C57.6042 250.363 58.2142 250.363 58.5908 250.739L59.79 251.938L62.3701 249.36L62.4434 249.295Z" fill="#4F46E5" stroke="#4F46E5" stroke-width="0.25"/>
<path d="M77.7607 259.699L77.8594 259.704C78.3451 259.754 78.7227 260.163 78.7246 260.663V260.664C78.7244 261.196 78.2926 261.628 77.7607 261.628H65.7695C65.2376 261.628 64.8049 261.196 64.8047 260.664C64.8047 260.132 65.2374 259.699 65.7695 259.699H77.7607Z" fill="#4F46E5" stroke="#4F46E5" stroke-width="0.25"/>
<path d="M62.3701 257.625C62.7467 257.246 63.3542 257.246 63.7324 257.624C64.1093 257.999 64.1103 258.613 63.7334 258.988L60.4727 262.248C60.2836 262.437 60.038 262.531 59.791 262.531C59.5438 262.531 59.2965 262.435 59.1094 262.248L57.2275 260.366C56.8511 259.991 56.8509 259.378 57.2275 259.003C57.6041 258.627 58.2142 258.627 58.5908 259.003L59.79 260.202L62.3701 257.625Z" fill="#4F46E5" stroke="#4F46E5" stroke-width="0.25"/>
<path d="M56.707 232.225C57.2391 232.225 57.6719 232.657 57.6719 233.189C57.6717 233.721 57.239 234.153 56.707 234.153H56.5117C54.8916 234.153 53.5724 235.471 53.5723 237.093V263.996C53.5723 265.609 54.8893 266.922 56.5117 266.922L79.1621 266.924C80.7828 266.924 82.1016 265.611 82.1016 263.998V237.093C82.1014 235.473 80.7839 234.153 79.1621 234.153H78.9658C78.434 234.153 78.0022 233.721 78.002 233.189C78.002 232.657 78.4338 232.225 78.9658 232.225H79.1621C81.8467 232.225 84.0303 234.409 84.0303 237.094V263.997C84.03 266.674 81.8479 268.85 79.1641 268.851H56.5117C53.8276 268.851 51.6448 266.675 51.6445 263.997V237.092C51.6445 234.407 53.8273 232.225 56.5117 232.225H56.707Z" fill="#4F46E5" stroke="#4F46E5" stroke-width="0.25"/>
<path d="M67.8359 226.422C69.6627 226.422 71.1941 227.693 71.6006 229.395H73.3994C75.0693 229.395 76.4297 230.755 76.4297 232.427V233.9C76.4297 235.572 75.0693 236.933 73.3994 236.933H62.2725C60.6027 236.933 59.2422 235.574 59.2422 233.902V232.428C59.2424 230.756 60.6027 229.396 62.2725 229.396H64.083C64.5 227.673 66.0237 226.422 67.8359 226.422ZM67.835 228.351C66.7627 228.351 65.8887 229.223 65.8887 230.297C65.8885 230.815 65.4762 231.325 64.9316 231.325H62.2705C61.6711 231.325 61.1831 231.808 61.1709 232.405V233.902C61.171 234.51 61.6654 235.005 62.2725 235.005H73.3984C74.0054 235.005 74.4989 234.51 74.499 233.902V232.428C74.4989 231.82 74.0054 231.325 73.3984 231.325H70.7383C70.2062 231.325 69.7734 230.892 69.7734 230.36C69.7735 230.314 69.7805 230.245 69.7871 230.196C69.7804 229.228 68.9106 228.351 67.835 228.351Z" fill="#4F46E5" stroke="#4F46E5" stroke-width="0.25"/>
<rect x="329.812" width="82.729" height="82.729" rx="8.82443" fill="#EEF2FF"/>
<path d="M363.869 41.3643L368.741 46.2361L378.485 36.4925M392.17 26.7099C384.468 27.1189 376.918 24.4557 371.177 19.3047C365.436 24.4557 357.887 27.1189 350.184 26.7099C349.565 29.1095 349.252 31.5781 349.254 34.0566C349.254 47.6757 358.569 59.1221 371.177 62.3667C383.785 59.1221 393.1 47.6782 393.1 34.0566C393.1 31.5183 392.776 29.0581 392.17 26.7099Z" stroke="#4F46E5" stroke-width="3.30916" stroke-linecap="round" stroke-linejoin="round"/>
<rect x="26.4727" width="82.729" height="82.729" rx="8.82443" fill="#EEF2FF"/>
<path d="M77.8763 23.7119H75.0184V22.1365C75.0147 19.7049 73.0449 17.7332 70.6133 17.7295H65.0569C62.6252 17.7332 60.6536 19.7049 60.6517 22.1365V23.7119H57.7938C55.7753 23.7138 53.8412 24.5175 52.4143 25.9445C50.9891 27.3697 50.1855 29.3057 50.1836 31.3226V48.4157C50.1855 50.1489 50.7807 51.8294 51.8679 53.1795C52.9551 54.5296 54.4705 55.4685 56.1642 55.8403V63.7983C56.1642 64.4611 56.7031 65 57.3659 65C58.0306 65 58.5676 64.4611 58.5676 63.7983V62.0069H77.1029V63.7983C77.1029 64.4611 77.6399 65 78.3046 65C78.9675 65 79.5064 64.4611 79.5064 63.7983V55.8403C81.1982 55.4685 82.7154 54.5296 83.8026 53.1795C84.8898 51.8294 85.4851 50.1489 85.4869 48.4157V31.3226C85.4851 29.3059 84.6814 27.3699 83.2543 25.9445C81.8292 24.5174 79.8932 23.7138 77.8763 23.7119ZM63.0554 22.1365C63.0554 21.0305 63.9511 20.1349 65.0571 20.133H70.6135C71.7176 20.1349 72.6133 21.0305 72.6152 22.1365V23.7119H63.0555L63.0554 22.1365ZM77.1029 59.6026H58.5676V56.0256H77.1029V59.6026ZM83.0832 48.4153C83.0795 51.2902 80.7511 53.6184 77.8763 53.6223H57.7942C54.9194 53.6185 52.5911 51.2901 52.5873 48.4153V31.3222C52.591 28.4474 54.9194 26.1191 57.7942 26.1153H77.8763C80.7511 26.119 83.0794 28.4474 83.0832 31.3222V48.4153Z" fill="#4F46E5"/>
<rect x="64.1523" y="35.7422" width="6.50182" height="13.0036" rx="3.25091" stroke="#4F46E5" stroke-width="2.27142"/>
<path d="M51.6914 30.8652H84.2005" stroke="#4F46E5" stroke-width="2.27142"/>
<rect x="329.812" y="206.271" width="82.729" height="82.729" rx="8.82443" fill="#EEF2FF"/>
<path d="M386.766 263.226H378.971M355.586 239.841V232.046V239.841ZM355.586 232.046H363.381H355.586ZM355.586 232.046L365.33 241.79L355.586 232.046ZM386.766 239.841V232.046V239.841ZM386.766 232.046H378.971H386.766ZM386.766 232.046L377.022 241.79L386.766 232.046ZM355.586 255.431V263.226V255.431ZM355.586 263.226H363.381H355.586ZM355.586 263.226L365.33 253.482L355.586 263.226ZM386.766 263.226L377.022 253.482L386.766 263.226ZM386.766 263.226V255.431V263.226Z" stroke="#4F46E5" stroke-width="2.64733" stroke-linecap="round" stroke-linejoin="round"/>
<rect x="359.594" y="103.688" width="82.729" height="82.729" rx="8.82443" fill="#EEF2FF"/>
<path d="M410.7 135.308V154.795M400.956 142.616V154.795M391.212 149.924V154.795M386.341 164.539H415.571C416.864 164.539 418.103 164.026 419.016 163.112C419.93 162.198 420.443 160.959 420.443 159.667V130.436C420.443 129.144 419.93 127.905 419.016 126.991C418.103 126.078 416.864 125.564 415.571 125.564H386.341C385.048 125.564 383.809 126.078 382.896 126.991C381.982 127.905 381.469 129.144 381.469 130.436V159.667C381.469 160.959 381.982 162.198 382.896 163.112C383.809 164.026 385.048 164.539 386.341 164.539Z" stroke="#4F46E5" stroke-width="3.30916" stroke-linecap="round" stroke-linejoin="round"/>
<rect y="103.688" width="82.729" height="82.729" rx="8.82443" fill="#EEF2FF"/>
<path d="M56.3145 118.933C57.3821 118.933 58.3782 119.341 59.123 120.096C59.8787 120.841 60.2881 121.839 60.2881 122.907C60.288 123.976 59.8789 124.972 59.1348 125.727V125.728L53.8496 131.011L55.0625 132.224C55.76 132.932 55.7607 134.077 55.0615 134.776L51.9844 137.854C51.6345 138.203 51.1654 138.378 50.708 138.378C50.2505 138.378 49.7806 138.203 49.4307 137.854L48.1738 136.597L43.6729 140.691H43.6719L33.4551 149.975C33.3531 150.066 33.2537 150.156 33.165 150.244L33.1611 150.248C32.567 150.797 32.0215 151.156 31.4766 151.357L31.2422 151.434C31.0195 151.497 30.7743 151.54 30.4971 151.54C29.9053 151.54 29.2027 151.324 28.5293 150.65C28.0351 150.156 27.7995 149.657 27.7031 149.186V149.184C27.6709 149.012 27.6602 148.841 27.6602 148.684C27.6602 148.413 27.7144 148.167 27.7773 147.957C27.979 147.268 28.4527 146.579 29.251 145.781L36.6201 137.631L41.125 132.668C41.1355 132.65 41.1458 132.631 41.1582 132.614L41.2148 132.548L42.5918 131.025L41.3672 129.8L41.3662 129.799C40.669 129.09 40.6681 127.945 41.3672 127.246L44.4443 124.169H44.4453C45.1537 123.471 46.2989 123.47 46.998 124.169L48.209 125.38L53.5039 120.097C54.249 119.341 55.2461 118.933 56.3145 118.933ZM42.8281 133.422C42.8169 133.44 42.8074 133.457 42.7969 133.471C42.7777 133.495 42.769 133.504 42.7539 133.524L42.7471 133.533L42.6543 133.449L42.7461 133.533L39.8594 136.704L42.4951 139.339L46.8994 135.333L43.8564 132.29L42.8281 133.422ZM45.7109 125.439H45.7119L42.6299 128.521C42.6293 128.523 42.6289 128.526 42.6289 128.528C42.6289 128.531 42.6293 128.534 42.6299 128.535L42.6309 128.536L44.4688 130.375L50.6943 136.601C50.6938 136.6 50.6942 136.6 50.6953 136.601C50.6969 136.601 50.7001 136.602 50.7031 136.602C50.706 136.602 50.7084 136.601 50.71 136.601C50.7114 136.6 50.7116 136.6 50.7109 136.601L53.7773 133.533C53.7863 133.521 53.7909 133.514 53.792 133.512C53.7925 133.51 53.792 133.51 53.792 133.51C53.792 133.508 53.7922 133.504 53.791 133.501C53.7901 133.498 53.7885 133.498 53.7881 133.497L45.7344 125.443C45.7317 125.441 45.7298 125.44 45.7295 125.439H45.7305C45.7291 125.439 45.7258 125.438 45.7207 125.438C45.7121 125.439 45.71 125.44 45.7109 125.439ZM56.3145 120.736C55.7272 120.736 55.1802 120.958 54.7676 121.37L49.4824 126.654L52.5762 129.747L57.8604 124.454L57.8623 124.452C58.2735 124.05 58.4941 123.504 58.4941 122.917C58.4941 122.33 58.273 121.783 57.8604 121.37V121.369C57.4467 120.966 56.8995 120.736 56.3145 120.736ZM29.4541 148.744C29.4541 148.941 29.5335 149.098 29.6602 149.247L29.8008 149.396L29.8066 149.4L29.917 149.512C30.0348 149.62 30.1775 149.716 30.3662 149.748H30.3652C30.6982 149.798 31.2582 149.634 32.1963 148.696L32.2305 148.662L41.1514 140.563L38.6465 138.059L30.5596 147.01L30.5547 147.015L30.5449 147.025L30.5342 147.035C30.1168 147.458 29.8428 147.8 29.6748 148.081C29.5067 148.362 29.4498 148.575 29.4541 148.741V148.744Z" fill="#4F46E5" stroke="#4F46E5" stroke-width="0.25"/>
<path d="M28.7168 153.799C29.0028 153.799 29.2627 153.942 29.4268 154.164L29.4277 154.165C29.7084 154.548 31.0866 156.442 32.3955 158.633C33.05 159.728 33.6887 160.9 34.1641 161.995C34.6378 163.087 34.956 164.117 34.9561 164.923C34.9561 168.208 32.4278 170.903 29.2148 171.162H29.1738C29.1436 171.162 29.1123 171.164 29.0762 171.167C29.0415 171.169 29.0016 171.172 28.9609 171.172H28.4326C28.3664 171.172 28.291 171.172 28.2139 171.162H28.1787C24.9766 170.893 22.4375 168.198 22.4375 164.923C22.4376 164.117 22.7557 163.087 23.2295 161.995C23.7049 160.9 24.3435 159.728 24.998 158.633C26.3074 156.442 27.6867 154.547 27.9668 154.165L27.9717 154.158C28.1533 153.943 28.41 153.799 28.6973 153.799H28.7168ZM28.707 156.256C27.5672 157.907 25.4201 161.166 24.5791 163.493C24.5618 163.545 24.5384 163.598 24.5068 163.648C24.2876 164.288 24.2315 164.688 24.2314 164.923C24.2314 165.284 24.2801 165.627 24.3584 165.962C24.3662 165.98 24.3742 165.997 24.3867 166.024C24.3981 166.05 24.4107 166.083 24.4189 166.119C24.9224 167.985 26.5924 169.3 28.5195 169.389H28.8945C30.8217 169.3 32.4906 167.985 32.9941 166.119L32.9961 166.112L32.999 166.105C33.0092 166.08 33.0192 166.055 33.0293 166.029C33.0383 166.007 33.0467 165.984 33.0557 165.962C33.1429 165.63 33.1826 165.277 33.1826 164.923C33.1826 164.699 33.1259 164.299 32.9072 163.651C32.8759 163.596 32.8541 163.543 32.8359 163.497L32.835 163.493C31.994 161.156 29.8469 157.906 28.707 156.256Z" fill="#4F46E5" stroke="#4F46E5" stroke-width="0.25"/>
<path d="M117.005 49.5369C116.704 49.4912 116.423 49.6982 116.377 49.9993C116.331 50.3005 116.538 50.5817 116.84 50.6275L116.922 50.0822L117.005 49.5369ZM197.211 99.7902C197.513 99.8255 197.787 99.609 197.822 99.3064L198.399 94.3763C198.434 94.0737 198.218 93.7998 197.915 93.7644C197.613 93.7291 197.339 93.9456 197.303 94.2482L196.791 98.6305L192.409 98.1182C192.106 98.0828 191.832 98.2994 191.797 98.6019C191.761 98.9045 191.978 99.1784 192.28 99.2138L197.211 99.7902ZM116.922 50.0822L116.84 50.6275C135.94 53.5301 149.685 57.8827 161.77 65.4315C173.861 72.9841 184.331 83.7612 196.842 99.5844L197.275 99.2424L197.707 98.9003C185.169 83.0425 174.606 72.1486 162.354 64.4959C150.097 56.8394 136.191 52.4525 117.005 49.5369L116.922 50.0822Z" fill="#F9FAFB"/>
<path d="M113.699 248.162C113.397 248.208 113.116 248.001 113.07 247.7C113.025 247.399 113.232 247.118 113.533 247.072L113.616 247.617L113.699 248.162ZM200.963 193.59C201.265 193.555 201.539 193.771 201.575 194.074L202.151 199.004C202.187 199.307 201.97 199.581 201.667 199.616C201.365 199.651 201.091 199.435 201.056 199.132L200.543 194.75L196.161 195.262C195.858 195.298 195.584 195.081 195.549 194.779C195.514 194.476 195.73 194.202 196.033 194.167L200.963 193.59ZM113.616 247.617L113.533 247.072C134.314 243.914 149.275 239.177 162.429 230.96C175.589 222.74 186.983 211.011 200.594 193.796L201.027 194.138L201.46 194.48C187.821 211.73 176.334 223.575 163.013 231.896C149.686 240.22 134.565 244.991 113.699 248.162L113.616 247.617Z" fill="#F9FAFB"/>
<path d="M90.608 141.72C90.3157 141.635 90.1482 141.328 90.2339 141.036C90.3195 140.744 90.6259 140.576 90.9182 140.662L90.7631 141.191L90.608 141.72ZM174.108 145.771C174.35 145.956 174.397 146.302 174.212 146.544L171.203 150.492C171.018 150.734 170.672 150.781 170.43 150.596C170.188 150.411 170.141 150.065 170.326 149.823L173.001 146.314L169.492 143.639C169.25 143.455 169.203 143.108 169.388 142.866C169.573 142.624 169.919 142.577 170.161 142.762L174.108 145.771ZM90.7631 141.191L90.9182 140.662C123.523 150.218 141.711 149.976 173.7 145.664L173.774 146.21L173.847 146.757C141.75 151.084 123.4 151.331 90.608 141.72L90.7631 141.191Z" fill="#F9FAFB"/>
<path d="M318.476 52.6431C318.721 52.8237 318.774 53.1689 318.593 53.4142L315.651 57.4116C315.47 57.6569 315.125 57.7094 314.879 57.5288C314.634 57.3483 314.582 57.003 314.762 56.7577L317.378 53.2045L313.825 50.5887C313.579 50.4081 313.527 50.0629 313.708 49.8176C313.888 49.5723 314.233 49.5198 314.479 49.7004L318.476 52.6431ZM240.869 100.975C240.68 101.214 240.333 101.254 240.094 101.065C239.855 100.876 239.815 100.53 240.004 100.291L240.436 100.633L240.869 100.975ZM318.149 53.0873L318.232 53.6325C299.761 56.4396 286.469 60.6487 274.784 67.9478C263.093 75.2506 252.968 85.6718 240.869 100.975L240.436 100.633L240.004 100.291C252.13 84.9532 262.348 74.4152 274.2 67.0122C286.058 59.6054 299.51 55.362 318.066 52.542L318.149 53.0873Z" fill="#F9FAFB"/>
<path d="M323.864 238.115C324.109 237.935 324.161 237.59 323.981 237.344L321.038 233.347C320.858 233.102 320.512 233.049 320.267 233.23C320.022 233.41 319.969 233.756 320.15 234.001L322.766 237.554L319.212 240.17C318.967 240.35 318.915 240.696 319.095 240.941C319.276 241.186 319.621 241.239 319.866 241.058L323.864 238.115ZM247.406 190.487C247.217 190.248 246.87 190.207 246.631 190.396C246.392 190.585 246.352 190.932 246.54 191.171L246.973 190.829L247.406 190.487ZM323.537 237.671L323.62 237.126C305.422 234.361 292.329 230.214 280.817 223.024C269.3 215.83 259.326 205.563 247.406 190.487L246.973 190.829L246.54 191.171C258.488 206.282 268.555 216.665 280.233 223.959C291.917 231.257 305.171 235.438 323.454 238.217L323.537 237.671Z" fill="#F9FAFB"/>
<path d="M347.571 140.353C347.717 140.085 347.619 139.75 347.351 139.604L342.996 137.223C342.729 137.077 342.394 137.175 342.247 137.442C342.101 137.71 342.2 138.045 342.467 138.191L346.338 140.307L344.222 144.179C344.076 144.446 344.174 144.781 344.441 144.927C344.708 145.073 345.043 144.975 345.19 144.708L347.571 140.353ZM263.703 144.587C263.402 144.547 263.124 144.758 263.083 145.06C263.042 145.362 263.254 145.64 263.556 145.681L263.63 145.134L263.703 144.587ZM347.087 140.088L346.932 139.559C314.151 149.166 295.865 148.923 263.703 144.587L263.63 145.134L263.556 145.681C295.826 150.031 314.274 150.279 347.242 140.617L347.087 140.088Z" fill="#F9FAFB"/>
<g clip-path="url(#clip0_7036_5446)">
<path d="M223.781 153.134C230.097 155.805 236.163 158.977 242.702 160.452C245.624 160.925 248.573 161.175 251.467 161.175V145.093H249.046C240.087 145.093 231.795 149.74 223.781 153.134Z" fill="#DA3D0B"/>
<path d="M205.114 158.253C202.192 158.003 199.27 158.003 196.377 158.003H189.727V172.778C189.727 175.449 191.897 177.592 194.54 177.592H246.656C249.327 177.592 251.47 175.421 251.47 172.778V170.914C245.154 170.914 238.587 170.107 232.744 167.658C223.561 164.514 215.075 158.504 205.114 158.253Z" fill="#DA3D0B"/>
<path d="M246.684 115.82H194.54C191.897 115.82 189.727 117.991 189.727 120.662V148.041C195.57 148.041 201.719 148.292 207.534 147.791C215.548 147.068 222.588 142.671 230.1 139.75C236.89 136.828 244.207 135.131 251.498 135.353V120.662C251.498 117.991 249.327 115.82 246.684 115.82Z" fill="#DA3D0B"/>
<path d="M251.498 145.093V135.354C244.207 135.104 236.917 136.829 230.1 139.75C222.56 142.672 215.548 147.068 207.534 147.792C201.719 148.293 195.57 148.042 189.727 148.042V158.031H196.377C199.27 158.031 202.192 158.031 205.114 158.282C215.075 158.532 223.561 164.542 232.771 167.686C238.615 170.135 245.181 170.942 251.498 170.942V161.203C248.604 161.203 245.627 160.953 242.733 160.48C236.166 159.005 230.128 155.861 223.812 153.162C231.825 149.739 240.117 145.121 249.077 145.121L251.498 145.093Z" fill="white"/>
</g>
<defs>
<clipPath id="clip0_7036_5446">
<rect width="61.771" height="61.771" fill="white" transform="translate(189.727 115.82)"/>
</clipPath>
</defs>
</svg>
