<svg width="443" height="289" viewBox="0 0 443 289" fill="none" xmlns="http://www.w3.org/2000/svg">
<rect x="26.4727" y="206.271" width="82.729" height="82.729" rx="8.82443" fill="#EEF2FF"/>
<path d="M71.9174 228.921C70.8797 224.644 64.7948 224.644 63.7571 228.921C63.0848 231.686 59.9181 232.996 57.4919 231.515C53.7309 229.225 49.4291 233.53 51.7188 237.288C52.063 237.853 52.2691 238.491 52.3202 239.15C52.3713 239.809 52.266 240.471 52.013 241.082C51.7599 241.693 51.3662 242.235 50.8638 242.665C50.3615 243.095 49.7647 243.4 49.1222 243.556C44.8447 244.594 44.8447 250.679 49.1222 251.716C49.7642 251.872 50.3603 252.178 50.8621 252.608C51.3638 253.038 51.7571 253.58 52.0099 254.19C52.2626 254.801 52.3678 255.462 52.3168 256.121C52.2658 256.78 52.0601 257.417 51.7164 257.981C49.4266 261.742 53.7309 266.044 57.4895 263.754C58.054 263.41 58.6919 263.204 59.3511 263.153C60.0103 263.102 60.6722 263.207 61.2831 263.46C61.8939 263.713 62.4363 264.107 62.8663 264.609C63.2962 265.112 63.6014 265.709 63.7571 266.351C64.7948 270.629 70.8797 270.629 71.9174 266.351C72.0735 265.709 72.3789 265.113 72.8088 264.611C73.2387 264.109 73.7809 263.716 74.3914 263.463C75.0018 263.211 75.6633 263.106 76.3221 263.157C76.9808 263.208 77.6183 263.413 78.1826 263.757C81.9436 266.047 86.2454 261.742 83.9557 257.984C83.6115 257.419 83.4054 256.781 83.3543 256.122C83.3032 255.463 83.4085 254.801 83.6615 254.19C83.9146 253.579 84.3083 253.037 84.8107 252.607C85.313 252.177 85.9098 251.872 86.5523 251.716C90.8298 250.679 90.8298 244.594 86.5523 243.556C85.9103 243.4 85.3142 243.094 84.8124 242.665C84.3107 242.235 83.9174 241.692 83.6646 241.082C83.4119 240.472 83.3067 239.81 83.3577 239.151C83.4087 238.492 83.6144 237.855 83.9581 237.291C86.2479 233.53 81.9436 229.228 78.185 231.518C77.6205 231.862 76.9826 232.068 76.3234 232.119C75.6642 232.17 75.0023 232.065 74.3914 231.812C73.7806 231.559 73.2381 231.165 72.8082 230.663C72.3783 230.16 72.0731 229.564 71.9174 228.921Z" stroke="#4F46E5" stroke-width="3.30916" stroke-linecap="round" stroke-linejoin="round"/>
<path d="M73.0024 252.803C74.3729 251.433 75.1428 249.574 75.1428 247.636C75.1428 245.698 74.3729 243.839 73.0024 242.469C71.632 241.098 69.7732 240.328 67.8351 240.328C65.8969 240.328 64.0382 241.098 62.6677 242.469C61.2973 243.839 60.5273 245.698 60.5273 247.636C60.5273 249.574 61.2973 251.433 62.6677 252.803C64.0382 254.174 65.8969 254.944 67.8351 254.944C69.7732 254.944 71.632 254.174 73.0024 252.803Z" stroke="#4F46E5" stroke-width="3" stroke-linecap="round" stroke-linejoin="round"/>
<rect x="329.812" width="82.729" height="82.729" rx="8.82443" fill="#EEF2FF"/>
<path d="M361.433 43.8001V41.3642M371.177 43.8001V36.4924M380.921 43.8001V31.6206M361.433 63.2874L371.177 53.5438L380.921 63.2874M349.254 21.877H393.1M351.69 21.877H390.664V51.1079C390.664 51.7539 390.408 52.3735 389.951 52.8303C389.494 53.2871 388.875 53.5438 388.228 53.5438H354.126C353.48 53.5438 352.86 53.2871 352.403 52.8303C351.946 52.3735 351.69 51.7539 351.69 51.1079V21.877Z" stroke="#4F46E5" stroke-width="3" stroke-linecap="round" stroke-linejoin="round"/>
<rect x="26.4727" width="82.729" height="82.729" rx="8.82443" fill="#EEF2FF"/>
<path d="M66.7276 47.4166L77.8581 58.5471C78.8127 59.4712 80.0923 59.983 81.4208 59.9723C82.7494 59.9615 84.0204 59.4289 84.9599 58.4895C85.8993 57.55 86.4319 56.2789 86.4427 54.9504C86.4535 53.6218 85.9416 52.3423 85.0175 51.3877L73.7973 40.1674M64.0452 40.6123L67.3767 37.8688L59.2436 29.7357V27.0457L52.0842 22.75L49.2204 25.6138L53.5161 32.7732H56.2061L64.0471 40.6142L50.9941 51.3629C50.469 51.7936 50.04 52.3295 49.7346 52.936C49.4291 53.5426 49.2541 54.2064 49.2207 54.8847C49.1873 55.563 49.2963 56.2407 49.5407 56.8744C49.7851 57.508 50.1594 58.0834 50.6396 58.5636C51.1199 59.0438 51.6953 59.4181 52.3289 59.6625C52.9625 59.9069 53.6403 60.0159 54.3186 59.9825C54.9969 59.9491 55.6606 59.7741 56.2672 59.4687C56.8738 59.1633 57.4097 58.7342 57.8404 58.2092L66.7276 47.4166L71.4929 41.6318C72.0981 40.8987 72.9057 40.4366 73.7992 40.1694C74.8493 39.8562 76.0196 39.8104 77.1269 39.9021C78.6196 40.0302 80.1198 39.7659 81.4787 39.1352C82.8376 38.5045 84.008 37.5294 84.8737 36.3067C85.7394 35.084 86.2703 33.6562 86.4138 32.1649C86.5572 30.6737 86.3082 29.1708 85.6915 27.8055L79.437 34.0619C78.3906 33.8199 77.4332 33.289 76.6737 32.5295C75.9143 31.7701 75.3833 30.8126 75.1414 29.7662L81.3958 23.5118C80.0305 22.895 78.5277 22.646 77.0364 22.7895C75.5452 22.9329 74.1173 23.4639 72.8946 24.3296C71.6719 25.1953 70.6969 26.3656 70.0662 27.7246C69.4355 29.0835 69.1711 30.5837 69.2993 32.0763C69.473 34.1306 69.1637 36.3987 67.5734 37.7084L67.3786 37.8707M80.006 53.5355L74.9944 48.5239M54.2168 54.9674H54.232V54.9827H54.2168V54.9674Z" stroke="#4F46E5" stroke-width="3" stroke-linecap="round" stroke-linejoin="round"/>
<rect x="329.812" y="206.271" width="82.729" height="82.729" rx="8.82443" fill="#EEF2FF"/>
<path d="M351.688 235.457V259.816C351.688 265.199 360.413 269.559 371.175 269.559C381.937 269.559 390.662 265.199 390.662 259.816V235.457M351.688 235.457C351.688 240.84 360.413 245.2 371.175 245.2C381.937 245.2 390.662 240.84 390.662 235.457M351.688 235.457C351.688 230.073 360.413 225.713 371.175 225.713C381.937 225.713 390.662 230.073 390.662 235.457M390.662 247.636C390.662 253.019 381.937 257.38 371.175 257.38C360.413 257.38 351.688 253.019 351.688 247.636" stroke="#4F46E5" stroke-width="3" stroke-linecap="round" stroke-linejoin="round"/>
<rect x="359.594" y="103.688" width="82.729" height="82.729" rx="8.82443" fill="#EEF2FF"/>
<path d="M393.651 145.052L398.522 149.924L408.266 140.18M421.951 130.397C414.249 130.806 406.699 128.143 400.958 122.992C395.218 128.143 387.668 130.806 379.966 130.397C379.346 132.797 379.033 135.266 379.035 137.744C379.035 151.363 388.35 162.81 400.958 166.054C413.567 162.81 422.882 151.366 422.882 137.744C422.882 135.206 422.558 132.746 421.951 130.397Z" stroke="#4F46E5" stroke-width="3" stroke-linecap="round" stroke-linejoin="round"/>
<rect y="103.688" width="82.729" height="82.729" rx="8.82443" fill="#EEF2FF"/>
<path d="M59.4574 153.402C58.7773 152.722 57.911 152.258 56.9679 152.07L51.1533 150.908C47.9663 150.27 44.6577 150.713 41.7507 152.167L40.9761 152.552C38.0691 154.005 34.7606 154.449 31.5735 153.811L26.8698 152.871C26.0835 152.714 25.2705 152.753 24.5031 152.986C23.7357 153.218 23.0375 153.636 22.4705 154.203M31.6198 125.564H51.1071L48.6712 128V140.599C48.6714 141.891 49.1849 143.13 50.0986 144.043L62.2782 156.223C65.3474 159.292 63.1721 164.539 58.8313 164.539H23.8931C19.5523 164.539 17.3795 159.292 20.4487 156.223L32.6283 144.043C33.542 143.13 34.0554 141.891 34.0557 140.599V128L31.6198 125.564Z" stroke="#4F46E5" stroke-width="3" stroke-linecap="round" stroke-linejoin="round"/>
<path d="M117.005 49.5369C116.704 49.4912 116.423 49.6982 116.377 49.9993C116.331 50.3005 116.538 50.5817 116.84 50.6275L116.922 50.0822L117.005 49.5369ZM197.211 99.7902C197.513 99.8255 197.787 99.609 197.822 99.3064L198.399 94.3763C198.434 94.0737 198.218 93.7998 197.915 93.7644C197.613 93.7291 197.339 93.9456 197.303 94.2482L196.791 98.6305L192.409 98.1182C192.106 98.0828 191.832 98.2994 191.797 98.6019C191.761 98.9045 191.978 99.1784 192.28 99.2138L197.211 99.7902ZM116.922 50.0822L116.84 50.6275C135.94 53.5301 149.685 57.8827 161.77 65.4315C173.861 72.9841 184.331 83.7612 196.842 99.5844L197.275 99.2424L197.707 98.9003C185.169 83.0425 174.606 72.1486 162.354 64.4959C150.097 56.8394 136.191 52.4525 117.005 49.5369L116.922 50.0822Z" fill="#F9FAFB"/>
<path d="M113.699 248.162C113.397 248.208 113.116 248.001 113.07 247.7C113.025 247.399 113.232 247.118 113.533 247.072L113.616 247.617L113.699 248.162ZM200.963 193.59C201.265 193.555 201.539 193.771 201.575 194.074L202.151 199.004C202.187 199.307 201.97 199.581 201.667 199.616C201.365 199.651 201.091 199.435 201.056 199.132L200.543 194.75L196.161 195.262C195.858 195.298 195.584 195.081 195.549 194.779C195.514 194.476 195.73 194.202 196.033 194.167L200.963 193.59ZM113.616 247.617L113.533 247.072C134.314 243.914 149.275 239.177 162.429 230.96C175.589 222.74 186.983 211.011 200.594 193.796L201.027 194.138L201.46 194.48C187.821 211.73 176.334 223.575 163.013 231.896C149.686 240.22 134.565 244.991 113.699 248.162L113.616 247.617Z" fill="#F9FAFB"/>
<path d="M90.608 141.72C90.3157 141.635 90.1482 141.328 90.2339 141.036C90.3195 140.744 90.6259 140.576 90.9182 140.662L90.7631 141.191L90.608 141.72ZM174.108 145.771C174.35 145.956 174.397 146.302 174.212 146.544L171.203 150.492C171.018 150.734 170.672 150.781 170.43 150.596C170.188 150.411 170.141 150.065 170.326 149.823L173.001 146.314L169.492 143.639C169.25 143.455 169.203 143.108 169.388 142.866C169.573 142.624 169.919 142.577 170.161 142.762L174.108 145.771ZM90.7631 141.191L90.9182 140.662C123.523 150.218 141.711 149.976 173.7 145.664L173.774 146.21L173.847 146.757C141.75 151.084 123.4 151.331 90.608 141.72L90.7631 141.191Z" fill="#F9FAFB"/>
<path d="M318.476 52.6431C318.721 52.8237 318.774 53.1689 318.593 53.4142L315.651 57.4116C315.47 57.6569 315.125 57.7094 314.879 57.5288C314.634 57.3483 314.582 57.003 314.762 56.7577L317.378 53.2045L313.825 50.5887C313.579 50.4081 313.527 50.0629 313.708 49.8176C313.888 49.5723 314.233 49.5198 314.479 49.7004L318.476 52.6431ZM240.869 100.975C240.68 101.214 240.333 101.254 240.094 101.065C239.855 100.876 239.815 100.53 240.004 100.291L240.436 100.633L240.869 100.975ZM318.149 53.0873L318.232 53.6325C299.761 56.4396 286.469 60.6487 274.784 67.9478C263.093 75.2506 252.968 85.6718 240.869 100.975L240.436 100.633L240.004 100.291C252.13 84.9532 262.348 74.4152 274.2 67.0122C286.058 59.6054 299.51 55.362 318.066 52.542L318.149 53.0873Z" fill="#F9FAFB"/>
<path d="M323.864 238.115C324.109 237.935 324.161 237.59 323.981 237.344L321.038 233.347C320.858 233.102 320.512 233.049 320.267 233.23C320.022 233.41 319.969 233.756 320.15 234.001L322.766 237.554L319.212 240.17C318.967 240.35 318.915 240.696 319.095 240.941C319.276 241.186 319.621 241.239 319.866 241.058L323.864 238.115ZM247.406 190.487C247.217 190.248 246.87 190.207 246.631 190.396C246.392 190.585 246.352 190.932 246.54 191.171L246.973 190.829L247.406 190.487ZM323.537 237.671L323.62 237.126C305.422 234.361 292.329 230.214 280.817 223.024C269.3 215.83 259.326 205.563 247.406 190.487L246.973 190.829L246.54 191.171C258.488 206.282 268.555 216.665 280.233 223.959C291.917 231.257 305.171 235.438 323.454 238.217L323.537 237.671Z" fill="#F9FAFB"/>
<path d="M347.571 140.353C347.717 140.085 347.619 139.75 347.351 139.604L342.996 137.223C342.729 137.077 342.394 137.175 342.247 137.442C342.101 137.71 342.2 138.045 342.467 138.191L346.338 140.307L344.222 144.179C344.076 144.446 344.174 144.781 344.441 144.927C344.708 145.073 345.043 144.975 345.19 144.708L347.571 140.353ZM263.703 144.587C263.402 144.547 263.124 144.758 263.083 145.06C263.042 145.362 263.254 145.64 263.556 145.681L263.63 145.134L263.703 144.587ZM347.087 140.088L346.932 139.559C314.151 149.166 295.865 148.923 263.703 144.587L263.63 145.134L263.556 145.681C295.826 150.031 314.274 150.279 347.242 140.617L347.087 140.088Z" fill="#F9FAFB"/>
<g clip-path="url(#clip0_7193_4460)">
<path d="M223.781 153.134C230.097 155.805 236.163 158.977 242.702 160.452C245.624 160.925 248.573 161.175 251.467 161.175V145.093H249.046C240.087 145.093 231.795 149.74 223.781 153.134Z" fill="#DA3D0B"/>
<path d="M205.114 158.253C202.192 158.003 199.27 158.003 196.377 158.003H189.727V172.778C189.727 175.449 191.897 177.592 194.54 177.592H246.656C249.327 177.592 251.47 175.421 251.47 172.778V170.914C245.154 170.914 238.587 170.107 232.744 167.658C223.561 164.514 215.075 158.504 205.114 158.253Z" fill="#DA3D0B"/>
<path d="M246.684 115.821H194.54C191.897 115.821 189.727 117.992 189.727 120.663V148.042C195.57 148.042 201.719 148.293 207.534 147.792C215.548 147.069 222.588 142.672 230.1 139.751C236.89 136.829 244.207 135.132 251.498 135.354V120.663C251.498 117.992 249.327 115.821 246.684 115.821Z" fill="#DA3D0B"/>
<path d="M251.498 145.093V135.354C244.207 135.104 236.917 136.829 230.1 139.75C222.56 142.672 215.548 147.068 207.534 147.792C201.719 148.293 195.57 148.042 189.727 148.042V158.031H196.377C199.27 158.031 202.192 158.031 205.114 158.282C215.075 158.532 223.561 164.542 232.771 167.686C238.615 170.135 245.181 170.942 251.498 170.942V161.203C248.604 161.203 245.627 160.953 242.733 160.48C236.166 159.005 230.128 155.861 223.812 153.162C231.825 149.739 240.117 145.121 249.077 145.121L251.498 145.093Z" fill="white"/>
</g>
<defs>
<clipPath id="clip0_7193_4460">
<rect width="61.771" height="61.771" fill="white" transform="translate(189.727 115.82)"/>
</clipPath>
</defs>
</svg>
