<svg aria-hidden="true" width="424" height="288" viewBox="0 0 424 288" fill="none" xmlns="http://www.w3.org/2000/svg">
<path d="M205.353 145.336C205.377 143.034 205.581 141.152 205.965 139.69C206.372 138.204 207.019 136.849 207.906 135.627C208.817 134.404 210.028 133.013 211.538 131.455C212.641 130.329 213.66 129.274 214.595 128.291C215.53 127.284 216.285 126.205 216.86 125.054C217.436 123.904 217.723 122.501 217.723 120.847C217.723 118.354 217.064 116.388 215.746 114.95C214.427 113.487 212.521 112.756 210.028 112.756C207.942 112.756 206.072 113.344 204.418 114.518C202.764 115.669 201.937 117.491 201.937 119.984H195.213C195.261 117.275 195.932 114.95 197.226 113.008C198.545 111.066 200.319 109.58 202.548 108.549C204.778 107.518 207.271 107.003 210.028 107.003C214.607 107.003 218.143 108.225 220.636 110.671C223.153 113.116 224.412 116.448 224.412 120.667C224.412 122.825 223.98 124.815 223.117 126.637C222.254 128.435 221.139 130.125 219.773 131.707C218.407 133.289 216.956 134.799 215.422 136.238C214.103 137.437 213.216 138.815 212.761 140.373C212.305 141.908 212.078 143.562 212.078 145.336H205.353ZM209.021 160.475C207.727 160.475 206.744 160.115 206.072 159.396C205.401 158.677 205.066 157.79 205.066 156.735C205.066 155.68 205.401 154.781 206.072 154.038C206.744 153.295 207.727 152.923 209.021 152.923C210.316 152.923 211.299 153.295 211.97 154.038C212.641 154.781 212.977 155.68 212.977 156.735C212.977 157.79 212.641 158.677 211.97 159.396C211.299 160.115 210.316 160.475 209.021 160.475Z" fill="#FF604F"/>
<rect x="1.28906" y="193.313" width="94.0791" height="94.0791" rx="9.02128" fill="#E5E7EB"/>
<path d="M63.2695 240.353L68.25 240.353M63.2695 240.353C63.2695 239.032 62.7448 237.765 61.8107 236.831C60.8767 235.897 59.6099 235.372 58.289 235.372C56.9681 235.372 55.7013 235.897 54.7673 236.831C53.8332 237.765 53.3085 239.032 53.3085 240.353M63.2695 240.353C63.2695 241.674 62.7448 242.94 61.8107 243.874C60.8767 244.808 59.6099 245.333 58.289 245.333C56.9681 245.333 55.7013 244.808 54.7673 243.874C53.8332 242.94 53.3085 241.674 53.3085 240.353M53.3085 240.353L28.406 240.353M43.3475 225.411C43.3475 224.09 42.8228 222.823 41.8888 221.889C40.9547 220.955 39.6879 220.431 38.367 220.431C37.0461 220.431 35.7793 220.955 34.8453 221.889C33.9112 222.823 33.3865 224.09 33.3865 225.411C33.3865 226.732 33.9112 227.999 34.8453 228.933C35.7793 229.867 37.0461 230.392 38.367 230.392C39.6879 230.392 40.9547 229.867 41.8888 228.933C42.8228 227.999 43.3475 226.732 43.3475 225.411ZM33.3865 225.411L28.406 225.411M43.3475 225.411L68.25 225.411M43.3475 255.294C43.3475 253.973 42.8228 252.706 41.8888 251.772C40.9547 250.838 39.6879 250.314 38.367 250.314C37.0461 250.314 35.7793 250.838 34.8453 251.772C33.9112 252.706 33.3865 253.973 33.3865 255.294C33.3865 256.615 33.9112 257.882 34.8453 258.816C35.7793 259.75 37.0461 260.275 38.367 260.275C39.6879 260.275 40.9547 259.75 41.8888 258.816C42.8228 257.882 43.3475 256.615 43.3475 255.294ZM33.3865 255.294L28.406 255.294M43.3475 255.294L68.25 255.294" stroke="#FF604F" stroke-width="3.38298" stroke-linecap="round" stroke-linejoin="round"/>
<rect x="329.918" y="1.29004" width="94.0791" height="94.0791" rx="9.02128" fill="#E5E7EB"/>
<path d="M391.898 48.3292L396.879 48.3292M391.898 48.3292C391.898 47.0083 391.374 45.7415 390.44 44.8075C389.506 43.8735 388.239 43.3487 386.918 43.3487C385.597 43.3487 384.33 43.8735 383.396 44.8075C382.462 45.7415 381.937 47.0083 381.937 48.3292M391.898 48.3292C391.898 49.6501 391.374 50.9169 390.44 51.851C389.506 52.785 388.239 53.3097 386.918 53.3097C385.597 53.3097 384.33 52.785 383.396 51.851C382.462 50.9169 381.937 49.6501 381.937 48.3292M381.937 48.3292L357.035 48.3292M371.976 33.3877C371.976 32.0668 371.452 30.8 370.518 29.866C369.584 28.932 368.317 28.4072 366.996 28.4072C365.675 28.4072 364.408 28.932 363.474 29.866C362.54 30.8 362.015 32.0668 362.015 33.3877C362.015 34.7086 362.54 35.9754 363.474 36.9095C364.408 37.8435 365.675 38.3682 366.996 38.3682C368.317 38.3682 369.584 37.8435 370.518 36.9095C371.452 35.9754 371.976 34.7086 371.976 33.3877ZM362.015 33.3877L357.035 33.3877M371.976 33.3877L396.879 33.3877M371.976 63.2707C371.976 61.9498 371.452 60.683 370.518 59.749C369.584 58.8149 368.317 58.2902 366.996 58.2902C365.675 58.2902 364.408 58.8149 363.474 59.749C362.54 60.683 362.015 61.9498 362.015 63.2707C362.015 64.5916 362.54 65.8584 363.474 66.7925C364.408 67.7265 365.675 68.2512 366.996 68.2512C368.317 68.2512 369.584 67.7265 370.518 66.7925C371.452 65.8584 371.976 64.5916 371.976 63.2707ZM362.015 63.2707L357.035 63.2707M371.976 63.2707L396.879 63.2707" stroke="#FF604F" stroke-width="3.38298" stroke-linecap="round" stroke-linejoin="round"/>
<rect width="94.0791" height="94.0791" rx="9.02128" fill="#E5E7EB"/>
<path d="M24.6289 42.0587H69.4534M24.6289 52.0196H69.4534M47.0411 42.0587V61.9806M29.6094 61.9806H64.4729C65.7938 61.9806 67.0606 61.4559 67.9946 60.5219C68.9287 59.5879 69.4534 58.3211 69.4534 57.0001V37.0782C69.4534 35.7572 68.9287 34.4904 67.9946 33.5564C67.0606 32.6224 65.7938 32.0977 64.4729 32.0977H29.6094C28.2885 32.0977 27.0217 32.6224 26.0877 33.5564C25.1536 34.4904 24.6289 35.7572 24.6289 37.0782V57.0001C24.6289 58.3211 25.1536 59.5879 26.0877 60.5219C27.0217 61.4559 28.2885 61.9806 29.6094 61.9806Z" stroke="#FF604F" stroke-width="3.38298" stroke-linecap="round" stroke-linejoin="round"/>
<rect x="329.918" y="193.313" width="94.0791" height="94.0791" rx="9.02128" fill="#E5E7EB"/>
<path d="M354.547 230.392L374.195 243.49C375.013 244.036 375.975 244.328 376.959 244.328C377.943 244.328 378.905 244.036 379.723 243.49L399.371 230.392M359.527 257.784H394.391C395.712 257.784 396.979 257.26 397.913 256.326C398.847 255.392 399.371 254.125 399.371 252.804V227.901C399.371 226.58 398.847 225.314 397.913 224.38C396.979 223.446 395.712 222.921 394.391 222.921H359.527C358.206 222.921 356.94 223.446 356.006 224.38C355.072 225.314 354.547 226.58 354.547 227.901V252.804C354.547 254.125 355.072 255.392 356.006 256.326C356.94 257.26 358.206 257.784 359.527 257.784Z" stroke="#FF604F" stroke-width="3.38298" stroke-linecap="round" stroke-linejoin="round"/>
<path d="M314.767 49.4422C315.026 49.2695 315.096 48.9195 314.924 48.6603L312.11 44.4374C311.937 44.1782 311.587 44.1081 311.328 44.2808C311.069 44.4535 310.999 44.8035 311.172 45.0626L313.673 48.8164L309.919 51.3174C309.66 51.4901 309.59 51.8402 309.762 52.0993C309.935 52.3584 310.285 52.4285 310.544 52.2559L314.767 49.4422ZM110.607 49.016C110.91 48.9474 111.101 48.6455 111.032 48.3418C110.964 48.038 110.662 47.8475 110.358 47.9161L110.482 48.4661L110.607 49.016ZM114.765 46.933C114.461 46.9999 114.269 47.3007 114.336 47.6048C114.403 47.9089 114.704 48.1012 115.008 48.0343L114.886 47.4836L114.765 46.933ZM119.444 47.0722C119.748 47.0071 119.942 46.7075 119.877 46.403C119.812 46.0985 119.513 45.9043 119.208 45.9694L119.326 46.5208L119.444 47.0722ZM123.631 45.0395C123.326 45.1025 123.13 45.4009 123.193 45.7058C123.256 46.0108 123.554 46.2068 123.859 46.1438L123.745 45.5916L123.631 45.0395ZM128.291 45.2431C128.597 45.1821 128.795 44.8852 128.734 44.5798C128.673 44.2744 128.376 44.0763 128.071 44.1372L128.181 44.6901L128.291 45.2431ZM132.524 43.2656C132.219 43.3242 132.018 43.6197 132.077 43.9255C132.136 44.2313 132.431 44.4317 132.737 44.373L132.631 43.8193L132.524 43.2656ZM137.17 43.5408C137.476 43.4846 137.679 43.1907 137.623 42.8845C137.567 42.5782 137.273 42.3755 136.966 42.4317L137.068 42.9863L137.17 43.5408ZM141.429 41.6317C141.122 41.6854 140.917 41.9775 140.97 42.2843C141.024 42.591 141.316 42.7962 141.623 42.7425L141.526 42.1871L141.429 41.6317ZM146.086 41.9824C146.393 41.9315 146.601 41.6412 146.55 41.334C146.499 41.0268 146.209 40.819 145.902 40.8699L145.994 41.4261L146.086 41.9824ZM150.369 40.1513C150.061 40.1993 149.851 40.4876 149.899 40.7953C149.947 41.1029 150.235 41.3134 150.543 41.2654L150.456 40.7084L150.369 40.1513ZM155.009 40.5914C155.317 40.5464 155.53 40.2602 155.485 39.9521C155.44 39.6439 155.154 39.4306 154.846 39.4755L154.927 40.0334L155.009 40.5914ZM159.342 38.8437C159.033 38.8854 158.817 39.1694 158.858 39.478C158.9 39.7865 159.184 40.0029 159.493 39.9612L159.417 39.4024L159.342 38.8437ZM163.974 39.3803C164.283 39.342 164.502 39.0604 164.464 38.7513C164.425 38.4423 164.144 38.2229 163.835 38.2612L163.904 38.8208L163.974 39.3803ZM168.329 37.7295C168.019 37.7644 167.797 38.0434 167.831 38.3529C167.866 38.6623 168.145 38.885 168.455 38.8501L168.392 38.2898L168.329 37.7295ZM172.952 38.3709C173.262 38.3397 173.488 38.0633 173.457 37.7535C173.426 37.4437 173.149 37.2177 172.839 37.2489L172.896 37.8099L172.952 38.3709ZM177.355 36.8226C177.045 36.8499 176.815 37.1236 176.843 37.4338C176.87 37.744 177.144 37.9732 177.454 37.9459L177.404 37.3842L177.355 36.8226ZM181.956 37.5771C182.267 37.5536 182.499 37.2828 182.476 36.9723C182.452 36.6618 182.182 36.4291 181.871 36.4526L181.914 37.0148L181.956 37.5771ZM186.39 36.1401C186.079 36.1596 185.843 36.4273 185.862 36.7381C185.882 37.0489 186.149 37.2851 186.46 37.2656L186.425 36.7029L186.39 36.1401ZM190.973 37.0122C191.284 36.9968 191.524 36.7322 191.509 36.4212C191.493 36.1102 191.229 35.8705 190.917 35.886L190.945 36.4491L190.973 37.0122ZM195.448 35.6914C195.136 35.7027 194.893 35.9641 194.905 36.2753C194.916 36.5865 195.177 36.8296 195.489 36.8183L195.468 36.2549L195.448 35.6914ZM200.004 36.6844C200.315 36.6773 200.562 36.4191 200.555 36.1078C200.548 35.7965 200.289 35.5499 199.978 35.5571L199.991 36.1207L200.004 36.6844ZM204.51 35.4831C204.199 35.4861 203.949 35.741 203.952 36.0523C203.955 36.3637 204.21 36.6137 204.521 36.6107L204.516 36.0469L204.51 35.4831ZM209.04 36.597C209.352 36.5981 209.605 36.3466 209.606 36.0352C209.607 35.7238 209.356 35.4705 209.044 35.4693L209.042 36.0332L209.04 36.597ZM213.576 35.5154C213.265 35.5102 213.008 35.7584 213.003 36.0697C212.998 36.3811 213.246 36.6377 213.557 36.6429L213.566 36.0791L213.576 35.5154ZM218.073 36.7475C218.384 36.7567 218.644 36.5119 218.653 36.2006C218.663 35.8893 218.418 35.6295 218.106 35.6203L218.09 36.1839L218.073 36.7475ZM222.638 35.7832C222.327 35.77 222.064 36.0116 222.051 36.3227C222.037 36.6338 222.279 36.8967 222.59 36.9098L222.614 36.3465L222.638 35.7832ZM227.108 37.1285C227.419 37.1455 227.684 36.9071 227.701 36.5962C227.718 36.2853 227.48 36.0195 227.169 36.0025L227.138 36.5655L227.108 37.1285ZM231.688 36.276C231.377 36.2553 231.109 36.4905 231.088 36.8012C231.068 37.1119 231.303 37.3805 231.613 37.4012L231.651 36.8386L231.688 36.276ZM236.119 37.7265C236.429 37.7507 236.7 37.5186 236.725 37.2081C236.749 36.8977 236.517 36.6264 236.206 36.6022L236.162 37.1643L236.119 37.7265ZM240.726 36.9795C240.416 36.9519 240.142 37.1809 240.114 37.4911C240.087 37.8013 240.316 38.0751 240.626 38.1027L240.676 37.5411L240.726 36.9795ZM245.131 38.5274C245.441 38.5582 245.717 38.332 245.748 38.0221C245.779 37.7123 245.553 37.4361 245.243 37.4052L245.187 37.9663L245.131 38.5274ZM249.741 37.8755C249.431 37.8416 249.153 38.0651 249.119 38.3746C249.085 38.6842 249.309 38.9626 249.618 38.9965L249.68 38.436L249.741 37.8755ZM254.109 39.5098C254.418 39.5466 254.698 39.3257 254.735 39.0165C254.772 38.7073 254.551 38.4268 254.242 38.39L254.175 38.9499L254.109 39.5098ZM258.749 38.9469C258.44 38.9074 258.158 39.1257 258.118 39.4346C258.078 39.7435 258.297 40.0259 258.606 40.0655L258.677 39.5062L258.749 38.9469ZM263.081 40.6574C263.389 40.6995 263.673 40.4836 263.715 40.175C263.758 39.8665 263.542 39.5822 263.233 39.5401L263.157 40.0988L263.081 40.6574ZM267.714 40.1696C267.406 40.1251 267.12 40.3388 267.075 40.647C267.031 40.9552 267.245 41.2412 267.553 41.2857L267.633 40.7276L267.714 40.1696ZM272.036 41.9499C272.344 41.9967 272.632 41.785 272.678 41.4771C272.725 41.1693 272.513 40.8818 272.205 40.835L272.121 41.3925L272.036 41.9499ZM276.677 41.5296C276.369 41.4808 276.08 41.6905 276.032 41.9981C275.983 42.3056 276.192 42.5945 276.5 42.6433L276.588 42.0865L276.677 41.5296ZM280.957 43.3655C281.264 43.4162 281.555 43.2083 281.605 42.9011C281.656 42.5938 281.448 42.3036 281.141 42.2529L281.049 42.8092L280.957 43.3655ZM285.623 43.0069C285.316 42.9543 285.024 43.1605 284.972 43.4675C284.919 43.7744 285.126 44.0658 285.433 44.1184L285.528 43.5626L285.623 43.0069ZM289.876 44.8916C290.183 44.9458 290.476 44.7411 290.53 44.4345C290.584 44.1278 290.379 43.8353 290.073 43.7811L289.975 44.3364L289.876 44.8916ZM294.528 44.5801C294.222 44.5244 293.928 44.7276 293.873 45.034C293.817 45.3403 294.02 45.6339 294.327 45.6896L294.427 45.1348L294.528 44.5801ZM298.792 46.5123C299.098 46.5694 299.393 46.3676 299.45 46.0615C299.507 45.7554 299.305 45.4609 298.999 45.4038L298.896 45.9581L298.792 46.5123ZM303.428 46.24C303.123 46.1816 302.827 46.3822 302.769 46.6881C302.71 46.9939 302.911 47.2892 303.217 47.3476L303.323 46.7938L303.428 46.24ZM307.673 48.2073C307.979 48.2669 308.275 48.0674 308.334 47.7618C308.394 47.4561 308.194 47.1601 307.889 47.1005L307.781 47.6539L307.673 48.2073ZM312.322 47.9727C312.016 47.9121 311.719 48.1105 311.659 48.4159C311.598 48.7214 311.797 49.0181 312.102 49.0788L312.212 48.5257L312.322 47.9727ZM108.254 48.973L108.38 49.5226C109.125 49.352 109.867 49.1831 110.607 49.016L110.482 48.4661L110.358 47.9161C109.618 48.0835 108.874 48.2525 108.128 48.4233L108.254 48.973ZM114.886 47.4836L115.008 48.0343C116.498 47.7063 117.977 47.3856 119.444 47.0722L119.326 46.5208L119.208 45.9694C117.739 46.2833 116.258 46.6045 114.765 46.933L114.886 47.4836ZM123.745 45.5916L123.859 46.1438C125.348 45.8359 126.825 45.5356 128.291 45.2431L128.181 44.6901L128.071 44.1372C126.602 44.4303 125.122 44.7311 123.631 45.0395L123.745 45.5916ZM132.631 43.8193L132.737 44.373C134.225 44.0876 135.703 43.8102 137.17 43.5408L137.068 42.9863L136.966 42.4317C135.496 42.7016 134.016 42.9796 132.524 43.2656L132.631 43.8193ZM141.526 42.1871L141.623 42.7425C143.121 42.4806 144.608 42.2272 146.086 41.9824L145.994 41.4261L145.902 40.8699C144.421 41.1153 142.93 41.3692 141.429 41.6317L141.526 42.1871ZM150.456 40.7084L150.543 41.2654C152.041 41.0318 153.529 40.8071 155.009 40.5914L154.927 40.0334L154.846 39.4755C153.362 39.6918 151.87 39.9171 150.369 40.1513L150.456 40.7084ZM159.417 39.4024L159.493 39.9612C160.994 39.7582 162.488 39.5646 163.974 39.3803L163.904 38.8208L163.835 38.2612C162.345 38.446 160.847 38.6402 159.342 38.8437L159.417 39.4024ZM168.392 38.2898L168.455 38.8501C169.96 38.6807 171.459 38.521 172.952 38.3709L172.896 37.8099L172.839 37.2489C171.342 37.3994 169.839 37.5596 168.329 37.7295L168.392 38.2898ZM177.404 37.3842L177.454 37.9459C178.96 37.813 180.46 37.6901 181.956 37.5771L181.914 37.0148L181.871 36.4526C180.37 36.566 178.865 36.6893 177.355 36.8226L177.404 37.3842ZM186.425 36.7029L186.46 37.2656C187.968 37.1711 189.472 37.0866 190.973 37.0122L190.945 36.4491L190.917 35.886C189.411 35.9606 187.902 36.0453 186.39 36.1401L186.425 36.7029ZM195.468 36.2549L195.489 36.8183C196.995 36.7636 198.5 36.719 200.004 36.6844L199.991 36.1207L199.978 35.5571C198.469 35.5918 196.959 35.6365 195.448 35.6914L195.468 36.2549ZM204.516 36.0469L204.521 36.6107C206.027 36.5961 207.533 36.5916 209.04 36.597L209.042 36.0332L209.044 35.4693C207.532 35.4639 206.021 35.4685 204.51 35.4831L204.516 36.0469ZM213.566 36.0791L213.557 36.6429C215.06 36.668 216.565 36.7029 218.073 36.7475L218.09 36.1839L218.106 35.6203C216.593 35.5756 215.084 35.5406 213.576 35.5154L213.566 36.0791ZM222.614 36.3465L222.59 36.9098C224.092 36.9732 225.597 37.0461 227.108 37.1285L227.138 36.5655L227.169 36.0025C225.654 35.9199 224.144 35.8467 222.638 35.7832L222.614 36.3465ZM231.651 36.8386L231.613 37.4012C233.109 37.5005 234.611 37.609 236.119 37.7265L236.162 37.1643L236.206 36.6022C234.694 36.4844 233.188 36.3756 231.688 36.276L231.651 36.8386ZM240.676 37.5411L240.626 38.1027C242.12 38.2356 243.621 38.3772 245.131 38.5274L245.187 37.9663L245.243 37.4052C243.729 37.2547 242.224 37.1127 240.726 36.9795L240.676 37.5411ZM249.68 38.436L249.618 38.9965C251.106 39.1594 252.603 39.3305 254.109 39.5098L254.175 38.9499L254.242 38.39C252.733 38.2104 251.233 38.0389 249.741 37.8755L249.68 38.436ZM258.677 39.5062L258.606 40.0655C260.087 40.2552 261.579 40.4525 263.081 40.6574L263.157 40.0988L263.233 39.5401C261.728 39.3348 260.234 39.137 258.749 38.9469L258.677 39.5062ZM267.633 40.7276L267.553 41.2857C269.037 41.4999 270.531 41.7214 272.036 41.9499L272.121 41.3925L272.205 40.835C270.698 40.6061 269.201 40.3842 267.714 40.1696L267.633 40.7276ZM276.588 42.0865L276.5 42.6433C277.975 42.8774 279.46 43.1182 280.957 43.3655L281.049 42.8092L281.141 42.2529C279.642 42.0052 278.154 41.7641 276.677 41.5296L276.588 42.0865ZM285.528 43.5626L285.433 44.1184C286.902 44.37 288.383 44.6277 289.876 44.8916L289.975 44.3364L290.073 43.7811C288.578 43.5169 287.095 43.2588 285.623 43.0069L285.528 43.5626ZM294.427 45.1348L294.327 45.6896C295.803 45.9581 297.292 46.2323 298.792 46.5123L298.896 45.9581L298.999 45.4038C297.497 45.1235 296.007 44.8489 294.528 44.5801L294.427 45.1348ZM303.323 46.7938L303.217 47.3476C304.69 47.6289 306.175 47.9155 307.673 48.2073L307.781 47.6539L307.889 47.1005C306.39 46.8084 304.903 46.5215 303.428 46.24L303.323 46.7938ZM312.212 48.5257L312.102 49.0788C312.846 49.2265 313.594 49.3755 314.344 49.5258L314.455 48.973L314.565 48.4201C313.814 48.2697 313.066 48.1206 312.322 47.9727L312.212 48.5257Z" fill="#FF8A7B"/>
<path d="M321.153 212.013C321.405 212.196 321.757 212.14 321.941 211.889L324.927 207.786C325.111 207.535 325.055 207.182 324.804 206.999C324.552 206.815 324.199 206.871 324.016 207.123L321.361 210.769L317.714 208.114C317.463 207.931 317.11 207.986 316.927 208.238C316.743 208.49 316.799 208.843 317.051 209.026L321.153 212.013ZM110.591 75.3783C110.895 75.3091 111.085 75.0068 111.015 74.7032C110.946 74.3996 110.644 74.2097 110.34 74.2789L110.466 74.8286L110.591 75.3783ZM114.755 73.3148C114.45 73.3783 114.254 73.677 114.318 73.9819C114.381 74.2867 114.68 74.4822 114.985 74.4187L114.87 73.8667L114.755 73.3148ZM119.368 73.5474C119.674 73.4896 119.875 73.1947 119.817 72.8887C119.759 72.5828 119.464 72.3816 119.158 72.4394L119.263 72.9934L119.368 73.5474ZM123.621 71.6412C123.314 71.693 123.107 71.9839 123.159 72.291C123.211 72.598 123.501 72.8049 123.809 72.7531L123.715 72.1972L123.621 71.6412ZM128.22 72.0533C128.528 72.0075 128.74 71.7208 128.694 71.4127C128.649 71.1047 128.362 70.8921 128.054 70.9379L128.137 71.4956L128.22 72.0533ZM132.543 70.3177C132.234 70.3571 132.016 70.6395 132.055 70.9484C132.095 71.2573 132.377 71.4757 132.686 71.4362L132.614 70.877L132.543 70.3177ZM137.133 70.9145C137.443 70.8814 137.667 70.6036 137.634 70.294C137.601 69.9843 137.323 69.7601 137.013 69.7932L137.073 70.3539L137.133 70.9145ZM141.511 69.3607C141.201 69.3872 140.971 69.6602 140.997 69.9705C141.024 70.2807 141.297 70.5108 141.607 70.4842L141.559 69.9225L141.511 69.3607ZM146.081 70.1502C146.392 70.1303 146.628 69.8623 146.608 69.5516C146.588 69.2408 146.32 69.005 146.009 69.0248L146.045 69.5875L146.081 70.1502ZM150.512 68.787C150.201 68.8 149.959 69.0627 149.972 69.3739C149.985 69.685 150.248 69.9267 150.559 69.9137L150.535 69.3503L150.512 68.787ZM155.05 69.7764C155.362 69.7704 155.609 69.5132 155.603 69.2019C155.597 68.8905 155.34 68.643 155.028 68.649L155.039 69.2127L155.05 69.7764ZM159.531 68.6134C159.219 68.6123 158.966 68.8638 158.965 69.1752C158.964 69.4866 159.215 69.74 159.527 69.7411L159.529 69.1772L159.531 68.6134ZM164.024 69.8094C164.335 69.8177 164.595 69.5722 164.603 69.2609C164.611 68.9496 164.366 68.6905 164.054 68.6821L164.039 69.2457L164.024 69.8094ZM168.55 68.8562C168.239 68.8405 167.974 69.0798 167.959 69.3908C167.943 69.7018 168.182 69.9667 168.493 69.9824L168.522 69.4193L168.55 68.8562ZM172.985 70.2643C173.295 70.2876 173.566 70.0547 173.589 69.7442C173.612 69.4337 173.379 69.1631 173.069 69.1398L173.027 69.702L172.985 70.2643ZM177.55 69.5309C177.24 69.5 176.964 69.7262 176.933 70.036C176.902 70.3459 177.128 70.6221 177.438 70.653L177.494 70.092L177.55 69.5309ZM181.911 71.1556C182.22 71.1943 182.502 70.9751 182.54 70.6662C182.579 70.3572 182.36 70.0753 182.051 70.0367L181.981 70.5961L181.911 71.1556ZM186.507 70.6517C186.199 70.6052 185.912 70.8171 185.866 71.1251C185.819 71.433 186.031 71.7203 186.339 71.7667L186.423 71.2092L186.507 70.6517ZM190.779 72.4962C191.086 72.5506 191.379 72.3462 191.433 72.0397C191.488 71.7331 191.283 71.4404 190.977 71.3859L190.878 71.941L190.779 72.4962ZM195.397 72.231C195.092 72.1685 194.794 72.3651 194.732 72.6702C194.669 72.9753 194.866 73.2732 195.171 73.3357L195.284 72.7833L195.397 72.231ZM199.565 74.2969C199.868 74.3675 200.172 74.1789 200.242 73.8756C200.313 73.5723 200.124 73.2692 199.821 73.1986L199.693 73.7477L199.565 74.2969ZM204.193 74.2787C203.892 74.1999 203.584 74.3803 203.505 74.6816C203.426 74.9828 203.606 75.2909 203.908 75.3697L204.05 74.8242L204.193 74.2787ZM208.241 76.5661C208.54 76.6531 208.853 76.4813 208.94 76.1823C209.027 75.8833 208.855 75.5704 208.556 75.4834L208.398 76.0247L208.241 76.5661ZM212.865 76.8022C212.569 76.7069 212.251 76.87 212.156 77.1665C212.061 77.463 212.224 77.7805 212.52 77.8758L212.693 77.339L212.865 76.8022ZM216.777 79.3095C217.071 79.4131 217.393 79.2589 217.496 78.9652C217.6 78.6716 217.446 78.3496 217.152 78.246L216.965 78.7778L216.777 79.3095ZM221.384 79.8054C221.093 79.6936 220.767 79.8386 220.655 80.1292C220.543 80.4198 220.688 80.7461 220.979 80.8579L221.181 80.3316L221.384 79.8054ZM225.145 82.5293C225.432 82.6494 225.762 82.5139 225.882 82.2265C226.003 81.9392 225.867 81.609 225.58 81.4889L225.362 82.0091L225.145 82.5293ZM229.718 83.2889C229.434 83.1606 229.1 83.2866 228.972 83.5703C228.843 83.854 228.969 84.1881 229.253 84.3164L229.485 83.8027L229.718 83.2889ZM233.313 86.2243C233.593 86.3608 233.93 86.2446 234.067 85.9647C234.203 85.6849 234.087 85.3473 233.807 85.2108L233.56 85.7175L233.313 86.2243ZM237.836 87.2495C237.56 87.1048 237.219 87.2111 237.075 87.4868C236.93 87.7626 237.036 88.1034 237.312 88.248L237.574 87.7487L237.836 87.2495ZM241.251 90.3892C241.523 90.542 241.866 90.4458 242.019 90.1744C242.172 89.903 242.076 89.5593 241.804 89.4065L241.528 89.8979L241.251 90.3892ZM245.707 91.6797C245.44 91.519 245.094 91.6049 244.933 91.8717C244.773 92.1384 244.859 92.4849 245.125 92.6456L245.416 92.1626L245.707 91.6797ZM248.93 95.0153C249.192 95.1839 249.541 95.1082 249.709 94.8464C249.878 94.5846 249.802 94.2357 249.54 94.0671L249.235 94.5412L248.93 95.0153ZM253.302 96.5683C253.045 96.3921 252.694 96.4573 252.518 96.714C252.342 96.9707 252.407 97.3217 252.664 97.498L252.983 97.0331L253.302 96.5683ZM256.32 100.09C256.572 100.274 256.925 100.219 257.108 99.9676C257.292 99.7162 257.238 99.3635 256.986 99.1796L256.653 99.6347L256.32 100.09ZM260.592 101.9C260.346 101.709 259.992 101.753 259.801 101.999C259.61 102.245 259.654 102.599 259.899 102.79L260.246 102.345L260.592 101.9ZM263.396 105.596C263.636 105.795 263.991 105.761 264.19 105.521C264.388 105.281 264.355 104.926 264.115 104.727L263.755 105.162L263.396 105.596ZM267.551 107.657C267.317 107.452 266.961 107.475 266.755 107.709C266.55 107.943 266.573 108.299 266.807 108.505L267.179 108.081L267.551 107.657ZM270.131 111.514C270.359 111.727 270.716 111.714 270.928 111.487C271.14 111.259 271.128 110.902 270.9 110.69L270.516 111.102L270.131 111.514ZM274.156 113.818C273.935 113.599 273.578 113.6 273.359 113.822C273.14 114.043 273.141 114.4 273.363 114.619L273.759 114.218L274.156 113.818ZM276.504 117.82C276.719 118.046 277.076 118.054 277.301 117.84C277.526 117.625 277.535 117.268 277.32 117.042L276.912 117.431L276.504 117.82ZM280.386 120.356C280.178 120.125 279.822 120.106 279.59 120.314C279.358 120.522 279.339 120.878 279.547 121.11L279.967 120.733L280.386 120.356ZM282.496 124.489C282.697 124.727 283.053 124.756 283.29 124.555C283.528 124.354 283.557 123.998 283.356 123.76L282.926 124.125L282.496 124.489ZM286.225 127.247C286.03 127.004 285.676 126.964 285.432 127.158C285.189 127.353 285.149 127.708 285.344 127.951L285.784 127.599L286.225 127.247ZM288.092 131.494C288.279 131.742 288.633 131.792 288.881 131.605C289.13 131.418 289.18 131.064 288.993 130.815L288.542 131.155L288.092 131.494ZM291.658 134.462C291.478 134.208 291.126 134.148 290.872 134.328C290.618 134.508 290.558 134.86 290.738 135.114L291.198 134.788L291.658 134.462ZM293.281 138.806C293.454 139.065 293.804 139.134 294.063 138.961C294.322 138.788 294.391 138.438 294.218 138.179L293.749 138.493L293.281 138.806ZM296.676 141.971C296.51 141.707 296.162 141.628 295.899 141.794C295.635 141.959 295.556 142.308 295.721 142.571L296.199 142.271L296.676 141.971ZM298.054 146.397C298.212 146.665 298.558 146.754 298.826 146.595C299.094 146.437 299.183 146.091 299.025 145.823L298.539 146.11L298.054 146.397ZM301.272 149.745C301.121 149.473 300.778 149.375 300.505 149.526C300.233 149.677 300.135 150.02 300.286 150.292L300.779 150.019L301.272 149.745ZM302.407 154.237C302.551 154.513 302.891 154.621 303.167 154.477C303.444 154.333 303.551 153.993 303.407 153.716L302.907 153.977L302.407 154.237ZM305.442 157.755C305.306 157.475 304.968 157.359 304.688 157.495C304.408 157.632 304.292 157.969 304.429 158.249L304.935 158.002L305.442 157.755ZM306.338 162.299C306.467 162.582 306.801 162.707 307.085 162.578C307.368 162.449 307.493 162.114 307.364 161.831L306.851 162.065L306.338 162.299ZM309.187 165.971C309.065 165.685 308.734 165.551 308.447 165.673C308.161 165.795 308.027 166.126 308.149 166.412L308.668 166.192L309.187 165.971ZM309.847 170.553C309.962 170.843 310.29 170.985 310.579 170.87C310.869 170.756 311.011 170.428 310.896 170.139L310.372 170.346L309.847 170.553ZM312.507 174.366C312.4 174.074 312.076 173.924 311.784 174.031C311.492 174.139 311.342 174.462 311.449 174.755L311.978 174.561L312.507 174.366ZM312.939 178.975C313.039 179.27 313.359 179.428 313.654 179.327C313.949 179.227 314.107 178.907 314.007 178.612L313.473 178.794L312.939 178.975ZM315.409 182.913C315.316 182.616 315 182.451 314.703 182.544C314.406 182.637 314.24 182.953 314.333 183.25L314.871 183.082L315.409 182.913ZM315.618 187.538C315.704 187.837 316.017 188.01 316.316 187.924C316.615 187.838 316.788 187.526 316.702 187.227L316.16 187.382L315.618 187.538ZM317.899 191.588C317.82 191.287 317.512 191.106 317.211 191.185C316.909 191.264 316.729 191.572 316.808 191.873L317.353 191.731L317.899 191.588ZM317.893 196.218C317.965 196.521 318.269 196.708 318.572 196.636C318.875 196.564 319.062 196.26 318.99 195.958L318.441 196.088L317.893 196.218ZM319.985 200.366C319.92 200.062 319.62 199.868 319.316 199.933C319.011 199.998 318.817 200.297 318.882 200.602L319.433 200.484L319.985 200.366ZM319.771 204.995C319.829 205.301 320.125 205.501 320.43 205.443C320.736 205.385 320.937 205.089 320.879 204.783L320.325 204.889L319.771 204.995ZM321.677 209.227C321.625 208.92 321.334 208.713 321.027 208.765C320.72 208.817 320.513 209.107 320.565 209.415L321.121 209.321L321.677 209.227ZM108.254 75.3442L108.384 75.8927C109.121 75.7174 109.857 75.546 110.591 75.3783L110.466 74.8286L110.34 74.2789C109.602 74.4473 108.863 74.6196 108.123 74.7957L108.254 75.3442ZM114.87 73.8667L114.985 74.4187C116.45 74.1129 117.911 73.8226 119.368 73.5474L119.263 72.9934L119.158 72.4394C117.695 72.7158 116.227 73.0076 114.755 73.3148L114.87 73.8667ZM123.715 72.1972L123.809 72.7531C125.284 72.5041 126.754 72.2709 128.22 72.0533L128.137 71.4956L128.054 70.9379C126.581 71.1566 125.104 71.391 123.621 71.6412L123.715 72.1972ZM132.614 70.877L132.686 71.4362C134.174 71.2461 135.656 71.0723 137.133 70.9145L137.073 70.3539L137.013 69.7932C135.529 69.9518 134.039 70.1266 132.543 70.3177L132.614 70.877ZM141.559 69.9225L141.607 70.4842C143.104 70.3562 144.596 70.2449 146.081 70.1502L146.045 69.5875L146.009 69.0248C144.516 69.1201 143.016 69.232 141.511 69.3607L141.559 69.9225ZM150.535 69.3503L150.559 69.9137C152.062 69.8509 153.56 69.8052 155.05 69.7764L155.039 69.2127L155.028 68.649C153.529 68.6779 152.024 68.7239 150.512 68.787L150.535 69.3503ZM159.529 69.1772L159.527 69.7411C161.033 69.7464 162.532 69.7692 164.024 69.8094L164.039 69.2457L164.054 68.6821C162.554 68.6417 161.046 68.6188 159.531 68.6134L159.529 69.1772ZM168.522 69.4193L168.493 69.9824C169.998 70.0586 171.495 70.1526 172.985 70.2643L173.027 69.702L173.069 69.1398C171.57 69.0274 170.064 68.9328 168.55 68.8562L168.522 69.4193ZM177.494 70.092L177.438 70.653C178.937 70.8025 180.428 70.9701 181.911 71.1556L181.981 70.5961L182.051 70.0367C180.559 69.85 179.058 69.6813 177.55 69.5309L177.494 70.092ZM186.423 71.2092L186.339 71.7667C187.828 71.9916 189.308 72.2348 190.779 72.4962L190.878 71.941L190.977 71.3859C189.496 71.1228 188.006 70.878 186.507 70.6517L186.423 71.2092ZM195.284 72.7833L195.171 73.3357C196.645 73.6376 198.11 73.9581 199.565 74.2969L199.693 73.7477L199.821 73.1986C198.356 72.8575 196.881 72.5349 195.397 72.231L195.284 72.7833ZM204.05 74.8242L203.908 75.3697C205.362 75.7499 206.807 76.1488 208.241 76.5661L208.398 76.0247L208.556 75.4834C207.112 75.0631 205.657 74.6615 204.193 74.2787L204.05 74.8242ZM212.693 77.339L212.52 77.8758C213.95 78.3351 215.369 78.813 216.777 79.3095L216.965 78.7778L217.152 78.246C215.734 77.746 214.305 77.2647 212.865 76.8022L212.693 77.339ZM221.181 80.3316L220.979 80.8579C222.379 81.3964 223.768 81.9537 225.145 82.5293L225.362 82.0091L225.58 81.4889C224.192 80.9091 222.794 80.3478 221.384 79.8054L221.181 80.3316ZM229.485 83.8027L229.253 84.3164C230.618 84.9339 231.972 85.5699 233.313 86.2243L233.56 85.7175L233.807 85.2108C232.456 84.5516 231.093 83.9109 229.718 83.2889L229.485 83.8027ZM237.574 87.7487L237.312 88.248C238.638 88.9435 239.951 89.6573 241.251 90.3892L241.528 89.8979L241.804 89.4065C240.494 88.6691 239.171 87.95 237.836 87.2495L237.574 87.7487ZM245.416 92.1626L245.125 92.6456C246.407 93.4174 247.675 94.2074 248.93 95.0153L249.235 94.5412L249.54 94.0671C248.276 93.2532 246.998 92.4573 245.707 91.6797L245.416 92.1626ZM252.983 97.0331L252.664 97.498C253.896 98.3441 255.115 99.2082 256.32 100.09L256.653 99.6347L256.986 99.1796C255.772 98.2914 254.544 97.4209 253.302 96.5683L252.983 97.0331ZM260.246 102.345L259.899 102.79C261.079 103.708 262.244 104.644 263.396 105.596L263.755 105.162L264.115 104.727C262.955 103.768 261.78 102.825 260.592 101.9L260.246 102.345ZM267.179 108.081L266.807 108.505C267.929 109.491 269.037 110.494 270.131 111.514L270.516 111.102L270.9 110.69C269.798 109.662 268.682 108.651 267.551 107.657L267.179 108.081ZM273.759 114.218L273.363 114.619C274.425 115.67 275.472 116.737 276.504 117.82L276.912 117.431L277.32 117.042C276.28 115.951 275.226 114.876 274.156 113.818L273.759 114.218ZM279.967 120.733L279.547 121.11C280.545 122.22 281.528 123.347 282.496 124.489L282.926 124.125L283.356 123.76C282.381 122.61 281.391 121.475 280.386 120.356L279.967 120.733ZM285.784 127.599L285.344 127.951C286.275 129.117 287.191 130.298 288.092 131.494L288.542 131.155L288.993 130.815C288.085 129.611 287.163 128.421 286.225 127.247L285.784 127.599ZM291.198 134.788L290.738 135.114C291.601 136.33 292.449 137.561 293.281 138.806L293.749 138.493L294.218 138.179C293.38 136.926 292.527 135.686 291.658 134.462L291.198 134.788ZM296.199 142.271L295.721 142.571C296.514 143.832 297.292 145.108 298.054 146.397L298.539 146.11L299.025 145.823C298.258 144.525 297.475 143.241 296.676 141.971L296.199 142.271ZM300.779 150.019L300.286 150.292C301.008 151.594 301.716 152.909 302.407 154.237L302.907 153.977L303.407 153.716C302.711 152.379 301.999 151.056 301.272 149.745L300.779 150.019ZM304.935 158.002L304.429 158.249C305.081 159.586 305.717 160.936 306.338 162.299L306.851 162.065L307.364 161.831C306.739 160.46 306.098 159.101 305.442 157.755L304.935 158.002ZM308.668 166.192L308.149 166.412C308.73 167.781 309.297 169.161 309.847 170.553L310.372 170.346L310.896 170.139C310.342 168.738 309.772 167.349 309.187 165.971L308.668 166.192ZM311.978 174.561L311.449 174.755C311.961 176.15 312.458 177.557 312.939 178.975L313.473 178.794L314.007 178.612C313.523 177.186 313.023 175.77 312.507 174.366L311.978 174.561ZM314.871 183.082L314.333 183.25C314.777 184.669 315.205 186.098 315.618 187.538L316.16 187.382L316.702 187.227C316.287 185.778 315.856 184.341 315.409 182.913L314.871 183.082ZM317.353 191.731L316.808 191.873C317.185 193.312 317.546 194.76 317.893 196.218L318.441 196.088L318.99 195.958C318.641 194.491 318.278 193.034 317.899 191.588L317.353 191.731ZM319.433 200.484L318.882 200.602C319.193 202.057 319.49 203.521 319.771 204.995L320.325 204.889L320.879 204.783C320.596 203.302 320.298 201.829 319.985 200.366L319.433 200.484ZM321.121 209.321L320.565 209.415C320.689 210.156 320.811 210.899 320.928 211.644L321.485 211.557L322.042 211.469C321.924 210.72 321.802 209.972 321.677 209.227L321.121 209.321Z" fill="#FF8A7B"/>
<path d="M98.7893 105.201C98.5265 105.034 98.178 105.112 98.011 105.375L95.29 109.658C95.123 109.921 95.2007 110.269 95.4636 110.436C95.7264 110.603 96.0749 110.526 96.2418 110.263L98.6605 106.455L102.468 108.874C102.731 109.041 103.079 108.963 103.246 108.701C103.413 108.438 103.335 108.089 103.073 107.922L98.7893 105.201ZM317.582 228.226C317.283 228.315 317.113 228.628 317.201 228.927C317.289 229.226 317.603 229.396 317.902 229.308L317.742 228.767L317.582 228.226ZM313.557 230.55C313.857 230.467 314.033 230.156 313.951 229.856C313.868 229.556 313.557 229.38 313.257 229.462L313.407 230.006L313.557 230.55ZM308.939 230.609C308.637 230.687 308.455 230.994 308.532 231.295C308.609 231.597 308.916 231.779 309.218 231.702L309.078 231.156L308.939 230.609ZM304.815 232.781C305.118 232.71 305.306 232.407 305.235 232.103C305.164 231.8 304.86 231.612 304.557 231.683L304.686 232.232L304.815 232.781ZM300.199 232.661C299.895 232.726 299.701 233.026 299.766 233.331C299.831 233.635 300.131 233.829 300.435 233.764L300.317 233.213L300.199 232.661ZM295.994 234.667C296.3 234.608 296.5 234.313 296.441 234.007C296.382 233.701 296.087 233.501 295.781 233.56L295.887 234.114L295.994 234.667ZM291.375 234.362C291.069 234.415 290.862 234.706 290.915 235.013C290.968 235.32 291.259 235.526 291.566 235.474L291.471 234.918L291.375 234.362ZM287.105 236.19C287.413 236.144 287.625 235.857 287.579 235.549C287.533 235.241 287.246 235.029 286.938 235.075L287.022 235.633L287.105 236.19ZM282.494 235.692C282.185 235.731 281.967 236.014 282.006 236.322C282.045 236.631 282.328 236.85 282.637 236.81L282.565 236.251L282.494 235.692ZM278.159 237.333C278.468 237.3 278.693 237.022 278.66 236.713C278.627 236.403 278.35 236.179 278.04 236.211L278.099 236.772L278.159 237.333ZM273.567 236.633C273.256 236.658 273.025 236.931 273.051 237.241C273.077 237.551 273.349 237.782 273.66 237.756L273.613 237.195L273.567 236.633ZM269.169 238.077C269.479 238.058 269.716 237.791 269.698 237.481C269.679 237.17 269.412 236.933 269.101 236.951L269.135 237.514L269.169 238.077ZM264.609 237.168C264.297 237.179 264.054 237.441 264.066 237.752C264.077 238.063 264.338 238.306 264.65 238.295L264.629 237.732L264.609 237.168ZM260.152 238.406C260.463 238.402 260.712 238.146 260.709 237.835C260.705 237.524 260.449 237.274 260.138 237.278L260.145 237.842L260.152 238.406ZM255.637 237.282C255.326 237.278 255.07 237.528 255.067 237.839C255.063 238.15 255.313 238.406 255.624 238.409L255.631 237.845L255.637 237.282ZM251.128 238.303C251.439 238.314 251.7 238.071 251.711 237.759C251.722 237.448 251.479 237.187 251.168 237.176L251.148 237.739L251.128 238.303ZM246.672 236.957C246.362 236.938 246.094 237.175 246.075 237.486C246.056 237.797 246.293 238.064 246.604 238.083L246.638 237.52L246.672 236.957ZM242.117 237.751C242.427 237.778 242.701 237.549 242.728 237.238C242.754 236.928 242.525 236.655 242.215 236.628L242.166 237.19L242.117 237.751ZM237.737 236.181C237.427 236.146 237.148 236.369 237.113 236.678C237.078 236.988 237.301 237.267 237.61 237.302L237.673 236.741L237.737 236.181ZM233.145 236.738C233.453 236.781 233.738 236.566 233.781 236.258C233.824 235.949 233.609 235.664 233.301 235.621L233.223 236.18L233.145 236.738ZM228.855 234.94C228.547 234.889 228.257 235.097 228.206 235.404C228.154 235.711 228.362 236.001 228.669 236.053L228.762 235.497L228.855 234.94ZM224.237 235.252C224.543 235.311 224.839 235.112 224.898 234.806C224.958 234.5 224.758 234.204 224.453 234.145L224.345 234.698L224.237 235.252ZM220.053 233.225C219.749 233.157 219.447 233.349 219.38 233.653C219.312 233.956 219.503 234.258 219.807 234.326L219.93 233.775L220.053 233.225ZM215.423 233.282C215.725 233.359 216.031 233.176 216.107 232.874C216.184 232.572 216.001 232.265 215.699 232.189L215.561 232.736L215.423 233.282ZM211.36 231.028C211.06 230.943 210.748 231.117 210.664 231.417C210.579 231.717 210.753 232.028 211.053 232.113L211.206 231.57L211.36 231.028ZM206.731 230.825C207.028 230.918 207.345 230.753 207.438 230.455C207.531 230.158 207.366 229.842 207.068 229.749L206.9 230.287L206.731 230.825ZM202.805 228.344C202.511 228.243 202.19 228.399 202.088 228.693C201.986 228.988 202.143 229.309 202.437 229.41L202.621 228.877L202.805 228.344ZM198.193 227.876C198.484 227.986 198.81 227.839 198.92 227.548C199.03 227.257 198.883 226.931 198.592 226.821L198.392 227.349L198.193 227.876ZM194.419 225.174C194.131 225.056 193.802 225.193 193.683 225.481C193.565 225.769 193.702 226.099 193.99 226.217L194.205 225.696L194.419 225.174ZM189.84 224.438C190.125 224.564 190.458 224.437 190.585 224.152C190.712 223.868 190.584 223.535 190.3 223.408L190.07 223.923L189.84 224.438ZM186.233 221.52C185.952 221.385 185.615 221.503 185.48 221.783C185.345 222.064 185.463 222.401 185.743 222.536L185.988 222.028L186.233 221.52ZM181.704 220.515C181.981 220.658 182.321 220.55 182.465 220.274C182.608 219.998 182.5 219.657 182.224 219.514L181.964 220.014L181.704 220.515ZM178.277 217.39C178.005 217.238 177.661 217.336 177.51 217.608C177.358 217.88 177.456 218.223 177.728 218.375L178.002 217.882L178.277 217.39ZM173.815 216.117C174.083 216.277 174.429 216.189 174.588 215.922C174.748 215.655 174.661 215.308 174.393 215.149L174.104 215.633L173.815 216.117ZM170.58 212.794C170.317 212.626 169.969 212.703 169.801 212.966C169.634 213.228 169.71 213.577 169.973 213.744L170.276 213.269L170.58 212.794ZM166.202 211.257C166.459 211.432 166.81 211.366 166.986 211.109C167.161 210.851 167.094 210.5 166.837 210.325L166.52 210.791L166.202 211.257ZM163.17 207.746C162.918 207.563 162.565 207.619 162.382 207.872C162.199 208.124 162.255 208.476 162.507 208.659L162.839 208.203L163.17 207.746ZM158.892 205.952C159.139 206.143 159.493 206.097 159.683 205.851C159.874 205.604 159.828 205.25 159.582 205.06L159.237 205.506L158.892 205.952ZM156.073 202.267C155.833 202.069 155.477 202.104 155.28 202.345C155.082 202.586 155.117 202.941 155.358 203.138L155.716 202.703L156.073 202.267ZM151.911 200.223C152.145 200.428 152.502 200.403 152.706 200.168C152.911 199.934 152.886 199.577 152.651 199.373L152.281 199.798L151.911 200.223ZM149.314 196.377C149.085 196.166 148.729 196.18 148.517 196.408C148.306 196.637 148.32 196.994 148.548 197.205L148.931 196.791L149.314 196.377ZM145.279 194.092C145.501 194.31 145.858 194.306 146.076 194.084C146.294 193.862 146.291 193.505 146.068 193.287L145.673 193.689L145.279 194.092ZM142.912 190.101C142.696 189.877 142.339 189.87 142.115 190.086C141.89 190.302 141.883 190.659 142.099 190.883L142.506 190.492L142.912 190.101ZM139.016 187.585C139.225 187.815 139.581 187.832 139.812 187.623C140.042 187.414 140.06 187.057 139.85 186.827L139.433 187.206L139.016 187.585ZM136.883 183.465C136.681 183.228 136.325 183.201 136.088 183.404C135.852 183.607 135.825 183.963 136.027 184.199L136.455 183.832L136.883 183.465ZM133.136 180.729C133.332 180.971 133.687 181.008 133.929 180.812C134.171 180.616 134.209 180.261 134.013 180.019L133.574 180.374L133.136 180.729ZM131.242 176.496C131.053 176.249 130.699 176.201 130.452 176.39C130.204 176.579 130.157 176.933 130.346 177.181L130.794 176.838L131.242 176.496ZM127.653 173.552C127.835 173.805 128.187 173.862 128.44 173.68C128.692 173.498 128.75 173.145 128.568 172.893L128.11 173.223L127.653 173.552ZM125.997 169.223C125.822 168.965 125.472 168.898 125.214 169.074C124.957 169.249 124.89 169.599 125.065 169.857L125.531 169.54L125.997 169.223ZM122.574 166.085C122.742 166.347 123.091 166.423 123.353 166.255C123.615 166.087 123.691 165.738 123.523 165.476L123.048 165.78L122.574 166.085ZM121.157 161.674C120.996 161.407 120.649 161.322 120.382 161.483C120.116 161.644 120.03 161.99 120.191 162.257L120.674 161.965L121.157 161.674ZM117.905 158.355C118.059 158.626 118.403 158.721 118.673 158.567C118.944 158.413 119.039 158.069 118.885 157.798L118.395 158.076L117.905 158.355ZM116.723 153.877C116.576 153.603 116.235 153.499 115.96 153.646C115.685 153.793 115.582 154.134 115.729 154.409L116.226 154.143L116.723 153.877ZM113.647 150.392C113.787 150.671 114.126 150.783 114.404 150.643C114.683 150.504 114.795 150.165 114.655 149.887L114.151 150.139L113.647 150.392ZM112.698 145.861C112.565 145.58 112.229 145.459 111.948 145.591C111.666 145.724 111.545 146.06 111.678 146.342L112.188 146.101L112.698 145.861ZM109.802 142.225C109.927 142.51 110.26 142.639 110.545 142.513C110.83 142.388 110.959 142.055 110.834 141.77L110.318 141.997L109.802 142.225ZM109.079 137.653C108.96 137.365 108.631 137.227 108.343 137.346C108.055 137.465 107.918 137.794 108.036 138.082L108.558 137.867L109.079 137.653ZM106.364 133.878C106.476 134.169 106.802 134.314 107.093 134.203C107.383 134.091 107.529 133.765 107.417 133.474L106.891 133.676L106.364 133.878ZM105.863 129.277C105.758 128.983 105.435 128.831 105.142 128.935C104.849 129.04 104.696 129.363 104.801 129.656L105.332 129.466L105.863 129.277ZM103.33 125.379C103.428 125.675 103.747 125.835 104.043 125.737C104.338 125.64 104.499 125.321 104.401 125.025L103.866 125.202L103.33 125.379ZM103.043 120.758C102.952 120.46 102.637 120.292 102.339 120.383C102.041 120.474 101.874 120.789 101.965 121.087L102.504 120.922L103.043 120.758ZM100.693 116.751C100.777 117.05 101.088 117.225 101.388 117.141C101.688 117.056 101.863 116.745 101.778 116.445L101.235 116.598L100.693 116.751ZM100.613 112.118C100.535 111.816 100.228 111.634 99.9265 111.712C99.6249 111.79 99.4434 112.097 99.521 112.399L100.067 112.258L100.613 112.118ZM98.4431 108.014C98.5141 108.317 98.8175 108.506 99.1207 108.435C99.4239 108.364 99.612 108.06 99.541 107.757L98.992 107.886L98.4431 108.014ZM319.917 228.112L319.752 227.573C319.027 227.795 318.304 228.013 317.582 228.226L317.742 228.767L317.902 229.308C318.627 229.093 319.354 228.874 320.082 228.652L319.917 228.112ZM313.407 230.006L313.257 229.462C311.814 229.86 310.375 230.243 308.939 230.609L309.078 231.156L309.218 231.702C310.661 231.333 312.107 230.949 313.557 230.55L313.407 230.006ZM304.686 232.232L304.557 231.683C303.1 232.025 301.648 232.351 300.199 232.661L300.317 233.213L300.435 233.764C301.891 233.452 303.351 233.125 304.815 232.781L304.686 232.232ZM295.887 234.114L295.781 233.56C294.308 233.844 292.839 234.111 291.375 234.362L291.471 234.918L291.566 235.474C293.038 235.221 294.514 234.953 295.994 234.667L295.887 234.114ZM287.022 235.633L286.938 235.075C285.452 235.297 283.97 235.503 282.494 235.692L282.565 236.251L282.637 236.81C284.121 236.621 285.611 236.414 287.105 236.19L287.022 235.633ZM278.099 236.772L278.04 236.211C276.544 236.369 275.052 236.51 273.567 236.633L273.613 237.195L273.66 237.756C275.154 237.633 276.654 237.491 278.159 237.333L278.099 236.772ZM269.135 237.514L269.101 236.951C267.598 237.042 266.1 237.114 264.609 237.168L264.629 237.732L264.65 238.295C266.15 238.24 267.656 238.168 269.169 238.077L269.135 237.514ZM260.145 237.842L260.138 237.278C258.631 237.298 257.131 237.299 255.637 237.282L255.631 237.845L255.624 238.409C257.127 238.426 258.636 238.425 260.152 238.406L260.145 237.842ZM251.148 237.739L251.168 237.176C249.662 237.121 248.164 237.049 246.672 236.957L246.638 237.52L246.604 238.083C248.104 238.175 249.612 238.248 251.128 238.303L251.148 237.739ZM242.166 237.19L242.215 236.628C240.714 236.498 239.222 236.349 237.737 236.181L237.673 236.741L237.61 237.302C239.105 237.47 240.607 237.62 242.117 237.751L242.166 237.19ZM233.223 236.18L233.301 235.621C231.81 235.413 230.328 235.186 228.855 234.94L228.762 235.497L228.669 236.053C230.153 236.3 231.645 236.529 233.145 236.738L233.223 236.18ZM224.345 234.698L224.453 234.145C222.977 233.857 221.51 233.551 220.053 233.225L219.93 233.775L219.807 234.326C221.275 234.654 222.752 234.962 224.237 235.252L224.345 234.698ZM215.561 232.736L215.699 232.189C214.243 231.821 212.796 231.434 211.36 231.028L211.206 231.57L211.053 232.113C212.5 232.522 213.957 232.912 215.423 233.282L215.561 232.736ZM206.9 230.287L207.068 229.749C205.637 229.3 204.216 228.832 202.805 228.344L202.621 228.877L202.437 229.41C203.858 229.901 205.289 230.373 206.731 230.825L206.9 230.287ZM198.392 227.349L198.592 226.821C197.19 226.291 195.799 225.742 194.419 225.174L194.205 225.696L193.99 226.217C195.38 226.789 196.781 227.342 198.193 227.876L198.392 227.349ZM190.07 223.923L190.3 223.408C188.933 222.798 187.577 222.169 186.233 221.52L185.988 222.028L185.743 222.536C187.098 223.189 188.463 223.823 189.84 224.438L190.07 223.923ZM181.964 220.014L182.224 219.514C180.896 218.825 179.581 218.117 178.277 217.39L178.002 217.882L177.728 218.375C179.041 219.107 180.367 219.82 181.704 220.515L181.964 220.014ZM174.104 215.633L174.393 215.149C173.11 214.382 171.839 213.597 170.58 212.794L170.276 213.269L169.973 213.744C171.241 214.554 172.522 215.345 173.815 216.117L174.104 215.633ZM166.52 210.791L166.837 210.325C165.602 209.484 164.379 208.624 163.17 207.746L162.839 208.203L162.507 208.659C163.726 209.543 164.958 210.409 166.202 211.257L166.52 210.791ZM159.237 205.506L159.582 205.06C158.399 204.147 157.229 203.216 156.073 202.267L155.716 202.703L155.358 203.138C156.523 204.094 157.701 205.032 158.892 205.952L159.237 205.506ZM152.281 199.798L152.651 199.373C151.525 198.392 150.413 197.393 149.314 196.377L148.931 196.791L148.548 197.205C149.655 198.228 150.776 199.234 151.911 200.223L152.281 199.798ZM145.673 193.689L146.068 193.287C145.002 192.242 143.95 191.18 142.912 190.101L142.506 190.492L142.099 190.883C143.145 191.969 144.205 193.039 145.279 194.092L145.673 193.689ZM139.433 187.206L139.85 186.827C138.847 185.722 137.858 184.602 136.883 183.465L136.455 183.832L136.027 184.199C137.009 185.344 138.005 186.472 139.016 187.585L139.433 187.206ZM133.574 180.374L134.013 180.019C133.075 178.86 132.151 177.686 131.242 176.496L130.794 176.838L130.346 177.181C131.261 178.379 132.192 179.562 133.136 180.729L133.574 180.374ZM128.11 173.223L128.568 172.893C127.696 171.684 126.839 170.461 125.997 169.223L125.531 169.54L125.065 169.857C125.913 171.104 126.775 172.335 127.653 173.552L128.11 173.223ZM123.048 165.78L123.523 165.476C122.72 164.223 121.931 162.955 121.157 161.674L120.674 161.965L120.191 162.257C120.971 163.547 121.765 164.823 122.574 166.085L123.048 165.78ZM118.395 158.076L118.885 157.798C118.15 156.504 117.429 155.198 116.723 153.877L116.226 154.143L115.729 154.409C116.439 155.738 117.164 157.053 117.905 158.355L118.395 158.076ZM114.151 150.139L114.655 149.887C113.988 148.558 113.336 147.216 112.698 145.861L112.188 146.101L111.678 146.342C112.319 147.705 112.976 149.055 113.647 150.392L114.151 150.139ZM110.318 141.997L110.834 141.77C110.234 140.41 109.649 139.037 109.079 137.653L108.558 137.867L108.036 138.082C108.61 139.475 109.198 140.856 109.802 142.225L110.318 141.997ZM106.891 133.676L107.417 133.474C106.884 132.087 106.366 130.687 105.863 129.277L105.332 129.466L104.801 129.656C105.307 131.075 105.828 132.482 106.364 133.878L106.891 133.676ZM103.866 125.202L104.401 125.025C103.934 123.613 103.481 122.191 103.043 120.758L102.504 120.922L101.965 121.087C102.405 122.529 102.861 123.959 103.33 125.379L103.866 125.202ZM101.235 116.598L101.778 116.445C101.376 115.013 100.987 113.57 100.613 112.118L100.067 112.258L99.521 112.399C99.8971 113.86 100.288 115.31 100.693 116.751L101.235 116.598ZM98.992 107.886L99.541 107.757C99.3695 107.025 99.2016 106.291 99.0373 105.555L98.487 105.677L97.9366 105.8C98.1018 106.541 98.2706 107.279 98.4431 108.014L98.992 107.886Z" fill="#FF8A7B"/>
<path d="M313.635 70.0441C313.921 69.9213 314.054 69.5897 313.931 69.3036L311.929 64.6406C311.807 64.3544 311.475 64.222 311.189 64.3448C310.903 64.4677 310.77 64.7992 310.893 65.0854L312.672 69.2303L308.527 71.0095C308.241 71.1323 308.109 71.4638 308.232 71.75C308.355 72.0361 308.686 72.1685 308.972 72.0457L313.635 70.0441ZM88.6277 181.295C88.7232 180.999 88.5603 180.681 88.2639 180.586C87.9675 180.49 87.6499 180.653 87.5544 180.95L88.091 181.122L88.6277 181.295ZM88.9799 176.662C88.8789 176.956 89.0358 177.277 89.3304 177.378C89.6249 177.479 89.9456 177.322 90.0466 177.028L89.5133 176.845L88.9799 176.662ZM91.5358 172.815C91.6424 172.522 91.4916 172.198 91.199 172.092C90.9064 171.985 90.5828 172.136 90.4763 172.429L91.006 172.622L91.5358 172.815ZM92.0691 168.184C91.9568 168.475 92.1013 168.801 92.3917 168.913C92.6822 169.026 93.0087 168.881 93.1209 168.591L92.595 168.388L92.0691 168.184ZM94.772 164.441C94.89 164.153 94.752 163.824 94.4638 163.706C94.1756 163.588 93.8464 163.726 93.7284 164.014L94.2502 164.227L94.772 164.441ZM95.4878 159.838C95.364 160.123 95.4952 160.455 95.7809 160.579C96.0667 160.703 96.3987 160.572 96.5225 160.286L96.0051 160.062L95.4878 159.838ZM98.3452 156.196C98.4749 155.913 98.3505 155.578 98.0674 155.449C97.7843 155.319 97.4497 155.443 97.32 155.726L97.8326 155.961L98.3452 156.196ZM99.2449 151.639C99.1093 151.919 99.2266 152.256 99.5068 152.392C99.7871 152.527 100.124 152.41 100.26 152.13L99.7525 151.884L99.2449 151.639ZM102.258 148.112C102.4 147.835 102.29 147.496 102.012 147.354C101.735 147.212 101.395 147.322 101.254 147.599L101.756 147.856L102.258 148.112ZM103.349 143.607C103.201 143.881 103.303 144.223 103.577 144.371C103.852 144.519 104.194 144.416 104.341 144.142L103.845 143.875L103.349 143.607ZM106.517 140.21C106.671 139.94 106.576 139.596 106.305 139.442C106.035 139.288 105.69 139.383 105.537 139.653L106.027 139.932L106.517 140.21ZM107.805 135.764C107.645 136.032 107.732 136.378 107.999 136.538C108.267 136.698 108.613 136.611 108.773 136.344L108.289 136.054L107.805 135.764ZM111.128 132.512C111.295 132.249 111.216 131.9 110.952 131.734C110.689 131.568 110.341 131.647 110.175 131.91L110.652 132.211L111.128 132.512ZM112.62 128.134C112.448 128.393 112.519 128.743 112.778 128.916C113.037 129.088 113.387 129.017 113.56 128.758L113.09 128.446L112.62 128.134ZM116.096 125.04C116.274 124.785 116.212 124.434 115.957 124.255C115.702 124.077 115.351 124.139 115.172 124.394L115.634 124.717L116.096 125.04ZM117.797 120.741C117.612 120.992 117.665 121.345 117.916 121.529C118.167 121.714 118.52 121.661 118.704 121.41L118.251 121.076L117.797 120.741ZM121.421 117.821C121.612 117.575 121.567 117.221 121.321 117.03C121.076 116.839 120.721 116.884 120.53 117.129L120.976 117.475L121.421 117.821ZM123.335 113.612C123.138 113.853 123.173 114.208 123.414 114.406C123.655 114.603 124.01 114.567 124.208 114.326L123.771 113.969L123.335 113.612ZM127.103 110.881C127.306 110.645 127.28 110.289 127.044 110.086C126.808 109.882 126.452 109.909 126.249 110.144L126.676 110.513L127.103 110.881ZM129.233 106.775C129.023 107.006 129.04 107.362 129.271 107.572C129.501 107.781 129.858 107.764 130.067 107.534L129.65 107.155L129.233 106.775ZM133.138 104.247C133.353 104.022 133.346 103.666 133.121 103.45C132.897 103.234 132.54 103.242 132.324 103.466L132.731 103.857L133.138 104.247ZM135.486 100.259C135.264 100.478 135.262 100.835 135.48 101.056C135.699 101.278 136.056 101.28 136.278 101.062L135.882 100.66L135.486 100.259ZM139.519 97.9472C139.747 97.7346 139.759 97.3778 139.546 97.1503C139.334 96.9228 138.977 96.9108 138.749 97.1234L139.134 97.5353L139.519 97.9472ZM142.084 94.0919C141.851 94.2982 141.829 94.6545 142.035 94.8878C142.241 95.1211 142.598 95.143 142.831 94.9368L142.457 94.5143L142.084 94.0919ZM146.238 92.009C146.477 91.8094 146.509 91.4538 146.309 91.2148C146.109 90.9758 145.754 90.9439 145.515 91.1435L145.876 91.5763L146.238 92.009ZM149.017 88.3018C148.772 88.4946 148.73 88.8491 148.923 89.0937C149.116 89.3382 149.47 89.3802 149.715 89.1874L149.366 88.7446L149.017 88.3018ZM153.279 86.4594C153.529 86.2737 153.581 85.9205 153.396 85.6705C153.21 85.4206 152.857 85.3684 152.607 85.5541L152.943 86.0067L153.279 86.4594ZM156.268 82.9157C156.013 83.0941 155.95 83.4456 156.129 83.7009C156.307 83.9561 156.659 84.0184 156.914 83.84L156.591 83.3778L156.268 82.9157ZM160.628 81.3238C160.888 81.1529 160.96 80.8033 160.79 80.543C160.619 80.2827 160.269 80.2102 160.009 80.3811L160.318 80.8524L160.628 81.3238ZM163.819 77.9588C163.554 78.122 163.471 78.4693 163.634 78.7345C163.797 78.9997 164.145 79.0824 164.41 78.9192L164.114 78.439L163.819 77.9588ZM168.263 76.6258C168.533 76.4705 168.625 76.1258 168.47 75.8559C168.315 75.586 167.97 75.4931 167.7 75.6484L167.981 76.1371L168.263 76.6258ZM171.648 73.4539C171.373 73.6011 171.27 73.9429 171.418 74.2173C171.565 74.4917 171.907 74.5947 172.181 74.4475L171.914 73.9507L171.648 73.4539ZM176.162 72.3866C176.44 72.2476 176.553 71.909 176.414 71.6303C176.275 71.3517 175.937 71.2386 175.658 71.3776L175.91 71.8821L176.162 72.3866ZM179.73 69.4209C179.447 69.5516 179.324 69.8867 179.454 70.1693C179.585 70.4519 179.92 70.5751 180.203 70.4444L179.966 69.9327L179.73 69.4209ZM184.299 68.6242C184.585 68.502 184.718 68.1707 184.596 67.8843C184.474 67.5979 184.143 67.4648 183.856 67.587L184.077 68.1056L184.299 68.6242ZM188.037 65.8765C187.747 65.9901 187.604 66.3172 187.718 66.6071C187.831 66.8971 188.158 67.04 188.448 66.9264L188.243 66.4014L188.037 65.8765ZM192.646 65.3532C192.94 65.2483 193.092 64.9256 192.987 64.6324C192.882 64.3392 192.56 64.1866 192.266 64.2915L192.456 64.8224L192.646 65.3532ZM196.541 62.8335C196.244 62.9296 196.082 63.2477 196.178 63.5438C196.274 63.84 196.593 64.0022 196.889 63.906L196.715 63.3698L196.541 62.8335ZM201.174 62.585C201.473 62.4977 201.645 62.1846 201.557 61.8857C201.47 61.5868 201.157 61.4152 200.858 61.5025L201.016 62.0438L201.174 62.585ZM205.21 60.3009C204.909 60.3794 204.728 60.6872 204.806 60.9886C204.885 61.2899 205.193 61.4707 205.494 61.3922L205.352 60.8466L205.21 60.3009ZM209.85 60.3266C210.154 60.257 210.344 59.9546 210.274 59.6511C210.205 59.3476 209.902 59.1579 209.599 59.2274L209.724 59.777L209.85 60.3266ZM214.013 58.2838C213.708 58.3444 213.51 58.6412 213.57 58.9466C213.631 59.2521 213.928 59.4505 214.233 59.3899L214.123 58.8369L214.013 58.2838ZM218.644 58.5809C218.951 58.5292 219.158 58.2383 219.106 57.9312C219.055 57.6242 218.764 57.4172 218.457 57.4689L218.55 58.0249L218.644 58.5809ZM222.92 56.7833C222.611 56.8261 222.396 57.1109 222.439 57.4193C222.482 57.7277 222.766 57.943 223.075 57.9002L222.997 57.3417L222.92 56.7833ZM227.524 57.3469C227.834 57.3129 228.057 57.0344 228.023 56.7249C227.989 56.4154 227.711 56.192 227.401 56.226L227.463 56.7865L227.524 57.3469ZM231.897 55.7965C231.587 55.8217 231.356 56.0938 231.381 56.4041C231.406 56.7145 231.678 56.9457 231.989 56.9205L231.943 56.3585L231.897 55.7965ZM236.461 56.6202C236.772 56.6037 237.01 56.3382 236.994 56.0273C236.977 55.7163 236.712 55.4776 236.401 55.4941L236.431 56.0571L236.461 56.6202ZM240.916 55.3173C240.605 55.3252 240.359 55.5839 240.367 55.8952C240.375 56.2065 240.633 56.4525 240.945 56.4446L240.93 55.881L240.916 55.3173ZM245.425 56.3929C245.736 56.3936 245.989 56.1417 245.99 55.8303C245.99 55.5189 245.739 55.266 245.427 55.2653L245.426 55.8291L245.425 56.3929ZM249.947 55.3364C249.636 55.3273 249.376 55.5722 249.367 55.8835C249.358 56.1948 249.603 56.4545 249.914 56.4636L249.931 55.9L249.947 55.3364ZM254.389 56.6546C254.7 56.672 254.966 56.4341 254.983 56.1232C255.001 55.8123 254.763 55.5461 254.452 55.5287L254.42 56.0917L254.389 56.6546ZM258.963 55.8416C258.653 55.816 258.381 56.0468 258.355 56.3571C258.329 56.6674 258.56 56.9398 258.871 56.9654L258.917 56.4035L258.963 55.8416ZM263.327 57.3921C263.637 57.4258 263.915 57.2022 263.949 56.8926C263.982 56.5831 263.759 56.3048 263.449 56.2711L263.388 56.8316L263.327 57.3921ZM267.94 56.8185C267.631 56.7769 267.347 56.9933 267.306 57.3019C267.264 57.6105 267.48 57.8944 267.789 57.936L267.864 57.3773L267.94 56.8185ZM272.217 58.5906C272.524 58.64 272.813 58.4308 272.863 58.1234C272.912 57.8159 272.703 57.5266 272.396 57.4772L272.306 58.0339L272.217 58.5906ZM276.853 58.2509C276.547 58.1938 276.253 58.3957 276.196 58.7018C276.139 59.0079 276.341 59.3024 276.647 59.3594L276.75 58.8051L276.853 58.2509ZM281.036 60.2333C281.341 60.2979 281.64 60.1032 281.704 59.7986C281.769 59.4939 281.574 59.1947 281.27 59.1302L281.153 59.6818L281.036 60.2333ZM285.684 60.1211C285.381 60.0492 285.077 60.2366 285.005 60.5396C284.933 60.8426 285.121 61.1465 285.424 61.2183L285.554 60.6697L285.684 60.1211ZM289.766 62.3028C290.067 62.3818 290.376 62.2017 290.455 61.9005C290.534 61.5993 290.354 61.2911 290.052 61.2121L289.909 61.7575L289.766 62.3028ZM294.413 62.4107C294.114 62.3246 293.801 62.4975 293.715 62.7968C293.629 63.0961 293.802 63.4084 294.102 63.4944L294.257 62.9525L294.413 62.4107ZM298.391 64.7807C298.688 64.8736 299.004 64.7079 299.097 64.4106C299.19 64.1134 299.024 63.7972 298.727 63.7043L298.559 64.2425L298.391 64.7807ZM303.026 65.1005C302.73 65.001 302.411 65.1595 302.311 65.4545C302.212 65.7496 302.37 66.0695 302.665 66.169L302.845 65.6347L303.026 65.1005ZM306.896 67.6483C307.189 67.7543 307.512 67.6029 307.618 67.3101C307.724 67.0173 307.573 66.694 307.28 66.588L307.088 67.1182L306.896 67.6483ZM311.508 68.1713C311.218 68.059 310.891 68.2033 310.779 68.4937C310.666 68.7842 310.811 69.1107 311.101 69.223L311.305 68.6972L311.508 68.1713ZM87.4046 183.288L87.9428 183.455C88.1684 182.733 88.3967 182.012 88.6277 181.295L88.091 181.122L87.5544 180.95C87.3223 181.67 87.0929 182.393 86.8663 183.12L87.4046 183.288ZM89.5133 176.845L90.0466 177.028C90.5322 175.611 91.0286 174.207 91.5358 172.815L91.006 172.622L90.4763 172.429C89.9666 173.828 89.4678 175.239 88.9799 176.662L89.5133 176.845ZM92.595 168.388L93.1209 168.591C93.6603 167.195 94.2108 165.812 94.772 164.441L94.2502 164.227L93.7284 164.014C93.1643 165.392 92.6112 166.782 92.0691 168.184L92.595 168.388ZM96.0051 160.062L96.5225 160.286C97.1189 158.91 97.7265 157.546 98.3452 156.196L97.8326 155.961L97.32 155.726C96.6981 157.084 96.0873 158.454 95.4878 159.838L96.0051 160.062ZM99.7525 151.884L100.26 152.13C100.915 150.777 101.581 149.438 102.258 148.112L101.756 147.856L101.254 147.599C100.573 148.932 99.9032 150.279 99.2449 151.639L99.7525 151.884ZM103.845 143.875L104.341 144.142C105.055 142.817 105.781 141.507 106.517 140.21L106.027 139.932L105.537 139.653C104.796 140.957 104.066 142.275 103.349 143.607L103.845 143.875ZM108.289 136.054L108.773 136.344C109.547 135.051 110.332 133.774 111.128 132.512L110.652 132.211L110.175 131.91C109.374 133.18 108.584 134.465 107.805 135.764L108.289 136.054ZM113.09 128.446L113.56 128.758C114.394 127.503 115.239 126.264 116.096 125.04L115.634 124.717L115.172 124.394C114.31 125.625 113.459 126.871 112.62 128.134L113.09 128.446ZM118.251 121.076L118.704 121.41C119.599 120.198 120.504 119.001 121.421 117.821L120.976 117.475L120.53 117.129C119.608 118.317 118.696 119.521 117.797 120.741L118.251 121.076ZM123.771 113.969L124.208 114.326C125.161 113.161 126.126 112.013 127.103 110.881L126.676 110.513L126.249 110.144C125.266 111.283 124.295 112.439 123.335 113.612L123.771 113.969ZM129.65 107.155L130.067 107.534C131.08 106.421 132.103 105.325 133.138 104.247L132.731 103.857L132.324 103.466C131.283 104.552 130.252 105.655 129.233 106.775L129.65 107.155ZM135.882 100.66L136.278 101.062C137.348 100.005 138.428 98.9672 139.519 97.9472L139.134 97.5353L138.749 97.1234C137.651 98.1504 136.563 99.1957 135.486 100.259L135.882 100.66ZM142.457 94.5143L142.831 94.9368C143.956 93.9422 145.092 92.9662 146.238 92.009L145.876 91.5763L145.515 91.1435C144.361 92.1075 143.217 93.0903 142.084 94.0919L142.457 94.5143ZM149.366 88.7446L149.715 89.1874C150.893 88.2589 152.081 87.3495 153.279 86.4594L152.943 86.0067L152.607 85.5541C151.4 86.4507 150.203 87.3666 149.017 88.3018L149.366 88.7446ZM156.591 83.3778L156.914 83.84C158.142 82.9816 159.38 82.1428 160.628 81.3238L160.318 80.8524L160.009 80.3811C158.752 81.2062 157.505 82.0511 156.268 82.9157L156.591 83.3778ZM164.114 78.439L164.41 78.9192C165.685 78.1347 166.969 77.3702 168.263 76.6258L167.981 76.1371L167.7 75.6484C166.397 76.3983 165.103 77.1685 163.819 77.9588L164.114 78.439ZM171.914 73.9507L172.181 74.4475C173.499 73.7401 174.826 73.0531 176.162 72.3866L175.91 71.8821L175.658 71.3776C174.312 72.0491 172.976 72.7413 171.648 73.4539L171.914 73.9507ZM179.966 69.9327L180.203 70.4444C181.56 69.817 182.925 69.2103 184.299 68.6242L184.077 68.1056L183.856 67.587C182.472 68.1775 181.097 68.7888 179.73 69.4209L179.966 69.9327ZM188.243 66.4014L188.448 66.9264C189.84 66.3811 191.239 65.8567 192.646 65.3532L192.456 64.8224L192.266 64.2915C190.849 64.7988 189.439 65.3271 188.037 65.8765L188.243 66.4014ZM196.715 63.3698L196.889 63.906C198.31 63.4447 199.739 63.0043 201.174 62.585L201.016 62.0438L200.858 61.5025C199.412 61.925 197.972 62.3687 196.541 62.8335L196.715 63.3698ZM205.352 60.8466L205.494 61.3922C206.939 61.016 208.392 60.6607 209.85 60.3266L209.724 59.777L209.599 59.2274C208.129 59.564 206.666 59.9219 205.21 60.3009L205.352 60.8466ZM214.123 58.8369L214.233 59.3899C215.697 59.0992 217.168 58.8295 218.644 58.5809L218.55 58.0249L218.457 57.4689C216.97 57.7194 215.489 57.991 214.013 58.2838L214.123 58.8369ZM222.997 57.3417L223.075 57.9002C224.553 57.6949 226.036 57.5104 227.524 57.3469L227.463 56.7865L227.401 56.226C225.902 56.3907 224.408 56.5765 222.92 56.7833L222.997 57.3417ZM231.943 56.3585L231.989 56.9205C233.475 56.7997 234.965 56.6996 236.461 56.6202L236.431 56.0571L236.401 55.4941C234.895 55.5741 233.394 55.6749 231.897 55.7965L231.943 56.3585ZM240.93 55.881L240.945 56.4446C242.434 56.407 243.927 56.3897 245.425 56.3929L245.426 55.8291L245.427 55.2653C243.92 55.2621 242.416 55.2794 240.916 55.3173L240.93 55.881ZM249.931 55.9L249.914 56.4636C251.402 56.5072 252.894 56.5708 254.389 56.6546L254.42 56.0917L254.452 55.5287C252.947 55.4444 251.445 55.3803 249.947 55.3364L249.931 55.9ZM258.917 56.4035L258.871 56.9654C260.353 57.0879 261.839 57.2301 263.327 57.3921L263.388 56.8316L263.449 56.2711C261.951 56.1081 260.456 55.9649 258.963 55.8416L258.917 56.4035ZM267.864 57.3773L267.789 57.936C269.263 58.1349 270.739 58.353 272.217 58.5906L272.306 58.0339L272.396 57.4772C270.908 57.2382 269.423 57.0186 267.94 56.8185L267.864 57.3773ZM276.75 58.8051L276.647 59.3594C278.108 59.6318 279.571 59.9231 281.036 60.2333L281.153 59.6818L281.27 59.1302C279.796 58.818 278.324 58.5249 276.853 58.2509L276.75 58.8051ZM285.554 60.6697L285.424 61.2183C286.87 61.5613 288.317 61.9228 289.766 62.3028L289.909 61.7575L290.052 61.2121C288.595 60.8298 287.139 60.4662 285.684 60.1211L285.554 60.6697ZM294.257 62.9525L294.102 63.4944C295.53 63.9051 296.96 64.3339 298.391 64.7807L298.559 64.2425L298.727 63.7043C297.288 63.255 295.85 62.8238 294.413 62.4107L294.257 62.9525ZM302.845 65.6347L302.665 66.169C304.075 66.6445 305.485 67.1376 306.896 67.6483L307.088 67.1182L307.28 66.588C305.861 66.0745 304.443 65.5786 303.026 65.1005L302.845 65.6347ZM311.305 68.6972L311.101 69.223C311.802 69.4942 312.503 69.7697 313.204 70.0496L313.413 69.526L313.622 69.0024C312.917 68.721 312.213 68.444 311.508 68.1713L311.305 68.6972Z" fill="#FF8A7B"/>
<path d="M105.366 243.106C105.106 243.278 105.036 243.628 105.209 243.888L108.023 248.11C108.195 248.37 108.545 248.44 108.805 248.267C109.064 248.094 109.134 247.744 108.961 247.485L106.46 243.731L110.214 241.23C110.473 241.058 110.543 240.708 110.37 240.449C110.198 240.189 109.848 240.119 109.589 240.292L105.366 243.106ZM309.526 243.532C309.222 243.6 309.032 243.902 309.101 244.206C309.169 244.51 309.471 244.7 309.775 244.632L309.65 244.082L309.526 243.532ZM305.368 245.615C305.672 245.548 305.864 245.247 305.797 244.943C305.73 244.639 305.429 244.447 305.125 244.514L305.246 245.064L305.368 245.615ZM300.689 245.476C300.385 245.541 300.19 245.84 300.255 246.145C300.321 246.449 300.62 246.644 300.925 246.578L300.807 246.027L300.689 245.476ZM296.502 247.508C296.807 247.445 297.003 247.147 296.94 246.842C296.877 246.537 296.579 246.341 296.274 246.404L296.388 246.956L296.502 247.508ZM291.841 247.305C291.536 247.366 291.338 247.663 291.399 247.968C291.46 248.273 291.757 248.472 292.062 248.411L291.952 247.858L291.841 247.305ZM287.608 249.282C287.914 249.224 288.115 248.928 288.056 248.622C287.997 248.317 287.702 248.116 287.396 248.175L287.502 248.729L287.608 249.282ZM282.963 249.007C282.656 249.063 282.454 249.357 282.51 249.663C282.566 249.97 282.86 250.172 283.166 250.116L283.065 249.562L282.963 249.007ZM278.704 250.916C279.011 250.862 279.216 250.57 279.162 250.264C279.109 249.957 278.817 249.752 278.51 249.805L278.607 250.361L278.704 250.916ZM274.047 250.565C273.739 250.616 273.532 250.907 273.583 251.214C273.633 251.521 273.924 251.729 274.231 251.678L274.139 251.122L274.047 250.565ZM269.764 252.397C270.071 252.349 270.282 252.06 270.234 251.753C270.186 251.445 269.898 251.234 269.59 251.282L269.677 251.839L269.764 252.397ZM265.124 251.956C264.816 252.001 264.603 252.288 264.648 252.596C264.693 252.904 264.979 253.117 265.287 253.072L265.206 252.514L265.124 251.956ZM260.791 253.704C261.1 253.662 261.316 253.378 261.274 253.07C261.233 252.761 260.949 252.545 260.64 252.587L260.716 253.145L260.791 253.704ZM256.159 253.168C255.85 253.206 255.631 253.487 255.669 253.797C255.707 254.106 255.989 254.325 256.298 254.287L256.229 253.727L256.159 253.168ZM251.804 254.818C252.114 254.783 252.336 254.504 252.301 254.195C252.267 253.886 251.988 253.663 251.678 253.698L251.741 254.258L251.804 254.818ZM247.181 254.177C246.871 254.208 246.645 254.485 246.676 254.794C246.707 255.104 246.984 255.33 247.294 255.299L247.237 254.738L247.181 254.177ZM242.778 255.725C243.088 255.698 243.317 255.424 243.29 255.114C243.263 254.804 242.989 254.575 242.679 254.602L242.728 255.164L242.778 255.725ZM238.177 254.971C237.866 254.994 237.634 255.265 237.657 255.576C237.681 255.886 237.951 256.119 238.262 256.095L238.219 255.533L238.177 254.971ZM233.743 256.408C234.054 256.388 234.29 256.12 234.271 255.81C234.251 255.499 233.983 255.263 233.673 255.282L233.708 255.845L233.743 256.408ZM229.159 255.536C228.848 255.551 228.609 255.816 228.624 256.127C228.64 256.438 228.904 256.677 229.215 256.662L229.187 256.099L229.159 255.536ZM224.685 256.856C224.996 256.845 225.24 256.584 225.228 256.273C225.217 255.961 224.955 255.718 224.644 255.73L224.665 256.293L224.685 256.856ZM220.129 255.863C219.818 255.871 219.571 256.129 219.578 256.44C219.585 256.751 219.843 256.998 220.155 256.991L220.142 256.427L220.129 255.863ZM215.623 257.065C215.934 257.062 216.184 256.807 216.181 256.496C216.178 256.184 215.923 255.934 215.612 255.937L215.617 256.501L215.623 257.065ZM211.093 255.951C210.781 255.95 210.528 256.201 210.527 256.513C210.526 256.824 210.777 257.077 211.089 257.078L211.091 256.515L211.093 255.951ZM206.557 257.032C206.868 257.038 207.125 256.789 207.13 256.478C207.135 256.167 206.887 255.91 206.576 255.905L206.566 256.469L206.557 257.032ZM202.06 255.8C201.748 255.791 201.489 256.036 201.479 256.347C201.47 256.659 201.715 256.918 202.026 256.928L202.043 256.364L202.06 255.8ZM197.495 256.765C197.806 256.778 198.069 256.536 198.082 256.225C198.095 255.914 197.854 255.651 197.543 255.638L197.519 256.201L197.495 256.765ZM193.025 255.419C192.714 255.402 192.448 255.641 192.431 255.952C192.414 256.263 192.653 256.528 192.964 256.545L192.994 255.982L193.025 255.419ZM188.445 256.272C188.755 256.293 189.024 256.057 189.045 255.747C189.065 255.436 188.83 255.167 188.519 255.147L188.482 255.709L188.445 256.272ZM184.014 254.821C183.704 254.797 183.432 255.029 183.408 255.34C183.384 255.65 183.616 255.921 183.927 255.946L183.97 255.383L184.014 254.821ZM179.407 255.568C179.717 255.596 179.991 255.367 180.019 255.057C180.046 254.747 179.817 254.473 179.507 254.445L179.457 255.007L179.407 255.568ZM175.002 254.02C174.692 253.99 174.416 254.216 174.385 254.526C174.354 254.836 174.58 255.112 174.89 255.143L174.946 254.582L175.002 254.02ZM170.392 254.672C170.701 254.706 170.98 254.483 171.014 254.173C171.048 253.864 170.824 253.585 170.515 253.551L170.453 254.112L170.392 254.672ZM166.024 253.038C165.715 253.001 165.435 253.222 165.398 253.531C165.361 253.841 165.582 254.121 165.891 254.158L165.958 253.598L166.024 253.038ZM161.384 253.601C161.693 253.64 161.975 253.422 162.015 253.113C162.054 252.804 161.836 252.522 161.527 252.482L161.456 253.042L161.384 253.601ZM157.052 251.89C156.744 251.848 156.459 252.064 156.417 252.373C156.375 252.681 156.591 252.966 156.9 253.008L156.976 252.449L157.052 251.89ZM152.419 252.378C152.727 252.423 153.013 252.209 153.057 251.901C153.102 251.593 152.888 251.307 152.58 251.262L152.499 251.82L152.419 252.378ZM148.097 250.598C147.789 250.551 147.501 250.763 147.455 251.071C147.408 251.379 147.619 251.666 147.927 251.713L148.012 251.155L148.097 250.598ZM143.456 251.018C143.764 251.067 144.052 250.857 144.101 250.55C144.15 250.242 143.94 249.953 143.633 249.905L143.544 250.461L143.456 251.018ZM139.176 249.182C138.868 249.132 138.578 249.34 138.527 249.647C138.477 249.954 138.685 250.244 138.992 250.295L139.084 249.739L139.176 249.182ZM134.51 249.541C134.817 249.594 135.108 249.387 135.161 249.08C135.213 248.773 135.007 248.482 134.7 248.429L134.605 248.985L134.51 249.541ZM130.256 247.656C129.95 247.602 129.657 247.807 129.603 248.113C129.549 248.42 129.754 248.713 130.06 248.767L130.158 248.211L130.256 247.656ZM125.604 247.968C125.911 248.023 126.204 247.82 126.26 247.514C126.316 247.207 126.113 246.914 125.806 246.858L125.705 247.413L125.604 247.968ZM121.341 246.036C121.035 245.978 120.74 246.18 120.683 246.486C120.626 246.792 120.828 247.087 121.134 247.144L121.237 246.59L121.341 246.036ZM116.704 246.308C117.01 246.366 117.306 246.166 117.364 245.86C117.422 245.554 117.222 245.259 116.916 245.2L116.81 245.754L116.704 246.308ZM112.46 244.34C112.154 244.281 111.858 244.48 111.798 244.786C111.739 245.092 111.938 245.388 112.244 245.447L112.352 244.894L112.46 244.34ZM107.811 244.575C108.117 244.636 108.413 244.437 108.474 244.132C108.535 243.826 108.336 243.53 108.031 243.469L107.921 244.022L107.811 244.575ZM311.879 243.575L311.753 243.025C311.008 243.196 310.266 243.365 309.526 243.532L309.65 244.082L309.775 244.632C310.515 244.464 311.258 244.295 312.005 244.125L311.879 243.575ZM305.246 245.064L305.125 244.514C303.635 244.842 302.156 245.162 300.689 245.476L300.807 246.027L300.925 246.578C302.394 246.265 303.875 245.943 305.368 245.615L305.246 245.064ZM296.388 246.956L296.274 246.404C294.785 246.712 293.308 247.012 291.841 247.305L291.952 247.858L292.062 248.411C293.531 248.118 295.011 247.817 296.502 247.508L296.388 246.956ZM287.502 248.729L287.396 248.175C285.907 248.46 284.43 248.738 282.963 249.007L283.065 249.562L283.166 250.116C284.637 249.846 286.117 249.568 287.608 249.282L287.502 248.729ZM278.607 250.361L278.51 249.805C277.012 250.067 275.524 250.321 274.047 250.565L274.139 251.122L274.231 251.678C275.712 251.433 277.203 251.179 278.704 250.916L278.607 250.361ZM269.677 251.839L269.59 251.282C268.092 251.516 266.604 251.741 265.124 251.956L265.206 252.514L265.287 253.072C266.77 252.856 268.262 252.631 269.764 252.397L269.677 251.839ZM260.716 253.145L260.64 252.587C259.138 252.79 257.645 252.983 256.159 253.168L256.229 253.727L256.298 254.287C257.788 254.102 259.285 253.908 260.791 253.704L260.716 253.145ZM251.741 254.258L251.678 253.698C250.172 253.867 248.673 254.027 247.181 254.177L247.237 254.738L247.294 255.299C248.791 255.148 250.294 254.988 251.804 254.818L251.741 254.258ZM242.728 255.164L242.679 254.602C241.173 254.735 239.673 254.858 238.177 254.971L238.219 255.533L238.262 256.095C239.762 255.982 241.268 255.859 242.778 255.725L242.728 255.164ZM233.708 255.845L233.673 255.282C232.165 255.377 230.661 255.461 229.159 255.536L229.187 256.099L229.215 256.662C230.722 256.587 232.231 256.503 233.743 256.408L233.708 255.845ZM224.665 256.293L224.644 255.73C223.138 255.784 221.633 255.829 220.129 255.863L220.142 256.427L220.155 256.991C221.664 256.956 223.174 256.911 224.685 256.856L224.665 256.293ZM215.617 256.501L215.612 255.937C214.106 255.952 212.6 255.956 211.093 255.951L211.091 256.515L211.089 257.078C212.601 257.084 214.112 257.079 215.623 257.065L215.617 256.501ZM206.566 256.469L206.576 255.905C205.073 255.88 203.568 255.845 202.06 255.8L202.043 256.364L202.026 256.928C203.539 256.972 205.049 257.007 206.557 257.032L206.566 256.469ZM197.519 256.201L197.543 255.638C196.041 255.575 194.536 255.502 193.025 255.419L192.994 255.982L192.964 256.545C194.479 256.628 195.989 256.701 197.495 256.765L197.519 256.201ZM188.482 255.709L188.519 255.147C187.024 255.047 185.522 254.939 184.014 254.821L183.97 255.383L183.927 255.946C185.439 256.063 186.945 256.172 188.445 256.272L188.482 255.709ZM179.457 255.007L179.507 254.445C178.013 254.312 176.511 254.171 175.002 254.02L174.946 254.582L174.89 255.143C176.404 255.293 177.909 255.435 179.407 255.568L179.457 255.007ZM170.453 254.112L170.515 253.551C169.027 253.388 167.53 253.217 166.024 253.038L165.958 253.598L165.891 254.158C167.4 254.337 168.9 254.509 170.392 254.672L170.453 254.112ZM161.456 253.042L161.527 252.482C160.045 252.293 158.554 252.095 157.052 251.89L156.976 252.449L156.9 253.008C158.404 253.213 159.899 253.411 161.384 253.601L161.456 253.042ZM152.499 251.82L152.58 251.262C151.096 251.048 149.602 250.826 148.097 250.598L148.012 251.155L147.927 251.713C149.435 251.942 150.932 252.164 152.419 252.378L152.499 251.82ZM143.544 250.461L143.633 249.905C142.158 249.67 140.673 249.43 139.176 249.182L139.084 249.739L138.992 250.295C140.491 250.543 141.979 250.784 143.456 251.018L143.544 250.461ZM134.605 248.985L134.7 248.429C133.231 248.178 131.749 247.92 130.256 247.656L130.158 248.211L130.06 248.767C131.555 249.031 133.038 249.289 134.51 249.541L134.605 248.985ZM125.705 247.413L125.806 246.858C124.33 246.59 122.841 246.315 121.341 246.036L121.237 246.59L121.134 247.144C122.636 247.424 124.126 247.699 125.604 247.968L125.705 247.413ZM116.81 245.754L116.916 245.2C115.443 244.919 113.957 244.632 112.46 244.34L112.352 244.894L112.244 245.447C113.743 245.739 115.23 246.026 116.704 246.308L116.81 245.754ZM107.921 244.022L108.031 243.469C107.287 243.321 106.539 243.172 105.789 243.022L105.678 243.575L105.568 244.128C106.318 244.278 107.066 244.427 107.811 244.575L107.921 244.022Z" fill="#FF8A7B"/>
<path d="M316.079 219.092C316.339 218.921 316.412 218.571 316.241 218.311L313.453 214.071C313.282 213.811 312.932 213.738 312.672 213.91C312.412 214.081 312.34 214.43 312.511 214.69L314.989 218.459L311.22 220.937C310.959 221.108 310.887 221.458 311.058 221.718C311.229 221.978 311.579 222.051 311.839 221.88L316.079 219.092ZM111.925 217.41C112.229 217.343 112.422 217.043 112.355 216.739C112.288 216.434 111.987 216.242 111.683 216.309L111.804 216.859L111.925 217.41ZM116.097 215.353C115.792 215.418 115.598 215.717 115.663 216.022C115.728 216.326 116.028 216.521 116.332 216.455L116.214 215.904L116.097 215.353ZM120.774 215.521C121.079 215.457 121.275 215.159 121.212 214.854C121.149 214.549 120.85 214.353 120.545 214.416L120.66 214.969L120.774 215.521ZM124.973 213.514C124.668 213.575 124.47 213.872 124.531 214.177C124.593 214.483 124.89 214.681 125.195 214.619L125.084 214.067L124.973 213.514ZM129.633 213.746C129.939 213.687 130.138 213.391 130.079 213.085C130.02 212.78 129.725 212.58 129.419 212.639L129.526 213.192L129.633 213.746ZM133.878 211.795C133.572 211.851 133.37 212.146 133.426 212.452C133.483 212.758 133.777 212.96 134.084 212.903L133.981 212.349L133.878 211.795ZM138.522 212.098C138.828 212.044 139.033 211.751 138.979 211.445C138.924 211.138 138.632 210.934 138.325 210.988L138.423 211.543L138.522 212.098ZM142.792 210.216C142.485 210.267 142.278 210.558 142.33 210.865C142.382 211.172 142.672 211.379 142.98 211.328L142.886 210.772L142.792 210.216ZM147.447 210.595C147.755 210.546 147.964 210.257 147.915 209.949C147.866 209.642 147.577 209.432 147.27 209.481L147.359 210.038L147.447 210.595ZM151.741 208.79C151.433 208.836 151.221 209.123 151.267 209.431C151.313 209.739 151.6 209.951 151.908 209.905L151.825 209.348L151.741 208.79ZM156.378 209.259C156.686 209.216 156.902 208.931 156.859 208.622C156.816 208.314 156.531 208.099 156.222 208.142L156.3 208.7L156.378 209.259ZM160.722 207.538C160.413 207.578 160.195 207.86 160.235 208.169C160.275 208.478 160.557 208.696 160.866 208.656L160.794 208.097L160.722 207.538ZM165.35 208.103C165.66 208.066 165.881 207.786 165.844 207.477C165.808 207.168 165.528 206.946 165.219 206.983L165.285 207.543L165.35 208.103ZM169.715 206.479C169.406 206.512 169.181 206.789 169.214 207.099C169.247 207.409 169.525 207.633 169.835 207.6L169.775 207.04L169.715 206.479ZM174.335 207.149C174.645 207.119 174.873 206.844 174.843 206.534C174.814 206.224 174.539 205.997 174.229 206.026L174.282 206.587L174.335 207.149ZM178.747 205.627C178.437 205.653 178.206 205.925 178.231 206.235C178.257 206.546 178.529 206.777 178.839 206.751L178.793 206.189L178.747 205.627ZM183.344 206.41C183.654 206.389 183.889 206.119 183.867 205.809C183.845 205.498 183.576 205.264 183.265 205.285L183.305 205.848L183.344 206.41ZM187.786 205.001C187.475 205.018 187.237 205.284 187.255 205.595C187.272 205.906 187.539 206.144 187.85 206.126L187.818 205.564L187.786 205.001ZM192.364 205.901C192.675 205.887 192.917 205.624 192.903 205.313C192.89 205.002 192.626 204.761 192.315 204.774L192.34 205.338L192.364 205.901ZM196.846 204.608C196.535 204.617 196.291 204.877 196.3 205.188C196.309 205.499 196.569 205.744 196.88 205.735L196.863 205.171L196.846 204.608ZM201.397 205.629C201.708 205.623 201.956 205.367 201.951 205.055C201.946 204.744 201.689 204.496 201.378 204.501L201.387 205.065L201.397 205.629ZM205.91 204.455C205.599 204.456 205.347 204.709 205.348 205.021C205.349 205.332 205.603 205.584 205.914 205.583L205.912 205.019L205.91 204.455ZM210.433 205.597C210.745 205.6 211 205.35 211.003 205.038C211.006 204.727 210.756 204.472 210.444 204.469L210.439 205.033L210.433 205.597ZM214.976 204.543C214.664 204.536 214.406 204.783 214.399 205.094C214.392 205.405 214.638 205.663 214.95 205.67L214.963 205.107L214.976 204.543ZM219.465 205.803C219.776 205.814 220.038 205.571 220.049 205.259C220.06 204.948 219.817 204.687 219.505 204.676L219.485 205.239L219.465 205.803ZM224.035 204.867C223.724 204.851 223.46 205.091 223.445 205.402C223.43 205.713 223.67 205.978 223.981 205.993L224.008 205.43L224.035 204.867ZM228.497 206.239C228.808 206.258 229.075 206.022 229.094 205.711C229.113 205.4 228.876 205.133 228.565 205.114L228.531 205.677L228.497 206.239ZM233.083 205.415C232.772 205.392 232.502 205.626 232.48 205.937C232.457 206.247 232.691 206.517 233.001 206.54L233.042 205.977L233.083 205.415ZM237.504 206.893C237.815 206.919 238.087 206.688 238.113 206.378C238.139 206.068 237.909 205.795 237.599 205.769L237.552 206.331L237.504 206.893ZM242.116 206.174C241.806 206.145 241.531 206.372 241.501 206.682C241.472 206.992 241.699 207.267 242.009 207.297L242.062 206.735L242.116 206.174ZM246.512 207.749C246.821 207.782 247.099 207.557 247.132 207.248C247.164 206.938 246.94 206.66 246.63 206.628L246.571 207.188L246.512 207.749ZM251.125 207.126C250.816 207.09 250.536 207.312 250.501 207.621C250.465 207.93 250.686 208.21 250.996 208.246L251.061 207.686L251.125 207.126ZM255.483 208.787C255.792 208.825 256.074 208.606 256.112 208.297C256.151 207.988 255.932 207.706 255.623 207.668L255.553 208.227L255.483 208.787ZM260.126 208.252C259.818 208.211 259.534 208.428 259.493 208.736C259.451 209.045 259.668 209.329 259.976 209.37L260.051 208.811L260.126 208.252ZM264.448 209.989C264.756 210.033 265.041 209.819 265.085 209.511C265.129 209.203 264.915 208.917 264.607 208.873L264.527 209.431L264.448 209.989ZM269.084 209.53C268.776 209.484 268.489 209.696 268.442 210.004C268.396 210.312 268.608 210.599 268.916 210.645L269 210.088L269.084 209.53ZM273.395 211.337C273.703 211.386 273.991 211.176 274.04 210.868C274.089 210.561 273.879 210.272 273.571 210.223L273.483 210.78L273.395 211.337ZM278.038 210.945C277.731 210.895 277.441 211.102 277.39 211.41C277.339 211.717 277.547 212.007 277.855 212.058L277.946 211.502L278.038 210.945ZM282.307 212.807C282.614 212.86 282.906 212.654 282.958 212.347C283.011 212.04 282.805 211.749 282.498 211.696L282.403 212.252L282.307 212.807ZM286.975 212.478C286.668 212.423 286.376 212.627 286.321 212.934C286.267 213.241 286.471 213.533 286.778 213.588L286.876 213.033L286.975 212.478ZM291.217 214.388C291.523 214.444 291.817 214.242 291.873 213.935C291.929 213.629 291.726 213.335 291.42 213.279L291.318 213.834L291.217 214.388ZM295.871 214.105C295.565 214.048 295.27 214.249 295.212 214.555C295.155 214.861 295.356 215.156 295.662 215.214L295.766 214.66L295.871 214.105ZM300.122 216.064C300.428 216.123 300.724 215.923 300.783 215.617C300.842 215.311 300.642 215.016 300.336 214.957L300.229 215.51L300.122 216.064ZM304.76 215.82C304.455 215.76 304.158 215.959 304.098 216.264C304.038 216.57 304.237 216.866 304.542 216.926L304.651 216.373L304.76 215.82ZM308.993 217.813C309.298 217.875 309.595 217.677 309.657 217.372C309.718 217.067 309.521 216.769 309.215 216.708L309.104 217.261L308.993 217.813ZM313.643 217.607C313.338 217.545 313.04 217.742 312.977 218.047C312.915 218.352 313.111 218.65 313.416 218.712L313.53 218.16L313.643 217.607ZM109.573 217.353L109.695 217.903C110.442 217.737 111.185 217.573 111.925 217.41L111.804 216.859L111.683 216.309C110.942 216.471 110.198 216.636 109.45 216.802L109.573 217.353ZM116.214 215.904L116.332 216.455C117.825 216.137 119.305 215.825 120.774 215.521L120.66 214.969L120.545 214.416C119.074 214.721 117.591 215.033 116.097 215.353L116.214 215.904ZM125.084 214.067L125.195 214.619C126.686 214.321 128.165 214.03 129.633 213.746L129.526 213.192L129.419 212.639C127.948 212.923 126.467 213.215 124.973 213.514L125.084 214.067ZM133.981 212.349L134.084 212.903C135.574 212.627 137.053 212.359 138.522 212.098L138.423 211.543L138.325 210.988C136.853 211.249 135.371 211.518 133.878 211.795L133.981 212.349ZM142.886 210.772L142.98 211.328C144.479 211.075 145.968 210.831 147.447 210.595L147.359 210.038L147.27 209.481C145.787 209.718 144.295 209.962 142.792 210.216L142.886 210.772ZM151.825 209.348L151.908 209.905C153.407 209.681 154.897 209.465 156.378 209.259L156.3 208.7L156.222 208.142C154.738 208.349 153.244 208.565 151.741 208.79L151.825 209.348ZM160.794 208.097L160.866 208.656C162.369 208.462 163.863 208.278 165.35 208.103L165.285 207.543L165.219 206.983C163.727 207.159 162.229 207.343 160.722 207.538L160.794 208.097ZM169.775 207.04L169.835 207.6C171.341 207.44 172.841 207.29 174.335 207.149L174.282 206.587L174.229 206.026C172.731 206.167 171.227 206.318 169.715 206.479L169.775 207.04ZM178.793 206.189L178.839 206.751C180.346 206.628 181.847 206.514 183.344 206.41L183.305 205.848L183.265 205.285C181.764 205.389 180.258 205.503 178.747 205.627L178.793 206.189ZM187.818 205.564L187.85 206.126C189.358 206.041 190.862 205.966 192.364 205.901L192.34 205.338L192.315 204.774C190.808 204.84 189.299 204.915 187.786 205.001L187.818 205.564ZM196.863 205.171L196.88 205.735C198.387 205.689 199.892 205.654 201.397 205.629L201.387 205.065L201.378 204.501C199.868 204.527 198.358 204.562 196.846 204.608L196.863 205.171ZM205.912 205.019L205.914 205.583C207.42 205.577 208.926 205.582 210.433 205.597L210.439 205.033L210.444 204.469C208.932 204.454 207.421 204.45 205.91 204.455L205.912 205.019ZM214.963 205.107L214.95 205.67C216.452 205.705 217.957 205.749 219.465 205.803L219.485 205.239L219.505 204.676C217.993 204.622 216.483 204.577 214.976 204.543L214.963 205.107ZM224.008 205.43L223.981 205.993C225.482 206.066 226.987 206.148 228.497 206.239L228.531 205.677L228.565 205.114C227.051 205.022 225.541 204.939 224.035 204.867L224.008 205.43ZM233.042 205.977L233.001 206.54C234.496 206.648 235.997 206.766 237.504 206.893L237.552 206.331L237.599 205.769C236.087 205.642 234.582 205.524 233.083 205.415L233.042 205.977ZM242.062 206.735L242.009 207.297C243.502 207.439 245.003 207.59 246.512 207.749L246.571 207.188L246.63 206.628C245.118 206.468 243.613 206.317 242.116 206.174L242.062 206.735ZM251.061 207.686L250.996 208.246C252.483 208.418 253.978 208.598 255.483 208.787L255.553 208.227L255.623 207.668C254.115 207.479 252.616 207.298 251.125 207.126L251.061 207.686ZM260.051 208.811L259.976 209.37C261.457 209.569 262.947 209.775 264.448 209.989L264.527 209.431L264.607 208.873C263.104 208.659 261.61 208.452 260.126 208.252L260.051 208.811ZM269 210.088L268.916 210.645C270.398 210.869 271.891 211.099 273.395 211.337L273.483 210.78L273.571 210.223C272.065 209.985 270.569 209.754 269.084 209.53L269 210.088ZM277.946 211.502L277.855 212.058C279.328 212.301 280.812 212.551 282.307 212.807L282.403 212.252L282.498 211.696C281 211.439 279.514 211.189 278.038 210.945L277.946 211.502ZM286.876 213.033L286.778 213.588C288.246 213.848 289.726 214.115 291.217 214.388L291.318 213.834L291.42 213.279C289.927 213.006 288.445 212.739 286.975 212.478L286.876 213.033ZM295.766 214.66L295.662 215.214C297.137 215.491 298.624 215.775 300.122 216.064L300.229 215.51L300.336 214.957C298.836 214.667 297.347 214.383 295.871 214.105L295.766 214.66ZM304.651 216.373L304.542 216.926C306.014 217.217 307.497 217.512 308.993 217.813L309.104 217.261L309.215 216.708C307.718 216.407 306.233 216.111 304.76 215.82L304.651 216.373ZM313.53 218.16L313.416 218.712C314.16 218.864 314.906 219.018 315.655 219.173L315.77 218.621L315.884 218.069C315.134 217.914 314.387 217.76 313.643 217.607L313.53 218.16Z" fill="#FF8A7B"/>
<path d="M45.5912 103.933C45.5467 103.625 45.2608 103.411 44.9526 103.455L39.9302 104.18C39.622 104.225 39.4082 104.51 39.4527 104.819C39.4971 105.127 39.783 105.341 40.0912 105.296L44.5556 104.652L45.1999 109.116C45.2444 109.425 45.5303 109.638 45.8385 109.594C46.1467 109.549 46.3604 109.263 46.316 108.955L45.5912 103.933ZM42.2345 181.312C42.186 181.005 41.8973 180.795 41.5897 180.843C41.2821 180.892 41.0721 181.181 41.1207 181.488L41.6776 181.4L42.2345 181.312ZM40.4332 177.007C40.4789 177.315 40.7657 177.528 41.0737 177.482C41.3817 177.437 41.5944 177.15 41.5487 176.842L40.9909 176.925L40.4332 177.007ZM40.9135 172.389C40.8713 172.081 40.587 171.865 40.2785 171.907C39.97 171.949 39.7541 172.233 39.7963 172.542L40.3549 172.466L40.9135 172.389ZM39.2121 168.062C39.2504 168.371 39.5319 168.59 39.8409 168.552C40.15 168.514 40.3695 168.232 40.3312 167.923L39.7716 167.993L39.2121 168.062ZM39.8089 163.461C39.7748 163.152 39.4963 162.928 39.1868 162.963C38.8772 162.997 38.6539 163.275 38.688 163.585L39.2484 163.523L39.8089 163.461ZM38.227 159.089C38.2564 159.399 38.5315 159.627 38.8416 159.597C39.1516 159.568 39.379 159.293 39.3496 158.983L38.7883 159.036L38.227 159.089ZM38.9611 154.498C38.9368 154.187 38.6654 153.955 38.355 153.98C38.0445 154.004 37.8126 154.275 37.8368 154.586L38.3989 154.542L38.9611 154.498ZM37.5255 150.079C37.544 150.39 37.811 150.627 38.1219 150.608C38.4327 150.59 38.6697 150.323 38.6511 150.012L38.0883 150.045L37.5255 150.079ZM38.4288 145.519C38.4167 145.208 38.1546 144.966 37.8435 144.978C37.5323 144.99 37.2899 145.252 37.302 145.563L37.8654 145.541L38.4288 145.519ZM37.1785 141.042C37.1833 141.354 37.4395 141.602 37.7509 141.598C38.0622 141.593 38.3108 141.337 38.3061 141.025L37.7423 141.034L37.1785 141.042ZM38.2977 136.533C38.3015 136.222 38.0521 135.966 37.7408 135.963C37.4294 135.959 37.1739 136.208 37.1701 136.52L37.7339 136.526L38.2977 136.533ZM37.2963 131.992C37.2825 132.303 37.5234 132.566 37.8345 132.58C38.1456 132.594 38.409 132.353 38.4229 132.042L37.8596 132.017L37.2963 131.992ZM38.7061 127.57C38.732 127.259 38.5015 126.987 38.1912 126.961C37.8808 126.935 37.6083 127.165 37.5824 127.476L38.1443 127.523L38.7061 127.57ZM38.0646 122.96C38.0238 123.268 38.2411 123.552 38.5498 123.592C38.8585 123.633 39.1418 123.416 39.1825 123.107L38.6235 123.033L38.0646 122.96ZM39.8963 118.693C39.9558 118.387 39.7561 118.091 39.4505 118.032C39.1448 117.972 38.8488 118.172 38.7894 118.478L39.3429 118.585L39.8963 118.693ZM39.8255 114.053C39.7419 114.353 39.9173 114.664 40.2172 114.747C40.5172 114.831 40.8281 114.656 40.9118 114.356L40.3687 114.204L39.8255 114.053ZM42.3268 110.138C42.4429 109.849 42.3027 109.521 42.0137 109.405C41.7247 109.289 41.3964 109.429 41.2804 109.718L41.8036 109.928L42.3268 110.138ZM43.2996 105.595C43.1399 105.863 43.2271 106.209 43.4944 106.369C43.7617 106.528 44.1079 106.441 44.2676 106.174L43.7836 105.885L43.2996 105.595ZM42.0285 183.603L42.5852 183.514C42.4803 182.859 42.3625 182.123 42.2345 181.312L41.6776 181.4L41.1207 181.488C41.2488 182.3 41.3669 183.037 41.4718 183.692L42.0285 183.603ZM40.9909 176.925L41.5487 176.842C41.3441 175.463 41.13 173.973 40.9135 172.389L40.3549 172.466L39.7963 172.542C40.0134 174.13 40.2281 175.625 40.4332 177.007L40.9909 176.925ZM39.7716 167.993L40.3312 167.923C40.153 166.486 39.9776 164.995 39.8089 163.461L39.2484 163.523L38.688 163.585C38.8573 165.124 39.0333 166.619 39.2121 168.062L39.7716 167.993ZM38.7883 159.036L39.3496 158.983C39.2102 157.513 39.0797 156.015 38.9611 154.498L38.3989 154.542L37.8368 154.586C37.956 156.11 38.0871 157.614 38.227 159.089L38.7883 159.036ZM38.0883 150.045L38.6511 150.012C38.5623 148.523 38.4873 147.023 38.4288 145.519L37.8654 145.541L37.302 145.563C37.3608 147.076 37.4362 148.583 37.5255 150.079L38.0883 150.045ZM37.7423 141.034L38.3061 141.025C38.2832 139.523 38.2795 138.023 38.2977 136.533L37.7339 136.526L37.1701 136.52C37.1518 138.021 37.1555 139.531 37.1785 141.042L37.7423 141.034ZM37.8596 132.017L38.4229 132.042C38.4902 130.531 38.5836 129.038 38.7061 127.57L38.1443 127.523L37.5824 127.476C37.4585 128.96 37.3642 130.467 37.2963 131.992L37.8596 132.017ZM38.6235 123.033L39.1825 123.107C39.3823 121.594 39.619 120.119 39.8963 118.693L39.3429 118.585L38.7894 118.478C38.5073 119.929 38.267 121.426 38.0646 122.96L38.6235 123.033ZM40.3687 114.204L40.9118 114.356C41.3259 112.87 41.796 111.46 42.3268 110.138L41.8036 109.928L41.2804 109.718C40.7322 111.083 40.2492 112.533 39.8255 114.053L40.3687 114.204ZM43.7836 105.885L44.2676 106.174C44.6517 105.531 45.0571 104.923 45.4847 104.351L45.0332 104.013L44.5816 103.676C44.1291 104.281 43.7022 104.922 43.2996 105.595L43.7836 105.885Z" fill="#FF8A7B"/>
<path d="M373.866 106.887C373.91 106.579 374.196 106.365 374.504 106.409L379.527 107.134C379.835 107.179 380.049 107.465 380.004 107.773C379.96 108.081 379.674 108.295 379.366 108.25L374.901 107.606L374.257 112.07C374.213 112.379 373.927 112.592 373.619 112.548C373.31 112.503 373.097 112.218 373.141 111.909L373.866 106.887ZM377.222 184.267C377.271 183.959 377.56 183.749 377.867 183.798C378.175 183.846 378.385 184.135 378.336 184.442L377.779 184.354L377.222 184.267ZM379.024 179.961C378.978 180.269 378.691 180.482 378.383 180.436C378.075 180.391 377.863 180.104 377.908 179.796L378.466 179.879L379.024 179.961ZM378.544 175.343C378.586 175.035 378.87 174.819 379.179 174.861C379.487 174.903 379.703 175.187 379.661 175.496L379.102 175.42L378.544 175.343ZM380.245 171.016C380.207 171.325 379.925 171.545 379.616 171.506C379.307 171.468 379.088 171.186 379.126 170.877L379.685 170.947L380.245 171.016ZM379.648 166.415C379.682 166.106 379.961 165.883 380.27 165.917C380.58 165.951 380.803 166.229 380.769 166.539L380.209 166.477L379.648 166.415ZM381.23 162.043C381.201 162.353 380.925 162.581 380.615 162.551C380.305 162.522 380.078 162.247 380.107 161.937L380.669 161.99L381.23 162.043ZM380.496 157.452C380.52 157.142 380.792 156.91 381.102 156.934C381.412 156.958 381.644 157.229 381.62 157.54L381.058 157.496L380.496 157.452ZM381.932 153.033C381.913 153.344 381.646 153.581 381.335 153.562C381.024 153.544 380.787 153.277 380.806 152.966L381.369 153L381.932 153.033ZM381.028 148.473C381.04 148.162 381.302 147.92 381.614 147.932C381.925 147.944 382.167 148.206 382.155 148.517L381.592 148.495L381.028 148.473ZM382.279 143.996C382.274 144.308 382.018 144.556 381.706 144.552C381.395 144.547 381.146 144.291 381.151 143.979L381.715 143.988L382.279 143.996ZM381.159 139.487C381.156 139.176 381.405 138.92 381.716 138.917C382.028 138.913 382.283 139.162 382.287 139.474L381.723 139.48L381.159 139.487ZM382.161 134.946C382.175 135.257 381.934 135.52 381.622 135.534C381.311 135.548 381.048 135.307 381.034 134.996L381.597 134.971L382.161 134.946ZM380.751 130.524C380.725 130.213 380.956 129.941 381.266 129.915C381.576 129.889 381.849 130.12 381.875 130.43L381.313 130.477L380.751 130.524ZM381.392 125.914C381.433 126.222 381.216 126.506 380.907 126.547C380.599 126.587 380.315 126.37 380.275 126.061L380.833 125.988L381.392 125.914ZM379.561 121.647C379.501 121.341 379.701 121.045 380.007 120.986C380.312 120.926 380.608 121.126 380.668 121.432L380.114 121.539L379.561 121.647ZM379.631 117.007C379.715 117.307 379.54 117.618 379.24 117.701C378.94 117.785 378.629 117.61 378.545 117.31L379.088 117.158L379.631 117.007ZM377.13 113.092C377.014 112.803 377.154 112.475 377.443 112.359C377.732 112.243 378.061 112.383 378.177 112.672L377.653 112.882L377.13 113.092ZM376.157 108.549C376.317 108.817 376.23 109.163 375.963 109.323C375.695 109.482 375.349 109.395 375.189 109.128L375.673 108.839L376.157 108.549ZM377.429 186.557L376.872 186.468C376.977 185.813 377.095 185.077 377.222 184.267L377.779 184.354L378.336 184.442C378.208 185.254 378.09 185.991 377.985 186.646L377.429 186.557ZM378.466 179.879L377.908 179.796C378.113 178.417 378.327 176.927 378.544 175.343L379.102 175.42L379.661 175.496C379.444 177.084 379.229 178.579 379.024 179.961L378.466 179.879ZM379.685 170.947L379.126 170.877C379.304 169.44 379.479 167.949 379.648 166.415L380.209 166.477L380.769 166.539C380.6 168.078 380.424 169.574 380.245 171.016L379.685 170.947ZM380.669 161.99L380.107 161.937C380.247 160.467 380.377 158.97 380.496 157.452L381.058 157.496L381.62 157.54C381.501 159.064 381.37 160.568 381.23 162.043L380.669 161.99ZM381.369 153L380.806 152.966C380.895 151.477 380.97 149.978 381.028 148.473L381.592 148.495L382.155 148.517C382.096 150.03 382.021 151.537 381.932 153.033L381.369 153ZM381.715 143.988L381.151 143.979C381.174 142.477 381.178 140.978 381.159 139.487L381.723 139.48L382.287 139.474C382.305 140.975 382.301 142.485 382.279 143.996L381.715 143.988ZM381.597 134.971L381.034 134.996C380.967 133.485 380.873 131.992 380.751 130.524L381.313 130.477L381.875 130.43C381.999 131.914 382.093 133.422 382.161 134.946L381.597 134.971ZM380.833 125.988L380.275 126.061C380.075 124.548 379.838 123.074 379.561 121.647L380.114 121.539L380.668 121.432C380.95 122.883 381.19 124.38 381.392 125.914L380.833 125.988ZM379.088 117.158L378.545 117.31C378.131 115.824 377.661 114.414 377.13 113.092L377.653 112.882L378.177 112.672C378.725 114.037 379.208 115.487 379.631 117.007L379.088 117.158ZM375.673 108.839L375.189 109.128C374.805 108.485 374.4 107.877 373.972 107.305L374.424 106.967L374.875 106.63C375.328 107.235 375.755 107.876 376.157 108.549L375.673 108.839Z" fill="#FF8A7B"/>
<path d="M362.737 184.869C362.715 185.179 362.446 185.414 362.135 185.392L357.073 185.04C356.762 185.018 356.528 184.749 356.55 184.438C356.571 184.128 356.841 183.893 357.151 183.915L361.651 184.228L361.964 179.728C361.986 179.418 362.255 179.183 362.566 179.205C362.876 179.227 363.111 179.496 363.089 179.807L362.737 184.869ZM353.68 107.948C353.655 108.258 353.382 108.489 353.072 108.463C352.762 108.437 352.531 108.165 352.557 107.854L353.119 107.901L353.68 107.948ZM352.202 112.374C352.224 112.064 352.495 111.83 352.805 111.853C353.116 111.876 353.349 112.146 353.326 112.457L352.764 112.415L352.202 112.374ZM353.021 116.944C353.002 117.255 352.734 117.491 352.424 117.472C352.113 117.453 351.877 117.185 351.896 116.874L352.459 116.909L353.021 116.944ZM351.644 121.385C351.659 121.074 351.924 120.834 352.235 120.85C352.546 120.865 352.785 121.13 352.77 121.441L352.207 121.413L351.644 121.385ZM352.578 125.929C352.567 126.24 352.306 126.484 351.995 126.472C351.684 126.461 351.44 126.2 351.451 125.889L352.015 125.909L352.578 125.929ZM351.323 130.406C351.33 130.095 351.587 129.847 351.899 129.854C352.21 129.86 352.457 130.118 352.451 130.429L351.887 130.418L351.323 130.406ZM352.394 134.931C352.393 135.242 352.139 135.493 351.828 135.492C351.517 135.491 351.265 135.237 351.267 134.926L351.83 134.928L352.394 134.931ZM351.289 139.443C351.284 139.132 351.533 138.876 351.844 138.872C352.156 138.867 352.412 139.116 352.416 139.427L351.852 139.435L351.289 139.443ZM352.526 143.924C352.537 144.235 352.293 144.497 351.982 144.507C351.671 144.518 351.41 144.275 351.399 143.964L351.962 143.944L352.526 143.924ZM351.609 148.481C351.591 148.17 351.828 147.903 352.139 147.885C352.45 147.867 352.717 148.104 352.735 148.415L352.172 148.448L351.609 148.481ZM353.058 152.895C353.085 153.206 352.855 153.479 352.545 153.506C352.234 153.532 351.961 153.302 351.935 152.992L352.496 152.944L353.058 152.895ZM352.394 157.498C352.358 157.189 352.579 156.909 352.888 156.872C353.197 156.835 353.477 157.056 353.514 157.365L352.954 157.432L352.394 157.498ZM354.127 161.804C354.175 162.112 353.966 162.401 353.658 162.45C353.35 162.498 353.062 162.288 353.013 161.981L353.57 161.893L354.127 161.804ZM353.827 166.449C353.764 166.144 353.959 165.846 354.264 165.782C354.569 165.719 354.868 165.915 354.931 166.219L354.379 166.334L353.827 166.449ZM355.969 170.569C356.05 170.87 355.873 171.179 355.573 171.261C355.272 171.343 354.962 171.166 354.88 170.865L355.425 170.717L355.969 170.569ZM356.24 175.202C356.135 174.909 356.287 174.586 356.58 174.48C356.873 174.375 357.196 174.527 357.301 174.82L356.771 175.011L356.24 175.202ZM359.024 178.921C359.161 179.201 359.045 179.539 358.765 179.676C358.486 179.813 358.148 179.697 358.011 179.418L358.517 179.169L359.024 178.921ZM360.329 183.38C360.15 183.125 360.211 182.773 360.466 182.594C360.721 182.415 361.072 182.477 361.252 182.732L360.79 183.056L360.329 183.38ZM353.306 105.679L353.868 105.727C353.811 106.388 353.748 107.13 353.68 107.948L353.119 107.901L352.557 107.854C352.625 107.036 352.688 106.292 352.744 105.631L353.306 105.679ZM352.764 112.415L353.326 112.457C353.224 113.847 353.12 115.349 353.021 116.944L352.459 116.909L351.896 116.874C351.995 115.274 352.099 113.768 352.202 112.374L352.764 112.415ZM352.207 121.413L352.77 121.441C352.698 122.888 352.633 124.387 352.578 125.929L352.015 125.909L351.451 125.889C351.507 124.342 351.572 122.837 351.644 121.385L352.207 121.413ZM351.887 130.418L352.451 130.429C352.42 131.905 352.401 133.409 352.394 134.931L351.83 134.928L351.267 134.926C351.273 133.397 351.293 131.888 351.323 130.406L351.887 130.418ZM351.852 139.435L352.416 139.427C352.437 140.918 352.473 142.42 352.526 143.924L351.962 143.944L351.399 143.964C351.346 142.451 351.31 140.942 351.289 139.443L351.852 139.435ZM352.172 148.448L352.735 148.415C352.823 149.915 352.93 151.411 353.058 152.895L352.496 152.944L351.935 152.992C351.806 151.496 351.698 149.99 351.609 148.481L352.172 148.448ZM352.954 157.432L353.514 157.365C353.693 158.867 353.896 160.349 354.127 161.804L353.57 161.893L353.013 161.981C352.78 160.51 352.575 159.013 352.394 157.498L352.954 157.432ZM354.379 166.334L354.931 166.219C355.242 167.714 355.587 169.167 355.969 170.569L355.425 170.717L354.88 170.865C354.492 169.439 354.142 167.964 353.827 166.449L354.379 166.334ZM356.771 175.011L357.301 174.82C357.824 176.27 358.397 177.642 359.024 178.921L358.517 179.169L358.011 179.418C357.363 178.096 356.775 176.686 356.24 175.202L356.771 175.011ZM360.79 183.056L361.252 182.732C361.682 183.344 362.131 183.921 362.6 184.46L362.174 184.83L361.749 185.2C361.253 184.63 360.78 184.022 360.329 183.38L360.79 183.056Z" fill="#FF8A7B"/>
</svg>
