<svg aria-hidden="true" width="443" height="289" viewBox="0 0 443 289" fill="none" xmlns="http://www.w3.org/2000/svg">
<rect x="26.4727" y="206.271" width="82.729" height="82.729" rx="8.82443" fill="#EEF2FF"/>
<g clip-path="url(#clip0_6948_4210)">
<path d="M70.4032 264.598L59.2904 262.913C58.8611 262.848 58.6296 262.493 58.5872 262.157C58.5334 261.728 58.7427 261.353 59.1835 261.214L68.7382 259.333L68.7788 255.233L62.6116 254.659L45.9931 253C45.6477 252.966 45.3995 252.653 45.3015 252.445C45.1495 252.122 45.2317 251.755 45.4251 251.45L49.0272 245.764L53.1726 239.36L58.1085 231.682C58.2834 231.409 58.5669 231.147 58.8902 231.14L62.6469 231.061L67.9944 230.949L71.2998 230.889L89.6416 230.539C90.2413 230.528 90.5258 231.305 90.4268 231.759C90.2961 232.357 90.0611 232.79 89.8288 233.342L86.4078 241.48L87.4987 245.684C87.5764 245.985 87.5693 246.22 87.4404 246.525L83.4991 255.87C83.1687 256.654 82.205 256.891 81.4339 256.765L73.0461 255.926L73.7377 259.702L80.5321 261.038C81.0559 261.097 81.38 261.495 81.38 261.936C81.38 262.496 81.0143 262.776 80.472 262.895L72.2838 264.668C71.6522 264.805 71.1072 264.705 70.4032 264.598ZM81.668 237.871L85.5218 237.935L87.9262 232.5L78.8184 232.661L76.4326 237.74L81.668 237.871ZM74.2102 237.815L75.968 234.136L76.6022 232.703L68.7497 232.752L66.045 237.634L69.8653 237.738L74.2094 237.815H74.2102ZM59.1861 237.6L63.8093 237.657L66.6589 232.8L59.4387 232.898L56.5777 237.536C57.522 237.551 58.3196 237.535 59.1861 237.6V237.6ZM62.8094 239.487L59.5545 239.401L55.372 239.283L52.3529 244.099L59.9917 244.481L62.8094 239.488V239.487ZM73.2395 239.719L67.1076 239.615L64.8746 239.57L62.1699 244.619L70.5693 245.052L73.2404 239.72L73.2395 239.719ZM84.6235 239.93L81.5161 239.856L77.3371 239.765L75.4018 239.732L72.766 245.149L77.4599 245.42L82.1971 245.646L84.6226 239.931L84.6235 239.93ZM81.8411 254.667L85.3849 246.052L85.0457 244.691L83.9266 247.342L80.9454 254.582L81.8411 254.667ZM55.8508 251.863L58.7895 246.378L51.1224 245.901L47.848 251.169L55.8508 251.863ZM66.8885 252.81L69.6621 247.039L60.9024 246.524L58.0361 252.028L66.8885 252.809V252.81ZM81.3306 247.665L79.4924 247.557L71.8633 247.099L69.1109 252.972L78.7142 253.945L81.3306 247.664V247.665Z" fill="#4F46E5"/>
</g>
<rect x="329.812" width="82.729" height="82.729" rx="8.82443" fill="#EEF2FF"/>
<path d="M352.108 55.5621C350.28 53.7348 349.254 51.2565 349.254 48.6723C349.254 46.4603 350.006 44.3141 351.387 42.5864C352.768 40.8586 354.696 39.652 356.854 39.165C356.483 37.5877 356.431 35.9524 356.7 34.3548C356.97 32.7571 357.555 31.2292 358.421 29.8604C359.288 28.4915 360.419 27.3093 361.748 26.3829C363.077 25.4564 364.578 24.8044 366.162 24.4649C367.746 24.1254 369.382 24.1052 370.974 24.4056C372.567 24.7059 374.083 25.3208 375.434 26.2142C376.786 27.1076 377.946 28.2616 378.846 29.6086C379.746 30.9557 380.369 32.4688 380.677 34.0593C382.287 34.0271 383.886 34.3142 385.384 34.9041C386.882 35.494 388.248 36.3749 389.403 37.4959C390.558 38.617 391.479 39.9559 392.114 41.4352C392.749 42.9145 393.084 44.505 393.1 46.1146C393.116 47.7242 392.813 49.321 392.208 50.8128C391.603 52.3045 390.708 53.6616 389.576 54.8055C388.443 55.9494 387.095 56.8574 385.61 57.4771C384.124 58.0969 382.53 58.416 380.921 58.416H358.998C356.413 58.416 353.935 57.3894 352.108 55.5621Z" stroke="#4F46E5" stroke-width="3.30916" stroke-linecap="round" stroke-linejoin="round"/>
<rect x="26.4727" width="82.729" height="82.729" rx="8.82443" fill="#EEF2FF"/>
<path d="M68.5216 15.4672C69.4198 15.6509 70.0401 16.3856 70.2325 17.2836L70.9811 21.1L72.3927 28.3248C72.5851 29.4677 72.3927 30.5698 71.8152 31.5698L70.4464 33.9985C71.2377 34.7128 71.6869 35.672 71.7297 36.7129L73.9325 36.8558C75.0019 36.917 75.9643 37.3456 76.777 37.9987L77.6967 38.8354L79.7071 40.7131L81.9955 42.8356L84.2197 44.9173L85.503 46.1214C85.7382 46.3459 85.8666 46.6316 85.9735 46.9378C86.0645 47.2819 86.0529 47.7835 85.9735 48.1827C85.6099 49.346 84.1556 49.8971 83.0648 49.4481L72.5424 45.0397C71.6227 44.652 70.8742 44.1213 70.2539 43.3254L71.0666 52.4074L72.2429 65.714C72.3071 66.4691 71.8368 67.2855 71.1736 67.2855C70.5104 67.2855 65.2012 67.2864 64.8366 67.2855C64.472 67.2846 63.9032 66.644 63.9447 65.8365C63.9862 65.0289 65.4418 42.4682 65.4418 42.4682C64.7788 43.6111 63.795 44.3254 62.5759 44.8357L52.6951 49.0603C52.0321 49.346 51.3477 49.2848 50.7061 48.9379C49.8429 48.4574 49.6367 47.6929 49.6367 46.8153C49.6367 46.5272 49.872 46.0602 50.2142 45.7336L56.502 39.6926L58.491 37.7946C59.3679 37.019 60.4586 36.5904 61.6777 36.5088L64.2228 36.3455C64.3939 35.2435 64.9499 34.3251 65.891 33.6924L64.5436 31.5086C63.9447 30.529 63.6239 29.4269 63.795 28.2636L64.458 24.6716L65.891 17.1611C66.0621 16.3039 66.6609 15.6713 67.5592 15.4876C67.837 15.4546 68.1601 15.4161 68.5216 15.4672ZM69.0563 33.2434L70.4036 30.8555C70.8528 30.0596 70.9597 29.2432 70.7886 28.3656L68.6071 17.3448C68.543 17.0387 68.2008 16.9366 67.9655 16.9774C67.7303 17.0183 67.5164 17.1611 67.4522 17.4468L65.4204 28.0187C65.228 28.9779 65.3135 29.8555 65.8482 30.6718L67.3667 33.1209C67.9441 33.0597 68.5002 33.0393 69.0776 33.2434H69.0563ZM68.9921 38.7538C70.2967 38.0191 70.5106 36.3047 69.484 35.2435C68.7354 34.4679 67.5378 34.3455 66.6395 35.019C66.0193 35.468 65.7199 36.2027 65.7626 36.9374C65.8054 37.6313 66.169 38.3048 66.8106 38.6926C67.495 39.1212 68.2863 39.1416 68.9921 38.7334V38.7538ZM52.0962 47.6521L62.5118 43.1621C63.1748 42.8764 63.6881 42.3458 64.0089 41.7539L65.228 39.3865C64.8002 38.9171 64.5008 38.4272 64.3297 37.8354L62.0413 37.9783C61.143 37.9783 60.2447 38.2436 59.6031 38.8558L58.0633 40.3049L57.4003 40.9375L51.3477 46.7337C51.1338 46.9378 51.198 47.3051 51.3477 47.4684C51.5402 47.6929 51.8182 47.7337 52.1176 47.6113L52.0962 47.6521ZM83.1932 46.0398L81.0758 44.0805L78.9585 42.1009L76.7342 40.0396L75.7077 39.1007C75.0447 38.5905 74.2106 38.3456 73.3551 38.3252L71.4516 38.2232C71.1736 38.8762 70.7458 39.4477 70.147 39.8559L71.3661 42.1621C71.7724 42.8152 72.3285 43.2642 73.0557 43.5703L83.6423 48.0399C83.9203 48.1623 84.2197 48.0807 84.3695 47.8766C84.5192 47.6929 84.6047 47.3664 84.3695 47.1623L83.1932 46.0398ZM70.6389 65.7956L69.3771 51.4277L68.4146 40.5498C67.9655 40.611 67.5378 40.5498 67.11 40.4886L66.4684 50.6726L65.506 65.8365H70.6389V65.7956Z" fill="#4F46E5" stroke="#4F46E5" stroke-width="1.10305"/>
<rect x="329.812" y="206.271" width="82.729" height="82.729" rx="8.82443" fill="#EEF2FF"/>
<path d="M349.254 237.893L368.473 250.706C369.274 251.24 370.215 251.525 371.177 251.525C372.14 251.525 373.08 251.24 373.881 250.706L393.1 237.893M354.126 264.688H388.228C389.521 264.688 390.76 264.174 391.673 263.261C392.587 262.347 393.1 261.108 393.1 259.816V235.457C393.1 234.165 392.587 232.926 391.673 232.012C390.76 231.098 389.521 230.585 388.228 230.585H354.126C352.834 230.585 351.594 231.098 350.681 232.012C349.767 232.926 349.254 234.165 349.254 235.457V259.816C349.254 261.108 349.767 262.347 350.681 263.261C351.594 264.174 352.834 264.688 354.126 264.688Z" stroke="#4F46E5" stroke-width="3.30916" stroke-linecap="round" stroke-linejoin="round"/>
<rect x="359.594" y="103.688" width="82.729" height="82.729" rx="8.82443" fill="#EEF2FF"/>
<path d="M410.7 135.308V154.795M400.956 142.616V154.795M391.212 149.924V154.795M386.341 164.539H415.571C416.864 164.539 418.103 164.026 419.016 163.112C419.93 162.198 420.443 160.959 420.443 159.667V130.436C420.443 129.144 419.93 127.905 419.016 126.991C418.103 126.078 416.864 125.564 415.571 125.564H386.341C385.048 125.564 383.809 126.078 382.896 126.991C381.982 127.905 381.469 129.144 381.469 130.436V159.667C381.469 160.959 381.982 162.198 382.896 163.112C383.809 164.026 385.048 164.539 386.341 164.539Z" stroke="#4F46E5" stroke-width="3.30916" stroke-linecap="round" stroke-linejoin="round"/>
<rect y="103.688" width="82.729" height="82.729" rx="8.82443" fill="#EEF2FF"/>
<path d="M42.1966 138.729V144.227H47.6937L40.626 152.865V147.368H35.1289L42.1966 138.729Z" stroke="#4F46E5" stroke-width="2.20611" stroke-linecap="round" stroke-linejoin="round"/>
<rect x="28.6812" y="127.836" width="25.3702" height="34.1947" rx="3.30916" stroke="#4F46E5" stroke-width="2.20611"/>
<rect x="1.10305" y="-1.10305" width="11.0305" height="5.51527" rx="1.10305" transform="matrix(1 0 0 -1 35.2969 126.733)" stroke="#4F46E5" stroke-width="2.20611"/>
<rect x="1.10305" y="-1.10305" width="11.0305" height="5.51527" rx="1.10305" transform="matrix(1 0 0 -1 35.2969 166.68)" stroke="#4F46E5" stroke-width="2.20611"/>
<path d="M117.005 49.5369C116.704 49.4912 116.423 49.6982 116.377 49.9993C116.331 50.3005 116.538 50.5817 116.84 50.6275L116.922 50.0822L117.005 49.5369ZM197.211 99.7902C197.513 99.8255 197.787 99.609 197.822 99.3064L198.399 94.3763C198.434 94.0737 198.218 93.7998 197.915 93.7644C197.613 93.7291 197.339 93.9456 197.303 94.2482L196.791 98.6305L192.409 98.1182C192.106 98.0828 191.832 98.2994 191.797 98.6019C191.761 98.9045 191.978 99.1784 192.28 99.2138L197.211 99.7902ZM116.922 50.0822L116.84 50.6275C135.94 53.5301 149.685 57.8827 161.77 65.4315C173.861 72.9841 184.331 83.7612 196.842 99.5844L197.275 99.2424L197.707 98.9003C185.169 83.0425 174.606 72.1486 162.354 64.4959C150.097 56.8394 136.191 52.4525 117.005 49.5369L116.922 50.0822Z" fill="#F9FAFB"/>
<path d="M113.699 248.162C113.397 248.208 113.116 248.001 113.07 247.7C113.025 247.399 113.232 247.118 113.533 247.072L113.616 247.617L113.699 248.162ZM200.963 193.59C201.265 193.555 201.539 193.771 201.575 194.074L202.151 199.004C202.187 199.307 201.97 199.581 201.667 199.616C201.365 199.651 201.091 199.435 201.056 199.132L200.543 194.75L196.161 195.262C195.858 195.298 195.584 195.081 195.549 194.779C195.514 194.476 195.73 194.202 196.033 194.167L200.963 193.59ZM113.616 247.617L113.533 247.072C134.314 243.914 149.275 239.177 162.429 230.96C175.589 222.74 186.983 211.011 200.594 193.796L201.027 194.138L201.46 194.48C187.821 211.73 176.334 223.575 163.013 231.896C149.686 240.22 134.565 244.991 113.699 248.162L113.616 247.617Z" fill="#F9FAFB"/>
<path d="M90.608 141.72C90.3157 141.635 90.1482 141.328 90.2339 141.036C90.3195 140.744 90.6259 140.576 90.9182 140.662L90.7631 141.191L90.608 141.72ZM174.108 145.771C174.35 145.956 174.397 146.302 174.212 146.544L171.203 150.492C171.018 150.734 170.672 150.781 170.43 150.596C170.188 150.411 170.141 150.065 170.326 149.823L173.001 146.314L169.492 143.639C169.25 143.455 169.203 143.108 169.388 142.866C169.573 142.624 169.919 142.577 170.161 142.762L174.108 145.771ZM90.7631 141.191L90.9182 140.662C123.523 150.218 141.711 149.976 173.7 145.664L173.774 146.21L173.847 146.757C141.75 151.084 123.4 151.331 90.608 141.72L90.7631 141.191Z" fill="#F9FAFB"/>
<path d="M318.476 52.6431C318.721 52.8237 318.774 53.1689 318.593 53.4142L315.651 57.4116C315.47 57.6569 315.125 57.7094 314.879 57.5288C314.634 57.3483 314.582 57.003 314.762 56.7577L317.378 53.2045L313.825 50.5887C313.579 50.4081 313.527 50.0629 313.708 49.8176C313.888 49.5723 314.233 49.5198 314.479 49.7004L318.476 52.6431ZM240.869 100.975C240.68 101.214 240.333 101.254 240.094 101.065C239.855 100.876 239.815 100.53 240.004 100.291L240.436 100.633L240.869 100.975ZM318.149 53.0873L318.232 53.6325C299.761 56.4396 286.469 60.6487 274.784 67.9478C263.093 75.2506 252.968 85.6718 240.869 100.975L240.436 100.633L240.004 100.291C252.13 84.9532 262.348 74.4152 274.2 67.0122C286.058 59.6054 299.51 55.362 318.066 52.542L318.149 53.0873Z" fill="#F9FAFB"/>
<path d="M323.864 238.115C324.109 237.935 324.161 237.59 323.981 237.344L321.038 233.347C320.858 233.102 320.512 233.049 320.267 233.23C320.022 233.41 319.969 233.756 320.15 234.001L322.766 237.554L319.212 240.17C318.967 240.35 318.915 240.696 319.095 240.941C319.276 241.186 319.621 241.239 319.866 241.058L323.864 238.115ZM247.406 190.487C247.217 190.248 246.87 190.207 246.631 190.396C246.392 190.585 246.352 190.932 246.54 191.171L246.973 190.829L247.406 190.487ZM323.537 237.671L323.62 237.126C305.422 234.361 292.329 230.214 280.817 223.024C269.3 215.83 259.326 205.563 247.406 190.487L246.973 190.829L246.54 191.171C258.488 206.282 268.555 216.665 280.233 223.959C291.917 231.257 305.171 235.438 323.454 238.217L323.537 237.671Z" fill="#F9FAFB"/>
<path d="M347.571 140.353C347.717 140.085 347.619 139.75 347.351 139.604L342.996 137.223C342.729 137.077 342.394 137.175 342.247 137.442C342.101 137.71 342.2 138.045 342.467 138.191L346.338 140.307L344.222 144.179C344.076 144.446 344.174 144.781 344.441 144.927C344.708 145.073 345.043 144.975 345.19 144.708L347.571 140.353ZM263.703 144.587C263.402 144.547 263.124 144.758 263.083 145.06C263.042 145.362 263.254 145.64 263.556 145.681L263.63 145.134L263.703 144.587ZM347.087 140.088L346.932 139.559C314.151 149.166 295.865 148.923 263.703 144.587L263.63 145.134L263.556 145.681C295.826 150.031 314.274 150.279 347.242 140.617L347.087 140.088Z" fill="#F9FAFB"/>
<g clip-path="url(#clip1_6948_4210)">
<path d="M223.781 153.134C230.097 155.805 236.163 158.977 242.702 160.452C245.624 160.925 248.573 161.175 251.467 161.175V145.093H249.046C240.087 145.093 231.795 149.74 223.781 153.134Z" fill="#DA3D0B"/>
<path d="M205.114 158.253C202.192 158.003 199.27 158.003 196.377 158.003H189.727V172.778C189.727 175.449 191.897 177.592 194.54 177.592H246.656C249.327 177.592 251.47 175.421 251.47 172.778V170.914C245.154 170.914 238.587 170.107 232.744 167.658C223.561 164.514 215.075 158.504 205.114 158.253Z" fill="#DA3D0B"/>
<path d="M246.684 115.82H194.54C191.897 115.82 189.727 117.991 189.727 120.662V148.041C195.57 148.041 201.719 148.292 207.534 147.791C215.548 147.068 222.588 142.671 230.1 139.75C236.89 136.828 244.207 135.131 251.498 135.353V120.662C251.498 117.991 249.327 115.82 246.684 115.82Z" fill="#DA3D0B"/>
<path d="M251.498 145.093V135.354C244.207 135.104 236.917 136.829 230.1 139.75C222.56 142.672 215.548 147.068 207.534 147.792C201.719 148.293 195.57 148.042 189.727 148.042V158.031H196.377C199.27 158.031 202.192 158.031 205.114 158.282C215.075 158.532 223.561 164.542 232.771 167.686C238.615 170.135 245.181 170.942 251.498 170.942V161.203C248.604 161.203 245.627 160.953 242.733 160.48C236.166 159.005 230.128 155.861 223.812 153.162C231.825 149.739 240.117 145.121 249.077 145.121L251.498 145.093Z" fill="white"/>
</g>
<defs>
<clipPath id="clip0_6948_4210">
<rect width="45.2252" height="34.1947" fill="white" transform="translate(45.2227 230.539)"/>
</clipPath>
<clipPath id="clip1_6948_4210">
<rect width="61.771" height="61.771" fill="white" transform="translate(189.727 115.82)"/>
</clipPath>
</defs>
</svg>
