<svg width="369" height="338" viewBox="0 0 369 338" fill="none" xmlns="http://www.w3.org/2000/svg">
<path d="M151.129 57.4121V56.7836H149.871V57.4121H150.5H151.129ZM149.871 308.239V308.868H151.129V308.239H150.5H149.871ZM150.5 57.4121H149.871V59.9204H150.5H151.129V57.4121H150.5ZM150.5 64.9369H149.871V69.9535H150.5H151.129V64.9369H150.5ZM150.5 74.97H149.871V79.9865H150.5H151.129V74.97H150.5ZM150.5 85.0031H149.871V90.0196H150.5H151.129V85.0031H150.5ZM150.5 95.0361H149.871V100.053H150.5H151.129V95.0361H150.5ZM150.5 105.069H149.871V110.086H150.5H151.129V105.069H150.5ZM150.5 115.102H149.871V120.119H150.5H151.129V115.102H150.5ZM150.5 125.135H149.871V130.152H150.5H151.129V125.135H150.5ZM150.5 135.168H149.871V140.185H150.5H151.129V135.168H150.5ZM150.5 145.202H149.871V150.218H150.5H151.129V145.202H150.5ZM150.5 155.235H149.871V160.251H150.5H151.129V155.235H150.5ZM150.5 165.268H149.871V170.284H150.5H151.129V165.268H150.5ZM150.5 175.301H149.871V180.317H150.5H151.129V175.301H150.5ZM150.5 185.334H149.871V190.35H150.5H151.129V185.334H150.5ZM150.5 195.367H149.871V200.383H150.5H151.129V195.367H150.5ZM150.5 205.4H149.871V210.417H150.5H151.129V205.4H150.5ZM150.5 215.433H149.871V220.45H150.5H151.129V215.433H150.5ZM150.5 225.466H149.871V230.483H150.5H151.129V225.466H150.5ZM150.5 235.499H149.871V240.516H150.5H151.129V235.499H150.5ZM150.5 245.532H149.871V250.549H150.5H151.129V245.532H150.5ZM150.5 255.565H149.871V260.582H150.5H151.129V255.565H150.5ZM150.5 265.599H149.871V270.615H150.5H151.129V265.599H150.5ZM150.5 275.632H149.871V280.648H150.5H151.129V275.632H150.5ZM150.5 285.665H149.871V290.681H150.5H151.129V285.665H150.5ZM150.5 295.698H149.871V300.714H150.5H151.129V295.698H150.5ZM150.5 305.731H149.871V308.239H150.5H151.129V305.731H150.5Z" fill="#FF8A7B"/>
<path d="M261.977 309.424H262.605V308.167H261.977V308.796V309.424ZM172.794 308.167H172.165V309.424H172.794V308.796V308.167ZM261.977 308.796V308.167H172.794V308.796V309.424H261.977V308.796Z" fill="#FFBFB5"/>
<path d="M54.5303 309.523C54.8596 309.632 55.2156 309.454 55.3254 309.125L57.1147 303.759C57.2245 303.429 57.0466 303.073 56.7172 302.963C56.3879 302.854 56.0319 303.032 55.9221 303.361L54.3317 308.131L49.5614 306.541C49.2321 306.431 48.8761 306.609 48.7663 306.938C48.6565 307.267 48.8345 307.623 49.1638 307.733L54.5303 309.523ZM52.3169 29.9534C52.2362 29.6158 51.8971 29.4074 51.5595 29.4881L46.0574 30.8026C45.7197 30.8833 45.5114 31.2224 45.5921 31.56C45.6727 31.8977 46.0118 32.106 46.3495 32.0253L51.2402 30.8568L52.4087 35.7476C52.4894 36.0853 52.8285 36.2936 53.1661 36.2129C53.5037 36.1322 53.7121 35.7931 53.6314 35.4555L52.3169 29.9534ZM54.187 306.413C54.0343 306.101 53.6578 305.973 53.346 306.125C53.0343 306.278 52.9053 306.654 53.058 306.966L53.6225 306.69L54.187 306.413ZM50.8923 302.451C51.0399 302.766 51.4143 302.901 51.7285 302.753C52.0427 302.605 52.1777 302.231 52.0301 301.917L51.4612 302.184L50.8923 302.451ZM49.9464 297.387C49.8038 297.071 49.4317 296.93 49.1152 297.072C48.7987 297.215 48.6576 297.587 48.8002 297.903L49.3733 297.645L49.9464 297.387ZM46.7799 293.321C46.9174 293.64 47.2873 293.787 47.606 293.649C47.9248 293.512 48.0717 293.142 47.9341 292.823L47.357 293.072L46.7799 293.321ZM45.9947 288.23C45.8621 287.909 45.4946 287.756 45.1737 287.889C44.8529 288.022 44.7003 288.389 44.8328 288.71L45.4137 288.47L45.9947 288.23ZM42.9565 284.067C43.084 284.389 43.4492 284.548 43.772 284.42C44.0949 284.293 44.2532 283.927 44.1256 283.605L43.541 283.836L42.9565 284.067ZM42.3288 278.954C42.2062 278.629 41.8435 278.465 41.5187 278.588C41.194 278.711 41.0301 279.073 41.1528 279.398L41.7408 279.176L42.3288 278.954ZM39.4191 274.7C39.5368 275.026 39.897 275.196 40.2235 275.078C40.5501 274.96 40.7194 274.6 40.6017 274.273L40.0104 274.487L39.4191 274.7ZM38.9463 269.57C38.8335 269.242 38.4759 269.067 38.1476 269.18C37.8193 269.293 37.6446 269.651 37.7574 269.979L38.3519 269.775L38.9463 269.57ZM36.1654 265.231C36.2733 265.561 36.6283 265.741 36.9582 265.633C37.2882 265.525 37.4681 265.17 37.3602 264.84L36.7628 265.036L36.1654 265.231ZM35.845 260.09C35.742 259.758 35.3897 259.573 35.0582 259.676C34.7267 259.779 34.5415 260.132 34.6446 260.463L35.2448 260.276L35.845 260.09ZM33.1934 255.671C33.2916 256.004 33.6411 256.195 33.9741 256.096C34.307 255.998 34.4974 255.649 34.3992 255.316L33.7963 255.493L33.1934 255.671ZM33.0234 250.522C32.9301 250.188 32.5834 249.992 32.249 250.086C31.9146 250.179 31.7193 250.526 31.8126 250.86L32.418 250.691L33.0234 250.522ZM30.5016 246.029C30.5901 246.364 30.9339 246.565 31.2696 246.476C31.6052 246.388 31.8056 246.044 31.7171 245.708L31.1094 245.868L30.5016 246.029ZM30.4805 240.876C30.3969 240.539 30.056 240.334 29.719 240.417C29.3821 240.501 29.1768 240.842 29.2605 241.179L29.8705 241.028L30.4805 240.876ZM28.0892 236.312C28.168 236.65 28.506 236.86 28.844 236.782C29.1821 236.703 29.3923 236.365 29.3135 236.027L28.7014 236.169L28.0892 236.312ZM28.2161 231.161C28.1421 230.822 27.8072 230.607 27.468 230.681C27.1289 230.755 26.9139 231.09 26.9878 231.429L27.6019 231.295L28.2161 231.161ZM25.9564 226.53C26.0255 226.871 26.3573 227.09 26.6974 227.021C27.0376 226.952 27.2574 226.62 27.1883 226.28L26.5723 226.405L25.9564 226.53ZM26.2303 221.385C26.1661 221.044 25.8375 220.82 25.4963 220.884C25.1552 220.948 24.9307 221.277 24.995 221.618L25.6127 221.502L26.2303 221.385ZM24.1037 216.692C24.163 217.034 24.4884 217.263 24.8304 217.203C25.1725 217.144 25.4016 216.819 25.3423 216.477L24.723 216.584L24.1037 216.692ZM24.5245 211.557C24.47 211.214 24.1479 210.98 23.8051 211.035C23.4622 211.089 23.2285 211.411 23.283 211.754L23.9037 211.656L24.5245 211.557ZM22.5326 206.804C22.5822 207.147 22.9009 207.386 23.2445 207.336C23.5881 207.287 23.8264 206.968 23.7768 206.624L23.1547 206.714L22.5326 206.804ZM23.1003 201.684C23.0557 201.34 22.7404 201.097 22.3962 201.142C22.0519 201.186 21.809 201.502 21.8536 201.846L22.477 201.765L23.1003 201.684ZM21.2455 196.875C21.2852 197.22 21.5969 197.467 21.9418 197.428C22.2866 197.388 22.534 197.076 22.4944 196.731L21.8699 196.803L21.2455 196.875ZM21.9605 191.775C21.9258 191.43 21.6177 191.178 21.2723 191.213C20.9269 191.247 20.675 191.556 20.7097 191.901L21.3351 191.838L21.9605 191.775ZM20.2454 186.913C20.2751 187.259 20.5795 187.515 20.9254 187.486C21.2712 187.456 21.5276 187.152 21.4979 186.806L20.8717 186.859L20.2454 186.913ZM21.1085 181.838C21.0839 181.492 20.7833 181.231 20.437 181.256C20.0908 181.28 19.83 181.581 19.8546 181.927L20.4816 181.883L21.1085 181.838ZM19.5364 176.926C19.5559 177.273 19.8526 177.538 20.1992 177.518C20.5458 177.499 20.811 177.202 20.7915 176.856L20.1639 176.891L19.5364 176.926ZM20.5487 171.878C20.5344 171.531 20.2416 171.262 19.8948 171.276C19.5479 171.291 19.2784 171.583 19.2927 171.93L19.9207 171.904L20.5487 171.878ZM19.1234 166.922C19.1325 167.269 19.4212 167.543 19.7682 167.534C20.1152 167.525 20.3892 167.236 20.38 166.889L19.7517 166.906L19.1234 166.922ZM20.2867 161.906C20.2829 161.559 19.9983 161.281 19.6512 161.284C19.3041 161.288 19.0259 161.573 19.0297 161.92L19.6582 161.913L20.2867 161.906ZM19.0123 156.911C19.0109 157.258 19.2911 157.541 19.6382 157.542C19.9853 157.544 20.2679 157.263 20.2694 156.916L19.6409 156.914L19.0123 156.911ZM20.329 151.931C20.3359 151.584 20.0601 151.297 19.713 151.29C19.3659 151.283 19.079 151.559 19.0722 151.906L19.7006 151.918L20.329 151.931ZM19.2102 146.901C19.1979 147.248 19.4692 147.539 19.8161 147.551C20.163 147.564 20.4542 147.292 20.4666 146.945L19.8384 146.923L19.2102 146.901ZM20.6831 141.962C20.701 141.615 20.4344 141.32 20.0877 141.302C19.741 141.284 19.4455 141.551 19.4277 141.897L20.0554 141.93L20.6831 141.962ZM19.7252 136.903C19.7018 137.249 19.9635 137.549 20.3099 137.572C20.6562 137.596 20.956 137.334 20.9795 136.988L20.3524 136.945L19.7252 136.903ZM21.3576 132.011C21.3868 131.665 21.13 131.361 20.7841 131.332C20.4382 131.303 20.1341 131.56 20.105 131.905L20.7313 131.958L21.3576 132.011ZM20.5665 126.927C20.5316 127.272 20.7832 127.581 21.1286 127.616C21.474 127.651 21.7823 127.399 21.8173 127.054L21.1919 126.99L20.5665 126.927ZM22.3623 122.089C22.4032 121.745 22.1568 121.432 21.8121 121.391C21.4674 121.35 21.1548 121.597 21.114 121.941L21.7381 122.015L22.3623 122.089ZM21.7454 116.981C21.6985 117.325 21.9394 117.641 22.2834 117.688C22.6273 117.735 22.9441 117.494 22.991 117.15L22.3682 117.065L21.7454 116.981ZM23.7082 112.21C23.7611 111.867 23.5259 111.546 23.1828 111.493C22.8397 111.44 22.5187 111.675 22.4658 112.018L23.087 112.114L23.7082 112.21ZM23.2737 107.079C23.2146 107.421 23.4439 107.746 23.786 107.805C24.128 107.864 24.4533 107.635 24.5124 107.293L23.8931 107.186L23.2737 107.079ZM25.4072 102.388C25.4727 102.047 25.2494 101.718 24.9085 101.652C24.5676 101.587 24.2382 101.81 24.1727 102.151L24.79 102.269L25.4072 102.388ZM25.1643 97.2393C25.0924 97.5789 25.3094 97.9125 25.649 97.9844C25.9886 98.0563 26.3222 97.8394 26.3942 97.4998L25.7792 97.3695L25.1643 97.2393ZM27.4728 92.6397C27.5514 92.3016 27.3409 91.9638 27.0027 91.8853C26.6646 91.8068 26.3268 92.0172 26.2483 92.3554L26.8606 92.4975L27.4728 92.6397ZM27.4315 87.4802C27.3462 87.8167 27.5499 88.1586 27.8864 88.2439C28.2229 88.3291 28.5648 88.1254 28.6501 87.7889L28.0408 87.6346L27.4315 87.4802ZM29.9209 82.9783C30.013 82.6436 29.8163 82.2976 29.4816 82.2055C29.1469 82.1134 28.801 82.3101 28.7089 82.6448L29.3149 82.8116L29.9209 82.9783ZM30.0905 77.8216C29.9914 78.1543 30.1807 78.5043 30.5134 78.6034C30.8461 78.7025 31.1961 78.5132 31.2953 78.1805L30.6929 78.001L30.0905 77.8216ZM32.7686 73.4223C32.8748 73.0918 32.6931 72.7377 32.3626 72.6315C32.0321 72.5252 31.6781 72.707 31.5718 73.0375L32.1702 73.2299L32.7686 73.4223ZM33.1576 68.2863C33.044 68.6143 33.2179 68.9723 33.5459 69.0858C33.874 69.1994 34.232 69.0256 34.3455 68.6975L33.7515 68.4919L33.1576 68.2863ZM36.0304 64.0039C36.1514 63.6786 35.9858 63.3167 35.6604 63.1957C35.3351 63.0747 34.9732 63.2403 34.8522 63.5656L35.4413 63.7848L36.0304 64.0039ZM36.6504 58.8988C36.5218 59.2212 36.6789 59.5869 37.0014 59.7155C37.3238 59.8441 37.6894 59.687 37.8181 59.3646L37.2343 59.1317L36.6504 58.8988ZM39.7231 54.7516C39.8596 54.4323 39.7114 54.063 39.3921 53.9266C39.0729 53.7902 38.7036 53.9384 38.5672 54.2576L39.1452 54.5046L39.7231 54.7516ZM40.5927 49.6758C40.4483 49.9915 40.5873 50.3644 40.903 50.5087C41.2187 50.6531 41.5916 50.5141 41.736 50.1984L41.1643 49.9371L40.5927 49.6758ZM43.8636 45.6972C44.016 45.3853 43.8867 45.0089 43.5748 44.8565C43.2629 44.7041 42.8865 44.8334 42.7341 45.1453L43.2989 45.4212L43.8636 45.6972ZM44.9962 40.6664C44.8356 40.9742 44.9548 41.3538 45.2626 41.5145C45.5703 41.6751 45.95 41.5558 46.1106 41.248L45.5534 40.9572L44.9962 40.6664ZM48.4706 36.872C48.6396 36.5687 48.5307 36.1859 48.2275 36.0169C47.9242 35.848 47.5414 35.9569 47.3725 36.2601L47.9216 36.566L48.4706 36.872ZM49.8771 31.9094C49.6996 32.2078 49.7977 32.5935 50.096 32.7709C50.3944 32.9484 50.7801 32.8504 50.9575 32.552L50.4173 32.2307L49.8771 31.9094ZM54.7291 308.926L55.2913 308.645C54.9203 307.903 54.5522 307.159 54.187 306.413L53.6225 306.69L53.058 306.966C53.4247 307.715 53.7944 308.462 54.1669 309.207L54.7291 308.926ZM51.4612 302.184L52.0301 301.917C51.324 300.414 50.6295 298.904 49.9464 297.387L49.3733 297.645L48.8002 297.903C49.486 299.426 50.1834 300.942 50.8923 302.451L51.4612 302.184ZM47.357 293.072L47.9341 292.823C47.2761 291.298 46.6296 289.767 45.9947 288.23L45.4137 288.47L44.8328 288.71C45.4703 290.253 46.1193 291.79 46.7799 293.321L47.357 293.072ZM43.541 283.836L44.1256 283.605C43.5152 282.06 42.9162 280.51 42.3288 278.954L41.7408 279.176L41.1528 279.398C41.7424 280.96 42.3437 282.516 42.9565 284.067L43.541 283.836ZM40.0104 274.487L40.6017 274.273C40.0384 272.711 39.4866 271.143 38.9463 269.57L38.3519 269.775L37.7574 269.979C38.2997 271.557 38.8536 273.131 39.4191 274.7L40.0104 274.487ZM36.7628 265.036L37.3602 264.84C36.8436 263.261 36.3385 261.677 35.845 260.09L35.2448 260.276L34.6446 260.463C35.1399 262.057 35.6469 263.646 36.1654 265.231L36.7628 265.036ZM33.7963 255.493L34.3992 255.316C33.929 253.721 33.4704 252.123 33.0234 250.522L32.418 250.691L31.8126 250.86C32.2612 252.467 32.7215 254.071 33.1934 255.671L33.7963 255.493ZM31.1094 245.868L31.7171 245.708C31.2933 244.1 30.8811 242.49 30.4805 240.876L29.8705 241.028L29.2605 241.179C29.6625 242.798 30.0762 244.415 30.5016 246.029L31.1094 245.868ZM28.7014 236.169L29.3135 236.027C28.936 234.407 28.5702 232.785 28.2161 231.161L27.6019 231.295L26.9878 231.429C27.3432 233.059 27.7104 234.687 28.0892 236.312L28.7014 236.169ZM26.5723 226.405L27.1883 226.28C26.8572 224.65 26.5379 223.018 26.2303 221.385L25.6127 221.502L24.995 221.618C25.3036 223.257 25.6241 224.895 25.9564 226.53L26.5723 226.405ZM24.723 216.584L25.3423 216.477C25.0578 214.838 24.7852 213.198 24.5245 211.557L23.9037 211.656L23.283 211.754C23.5446 213.401 23.8182 215.047 24.1037 216.692L24.723 216.584ZM23.1547 206.714L23.7768 206.624C23.5394 204.978 23.3138 203.331 23.1003 201.684L22.477 201.765L21.8536 201.846C22.0679 203.499 22.2943 205.152 22.5326 206.804L23.1547 206.714ZM21.8699 196.803L22.4944 196.731C22.3043 195.079 22.1263 193.427 21.9605 191.775L21.3351 191.838L20.7097 191.901C20.8761 193.559 21.0547 195.217 21.2455 196.875L21.8699 196.803ZM20.8717 186.859L21.4979 186.806C21.3559 185.149 21.2261 183.493 21.1085 181.838L20.4816 181.883L19.8546 181.927C19.9726 183.588 20.1028 185.25 20.2454 186.913L20.8717 186.859ZM20.1639 176.891L20.7915 176.856C20.6982 175.195 20.6172 173.536 20.5487 171.878L19.9207 171.904L19.2927 171.93C19.3615 173.594 19.4427 175.259 19.5364 176.926L20.1639 176.891ZM19.7517 166.906L20.38 166.889C20.3363 165.226 20.3052 163.565 20.2867 161.906L19.6582 161.913L19.0297 161.92C19.0482 163.585 19.0795 165.253 19.1234 166.922L19.7517 166.906ZM19.6409 156.914L20.2694 156.916C20.2764 155.251 20.2963 153.589 20.329 151.931L19.7006 151.918L19.0722 151.906C19.0393 153.571 19.0194 155.24 19.0123 156.911L19.6409 156.914ZM19.8384 146.923L20.4666 146.945C20.5256 145.281 20.5978 143.619 20.6831 141.962L20.0554 141.93L19.4277 141.897C19.342 143.561 19.2695 145.229 19.2102 146.901L19.8384 146.923ZM20.3524 136.945L20.9795 136.988C21.0921 135.324 21.2182 133.665 21.3576 132.011L20.7313 131.958L20.105 131.905C19.9649 133.567 19.8384 135.232 19.7252 136.903L20.3524 136.945ZM21.1919 126.99L21.8173 127.054C21.9852 125.394 22.1669 123.739 22.3623 122.089L21.7381 122.015L21.114 121.941C20.9177 123.598 20.7352 125.26 20.5665 126.927L21.1919 126.99ZM22.3682 117.065L22.991 117.15C23.216 115.497 23.4551 113.85 23.7082 112.21L23.087 112.114L22.4658 112.018C22.2115 113.666 21.9714 115.32 21.7454 116.981L22.3682 117.065ZM23.8931 107.186L24.5124 107.293C24.7963 105.651 25.0946 104.016 25.4072 102.388L24.79 102.269L24.1727 102.151C23.8586 103.786 23.5589 105.429 23.2737 107.079L23.8931 107.186ZM25.7792 97.3695L26.3942 97.4998C26.739 95.8717 27.0986 94.2515 27.4728 92.6397L26.8606 92.4975L26.2483 92.3554C25.8722 93.9752 25.5109 95.6033 25.1643 97.2393L25.7792 97.3695ZM28.0408 87.6346L28.6501 87.7889C29.0586 86.1763 29.4822 84.5726 29.9209 82.9783L29.3149 82.8116L28.7089 82.6448C28.2679 84.2475 27.8421 85.8594 27.4315 87.4802L28.0408 87.6346ZM30.6929 78.001L31.2953 78.1805C31.7708 76.5842 32.2619 74.998 32.7686 73.4223L32.1702 73.2299L31.5718 73.0375C31.0623 74.6219 30.5686 76.2168 30.0905 77.8216L30.6929 78.001ZM33.7515 68.4919L34.3455 68.6975C34.8911 67.1216 35.4527 65.5569 36.0304 64.0039L35.4413 63.7848L34.8522 63.5656C34.2711 65.1277 33.7062 66.7014 33.1576 68.2863L33.7515 68.4919ZM37.2343 59.1317L37.8181 59.3646C38.4365 57.8143 39.0715 56.2765 39.7231 54.7516L39.1452 54.5046L38.5672 54.2576C37.9115 55.7919 37.2726 57.3392 36.6504 58.8988L37.2343 59.1317ZM41.1643 49.9371L41.736 50.1984C42.4282 48.6841 43.1374 47.1835 43.8636 45.6972L43.2989 45.4212L42.7341 45.1453C42.0031 46.6415 41.2893 48.1518 40.5927 49.6758L41.1643 49.9371ZM45.5534 40.9572L46.1106 41.248C46.8798 39.7742 47.6665 38.3153 48.4706 36.872L47.9216 36.566L47.3725 36.2601C46.5627 37.7136 45.7706 39.1825 44.9962 40.6664L45.5534 40.9572ZM50.4173 32.2307L50.9575 32.552C51.3809 31.84 51.8088 31.1322 52.2411 30.4285L51.7055 30.0994L51.17 29.7704C50.7345 30.4793 50.3035 31.1923 49.8771 31.9094L50.4173 32.2307Z" fill="#FF8A7B"/>
<rect x="69.5543" y="0.366812" width="160.91" height="55.3662" rx="8.43667" fill="#F3F4F6"/>
<rect x="69.5543" y="0.366812" width="160.91" height="55.3662" rx="8.43667" stroke="#E5E7EB" stroke-width="0.733623"/>
<path d="M93.8918 18.0176V20.2472M100.581 18.0176V20.2472M93.8918 35.8542V38.0837M100.581 35.8542V38.0837M89.4327 24.7063H87.2031M89.4327 31.395H87.2031M107.269 24.7063H105.04M107.269 31.395H105.04M91.6623 35.8542H102.81C103.401 35.8542 103.969 35.6193 104.387 35.2011C104.805 34.783 105.04 34.2159 105.04 33.6246V22.4767C105.04 21.8854 104.805 21.3183 104.387 20.9002C103.969 20.4821 103.401 20.2472 102.81 20.2472H91.6623C91.071 20.2472 90.5039 20.4821 90.0857 20.9002C89.6676 21.3183 89.4327 21.8854 89.4327 22.4767V33.6246C89.4327 34.2159 89.6676 34.783 90.0857 35.2011C90.5039 35.6193 91.071 35.8542 91.6623 35.8542ZM93.8918 24.7063H100.581V31.395H93.8918V24.7063Z" stroke="#3F3F46" stroke-width="2.22957" stroke-linecap="round" stroke-linejoin="round"/>
<path d="M125.792 33.0498H124.094V20.1747H125.792V33.0498ZM129.922 21.563H119.973V20.1747H129.922V21.563ZM129.4 28.1686C129.4 27.243 129.577 26.4148 129.93 25.6838C130.284 24.9528 130.785 24.375 131.434 23.9506C132.082 23.5202 132.851 23.3051 133.742 23.3051C134.644 23.3051 135.422 23.5202 136.076 23.9506C136.73 24.375 137.232 24.9528 137.579 25.6838C137.933 26.4148 138.11 27.243 138.11 28.1686V28.372C138.11 29.2916 137.933 30.1199 137.579 30.8568C137.232 31.5878 136.73 32.1655 136.076 32.59C135.428 33.0144 134.655 33.2267 133.759 33.2267C132.863 33.2267 132.088 33.0144 131.434 32.59C130.785 32.1655 130.284 31.5878 129.93 30.8568C129.577 30.1199 129.4 29.2916 129.4 28.372V28.1686ZM131.053 28.372C131.053 29.0028 131.154 29.5864 131.354 30.1228C131.554 30.6593 131.852 31.0897 132.247 31.4139C132.648 31.7381 133.152 31.9002 133.759 31.9002C134.361 31.9002 134.859 31.7381 135.254 31.4139C135.655 31.0897 135.955 30.6593 136.156 30.1228C136.356 29.5864 136.456 29.0028 136.456 28.372V28.1686C136.456 27.5378 136.356 26.9542 136.156 26.4177C135.955 25.8813 135.655 25.4509 135.254 25.1267C134.853 24.7965 134.349 24.6315 133.742 24.6315C133.146 24.6315 132.648 24.7965 132.247 25.1267C131.846 25.4509 131.546 25.8813 131.345 26.4177C131.151 26.9542 131.053 27.5378 131.053 28.1686V28.372ZM139.746 28.1686C139.746 27.243 139.923 26.4148 140.276 25.6838C140.63 24.9528 141.131 24.375 141.78 23.9506C142.428 23.5202 143.197 23.3051 144.088 23.3051C144.99 23.3051 145.768 23.5202 146.422 23.9506C147.077 24.375 147.578 24.9528 147.925 25.6838C148.279 26.4148 148.456 27.243 148.456 28.1686V28.372C148.456 29.2916 148.279 30.1199 147.925 30.8568C147.578 31.5878 147.077 32.1655 146.422 32.59C145.774 33.0144 145.001 33.2267 144.105 33.2267C143.209 33.2267 142.434 33.0144 141.78 32.59C141.131 32.1655 140.63 31.5878 140.276 30.8568C139.923 30.1199 139.746 29.2916 139.746 28.372V28.1686ZM141.399 28.372C141.399 29.0028 141.5 29.5864 141.7 30.1228C141.901 30.6593 142.198 31.0897 142.593 31.4139C142.994 31.7381 143.498 31.9002 144.105 31.9002C144.707 31.9002 145.205 31.7381 145.6 31.4139C146.001 31.0897 146.301 30.6593 146.502 30.1228C146.702 29.5864 146.802 29.0028 146.802 28.372V28.1686C146.802 27.5378 146.702 26.9542 146.502 26.4177C146.301 25.8813 146.001 25.4509 145.6 25.1267C145.199 24.7965 144.695 24.6315 144.088 24.6315C143.492 24.6315 142.994 24.7965 142.593 25.1267C142.192 25.4509 141.892 25.8813 141.691 26.4177C141.497 26.9542 141.399 27.5378 141.399 28.1686V28.372ZM152.311 33.0498H150.658V19.4673H152.311V33.0498ZM160.464 33.0498V31.6703H163.153C164.066 31.6703 164.83 31.4787 165.443 31.0955C166.056 30.7065 166.516 30.1641 166.822 29.4685C167.135 28.767 167.291 27.9446 167.291 27.0013V26.2055C167.291 25.221 167.135 24.3839 166.822 23.6941C166.516 23.0044 166.065 22.4768 165.47 22.1113C164.874 21.7458 164.152 21.563 163.303 21.563H160.411V20.1747H163.303C164.435 20.1747 165.425 20.4223 166.274 20.9175C167.129 21.4068 167.795 22.1054 168.273 23.0132C168.75 23.9152 168.989 24.9852 168.989 26.2232V27.0013C168.989 28.2452 168.75 29.3182 168.273 30.2201C167.795 31.1221 167.12 31.8207 166.248 32.3159C165.375 32.8052 164.344 33.0498 163.153 33.0498H160.464ZM161.384 33.0498H159.669V20.1747H161.384V33.0498ZM176.939 26.4885C176.939 25.9166 176.768 25.4627 176.426 25.1267C176.09 24.7848 175.592 24.6138 174.931 24.6138C174.525 24.6138 174.165 24.6845 173.852 24.826C173.546 24.9675 173.307 25.1532 173.136 25.3831C172.965 25.613 172.88 25.8636 172.88 26.1347H171.226C171.226 25.6749 171.382 25.2298 171.695 24.7995C172.007 24.3632 172.446 24.0066 173.012 23.7295C173.584 23.4465 174.256 23.3051 175.029 23.3051C175.724 23.3051 176.34 23.423 176.877 23.6588C177.413 23.8946 177.832 24.2512 178.132 24.7287C178.439 25.2004 178.592 25.7928 178.592 26.5061V30.9629C178.592 31.2812 178.619 31.6202 178.672 31.9798C178.731 32.3394 178.816 32.6489 178.928 32.9083V33.0498H177.204C177.121 32.8612 177.056 32.6106 177.009 32.2982C176.962 31.9798 176.939 31.6851 176.939 31.4139V26.4885ZM177.222 28.3985H175.594C174.663 28.3985 173.944 28.5459 173.437 28.8406C172.93 29.1354 172.676 29.5775 172.676 30.1671C172.676 30.6269 172.83 31.016 173.136 31.3343C173.449 31.6526 173.903 31.8118 174.498 31.8118C174.999 31.8118 175.441 31.7057 175.824 31.4935C176.208 31.2812 176.511 31.0189 176.735 30.7065C176.959 30.394 177.08 30.0934 177.098 29.8045L177.805 30.5915C177.764 30.8391 177.652 31.1132 177.469 31.4139C177.286 31.7145 177.042 32.0034 176.735 32.2805C176.435 32.5517 176.075 32.7786 175.656 32.9614C175.244 33.1382 174.778 33.2267 174.259 33.2267C173.611 33.2267 173.042 33.1029 172.553 32.8553C172.069 32.6018 171.692 32.2598 171.421 31.8295C171.155 31.3992 171.023 30.9216 171.023 30.397C171.023 29.3653 171.412 28.5842 172.19 28.0536C172.968 27.5172 174.015 27.2489 175.329 27.2489H177.222V28.3985ZM185.189 24.7287H180.007V23.4819H185.189V24.7287ZM183.403 21.1563V30.6799C183.403 31.0101 183.453 31.2577 183.553 31.4227C183.653 31.5878 183.783 31.6969 183.942 31.7499C184.101 31.803 184.272 31.8295 184.455 31.8295C184.591 31.8295 184.732 31.8177 184.879 31.7941C185.033 31.7705 185.145 31.7499 185.215 31.7322V33.0498C185.086 33.0911 184.918 33.1294 184.711 33.1648C184.505 33.206 184.255 33.2267 183.96 33.2267C183.559 33.2267 183.19 33.1471 182.854 32.9879C182.518 32.8287 182.25 32.5635 182.05 32.1921C181.849 31.8148 181.749 31.3078 181.749 30.6711V21.1563H183.403ZM192.732 26.4885C192.732 25.9166 192.561 25.4627 192.219 25.1267C191.883 24.7848 191.385 24.6138 190.724 24.6138C190.318 24.6138 189.958 24.6845 189.646 24.826C189.339 24.9675 189.1 25.1532 188.929 25.3831C188.758 25.613 188.673 25.8636 188.673 26.1347H187.019C187.019 25.6749 187.176 25.2298 187.488 24.7995C187.8 24.3632 188.24 24.0066 188.806 23.7295C189.377 23.4465 190.049 23.3051 190.822 23.3051C191.517 23.3051 192.133 23.423 192.67 23.6588C193.206 23.8946 193.625 24.2512 193.926 24.7287C194.232 25.2004 194.385 25.7928 194.385 26.5061V30.9629C194.385 31.2812 194.412 31.6202 194.465 31.9798C194.524 32.3394 194.609 32.6489 194.721 32.9083V33.0498H192.997C192.915 32.8612 192.85 32.6106 192.803 32.2982C192.755 31.9798 192.732 31.6851 192.732 31.4139V26.4885ZM193.015 28.3985H191.388C190.456 28.3985 189.737 28.5459 189.23 28.8406C188.723 29.1354 188.47 29.5775 188.47 30.1671C188.47 30.6269 188.623 31.016 188.929 31.3343C189.242 31.6526 189.696 31.8118 190.291 31.8118C190.792 31.8118 191.234 31.7057 191.618 31.4935C192.001 31.2812 192.304 31.0189 192.528 30.7065C192.752 30.394 192.873 30.0934 192.891 29.8045L193.598 30.5915C193.557 30.8391 193.445 31.1132 193.262 31.4139C193.08 31.7145 192.835 32.0034 192.528 32.2805C192.228 32.5517 191.868 32.7786 191.45 32.9614C191.037 33.1382 190.571 33.2267 190.052 33.2267C189.404 33.2267 188.835 33.1029 188.346 32.8553C187.862 32.6018 187.485 32.2598 187.214 31.8295C186.949 31.3992 186.816 30.9216 186.816 30.397C186.816 29.3653 187.205 28.5842 187.983 28.0536C188.761 27.5172 189.808 27.2489 191.122 27.2489H193.015V28.3985Z" fill="#6B7280"/>
<path d="M261.977 98.7301H262.605V97.473H261.977V98.1016V98.7301ZM172.795 97.473H172.166V98.7301H172.795V98.1016V97.473ZM261.977 98.1016V97.473H172.795V98.1016V98.7301H261.977V98.1016Z" fill="#FFBFB5"/>
<rect x="128.203" y="75.8057" width="44.5908" height="44.5921" rx="22.2954" fill="#FFE8E5"/>
<path d="M150.502 93.5023V96.4287M150.502 102.281H150.517M140.125 108.134H160.88C163.186 108.134 164.627 105.695 163.474 103.745L153.097 86.1864C151.943 84.236 149.062 84.236 147.908 86.1864L137.531 103.745C136.378 105.695 137.819 108.134 140.125 108.134Z" stroke="#FF604F" stroke-width="3.7713" stroke-linecap="round" stroke-linejoin="round"/>
<path d="M269.046 96.8389V95.7923H270.811C271.363 95.7923 271.825 95.6734 272.197 95.4357C272.569 95.1981 272.849 94.8626 273.037 94.4294C273.225 93.9962 273.319 93.4825 273.319 92.8883V92.411C273.319 91.7937 273.225 91.2704 273.037 90.8411C272.849 90.4117 272.573 90.0839 272.209 89.8577C271.845 89.6315 271.402 89.5185 270.88 89.5185H269.011V88.4661H270.88C271.624 88.4661 272.276 88.629 272.836 88.9549C273.395 89.2769 273.832 89.7351 274.147 90.3293C274.461 90.9197 274.618 91.6174 274.618 92.4225V92.8883C274.618 93.6933 274.461 94.3911 274.147 94.9814C273.832 95.5718 273.389 96.03 272.818 96.3558C272.251 96.6779 271.582 96.8389 270.811 96.8389H269.046ZM269.759 96.8389H268.454V88.4661H269.759V96.8389ZM279.587 92.6065C279.587 92.2576 279.487 91.9816 279.288 91.7784C279.092 91.5714 278.797 91.4679 278.402 91.4679C278.16 91.4679 277.95 91.5101 277.769 91.5944C277.589 91.6749 277.449 91.7842 277.35 91.9222C277.25 92.0602 277.2 92.2135 277.2 92.3822H275.947C275.947 92.064 276.05 91.7631 276.257 91.4794C276.464 91.1919 276.757 90.958 277.137 90.7778C277.516 90.5938 277.961 90.5018 278.471 90.5018C278.931 90.5018 279.339 90.5804 279.696 90.7376C280.056 90.8909 280.338 91.1248 280.541 91.4391C280.744 91.7535 280.846 92.1464 280.846 92.618V95.4357C280.846 95.6849 280.865 95.9245 280.903 96.1546C280.942 96.3807 280.997 96.5782 281.07 96.7469V96.8389H279.782C279.721 96.7009 279.673 96.5226 279.638 96.3041C279.604 96.0817 279.587 95.8689 279.587 95.6658V92.6065ZM279.782 93.8716H278.776C278.22 93.8716 277.796 93.9674 277.505 94.1591C277.214 94.347 277.068 94.6153 277.068 94.9642C277.068 95.2364 277.16 95.4645 277.344 95.6485C277.528 95.8325 277.792 95.9245 278.137 95.9245C278.44 95.9245 278.707 95.8632 278.937 95.7405C279.167 95.614 279.347 95.4587 279.477 95.2747C279.608 95.0907 279.677 94.9144 279.684 94.7457L280.144 95.3207C280.106 95.4817 280.029 95.6562 279.914 95.844C279.803 96.028 279.654 96.2044 279.466 96.3731C279.278 96.5418 279.056 96.6817 278.799 96.7929C278.542 96.9002 278.249 96.9539 277.919 96.9539C277.505 96.9539 277.139 96.8734 276.821 96.7124C276.506 96.5513 276.259 96.3309 276.079 96.051C275.902 95.7674 275.814 95.453 275.814 95.108C275.814 94.4409 276.063 93.9329 276.562 93.5841C277.064 93.2314 277.756 93.055 278.638 93.055H279.782V93.8716ZM285.147 91.5484H281.691V90.6168H285.147V91.5484ZM284.015 89.0987V95.1885C284.015 95.3917 284.043 95.545 284.101 95.6485C284.162 95.752 284.243 95.821 284.342 95.8555C284.446 95.89 284.559 95.9073 284.682 95.9073C284.774 95.9073 284.866 95.9015 284.958 95.89C285.053 95.8747 285.126 95.8613 285.176 95.8498V96.8274C285.073 96.8619 284.95 96.8906 284.808 96.9136C284.666 96.9405 284.498 96.9539 284.302 96.9539C284.011 96.9539 283.748 96.9002 283.514 96.7929C283.28 96.6817 283.096 96.5015 282.962 96.2523C282.828 95.9993 282.761 95.6619 282.761 95.2402V89.0987H284.015ZM289.869 92.6065C289.869 92.2576 289.769 91.9816 289.57 91.7784C289.374 91.5714 289.079 91.4679 288.684 91.4679C288.442 91.4679 288.232 91.5101 288.051 91.5944C287.871 91.6749 287.731 91.7842 287.632 91.9222C287.532 92.0602 287.482 92.2135 287.482 92.3822H286.228C286.228 92.064 286.332 91.7631 286.539 91.4794C286.746 91.1919 287.039 90.958 287.419 90.7778C287.798 90.5938 288.243 90.5018 288.753 90.5018C289.213 90.5018 289.621 90.5804 289.978 90.7376C290.338 90.8909 290.62 91.1248 290.823 91.4391C291.026 91.7535 291.128 92.1464 291.128 92.618V95.4357C291.128 95.6849 291.147 95.9245 291.185 96.1546C291.224 96.3807 291.279 96.5782 291.352 96.7469V96.8389H290.064C290.003 96.7009 289.955 96.5226 289.92 96.3041C289.886 96.0817 289.869 95.8689 289.869 95.6658V92.6065ZM290.064 93.8716H289.058C288.502 93.8716 288.078 93.9674 287.787 94.1591C287.496 94.347 287.35 94.6153 287.35 94.9642C287.35 95.2364 287.442 95.4645 287.626 95.6485C287.81 95.8325 288.074 95.9245 288.419 95.9245C288.722 95.9245 288.989 95.8632 289.219 95.7405C289.449 95.614 289.629 95.4587 289.759 95.2747C289.89 95.0907 289.959 94.9144 289.966 94.7457L290.426 95.3207C290.388 95.4817 290.311 95.6562 290.196 95.844C290.085 96.028 289.936 96.2044 289.748 96.3731C289.56 96.5418 289.338 96.6817 289.081 96.7929C288.824 96.9002 288.531 96.9539 288.201 96.9539C287.787 96.9539 287.421 96.8734 287.103 96.7124C286.788 96.5513 286.541 96.3309 286.361 96.051C286.184 95.7674 286.096 95.453 286.096 95.108C286.096 94.4409 286.345 93.9329 286.844 93.5841C287.346 93.2314 288.038 93.055 288.92 93.055H290.064V93.8716ZM295.337 93.6646C295.337 93.0627 295.452 92.5241 295.682 92.0487C295.912 91.5733 296.24 91.1976 296.666 90.9216C297.095 90.6417 297.605 90.5018 298.195 90.5018C298.797 90.5018 299.313 90.6417 299.742 90.9216C300.172 91.1976 300.499 91.5733 300.726 92.0487C300.956 92.5241 301.071 93.0627 301.071 93.6646V93.7968C301.071 94.3949 300.956 94.9335 300.726 95.4127C300.499 95.8881 300.172 96.2638 299.742 96.5398C299.317 96.8159 298.805 96.9539 298.207 96.9539C297.613 96.9539 297.101 96.8159 296.671 96.5398C296.242 96.2638 295.912 95.8881 295.682 95.4127C295.452 94.9335 295.337 94.3949 295.337 93.7968V93.6646ZM296.597 93.7968C296.597 94.184 296.654 94.5406 296.769 94.8664C296.884 95.1923 297.061 95.4549 297.298 95.6543C297.536 95.8498 297.839 95.9475 298.207 95.9475C298.575 95.9475 298.878 95.8498 299.115 95.6543C299.353 95.4549 299.529 95.1923 299.644 94.8664C299.759 94.5406 299.817 94.184 299.817 93.7968V93.6646C299.817 93.2812 299.759 92.9266 299.644 92.6007C299.529 92.271 299.351 92.0065 299.11 91.8072C298.872 91.6078 298.567 91.5081 298.195 91.5081C297.835 91.5081 297.534 91.6078 297.292 91.8072C297.055 92.0065 296.878 92.271 296.763 92.6007C296.652 92.9266 296.597 93.2812 296.597 93.6646V93.7968ZM305.792 90.6168H307.08L304.895 96.8389H304.067L304.199 95.798L305.792 90.6168ZM304.561 95.8153L304.665 96.8389H303.842L301.634 90.6168H302.928L304.561 95.8153ZM310.691 96.9539C310.093 96.9539 309.576 96.8235 309.139 96.5628C308.702 96.2983 308.362 95.9399 308.121 95.4875C307.883 95.0313 307.764 94.5176 307.764 93.9464V93.7048C307.764 93.0454 307.889 92.4761 308.138 91.9969C308.391 91.5177 308.728 91.1497 309.15 90.8928C309.576 90.6321 310.039 90.5018 310.542 90.5018C311.14 90.5018 311.63 90.6341 312.014 90.8986C312.401 91.1593 312.689 91.5196 312.876 91.9797C313.064 92.4359 313.158 92.9592 313.158 93.5496V94.0959H308.425V93.1528H311.91V93.055C311.899 92.7943 311.847 92.5471 311.755 92.3132C311.667 92.0755 311.525 91.8819 311.33 91.7324C311.134 91.5829 310.869 91.5081 310.536 91.5081C310.225 91.5081 309.955 91.5963 309.725 91.7727C309.499 91.949 309.324 92.202 309.202 92.5317C309.079 92.8576 309.018 93.2486 309.018 93.7048V93.9464C309.018 94.3182 309.087 94.6556 309.225 94.9584C309.363 95.2613 309.562 95.5028 309.823 95.683C310.087 95.8594 310.402 95.9475 310.766 95.9475C311.119 95.9475 311.423 95.8766 311.68 95.7348C311.941 95.5929 312.167 95.3955 312.359 95.1425L313.06 95.775C312.865 96.074 312.575 96.3462 312.192 96.5916C311.809 96.8331 311.308 96.9539 310.691 96.9539ZM315.562 96.8389H314.308V90.6168H315.516L315.562 91.7152V96.8389ZM317.471 91.7497C317.379 91.7343 317.289 91.7228 317.201 91.7152C317.113 91.7075 317.021 91.7037 316.925 91.7037C316.603 91.7037 316.332 91.7669 316.114 91.8934C315.899 92.0161 315.734 92.1886 315.619 92.411C315.504 92.6295 315.435 92.8863 315.412 93.1815L315.096 93.2678C315.096 92.7541 315.163 92.2883 315.297 91.8704C315.435 91.4525 315.644 91.1209 315.924 90.8756C316.204 90.6264 316.561 90.5018 316.994 90.5018C317.07 90.5018 317.159 90.5095 317.258 90.5248C317.358 90.5401 317.431 90.5593 317.477 90.5823L317.471 91.7497ZM321.663 90.6168H322.474L322.284 91.8934L320.749 96.8389H320.007L320.151 95.568L321.663 90.6168ZM320.456 95.6083L320.542 96.8389H319.725L317.983 90.6168H319.219L320.456 95.6083ZM325.079 90.6168H326.31L324.567 96.8389H323.756L323.894 95.5565L325.079 90.6168ZM324.119 95.5047L324.291 96.8389H323.544L321.974 91.8877L321.79 90.6168H322.635L324.119 95.5047ZM328.564 96.8389H327.304V88.0061H328.564V96.8389ZM327.856 93.4863C327.86 92.9151 327.966 92.4052 328.173 91.9567C328.38 91.5081 328.667 91.1535 329.035 90.8928C329.407 90.6321 329.84 90.5018 330.335 90.5018C330.745 90.5018 331.1 90.5785 331.399 90.7318C331.702 90.8852 331.936 91.1305 332.1 91.4679C332.269 91.8052 332.353 92.2519 332.353 92.8078V96.8389H331.094V92.7963C331.094 92.4896 331.05 92.2442 330.962 92.0602C330.874 91.8723 330.743 91.7382 330.571 91.6576C330.398 91.5733 330.185 91.5311 329.932 91.5311C329.676 91.5311 329.447 91.5829 329.248 91.6864C329.049 91.7899 328.878 91.9337 328.736 92.1177C328.598 92.2979 328.493 92.5068 328.42 92.7445C328.347 92.9784 328.311 93.2295 328.311 93.4978L327.856 93.4863ZM336.511 96.9539C335.913 96.9539 335.395 96.8235 334.958 96.5628C334.521 96.2983 334.182 95.9399 333.941 95.4875C333.703 95.0313 333.584 94.5176 333.584 93.9464V93.7048C333.584 93.0454 333.709 92.4761 333.958 91.9969C334.211 91.5177 334.548 91.1497 334.97 90.8928C335.395 90.6321 335.859 90.5018 336.362 90.5018C336.96 90.5018 337.45 90.6341 337.834 90.8986C338.221 91.1593 338.508 91.5196 338.696 91.9797C338.884 92.4359 338.978 92.9592 338.978 93.5496V94.0959H334.245V93.1528H337.73V93.055C337.719 92.7943 337.667 92.5471 337.575 92.3132C337.487 92.0755 337.345 91.8819 337.149 91.7324C336.954 91.5829 336.689 91.5081 336.356 91.5081C336.045 91.5081 335.775 91.5963 335.545 91.7727C335.319 91.949 335.144 92.202 335.022 92.5317C334.899 92.8576 334.838 93.2486 334.838 93.7048V93.9464C334.838 94.3182 334.907 94.6556 335.045 94.9584C335.183 95.2613 335.382 95.5028 335.643 95.683C335.907 95.8594 336.222 95.9475 336.586 95.9475C336.938 95.9475 337.243 95.8766 337.5 95.7348C337.761 95.5929 337.987 95.3955 338.179 95.1425L338.88 95.775C338.685 96.074 338.395 96.3462 338.012 96.5916C337.629 96.8331 337.128 96.9539 336.511 96.9539ZM341.474 96.8389H340.22V88.0061H341.474V96.8389ZM344.326 96.8389H343.072V90.6168H344.257L344.326 91.8704V96.8389ZM343.607 93.4863C343.607 92.9151 343.701 92.4052 343.889 91.9567C344.081 91.5081 344.36 91.1535 344.729 90.8928C345.1 90.6321 345.562 90.5018 346.114 90.5018C346.689 90.5018 347.161 90.6724 347.529 91.0136C347.901 91.3548 348.087 91.9145 348.087 92.6927V96.8389H346.833V92.7847C346.833 92.4781 346.783 92.2327 346.684 92.0487C346.584 91.8647 346.444 91.7324 346.264 91.6519C346.084 91.5714 345.869 91.5311 345.62 91.5311C345.34 91.5311 345.102 91.5829 344.907 91.6864C344.715 91.7899 344.56 91.9337 344.441 92.1177C344.322 92.2979 344.236 92.5068 344.182 92.7445C344.129 92.9784 344.102 93.2295 344.102 93.4978L343.607 93.4863ZM347.345 93.216C347.349 92.733 347.443 92.2864 347.627 91.8762C347.815 91.4621 348.091 91.1305 348.455 90.8813C348.819 90.6283 349.266 90.5018 349.795 90.5018C350.228 90.5018 350.598 90.5804 350.905 90.7376C351.211 90.8909 351.445 91.1363 351.606 91.4736C351.771 91.8072 351.853 92.2442 351.853 92.7847V96.8389H350.594V92.779C350.594 92.4531 350.544 92.2001 350.445 92.0199C350.349 91.8397 350.211 91.7132 350.031 91.6404C349.85 91.5676 349.638 91.5311 349.392 91.5311C349.17 91.5311 348.974 91.5714 348.806 91.6519C348.637 91.7286 348.495 91.8378 348.38 91.9797C348.269 92.1177 348.183 92.2768 348.121 92.457C348.064 92.6372 348.035 92.8308 348.035 93.0378L347.345 93.216ZM355.672 96.9539C355.112 96.9539 354.639 96.8542 354.251 96.6549C353.868 96.4555 353.577 96.2006 353.377 95.89C353.178 95.5757 353.078 95.246 353.078 94.9009H354.309C354.324 95.1693 354.401 95.384 354.539 95.545C354.677 95.706 354.848 95.821 355.051 95.89C355.258 95.959 355.467 95.9935 355.678 95.9935C355.946 95.9935 356.17 95.959 356.35 95.89C356.531 95.8172 356.667 95.7194 356.759 95.5968C356.854 95.4702 356.902 95.3265 356.902 95.1655C356.902 95.0236 356.868 94.8933 356.799 94.7744C356.734 94.6518 356.601 94.5406 356.402 94.4409C356.207 94.3412 355.913 94.2511 355.522 94.1706C355.074 94.0786 354.681 93.9579 354.343 93.8083C354.01 93.655 353.751 93.4614 353.567 93.2275C353.383 92.9899 353.291 92.6985 353.291 92.3535C353.291 92.0199 353.387 91.7132 353.579 91.4334C353.77 91.1535 354.042 90.9292 354.395 90.7606C354.752 90.5881 355.17 90.5018 355.649 90.5018C356.159 90.5018 356.596 90.59 356.96 90.7663C357.328 90.9388 357.608 91.1727 357.799 91.4679C357.995 91.7631 358.093 92.0947 358.093 92.4627H356.839C356.839 92.2097 356.738 91.9797 356.534 91.7727C356.331 91.5656 356.036 91.4621 355.649 91.4621C355.388 91.4621 355.173 91.5024 355.005 91.5829C354.84 91.6634 354.717 91.7688 354.637 91.8992C354.56 92.0257 354.522 92.1618 354.522 92.3075C354.522 92.4493 354.56 92.5739 354.637 92.6812C354.713 92.7847 354.848 92.8787 355.039 92.963C355.235 93.0435 355.513 93.124 355.873 93.2045C356.364 93.3119 356.778 93.4441 357.115 93.6013C357.453 93.7547 357.707 93.9521 357.88 94.1936C358.056 94.4351 358.144 94.7361 358.144 95.0965C358.144 95.4568 358.041 95.7789 357.834 96.0625C357.631 96.3424 357.343 96.5609 356.971 96.7181C356.603 96.8753 356.17 96.9539 355.672 96.9539ZM270.144 101.466L272.697 108.073L275.251 101.466H276.453L273.169 109.839H272.22L268.937 101.466H270.144ZM269.563 101.466L269.753 106.866V109.839H268.454V101.466H269.563ZM276.936 101.466V109.839H275.636V106.866L275.826 101.466H276.936ZM284.17 109.839H279.748V108.792H284.17V109.839ZM280.064 109.839H278.759V101.466H280.064V109.839ZM283.583 106.038H279.748V105.003H283.583V106.038ZM284.124 102.518H279.748V101.466H284.124V102.518ZM288.201 109.954C287.806 109.954 287.417 109.9 287.034 109.793C286.654 109.686 286.307 109.523 285.993 109.304C285.682 109.086 285.435 108.813 285.251 108.487C285.067 108.162 284.975 107.782 284.975 107.349H286.274C286.274 107.625 286.324 107.863 286.424 108.062C286.528 108.257 286.667 108.418 286.844 108.545C287.024 108.672 287.229 108.765 287.459 108.827C287.693 108.884 287.94 108.913 288.201 108.913C288.561 108.913 288.862 108.863 289.104 108.764C289.349 108.66 289.535 108.518 289.662 108.338C289.788 108.154 289.851 107.941 289.851 107.7C289.851 107.454 289.8 107.247 289.696 107.079C289.596 106.906 289.41 106.749 289.138 106.607C288.866 106.461 288.477 106.314 287.971 106.164C287.565 106.045 287.195 105.909 286.861 105.756C286.531 105.603 286.244 105.428 285.998 105.233C285.753 105.033 285.563 104.803 285.429 104.543C285.299 104.282 285.234 103.983 285.234 103.646C285.234 103.201 285.356 102.806 285.602 102.461C285.847 102.116 286.188 101.846 286.625 101.65C287.062 101.451 287.57 101.351 288.149 101.351C288.778 101.351 289.317 101.468 289.765 101.702C290.214 101.936 290.555 102.246 290.789 102.633C291.026 103.021 291.145 103.442 291.145 103.899H289.84C289.84 103.607 289.778 103.348 289.656 103.122C289.533 102.896 289.345 102.72 289.092 102.593C288.843 102.463 288.527 102.398 288.143 102.398C287.779 102.398 287.478 102.453 287.241 102.564C287.003 102.672 286.827 102.819 286.712 103.007C286.597 103.191 286.539 103.402 286.539 103.64C286.539 103.858 286.604 104.052 286.735 104.221C286.869 104.389 287.074 104.543 287.35 104.681C287.626 104.815 287.977 104.945 288.402 105.072C289.027 105.248 289.543 105.455 289.949 105.693C290.359 105.93 290.662 106.212 290.858 106.538C291.057 106.864 291.157 107.247 291.157 107.688C291.157 108.148 291.034 108.549 290.789 108.89C290.547 109.231 290.204 109.494 289.759 109.678C289.318 109.862 288.799 109.954 288.201 109.954Z" fill="#FF3B27"/>
<path d="M261.977 240.308H262.605V239.051H261.977V239.68V240.308ZM172.795 239.051H172.166V240.308H172.795V239.68V239.051ZM261.977 239.68V239.051H172.795V239.68V240.308H261.977V239.68Z" fill="#FFBFB5"/>
<rect x="128.203" y="216.269" width="44.5908" height="44.5921" rx="22.2954" fill="#FFE8E5"/>
<path d="M150.502 233.966V236.893M150.502 242.745H150.517M140.125 248.598H160.88C163.186 248.598 164.627 246.159 163.474 244.208L153.097 226.65C151.943 224.7 149.062 224.7 147.908 226.65L137.531 244.208C136.378 246.159 137.819 248.598 140.125 248.598Z" stroke="#FF604F" stroke-width="3.7713" stroke-linecap="round" stroke-linejoin="round"/>
<path d="M273.566 230.044H274.998L271.95 238.417H270.967L271.248 236.991L273.566 230.044ZM271.404 236.991L271.708 238.417H270.719L267.683 230.044H269.109L271.404 236.991ZM279.173 234.185C279.173 233.836 279.073 233.56 278.874 233.357C278.678 233.15 278.383 233.046 277.988 233.046C277.746 233.046 277.536 233.088 277.355 233.173C277.175 233.253 277.035 233.362 276.936 233.5C276.836 233.638 276.786 233.792 276.786 233.96H275.533C275.533 233.642 275.636 233.341 275.843 233.058C276.05 232.77 276.343 232.536 276.723 232.356C277.102 232.172 277.547 232.08 278.057 232.08C278.517 232.08 278.925 232.159 279.282 232.316C279.642 232.469 279.924 232.703 280.127 233.017C280.33 233.332 280.432 233.725 280.432 234.196V237.014C280.432 237.263 280.451 237.503 280.489 237.733C280.528 237.959 280.583 238.156 280.656 238.325V238.417H279.368C279.307 238.279 279.259 238.101 279.224 237.882C279.19 237.66 279.173 237.447 279.173 237.244V234.185ZM279.368 235.45H278.362C277.806 235.45 277.382 235.546 277.091 235.737C276.8 235.925 276.654 236.193 276.654 236.542C276.654 236.815 276.746 237.043 276.93 237.227C277.114 237.411 277.378 237.503 277.723 237.503C278.026 237.503 278.293 237.441 278.523 237.319C278.753 237.192 278.933 237.037 279.063 236.853C279.194 236.669 279.263 236.492 279.27 236.324L279.73 236.899C279.692 237.06 279.615 237.234 279.5 237.422C279.389 237.606 279.24 237.783 279.052 237.951C278.864 238.12 278.642 238.26 278.385 238.371C278.128 238.478 277.835 238.532 277.505 238.532C277.091 238.532 276.725 238.451 276.407 238.29C276.092 238.129 275.845 237.909 275.665 237.629C275.488 237.345 275.4 237.031 275.4 236.686C275.4 236.019 275.649 235.511 276.148 235.162C276.65 234.809 277.342 234.633 278.224 234.633H279.368V235.45ZM283.324 238.417H282.071V229.584H283.324V238.417ZM285.665 229.872C285.899 229.872 286.079 229.939 286.205 230.073C286.332 230.203 286.395 230.364 286.395 230.556C286.395 230.748 286.332 230.909 286.205 231.039C286.079 231.169 285.899 231.235 285.665 231.235C285.435 231.235 285.257 231.169 285.13 231.039C285.007 230.909 284.946 230.748 284.946 230.556C284.946 230.364 285.007 230.203 285.13 230.073C285.257 229.939 285.435 229.872 285.665 229.872ZM286.297 238.417H285.044V232.195H286.297V238.417ZM290.11 238.532C289.616 238.532 289.184 238.396 288.816 238.124C288.452 237.848 288.168 237.472 287.965 236.997C287.766 236.521 287.666 235.981 287.666 235.375V235.254C287.666 234.622 287.766 234.068 287.965 233.592C288.168 233.113 288.452 232.741 288.816 232.477C289.184 232.212 289.619 232.08 290.122 232.08C290.635 232.08 291.063 232.205 291.404 232.454C291.749 232.703 292.019 233.054 292.215 233.506C292.41 233.955 292.539 234.484 292.6 235.093V235.553C292.539 236.147 292.41 236.669 292.215 237.117C292.023 237.562 291.755 237.909 291.41 238.158C291.065 238.407 290.631 238.532 290.11 238.532ZM290.426 237.497C290.756 237.497 291.028 237.426 291.243 237.284C291.458 237.138 291.626 236.947 291.749 236.709C291.875 236.471 291.969 236.207 292.031 235.916V234.737C291.996 234.514 291.939 234.305 291.858 234.11C291.782 233.914 291.68 233.742 291.553 233.592C291.427 233.443 291.272 233.326 291.088 233.242C290.904 233.153 290.687 233.109 290.438 233.109C290.077 233.109 289.786 233.207 289.564 233.403C289.341 233.594 289.178 233.853 289.075 234.179C288.971 234.505 288.92 234.863 288.92 235.254V235.375C288.92 235.766 288.971 236.123 289.075 236.445C289.178 236.763 289.34 237.018 289.558 237.209C289.78 237.401 290.07 237.497 290.426 237.497ZM291.887 238.417L291.772 237.163V229.584H293.031V238.417H291.887ZM298.149 234.185C298.149 233.836 298.05 233.56 297.85 233.357C297.655 233.15 297.36 233.046 296.965 233.046C296.723 233.046 296.512 233.088 296.332 233.173C296.152 233.253 296.012 233.362 295.912 233.5C295.813 233.638 295.763 233.792 295.763 233.96H294.509C294.509 233.642 294.613 233.341 294.82 233.058C295.027 232.77 295.32 232.536 295.7 232.356C296.079 232.172 296.524 232.08 297.034 232.08C297.494 232.08 297.902 232.159 298.259 232.316C298.619 232.469 298.901 232.703 299.104 233.017C299.307 233.332 299.409 233.725 299.409 234.196V237.014C299.409 237.263 299.428 237.503 299.466 237.733C299.505 237.959 299.56 238.156 299.633 238.325V238.417H298.345C298.283 238.279 298.236 238.101 298.201 237.882C298.167 237.66 298.149 237.447 298.149 237.244V234.185ZM298.345 235.45H297.338C296.783 235.45 296.359 235.546 296.068 235.737C295.776 235.925 295.631 236.193 295.631 236.542C295.631 236.815 295.723 237.043 295.907 237.227C296.091 237.411 296.355 237.503 296.7 237.503C297.003 237.503 297.269 237.441 297.499 237.319C297.73 237.192 297.91 237.037 298.04 236.853C298.17 236.669 298.239 236.492 298.247 236.324L298.707 236.899C298.669 237.06 298.592 237.234 298.477 237.422C298.366 237.606 298.216 237.783 298.029 237.951C297.841 238.12 297.618 238.26 297.361 238.371C297.105 238.478 296.811 238.532 296.482 238.532C296.068 238.532 295.701 238.451 295.383 238.29C295.069 238.129 294.822 237.909 294.641 237.629C294.465 237.345 294.377 237.031 294.377 236.686C294.377 236.019 294.626 235.511 295.125 235.162C295.627 234.809 296.319 234.633 297.2 234.633H298.345V235.45ZM303.71 233.127H300.254V232.195H303.71V233.127ZM302.577 230.677V236.767C302.577 236.97 302.606 237.123 302.663 237.227C302.725 237.33 302.805 237.399 302.905 237.434C303.008 237.468 303.122 237.485 303.244 237.485C303.336 237.485 303.428 237.48 303.52 237.468C303.616 237.453 303.689 237.439 303.739 237.428V238.405C303.635 238.44 303.513 238.469 303.371 238.492C303.229 238.519 303.06 238.532 302.865 238.532C302.573 238.532 302.311 238.478 302.077 238.371C301.843 238.26 301.659 238.08 301.525 237.83C301.391 237.577 301.324 237.24 301.324 236.818V230.677H302.577ZM305.596 229.872C305.83 229.872 306.01 229.939 306.137 230.073C306.263 230.203 306.327 230.364 306.327 230.556C306.327 230.748 306.263 230.909 306.137 231.039C306.01 231.169 305.83 231.235 305.596 231.235C305.366 231.235 305.188 231.169 305.061 231.039C304.939 230.909 304.877 230.748 304.877 230.556C304.877 230.364 304.939 230.203 305.061 230.073C305.188 229.939 305.366 229.872 305.596 229.872ZM306.229 238.417H304.975V232.195H306.229V238.417ZM307.586 235.243C307.586 234.641 307.701 234.102 307.931 233.627C308.161 233.151 308.489 232.776 308.914 232.5C309.344 232.22 309.854 232.08 310.444 232.08C311.046 232.08 311.561 232.22 311.991 232.5C312.42 232.776 312.748 233.151 312.974 233.627C313.204 234.102 313.319 234.641 313.319 235.243V235.375C313.319 235.973 313.204 236.512 312.974 236.991C312.748 237.466 312.42 237.842 311.991 238.118C311.565 238.394 311.053 238.532 310.455 238.532C309.861 238.532 309.349 238.394 308.92 238.118C308.491 237.842 308.161 237.466 307.931 236.991C307.701 236.512 307.586 235.973 307.586 235.375V235.243ZM308.845 235.375C308.845 235.762 308.903 236.119 309.018 236.445C309.133 236.77 309.309 237.033 309.547 237.232C309.785 237.428 310.087 237.526 310.455 237.526C310.823 237.526 311.126 237.428 311.364 237.232C311.602 237.033 311.778 236.77 311.893 236.445C312.008 236.119 312.066 235.762 312.066 235.375V235.243C312.066 234.859 312.008 234.505 311.893 234.179C311.778 233.849 311.6 233.585 311.358 233.385C311.121 233.186 310.816 233.086 310.444 233.086C310.084 233.086 309.783 233.186 309.541 233.385C309.303 233.585 309.127 233.849 309.012 234.179C308.901 234.505 308.845 234.859 308.845 235.243V235.375ZM315.809 238.417H314.556V232.195H315.734L315.809 233.523V238.417ZM315.102 235.064C315.11 234.482 315.217 233.966 315.424 233.518C315.635 233.069 315.926 232.718 316.298 232.465C316.674 232.208 317.111 232.08 317.609 232.08C318.015 232.08 318.366 232.157 318.661 232.31C318.957 232.459 319.187 232.703 319.351 233.04C319.516 233.374 319.599 233.818 319.599 234.374V238.417H318.339V234.363C318.339 234.056 318.295 233.811 318.207 233.627C318.119 233.443 317.989 233.311 317.816 233.23C317.644 233.15 317.431 233.109 317.178 233.109C316.929 233.109 316.704 233.161 316.505 233.265C316.306 233.368 316.135 233.512 315.993 233.696C315.851 233.876 315.742 234.085 315.665 234.323C315.593 234.556 315.556 234.808 315.556 235.076L315.102 235.064ZM326.563 238.532C325.93 238.532 325.407 238.39 324.993 238.106C324.579 237.823 324.268 237.445 324.061 236.974C323.858 236.498 323.756 235.979 323.756 235.415V235.197C323.756 234.629 323.86 234.11 324.067 233.638C324.274 233.167 324.584 232.789 324.998 232.505C325.413 232.222 325.932 232.08 326.557 232.08C327.051 232.08 327.485 232.18 327.856 232.379C328.232 232.574 328.525 232.847 328.736 233.196C328.947 233.541 329.06 233.937 329.076 234.386H327.891C327.876 234.148 327.812 233.932 327.701 233.736C327.59 233.537 327.437 233.38 327.241 233.265C327.046 233.146 326.816 233.086 326.551 233.086C326.152 233.086 325.84 233.19 325.614 233.397C325.391 233.604 325.234 233.868 325.142 234.19C325.054 234.512 325.01 234.848 325.01 235.197V235.415C325.01 235.764 325.054 236.101 325.142 236.427C325.23 236.749 325.386 237.014 325.608 237.221C325.834 237.424 326.149 237.526 326.551 237.526C326.789 237.526 327.005 237.478 327.201 237.382C327.4 237.282 327.561 237.148 327.684 236.979C327.807 236.807 327.876 236.611 327.891 236.393H329.076C329.06 236.784 328.938 237.142 328.708 237.468C328.478 237.79 328.175 238.049 327.799 238.244C327.427 238.436 327.015 238.532 326.563 238.532ZM333.67 232.195H335.004L332.514 239.372C332.457 239.525 332.38 239.69 332.284 239.866C332.192 240.046 332.074 240.217 331.928 240.378C331.782 240.543 331.602 240.675 331.387 240.775C331.176 240.878 330.922 240.93 330.622 240.93C330.553 240.93 330.479 240.924 330.398 240.913C330.318 240.905 330.241 240.894 330.168 240.878C330.095 240.863 330.032 240.848 329.978 240.832V239.855C330.013 239.858 330.061 239.862 330.122 239.866C330.184 239.874 330.23 239.878 330.26 239.878C330.609 239.878 330.877 239.809 331.065 239.671C331.257 239.536 331.408 239.301 331.52 238.963L331.968 237.756L333.67 232.195ZM332.417 236.91L332.681 238.25L331.801 238.549L329.53 232.195H330.893L332.417 236.91ZM338.409 238.532C337.776 238.532 337.253 238.39 336.839 238.106C336.425 237.823 336.114 237.445 335.907 236.974C335.704 236.498 335.602 235.979 335.602 235.415V235.197C335.602 234.629 335.706 234.11 335.913 233.638C336.12 233.167 336.431 232.789 336.845 232.505C337.259 232.222 337.778 232.08 338.403 232.08C338.898 232.08 339.331 232.18 339.703 232.379C340.078 232.574 340.372 232.847 340.582 233.196C340.793 233.541 340.906 233.937 340.922 234.386H339.737C339.722 234.148 339.658 233.932 339.547 233.736C339.436 233.537 339.283 233.38 339.087 233.265C338.892 233.146 338.662 233.086 338.397 233.086C337.999 233.086 337.686 233.19 337.46 233.397C337.238 233.604 337.08 233.868 336.988 234.19C336.9 234.512 336.856 234.848 336.856 235.197V235.415C336.856 235.764 336.9 236.101 336.988 236.427C337.077 236.749 337.232 237.014 337.454 237.221C337.68 237.424 337.995 237.526 338.397 237.526C338.635 237.526 338.851 237.478 339.047 237.382C339.246 237.282 339.407 237.148 339.53 236.979C339.653 236.807 339.722 236.611 339.737 236.393H340.922C340.906 236.784 340.784 237.142 340.554 237.468C340.324 237.79 340.021 238.049 339.645 238.244C339.273 238.436 338.861 238.532 338.409 238.532ZM343.383 238.417H342.129V229.584H343.383V238.417ZM347.656 238.532C347.057 238.532 346.54 238.402 346.103 238.141C345.666 237.876 345.327 237.518 345.085 237.066C344.847 236.609 344.729 236.096 344.729 235.524V235.283C344.729 234.624 344.853 234.054 345.102 233.575C345.355 233.096 345.693 232.728 346.114 232.471C346.54 232.21 347.004 232.08 347.506 232.08C348.104 232.08 348.595 232.212 348.978 232.477C349.365 232.737 349.653 233.098 349.841 233.558C350.029 234.014 350.123 234.537 350.123 235.128V235.674H345.39V234.731H348.875V234.633C348.863 234.372 348.811 234.125 348.719 233.891C348.631 233.654 348.489 233.46 348.294 233.311C348.098 233.161 347.834 233.086 347.5 233.086C347.19 233.086 346.919 233.174 346.689 233.351C346.463 233.527 346.289 233.78 346.166 234.11C346.043 234.436 345.982 234.827 345.982 235.283V235.524C345.982 235.896 346.051 236.234 346.189 236.537C346.327 236.839 346.527 237.081 346.787 237.261C347.052 237.437 347.366 237.526 347.73 237.526C348.083 237.526 348.388 237.455 348.645 237.313C348.905 237.171 349.132 236.974 349.323 236.721L350.025 237.353C349.829 237.652 349.54 237.924 349.156 238.17C348.773 238.411 348.273 238.532 347.656 238.532ZM353.59 238.532C353.03 238.532 352.557 238.432 352.17 238.233C351.786 238.034 351.495 237.779 351.296 237.468C351.096 237.154 350.997 236.824 350.997 236.479H352.227C352.243 236.747 352.319 236.962 352.457 237.123C352.595 237.284 352.766 237.399 352.969 237.468C353.176 237.537 353.385 237.572 353.596 237.572C353.864 237.572 354.088 237.537 354.269 237.468C354.449 237.395 354.585 237.298 354.677 237.175C354.773 237.048 354.821 236.905 354.821 236.744C354.821 236.602 354.786 236.471 354.717 236.353C354.652 236.23 354.52 236.119 354.32 236.019C354.125 235.919 353.832 235.829 353.441 235.749C352.992 235.657 352.599 235.536 352.262 235.386C351.928 235.233 351.669 235.04 351.485 234.806C351.301 234.568 351.209 234.277 351.209 233.932C351.209 233.598 351.305 233.291 351.497 233.012C351.689 232.732 351.961 232.507 352.313 232.339C352.67 232.166 353.088 232.08 353.567 232.08C354.077 232.08 354.514 232.168 354.878 232.344C355.246 232.517 355.526 232.751 355.718 233.046C355.913 233.341 356.011 233.673 356.011 234.041H354.757C354.757 233.788 354.656 233.558 354.453 233.351C354.249 233.144 353.954 233.04 353.567 233.04C353.306 233.04 353.092 233.081 352.923 233.161C352.758 233.242 352.635 233.347 352.555 233.477C352.478 233.604 352.44 233.74 352.44 233.886C352.44 234.027 352.478 234.152 352.555 234.259C352.632 234.363 352.766 234.457 352.958 234.541C353.153 234.622 353.431 234.702 353.791 234.783C354.282 234.89 354.696 235.022 355.033 235.179C355.371 235.333 355.626 235.53 355.798 235.772C355.975 236.013 356.063 236.314 356.063 236.675C356.063 237.035 355.959 237.357 355.752 237.641C355.549 237.921 355.262 238.139 354.89 238.296C354.522 238.453 354.088 238.532 353.59 238.532ZM269.563 251.417H268.31V242.584H269.563V251.417ZM270.696 248.151L269.184 249.703L268.948 248.542L270.058 247.19L271.875 245.195H273.393L270.696 248.151ZM270.098 248.478L270.829 247.512L273.652 251.417H272.191L270.098 248.478ZM275.118 242.872C275.352 242.872 275.533 242.939 275.659 243.073C275.786 243.203 275.849 243.364 275.849 243.556C275.849 243.748 275.786 243.909 275.659 244.039C275.533 244.169 275.352 244.235 275.118 244.235C274.888 244.235 274.71 244.169 274.584 244.039C274.461 243.909 274.4 243.748 274.4 243.556C274.4 243.364 274.461 243.203 274.584 243.073C274.71 242.939 274.888 242.872 275.118 242.872ZM275.751 251.417H274.497V245.195H275.751V251.417ZM278.724 251.417H277.47V242.584H278.724V251.417ZM281.668 251.417H280.415V242.584H281.668V251.417ZM289.777 247.185C289.777 246.836 289.677 246.56 289.478 246.357C289.282 246.15 288.987 246.046 288.592 246.046C288.35 246.046 288.14 246.088 287.959 246.173C287.779 246.253 287.639 246.362 287.54 246.5C287.44 246.638 287.39 246.792 287.39 246.96H286.136C286.136 246.642 286.24 246.341 286.447 246.058C286.654 245.77 286.947 245.536 287.327 245.356C287.706 245.172 288.151 245.08 288.661 245.08C289.121 245.08 289.529 245.159 289.886 245.316C290.246 245.469 290.528 245.703 290.731 246.017C290.934 246.332 291.036 246.725 291.036 247.196V250.014C291.036 250.263 291.055 250.503 291.093 250.733C291.132 250.959 291.187 251.156 291.26 251.325V251.417H289.972C289.911 251.279 289.863 251.101 289.828 250.882C289.794 250.66 289.777 250.447 289.777 250.244V247.185ZM289.972 248.45H288.966C288.41 248.45 287.986 248.546 287.695 248.737C287.403 248.925 287.258 249.193 287.258 249.542C287.258 249.815 287.35 250.043 287.534 250.227C287.718 250.411 287.982 250.503 288.327 250.503C288.63 250.503 288.897 250.441 289.127 250.319C289.357 250.192 289.537 250.037 289.667 249.853C289.798 249.669 289.867 249.492 289.874 249.324L290.334 249.899C290.296 250.06 290.219 250.234 290.104 250.422C289.993 250.606 289.844 250.783 289.656 250.951C289.468 251.12 289.246 251.26 288.989 251.371C288.732 251.478 288.439 251.532 288.109 251.532C287.695 251.532 287.329 251.451 287.011 251.29C286.696 251.129 286.449 250.909 286.269 250.629C286.092 250.345 286.004 250.031 286.004 249.686C286.004 249.019 286.253 248.511 286.752 248.162C287.254 247.809 287.946 247.633 288.828 247.633H289.972V248.45ZM294.981 253.872C294.755 253.872 294.496 253.838 294.204 253.769C293.917 253.7 293.635 253.589 293.359 253.435C293.083 253.282 292.853 253.077 292.669 252.82L293.284 252.078C293.522 252.362 293.779 252.565 294.055 252.688C294.335 252.814 294.617 252.878 294.9 252.878C295.383 252.878 295.765 252.742 296.045 252.469C296.328 252.201 296.47 251.81 296.47 251.296V246.587L296.585 245.195H297.73V251.262C297.73 251.814 297.613 252.285 297.379 252.676C297.145 253.067 296.821 253.365 296.407 253.568C295.997 253.771 295.521 253.872 294.981 253.872ZM294.803 251.532C294.3 251.532 293.863 251.396 293.491 251.124C293.123 250.848 292.838 250.472 292.635 249.997C292.435 249.521 292.336 248.981 292.336 248.375V248.254C292.336 247.622 292.435 247.068 292.635 246.592C292.834 246.113 293.12 245.741 293.491 245.477C293.863 245.212 294.304 245.08 294.814 245.08C295.213 245.08 295.556 245.151 295.843 245.293C296.135 245.435 296.378 245.638 296.574 245.902C296.773 246.167 296.93 246.485 297.045 246.857C297.16 247.225 297.243 247.637 297.292 248.093V248.553C297.231 249.147 297.103 249.669 296.907 250.117C296.716 250.562 296.447 250.909 296.102 251.158C295.757 251.407 295.324 251.532 294.803 251.532ZM295.119 250.497C295.452 250.497 295.726 250.426 295.941 250.284C296.156 250.138 296.326 249.947 296.453 249.709C296.579 249.471 296.671 249.207 296.729 248.916V247.737C296.694 247.514 296.639 247.305 296.562 247.11C296.489 246.914 296.388 246.742 296.257 246.592C296.127 246.443 295.968 246.326 295.78 246.242C295.596 246.153 295.379 246.109 295.13 246.109C294.77 246.109 294.477 246.207 294.25 246.403C294.024 246.594 293.857 246.853 293.75 247.179C293.643 247.505 293.589 247.863 293.589 248.254V248.375C293.589 248.766 293.641 249.123 293.744 249.445C293.852 249.763 294.019 250.018 294.245 250.209C294.471 250.401 294.762 250.497 295.119 250.497ZM299.972 242.872C300.206 242.872 300.386 242.939 300.513 243.073C300.639 243.203 300.703 243.364 300.703 243.556C300.703 243.748 300.639 243.909 300.513 244.039C300.386 244.169 300.206 244.235 299.972 244.235C299.742 244.235 299.564 244.169 299.437 244.039C299.315 243.909 299.253 243.748 299.253 243.556C299.253 243.364 299.315 243.203 299.437 243.073C299.564 242.939 299.742 242.872 299.972 242.872ZM300.605 251.417H299.351V245.195H300.605V251.417ZM303.578 251.417H302.324V242.584H303.578V251.417ZM305.918 242.872C306.152 242.872 306.332 242.939 306.459 243.073C306.585 243.203 306.649 243.364 306.649 243.556C306.649 243.748 306.585 243.909 306.459 244.039C306.332 244.169 306.152 244.235 305.918 244.235C305.688 244.235 305.51 244.169 305.383 244.039C305.261 243.909 305.199 243.748 305.199 243.556C305.199 243.364 305.261 243.203 305.383 243.073C305.51 242.939 305.688 242.872 305.918 242.872ZM306.551 251.417H305.297V245.195H306.551V251.417ZM310.933 246.127H307.477V245.195H310.933V246.127ZM309.8 243.677V249.767C309.8 249.97 309.829 250.123 309.886 250.227C309.947 250.33 310.028 250.399 310.128 250.434C310.231 250.468 310.344 250.485 310.467 250.485C310.559 250.485 310.651 250.48 310.743 250.468C310.839 250.453 310.912 250.439 310.961 250.428V251.405C310.858 251.44 310.735 251.469 310.593 251.492C310.452 251.519 310.283 251.532 310.087 251.532C309.796 251.532 309.533 251.478 309.3 251.371C309.066 251.26 308.882 251.08 308.748 250.83C308.613 250.577 308.546 250.24 308.546 249.818V243.677H309.8ZM315.556 245.195H316.89L314.4 252.372C314.343 252.525 314.266 252.69 314.17 252.866C314.078 253.046 313.959 253.217 313.814 253.378C313.668 253.543 313.488 253.675 313.273 253.775C313.062 253.878 312.807 253.93 312.508 253.93C312.439 253.93 312.365 253.924 312.284 253.913C312.204 253.905 312.127 253.894 312.054 253.878C311.981 253.863 311.918 253.848 311.864 253.832V252.855C311.899 252.858 311.947 252.862 312.008 252.866C312.069 252.874 312.115 252.878 312.146 252.878C312.495 252.878 312.763 252.809 312.951 252.671C313.143 252.536 313.294 252.301 313.405 251.963L313.854 250.756L315.556 245.195ZM314.303 249.91L314.567 251.25L313.687 251.549L311.416 245.195H312.779L314.303 249.91Z" fill="#FF3B27"/>
<path d="M273.951 301.514H269.489V300.468H273.951V301.514ZM269.759 305.304H268.454V296.931H269.759V305.304ZM275.009 305.304H273.71V296.931H275.009V305.304ZM280.265 301.071C280.265 300.722 280.166 300.446 279.966 300.243C279.771 300.036 279.475 299.933 279.081 299.933C278.839 299.933 278.628 299.975 278.448 300.059C278.268 300.14 278.128 300.249 278.028 300.387C277.929 300.525 277.879 300.678 277.879 300.847H276.625C276.625 300.529 276.729 300.228 276.936 299.944C277.143 299.657 277.436 299.423 277.815 299.243C278.195 299.059 278.64 298.967 279.15 298.967C279.61 298.967 280.018 299.045 280.374 299.202C280.735 299.356 281.017 299.59 281.22 299.904C281.423 300.218 281.525 300.611 281.525 301.083V303.901C281.525 304.15 281.544 304.389 281.582 304.619C281.62 304.846 281.676 305.043 281.749 305.212V305.304H280.461C280.399 305.166 280.351 304.987 280.317 304.769C280.282 304.547 280.265 304.334 280.265 304.131V301.071ZM280.461 302.336H279.454C278.898 302.336 278.475 302.432 278.183 302.624C277.892 302.812 277.746 303.08 277.746 303.429C277.746 303.701 277.838 303.929 278.022 304.113C278.206 304.297 278.471 304.389 278.816 304.389C279.119 304.389 279.385 304.328 279.615 304.205C279.845 304.079 280.026 303.924 280.156 303.74C280.286 303.556 280.355 303.379 280.363 303.211L280.823 303.786C280.785 303.947 280.708 304.121 280.593 304.309C280.482 304.493 280.332 304.669 280.144 304.838C279.957 305.007 279.734 305.147 279.477 305.258C279.221 305.365 278.927 305.419 278.598 305.419C278.183 305.419 277.817 305.338 277.499 305.177C277.185 305.016 276.938 304.796 276.757 304.516C276.581 304.232 276.493 303.918 276.493 303.573C276.493 302.906 276.742 302.398 277.24 302.049C277.743 301.696 278.435 301.52 279.316 301.52H280.461V302.336ZM284.325 305.304H283.071V299.082H284.279L284.325 300.18V305.304ZM286.234 300.214C286.142 300.199 286.052 300.188 285.964 300.18C285.876 300.172 285.784 300.168 285.688 300.168C285.366 300.168 285.096 300.232 284.877 300.358C284.662 300.481 284.498 300.653 284.383 300.876C284.268 301.094 284.199 301.351 284.176 301.646L283.859 301.733C283.859 301.219 283.926 300.753 284.061 300.335C284.199 299.917 284.407 299.586 284.687 299.34C284.967 299.091 285.324 298.967 285.757 298.967C285.834 298.967 285.922 298.974 286.021 298.99C286.121 299.005 286.194 299.024 286.24 299.047L286.234 300.214ZM289.34 305.419C288.845 305.419 288.414 305.283 288.046 305.01C287.681 304.734 287.398 304.359 287.195 303.883C286.995 303.408 286.896 302.867 286.896 302.262V302.141C286.896 301.508 286.995 300.954 287.195 300.479C287.398 300 287.681 299.628 288.046 299.363C288.414 299.099 288.849 298.967 289.351 298.967C289.865 298.967 290.292 299.091 290.633 299.34C290.978 299.59 291.249 299.94 291.444 300.393C291.64 300.841 291.768 301.37 291.829 301.98V302.44C291.768 303.034 291.64 303.556 291.444 304.004C291.253 304.449 290.984 304.796 290.639 305.045C290.294 305.294 289.861 305.419 289.34 305.419ZM289.656 304.384C289.985 304.384 290.258 304.313 290.472 304.171C290.687 304.025 290.856 303.833 290.978 303.596C291.105 303.358 291.199 303.094 291.26 302.802V301.623C291.226 301.401 291.168 301.192 291.088 300.997C291.011 300.801 290.909 300.629 290.783 300.479C290.656 300.33 290.501 300.213 290.317 300.128C290.133 300.04 289.916 299.996 289.667 299.996C289.307 299.996 289.016 300.094 288.793 300.289C288.571 300.481 288.408 300.74 288.304 301.066C288.201 301.391 288.149 301.75 288.149 302.141V302.262C288.149 302.653 288.201 303.009 288.304 303.331C288.408 303.649 288.569 303.904 288.787 304.096C289.01 304.288 289.299 304.384 289.656 304.384ZM291.116 305.304L291.001 304.05V296.471H292.261V305.304H291.116ZM299.489 300.013H296.033V299.082H299.489V300.013ZM298.356 297.564V303.653C298.356 303.856 298.385 304.01 298.443 304.113C298.504 304.217 298.584 304.286 298.684 304.32C298.788 304.355 298.901 304.372 299.023 304.372C299.115 304.372 299.207 304.366 299.299 304.355C299.395 304.34 299.468 304.326 299.518 304.315V305.292C299.414 305.327 299.292 305.355 299.15 305.378C299.008 305.405 298.839 305.419 298.644 305.419C298.352 305.419 298.09 305.365 297.856 305.258C297.622 305.147 297.438 304.966 297.304 304.717C297.17 304.464 297.103 304.127 297.103 303.705V297.564H298.356ZM300.214 302.129C300.214 301.528 300.329 300.989 300.559 300.514C300.789 300.038 301.117 299.662 301.542 299.386C301.971 299.107 302.481 298.967 303.072 298.967C303.674 298.967 304.189 299.107 304.619 299.386C305.048 299.662 305.376 300.038 305.602 300.514C305.832 300.989 305.947 301.528 305.947 302.129V302.262C305.947 302.86 305.832 303.398 305.602 303.878C305.376 304.353 305.048 304.729 304.619 305.005C304.193 305.281 303.681 305.419 303.083 305.419C302.489 305.419 301.977 305.281 301.548 305.005C301.118 304.729 300.789 304.353 300.559 303.878C300.329 303.398 300.214 302.86 300.214 302.262V302.129ZM301.473 302.262C301.473 302.649 301.531 303.005 301.646 303.331C301.761 303.657 301.937 303.92 302.175 304.119C302.412 304.315 302.715 304.412 303.083 304.412C303.451 304.412 303.754 304.315 303.992 304.119C304.23 303.92 304.406 303.657 304.521 303.331C304.636 303.005 304.693 302.649 304.693 302.262V302.129C304.693 301.746 304.636 301.391 304.521 301.066C304.406 300.736 304.228 300.471 303.986 300.272C303.748 300.073 303.444 299.973 303.072 299.973C302.711 299.973 302.41 300.073 302.169 300.272C301.931 300.471 301.755 300.736 301.64 301.066C301.529 301.391 301.473 301.746 301.473 302.129V302.262ZM312.439 305.419C311.88 305.419 311.406 305.319 311.019 305.12C310.636 304.92 310.344 304.665 310.145 304.355C309.946 304.041 309.846 303.711 309.846 303.366H311.076C311.092 303.634 311.168 303.849 311.306 304.01C311.445 304.171 311.615 304.286 311.818 304.355C312.025 304.424 312.234 304.458 312.445 304.458C312.713 304.458 312.938 304.424 313.118 304.355C313.298 304.282 313.434 304.184 313.526 304.062C313.622 303.935 313.67 303.791 313.67 303.63C313.67 303.488 313.635 303.358 313.566 303.239C313.501 303.117 313.369 303.005 313.17 302.906C312.974 302.806 312.681 302.716 312.29 302.635C311.841 302.543 311.448 302.423 311.111 302.273C310.777 302.12 310.519 301.926 310.335 301.692C310.151 301.455 310.059 301.163 310.059 300.818C310.059 300.485 310.154 300.178 310.346 299.898C310.538 299.618 310.81 299.394 311.163 299.225C311.519 299.053 311.937 298.967 312.416 298.967C312.926 298.967 313.363 299.055 313.727 299.231C314.096 299.404 314.375 299.638 314.567 299.933C314.763 300.228 314.86 300.56 314.86 300.928H313.607C313.607 300.675 313.505 300.445 313.302 300.238C313.099 300.03 312.804 299.927 312.416 299.927C312.156 299.927 311.941 299.967 311.772 300.048C311.607 300.128 311.485 300.234 311.404 300.364C311.328 300.491 311.289 300.627 311.289 300.772C311.289 300.914 311.328 301.039 311.404 301.146C311.481 301.25 311.615 301.344 311.807 301.428C312.002 301.508 312.28 301.589 312.641 301.669C313.131 301.777 313.545 301.909 313.883 302.066C314.22 302.22 314.475 302.417 314.648 302.658C314.824 302.9 314.912 303.201 314.912 303.561C314.912 303.922 314.809 304.244 314.602 304.527C314.398 304.807 314.111 305.026 313.739 305.183C313.371 305.34 312.938 305.419 312.439 305.419ZM318.73 305.419C318.098 305.419 317.575 305.277 317.161 304.993C316.746 304.709 316.436 304.332 316.229 303.86C316.026 303.385 315.924 302.865 315.924 302.302V302.083C315.924 301.516 316.028 300.997 316.235 300.525C316.442 300.053 316.752 299.676 317.166 299.392C317.58 299.108 318.1 298.967 318.725 298.967C319.219 298.967 319.652 299.066 320.024 299.266C320.4 299.461 320.693 299.733 320.904 300.082C321.115 300.427 321.228 300.824 321.243 301.273H320.059C320.043 301.035 319.98 300.818 319.869 300.623C319.758 300.423 319.604 300.266 319.409 300.151C319.213 300.032 318.983 299.973 318.719 299.973C318.32 299.973 318.008 300.076 317.782 300.284C317.559 300.491 317.402 300.755 317.31 301.077C317.222 301.399 317.178 301.735 317.178 302.083V302.302C317.178 302.651 317.222 302.988 317.31 303.314C317.398 303.636 317.553 303.901 317.776 304.108C318.002 304.311 318.316 304.412 318.719 304.412C318.957 304.412 319.173 304.364 319.369 304.269C319.568 304.169 319.729 304.035 319.852 303.866C319.974 303.694 320.043 303.498 320.059 303.28H321.243C321.228 303.671 321.105 304.029 320.875 304.355C320.645 304.677 320.342 304.936 319.967 305.131C319.595 305.323 319.183 305.419 318.73 305.419ZM325.936 301.071C325.936 300.722 325.836 300.446 325.637 300.243C325.441 300.036 325.146 299.933 324.751 299.933C324.51 299.933 324.299 299.975 324.119 300.059C323.938 300.14 323.799 300.249 323.699 300.387C323.599 300.525 323.549 300.678 323.549 300.847H322.296C322.296 300.529 322.399 300.228 322.606 299.944C322.813 299.657 323.107 299.423 323.486 299.243C323.866 299.059 324.31 298.967 324.82 298.967C325.28 298.967 325.689 299.045 326.045 299.202C326.405 299.356 326.687 299.59 326.89 299.904C327.094 300.218 327.195 300.611 327.195 301.083V303.901C327.195 304.15 327.214 304.389 327.253 304.619C327.291 304.846 327.347 305.043 327.419 305.212V305.304H326.131C326.07 305.166 326.022 304.987 325.988 304.769C325.953 304.547 325.936 304.334 325.936 304.131V301.071ZM326.131 302.336H325.125C324.569 302.336 324.145 302.432 323.854 302.624C323.563 302.812 323.417 303.08 323.417 303.429C323.417 303.701 323.509 303.929 323.693 304.113C323.877 304.297 324.142 304.389 324.487 304.389C324.79 304.389 325.056 304.328 325.286 304.205C325.516 304.079 325.696 303.924 325.827 303.74C325.957 303.556 326.026 303.379 326.034 303.211L326.494 303.786C326.455 303.947 326.379 304.121 326.264 304.309C326.152 304.493 326.003 304.669 325.815 304.838C325.627 305.007 325.405 305.147 325.148 305.258C324.891 305.365 324.598 305.419 324.268 305.419C323.854 305.419 323.488 305.338 323.17 305.177C322.855 305.016 322.608 304.796 322.428 304.516C322.252 304.232 322.163 303.918 322.163 303.573C322.163 302.906 322.413 302.398 322.911 302.049C323.413 301.696 324.105 301.52 324.987 301.52H326.131V302.336ZM330.088 305.304H328.834V296.471H330.088V305.304ZM334.36 305.419C333.762 305.419 333.245 305.288 332.808 305.028C332.371 304.763 332.031 304.405 331.79 303.952C331.552 303.496 331.433 302.982 331.433 302.411V302.17C331.433 301.51 331.558 300.941 331.807 300.462C332.06 299.983 332.397 299.615 332.819 299.358C333.245 299.097 333.709 298.967 334.211 298.967C334.809 298.967 335.3 299.099 335.683 299.363C336.07 299.624 336.358 299.984 336.546 300.445C336.733 300.901 336.827 301.424 336.827 302.014V302.561H332.095V301.618H335.579V301.52C335.568 301.259 335.516 301.012 335.424 300.778C335.336 300.54 335.194 300.347 334.999 300.197C334.803 300.048 334.539 299.973 334.205 299.973C333.895 299.973 333.624 300.061 333.394 300.238C333.168 300.414 332.994 300.667 332.871 300.997C332.748 301.322 332.687 301.713 332.687 302.17V302.411C332.687 302.783 332.756 303.12 332.894 303.423C333.032 303.726 333.231 303.968 333.492 304.148C333.757 304.324 334.071 304.412 334.435 304.412C334.788 304.412 335.093 304.341 335.349 304.2C335.61 304.058 335.836 303.86 336.028 303.607L336.73 304.24C336.534 304.539 336.245 304.811 335.861 305.056C335.478 305.298 334.978 305.419 334.36 305.419ZM270.84 318.419C270.208 318.419 269.684 318.277 269.27 317.993C268.856 317.709 268.546 317.332 268.339 316.86C268.135 316.385 268.034 315.865 268.034 315.302V315.083C268.034 314.516 268.137 313.997 268.344 313.525C268.551 313.053 268.862 312.676 269.276 312.392C269.69 312.108 270.209 311.967 270.834 311.967C271.329 311.967 271.762 312.066 272.134 312.266C272.51 312.461 272.803 312.733 273.014 313.082C273.225 313.427 273.338 313.824 273.353 314.273H272.168C272.153 314.035 272.09 313.818 271.979 313.623C271.868 313.423 271.714 313.266 271.519 313.151C271.323 313.032 271.093 312.973 270.829 312.973C270.43 312.973 270.117 313.076 269.891 313.284C269.669 313.491 269.512 313.755 269.42 314.077C269.332 314.399 269.287 314.735 269.287 315.083V315.302C269.287 315.651 269.332 315.988 269.42 316.314C269.508 316.636 269.663 316.901 269.885 317.108C270.112 317.311 270.426 317.412 270.829 317.412C271.066 317.412 271.283 317.364 271.478 317.269C271.678 317.169 271.839 317.035 271.961 316.866C272.084 316.694 272.153 316.498 272.168 316.28H273.353C273.338 316.671 273.215 317.029 272.985 317.355C272.755 317.677 272.452 317.936 272.076 318.131C271.705 318.323 271.292 318.419 270.84 318.419ZM274.198 315.129C274.198 314.528 274.313 313.989 274.543 313.514C274.773 313.038 275.101 312.662 275.527 312.386C275.956 312.107 276.466 311.967 277.056 311.967C277.658 311.967 278.174 312.107 278.603 312.386C279.033 312.662 279.36 313.038 279.587 313.514C279.817 313.989 279.932 314.528 279.932 315.129V315.262C279.932 315.86 279.817 316.398 279.587 316.878C279.36 317.353 279.033 317.729 278.603 318.005C278.178 318.281 277.666 318.419 277.068 318.419C276.474 318.419 275.962 318.281 275.533 318.005C275.103 317.729 274.773 317.353 274.543 316.878C274.313 316.398 274.198 315.86 274.198 315.262V315.129ZM275.458 315.262C275.458 315.649 275.515 316.005 275.63 316.331C275.745 316.657 275.922 316.92 276.159 317.119C276.397 317.315 276.7 317.412 277.068 317.412C277.436 317.412 277.739 317.315 277.976 317.119C278.214 316.92 278.391 316.657 278.506 316.331C278.621 316.005 278.678 315.649 278.678 315.262V315.129C278.678 314.746 278.621 314.391 278.506 314.066C278.391 313.736 278.212 313.471 277.971 313.272C277.733 313.073 277.428 312.973 277.056 312.973C276.696 312.973 276.395 313.073 276.154 313.272C275.916 313.471 275.74 313.736 275.625 314.066C275.513 314.391 275.458 314.746 275.458 315.129V315.262ZM282.422 318.304H281.168V312.082H282.347L282.422 313.41V318.304ZM281.714 314.951C281.722 314.368 281.829 313.853 282.036 313.404C282.247 312.956 282.539 312.605 282.91 312.352C283.286 312.095 283.723 311.967 284.222 311.967C284.628 311.967 284.979 312.043 285.274 312.197C285.569 312.346 285.799 312.59 285.964 312.927C286.129 313.261 286.211 313.705 286.211 314.261V318.304H284.952V314.25C284.952 313.943 284.908 313.698 284.82 313.514C284.731 313.33 284.601 313.197 284.429 313.117C284.256 313.036 284.043 312.996 283.79 312.996C283.541 312.996 283.317 313.048 283.117 313.151C282.918 313.255 282.747 313.399 282.606 313.583C282.464 313.763 282.355 313.972 282.278 314.209C282.205 314.443 282.169 314.694 282.169 314.963L281.714 314.951ZM290.024 318.419C289.464 318.419 288.991 318.319 288.603 318.12C288.22 317.92 287.929 317.665 287.729 317.355C287.53 317.041 287.43 316.711 287.43 316.366H288.661C288.676 316.634 288.753 316.849 288.891 317.01C289.029 317.171 289.2 317.286 289.403 317.355C289.61 317.424 289.819 317.458 290.03 317.458C290.298 317.458 290.522 317.424 290.702 317.355C290.883 317.282 291.019 317.184 291.111 317.062C291.207 316.935 291.254 316.791 291.254 316.63C291.254 316.488 291.22 316.358 291.151 316.239C291.086 316.117 290.953 316.005 290.754 315.906C290.559 315.806 290.265 315.716 289.874 315.635C289.426 315.543 289.033 315.423 288.695 315.273C288.362 315.12 288.103 314.926 287.919 314.692C287.735 314.455 287.643 314.163 287.643 313.818C287.643 313.485 287.739 313.178 287.931 312.898C288.122 312.618 288.395 312.394 288.747 312.225C289.104 312.053 289.522 311.967 290.001 311.967C290.511 311.967 290.948 312.055 291.312 312.231C291.68 312.404 291.96 312.638 292.152 312.933C292.347 313.228 292.445 313.56 292.445 313.928H291.191C291.191 313.675 291.09 313.445 290.886 313.238C290.683 313.03 290.388 312.927 290.001 312.927C289.74 312.927 289.525 312.967 289.357 313.048C289.192 313.128 289.069 313.234 288.989 313.364C288.912 313.491 288.874 313.627 288.874 313.772C288.874 313.914 288.912 314.039 288.989 314.146C289.065 314.25 289.2 314.344 289.391 314.428C289.587 314.508 289.865 314.589 290.225 314.669C290.716 314.777 291.13 314.909 291.467 315.066C291.805 315.22 292.06 315.417 292.232 315.658C292.408 315.9 292.497 316.201 292.497 316.561C292.497 316.922 292.393 317.244 292.186 317.527C291.983 317.807 291.695 318.026 291.323 318.183C290.955 318.34 290.522 318.419 290.024 318.419ZM294.521 309.758C294.755 309.758 294.935 309.826 295.061 309.96C295.188 310.09 295.251 310.251 295.251 310.443C295.251 310.634 295.188 310.795 295.061 310.926C294.935 311.056 294.755 311.121 294.521 311.121C294.291 311.121 294.112 311.056 293.986 310.926C293.863 310.795 293.802 310.634 293.802 310.443C293.802 310.251 293.863 310.09 293.986 309.96C294.112 309.826 294.291 309.758 294.521 309.758ZM295.153 318.304H293.9V312.082H295.153V318.304ZM299.098 318.419C298.538 318.419 298.065 318.319 297.678 318.12C297.294 317.92 297.003 317.665 296.804 317.355C296.604 317.041 296.505 316.711 296.505 316.366H297.735C297.751 316.634 297.827 316.849 297.965 317.01C298.103 317.171 298.274 317.286 298.477 317.355C298.684 317.424 298.893 317.458 299.104 317.458C299.372 317.458 299.597 317.424 299.777 317.355C299.957 317.282 300.093 317.184 300.185 317.062C300.281 316.935 300.329 316.791 300.329 316.63C300.329 316.488 300.294 316.358 300.225 316.239C300.16 316.117 300.028 316.005 299.828 315.906C299.633 315.806 299.34 315.716 298.949 315.635C298.5 315.543 298.107 315.423 297.77 315.273C297.436 315.12 297.177 314.926 296.993 314.692C296.809 314.455 296.717 314.163 296.717 313.818C296.717 313.485 296.813 313.178 297.005 312.898C297.197 312.618 297.469 312.394 297.822 312.225C298.178 312.053 298.596 311.967 299.075 311.967C299.585 311.967 300.022 312.055 300.386 312.231C300.754 312.404 301.034 312.638 301.226 312.933C301.421 313.228 301.519 313.56 301.519 313.928H300.265C300.265 313.675 300.164 313.445 299.961 313.238C299.758 313.03 299.462 312.927 299.075 312.927C298.814 312.927 298.6 312.967 298.431 313.048C298.266 313.128 298.144 313.234 298.063 313.364C297.986 313.491 297.948 313.627 297.948 313.772C297.948 313.914 297.986 314.039 298.063 314.146C298.14 314.25 298.274 314.344 298.466 314.428C298.661 314.508 298.939 314.589 299.299 314.669C299.79 314.777 300.204 314.909 300.542 315.066C300.879 315.22 301.134 315.417 301.306 315.658C301.483 315.9 301.571 316.201 301.571 316.561C301.571 316.922 301.467 317.244 301.26 317.527C301.057 317.807 300.77 318.026 300.398 318.183C300.03 318.34 299.597 318.419 299.098 318.419ZM305.608 313.013H302.152V312.082H305.608V313.013ZM304.475 310.564V316.653C304.475 316.856 304.504 317.01 304.561 317.113C304.622 317.217 304.703 317.286 304.803 317.32C304.906 317.355 305.019 317.372 305.142 317.372C305.234 317.372 305.326 317.366 305.418 317.355C305.514 317.34 305.587 317.326 305.636 317.315V318.292C305.533 318.327 305.41 318.355 305.268 318.378C305.127 318.405 304.958 318.419 304.762 318.419C304.471 318.419 304.208 318.365 303.975 318.258C303.741 318.147 303.557 317.966 303.423 317.717C303.288 317.464 303.221 317.127 303.221 316.705V310.564H304.475ZM309.426 318.419C308.828 318.419 308.31 318.288 307.873 318.028C307.436 317.763 307.097 317.405 306.856 316.952C306.618 316.496 306.499 315.982 306.499 315.411V315.17C306.499 314.51 306.624 313.941 306.873 313.462C307.126 312.983 307.463 312.615 307.885 312.358C308.31 312.097 308.774 311.967 309.277 311.967C309.875 311.967 310.365 312.099 310.749 312.363C311.136 312.624 311.423 312.984 311.611 313.445C311.799 313.901 311.893 314.424 311.893 315.014V315.561H307.16V314.618H310.645V314.52C310.634 314.259 310.582 314.012 310.49 313.778C310.402 313.54 310.26 313.347 310.064 313.197C309.869 313.048 309.604 312.973 309.271 312.973C308.96 312.973 308.69 313.061 308.46 313.238C308.234 313.414 308.059 313.667 307.937 313.997C307.814 314.322 307.753 314.713 307.753 315.17V315.411C307.753 315.783 307.822 316.12 307.96 316.423C308.098 316.726 308.297 316.968 308.558 317.148C308.822 317.324 309.137 317.412 309.501 317.412C309.854 317.412 310.158 317.341 310.415 317.2C310.676 317.058 310.902 316.86 311.094 316.607L311.795 317.24C311.6 317.539 311.31 317.811 310.927 318.056C310.544 318.298 310.043 318.419 309.426 318.419ZM314.291 318.304H313.037V312.082H314.216L314.291 313.41V318.304ZM313.584 314.951C313.591 314.368 313.699 313.853 313.906 313.404C314.117 312.956 314.408 312.605 314.78 312.352C315.156 312.095 315.593 311.967 316.091 311.967C316.497 311.967 316.848 312.043 317.143 312.197C317.438 312.346 317.668 312.59 317.833 312.927C317.998 313.261 318.081 313.705 318.081 314.261V318.304H316.821V314.25C316.821 313.943 316.777 313.698 316.689 313.514C316.601 313.33 316.47 313.197 316.298 313.117C316.125 313.036 315.913 312.996 315.66 312.996C315.41 312.996 315.186 313.048 314.987 313.151C314.787 313.255 314.617 313.399 314.475 313.583C314.333 313.763 314.224 313.972 314.147 314.209C314.074 314.443 314.038 314.694 314.038 314.963L313.584 314.951ZM322.33 313.013H318.874V312.082H322.33V313.013ZM321.197 310.564V316.653C321.197 316.856 321.226 317.01 321.284 317.113C321.345 317.217 321.425 317.286 321.525 317.32C321.629 317.355 321.742 317.372 321.864 317.372C321.956 317.372 322.048 317.366 322.14 317.355C322.236 317.34 322.309 317.326 322.359 317.315V318.292C322.255 318.327 322.133 318.355 321.991 318.378C321.849 318.405 321.68 318.419 321.485 318.419C321.194 318.419 320.931 318.365 320.697 318.258C320.463 318.147 320.279 317.966 320.145 317.717C320.011 317.464 319.944 317.127 319.944 316.705V310.564H321.197ZM324.82 318.304H323.567V309.471H324.82V318.304ZM329.898 312.082H331.232L328.742 319.258C328.685 319.412 328.608 319.576 328.512 319.753C328.42 319.933 328.301 320.104 328.156 320.265C328.01 320.429 327.83 320.562 327.615 320.661C327.404 320.765 327.149 320.817 326.85 320.817C326.781 320.817 326.706 320.811 326.626 320.799C326.545 320.792 326.469 320.78 326.396 320.765C326.323 320.75 326.26 320.734 326.206 320.719V319.741C326.241 319.745 326.289 319.749 326.35 319.753C326.411 319.761 326.457 319.764 326.488 319.764C326.837 319.764 327.105 319.695 327.293 319.557C327.485 319.423 327.636 319.187 327.747 318.85L328.196 317.642L329.898 312.082ZM328.644 316.797L328.909 318.137L328.029 318.436L325.758 312.082H327.12L328.644 316.797Z" fill="#FF3B27"/>
<rect x="69.4879" y="140.83" width="160.91" height="55.3662" rx="8.43667" fill="#F3F4F6"/>
<rect x="69.4879" y="140.83" width="160.91" height="55.3662" rx="8.43667" stroke="#E5E7EB" stroke-width="0.733623"/>
<path d="M101.631 164.054V172.972M97.1722 167.398V172.972M92.7131 170.743V172.972M90.4835 177.431H103.861C104.452 177.431 105.019 177.196 105.437 176.778C105.856 176.36 106.09 175.793 106.09 175.202V161.824C106.09 161.233 105.856 160.666 105.437 160.248C105.019 159.83 104.452 159.595 103.861 159.595H90.4835C89.8922 159.595 89.3251 159.83 88.9069 160.248C88.4888 160.666 88.2539 161.233 88.2539 161.824V175.202C88.2539 175.793 88.4888 176.36 88.9069 176.778C89.3251 177.196 89.8922 177.431 90.4835 177.431Z" stroke="#3F3F46" stroke-width="2.22957" stroke-linecap="round" stroke-linejoin="round"/>
<path d="M123.17 160.638L127.37 171.161L131.571 160.638H133.242L128.016 173.513H126.716L121.499 160.638H123.17ZM122.427 160.638L122.666 168.481V173.513H120.959V160.638H122.427ZM133.781 160.638V173.513H132.075V168.481L132.313 160.638H133.781ZM144.967 173.513H138.167V172.133H144.967V173.513ZM138.503 173.513H136.788V160.638H138.503V173.513ZM144.065 167.553H138.167V166.173H144.065V167.553ZM144.879 162.026H138.167V160.638H144.879V162.026ZM151.166 173.69C150.571 173.69 149.984 173.607 149.407 173.442C148.835 173.277 148.313 173.029 147.841 172.699C147.376 172.369 147.001 171.962 146.718 171.479C146.441 170.99 146.303 170.424 146.303 169.781H148.018C148.018 170.223 148.104 170.603 148.275 170.922C148.446 171.24 148.678 171.502 148.973 171.709C149.268 171.915 149.604 172.068 149.981 172.169C150.359 172.263 150.754 172.31 151.166 172.31C151.762 172.31 152.263 172.228 152.669 172.062C153.082 171.892 153.395 171.653 153.607 171.346C153.825 171.04 153.934 170.677 153.934 170.259C153.934 169.852 153.849 169.507 153.678 169.224C153.507 168.941 153.2 168.685 152.758 168.455C152.316 168.225 151.688 167.992 150.874 167.756C150.238 167.573 149.663 167.367 149.15 167.137C148.643 166.901 148.207 166.633 147.841 166.332C147.476 166.032 147.196 165.687 147.001 165.298C146.807 164.909 146.709 164.464 146.709 163.962C146.709 163.29 146.889 162.692 147.249 162.167C147.614 161.637 148.124 161.221 148.779 160.921C149.433 160.614 150.199 160.461 151.078 160.461C152.05 160.461 152.876 160.646 153.554 161.018C154.232 161.383 154.748 161.864 155.101 162.459C155.455 163.049 155.632 163.68 155.632 164.352H153.907C153.907 163.868 153.804 163.438 153.598 163.061C153.398 162.683 153.088 162.388 152.669 162.176C152.251 161.958 151.72 161.849 151.078 161.849C150.476 161.849 149.978 161.94 149.583 162.123C149.194 162.306 148.905 162.554 148.717 162.866C148.528 163.178 148.434 163.535 148.434 163.936C148.434 164.296 148.537 164.617 148.743 164.9C148.95 165.177 149.274 165.427 149.716 165.651C150.158 165.875 150.73 166.088 151.432 166.288C152.404 166.559 153.203 166.875 153.828 167.234C154.453 167.594 154.913 168.018 155.207 168.508C155.508 168.997 155.658 169.575 155.658 170.241C155.658 170.936 155.473 171.544 155.101 172.062C154.73 172.581 154.208 172.982 153.536 173.265C152.864 173.548 152.074 173.69 151.166 173.69Z" fill="#6B7280"/>
<rect x="69.4879" y="281.294" width="161.271" height="55.3662" rx="8.43667" fill="#F3F4F6"/>
<rect x="69.4879" y="281.294" width="161.271" height="55.3662" rx="8.43667" stroke="#E5E7EB" stroke-width="0.733623"/>
<path d="M97.1698 298.944C99.8307 298.944 102.383 300.001 104.264 301.883C106.146 303.765 107.203 306.316 107.203 308.977C107.203 311.638 106.146 314.19 104.264 316.072C102.383 317.953 99.8307 319.01 97.1698 319.01M107.203 308.977H87.1367M97.1698 298.944C94.5089 298.944 91.9569 300.001 90.0753 301.883C88.1938 303.765 87.1367 306.316 87.1367 308.977C87.1367 311.638 88.1938 314.19 90.0753 316.072C91.9569 317.953 94.5089 319.01 97.1698 319.01M97.1698 319.01C99.017 319.01 100.514 314.518 100.514 308.977C100.514 303.437 99.017 298.944 97.1698 298.944M97.1698 319.01C95.3226 319.01 93.8254 314.518 93.8254 308.977C93.8254 303.437 95.3226 298.944 97.1698 298.944" stroke="#3F3F46" stroke-width="2.22957" stroke-linecap="round" stroke-linejoin="round"/>
<path d="M130.474 312.288C130.315 312.518 130.061 312.78 129.714 313.075C129.372 313.363 128.894 313.617 128.281 313.835C127.674 314.047 126.887 314.153 125.92 314.153C124.877 314.153 123.948 313.912 123.135 313.428C122.327 312.945 121.693 312.246 121.233 311.333C120.774 310.419 120.544 309.322 120.544 308.043V307.026C120.544 305.747 120.744 304.653 121.145 303.745C121.546 302.832 122.129 302.133 122.896 301.65C123.668 301.166 124.608 300.925 125.717 300.925C126.701 300.925 127.527 301.096 128.193 301.437C128.859 301.774 129.378 302.239 129.749 302.835C130.126 303.43 130.368 304.108 130.474 304.868H128.759C128.682 304.403 128.529 303.978 128.299 303.595C128.075 303.206 127.753 302.897 127.335 302.667C126.916 302.431 126.38 302.313 125.726 302.313C124.93 302.313 124.275 302.505 123.762 302.888C123.255 303.265 122.878 303.804 122.631 304.506C122.389 305.207 122.268 306.042 122.268 307.008V308.043C122.268 309.033 122.421 309.882 122.728 310.59C123.034 311.291 123.462 311.831 124.01 312.208C124.558 312.585 125.198 312.774 125.929 312.774C126.536 312.774 127.025 312.724 127.397 312.624C127.774 312.518 128.069 312.394 128.281 312.252C128.493 312.105 128.655 311.966 128.767 311.837V308.936H125.796V307.566H130.474V312.288ZM134.842 313.977H133.189V300.394H134.842V313.977ZM137.027 309.095C137.027 308.17 137.203 307.342 137.557 306.611C137.911 305.88 138.412 305.302 139.06 304.877C139.709 304.447 140.478 304.232 141.368 304.232C142.27 304.232 143.049 304.447 143.703 304.877C144.357 305.302 144.858 305.88 145.206 306.611C145.56 307.342 145.737 308.17 145.737 309.095V309.299C145.737 310.218 145.56 311.047 145.206 311.784C144.858 312.515 144.357 313.092 143.703 313.517C143.054 313.941 142.282 314.153 141.386 314.153C140.49 314.153 139.715 313.941 139.06 313.517C138.412 313.092 137.911 312.515 137.557 311.784C137.203 311.047 137.027 310.218 137.027 309.299V309.095ZM138.68 309.299C138.68 309.93 138.78 310.513 138.981 311.05C139.181 311.586 139.479 312.016 139.874 312.341C140.275 312.665 140.779 312.827 141.386 312.827C141.987 312.827 142.486 312.665 142.881 312.341C143.281 312.016 143.582 311.586 143.782 311.05C143.983 310.513 144.083 309.93 144.083 309.299V309.095C144.083 308.465 143.983 307.881 143.782 307.344C143.582 306.808 143.281 306.378 142.881 306.053C142.48 305.723 141.976 305.558 141.368 305.558C140.773 305.558 140.275 305.723 139.874 306.053C139.473 306.378 139.172 306.808 138.972 307.344C138.777 307.881 138.68 308.465 138.68 309.095V309.299ZM152.192 314.153C151.378 314.153 150.7 313.971 150.158 313.605C149.616 313.234 149.194 312.712 148.894 312.04C148.593 311.362 148.395 310.56 148.301 309.635V308.777C148.395 307.84 148.593 307.032 148.894 306.354C149.194 305.676 149.613 305.154 150.149 304.789C150.692 304.418 151.367 304.232 152.174 304.232C152.976 304.232 153.654 304.435 154.208 304.842C154.762 305.249 155.184 305.821 155.473 306.557C155.762 307.288 155.906 308.14 155.906 309.113V309.299C155.906 310.23 155.762 311.061 155.473 311.792C155.184 312.523 154.762 313.101 154.208 313.526C153.654 313.944 152.982 314.153 152.192 314.153ZM147.797 313.977V300.394H149.451V312.12L149.309 313.977H147.797ZM151.776 312.774C152.366 312.774 152.84 312.618 153.2 312.305C153.566 311.987 153.831 311.565 153.996 311.041C154.167 310.516 154.252 309.935 154.252 309.299V309.113C154.252 308.476 154.173 307.893 154.014 307.362C153.854 306.826 153.592 306.398 153.227 306.08C152.867 305.762 152.378 305.602 151.759 305.602C151.352 305.602 150.995 305.673 150.689 305.815C150.388 305.956 150.132 306.148 149.919 306.389C149.707 306.625 149.533 306.896 149.398 307.203C149.268 307.504 149.171 307.816 149.106 308.14V310.289C149.2 310.702 149.353 311.1 149.566 311.483C149.778 311.86 150.064 312.17 150.423 312.411C150.789 312.653 151.24 312.774 151.776 312.774ZM163.608 307.415C163.608 306.843 163.437 306.389 163.095 306.053C162.759 305.712 162.261 305.541 161.601 305.541C161.194 305.541 160.834 305.611 160.522 305.753C160.215 305.894 159.977 306.08 159.806 306.31C159.635 306.54 159.549 306.79 159.549 307.062H157.896C157.896 306.602 158.052 306.157 158.364 305.726C158.677 305.29 159.116 304.933 159.682 304.656C160.254 304.373 160.926 304.232 161.698 304.232C162.394 304.232 163.01 304.35 163.546 304.586C164.083 304.821 164.501 305.178 164.802 305.656C165.108 306.127 165.262 306.72 165.262 307.433V311.89C165.262 312.208 165.288 312.547 165.341 312.907C165.4 313.266 165.486 313.576 165.598 313.835V313.977H163.873C163.791 313.788 163.726 313.537 163.679 313.225C163.632 312.907 163.608 312.612 163.608 312.341V307.415ZM163.891 309.325H162.264C161.332 309.325 160.613 309.473 160.106 309.767C159.599 310.062 159.346 310.504 159.346 311.094C159.346 311.554 159.499 311.943 159.806 312.261C160.118 312.579 160.572 312.739 161.167 312.739C161.668 312.739 162.111 312.632 162.494 312.42C162.877 312.208 163.181 311.946 163.405 311.633C163.629 311.321 163.749 311.02 163.767 310.731L164.475 311.518C164.433 311.766 164.321 312.04 164.139 312.341C163.956 312.641 163.711 312.93 163.405 313.207C163.104 313.478 162.744 313.705 162.326 313.888C161.913 314.065 161.447 314.153 160.929 314.153C160.28 314.153 159.711 314.03 159.222 313.782C158.739 313.529 158.361 313.187 158.09 312.756C157.825 312.326 157.692 311.848 157.692 311.324C157.692 310.292 158.081 309.511 158.859 308.98C159.638 308.444 160.684 308.176 161.999 308.176H163.891V309.325ZM169.63 313.977H167.976V300.394H169.63V313.977ZM181.073 314.153C180.477 314.153 179.891 314.071 179.313 313.906C178.741 313.741 178.219 313.493 177.748 313.163C177.282 312.833 176.908 312.426 176.625 311.943C176.348 311.453 176.209 310.887 176.209 310.245H177.924C177.924 310.687 178.01 311.067 178.181 311.386C178.352 311.704 178.585 311.966 178.879 312.173C179.174 312.379 179.51 312.532 179.888 312.632C180.265 312.727 180.66 312.774 181.073 312.774C181.668 312.774 182.169 312.691 182.576 312.526C182.988 312.355 183.301 312.117 183.513 311.81C183.731 311.504 183.84 311.141 183.84 310.722C183.84 310.316 183.755 309.971 183.584 309.688C183.413 309.405 183.106 309.148 182.664 308.918C182.222 308.689 181.594 308.456 180.781 308.22C180.144 308.037 179.569 307.831 179.056 307.601C178.549 307.365 178.113 307.097 177.748 306.796C177.382 306.496 177.102 306.151 176.908 305.762C176.713 305.373 176.616 304.927 176.616 304.426C176.616 303.754 176.796 303.156 177.155 302.631C177.521 302.101 178.031 301.685 178.685 301.384C179.339 301.078 180.106 300.925 180.984 300.925C181.957 300.925 182.782 301.11 183.46 301.482C184.138 301.847 184.654 302.328 185.008 302.923C185.361 303.513 185.538 304.143 185.538 304.815H183.814C183.814 304.332 183.711 303.902 183.504 303.524C183.304 303.147 182.994 302.852 182.576 302.64C182.157 302.422 181.627 302.313 180.984 302.313C180.383 302.313 179.885 302.404 179.49 302.587C179.101 302.77 178.812 303.017 178.623 303.33C178.434 303.642 178.34 303.999 178.34 304.4C178.34 304.759 178.443 305.081 178.65 305.364C178.856 305.641 179.18 305.891 179.622 306.115C180.064 306.339 180.636 306.552 181.338 306.752C182.31 307.023 183.109 307.339 183.734 307.698C184.359 308.058 184.819 308.482 185.114 308.972C185.414 309.461 185.565 310.039 185.565 310.705C185.565 311.4 185.379 312.008 185.008 312.526C184.636 313.045 184.114 313.446 183.442 313.729C182.77 314.012 181.98 314.153 181.073 314.153ZM188.5 300.933C188.819 300.933 189.06 301.025 189.226 301.208C189.397 301.39 189.482 301.611 189.482 301.871C189.482 302.124 189.397 302.342 189.226 302.525C189.06 302.702 188.819 302.79 188.5 302.79C188.182 302.79 187.94 302.702 187.775 302.525C187.616 302.342 187.537 302.124 187.537 301.871C187.537 301.611 187.616 301.39 187.775 301.208C187.94 301.025 188.182 300.933 188.5 300.933ZM189.332 313.977H187.687V304.409H189.332V313.977ZM196.034 305.656H190.853V304.409H196.034V305.656ZM194.248 302.083V311.607C194.248 311.937 194.298 312.184 194.399 312.349C194.499 312.515 194.628 312.624 194.788 312.677C194.947 312.73 195.118 312.756 195.301 312.756C195.436 312.756 195.578 312.744 195.725 312.721C195.878 312.697 195.99 312.677 196.061 312.659V313.977C195.931 314.018 195.763 314.056 195.557 314.092C195.351 314.133 195.1 314.153 194.805 314.153C194.404 314.153 194.036 314.074 193.7 313.915C193.364 313.755 193.096 313.49 192.895 313.119C192.695 312.742 192.595 312.235 192.595 311.598V302.083H194.248ZM201.915 314.153C201.025 314.153 200.25 313.956 199.589 313.561C198.935 313.16 198.425 312.612 198.059 311.916C197.7 311.221 197.52 310.425 197.52 309.529V309.148C197.52 308.111 197.718 307.227 198.113 306.496C198.513 305.759 199.032 305.199 199.669 304.815C200.311 304.426 200.989 304.232 201.703 304.232C202.622 304.232 203.371 304.438 203.949 304.851C204.532 305.258 204.96 305.815 205.231 306.522C205.508 307.224 205.647 308.019 205.647 308.91V309.644H198.502V308.317H203.993V308.193C203.969 307.769 203.884 307.356 203.737 306.955C203.589 306.549 203.353 306.216 203.029 305.956C202.705 305.691 202.263 305.558 201.703 305.558C201.208 305.558 200.768 305.7 200.385 305.983C200.008 306.26 199.71 306.667 199.492 307.203C199.28 307.734 199.174 308.382 199.174 309.148V309.529C199.174 310.136 199.286 310.69 199.51 311.191C199.734 311.686 200.058 312.084 200.482 312.385C200.907 312.68 201.414 312.827 202.003 312.827C202.581 312.827 203.07 312.709 203.471 312.473C203.872 312.237 204.223 311.922 204.524 311.527L205.523 312.305C205.216 312.777 204.774 313.204 204.196 313.587C203.625 313.965 202.864 314.153 201.915 314.153ZM211.076 314.153C210.233 314.153 209.52 314.003 208.936 313.702C208.352 313.402 207.91 313.016 207.61 312.544C207.309 312.067 207.159 311.562 207.159 311.032H208.812C208.842 311.48 208.971 311.837 209.201 312.102C209.437 312.361 209.723 312.547 210.059 312.659C210.401 312.771 210.74 312.827 211.076 312.827C211.524 312.827 211.898 312.768 212.199 312.65C212.506 312.526 212.736 312.361 212.889 312.155C213.048 311.943 213.128 311.704 213.128 311.439C213.128 311.203 213.075 310.985 212.968 310.784C212.868 310.578 212.662 310.392 212.349 310.227C212.037 310.056 211.565 309.906 210.935 309.776C210.227 309.629 209.614 309.443 209.095 309.219C208.582 308.989 208.184 308.697 207.902 308.344C207.624 307.99 207.486 307.551 207.486 307.026C207.486 306.519 207.63 306.056 207.919 305.638C208.214 305.213 208.627 304.874 209.157 304.621C209.694 304.362 210.319 304.232 211.032 304.232C211.798 304.232 212.453 304.367 212.995 304.639C213.543 304.904 213.962 305.263 214.251 305.717C214.539 306.165 214.684 306.664 214.684 307.212H213.03C213.03 306.817 212.856 306.443 212.509 306.089C212.167 305.735 211.674 305.558 211.032 305.558C210.584 305.558 210.218 305.629 209.935 305.77C209.658 305.906 209.455 306.083 209.325 306.301C209.201 306.513 209.139 306.737 209.139 306.973C209.139 307.209 209.198 307.415 209.316 307.592C209.434 307.763 209.649 307.916 209.962 308.052C210.28 308.187 210.74 308.323 211.341 308.459C212.125 308.636 212.771 308.848 213.278 309.095C213.785 309.343 214.162 309.647 214.41 310.006C214.657 310.366 214.781 310.805 214.781 311.324C214.781 311.878 214.628 312.37 214.321 312.8C214.015 313.225 213.584 313.558 213.03 313.8C212.476 314.036 211.825 314.153 211.076 314.153Z" fill="#6B7280"/>
</svg>
