<svg width="443" height="289" viewBox="0 0 443 289" fill="none" xmlns="http://www.w3.org/2000/svg">
<rect x="26.4727" y="206.271" width="82.729" height="82.729" rx="8.82443" fill="#EEF2FF"/>
<path d="M90.8359 247.636H76.8999L69.7243 267.136L65.9475 228.136L58.7719 247.636H58.8096H44.8359" stroke="#4F46E5" stroke-width="3.30916" stroke-linecap="round" stroke-linejoin="round"/>
<rect x="329.812" width="82.729" height="82.729" rx="8.82443" fill="#EEF2FF"/>
<path d="M361.433 43.8001V41.3642M371.177 43.8001V36.4924M380.921 43.8001V31.6206M361.433 63.2874L371.177 53.5438L380.921 63.2874M349.254 21.877H393.1M351.69 21.877H390.664V51.1079C390.664 51.7539 390.408 52.3735 389.951 52.8303C389.494 53.2871 388.875 53.5438 388.228 53.5438H354.126C353.48 53.5438 352.86 53.2871 352.403 52.8303C351.946 52.3735 351.69 51.7539 351.69 51.1079V21.877Z" stroke="#4F46E5" stroke-width="3.30916" stroke-linecap="round" stroke-linejoin="round"/>
<rect x="26.4727" width="82.729" height="82.729" rx="8.82443" fill="#EEF2FF"/>
<path d="M60.5295 19.4414V24.3132M75.145 19.4414V24.3132M60.5295 58.416V63.2878M75.145 58.416V63.2878M50.7859 34.0569H45.9141M50.7859 48.6723H45.9141M89.7604 34.0569H84.8886M89.7604 48.6723H84.8886M55.6577 58.416H80.0168C81.3089 58.416 82.548 57.9027 83.4617 56.989C84.3753 56.0754 84.8886 54.8362 84.8886 53.5441V29.185C84.8886 27.893 84.3753 26.6538 83.4617 25.7401C82.548 24.8265 81.3089 24.3132 80.0168 24.3132H55.6577C54.3656 24.3132 53.1264 24.8265 52.2128 25.7401C51.2992 26.6538 50.7859 27.893 50.7859 29.185V53.5441C50.7859 54.8362 51.2992 56.0754 52.2128 56.989C53.1264 57.9027 54.3656 58.416 55.6577 58.416ZM60.5295 34.0569H75.145V48.6723H60.5295V34.0569Z" stroke="#4F46E5" stroke-width="3.30916" stroke-linecap="round" stroke-linejoin="round"/>
<rect x="329.812" y="206.271" width="82.729" height="82.729" rx="8.82443" fill="#EEF2FF"/>
<path d="M351.688 235.457V259.816C351.688 265.199 360.413 269.559 371.175 269.559C381.937 269.559 390.662 265.199 390.662 259.816V235.457M351.688 235.457C351.688 240.84 360.413 245.2 371.175 245.2C381.937 245.2 390.662 240.84 390.662 235.457M351.688 235.457C351.688 230.073 360.413 225.713 371.175 225.713C381.937 225.713 390.662 230.073 390.662 235.457M390.662 247.636C390.662 253.019 381.937 257.38 371.175 257.38C360.413 257.38 351.688 253.019 351.688 247.636" stroke="#4F46E5" stroke-width="3.30916" stroke-linecap="round" stroke-linejoin="round"/>
<rect x="359.594" y="103.688" width="82.729" height="82.729" rx="8.82443" fill="#EEF2FF"/>
<path d="M408.264 157.232H420.443L417.021 153.809C416.561 153.349 416.197 152.804 415.948 152.203C415.699 151.603 415.571 150.959 415.571 150.309V142.616C415.572 139.593 414.635 136.644 412.89 134.175C411.145 131.707 408.678 129.84 405.828 128.831V128.001C405.828 126.709 405.315 125.469 404.401 124.556C403.487 123.642 402.248 123.129 400.956 123.129C399.664 123.129 398.425 123.642 397.511 124.556C396.597 125.469 396.084 126.709 396.084 128.001V128.831C390.409 130.839 386.341 136.254 386.341 142.616V150.311C386.341 151.622 385.819 152.881 384.891 153.809L381.469 157.232H393.648M408.264 157.232H393.648M408.264 157.232V159.668C408.264 161.606 407.494 163.464 406.123 164.835C404.753 166.205 402.894 166.975 400.956 166.975C399.018 166.975 397.159 166.205 395.789 164.835C394.418 163.464 393.648 161.606 393.648 159.668V157.232" stroke="#4F46E5" stroke-width="3.30916" stroke-linecap="round" stroke-linejoin="round"/>
<rect y="103.688" width="82.729" height="82.729" rx="8.82443" fill="#EEF2FF"/>
<path d="M51.1059 135.308V154.795M41.3623 142.616V154.795M31.6186 149.924V154.795M26.7468 164.539H55.9777C57.2698 164.539 58.509 164.026 59.4226 163.112C60.3363 162.198 60.8496 160.959 60.8496 159.667V130.436C60.8496 129.144 60.3363 127.905 59.4226 126.991C58.509 126.078 57.2698 125.564 55.9777 125.564H26.7468C25.4547 125.564 24.2156 126.078 23.3019 126.991C22.3883 127.905 21.875 129.144 21.875 130.436V159.667C21.875 160.959 22.3883 162.198 23.3019 163.112C24.2156 164.026 25.4547 164.539 26.7468 164.539Z" stroke="#4F46E5" stroke-width="3.30916" stroke-linecap="round" stroke-linejoin="round"/>
<path d="M117.005 49.5369C116.704 49.4912 116.423 49.6982 116.377 49.9993C116.331 50.3005 116.538 50.5817 116.84 50.6275L116.922 50.0822L117.005 49.5369ZM197.211 99.7902C197.513 99.8255 197.787 99.609 197.822 99.3064L198.399 94.3763C198.434 94.0737 198.218 93.7998 197.915 93.7644C197.613 93.7291 197.339 93.9456 197.303 94.2482L196.791 98.6305L192.409 98.1182C192.106 98.0828 191.832 98.2994 191.797 98.6019C191.761 98.9045 191.978 99.1784 192.28 99.2138L197.211 99.7902ZM116.922 50.0822L116.84 50.6275C135.94 53.5301 149.685 57.8827 161.77 65.4315C173.861 72.9841 184.331 83.7612 196.842 99.5844L197.275 99.2424L197.707 98.9003C185.169 83.0425 174.606 72.1486 162.354 64.4959C150.097 56.8394 136.191 52.4525 117.005 49.5369L116.922 50.0822Z" fill="#F9FAFB"/>
<path d="M113.699 248.162C113.397 248.208 113.116 248.001 113.07 247.7C113.025 247.399 113.232 247.118 113.533 247.072L113.616 247.617L113.699 248.162ZM200.963 193.59C201.265 193.555 201.539 193.771 201.575 194.074L202.151 199.004C202.187 199.307 201.97 199.581 201.667 199.616C201.365 199.651 201.091 199.435 201.056 199.132L200.543 194.75L196.161 195.262C195.858 195.298 195.584 195.081 195.549 194.779C195.514 194.476 195.73 194.202 196.033 194.167L200.963 193.59ZM113.616 247.617L113.533 247.072C134.314 243.914 149.275 239.177 162.429 230.96C175.589 222.74 186.983 211.011 200.594 193.796L201.027 194.138L201.46 194.48C187.821 211.73 176.334 223.575 163.013 231.896C149.686 240.22 134.565 244.991 113.699 248.162L113.616 247.617Z" fill="#F9FAFB"/>
<path d="M90.608 141.72C90.3157 141.635 90.1482 141.328 90.2339 141.036C90.3195 140.744 90.6259 140.576 90.9182 140.662L90.7631 141.191L90.608 141.72ZM174.108 145.771C174.35 145.956 174.397 146.302 174.212 146.544L171.203 150.492C171.018 150.734 170.672 150.781 170.43 150.596C170.188 150.411 170.141 150.065 170.326 149.823L173.001 146.314L169.492 143.639C169.25 143.455 169.203 143.108 169.388 142.866C169.573 142.624 169.919 142.577 170.161 142.762L174.108 145.771ZM90.7631 141.191L90.9182 140.662C123.523 150.218 141.711 149.976 173.7 145.664L173.774 146.21L173.847 146.757C141.75 151.084 123.4 151.331 90.608 141.72L90.7631 141.191Z" fill="#F9FAFB"/>
<path d="M318.476 52.6431C318.721 52.8237 318.774 53.1689 318.593 53.4142L315.651 57.4116C315.47 57.6569 315.125 57.7094 314.879 57.5288C314.634 57.3483 314.582 57.003 314.762 56.7577L317.378 53.2045L313.825 50.5887C313.579 50.4081 313.527 50.0629 313.708 49.8176C313.888 49.5723 314.233 49.5198 314.479 49.7004L318.476 52.6431ZM240.869 100.975C240.68 101.214 240.333 101.254 240.094 101.065C239.855 100.876 239.815 100.53 240.004 100.291L240.436 100.633L240.869 100.975ZM318.149 53.0873L318.232 53.6325C299.761 56.4396 286.469 60.6487 274.784 67.9478C263.093 75.2506 252.968 85.6718 240.869 100.975L240.436 100.633L240.004 100.291C252.13 84.9532 262.348 74.4152 274.2 67.0122C286.058 59.6054 299.51 55.362 318.066 52.542L318.149 53.0873Z" fill="#F9FAFB"/>
<path d="M323.864 238.115C324.109 237.935 324.161 237.59 323.981 237.344L321.038 233.347C320.858 233.102 320.512 233.049 320.267 233.23C320.022 233.41 319.969 233.756 320.15 234.001L322.766 237.554L319.212 240.17C318.967 240.35 318.915 240.696 319.095 240.941C319.276 241.186 319.621 241.239 319.866 241.058L323.864 238.115ZM247.406 190.487C247.217 190.248 246.87 190.207 246.631 190.396C246.392 190.585 246.352 190.932 246.54 191.171L246.973 190.829L247.406 190.487ZM323.537 237.671L323.62 237.126C305.422 234.361 292.329 230.214 280.817 223.024C269.3 215.83 259.326 205.563 247.406 190.487L246.973 190.829L246.54 191.171C258.488 206.282 268.555 216.665 280.233 223.959C291.917 231.257 305.171 235.438 323.454 238.217L323.537 237.671Z" fill="#F9FAFB"/>
<path d="M347.571 140.353C347.717 140.085 347.619 139.75 347.351 139.604L342.996 137.223C342.729 137.077 342.394 137.175 342.247 137.442C342.101 137.71 342.2 138.045 342.467 138.191L346.338 140.307L344.222 144.179C344.076 144.446 344.174 144.781 344.441 144.927C344.708 145.073 345.043 144.975 345.19 144.708L347.571 140.353ZM263.703 144.587C263.402 144.547 263.124 144.758 263.083 145.06C263.042 145.362 263.254 145.64 263.556 145.681L263.63 145.134L263.703 144.587ZM347.087 140.088L346.932 139.559C314.151 149.166 295.865 148.923 263.703 144.587L263.63 145.134L263.556 145.681C295.826 150.031 314.274 150.279 347.242 140.617L347.087 140.088Z" fill="#F9FAFB"/>
<g clip-path="url(#clip0_7084_4546)">
<path d="M223.781 153.134C230.097 155.805 236.163 158.977 242.702 160.452C245.624 160.925 248.573 161.175 251.467 161.175V145.093H249.046C240.087 145.093 231.795 149.74 223.781 153.134Z" fill="#DA3D0B"/>
<path d="M205.114 158.253C202.192 158.003 199.27 158.003 196.377 158.003H189.727V172.778C189.727 175.449 191.897 177.592 194.54 177.592H246.656C249.327 177.592 251.47 175.421 251.47 172.778V170.914C245.154 170.914 238.587 170.107 232.744 167.658C223.561 164.514 215.075 158.504 205.114 158.253Z" fill="#DA3D0B"/>
<path d="M246.684 115.821H194.54C191.897 115.821 189.727 117.992 189.727 120.663V148.042C195.57 148.042 201.719 148.293 207.534 147.792C215.548 147.069 222.588 142.672 230.1 139.751C236.89 136.829 244.207 135.132 251.498 135.354V120.663C251.498 117.992 249.327 115.821 246.684 115.821Z" fill="#DA3D0B"/>
<path d="M251.498 145.093V135.354C244.207 135.104 236.917 136.829 230.1 139.75C222.56 142.672 215.548 147.068 207.534 147.792C201.719 148.293 195.57 148.042 189.727 148.042V158.031H196.377C199.27 158.031 202.192 158.031 205.114 158.282C215.075 158.532 223.561 164.542 232.771 167.686C238.615 170.135 245.181 170.942 251.498 170.942V161.203C248.604 161.203 245.627 160.953 242.733 160.48C236.166 159.005 230.128 155.861 223.812 153.162C231.825 149.739 240.117 145.121 249.077 145.121L251.498 145.093Z" fill="white"/>
</g>
<defs>
<clipPath id="clip0_7084_4546">
<rect width="61.771" height="61.771" fill="white" transform="translate(189.727 115.82)"/>
</clipPath>
</defs>
</svg>
